G04 #@! TF.GenerationSoftware,KiCad,Pcbnew,5.1.5-52549c5~84~ubuntu18.04.1*
G04 #@! TF.CreationDate,2020-03-18T15:45:27+02:00*
G04 #@! TF.ProjectId,ESP32-EVB_Rev_I,45535033-322d-4455-9642-5f5265765f49,I*
G04 #@! TF.SameCoordinates,Original*
G04 #@! TF.FileFunction,Legend,Bot*
G04 #@! TF.FilePolarity,Positive*
%FSLAX46Y46*%
G04 Gerber Fmt 4.6, Leading zero omitted, Abs format (unit mm)*
G04 Created by KiCad (PCBNEW 5.1.5-52549c5~84~ubuntu18.04.1) date 2020-03-18 15:45:27*
%MOMM*%
%LPD*%
G04 APERTURE LIST*
%ADD10C,0.254000*%
%ADD11C,0.317500*%
%ADD12C,0.190500*%
%ADD13C,0.381000*%
%ADD14C,0.300000*%
%ADD15C,0.635000*%
%ADD16C,0.200000*%
%ADD17C,0.187500*%
%ADD18C,0.250000*%
%ADD19C,0.508000*%
%ADD20C,0.150000*%
%ADD21C,0.127000*%
%ADD22C,0.420000*%
%ADD23C,0.370000*%
%ADD24C,0.400000*%
%ADD25C,0.380000*%
%ADD26C,1.000000*%
%ADD27C,0.700000*%
%ADD28C,0.500000*%
%ADD29C,0.100000*%
%ADD30C,0.350000*%
%ADD31C,0.180000*%
G04 APERTURE END LIST*
D10*
X143063157Y-107043421D02*
X143097368Y-106940790D01*
X143199999Y-106838158D01*
X143336841Y-106769737D01*
X143473683Y-106769737D01*
X143576315Y-106803948D01*
X143747367Y-106906579D01*
X143849999Y-107009211D01*
X143952630Y-107180263D01*
X143986841Y-107282895D01*
X143986841Y-107419737D01*
X143918420Y-107556579D01*
X143849999Y-107625000D01*
X143713157Y-107693421D01*
X143644736Y-107693421D01*
X143405262Y-107453947D01*
X143542104Y-107317105D01*
X143405262Y-108069736D02*
X142686842Y-107351316D01*
X142994736Y-108480262D01*
X142276316Y-107761842D01*
X142652631Y-108822367D02*
X141934211Y-108103947D01*
X141763158Y-108274999D01*
X141694737Y-108411841D01*
X141694737Y-108548683D01*
X141728948Y-108651315D01*
X141831579Y-108822367D01*
X141934211Y-108924999D01*
X142105263Y-109027630D01*
X142207895Y-109061841D01*
X142344737Y-109061841D01*
X142481579Y-108993420D01*
X142652631Y-108822367D01*
X143884209Y-110628947D02*
X143952630Y-110628947D01*
X144089472Y-110560526D01*
X144157893Y-110492105D01*
X144226314Y-110355263D01*
X144226314Y-110218421D01*
X144192104Y-110115790D01*
X144089472Y-109944737D01*
X143986841Y-109842106D01*
X143815788Y-109739474D01*
X143713157Y-109705264D01*
X143576315Y-109705264D01*
X143439473Y-109773685D01*
X143371052Y-109842106D01*
X143302631Y-109978948D01*
X143302631Y-110047369D01*
X143473683Y-110765789D02*
X143131578Y-111107894D01*
X143747367Y-110902631D02*
X142789473Y-110423684D01*
X143268420Y-111381578D01*
X143028947Y-111621052D02*
X142310526Y-110902631D01*
X142618421Y-112031578D01*
X141900000Y-111313157D01*
X141934211Y-112715788D02*
X142276316Y-112373683D01*
X141557895Y-111655262D01*
X143969735Y-114353421D02*
X144038156Y-114353421D01*
X144174998Y-114285000D01*
X144243419Y-114216579D01*
X144311840Y-114079737D01*
X144311840Y-113942895D01*
X144277630Y-113840264D01*
X144174998Y-113669211D01*
X144072367Y-113566580D01*
X143901314Y-113463948D01*
X143798683Y-113429738D01*
X143661841Y-113429738D01*
X143524999Y-113498159D01*
X143456578Y-113566580D01*
X143388157Y-113703422D01*
X143388157Y-113771843D01*
X143559209Y-114490263D02*
X143217104Y-114832368D01*
X143832893Y-114627105D02*
X142875000Y-114148158D01*
X143353946Y-115106052D01*
X143114473Y-115345525D02*
X142396053Y-114627105D01*
X142703947Y-115756051D01*
X141985527Y-115037631D01*
X142361842Y-116098156D02*
X141643422Y-115379736D01*
X141985527Y-115721841D02*
X141575001Y-116132367D01*
X141951316Y-116508682D02*
X141232896Y-115790262D01*
D11*
X135914190Y-130265714D02*
X136881809Y-130265714D01*
X135914190Y-132297714D02*
X136881809Y-132297714D01*
X136398000Y-132781523D02*
X136398000Y-131813904D01*
D12*
X139155714Y-132793619D02*
X139736285Y-132793619D01*
X139446000Y-132793619D02*
X139446000Y-131777619D01*
X139542761Y-131922761D01*
X139639523Y-132019523D01*
X139736285Y-132067904D01*
X70394285Y-120994714D02*
X70829714Y-120994714D01*
X70612000Y-120994714D02*
X70612000Y-120232714D01*
X70684571Y-120341571D01*
X70757142Y-120414142D01*
X70829714Y-120450428D01*
X76617285Y-133694714D02*
X77052714Y-133694714D01*
X76835000Y-133694714D02*
X76835000Y-132932714D01*
X76907571Y-133041571D01*
X76980142Y-133114142D01*
X77052714Y-133150428D01*
D13*
X92673714Y-93399428D02*
X93181714Y-92673714D01*
X93544571Y-93399428D02*
X93544571Y-91875428D01*
X92964000Y-91875428D01*
X92818857Y-91948000D01*
X92746285Y-92020571D01*
X92673714Y-92165714D01*
X92673714Y-92383428D01*
X92746285Y-92528571D01*
X92818857Y-92601142D01*
X92964000Y-92673714D01*
X93544571Y-92673714D01*
X91440000Y-93326857D02*
X91585142Y-93399428D01*
X91875428Y-93399428D01*
X92020571Y-93326857D01*
X92093142Y-93181714D01*
X92093142Y-92601142D01*
X92020571Y-92456000D01*
X91875428Y-92383428D01*
X91585142Y-92383428D01*
X91440000Y-92456000D01*
X91367428Y-92601142D01*
X91367428Y-92746285D01*
X92093142Y-92891428D01*
X90859428Y-92383428D02*
X90496571Y-93399428D01*
X90133714Y-92383428D01*
X89553142Y-93254285D02*
X89480571Y-93326857D01*
X89553142Y-93399428D01*
X89625714Y-93326857D01*
X89553142Y-93254285D01*
X89553142Y-93399428D01*
X88827428Y-93399428D02*
X88827428Y-91875428D01*
D12*
X129140857Y-139663714D02*
X128669142Y-139663714D01*
X128923142Y-139954000D01*
X128814285Y-139954000D01*
X128741714Y-139990285D01*
X128705428Y-140026571D01*
X128669142Y-140099142D01*
X128669142Y-140280571D01*
X128705428Y-140353142D01*
X128741714Y-140389428D01*
X128814285Y-140425714D01*
X129032000Y-140425714D01*
X129104571Y-140389428D01*
X129140857Y-140353142D01*
X128306285Y-140425714D02*
X128161142Y-140425714D01*
X128088571Y-140389428D01*
X128052285Y-140353142D01*
X127979714Y-140244285D01*
X127943428Y-140099142D01*
X127943428Y-139808857D01*
X127979714Y-139736285D01*
X128016000Y-139700000D01*
X128088571Y-139663714D01*
X128233714Y-139663714D01*
X128306285Y-139700000D01*
X128342571Y-139736285D01*
X128378857Y-139808857D01*
X128378857Y-139990285D01*
X128342571Y-140062857D01*
X128306285Y-140099142D01*
X128233714Y-140135428D01*
X128088571Y-140135428D01*
X128016000Y-140099142D01*
X127979714Y-140062857D01*
X127943428Y-139990285D01*
X77306714Y-136180285D02*
X77270428Y-136144000D01*
X77197857Y-136107714D01*
X77016428Y-136107714D01*
X76943857Y-136144000D01*
X76907571Y-136180285D01*
X76871285Y-136252857D01*
X76871285Y-136325428D01*
X76907571Y-136434285D01*
X77343000Y-136869714D01*
X76871285Y-136869714D01*
D10*
X140359190Y-89867619D02*
X140697857Y-89383809D01*
X140939761Y-89867619D02*
X140939761Y-88851619D01*
X140552714Y-88851619D01*
X140455952Y-88900000D01*
X140407571Y-88948380D01*
X140359190Y-89045142D01*
X140359190Y-89190285D01*
X140407571Y-89287047D01*
X140455952Y-89335428D01*
X140552714Y-89383809D01*
X140939761Y-89383809D01*
X139923761Y-89335428D02*
X139585095Y-89335428D01*
X139439952Y-89867619D02*
X139923761Y-89867619D01*
X139923761Y-88851619D01*
X139439952Y-88851619D01*
X138520714Y-89867619D02*
X139004523Y-89867619D01*
X139004523Y-88851619D01*
X138230428Y-88948380D02*
X138182047Y-88900000D01*
X138085285Y-88851619D01*
X137843380Y-88851619D01*
X137746619Y-88900000D01*
X137698238Y-88948380D01*
X137649857Y-89045142D01*
X137649857Y-89141904D01*
X137698238Y-89287047D01*
X138278809Y-89867619D01*
X137649857Y-89867619D01*
X140359190Y-104853619D02*
X140697857Y-104369809D01*
X140939761Y-104853619D02*
X140939761Y-103837619D01*
X140552714Y-103837619D01*
X140455952Y-103886000D01*
X140407571Y-103934380D01*
X140359190Y-104031142D01*
X140359190Y-104176285D01*
X140407571Y-104273047D01*
X140455952Y-104321428D01*
X140552714Y-104369809D01*
X140939761Y-104369809D01*
X139923761Y-104321428D02*
X139585095Y-104321428D01*
X139439952Y-104853619D02*
X139923761Y-104853619D01*
X139923761Y-103837619D01*
X139439952Y-103837619D01*
X138520714Y-104853619D02*
X139004523Y-104853619D01*
X139004523Y-103837619D01*
X137649857Y-104853619D02*
X138230428Y-104853619D01*
X137940142Y-104853619D02*
X137940142Y-103837619D01*
X138036904Y-103982761D01*
X138133666Y-104079523D01*
X138230428Y-104127904D01*
X144098095Y-74686523D02*
X142798095Y-74686523D01*
X144098095Y-75429380D01*
X142798095Y-75429380D01*
X143974285Y-76791285D02*
X144036190Y-76729380D01*
X144098095Y-76543666D01*
X144098095Y-76419857D01*
X144036190Y-76234142D01*
X143912380Y-76110333D01*
X143788571Y-76048428D01*
X143540952Y-75986523D01*
X143355238Y-75986523D01*
X143107619Y-76048428D01*
X142983809Y-76110333D01*
X142860000Y-76234142D01*
X142798095Y-76419857D01*
X142798095Y-76543666D01*
X142860000Y-76729380D01*
X142921904Y-76791285D01*
X142921904Y-77286523D02*
X142860000Y-77348428D01*
X142798095Y-77472238D01*
X142798095Y-77781761D01*
X142860000Y-77905571D01*
X142921904Y-77967476D01*
X143045714Y-78029380D01*
X143169523Y-78029380D01*
X143355238Y-77967476D01*
X144098095Y-77224619D01*
X144098095Y-78029380D01*
X143974285Y-80020523D02*
X144036190Y-79958619D01*
X144098095Y-79772904D01*
X144098095Y-79649095D01*
X144036190Y-79463380D01*
X143912380Y-79339571D01*
X143788571Y-79277666D01*
X143540952Y-79215761D01*
X143355238Y-79215761D01*
X143107619Y-79277666D01*
X142983809Y-79339571D01*
X142860000Y-79463380D01*
X142798095Y-79649095D01*
X142798095Y-79772904D01*
X142860000Y-79958619D01*
X142921904Y-80020523D01*
X142798095Y-80825285D02*
X142798095Y-81072904D01*
X142860000Y-81196714D01*
X142983809Y-81320523D01*
X143231428Y-81382428D01*
X143664761Y-81382428D01*
X143912380Y-81320523D01*
X144036190Y-81196714D01*
X144098095Y-81072904D01*
X144098095Y-80825285D01*
X144036190Y-80701476D01*
X143912380Y-80577666D01*
X143664761Y-80515761D01*
X143231428Y-80515761D01*
X142983809Y-80577666D01*
X142860000Y-80701476D01*
X142798095Y-80825285D01*
X144098095Y-81939571D02*
X142798095Y-81939571D01*
X143726666Y-82372904D01*
X142798095Y-82806238D01*
X144098095Y-82806238D01*
X142921904Y-83363380D02*
X142860000Y-83425285D01*
X142798095Y-83549095D01*
X142798095Y-83858619D01*
X142860000Y-83982428D01*
X142921904Y-84044333D01*
X143045714Y-84106238D01*
X143169523Y-84106238D01*
X143355238Y-84044333D01*
X144098095Y-83301476D01*
X144098095Y-84106238D01*
X144098095Y-85196571D02*
X142798095Y-85196571D01*
X144098095Y-85939428D01*
X142798095Y-85939428D01*
X142798095Y-86806095D02*
X142798095Y-87053714D01*
X142860000Y-87177523D01*
X142983809Y-87301333D01*
X143231428Y-87363238D01*
X143664761Y-87363238D01*
X143912380Y-87301333D01*
X144036190Y-87177523D01*
X144098095Y-87053714D01*
X144098095Y-86806095D01*
X144036190Y-86682285D01*
X143912380Y-86558476D01*
X143664761Y-86496571D01*
X143231428Y-86496571D01*
X142983809Y-86558476D01*
X142860000Y-86682285D01*
X142798095Y-86806095D01*
X142921904Y-87858476D02*
X142860000Y-87920380D01*
X142798095Y-88044190D01*
X142798095Y-88353714D01*
X142860000Y-88477523D01*
X142921904Y-88539428D01*
X143045714Y-88601333D01*
X143169523Y-88601333D01*
X143355238Y-88539428D01*
X144098095Y-87796571D01*
X144098095Y-88601333D01*
X144098095Y-89672523D02*
X142798095Y-89672523D01*
X144098095Y-90415380D01*
X142798095Y-90415380D01*
X143974285Y-91777285D02*
X144036190Y-91715380D01*
X144098095Y-91529666D01*
X144098095Y-91405857D01*
X144036190Y-91220142D01*
X143912380Y-91096333D01*
X143788571Y-91034428D01*
X143540952Y-90972523D01*
X143355238Y-90972523D01*
X143107619Y-91034428D01*
X142983809Y-91096333D01*
X142860000Y-91220142D01*
X142798095Y-91405857D01*
X142798095Y-91529666D01*
X142860000Y-91715380D01*
X142921904Y-91777285D01*
X144098095Y-93015380D02*
X144098095Y-92272523D01*
X144098095Y-92643952D02*
X142798095Y-92643952D01*
X142983809Y-92520142D01*
X143107619Y-92396333D01*
X143169523Y-92272523D01*
X143974285Y-95006523D02*
X144036190Y-94944619D01*
X144098095Y-94758904D01*
X144098095Y-94635095D01*
X144036190Y-94449380D01*
X143912380Y-94325571D01*
X143788571Y-94263666D01*
X143540952Y-94201761D01*
X143355238Y-94201761D01*
X143107619Y-94263666D01*
X142983809Y-94325571D01*
X142860000Y-94449380D01*
X142798095Y-94635095D01*
X142798095Y-94758904D01*
X142860000Y-94944619D01*
X142921904Y-95006523D01*
X142798095Y-95811285D02*
X142798095Y-96058904D01*
X142860000Y-96182714D01*
X142983809Y-96306523D01*
X143231428Y-96368428D01*
X143664761Y-96368428D01*
X143912380Y-96306523D01*
X144036190Y-96182714D01*
X144098095Y-96058904D01*
X144098095Y-95811285D01*
X144036190Y-95687476D01*
X143912380Y-95563666D01*
X143664761Y-95501761D01*
X143231428Y-95501761D01*
X142983809Y-95563666D01*
X142860000Y-95687476D01*
X142798095Y-95811285D01*
X144098095Y-96925571D02*
X142798095Y-96925571D01*
X143726666Y-97358904D01*
X142798095Y-97792238D01*
X144098095Y-97792238D01*
X144098095Y-99092238D02*
X144098095Y-98349380D01*
X144098095Y-98720809D02*
X142798095Y-98720809D01*
X142983809Y-98597000D01*
X143107619Y-98473190D01*
X143169523Y-98349380D01*
X144098095Y-100309571D02*
X142798095Y-100309571D01*
X144098095Y-101052428D01*
X142798095Y-101052428D01*
X142798095Y-101919095D02*
X142798095Y-102166714D01*
X142860000Y-102290523D01*
X142983809Y-102414333D01*
X143231428Y-102476238D01*
X143664761Y-102476238D01*
X143912380Y-102414333D01*
X144036190Y-102290523D01*
X144098095Y-102166714D01*
X144098095Y-101919095D01*
X144036190Y-101795285D01*
X143912380Y-101671476D01*
X143664761Y-101609571D01*
X143231428Y-101609571D01*
X142983809Y-101671476D01*
X142860000Y-101795285D01*
X142798095Y-101919095D01*
X144098095Y-103714333D02*
X144098095Y-102971476D01*
X144098095Y-103342904D02*
X142798095Y-103342904D01*
X142983809Y-103219095D01*
X143107619Y-103095285D01*
X143169523Y-102971476D01*
D13*
X80663142Y-93980000D02*
X80735714Y-93907428D01*
X80880857Y-93689714D01*
X80953428Y-93544571D01*
X81026000Y-93326857D01*
X81098571Y-92964000D01*
X81098571Y-92673714D01*
X81026000Y-92310857D01*
X80953428Y-92093142D01*
X80880857Y-91948000D01*
X80735714Y-91730285D01*
X80663142Y-91657714D01*
X79211714Y-93254285D02*
X79284285Y-93326857D01*
X79502000Y-93399428D01*
X79647142Y-93399428D01*
X79864857Y-93326857D01*
X80010000Y-93181714D01*
X80082571Y-93036571D01*
X80155142Y-92746285D01*
X80155142Y-92528571D01*
X80082571Y-92238285D01*
X80010000Y-92093142D01*
X79864857Y-91948000D01*
X79647142Y-91875428D01*
X79502000Y-91875428D01*
X79284285Y-91948000D01*
X79211714Y-92020571D01*
X78703714Y-93980000D02*
X78631142Y-93907428D01*
X78486000Y-93689714D01*
X78413428Y-93544571D01*
X78340857Y-93326857D01*
X78268285Y-92964000D01*
X78268285Y-92673714D01*
X78340857Y-92310857D01*
X78413428Y-92093142D01*
X78486000Y-91948000D01*
X78631142Y-91730285D01*
X78703714Y-91657714D01*
X76454000Y-92020571D02*
X76381428Y-91948000D01*
X76236285Y-91875428D01*
X75873428Y-91875428D01*
X75728285Y-91948000D01*
X75655714Y-92020571D01*
X75583142Y-92165714D01*
X75583142Y-92310857D01*
X75655714Y-92528571D01*
X76526571Y-93399428D01*
X75583142Y-93399428D01*
X74639714Y-91875428D02*
X74494571Y-91875428D01*
X74349428Y-91948000D01*
X74276857Y-92020571D01*
X74204285Y-92165714D01*
X74131714Y-92456000D01*
X74131714Y-92818857D01*
X74204285Y-93109142D01*
X74276857Y-93254285D01*
X74349428Y-93326857D01*
X74494571Y-93399428D01*
X74639714Y-93399428D01*
X74784857Y-93326857D01*
X74857428Y-93254285D01*
X74930000Y-93109142D01*
X75002571Y-92818857D01*
X75002571Y-92456000D01*
X74930000Y-92165714D01*
X74857428Y-92020571D01*
X74784857Y-91948000D01*
X74639714Y-91875428D01*
X73551142Y-92020571D02*
X73478571Y-91948000D01*
X73333428Y-91875428D01*
X72970571Y-91875428D01*
X72825428Y-91948000D01*
X72752857Y-92020571D01*
X72680285Y-92165714D01*
X72680285Y-92310857D01*
X72752857Y-92528571D01*
X73623714Y-93399428D01*
X72680285Y-93399428D01*
X71736857Y-91875428D02*
X71591714Y-91875428D01*
X71446571Y-91948000D01*
X71374000Y-92020571D01*
X71301428Y-92165714D01*
X71228857Y-92456000D01*
X71228857Y-92818857D01*
X71301428Y-93109142D01*
X71374000Y-93254285D01*
X71446571Y-93326857D01*
X71591714Y-93399428D01*
X71736857Y-93399428D01*
X71882000Y-93326857D01*
X71954571Y-93254285D01*
X72027142Y-93109142D01*
X72099714Y-92818857D01*
X72099714Y-92456000D01*
X72027142Y-92165714D01*
X71954571Y-92020571D01*
X71882000Y-91948000D01*
X71736857Y-91875428D01*
D10*
X123165809Y-135333619D02*
X123165809Y-134317619D01*
X122730380Y-135333619D02*
X122730380Y-134801428D01*
X122778761Y-134704666D01*
X122875523Y-134656285D01*
X123020666Y-134656285D01*
X123117428Y-134704666D01*
X123165809Y-134753047D01*
X122391714Y-134656285D02*
X122004666Y-134656285D01*
X122246571Y-134317619D02*
X122246571Y-135188476D01*
X122198190Y-135285238D01*
X122101428Y-135333619D01*
X122004666Y-135333619D01*
X121811142Y-134656285D02*
X121424095Y-134656285D01*
X121666000Y-134317619D02*
X121666000Y-135188476D01*
X121617619Y-135285238D01*
X121520857Y-135333619D01*
X121424095Y-135333619D01*
X121085428Y-134656285D02*
X121085428Y-135672285D01*
X121085428Y-134704666D02*
X120988666Y-134656285D01*
X120795142Y-134656285D01*
X120698380Y-134704666D01*
X120650000Y-134753047D01*
X120601619Y-134849809D01*
X120601619Y-135140095D01*
X120650000Y-135236857D01*
X120698380Y-135285238D01*
X120795142Y-135333619D01*
X120988666Y-135333619D01*
X121085428Y-135285238D01*
X120214571Y-135285238D02*
X120117809Y-135333619D01*
X119924285Y-135333619D01*
X119827523Y-135285238D01*
X119779142Y-135188476D01*
X119779142Y-135140095D01*
X119827523Y-135043333D01*
X119924285Y-134994952D01*
X120069428Y-134994952D01*
X120166190Y-134946571D01*
X120214571Y-134849809D01*
X120214571Y-134801428D01*
X120166190Y-134704666D01*
X120069428Y-134656285D01*
X119924285Y-134656285D01*
X119827523Y-134704666D01*
X119343714Y-135236857D02*
X119295333Y-135285238D01*
X119343714Y-135333619D01*
X119392095Y-135285238D01*
X119343714Y-135236857D01*
X119343714Y-135333619D01*
X119343714Y-134704666D02*
X119295333Y-134753047D01*
X119343714Y-134801428D01*
X119392095Y-134753047D01*
X119343714Y-134704666D01*
X119343714Y-134801428D01*
X118134190Y-134269238D02*
X119005047Y-135575523D01*
X117069809Y-134269238D02*
X117940666Y-135575523D01*
X116827904Y-134656285D02*
X116634380Y-135333619D01*
X116440857Y-134849809D01*
X116247333Y-135333619D01*
X116053809Y-134656285D01*
X115763523Y-134656285D02*
X115570000Y-135333619D01*
X115376476Y-134849809D01*
X115182952Y-135333619D01*
X114989428Y-134656285D01*
X114699142Y-134656285D02*
X114505619Y-135333619D01*
X114312095Y-134849809D01*
X114118571Y-135333619D01*
X113925047Y-134656285D01*
X113538000Y-135236857D02*
X113489619Y-135285238D01*
X113538000Y-135333619D01*
X113586380Y-135285238D01*
X113538000Y-135236857D01*
X113538000Y-135333619D01*
X112909047Y-135333619D02*
X113005809Y-135285238D01*
X113054190Y-135236857D01*
X113102571Y-135140095D01*
X113102571Y-134849809D01*
X113054190Y-134753047D01*
X113005809Y-134704666D01*
X112909047Y-134656285D01*
X112763904Y-134656285D01*
X112667142Y-134704666D01*
X112618761Y-134753047D01*
X112570380Y-134849809D01*
X112570380Y-135140095D01*
X112618761Y-135236857D01*
X112667142Y-135285238D01*
X112763904Y-135333619D01*
X112909047Y-135333619D01*
X111989809Y-135333619D02*
X112086571Y-135285238D01*
X112134952Y-135188476D01*
X112134952Y-134317619D01*
X111602761Y-135333619D02*
X111602761Y-134656285D01*
X111602761Y-134317619D02*
X111651142Y-134366000D01*
X111602761Y-134414380D01*
X111554380Y-134366000D01*
X111602761Y-134317619D01*
X111602761Y-134414380D01*
X111118952Y-135333619D02*
X111118952Y-134656285D01*
X111118952Y-134753047D02*
X111070571Y-134704666D01*
X110973809Y-134656285D01*
X110828666Y-134656285D01*
X110731904Y-134704666D01*
X110683523Y-134801428D01*
X110683523Y-135333619D01*
X110683523Y-134801428D02*
X110635142Y-134704666D01*
X110538380Y-134656285D01*
X110393238Y-134656285D01*
X110296476Y-134704666D01*
X110248095Y-134801428D01*
X110248095Y-135333619D01*
X109377238Y-135285238D02*
X109474000Y-135333619D01*
X109667523Y-135333619D01*
X109764285Y-135285238D01*
X109812666Y-135188476D01*
X109812666Y-134801428D01*
X109764285Y-134704666D01*
X109667523Y-134656285D01*
X109474000Y-134656285D01*
X109377238Y-134704666D01*
X109328857Y-134801428D01*
X109328857Y-134898190D01*
X109812666Y-134994952D01*
X108990190Y-135333619D02*
X108458000Y-134656285D01*
X108990190Y-134656285D02*
X108458000Y-135333619D01*
X108070952Y-135236857D02*
X108022571Y-135285238D01*
X108070952Y-135333619D01*
X108119333Y-135285238D01*
X108070952Y-135236857D01*
X108070952Y-135333619D01*
X107151714Y-135285238D02*
X107248476Y-135333619D01*
X107442000Y-135333619D01*
X107538761Y-135285238D01*
X107587142Y-135236857D01*
X107635523Y-135140095D01*
X107635523Y-134849809D01*
X107587142Y-134753047D01*
X107538761Y-134704666D01*
X107442000Y-134656285D01*
X107248476Y-134656285D01*
X107151714Y-134704666D01*
X106571142Y-135333619D02*
X106667904Y-135285238D01*
X106716285Y-135236857D01*
X106764666Y-135140095D01*
X106764666Y-134849809D01*
X106716285Y-134753047D01*
X106667904Y-134704666D01*
X106571142Y-134656285D01*
X106426000Y-134656285D01*
X106329238Y-134704666D01*
X106280857Y-134753047D01*
X106232476Y-134849809D01*
X106232476Y-135140095D01*
X106280857Y-135236857D01*
X106329238Y-135285238D01*
X106426000Y-135333619D01*
X106571142Y-135333619D01*
X105797047Y-135333619D02*
X105797047Y-134656285D01*
X105797047Y-134753047D02*
X105748666Y-134704666D01*
X105651904Y-134656285D01*
X105506761Y-134656285D01*
X105410000Y-134704666D01*
X105361619Y-134801428D01*
X105361619Y-135333619D01*
X105361619Y-134801428D02*
X105313238Y-134704666D01*
X105216476Y-134656285D01*
X105071333Y-134656285D01*
X104974571Y-134704666D01*
X104926190Y-134801428D01*
X104926190Y-135333619D01*
D14*
X133071142Y-120134333D02*
X133071142Y-121124809D01*
X133642571Y-120629571D02*
X132499714Y-120629571D01*
X132142571Y-122362904D02*
X132142571Y-121743857D01*
X132856857Y-121681952D01*
X132785428Y-121743857D01*
X132714000Y-121867666D01*
X132714000Y-122177190D01*
X132785428Y-122301000D01*
X132856857Y-122362904D01*
X132999714Y-122424809D01*
X133356857Y-122424809D01*
X133499714Y-122362904D01*
X133571142Y-122301000D01*
X133642571Y-122177190D01*
X133642571Y-121867666D01*
X133571142Y-121743857D01*
X133499714Y-121681952D01*
X132142571Y-122796238D02*
X133642571Y-123229571D01*
X132142571Y-123662904D01*
X133785428Y-123786714D02*
X133785428Y-124777190D01*
X134692571Y-119484333D02*
X134692571Y-119731952D01*
X134764000Y-119855761D01*
X134906857Y-119979571D01*
X135192571Y-120041476D01*
X135692571Y-120041476D01*
X135978285Y-119979571D01*
X136121142Y-119855761D01*
X136192571Y-119731952D01*
X136192571Y-119484333D01*
X136121142Y-119360523D01*
X135978285Y-119236714D01*
X135692571Y-119174809D01*
X135192571Y-119174809D01*
X134906857Y-119236714D01*
X134764000Y-119360523D01*
X134692571Y-119484333D01*
X136192571Y-120598619D02*
X134692571Y-120598619D01*
X136192571Y-121341476D01*
X134692571Y-121341476D01*
X136192571Y-122579571D02*
X136192571Y-121960523D01*
X134692571Y-121960523D01*
X135478285Y-123260523D02*
X136192571Y-123260523D01*
X134692571Y-122827190D02*
X135478285Y-123260523D01*
X134692571Y-123693857D01*
X136049714Y-124127190D02*
X136121142Y-124189095D01*
X136192571Y-124127190D01*
X136121142Y-124065285D01*
X136049714Y-124127190D01*
X136192571Y-124127190D01*
X135621142Y-124127190D02*
X134764000Y-124065285D01*
X134692571Y-124127190D01*
X134764000Y-124189095D01*
X135621142Y-124127190D01*
X134692571Y-124127190D01*
X136049714Y-124746238D02*
X136121142Y-124808142D01*
X136192571Y-124746238D01*
X136121142Y-124684333D01*
X136049714Y-124746238D01*
X136192571Y-124746238D01*
X135621142Y-124746238D02*
X134764000Y-124684333D01*
X134692571Y-124746238D01*
X134764000Y-124808142D01*
X135621142Y-124746238D01*
X134692571Y-124746238D01*
X136049714Y-125365285D02*
X136121142Y-125427190D01*
X136192571Y-125365285D01*
X136121142Y-125303380D01*
X136049714Y-125365285D01*
X136192571Y-125365285D01*
X135621142Y-125365285D02*
X134764000Y-125303380D01*
X134692571Y-125365285D01*
X134764000Y-125427190D01*
X135621142Y-125365285D01*
X134692571Y-125365285D01*
D10*
X142621000Y-118920380D02*
X142560523Y-118799428D01*
X142560523Y-118618000D01*
X142621000Y-118436571D01*
X142741952Y-118315619D01*
X142862904Y-118255142D01*
X143104809Y-118194666D01*
X143286238Y-118194666D01*
X143528142Y-118255142D01*
X143649095Y-118315619D01*
X143770047Y-118436571D01*
X143830523Y-118618000D01*
X143830523Y-118738952D01*
X143770047Y-118920380D01*
X143709571Y-118980857D01*
X143286238Y-118980857D01*
X143286238Y-118738952D01*
X143830523Y-119525142D02*
X142560523Y-119525142D01*
X143830523Y-120250857D01*
X142560523Y-120250857D01*
X143830523Y-120855619D02*
X142560523Y-120855619D01*
X142560523Y-121158000D01*
X142621000Y-121339428D01*
X142741952Y-121460380D01*
X142862904Y-121520857D01*
X143104809Y-121581333D01*
X143286238Y-121581333D01*
X143528142Y-121520857D01*
X143649095Y-121460380D01*
X143770047Y-121339428D01*
X143830523Y-121158000D01*
X143830523Y-120855619D01*
X143346714Y-123081142D02*
X143346714Y-124048761D01*
X143830523Y-123564952D02*
X142862904Y-123564952D01*
X142560523Y-125258285D02*
X142560523Y-124653523D01*
X143165285Y-124593047D01*
X143104809Y-124653523D01*
X143044333Y-124774476D01*
X143044333Y-125076857D01*
X143104809Y-125197809D01*
X143165285Y-125258285D01*
X143286238Y-125318761D01*
X143588619Y-125318761D01*
X143709571Y-125258285D01*
X143770047Y-125197809D01*
X143830523Y-125076857D01*
X143830523Y-124774476D01*
X143770047Y-124653523D01*
X143709571Y-124593047D01*
X142560523Y-125681619D02*
X143830523Y-126104952D01*
X142560523Y-126528285D01*
X94723857Y-127187476D02*
X94663380Y-127127000D01*
X94542428Y-127066523D01*
X94240047Y-127066523D01*
X94119095Y-127127000D01*
X94058619Y-127187476D01*
X93998142Y-127308428D01*
X93998142Y-127429380D01*
X94058619Y-127610809D01*
X94784333Y-128336523D01*
X93998142Y-128336523D01*
X93998142Y-131003523D02*
X94723857Y-131003523D01*
X94361000Y-131003523D02*
X94361000Y-129733523D01*
X94481952Y-129914952D01*
X94602904Y-130035904D01*
X94723857Y-130096380D01*
X103371952Y-132019523D02*
X103371952Y-133047619D01*
X103311476Y-133168571D01*
X103251000Y-133229047D01*
X103130047Y-133289523D01*
X102888142Y-133289523D01*
X102767190Y-133229047D01*
X102706714Y-133168571D01*
X102646238Y-133047619D01*
X102646238Y-132019523D01*
X102041476Y-132624285D02*
X101618142Y-132624285D01*
X101436714Y-133289523D02*
X102041476Y-133289523D01*
X102041476Y-132019523D01*
X101436714Y-132019523D01*
X101013380Y-132019523D02*
X100166714Y-133289523D01*
X100166714Y-132019523D02*
X101013380Y-133289523D01*
X99864333Y-132019523D02*
X99138619Y-132019523D01*
X99501476Y-133289523D02*
X99501476Y-132019523D01*
D15*
X94125142Y-88700428D02*
X93193809Y-88700428D01*
X92794666Y-90163952D02*
X94125142Y-90163952D01*
X94125142Y-87369952D01*
X92794666Y-87369952D01*
X91730285Y-90030904D02*
X91331142Y-90163952D01*
X90665904Y-90163952D01*
X90399809Y-90030904D01*
X90266761Y-89897857D01*
X90133714Y-89631761D01*
X90133714Y-89365666D01*
X90266761Y-89099571D01*
X90399809Y-88966523D01*
X90665904Y-88833476D01*
X91198095Y-88700428D01*
X91464190Y-88567380D01*
X91597238Y-88434333D01*
X91730285Y-88168238D01*
X91730285Y-87902142D01*
X91597238Y-87636047D01*
X91464190Y-87503000D01*
X91198095Y-87369952D01*
X90532857Y-87369952D01*
X90133714Y-87503000D01*
X88936285Y-90163952D02*
X88936285Y-87369952D01*
X87871904Y-87369952D01*
X87605809Y-87503000D01*
X87472761Y-87636047D01*
X87339714Y-87902142D01*
X87339714Y-88301285D01*
X87472761Y-88567380D01*
X87605809Y-88700428D01*
X87871904Y-88833476D01*
X88936285Y-88833476D01*
X86408380Y-87369952D02*
X84678761Y-87369952D01*
X85610095Y-88434333D01*
X85210952Y-88434333D01*
X84944857Y-88567380D01*
X84811809Y-88700428D01*
X84678761Y-88966523D01*
X84678761Y-89631761D01*
X84811809Y-89897857D01*
X84944857Y-90030904D01*
X85210952Y-90163952D01*
X86009238Y-90163952D01*
X86275333Y-90030904D01*
X86408380Y-89897857D01*
X83614380Y-87636047D02*
X83481333Y-87503000D01*
X83215238Y-87369952D01*
X82550000Y-87369952D01*
X82283904Y-87503000D01*
X82150857Y-87636047D01*
X82017809Y-87902142D01*
X82017809Y-88168238D01*
X82150857Y-88567380D01*
X83747428Y-90163952D01*
X82017809Y-90163952D01*
X80820380Y-89099571D02*
X78691619Y-89099571D01*
X77361142Y-88700428D02*
X76429809Y-88700428D01*
X76030666Y-90163952D02*
X77361142Y-90163952D01*
X77361142Y-87369952D01*
X76030666Y-87369952D01*
X75232380Y-87369952D02*
X74301047Y-90163952D01*
X73369714Y-87369952D01*
X71507047Y-88700428D02*
X71107904Y-88833476D01*
X70974857Y-88966523D01*
X70841809Y-89232619D01*
X70841809Y-89631761D01*
X70974857Y-89897857D01*
X71107904Y-90030904D01*
X71374000Y-90163952D01*
X72438380Y-90163952D01*
X72438380Y-87369952D01*
X71507047Y-87369952D01*
X71240952Y-87503000D01*
X71107904Y-87636047D01*
X70974857Y-87902142D01*
X70974857Y-88168238D01*
X71107904Y-88434333D01*
X71240952Y-88567380D01*
X71507047Y-88700428D01*
X72438380Y-88700428D01*
D10*
X117729000Y-114427000D02*
X117729000Y-125476000D01*
X115697000Y-114427000D02*
X117729000Y-114427000D01*
X115697000Y-116332000D02*
X115697000Y-114427000D01*
D16*
X116941571Y-115144571D02*
X116941571Y-115677904D01*
X117132047Y-114839809D02*
X117322523Y-115411238D01*
X116827285Y-115411238D01*
X116370142Y-114877904D02*
X116293952Y-114877904D01*
X116217761Y-114916000D01*
X116179666Y-114954095D01*
X116141571Y-115030285D01*
X116103476Y-115182666D01*
X116103476Y-115373142D01*
X116141571Y-115525523D01*
X116179666Y-115601714D01*
X116217761Y-115639809D01*
X116293952Y-115677904D01*
X116370142Y-115677904D01*
X116446333Y-115639809D01*
X116484428Y-115601714D01*
X116522523Y-115525523D01*
X116560619Y-115373142D01*
X116560619Y-115182666D01*
X116522523Y-115030285D01*
X116484428Y-114954095D01*
X116446333Y-114916000D01*
X116370142Y-114877904D01*
D17*
X116639571Y-117272714D02*
X116639571Y-117844142D01*
X116925285Y-117558428D02*
X116353857Y-117558428D01*
X116175285Y-118558428D02*
X116175285Y-118201285D01*
X116532428Y-118165571D01*
X116496714Y-118201285D01*
X116461000Y-118272714D01*
X116461000Y-118451285D01*
X116496714Y-118522714D01*
X116532428Y-118558428D01*
X116603857Y-118594142D01*
X116782428Y-118594142D01*
X116853857Y-118558428D01*
X116889571Y-118522714D01*
X116925285Y-118451285D01*
X116925285Y-118272714D01*
X116889571Y-118201285D01*
X116853857Y-118165571D01*
X116175285Y-118808428D02*
X116925285Y-119058428D01*
X116175285Y-119308428D01*
X116639571Y-122098714D02*
X116639571Y-122670142D01*
X116925285Y-122384428D02*
X116353857Y-122384428D01*
X116175285Y-123384428D02*
X116175285Y-123027285D01*
X116532428Y-122991571D01*
X116496714Y-123027285D01*
X116461000Y-123098714D01*
X116461000Y-123277285D01*
X116496714Y-123348714D01*
X116532428Y-123384428D01*
X116603857Y-123420142D01*
X116782428Y-123420142D01*
X116853857Y-123384428D01*
X116889571Y-123348714D01*
X116925285Y-123277285D01*
X116925285Y-123098714D01*
X116889571Y-123027285D01*
X116853857Y-122991571D01*
X116175285Y-123634428D02*
X116925285Y-123884428D01*
X116175285Y-124134428D01*
D10*
X115697000Y-116205000D02*
X115697000Y-125476000D01*
D17*
X114988571Y-116864000D02*
X114988571Y-117435428D01*
X115274285Y-117149714D02*
X114702857Y-117149714D01*
X114524285Y-117721142D02*
X114524285Y-118185428D01*
X114810000Y-117935428D01*
X114810000Y-118042571D01*
X114845714Y-118114000D01*
X114881428Y-118149714D01*
X114952857Y-118185428D01*
X115131428Y-118185428D01*
X115202857Y-118149714D01*
X115238571Y-118114000D01*
X115274285Y-118042571D01*
X115274285Y-117828285D01*
X115238571Y-117756857D01*
X115202857Y-117721142D01*
X115202857Y-118506857D02*
X115238571Y-118542571D01*
X115274285Y-118506857D01*
X115238571Y-118471142D01*
X115202857Y-118506857D01*
X115274285Y-118506857D01*
X114524285Y-118792571D02*
X114524285Y-119256857D01*
X114810000Y-119006857D01*
X114810000Y-119114000D01*
X114845714Y-119185428D01*
X114881428Y-119221142D01*
X114952857Y-119256857D01*
X115131428Y-119256857D01*
X115202857Y-119221142D01*
X115238571Y-119185428D01*
X115274285Y-119114000D01*
X115274285Y-118899714D01*
X115238571Y-118828285D01*
X115202857Y-118792571D01*
X114524285Y-119471142D02*
X115274285Y-119721142D01*
X114524285Y-119971142D01*
X114988571Y-121563000D02*
X114988571Y-122134428D01*
X115274285Y-121848714D02*
X114702857Y-121848714D01*
X114524285Y-122420142D02*
X114524285Y-122884428D01*
X114810000Y-122634428D01*
X114810000Y-122741571D01*
X114845714Y-122813000D01*
X114881428Y-122848714D01*
X114952857Y-122884428D01*
X115131428Y-122884428D01*
X115202857Y-122848714D01*
X115238571Y-122813000D01*
X115274285Y-122741571D01*
X115274285Y-122527285D01*
X115238571Y-122455857D01*
X115202857Y-122420142D01*
X115202857Y-123205857D02*
X115238571Y-123241571D01*
X115274285Y-123205857D01*
X115238571Y-123170142D01*
X115202857Y-123205857D01*
X115274285Y-123205857D01*
X114524285Y-123491571D02*
X114524285Y-123955857D01*
X114810000Y-123705857D01*
X114810000Y-123813000D01*
X114845714Y-123884428D01*
X114881428Y-123920142D01*
X114952857Y-123955857D01*
X115131428Y-123955857D01*
X115202857Y-123920142D01*
X115238571Y-123884428D01*
X115274285Y-123813000D01*
X115274285Y-123598714D01*
X115238571Y-123527285D01*
X115202857Y-123491571D01*
X114524285Y-124170142D02*
X115274285Y-124420142D01*
X114524285Y-124670142D01*
D10*
X114046000Y-116205000D02*
X114046000Y-125476000D01*
D17*
X112909000Y-117919571D02*
X112873285Y-117848142D01*
X112873285Y-117741000D01*
X112909000Y-117633857D01*
X112980428Y-117562428D01*
X113051857Y-117526714D01*
X113194714Y-117491000D01*
X113301857Y-117491000D01*
X113444714Y-117526714D01*
X113516142Y-117562428D01*
X113587571Y-117633857D01*
X113623285Y-117741000D01*
X113623285Y-117812428D01*
X113587571Y-117919571D01*
X113551857Y-117955285D01*
X113301857Y-117955285D01*
X113301857Y-117812428D01*
X113623285Y-118276714D02*
X112873285Y-118276714D01*
X113623285Y-118705285D01*
X112873285Y-118705285D01*
X113623285Y-119062428D02*
X112873285Y-119062428D01*
X112873285Y-119241000D01*
X112909000Y-119348142D01*
X112980428Y-119419571D01*
X113051857Y-119455285D01*
X113194714Y-119491000D01*
X113301857Y-119491000D01*
X113444714Y-119455285D01*
X113516142Y-119419571D01*
X113587571Y-119348142D01*
X113623285Y-119241000D01*
X113623285Y-119062428D01*
X112909000Y-122618571D02*
X112873285Y-122547142D01*
X112873285Y-122440000D01*
X112909000Y-122332857D01*
X112980428Y-122261428D01*
X113051857Y-122225714D01*
X113194714Y-122190000D01*
X113301857Y-122190000D01*
X113444714Y-122225714D01*
X113516142Y-122261428D01*
X113587571Y-122332857D01*
X113623285Y-122440000D01*
X113623285Y-122511428D01*
X113587571Y-122618571D01*
X113551857Y-122654285D01*
X113301857Y-122654285D01*
X113301857Y-122511428D01*
X113623285Y-122975714D02*
X112873285Y-122975714D01*
X113623285Y-123404285D01*
X112873285Y-123404285D01*
X113623285Y-123761428D02*
X112873285Y-123761428D01*
X112873285Y-123940000D01*
X112909000Y-124047142D01*
X112980428Y-124118571D01*
X113051857Y-124154285D01*
X113194714Y-124190000D01*
X113301857Y-124190000D01*
X113444714Y-124154285D01*
X113516142Y-124118571D01*
X113587571Y-124047142D01*
X113623285Y-123940000D01*
X113623285Y-123761428D01*
D10*
X112395000Y-116205000D02*
X112395000Y-125476000D01*
D17*
X111258000Y-117919571D02*
X111222285Y-117848142D01*
X111222285Y-117741000D01*
X111258000Y-117633857D01*
X111329428Y-117562428D01*
X111400857Y-117526714D01*
X111543714Y-117491000D01*
X111650857Y-117491000D01*
X111793714Y-117526714D01*
X111865142Y-117562428D01*
X111936571Y-117633857D01*
X111972285Y-117741000D01*
X111972285Y-117812428D01*
X111936571Y-117919571D01*
X111900857Y-117955285D01*
X111650857Y-117955285D01*
X111650857Y-117812428D01*
X111972285Y-118276714D02*
X111222285Y-118276714D01*
X111972285Y-118705285D01*
X111222285Y-118705285D01*
X111972285Y-119062428D02*
X111222285Y-119062428D01*
X111222285Y-119241000D01*
X111258000Y-119348142D01*
X111329428Y-119419571D01*
X111400857Y-119455285D01*
X111543714Y-119491000D01*
X111650857Y-119491000D01*
X111793714Y-119455285D01*
X111865142Y-119419571D01*
X111936571Y-119348142D01*
X111972285Y-119241000D01*
X111972285Y-119062428D01*
X111579428Y-121279285D02*
X111579428Y-121529285D01*
X111972285Y-121636428D02*
X111972285Y-121279285D01*
X111222285Y-121279285D01*
X111222285Y-121636428D01*
X111936571Y-121922142D02*
X111972285Y-122029285D01*
X111972285Y-122207857D01*
X111936571Y-122279285D01*
X111900857Y-122315000D01*
X111829428Y-122350714D01*
X111758000Y-122350714D01*
X111686571Y-122315000D01*
X111650857Y-122279285D01*
X111615142Y-122207857D01*
X111579428Y-122065000D01*
X111543714Y-121993571D01*
X111508000Y-121957857D01*
X111436571Y-121922142D01*
X111365142Y-121922142D01*
X111293714Y-121957857D01*
X111258000Y-121993571D01*
X111222285Y-122065000D01*
X111222285Y-122243571D01*
X111258000Y-122350714D01*
X111972285Y-122672142D02*
X111222285Y-122672142D01*
X111222285Y-122957857D01*
X111258000Y-123029285D01*
X111293714Y-123065000D01*
X111365142Y-123100714D01*
X111472285Y-123100714D01*
X111543714Y-123065000D01*
X111579428Y-123029285D01*
X111615142Y-122957857D01*
X111615142Y-122672142D01*
X112043714Y-123243571D02*
X112043714Y-123815000D01*
X111579428Y-123993571D02*
X111579428Y-124243571D01*
X111972285Y-124350714D02*
X111972285Y-123993571D01*
X111222285Y-123993571D01*
X111222285Y-124350714D01*
X111972285Y-124672142D02*
X111222285Y-124672142D01*
X111972285Y-125100714D01*
X111222285Y-125100714D01*
D10*
X110744000Y-116205000D02*
X110744000Y-125476000D01*
D17*
X109607000Y-117419571D02*
X109571285Y-117348142D01*
X109571285Y-117241000D01*
X109607000Y-117133857D01*
X109678428Y-117062428D01*
X109749857Y-117026714D01*
X109892714Y-116991000D01*
X109999857Y-116991000D01*
X110142714Y-117026714D01*
X110214142Y-117062428D01*
X110285571Y-117133857D01*
X110321285Y-117241000D01*
X110321285Y-117312428D01*
X110285571Y-117419571D01*
X110249857Y-117455285D01*
X109999857Y-117455285D01*
X109999857Y-117312428D01*
X110321285Y-117776714D02*
X109571285Y-117776714D01*
X109571285Y-118062428D01*
X109607000Y-118133857D01*
X109642714Y-118169571D01*
X109714142Y-118205285D01*
X109821285Y-118205285D01*
X109892714Y-118169571D01*
X109928428Y-118133857D01*
X109964142Y-118062428D01*
X109964142Y-117776714D01*
X110321285Y-118526714D02*
X109571285Y-118526714D01*
X109571285Y-118812428D02*
X109571285Y-119276714D01*
X109857000Y-119026714D01*
X109857000Y-119133857D01*
X109892714Y-119205285D01*
X109928428Y-119241000D01*
X109999857Y-119276714D01*
X110178428Y-119276714D01*
X110249857Y-119241000D01*
X110285571Y-119205285D01*
X110321285Y-119133857D01*
X110321285Y-118919571D01*
X110285571Y-118848142D01*
X110249857Y-118812428D01*
X110321285Y-119633857D02*
X110321285Y-119776714D01*
X110285571Y-119848142D01*
X110249857Y-119883857D01*
X110142714Y-119955285D01*
X109999857Y-119991000D01*
X109714142Y-119991000D01*
X109642714Y-119955285D01*
X109607000Y-119919571D01*
X109571285Y-119848142D01*
X109571285Y-119705285D01*
X109607000Y-119633857D01*
X109642714Y-119598142D01*
X109714142Y-119562428D01*
X109892714Y-119562428D01*
X109964142Y-119598142D01*
X109999857Y-119633857D01*
X110035571Y-119705285D01*
X110035571Y-119848142D01*
X109999857Y-119919571D01*
X109964142Y-119955285D01*
X109892714Y-119991000D01*
X109607000Y-122118571D02*
X109571285Y-122047142D01*
X109571285Y-121940000D01*
X109607000Y-121832857D01*
X109678428Y-121761428D01*
X109749857Y-121725714D01*
X109892714Y-121690000D01*
X109999857Y-121690000D01*
X110142714Y-121725714D01*
X110214142Y-121761428D01*
X110285571Y-121832857D01*
X110321285Y-121940000D01*
X110321285Y-122011428D01*
X110285571Y-122118571D01*
X110249857Y-122154285D01*
X109999857Y-122154285D01*
X109999857Y-122011428D01*
X110321285Y-122475714D02*
X109571285Y-122475714D01*
X109571285Y-122761428D01*
X109607000Y-122832857D01*
X109642714Y-122868571D01*
X109714142Y-122904285D01*
X109821285Y-122904285D01*
X109892714Y-122868571D01*
X109928428Y-122832857D01*
X109964142Y-122761428D01*
X109964142Y-122475714D01*
X110321285Y-123225714D02*
X109571285Y-123225714D01*
X109571285Y-123511428D02*
X109571285Y-123975714D01*
X109857000Y-123725714D01*
X109857000Y-123832857D01*
X109892714Y-123904285D01*
X109928428Y-123940000D01*
X109999857Y-123975714D01*
X110178428Y-123975714D01*
X110249857Y-123940000D01*
X110285571Y-123904285D01*
X110321285Y-123832857D01*
X110321285Y-123618571D01*
X110285571Y-123547142D01*
X110249857Y-123511428D01*
X109571285Y-124618571D02*
X109571285Y-124475714D01*
X109607000Y-124404285D01*
X109642714Y-124368571D01*
X109749857Y-124297142D01*
X109892714Y-124261428D01*
X110178428Y-124261428D01*
X110249857Y-124297142D01*
X110285571Y-124332857D01*
X110321285Y-124404285D01*
X110321285Y-124547142D01*
X110285571Y-124618571D01*
X110249857Y-124654285D01*
X110178428Y-124690000D01*
X109999857Y-124690000D01*
X109928428Y-124654285D01*
X109892714Y-124618571D01*
X109857000Y-124547142D01*
X109857000Y-124404285D01*
X109892714Y-124332857D01*
X109928428Y-124297142D01*
X109999857Y-124261428D01*
D10*
X109093000Y-116205000D02*
X109093000Y-125476000D01*
D17*
X107956000Y-117419571D02*
X107920285Y-117348142D01*
X107920285Y-117241000D01*
X107956000Y-117133857D01*
X108027428Y-117062428D01*
X108098857Y-117026714D01*
X108241714Y-116991000D01*
X108348857Y-116991000D01*
X108491714Y-117026714D01*
X108563142Y-117062428D01*
X108634571Y-117133857D01*
X108670285Y-117241000D01*
X108670285Y-117312428D01*
X108634571Y-117419571D01*
X108598857Y-117455285D01*
X108348857Y-117455285D01*
X108348857Y-117312428D01*
X108670285Y-117776714D02*
X107920285Y-117776714D01*
X107920285Y-118062428D01*
X107956000Y-118133857D01*
X107991714Y-118169571D01*
X108063142Y-118205285D01*
X108170285Y-118205285D01*
X108241714Y-118169571D01*
X108277428Y-118133857D01*
X108313142Y-118062428D01*
X108313142Y-117776714D01*
X108670285Y-118526714D02*
X107920285Y-118526714D01*
X107920285Y-118812428D02*
X107920285Y-119276714D01*
X108206000Y-119026714D01*
X108206000Y-119133857D01*
X108241714Y-119205285D01*
X108277428Y-119241000D01*
X108348857Y-119276714D01*
X108527428Y-119276714D01*
X108598857Y-119241000D01*
X108634571Y-119205285D01*
X108670285Y-119133857D01*
X108670285Y-118919571D01*
X108634571Y-118848142D01*
X108598857Y-118812428D01*
X107920285Y-119955285D02*
X107920285Y-119598142D01*
X108277428Y-119562428D01*
X108241714Y-119598142D01*
X108206000Y-119669571D01*
X108206000Y-119848142D01*
X108241714Y-119919571D01*
X108277428Y-119955285D01*
X108348857Y-119991000D01*
X108527428Y-119991000D01*
X108598857Y-119955285D01*
X108634571Y-119919571D01*
X108670285Y-119848142D01*
X108670285Y-119669571D01*
X108634571Y-119598142D01*
X108598857Y-119562428D01*
X107956000Y-122118571D02*
X107920285Y-122047142D01*
X107920285Y-121940000D01*
X107956000Y-121832857D01*
X108027428Y-121761428D01*
X108098857Y-121725714D01*
X108241714Y-121690000D01*
X108348857Y-121690000D01*
X108491714Y-121725714D01*
X108563142Y-121761428D01*
X108634571Y-121832857D01*
X108670285Y-121940000D01*
X108670285Y-122011428D01*
X108634571Y-122118571D01*
X108598857Y-122154285D01*
X108348857Y-122154285D01*
X108348857Y-122011428D01*
X108670285Y-122475714D02*
X107920285Y-122475714D01*
X107920285Y-122761428D01*
X107956000Y-122832857D01*
X107991714Y-122868571D01*
X108063142Y-122904285D01*
X108170285Y-122904285D01*
X108241714Y-122868571D01*
X108277428Y-122832857D01*
X108313142Y-122761428D01*
X108313142Y-122475714D01*
X108670285Y-123225714D02*
X107920285Y-123225714D01*
X107920285Y-123511428D02*
X107920285Y-123975714D01*
X108206000Y-123725714D01*
X108206000Y-123832857D01*
X108241714Y-123904285D01*
X108277428Y-123940000D01*
X108348857Y-123975714D01*
X108527428Y-123975714D01*
X108598857Y-123940000D01*
X108634571Y-123904285D01*
X108670285Y-123832857D01*
X108670285Y-123618571D01*
X108634571Y-123547142D01*
X108598857Y-123511428D01*
X108170285Y-124618571D02*
X108670285Y-124618571D01*
X107884571Y-124440000D02*
X108420285Y-124261428D01*
X108420285Y-124725714D01*
D10*
X107442000Y-116205000D02*
X107442000Y-125476000D01*
D17*
X106305000Y-117026714D02*
X106269285Y-116955285D01*
X106269285Y-116848142D01*
X106305000Y-116741000D01*
X106376428Y-116669571D01*
X106447857Y-116633857D01*
X106590714Y-116598142D01*
X106697857Y-116598142D01*
X106840714Y-116633857D01*
X106912142Y-116669571D01*
X106983571Y-116741000D01*
X107019285Y-116848142D01*
X107019285Y-116919571D01*
X106983571Y-117026714D01*
X106947857Y-117062428D01*
X106697857Y-117062428D01*
X106697857Y-116919571D01*
X107019285Y-117383857D02*
X106269285Y-117383857D01*
X106269285Y-117669571D01*
X106305000Y-117741000D01*
X106340714Y-117776714D01*
X106412142Y-117812428D01*
X106519285Y-117812428D01*
X106590714Y-117776714D01*
X106626428Y-117741000D01*
X106662142Y-117669571D01*
X106662142Y-117383857D01*
X107019285Y-118133857D02*
X106269285Y-118133857D01*
X106269285Y-118633857D02*
X106269285Y-118776714D01*
X106305000Y-118848142D01*
X106376428Y-118919571D01*
X106519285Y-118955285D01*
X106769285Y-118955285D01*
X106912142Y-118919571D01*
X106983571Y-118848142D01*
X107019285Y-118776714D01*
X107019285Y-118633857D01*
X106983571Y-118562428D01*
X106912142Y-118491000D01*
X106769285Y-118455285D01*
X106519285Y-118455285D01*
X106376428Y-118491000D01*
X106305000Y-118562428D01*
X106269285Y-118633857D01*
X106269285Y-119205285D02*
X106269285Y-119669571D01*
X106555000Y-119419571D01*
X106555000Y-119526714D01*
X106590714Y-119598142D01*
X106626428Y-119633857D01*
X106697857Y-119669571D01*
X106876428Y-119669571D01*
X106947857Y-119633857D01*
X106983571Y-119598142D01*
X107019285Y-119526714D01*
X107019285Y-119312428D01*
X106983571Y-119241000D01*
X106947857Y-119205285D01*
X106269285Y-119919571D02*
X106269285Y-120383857D01*
X106555000Y-120133857D01*
X106555000Y-120241000D01*
X106590714Y-120312428D01*
X106626428Y-120348142D01*
X106697857Y-120383857D01*
X106876428Y-120383857D01*
X106947857Y-120348142D01*
X106983571Y-120312428D01*
X107019285Y-120241000D01*
X107019285Y-120026714D01*
X106983571Y-119955285D01*
X106947857Y-119919571D01*
X106305000Y-121725714D02*
X106269285Y-121654285D01*
X106269285Y-121547142D01*
X106305000Y-121440000D01*
X106376428Y-121368571D01*
X106447857Y-121332857D01*
X106590714Y-121297142D01*
X106697857Y-121297142D01*
X106840714Y-121332857D01*
X106912142Y-121368571D01*
X106983571Y-121440000D01*
X107019285Y-121547142D01*
X107019285Y-121618571D01*
X106983571Y-121725714D01*
X106947857Y-121761428D01*
X106697857Y-121761428D01*
X106697857Y-121618571D01*
X107019285Y-122082857D02*
X106269285Y-122082857D01*
X106269285Y-122368571D01*
X106305000Y-122440000D01*
X106340714Y-122475714D01*
X106412142Y-122511428D01*
X106519285Y-122511428D01*
X106590714Y-122475714D01*
X106626428Y-122440000D01*
X106662142Y-122368571D01*
X106662142Y-122082857D01*
X107019285Y-122832857D02*
X106269285Y-122832857D01*
X106269285Y-123332857D02*
X106269285Y-123475714D01*
X106305000Y-123547142D01*
X106376428Y-123618571D01*
X106519285Y-123654285D01*
X106769285Y-123654285D01*
X106912142Y-123618571D01*
X106983571Y-123547142D01*
X107019285Y-123475714D01*
X107019285Y-123332857D01*
X106983571Y-123261428D01*
X106912142Y-123190000D01*
X106769285Y-123154285D01*
X106519285Y-123154285D01*
X106376428Y-123190000D01*
X106305000Y-123261428D01*
X106269285Y-123332857D01*
X106269285Y-123904285D02*
X106269285Y-124368571D01*
X106555000Y-124118571D01*
X106555000Y-124225714D01*
X106590714Y-124297142D01*
X106626428Y-124332857D01*
X106697857Y-124368571D01*
X106876428Y-124368571D01*
X106947857Y-124332857D01*
X106983571Y-124297142D01*
X107019285Y-124225714D01*
X107019285Y-124011428D01*
X106983571Y-123940000D01*
X106947857Y-123904285D01*
X106340714Y-124654285D02*
X106305000Y-124690000D01*
X106269285Y-124761428D01*
X106269285Y-124940000D01*
X106305000Y-125011428D01*
X106340714Y-125047142D01*
X106412142Y-125082857D01*
X106483571Y-125082857D01*
X106590714Y-125047142D01*
X107019285Y-124618571D01*
X107019285Y-125082857D01*
D10*
X105791000Y-116205000D02*
X105791000Y-125476000D01*
D17*
X104654000Y-117026714D02*
X104618285Y-116955285D01*
X104618285Y-116848142D01*
X104654000Y-116741000D01*
X104725428Y-116669571D01*
X104796857Y-116633857D01*
X104939714Y-116598142D01*
X105046857Y-116598142D01*
X105189714Y-116633857D01*
X105261142Y-116669571D01*
X105332571Y-116741000D01*
X105368285Y-116848142D01*
X105368285Y-116919571D01*
X105332571Y-117026714D01*
X105296857Y-117062428D01*
X105046857Y-117062428D01*
X105046857Y-116919571D01*
X105368285Y-117383857D02*
X104618285Y-117383857D01*
X104618285Y-117669571D01*
X104654000Y-117741000D01*
X104689714Y-117776714D01*
X104761142Y-117812428D01*
X104868285Y-117812428D01*
X104939714Y-117776714D01*
X104975428Y-117741000D01*
X105011142Y-117669571D01*
X105011142Y-117383857D01*
X105368285Y-118133857D02*
X104618285Y-118133857D01*
X104618285Y-118633857D02*
X104618285Y-118776714D01*
X104654000Y-118848142D01*
X104725428Y-118919571D01*
X104868285Y-118955285D01*
X105118285Y-118955285D01*
X105261142Y-118919571D01*
X105332571Y-118848142D01*
X105368285Y-118776714D01*
X105368285Y-118633857D01*
X105332571Y-118562428D01*
X105261142Y-118491000D01*
X105118285Y-118455285D01*
X104868285Y-118455285D01*
X104725428Y-118491000D01*
X104654000Y-118562428D01*
X104618285Y-118633857D01*
X104689714Y-119241000D02*
X104654000Y-119276714D01*
X104618285Y-119348142D01*
X104618285Y-119526714D01*
X104654000Y-119598142D01*
X104689714Y-119633857D01*
X104761142Y-119669571D01*
X104832571Y-119669571D01*
X104939714Y-119633857D01*
X105368285Y-119205285D01*
X105368285Y-119669571D01*
X104618285Y-119919571D02*
X104618285Y-120419571D01*
X105368285Y-120098142D01*
X104654000Y-121725714D02*
X104618285Y-121654285D01*
X104618285Y-121547142D01*
X104654000Y-121440000D01*
X104725428Y-121368571D01*
X104796857Y-121332857D01*
X104939714Y-121297142D01*
X105046857Y-121297142D01*
X105189714Y-121332857D01*
X105261142Y-121368571D01*
X105332571Y-121440000D01*
X105368285Y-121547142D01*
X105368285Y-121618571D01*
X105332571Y-121725714D01*
X105296857Y-121761428D01*
X105046857Y-121761428D01*
X105046857Y-121618571D01*
X105368285Y-122082857D02*
X104618285Y-122082857D01*
X104618285Y-122368571D01*
X104654000Y-122440000D01*
X104689714Y-122475714D01*
X104761142Y-122511428D01*
X104868285Y-122511428D01*
X104939714Y-122475714D01*
X104975428Y-122440000D01*
X105011142Y-122368571D01*
X105011142Y-122082857D01*
X105368285Y-122832857D02*
X104618285Y-122832857D01*
X104618285Y-123332857D02*
X104618285Y-123475714D01*
X104654000Y-123547142D01*
X104725428Y-123618571D01*
X104868285Y-123654285D01*
X105118285Y-123654285D01*
X105261142Y-123618571D01*
X105332571Y-123547142D01*
X105368285Y-123475714D01*
X105368285Y-123332857D01*
X105332571Y-123261428D01*
X105261142Y-123190000D01*
X105118285Y-123154285D01*
X104868285Y-123154285D01*
X104725428Y-123190000D01*
X104654000Y-123261428D01*
X104618285Y-123332857D01*
X104689714Y-123940000D02*
X104654000Y-123975714D01*
X104618285Y-124047142D01*
X104618285Y-124225714D01*
X104654000Y-124297142D01*
X104689714Y-124332857D01*
X104761142Y-124368571D01*
X104832571Y-124368571D01*
X104939714Y-124332857D01*
X105368285Y-123904285D01*
X105368285Y-124368571D01*
X104618285Y-125011428D02*
X104618285Y-124868571D01*
X104654000Y-124797142D01*
X104689714Y-124761428D01*
X104796857Y-124690000D01*
X104939714Y-124654285D01*
X105225428Y-124654285D01*
X105296857Y-124690000D01*
X105332571Y-124725714D01*
X105368285Y-124797142D01*
X105368285Y-124940000D01*
X105332571Y-125011428D01*
X105296857Y-125047142D01*
X105225428Y-125082857D01*
X105046857Y-125082857D01*
X104975428Y-125047142D01*
X104939714Y-125011428D01*
X104904000Y-124940000D01*
X104904000Y-124797142D01*
X104939714Y-124725714D01*
X104975428Y-124690000D01*
X105046857Y-124654285D01*
D10*
X104140000Y-116205000D02*
X104140000Y-125476000D01*
X82042000Y-127381000D02*
X83820000Y-127381000D01*
X82042000Y-116205000D02*
X82042000Y-127381000D01*
X83820000Y-116205000D02*
X82042000Y-116205000D01*
D16*
X83292904Y-119024714D02*
X82492904Y-119024714D01*
X82492904Y-119329476D01*
X82531000Y-119405666D01*
X82569095Y-119443761D01*
X82645285Y-119481857D01*
X82759571Y-119481857D01*
X82835761Y-119443761D01*
X82873857Y-119405666D01*
X82911952Y-119329476D01*
X82911952Y-119024714D01*
X83292904Y-119824714D02*
X82492904Y-119824714D01*
X83292904Y-120205666D02*
X82492904Y-120205666D01*
X83292904Y-120662809D01*
X82492904Y-120662809D01*
X83292904Y-121653285D02*
X82492904Y-121653285D01*
X83064333Y-121919952D01*
X82492904Y-122186619D01*
X83292904Y-122186619D01*
X83064333Y-122529476D02*
X83064333Y-122910428D01*
X83292904Y-122453285D02*
X82492904Y-122719952D01*
X83292904Y-122986619D01*
X83292904Y-123253285D02*
X82492904Y-123253285D01*
X82492904Y-123558047D01*
X82531000Y-123634238D01*
X82569095Y-123672333D01*
X82645285Y-123710428D01*
X82759571Y-123710428D01*
X82835761Y-123672333D01*
X82873857Y-123634238D01*
X82911952Y-123558047D01*
X82911952Y-123253285D01*
X83216714Y-124053285D02*
X83254809Y-124091380D01*
X83292904Y-124053285D01*
X83254809Y-124015190D01*
X83216714Y-124053285D01*
X83292904Y-124053285D01*
X82797666Y-124053285D02*
X82835761Y-124091380D01*
X82873857Y-124053285D01*
X82835761Y-124015190D01*
X82797666Y-124053285D01*
X82873857Y-124053285D01*
D17*
X103003000Y-117026714D02*
X102967285Y-116955285D01*
X102967285Y-116848142D01*
X103003000Y-116741000D01*
X103074428Y-116669571D01*
X103145857Y-116633857D01*
X103288714Y-116598142D01*
X103395857Y-116598142D01*
X103538714Y-116633857D01*
X103610142Y-116669571D01*
X103681571Y-116741000D01*
X103717285Y-116848142D01*
X103717285Y-116919571D01*
X103681571Y-117026714D01*
X103645857Y-117062428D01*
X103395857Y-117062428D01*
X103395857Y-116919571D01*
X103717285Y-117383857D02*
X102967285Y-117383857D01*
X102967285Y-117669571D01*
X103003000Y-117741000D01*
X103038714Y-117776714D01*
X103110142Y-117812428D01*
X103217285Y-117812428D01*
X103288714Y-117776714D01*
X103324428Y-117741000D01*
X103360142Y-117669571D01*
X103360142Y-117383857D01*
X103717285Y-118133857D02*
X102967285Y-118133857D01*
X102967285Y-118633857D02*
X102967285Y-118776714D01*
X103003000Y-118848142D01*
X103074428Y-118919571D01*
X103217285Y-118955285D01*
X103467285Y-118955285D01*
X103610142Y-118919571D01*
X103681571Y-118848142D01*
X103717285Y-118776714D01*
X103717285Y-118633857D01*
X103681571Y-118562428D01*
X103610142Y-118491000D01*
X103467285Y-118455285D01*
X103217285Y-118455285D01*
X103074428Y-118491000D01*
X103003000Y-118562428D01*
X102967285Y-118633857D01*
X103038714Y-119241000D02*
X103003000Y-119276714D01*
X102967285Y-119348142D01*
X102967285Y-119526714D01*
X103003000Y-119598142D01*
X103038714Y-119633857D01*
X103110142Y-119669571D01*
X103181571Y-119669571D01*
X103288714Y-119633857D01*
X103717285Y-119205285D01*
X103717285Y-119669571D01*
X102967285Y-120348142D02*
X102967285Y-119991000D01*
X103324428Y-119955285D01*
X103288714Y-119991000D01*
X103253000Y-120062428D01*
X103253000Y-120241000D01*
X103288714Y-120312428D01*
X103324428Y-120348142D01*
X103395857Y-120383857D01*
X103574428Y-120383857D01*
X103645857Y-120348142D01*
X103681571Y-120312428D01*
X103717285Y-120241000D01*
X103717285Y-120062428D01*
X103681571Y-119991000D01*
X103645857Y-119955285D01*
X103003000Y-121725714D02*
X102967285Y-121654285D01*
X102967285Y-121547142D01*
X103003000Y-121440000D01*
X103074428Y-121368571D01*
X103145857Y-121332857D01*
X103288714Y-121297142D01*
X103395857Y-121297142D01*
X103538714Y-121332857D01*
X103610142Y-121368571D01*
X103681571Y-121440000D01*
X103717285Y-121547142D01*
X103717285Y-121618571D01*
X103681571Y-121725714D01*
X103645857Y-121761428D01*
X103395857Y-121761428D01*
X103395857Y-121618571D01*
X103717285Y-122082857D02*
X102967285Y-122082857D01*
X102967285Y-122368571D01*
X103003000Y-122440000D01*
X103038714Y-122475714D01*
X103110142Y-122511428D01*
X103217285Y-122511428D01*
X103288714Y-122475714D01*
X103324428Y-122440000D01*
X103360142Y-122368571D01*
X103360142Y-122082857D01*
X103717285Y-122832857D02*
X102967285Y-122832857D01*
X102967285Y-123332857D02*
X102967285Y-123475714D01*
X103003000Y-123547142D01*
X103074428Y-123618571D01*
X103217285Y-123654285D01*
X103467285Y-123654285D01*
X103610142Y-123618571D01*
X103681571Y-123547142D01*
X103717285Y-123475714D01*
X103717285Y-123332857D01*
X103681571Y-123261428D01*
X103610142Y-123190000D01*
X103467285Y-123154285D01*
X103217285Y-123154285D01*
X103074428Y-123190000D01*
X103003000Y-123261428D01*
X102967285Y-123332857D01*
X103038714Y-123940000D02*
X103003000Y-123975714D01*
X102967285Y-124047142D01*
X102967285Y-124225714D01*
X103003000Y-124297142D01*
X103038714Y-124332857D01*
X103110142Y-124368571D01*
X103181571Y-124368571D01*
X103288714Y-124332857D01*
X103717285Y-123904285D01*
X103717285Y-124368571D01*
X102967285Y-124618571D02*
X102967285Y-125082857D01*
X103253000Y-124832857D01*
X103253000Y-124940000D01*
X103288714Y-125011428D01*
X103324428Y-125047142D01*
X103395857Y-125082857D01*
X103574428Y-125082857D01*
X103645857Y-125047142D01*
X103681571Y-125011428D01*
X103717285Y-124940000D01*
X103717285Y-124725714D01*
X103681571Y-124654285D01*
X103645857Y-124618571D01*
D10*
X102489000Y-116205000D02*
X102489000Y-125476000D01*
D17*
X101352000Y-117026714D02*
X101316285Y-116955285D01*
X101316285Y-116848142D01*
X101352000Y-116741000D01*
X101423428Y-116669571D01*
X101494857Y-116633857D01*
X101637714Y-116598142D01*
X101744857Y-116598142D01*
X101887714Y-116633857D01*
X101959142Y-116669571D01*
X102030571Y-116741000D01*
X102066285Y-116848142D01*
X102066285Y-116919571D01*
X102030571Y-117026714D01*
X101994857Y-117062428D01*
X101744857Y-117062428D01*
X101744857Y-116919571D01*
X102066285Y-117383857D02*
X101316285Y-117383857D01*
X101316285Y-117669571D01*
X101352000Y-117741000D01*
X101387714Y-117776714D01*
X101459142Y-117812428D01*
X101566285Y-117812428D01*
X101637714Y-117776714D01*
X101673428Y-117741000D01*
X101709142Y-117669571D01*
X101709142Y-117383857D01*
X102066285Y-118133857D02*
X101316285Y-118133857D01*
X101316285Y-118633857D02*
X101316285Y-118776714D01*
X101352000Y-118848142D01*
X101423428Y-118919571D01*
X101566285Y-118955285D01*
X101816285Y-118955285D01*
X101959142Y-118919571D01*
X102030571Y-118848142D01*
X102066285Y-118776714D01*
X102066285Y-118633857D01*
X102030571Y-118562428D01*
X101959142Y-118491000D01*
X101816285Y-118455285D01*
X101566285Y-118455285D01*
X101423428Y-118491000D01*
X101352000Y-118562428D01*
X101316285Y-118633857D01*
X101387714Y-119241000D02*
X101352000Y-119276714D01*
X101316285Y-119348142D01*
X101316285Y-119526714D01*
X101352000Y-119598142D01*
X101387714Y-119633857D01*
X101459142Y-119669571D01*
X101530571Y-119669571D01*
X101637714Y-119633857D01*
X102066285Y-119205285D01*
X102066285Y-119669571D01*
X101387714Y-119955285D02*
X101352000Y-119991000D01*
X101316285Y-120062428D01*
X101316285Y-120241000D01*
X101352000Y-120312428D01*
X101387714Y-120348142D01*
X101459142Y-120383857D01*
X101530571Y-120383857D01*
X101637714Y-120348142D01*
X102066285Y-119919571D01*
X102066285Y-120383857D01*
X101352000Y-121725714D02*
X101316285Y-121654285D01*
X101316285Y-121547142D01*
X101352000Y-121440000D01*
X101423428Y-121368571D01*
X101494857Y-121332857D01*
X101637714Y-121297142D01*
X101744857Y-121297142D01*
X101887714Y-121332857D01*
X101959142Y-121368571D01*
X102030571Y-121440000D01*
X102066285Y-121547142D01*
X102066285Y-121618571D01*
X102030571Y-121725714D01*
X101994857Y-121761428D01*
X101744857Y-121761428D01*
X101744857Y-121618571D01*
X102066285Y-122082857D02*
X101316285Y-122082857D01*
X101316285Y-122368571D01*
X101352000Y-122440000D01*
X101387714Y-122475714D01*
X101459142Y-122511428D01*
X101566285Y-122511428D01*
X101637714Y-122475714D01*
X101673428Y-122440000D01*
X101709142Y-122368571D01*
X101709142Y-122082857D01*
X102066285Y-122832857D02*
X101316285Y-122832857D01*
X101316285Y-123332857D02*
X101316285Y-123475714D01*
X101352000Y-123547142D01*
X101423428Y-123618571D01*
X101566285Y-123654285D01*
X101816285Y-123654285D01*
X101959142Y-123618571D01*
X102030571Y-123547142D01*
X102066285Y-123475714D01*
X102066285Y-123332857D01*
X102030571Y-123261428D01*
X101959142Y-123190000D01*
X101816285Y-123154285D01*
X101566285Y-123154285D01*
X101423428Y-123190000D01*
X101352000Y-123261428D01*
X101316285Y-123332857D01*
X101387714Y-123940000D02*
X101352000Y-123975714D01*
X101316285Y-124047142D01*
X101316285Y-124225714D01*
X101352000Y-124297142D01*
X101387714Y-124332857D01*
X101459142Y-124368571D01*
X101530571Y-124368571D01*
X101637714Y-124332857D01*
X102066285Y-123904285D01*
X102066285Y-124368571D01*
X102066285Y-125082857D02*
X102066285Y-124654285D01*
X102066285Y-124868571D02*
X101316285Y-124868571D01*
X101423428Y-124797142D01*
X101494857Y-124725714D01*
X101530571Y-124654285D01*
D10*
X100838000Y-116205000D02*
X100838000Y-125476000D01*
D17*
X99701000Y-117026714D02*
X99665285Y-116955285D01*
X99665285Y-116848142D01*
X99701000Y-116741000D01*
X99772428Y-116669571D01*
X99843857Y-116633857D01*
X99986714Y-116598142D01*
X100093857Y-116598142D01*
X100236714Y-116633857D01*
X100308142Y-116669571D01*
X100379571Y-116741000D01*
X100415285Y-116848142D01*
X100415285Y-116919571D01*
X100379571Y-117026714D01*
X100343857Y-117062428D01*
X100093857Y-117062428D01*
X100093857Y-116919571D01*
X100415285Y-117383857D02*
X99665285Y-117383857D01*
X99665285Y-117669571D01*
X99701000Y-117741000D01*
X99736714Y-117776714D01*
X99808142Y-117812428D01*
X99915285Y-117812428D01*
X99986714Y-117776714D01*
X100022428Y-117741000D01*
X100058142Y-117669571D01*
X100058142Y-117383857D01*
X100415285Y-118133857D02*
X99665285Y-118133857D01*
X99665285Y-118633857D02*
X99665285Y-118776714D01*
X99701000Y-118848142D01*
X99772428Y-118919571D01*
X99915285Y-118955285D01*
X100165285Y-118955285D01*
X100308142Y-118919571D01*
X100379571Y-118848142D01*
X100415285Y-118776714D01*
X100415285Y-118633857D01*
X100379571Y-118562428D01*
X100308142Y-118491000D01*
X100165285Y-118455285D01*
X99915285Y-118455285D01*
X99772428Y-118491000D01*
X99701000Y-118562428D01*
X99665285Y-118633857D01*
X100415285Y-119669571D02*
X100415285Y-119241000D01*
X100415285Y-119455285D02*
X99665285Y-119455285D01*
X99772428Y-119383857D01*
X99843857Y-119312428D01*
X99879571Y-119241000D01*
X100415285Y-120026714D02*
X100415285Y-120169571D01*
X100379571Y-120241000D01*
X100343857Y-120276714D01*
X100236714Y-120348142D01*
X100093857Y-120383857D01*
X99808142Y-120383857D01*
X99736714Y-120348142D01*
X99701000Y-120312428D01*
X99665285Y-120241000D01*
X99665285Y-120098142D01*
X99701000Y-120026714D01*
X99736714Y-119991000D01*
X99808142Y-119955285D01*
X99986714Y-119955285D01*
X100058142Y-119991000D01*
X100093857Y-120026714D01*
X100129571Y-120098142D01*
X100129571Y-120241000D01*
X100093857Y-120312428D01*
X100058142Y-120348142D01*
X99986714Y-120383857D01*
X99701000Y-121598714D02*
X99665285Y-121527285D01*
X99665285Y-121420142D01*
X99701000Y-121313000D01*
X99772428Y-121241571D01*
X99843857Y-121205857D01*
X99986714Y-121170142D01*
X100093857Y-121170142D01*
X100236714Y-121205857D01*
X100308142Y-121241571D01*
X100379571Y-121313000D01*
X100415285Y-121420142D01*
X100415285Y-121491571D01*
X100379571Y-121598714D01*
X100343857Y-121634428D01*
X100093857Y-121634428D01*
X100093857Y-121491571D01*
X100415285Y-121955857D02*
X99665285Y-121955857D01*
X99665285Y-122241571D01*
X99701000Y-122313000D01*
X99736714Y-122348714D01*
X99808142Y-122384428D01*
X99915285Y-122384428D01*
X99986714Y-122348714D01*
X100022428Y-122313000D01*
X100058142Y-122241571D01*
X100058142Y-121955857D01*
X100415285Y-122705857D02*
X99665285Y-122705857D01*
X99665285Y-123205857D02*
X99665285Y-123348714D01*
X99701000Y-123420142D01*
X99772428Y-123491571D01*
X99915285Y-123527285D01*
X100165285Y-123527285D01*
X100308142Y-123491571D01*
X100379571Y-123420142D01*
X100415285Y-123348714D01*
X100415285Y-123205857D01*
X100379571Y-123134428D01*
X100308142Y-123063000D01*
X100165285Y-123027285D01*
X99915285Y-123027285D01*
X99772428Y-123063000D01*
X99701000Y-123134428D01*
X99665285Y-123205857D01*
X100415285Y-124241571D02*
X100415285Y-123813000D01*
X100415285Y-124027285D02*
X99665285Y-124027285D01*
X99772428Y-123955857D01*
X99843857Y-123884428D01*
X99879571Y-123813000D01*
X99986714Y-124670142D02*
X99951000Y-124598714D01*
X99915285Y-124563000D01*
X99843857Y-124527285D01*
X99808142Y-124527285D01*
X99736714Y-124563000D01*
X99701000Y-124598714D01*
X99665285Y-124670142D01*
X99665285Y-124813000D01*
X99701000Y-124884428D01*
X99736714Y-124920142D01*
X99808142Y-124955857D01*
X99843857Y-124955857D01*
X99915285Y-124920142D01*
X99951000Y-124884428D01*
X99986714Y-124813000D01*
X99986714Y-124670142D01*
X100022428Y-124598714D01*
X100058142Y-124563000D01*
X100129571Y-124527285D01*
X100272428Y-124527285D01*
X100343857Y-124563000D01*
X100379571Y-124598714D01*
X100415285Y-124670142D01*
X100415285Y-124813000D01*
X100379571Y-124884428D01*
X100343857Y-124920142D01*
X100272428Y-124955857D01*
X100129571Y-124955857D01*
X100058142Y-124920142D01*
X100022428Y-124884428D01*
X99986714Y-124813000D01*
D10*
X99187000Y-116205000D02*
X99187000Y-125476000D01*
D17*
X98050000Y-117026714D02*
X98014285Y-116955285D01*
X98014285Y-116848142D01*
X98050000Y-116741000D01*
X98121428Y-116669571D01*
X98192857Y-116633857D01*
X98335714Y-116598142D01*
X98442857Y-116598142D01*
X98585714Y-116633857D01*
X98657142Y-116669571D01*
X98728571Y-116741000D01*
X98764285Y-116848142D01*
X98764285Y-116919571D01*
X98728571Y-117026714D01*
X98692857Y-117062428D01*
X98442857Y-117062428D01*
X98442857Y-116919571D01*
X98764285Y-117383857D02*
X98014285Y-117383857D01*
X98014285Y-117669571D01*
X98050000Y-117741000D01*
X98085714Y-117776714D01*
X98157142Y-117812428D01*
X98264285Y-117812428D01*
X98335714Y-117776714D01*
X98371428Y-117741000D01*
X98407142Y-117669571D01*
X98407142Y-117383857D01*
X98764285Y-118133857D02*
X98014285Y-118133857D01*
X98014285Y-118633857D02*
X98014285Y-118776714D01*
X98050000Y-118848142D01*
X98121428Y-118919571D01*
X98264285Y-118955285D01*
X98514285Y-118955285D01*
X98657142Y-118919571D01*
X98728571Y-118848142D01*
X98764285Y-118776714D01*
X98764285Y-118633857D01*
X98728571Y-118562428D01*
X98657142Y-118491000D01*
X98514285Y-118455285D01*
X98264285Y-118455285D01*
X98121428Y-118491000D01*
X98050000Y-118562428D01*
X98014285Y-118633857D01*
X98764285Y-119669571D02*
X98764285Y-119241000D01*
X98764285Y-119455285D02*
X98014285Y-119455285D01*
X98121428Y-119383857D01*
X98192857Y-119312428D01*
X98228571Y-119241000D01*
X98014285Y-119919571D02*
X98014285Y-120419571D01*
X98764285Y-120098142D01*
X98050000Y-121598714D02*
X98014285Y-121527285D01*
X98014285Y-121420142D01*
X98050000Y-121313000D01*
X98121428Y-121241571D01*
X98192857Y-121205857D01*
X98335714Y-121170142D01*
X98442857Y-121170142D01*
X98585714Y-121205857D01*
X98657142Y-121241571D01*
X98728571Y-121313000D01*
X98764285Y-121420142D01*
X98764285Y-121491571D01*
X98728571Y-121598714D01*
X98692857Y-121634428D01*
X98442857Y-121634428D01*
X98442857Y-121491571D01*
X98764285Y-121955857D02*
X98014285Y-121955857D01*
X98014285Y-122241571D01*
X98050000Y-122313000D01*
X98085714Y-122348714D01*
X98157142Y-122384428D01*
X98264285Y-122384428D01*
X98335714Y-122348714D01*
X98371428Y-122313000D01*
X98407142Y-122241571D01*
X98407142Y-121955857D01*
X98764285Y-122705857D02*
X98014285Y-122705857D01*
X98014285Y-123205857D02*
X98014285Y-123348714D01*
X98050000Y-123420142D01*
X98121428Y-123491571D01*
X98264285Y-123527285D01*
X98514285Y-123527285D01*
X98657142Y-123491571D01*
X98728571Y-123420142D01*
X98764285Y-123348714D01*
X98764285Y-123205857D01*
X98728571Y-123134428D01*
X98657142Y-123063000D01*
X98514285Y-123027285D01*
X98264285Y-123027285D01*
X98121428Y-123063000D01*
X98050000Y-123134428D01*
X98014285Y-123205857D01*
X98764285Y-124241571D02*
X98764285Y-123813000D01*
X98764285Y-124027285D02*
X98014285Y-124027285D01*
X98121428Y-123955857D01*
X98192857Y-123884428D01*
X98228571Y-123813000D01*
X98014285Y-124884428D02*
X98014285Y-124741571D01*
X98050000Y-124670142D01*
X98085714Y-124634428D01*
X98192857Y-124563000D01*
X98335714Y-124527285D01*
X98621428Y-124527285D01*
X98692857Y-124563000D01*
X98728571Y-124598714D01*
X98764285Y-124670142D01*
X98764285Y-124813000D01*
X98728571Y-124884428D01*
X98692857Y-124920142D01*
X98621428Y-124955857D01*
X98442857Y-124955857D01*
X98371428Y-124920142D01*
X98335714Y-124884428D01*
X98300000Y-124813000D01*
X98300000Y-124670142D01*
X98335714Y-124598714D01*
X98371428Y-124563000D01*
X98442857Y-124527285D01*
D10*
X97536000Y-116205000D02*
X97536000Y-125476000D01*
D17*
X96399000Y-117026714D02*
X96363285Y-116955285D01*
X96363285Y-116848142D01*
X96399000Y-116741000D01*
X96470428Y-116669571D01*
X96541857Y-116633857D01*
X96684714Y-116598142D01*
X96791857Y-116598142D01*
X96934714Y-116633857D01*
X97006142Y-116669571D01*
X97077571Y-116741000D01*
X97113285Y-116848142D01*
X97113285Y-116919571D01*
X97077571Y-117026714D01*
X97041857Y-117062428D01*
X96791857Y-117062428D01*
X96791857Y-116919571D01*
X97113285Y-117383857D02*
X96363285Y-117383857D01*
X96363285Y-117669571D01*
X96399000Y-117741000D01*
X96434714Y-117776714D01*
X96506142Y-117812428D01*
X96613285Y-117812428D01*
X96684714Y-117776714D01*
X96720428Y-117741000D01*
X96756142Y-117669571D01*
X96756142Y-117383857D01*
X97113285Y-118133857D02*
X96363285Y-118133857D01*
X96363285Y-118633857D02*
X96363285Y-118776714D01*
X96399000Y-118848142D01*
X96470428Y-118919571D01*
X96613285Y-118955285D01*
X96863285Y-118955285D01*
X97006142Y-118919571D01*
X97077571Y-118848142D01*
X97113285Y-118776714D01*
X97113285Y-118633857D01*
X97077571Y-118562428D01*
X97006142Y-118491000D01*
X96863285Y-118455285D01*
X96613285Y-118455285D01*
X96470428Y-118491000D01*
X96399000Y-118562428D01*
X96363285Y-118633857D01*
X97113285Y-119669571D02*
X97113285Y-119241000D01*
X97113285Y-119455285D02*
X96363285Y-119455285D01*
X96470428Y-119383857D01*
X96541857Y-119312428D01*
X96577571Y-119241000D01*
X96363285Y-120348142D02*
X96363285Y-119991000D01*
X96720428Y-119955285D01*
X96684714Y-119991000D01*
X96649000Y-120062428D01*
X96649000Y-120241000D01*
X96684714Y-120312428D01*
X96720428Y-120348142D01*
X96791857Y-120383857D01*
X96970428Y-120383857D01*
X97041857Y-120348142D01*
X97077571Y-120312428D01*
X97113285Y-120241000D01*
X97113285Y-120062428D01*
X97077571Y-119991000D01*
X97041857Y-119955285D01*
X96399000Y-121598714D02*
X96363285Y-121527285D01*
X96363285Y-121420142D01*
X96399000Y-121313000D01*
X96470428Y-121241571D01*
X96541857Y-121205857D01*
X96684714Y-121170142D01*
X96791857Y-121170142D01*
X96934714Y-121205857D01*
X97006142Y-121241571D01*
X97077571Y-121313000D01*
X97113285Y-121420142D01*
X97113285Y-121491571D01*
X97077571Y-121598714D01*
X97041857Y-121634428D01*
X96791857Y-121634428D01*
X96791857Y-121491571D01*
X97113285Y-121955857D02*
X96363285Y-121955857D01*
X96363285Y-122241571D01*
X96399000Y-122313000D01*
X96434714Y-122348714D01*
X96506142Y-122384428D01*
X96613285Y-122384428D01*
X96684714Y-122348714D01*
X96720428Y-122313000D01*
X96756142Y-122241571D01*
X96756142Y-121955857D01*
X97113285Y-122705857D02*
X96363285Y-122705857D01*
X96363285Y-123205857D02*
X96363285Y-123348714D01*
X96399000Y-123420142D01*
X96470428Y-123491571D01*
X96613285Y-123527285D01*
X96863285Y-123527285D01*
X97006142Y-123491571D01*
X97077571Y-123420142D01*
X97113285Y-123348714D01*
X97113285Y-123205857D01*
X97077571Y-123134428D01*
X97006142Y-123063000D01*
X96863285Y-123027285D01*
X96613285Y-123027285D01*
X96470428Y-123063000D01*
X96399000Y-123134428D01*
X96363285Y-123205857D01*
X97113285Y-124241571D02*
X97113285Y-123813000D01*
X97113285Y-124027285D02*
X96363285Y-124027285D01*
X96470428Y-123955857D01*
X96541857Y-123884428D01*
X96577571Y-123813000D01*
X96613285Y-124884428D02*
X97113285Y-124884428D01*
X96327571Y-124705857D02*
X96863285Y-124527285D01*
X96863285Y-124991571D01*
D10*
X95885000Y-116332000D02*
X95885000Y-125476000D01*
X94234000Y-116205000D02*
X94234000Y-125476000D01*
X92583000Y-116205000D02*
X92583000Y-125476000D01*
X90805000Y-116205000D02*
X90805000Y-125476000D01*
X89154000Y-116205000D02*
X89154000Y-125476000D01*
X87376000Y-116205000D02*
X87376000Y-125476000D01*
X85725000Y-116205000D02*
X85725000Y-127381000D01*
X83820000Y-116205000D02*
X83820000Y-127381000D01*
D17*
X94748000Y-117026714D02*
X94712285Y-116955285D01*
X94712285Y-116848142D01*
X94748000Y-116741000D01*
X94819428Y-116669571D01*
X94890857Y-116633857D01*
X95033714Y-116598142D01*
X95140857Y-116598142D01*
X95283714Y-116633857D01*
X95355142Y-116669571D01*
X95426571Y-116741000D01*
X95462285Y-116848142D01*
X95462285Y-116919571D01*
X95426571Y-117026714D01*
X95390857Y-117062428D01*
X95140857Y-117062428D01*
X95140857Y-116919571D01*
X95462285Y-117383857D02*
X94712285Y-117383857D01*
X94712285Y-117669571D01*
X94748000Y-117741000D01*
X94783714Y-117776714D01*
X94855142Y-117812428D01*
X94962285Y-117812428D01*
X95033714Y-117776714D01*
X95069428Y-117741000D01*
X95105142Y-117669571D01*
X95105142Y-117383857D01*
X95462285Y-118133857D02*
X94712285Y-118133857D01*
X94712285Y-118633857D02*
X94712285Y-118776714D01*
X94748000Y-118848142D01*
X94819428Y-118919571D01*
X94962285Y-118955285D01*
X95212285Y-118955285D01*
X95355142Y-118919571D01*
X95426571Y-118848142D01*
X95462285Y-118776714D01*
X95462285Y-118633857D01*
X95426571Y-118562428D01*
X95355142Y-118491000D01*
X95212285Y-118455285D01*
X94962285Y-118455285D01*
X94819428Y-118491000D01*
X94748000Y-118562428D01*
X94712285Y-118633857D01*
X95462285Y-119669571D02*
X95462285Y-119241000D01*
X95462285Y-119455285D02*
X94712285Y-119455285D01*
X94819428Y-119383857D01*
X94890857Y-119312428D01*
X94926571Y-119241000D01*
X94712285Y-119919571D02*
X94712285Y-120383857D01*
X94998000Y-120133857D01*
X94998000Y-120241000D01*
X95033714Y-120312428D01*
X95069428Y-120348142D01*
X95140857Y-120383857D01*
X95319428Y-120383857D01*
X95390857Y-120348142D01*
X95426571Y-120312428D01*
X95462285Y-120241000D01*
X95462285Y-120026714D01*
X95426571Y-119955285D01*
X95390857Y-119919571D01*
X94748000Y-121598714D02*
X94712285Y-121527285D01*
X94712285Y-121420142D01*
X94748000Y-121313000D01*
X94819428Y-121241571D01*
X94890857Y-121205857D01*
X95033714Y-121170142D01*
X95140857Y-121170142D01*
X95283714Y-121205857D01*
X95355142Y-121241571D01*
X95426571Y-121313000D01*
X95462285Y-121420142D01*
X95462285Y-121491571D01*
X95426571Y-121598714D01*
X95390857Y-121634428D01*
X95140857Y-121634428D01*
X95140857Y-121491571D01*
X95462285Y-121955857D02*
X94712285Y-121955857D01*
X94712285Y-122241571D01*
X94748000Y-122313000D01*
X94783714Y-122348714D01*
X94855142Y-122384428D01*
X94962285Y-122384428D01*
X95033714Y-122348714D01*
X95069428Y-122313000D01*
X95105142Y-122241571D01*
X95105142Y-121955857D01*
X95462285Y-122705857D02*
X94712285Y-122705857D01*
X94712285Y-123205857D02*
X94712285Y-123348714D01*
X94748000Y-123420142D01*
X94819428Y-123491571D01*
X94962285Y-123527285D01*
X95212285Y-123527285D01*
X95355142Y-123491571D01*
X95426571Y-123420142D01*
X95462285Y-123348714D01*
X95462285Y-123205857D01*
X95426571Y-123134428D01*
X95355142Y-123063000D01*
X95212285Y-123027285D01*
X94962285Y-123027285D01*
X94819428Y-123063000D01*
X94748000Y-123134428D01*
X94712285Y-123205857D01*
X95462285Y-124241571D02*
X95462285Y-123813000D01*
X95462285Y-124027285D02*
X94712285Y-124027285D01*
X94819428Y-123955857D01*
X94890857Y-123884428D01*
X94926571Y-123813000D01*
X94783714Y-124527285D02*
X94748000Y-124563000D01*
X94712285Y-124634428D01*
X94712285Y-124813000D01*
X94748000Y-124884428D01*
X94783714Y-124920142D01*
X94855142Y-124955857D01*
X94926571Y-124955857D01*
X95033714Y-124920142D01*
X95462285Y-124491571D01*
X95462285Y-124955857D01*
X93097000Y-117026714D02*
X93061285Y-116955285D01*
X93061285Y-116848142D01*
X93097000Y-116741000D01*
X93168428Y-116669571D01*
X93239857Y-116633857D01*
X93382714Y-116598142D01*
X93489857Y-116598142D01*
X93632714Y-116633857D01*
X93704142Y-116669571D01*
X93775571Y-116741000D01*
X93811285Y-116848142D01*
X93811285Y-116919571D01*
X93775571Y-117026714D01*
X93739857Y-117062428D01*
X93489857Y-117062428D01*
X93489857Y-116919571D01*
X93811285Y-117383857D02*
X93061285Y-117383857D01*
X93061285Y-117669571D01*
X93097000Y-117741000D01*
X93132714Y-117776714D01*
X93204142Y-117812428D01*
X93311285Y-117812428D01*
X93382714Y-117776714D01*
X93418428Y-117741000D01*
X93454142Y-117669571D01*
X93454142Y-117383857D01*
X93811285Y-118133857D02*
X93061285Y-118133857D01*
X93061285Y-118633857D02*
X93061285Y-118776714D01*
X93097000Y-118848142D01*
X93168428Y-118919571D01*
X93311285Y-118955285D01*
X93561285Y-118955285D01*
X93704142Y-118919571D01*
X93775571Y-118848142D01*
X93811285Y-118776714D01*
X93811285Y-118633857D01*
X93775571Y-118562428D01*
X93704142Y-118491000D01*
X93561285Y-118455285D01*
X93311285Y-118455285D01*
X93168428Y-118491000D01*
X93097000Y-118562428D01*
X93061285Y-118633857D01*
X93811285Y-119669571D02*
X93811285Y-119241000D01*
X93811285Y-119455285D02*
X93061285Y-119455285D01*
X93168428Y-119383857D01*
X93239857Y-119312428D01*
X93275571Y-119241000D01*
X93811285Y-120383857D02*
X93811285Y-119955285D01*
X93811285Y-120169571D02*
X93061285Y-120169571D01*
X93168428Y-120098142D01*
X93239857Y-120026714D01*
X93275571Y-119955285D01*
X93097000Y-121598714D02*
X93061285Y-121527285D01*
X93061285Y-121420142D01*
X93097000Y-121313000D01*
X93168428Y-121241571D01*
X93239857Y-121205857D01*
X93382714Y-121170142D01*
X93489857Y-121170142D01*
X93632714Y-121205857D01*
X93704142Y-121241571D01*
X93775571Y-121313000D01*
X93811285Y-121420142D01*
X93811285Y-121491571D01*
X93775571Y-121598714D01*
X93739857Y-121634428D01*
X93489857Y-121634428D01*
X93489857Y-121491571D01*
X93811285Y-121955857D02*
X93061285Y-121955857D01*
X93061285Y-122241571D01*
X93097000Y-122313000D01*
X93132714Y-122348714D01*
X93204142Y-122384428D01*
X93311285Y-122384428D01*
X93382714Y-122348714D01*
X93418428Y-122313000D01*
X93454142Y-122241571D01*
X93454142Y-121955857D01*
X93811285Y-122705857D02*
X93061285Y-122705857D01*
X93061285Y-123205857D02*
X93061285Y-123348714D01*
X93097000Y-123420142D01*
X93168428Y-123491571D01*
X93311285Y-123527285D01*
X93561285Y-123527285D01*
X93704142Y-123491571D01*
X93775571Y-123420142D01*
X93811285Y-123348714D01*
X93811285Y-123205857D01*
X93775571Y-123134428D01*
X93704142Y-123063000D01*
X93561285Y-123027285D01*
X93311285Y-123027285D01*
X93168428Y-123063000D01*
X93097000Y-123134428D01*
X93061285Y-123205857D01*
X93811285Y-124241571D02*
X93811285Y-123813000D01*
X93811285Y-124027285D02*
X93061285Y-124027285D01*
X93168428Y-123955857D01*
X93239857Y-123884428D01*
X93275571Y-123813000D01*
X93061285Y-124705857D02*
X93061285Y-124777285D01*
X93097000Y-124848714D01*
X93132714Y-124884428D01*
X93204142Y-124920142D01*
X93347000Y-124955857D01*
X93525571Y-124955857D01*
X93668428Y-124920142D01*
X93739857Y-124884428D01*
X93775571Y-124848714D01*
X93811285Y-124777285D01*
X93811285Y-124705857D01*
X93775571Y-124634428D01*
X93739857Y-124598714D01*
X93668428Y-124563000D01*
X93525571Y-124527285D01*
X93347000Y-124527285D01*
X93204142Y-124563000D01*
X93132714Y-124598714D01*
X93097000Y-124634428D01*
X93061285Y-124705857D01*
D16*
X91294000Y-117310047D02*
X91255904Y-117233857D01*
X91255904Y-117119571D01*
X91294000Y-117005285D01*
X91370190Y-116929095D01*
X91446380Y-116891000D01*
X91598761Y-116852904D01*
X91713047Y-116852904D01*
X91865428Y-116891000D01*
X91941619Y-116929095D01*
X92017809Y-117005285D01*
X92055904Y-117119571D01*
X92055904Y-117195761D01*
X92017809Y-117310047D01*
X91979714Y-117348142D01*
X91713047Y-117348142D01*
X91713047Y-117195761D01*
X92055904Y-117691000D02*
X91255904Y-117691000D01*
X91255904Y-117995761D01*
X91294000Y-118071952D01*
X91332095Y-118110047D01*
X91408285Y-118148142D01*
X91522571Y-118148142D01*
X91598761Y-118110047D01*
X91636857Y-118071952D01*
X91674952Y-117995761D01*
X91674952Y-117691000D01*
X92055904Y-118491000D02*
X91255904Y-118491000D01*
X91255904Y-119024333D02*
X91255904Y-119176714D01*
X91294000Y-119252904D01*
X91370190Y-119329095D01*
X91522571Y-119367190D01*
X91789238Y-119367190D01*
X91941619Y-119329095D01*
X92017809Y-119252904D01*
X92055904Y-119176714D01*
X92055904Y-119024333D01*
X92017809Y-118948142D01*
X91941619Y-118871952D01*
X91789238Y-118833857D01*
X91522571Y-118833857D01*
X91370190Y-118871952D01*
X91294000Y-118948142D01*
X91255904Y-119024333D01*
X92055904Y-119748142D02*
X92055904Y-119900523D01*
X92017809Y-119976714D01*
X91979714Y-120014809D01*
X91865428Y-120091000D01*
X91713047Y-120129095D01*
X91408285Y-120129095D01*
X91332095Y-120091000D01*
X91294000Y-120052904D01*
X91255904Y-119976714D01*
X91255904Y-119824333D01*
X91294000Y-119748142D01*
X91332095Y-119710047D01*
X91408285Y-119671952D01*
X91598761Y-119671952D01*
X91674952Y-119710047D01*
X91713047Y-119748142D01*
X91751142Y-119824333D01*
X91751142Y-119976714D01*
X91713047Y-120052904D01*
X91674952Y-120091000D01*
X91598761Y-120129095D01*
X91294000Y-121755047D02*
X91255904Y-121678857D01*
X91255904Y-121564571D01*
X91294000Y-121450285D01*
X91370190Y-121374095D01*
X91446380Y-121336000D01*
X91598761Y-121297904D01*
X91713047Y-121297904D01*
X91865428Y-121336000D01*
X91941619Y-121374095D01*
X92017809Y-121450285D01*
X92055904Y-121564571D01*
X92055904Y-121640761D01*
X92017809Y-121755047D01*
X91979714Y-121793142D01*
X91713047Y-121793142D01*
X91713047Y-121640761D01*
X92055904Y-122136000D02*
X91255904Y-122136000D01*
X91255904Y-122440761D01*
X91294000Y-122516952D01*
X91332095Y-122555047D01*
X91408285Y-122593142D01*
X91522571Y-122593142D01*
X91598761Y-122555047D01*
X91636857Y-122516952D01*
X91674952Y-122440761D01*
X91674952Y-122136000D01*
X92055904Y-122936000D02*
X91255904Y-122936000D01*
X91255904Y-123469333D02*
X91255904Y-123621714D01*
X91294000Y-123697904D01*
X91370190Y-123774095D01*
X91522571Y-123812190D01*
X91789238Y-123812190D01*
X91941619Y-123774095D01*
X92017809Y-123697904D01*
X92055904Y-123621714D01*
X92055904Y-123469333D01*
X92017809Y-123393142D01*
X91941619Y-123316952D01*
X91789238Y-123278857D01*
X91522571Y-123278857D01*
X91370190Y-123316952D01*
X91294000Y-123393142D01*
X91255904Y-123469333D01*
X91598761Y-124269333D02*
X91560666Y-124193142D01*
X91522571Y-124155047D01*
X91446380Y-124116952D01*
X91408285Y-124116952D01*
X91332095Y-124155047D01*
X91294000Y-124193142D01*
X91255904Y-124269333D01*
X91255904Y-124421714D01*
X91294000Y-124497904D01*
X91332095Y-124536000D01*
X91408285Y-124574095D01*
X91446380Y-124574095D01*
X91522571Y-124536000D01*
X91560666Y-124497904D01*
X91598761Y-124421714D01*
X91598761Y-124269333D01*
X91636857Y-124193142D01*
X91674952Y-124155047D01*
X91751142Y-124116952D01*
X91903523Y-124116952D01*
X91979714Y-124155047D01*
X92017809Y-124193142D01*
X92055904Y-124269333D01*
X92055904Y-124421714D01*
X92017809Y-124497904D01*
X91979714Y-124536000D01*
X91903523Y-124574095D01*
X91751142Y-124574095D01*
X91674952Y-124536000D01*
X91636857Y-124497904D01*
X91598761Y-124421714D01*
X89643000Y-117310047D02*
X89604904Y-117233857D01*
X89604904Y-117119571D01*
X89643000Y-117005285D01*
X89719190Y-116929095D01*
X89795380Y-116891000D01*
X89947761Y-116852904D01*
X90062047Y-116852904D01*
X90214428Y-116891000D01*
X90290619Y-116929095D01*
X90366809Y-117005285D01*
X90404904Y-117119571D01*
X90404904Y-117195761D01*
X90366809Y-117310047D01*
X90328714Y-117348142D01*
X90062047Y-117348142D01*
X90062047Y-117195761D01*
X90404904Y-117691000D02*
X89604904Y-117691000D01*
X89604904Y-117995761D01*
X89643000Y-118071952D01*
X89681095Y-118110047D01*
X89757285Y-118148142D01*
X89871571Y-118148142D01*
X89947761Y-118110047D01*
X89985857Y-118071952D01*
X90023952Y-117995761D01*
X90023952Y-117691000D01*
X90404904Y-118491000D02*
X89604904Y-118491000D01*
X89604904Y-119024333D02*
X89604904Y-119176714D01*
X89643000Y-119252904D01*
X89719190Y-119329095D01*
X89871571Y-119367190D01*
X90138238Y-119367190D01*
X90290619Y-119329095D01*
X90366809Y-119252904D01*
X90404904Y-119176714D01*
X90404904Y-119024333D01*
X90366809Y-118948142D01*
X90290619Y-118871952D01*
X90138238Y-118833857D01*
X89871571Y-118833857D01*
X89719190Y-118871952D01*
X89643000Y-118948142D01*
X89604904Y-119024333D01*
X89604904Y-119633857D02*
X89604904Y-120167190D01*
X90404904Y-119824333D01*
X89643000Y-121755047D02*
X89604904Y-121678857D01*
X89604904Y-121564571D01*
X89643000Y-121450285D01*
X89719190Y-121374095D01*
X89795380Y-121336000D01*
X89947761Y-121297904D01*
X90062047Y-121297904D01*
X90214428Y-121336000D01*
X90290619Y-121374095D01*
X90366809Y-121450285D01*
X90404904Y-121564571D01*
X90404904Y-121640761D01*
X90366809Y-121755047D01*
X90328714Y-121793142D01*
X90062047Y-121793142D01*
X90062047Y-121640761D01*
X90404904Y-122136000D02*
X89604904Y-122136000D01*
X89604904Y-122440761D01*
X89643000Y-122516952D01*
X89681095Y-122555047D01*
X89757285Y-122593142D01*
X89871571Y-122593142D01*
X89947761Y-122555047D01*
X89985857Y-122516952D01*
X90023952Y-122440761D01*
X90023952Y-122136000D01*
X90404904Y-122936000D02*
X89604904Y-122936000D01*
X89604904Y-123469333D02*
X89604904Y-123621714D01*
X89643000Y-123697904D01*
X89719190Y-123774095D01*
X89871571Y-123812190D01*
X90138238Y-123812190D01*
X90290619Y-123774095D01*
X90366809Y-123697904D01*
X90404904Y-123621714D01*
X90404904Y-123469333D01*
X90366809Y-123393142D01*
X90290619Y-123316952D01*
X90138238Y-123278857D01*
X89871571Y-123278857D01*
X89719190Y-123316952D01*
X89643000Y-123393142D01*
X89604904Y-123469333D01*
X89604904Y-124497904D02*
X89604904Y-124345523D01*
X89643000Y-124269333D01*
X89681095Y-124231238D01*
X89795380Y-124155047D01*
X89947761Y-124116952D01*
X90252523Y-124116952D01*
X90328714Y-124155047D01*
X90366809Y-124193142D01*
X90404904Y-124269333D01*
X90404904Y-124421714D01*
X90366809Y-124497904D01*
X90328714Y-124536000D01*
X90252523Y-124574095D01*
X90062047Y-124574095D01*
X89985857Y-124536000D01*
X89947761Y-124497904D01*
X89909666Y-124421714D01*
X89909666Y-124269333D01*
X89947761Y-124193142D01*
X89985857Y-124155047D01*
X90062047Y-124116952D01*
X87865000Y-117310047D02*
X87826904Y-117233857D01*
X87826904Y-117119571D01*
X87865000Y-117005285D01*
X87941190Y-116929095D01*
X88017380Y-116891000D01*
X88169761Y-116852904D01*
X88284047Y-116852904D01*
X88436428Y-116891000D01*
X88512619Y-116929095D01*
X88588809Y-117005285D01*
X88626904Y-117119571D01*
X88626904Y-117195761D01*
X88588809Y-117310047D01*
X88550714Y-117348142D01*
X88284047Y-117348142D01*
X88284047Y-117195761D01*
X88626904Y-117691000D02*
X87826904Y-117691000D01*
X87826904Y-117995761D01*
X87865000Y-118071952D01*
X87903095Y-118110047D01*
X87979285Y-118148142D01*
X88093571Y-118148142D01*
X88169761Y-118110047D01*
X88207857Y-118071952D01*
X88245952Y-117995761D01*
X88245952Y-117691000D01*
X88626904Y-118491000D02*
X87826904Y-118491000D01*
X87826904Y-119024333D02*
X87826904Y-119176714D01*
X87865000Y-119252904D01*
X87941190Y-119329095D01*
X88093571Y-119367190D01*
X88360238Y-119367190D01*
X88512619Y-119329095D01*
X88588809Y-119252904D01*
X88626904Y-119176714D01*
X88626904Y-119024333D01*
X88588809Y-118948142D01*
X88512619Y-118871952D01*
X88360238Y-118833857D01*
X88093571Y-118833857D01*
X87941190Y-118871952D01*
X87865000Y-118948142D01*
X87826904Y-119024333D01*
X87826904Y-120091000D02*
X87826904Y-119710047D01*
X88207857Y-119671952D01*
X88169761Y-119710047D01*
X88131666Y-119786238D01*
X88131666Y-119976714D01*
X88169761Y-120052904D01*
X88207857Y-120091000D01*
X88284047Y-120129095D01*
X88474523Y-120129095D01*
X88550714Y-120091000D01*
X88588809Y-120052904D01*
X88626904Y-119976714D01*
X88626904Y-119786238D01*
X88588809Y-119710047D01*
X88550714Y-119671952D01*
X87865000Y-121755047D02*
X87826904Y-121678857D01*
X87826904Y-121564571D01*
X87865000Y-121450285D01*
X87941190Y-121374095D01*
X88017380Y-121336000D01*
X88169761Y-121297904D01*
X88284047Y-121297904D01*
X88436428Y-121336000D01*
X88512619Y-121374095D01*
X88588809Y-121450285D01*
X88626904Y-121564571D01*
X88626904Y-121640761D01*
X88588809Y-121755047D01*
X88550714Y-121793142D01*
X88284047Y-121793142D01*
X88284047Y-121640761D01*
X88626904Y-122136000D02*
X87826904Y-122136000D01*
X87826904Y-122440761D01*
X87865000Y-122516952D01*
X87903095Y-122555047D01*
X87979285Y-122593142D01*
X88093571Y-122593142D01*
X88169761Y-122555047D01*
X88207857Y-122516952D01*
X88245952Y-122440761D01*
X88245952Y-122136000D01*
X88626904Y-122936000D02*
X87826904Y-122936000D01*
X87826904Y-123469333D02*
X87826904Y-123621714D01*
X87865000Y-123697904D01*
X87941190Y-123774095D01*
X88093571Y-123812190D01*
X88360238Y-123812190D01*
X88512619Y-123774095D01*
X88588809Y-123697904D01*
X88626904Y-123621714D01*
X88626904Y-123469333D01*
X88588809Y-123393142D01*
X88512619Y-123316952D01*
X88360238Y-123278857D01*
X88093571Y-123278857D01*
X87941190Y-123316952D01*
X87865000Y-123393142D01*
X87826904Y-123469333D01*
X88093571Y-124497904D02*
X88626904Y-124497904D01*
X87788809Y-124307428D02*
X88360238Y-124116952D01*
X88360238Y-124612190D01*
D10*
X83820000Y-125476000D02*
X117729000Y-125476000D01*
X83820000Y-127381000D02*
X85725000Y-127381000D01*
X83820000Y-116205000D02*
X117729000Y-116205000D01*
X83820000Y-120777000D02*
X117729000Y-120777000D01*
D18*
X84550285Y-126817380D02*
X85121714Y-126817380D01*
X84836000Y-126817380D02*
X84836000Y-125817380D01*
X84931238Y-125960238D01*
X85026476Y-126055476D01*
X85121714Y-126103095D01*
D16*
X86214000Y-117310047D02*
X86175904Y-117233857D01*
X86175904Y-117119571D01*
X86214000Y-117005285D01*
X86290190Y-116929095D01*
X86366380Y-116891000D01*
X86518761Y-116852904D01*
X86633047Y-116852904D01*
X86785428Y-116891000D01*
X86861619Y-116929095D01*
X86937809Y-117005285D01*
X86975904Y-117119571D01*
X86975904Y-117195761D01*
X86937809Y-117310047D01*
X86899714Y-117348142D01*
X86633047Y-117348142D01*
X86633047Y-117195761D01*
X86975904Y-117691000D02*
X86175904Y-117691000D01*
X86175904Y-117995761D01*
X86214000Y-118071952D01*
X86252095Y-118110047D01*
X86328285Y-118148142D01*
X86442571Y-118148142D01*
X86518761Y-118110047D01*
X86556857Y-118071952D01*
X86594952Y-117995761D01*
X86594952Y-117691000D01*
X86975904Y-118491000D02*
X86175904Y-118491000D01*
X86175904Y-119024333D02*
X86175904Y-119176714D01*
X86214000Y-119252904D01*
X86290190Y-119329095D01*
X86442571Y-119367190D01*
X86709238Y-119367190D01*
X86861619Y-119329095D01*
X86937809Y-119252904D01*
X86975904Y-119176714D01*
X86975904Y-119024333D01*
X86937809Y-118948142D01*
X86861619Y-118871952D01*
X86709238Y-118833857D01*
X86442571Y-118833857D01*
X86290190Y-118871952D01*
X86214000Y-118948142D01*
X86175904Y-119024333D01*
X86175904Y-119633857D02*
X86175904Y-120129095D01*
X86480666Y-119862428D01*
X86480666Y-119976714D01*
X86518761Y-120052904D01*
X86556857Y-120091000D01*
X86633047Y-120129095D01*
X86823523Y-120129095D01*
X86899714Y-120091000D01*
X86937809Y-120052904D01*
X86975904Y-119976714D01*
X86975904Y-119748142D01*
X86937809Y-119671952D01*
X86899714Y-119633857D01*
X86214000Y-121755047D02*
X86175904Y-121678857D01*
X86175904Y-121564571D01*
X86214000Y-121450285D01*
X86290190Y-121374095D01*
X86366380Y-121336000D01*
X86518761Y-121297904D01*
X86633047Y-121297904D01*
X86785428Y-121336000D01*
X86861619Y-121374095D01*
X86937809Y-121450285D01*
X86975904Y-121564571D01*
X86975904Y-121640761D01*
X86937809Y-121755047D01*
X86899714Y-121793142D01*
X86633047Y-121793142D01*
X86633047Y-121640761D01*
X86975904Y-122136000D02*
X86175904Y-122136000D01*
X86175904Y-122440761D01*
X86214000Y-122516952D01*
X86252095Y-122555047D01*
X86328285Y-122593142D01*
X86442571Y-122593142D01*
X86518761Y-122555047D01*
X86556857Y-122516952D01*
X86594952Y-122440761D01*
X86594952Y-122136000D01*
X86975904Y-122936000D02*
X86175904Y-122936000D01*
X86175904Y-123469333D02*
X86175904Y-123621714D01*
X86214000Y-123697904D01*
X86290190Y-123774095D01*
X86442571Y-123812190D01*
X86709238Y-123812190D01*
X86861619Y-123774095D01*
X86937809Y-123697904D01*
X86975904Y-123621714D01*
X86975904Y-123469333D01*
X86937809Y-123393142D01*
X86861619Y-123316952D01*
X86709238Y-123278857D01*
X86442571Y-123278857D01*
X86290190Y-123316952D01*
X86214000Y-123393142D01*
X86175904Y-123469333D01*
X86252095Y-124116952D02*
X86214000Y-124155047D01*
X86175904Y-124231238D01*
X86175904Y-124421714D01*
X86214000Y-124497904D01*
X86252095Y-124536000D01*
X86328285Y-124574095D01*
X86404476Y-124574095D01*
X86518761Y-124536000D01*
X86975904Y-124078857D01*
X86975904Y-124574095D01*
X84436000Y-117310047D02*
X84397904Y-117233857D01*
X84397904Y-117119571D01*
X84436000Y-117005285D01*
X84512190Y-116929095D01*
X84588380Y-116891000D01*
X84740761Y-116852904D01*
X84855047Y-116852904D01*
X85007428Y-116891000D01*
X85083619Y-116929095D01*
X85159809Y-117005285D01*
X85197904Y-117119571D01*
X85197904Y-117195761D01*
X85159809Y-117310047D01*
X85121714Y-117348142D01*
X84855047Y-117348142D01*
X84855047Y-117195761D01*
X85197904Y-117691000D02*
X84397904Y-117691000D01*
X84397904Y-117995761D01*
X84436000Y-118071952D01*
X84474095Y-118110047D01*
X84550285Y-118148142D01*
X84664571Y-118148142D01*
X84740761Y-118110047D01*
X84778857Y-118071952D01*
X84816952Y-117995761D01*
X84816952Y-117691000D01*
X85197904Y-118491000D02*
X84397904Y-118491000D01*
X84397904Y-119024333D02*
X84397904Y-119176714D01*
X84436000Y-119252904D01*
X84512190Y-119329095D01*
X84664571Y-119367190D01*
X84931238Y-119367190D01*
X85083619Y-119329095D01*
X85159809Y-119252904D01*
X85197904Y-119176714D01*
X85197904Y-119024333D01*
X85159809Y-118948142D01*
X85083619Y-118871952D01*
X84931238Y-118833857D01*
X84664571Y-118833857D01*
X84512190Y-118871952D01*
X84436000Y-118948142D01*
X84397904Y-119024333D01*
X85197904Y-120129095D02*
X85197904Y-119671952D01*
X85197904Y-119900523D02*
X84397904Y-119900523D01*
X84512190Y-119824333D01*
X84588380Y-119748142D01*
X84626476Y-119671952D01*
D12*
X128741714Y-136996714D02*
X128741714Y-137504714D01*
X128923142Y-136706428D02*
X129104571Y-137250714D01*
X128632857Y-137250714D01*
X128197428Y-136742714D02*
X128124857Y-136742714D01*
X128052285Y-136779000D01*
X128016000Y-136815285D01*
X127979714Y-136887857D01*
X127943428Y-137033000D01*
X127943428Y-137214428D01*
X127979714Y-137359571D01*
X128016000Y-137432142D01*
X128052285Y-137468428D01*
X128124857Y-137504714D01*
X128197428Y-137504714D01*
X128270000Y-137468428D01*
X128306285Y-137432142D01*
X128342571Y-137359571D01*
X128378857Y-137214428D01*
X128378857Y-137033000D01*
X128342571Y-136887857D01*
X128306285Y-136815285D01*
X128270000Y-136779000D01*
X128197428Y-136742714D01*
X76617285Y-141060714D02*
X77052714Y-141060714D01*
X76835000Y-141060714D02*
X76835000Y-140298714D01*
X76907571Y-140407571D01*
X76980142Y-140480142D01*
X77052714Y-140516428D01*
D16*
X84436000Y-121755047D02*
X84397904Y-121678857D01*
X84397904Y-121564571D01*
X84436000Y-121450285D01*
X84512190Y-121374095D01*
X84588380Y-121336000D01*
X84740761Y-121297904D01*
X84855047Y-121297904D01*
X85007428Y-121336000D01*
X85083619Y-121374095D01*
X85159809Y-121450285D01*
X85197904Y-121564571D01*
X85197904Y-121640761D01*
X85159809Y-121755047D01*
X85121714Y-121793142D01*
X84855047Y-121793142D01*
X84855047Y-121640761D01*
X85197904Y-122136000D02*
X84397904Y-122136000D01*
X84397904Y-122440761D01*
X84436000Y-122516952D01*
X84474095Y-122555047D01*
X84550285Y-122593142D01*
X84664571Y-122593142D01*
X84740761Y-122555047D01*
X84778857Y-122516952D01*
X84816952Y-122440761D01*
X84816952Y-122136000D01*
X85197904Y-122936000D02*
X84397904Y-122936000D01*
X84397904Y-123469333D02*
X84397904Y-123621714D01*
X84436000Y-123697904D01*
X84512190Y-123774095D01*
X84664571Y-123812190D01*
X84931238Y-123812190D01*
X85083619Y-123774095D01*
X85159809Y-123697904D01*
X85197904Y-123621714D01*
X85197904Y-123469333D01*
X85159809Y-123393142D01*
X85083619Y-123316952D01*
X84931238Y-123278857D01*
X84664571Y-123278857D01*
X84512190Y-123316952D01*
X84436000Y-123393142D01*
X84397904Y-123469333D01*
X84397904Y-124307428D02*
X84397904Y-124383619D01*
X84436000Y-124459809D01*
X84474095Y-124497904D01*
X84550285Y-124536000D01*
X84702666Y-124574095D01*
X84893142Y-124574095D01*
X85045523Y-124536000D01*
X85121714Y-124497904D01*
X85159809Y-124459809D01*
X85197904Y-124383619D01*
X85197904Y-124307428D01*
X85159809Y-124231238D01*
X85121714Y-124193142D01*
X85045523Y-124155047D01*
X84893142Y-124116952D01*
X84702666Y-124116952D01*
X84550285Y-124155047D01*
X84474095Y-124193142D01*
X84436000Y-124231238D01*
X84397904Y-124307428D01*
D10*
X94487556Y-104291371D02*
G75*
G02X94234000Y-104902000I-865696J1511D01*
G01*
X93041020Y-102796180D02*
G75*
G02X93548200Y-103827580I-991420J-1127920D01*
G01*
X93958340Y-104932046D02*
G75*
G02X93548200Y-103835200I1118940J1043506D01*
G01*
X94235788Y-105030791D02*
G75*
G02X93931740Y-104904540I752J431051D01*
G01*
X93669340Y-105024613D02*
G75*
G02X93167200Y-104228900I709440J1003993D01*
G01*
X92787795Y-102890066D02*
G75*
G02X93141800Y-103880920I-1408755J-1061974D01*
G01*
X93320927Y-105030303D02*
G75*
G02X93121480Y-105006140I-1327J824263D01*
G01*
X93119497Y-105005453D02*
G75*
G02X92539820Y-104731820I205183J1185493D01*
G01*
X92515946Y-104709974D02*
G75*
G02X92202000Y-103952040I757934J757934D01*
G01*
X92202283Y-103952487D02*
G75*
G02X92273120Y-103583740I992857J447D01*
G01*
X92337148Y-102649136D02*
G75*
G02X92273120Y-103583740I-1478808J-368184D01*
G01*
X93639000Y-102670511D02*
G75*
G02X94361000Y-103314500I-601340J-1400909D01*
G01*
X94414794Y-103410321D02*
G75*
G02X94615000Y-104165400I-1323794J-755079D01*
G01*
X94616874Y-104165901D02*
G75*
G02X94531180Y-104609900I-1195674J501D01*
G01*
X94660720Y-105284612D02*
G75*
G02X94368620Y-105163620I0J413092D01*
G01*
X95018134Y-105134954D02*
G75*
G02X94660720Y-105283000I-357414J357414D01*
G01*
X95391258Y-105300710D02*
G75*
G02X95123000Y-104648000I653762J650170D01*
G01*
X95628978Y-105918280D02*
G75*
G02X95123000Y-104693720I1228842J1224560D01*
G01*
X99193379Y-101379186D02*
G75*
G02X97850960Y-101594920I-1812319J6992786D01*
G01*
X96069130Y-102168934D02*
G75*
G02X97332800Y-101668580I2134890J-3545866D01*
G01*
X95002641Y-103246765D02*
G75*
G02X96057720Y-102176580I3831299J-2722035D01*
G01*
X95122155Y-104521069D02*
G75*
G02X95242380Y-103583740I762845J378529D01*
G01*
X95413473Y-103395156D02*
G75*
G02X97967800Y-102125780I3654147J-4148444D01*
G01*
X100304541Y-101314778D02*
G75*
G02X98277680Y-102064820I-2631381J3997218D01*
G01*
X95570549Y-105606559D02*
G75*
G02X95123000Y-104521000I1086611J1083019D01*
G01*
X94996760Y-102869243D02*
G75*
G02X95056960Y-102191820I3049780J70363D01*
G01*
X95203736Y-101588585D02*
G75*
G02X97254060Y-100076000I2144304J-760715D01*
G01*
X101117952Y-99931522D02*
G75*
G02X99402900Y-100271580I-1268012J1900222D01*
G01*
X99091933Y-103855013D02*
G75*
G02X97226120Y-104521000I-1738813J1924813D01*
G01*
X101112464Y-101435447D02*
G75*
G02X99131120Y-103817420I-8344044J4925607D01*
G01*
X95399860Y-104244140D02*
G75*
G02X96118680Y-104246680I358140J-360680D01*
G01*
X96710500Y-104523066D02*
G75*
G02X96172020Y-104300020I0J761526D01*
G01*
X97028000Y-108331000D02*
G75*
G02X95504000Y-106807000I0J1524000D01*
G01*
X110363000Y-106807000D02*
G75*
G02X108839000Y-108331000I-1524000J0D01*
G01*
X108839000Y-105283000D02*
G75*
G02X110363000Y-106807000I0J-1524000D01*
G01*
X95504000Y-106807000D02*
G75*
G02X97028000Y-105283000I1524000J0D01*
G01*
X93472000Y-104902000D02*
X92964000Y-104902000D01*
X93345000Y-104775000D02*
X92710000Y-104775000D01*
X93218000Y-104648000D02*
X92583000Y-104648000D01*
X93218000Y-104521000D02*
X92456000Y-104521000D01*
X93167200Y-104394000D02*
X92329000Y-104394000D01*
X93091000Y-104267000D02*
X92329000Y-104267000D01*
X93091000Y-104140000D02*
X92329000Y-104140000D01*
X93091000Y-104013000D02*
X92329000Y-104013000D01*
X93091000Y-103886000D02*
X92329000Y-103886000D01*
X93091000Y-103759000D02*
X92329000Y-103759000D01*
X93091000Y-103632000D02*
X92329000Y-103632000D01*
X93091000Y-103505000D02*
X92456000Y-103505000D01*
X92964000Y-103378000D02*
X92456000Y-103378000D01*
X92964000Y-103251000D02*
X92456000Y-103251000D01*
X92583000Y-102743000D02*
X92583000Y-103251000D01*
X92710000Y-102743000D02*
X92710000Y-103251000D01*
X92837000Y-102362000D02*
X92329000Y-102362000D01*
X92964000Y-102489000D02*
X92329000Y-102489000D01*
X93218000Y-102616000D02*
X92456000Y-102616000D01*
X92710000Y-102743000D02*
X93599000Y-102743000D01*
X92583000Y-102743000D02*
X92710000Y-102743000D01*
X92456000Y-102743000D02*
X92583000Y-102743000D01*
X93218000Y-102870000D02*
X93726000Y-102870000D01*
X93345000Y-102997000D02*
X93980000Y-102997000D01*
X93345000Y-103124000D02*
X94107000Y-103124000D01*
X93472000Y-103251000D02*
X94234000Y-103251000D01*
X93472000Y-103378000D02*
X94361000Y-103378000D01*
X93599000Y-103505000D02*
X94361000Y-103505000D01*
X93599000Y-103632000D02*
X94361000Y-103632000D01*
X93599000Y-103759000D02*
X94488000Y-103759000D01*
X93599000Y-103886000D02*
X94488000Y-103886000D01*
X94361000Y-104648000D02*
X93853000Y-104648000D01*
X94361000Y-104521000D02*
X93726000Y-104521000D01*
X94488000Y-104394000D02*
X93726000Y-104394000D01*
X94488000Y-104267000D02*
X93726000Y-104267000D01*
X94361000Y-104140000D02*
X93726000Y-104140000D01*
X93853000Y-104013000D02*
X93853000Y-104521000D01*
X93599000Y-104013000D02*
X94107000Y-104902000D01*
X93853000Y-104013000D02*
X93599000Y-104013000D01*
X94234000Y-104013000D02*
X93853000Y-104013000D01*
X94361000Y-104648000D02*
X94361000Y-104775000D01*
X94361000Y-104521000D02*
X94361000Y-104648000D01*
X94361000Y-104140000D02*
X94361000Y-104521000D01*
X94361000Y-104013000D02*
X94361000Y-104140000D01*
X94234000Y-104013000D02*
X94234000Y-104648000D01*
X94361000Y-104013000D02*
X94234000Y-104013000D01*
X94488000Y-104013000D02*
X94361000Y-104013000D01*
X94488000Y-104267000D02*
X94488000Y-104013000D01*
X94488000Y-104289860D02*
X94488000Y-104267000D01*
X93548200Y-103835200D02*
X93548200Y-103827580D01*
X93931740Y-104904540D02*
X93959680Y-104932480D01*
D19*
X97282000Y-103505000D02*
X98552000Y-103251000D01*
X96901000Y-103632000D02*
X97282000Y-103505000D01*
X96774000Y-103505000D02*
X96901000Y-103632000D01*
X96774000Y-103378000D02*
X96774000Y-103505000D01*
X97282000Y-103124000D02*
X96774000Y-103378000D01*
X97536000Y-103124000D02*
X97282000Y-103124000D01*
X98552000Y-102870000D02*
X97536000Y-103124000D01*
X99060000Y-102870000D02*
X98552000Y-102870000D01*
X99187000Y-102997000D02*
X99060000Y-102870000D01*
X99060000Y-103124000D02*
X99187000Y-102997000D01*
X98425000Y-103632000D02*
X99060000Y-103124000D01*
X97917000Y-103759000D02*
X98425000Y-103632000D01*
X97536000Y-103886000D02*
X97917000Y-103759000D01*
X96901000Y-103886000D02*
X97536000Y-103886000D01*
X96520000Y-103759000D02*
X96901000Y-103886000D01*
X96266000Y-103759000D02*
X96520000Y-103759000D01*
X96139000Y-103505000D02*
X96266000Y-103759000D01*
X96266000Y-103378000D02*
X96139000Y-103505000D01*
X96901000Y-102870000D02*
X96266000Y-103378000D01*
X97917000Y-102616000D02*
X96901000Y-102870000D01*
X99060000Y-102489000D02*
X97917000Y-102616000D01*
X99187000Y-102489000D02*
X99060000Y-102489000D01*
X99314000Y-102616000D02*
X99187000Y-102489000D01*
X100076000Y-101981000D02*
X99314000Y-102616000D01*
X99441000Y-101981000D02*
X100203000Y-101600000D01*
X98704400Y-102235000D02*
X99441000Y-101981000D01*
X98094800Y-102235000D02*
X98704400Y-102235000D01*
X96697800Y-102717600D02*
X98094800Y-102235000D01*
X96012000Y-103124000D02*
X96697800Y-102717600D01*
X95504000Y-103632000D02*
X96012000Y-103124000D01*
X95250000Y-104140000D02*
X95504000Y-103632000D01*
X95504000Y-103886000D02*
X95250000Y-104140000D01*
X95885000Y-103759000D02*
X95504000Y-103886000D01*
X96647000Y-104267000D02*
X95885000Y-103759000D01*
X97536000Y-104267000D02*
X96647000Y-104267000D01*
X98425000Y-104013000D02*
X97536000Y-104267000D01*
X98933000Y-103632000D02*
X98425000Y-104013000D01*
X99822000Y-102743000D02*
X98933000Y-103632000D01*
X100076000Y-102362000D02*
X99822000Y-102743000D01*
X100457000Y-101854000D02*
X100076000Y-102362000D01*
X100586540Y-101346000D02*
X100965000Y-100459540D01*
X100586540Y-101727000D02*
X100586540Y-101346000D01*
X100965000Y-101219000D02*
X100586540Y-101727000D01*
X101092000Y-100711000D02*
X100965000Y-101219000D01*
X101600000Y-99822000D02*
X101092000Y-100711000D01*
X96012000Y-101346000D02*
X97663000Y-101346000D01*
X96139000Y-100965000D02*
X101092000Y-100888800D01*
X96139000Y-101219000D02*
X96139000Y-100965000D01*
X96139000Y-100711000D02*
X96139000Y-100965000D01*
X100711000Y-100711000D02*
X96139000Y-100711000D01*
X100203000Y-100838000D02*
X100711000Y-100711000D01*
X98933000Y-101219000D02*
X100203000Y-100838000D01*
X97790000Y-101346000D02*
X98933000Y-101219000D01*
X97663000Y-101346000D02*
X97790000Y-101346000D01*
X97155000Y-101346000D02*
X97663000Y-101346000D01*
X96520000Y-101727000D02*
X97155000Y-101346000D01*
X96139000Y-101219000D02*
X95758000Y-101727000D01*
X96393000Y-101727000D02*
X96139000Y-101219000D01*
X95758000Y-102108000D02*
X96393000Y-101727000D01*
X95250000Y-102743000D02*
X95758000Y-102108000D01*
X95377000Y-101727000D02*
X95250000Y-102743000D01*
X95631000Y-101219000D02*
X95377000Y-101727000D01*
X96139000Y-100711000D02*
X95631000Y-101219000D01*
X96774000Y-100330000D02*
X96139000Y-100711000D01*
X98425000Y-100330000D02*
X96774000Y-100330000D01*
X99441000Y-100459540D02*
X98425000Y-100330000D01*
X100586540Y-100459540D02*
X99441000Y-100459540D01*
D10*
X101600000Y-99822000D02*
X100586540Y-100459540D01*
X93141800Y-103837740D02*
X93167200Y-104228900D01*
X94221300Y-105029000D02*
X94234000Y-105029000D01*
X93319600Y-105029000D02*
X93675200Y-105029000D01*
X92516960Y-104708960D02*
X92539820Y-104731820D01*
X92202000Y-102108000D02*
X92336620Y-102646480D01*
X93218000Y-102489000D02*
X92202000Y-102108000D01*
X93639640Y-102669340D02*
X93218000Y-102489000D01*
X94414340Y-103408480D02*
X94361000Y-103314500D01*
X94234000Y-105029000D02*
X94531180Y-104609900D01*
X94368620Y-105163620D02*
X94234000Y-105029000D01*
X95123000Y-105029000D02*
X95018860Y-105135680D01*
X95885000Y-105791000D02*
X95394780Y-105300780D01*
X95123000Y-104693720D02*
X95123000Y-104648000D01*
X95758000Y-105918000D02*
X95250000Y-105156000D01*
X99199700Y-101379020D02*
X100586540Y-100965000D01*
X97332800Y-101668580D02*
X97850960Y-101594920D01*
X96057720Y-102176580D02*
X96065340Y-102171500D01*
X94998540Y-103251000D02*
X95001080Y-103248460D01*
X95412560Y-103395780D02*
X95242380Y-103583740D01*
X98277680Y-102064820D02*
X97967800Y-102125780D01*
X100586540Y-100965000D02*
X100304600Y-101312980D01*
X95758000Y-105791000D02*
X95572580Y-105605580D01*
X95100140Y-104475280D02*
X95123000Y-104521000D01*
X94998540Y-102870000D02*
X94998540Y-103251000D01*
X95204280Y-101592380D02*
X95056960Y-102191820D01*
X99402900Y-100271580D02*
X97254060Y-100076000D01*
X101981000Y-99314000D02*
X101119940Y-99933760D01*
X97226120Y-104521000D02*
X96710500Y-104521000D01*
X99131120Y-103817420D02*
X99095560Y-103852980D01*
X101981000Y-99314000D02*
X101114860Y-101429820D01*
X95399860Y-104246680D02*
X95123000Y-104521000D01*
X96172020Y-104300020D02*
X96118680Y-104246680D01*
X108839000Y-108331000D02*
X97028000Y-108331000D01*
X97028000Y-105283000D02*
X108839000Y-105283000D01*
D20*
X127206000Y-108535000D02*
X127206000Y-109297000D01*
X131778000Y-108535000D02*
X127206000Y-108535000D01*
X131778000Y-109297000D02*
X131778000Y-108535000D01*
X127206000Y-109297000D02*
X131778000Y-109297000D01*
X127256800Y-108585800D02*
X131676400Y-108585800D01*
X131727200Y-108687400D02*
X127256800Y-108687400D01*
X127256800Y-108839800D02*
X131676400Y-108839800D01*
X127256800Y-108992200D02*
X131676400Y-108992200D01*
X131727200Y-108738200D02*
X127307600Y-108738200D01*
X131727200Y-108890600D02*
X127256800Y-108890600D01*
X127307600Y-109093800D02*
X131676400Y-109093800D01*
X131727200Y-109195400D02*
X127307600Y-109195400D01*
D10*
X131572000Y-103759000D02*
X127381000Y-107950000D01*
X131445000Y-107823000D02*
X127381000Y-103886000D01*
X130429000Y-107442000D02*
X129032000Y-107442000D01*
X130429000Y-107442000D02*
X130683000Y-104394000D01*
X130937000Y-104267000D02*
X128016000Y-104267000D01*
X129921000Y-107823000D02*
X129921000Y-107569000D01*
X130429000Y-107823000D02*
X129921000Y-107823000D01*
X130429000Y-107442000D02*
X130429000Y-107823000D01*
X128524000Y-106934000D02*
X128397000Y-104902000D01*
X128925609Y-107442000D02*
G75*
G03X128925609Y-107442000I-401609J0D01*
G01*
X130302000Y-103632000D02*
X130302000Y-104140000D01*
X130429000Y-103632000D02*
X130302000Y-103632000D01*
X130429000Y-104140000D02*
X130429000Y-103632000D01*
X128016000Y-104775000D02*
X128016000Y-104267000D01*
X128397000Y-104775000D02*
X128016000Y-104775000D01*
X128397000Y-104267000D02*
X128397000Y-104775000D01*
X128270000Y-104394000D02*
X128270000Y-104521000D01*
X128270000Y-104267000D02*
X128143000Y-104648000D01*
X128270000Y-104394000D02*
X128270000Y-104521000D01*
X128143000Y-104394000D02*
X128143000Y-104775000D01*
X128270000Y-104394000D02*
X128143000Y-104394000D01*
X128270000Y-104775000D02*
X128270000Y-104394000D01*
X129667000Y-105156000D02*
X129667000Y-104775000D01*
X128778000Y-105156000D02*
X129667000Y-105156000D01*
X128778000Y-104775000D02*
X128778000Y-105156000D01*
X129667000Y-104775000D02*
X128778000Y-104775000D01*
X129540000Y-104902000D02*
X128905000Y-104902000D01*
X129286000Y-103378000D02*
X129667000Y-103378000D01*
X129286000Y-103505000D02*
X129286000Y-103378000D01*
X129667000Y-103505000D02*
X129286000Y-103505000D01*
X129667000Y-103378000D02*
X129667000Y-103505000D01*
X128397000Y-104140000D02*
G75*
G02X130683000Y-104140000I1143000J-1143000D01*
G01*
D21*
X128651000Y-107442000D02*
G75*
G03X128651000Y-107442000I-127000J0D01*
G01*
D10*
X126186037Y-120583960D02*
G75*
G03X126186037Y-120583960I-1802237J0D01*
G01*
D16*
X123223020Y-121747280D02*
X125656340Y-119326660D01*
D22*
X80474820Y-104442260D02*
X79923640Y-103019860D01*
D23*
X80820260Y-104256840D02*
X80502760Y-104462580D01*
D24*
X81610200Y-104805480D02*
X80830420Y-104274620D01*
D25*
X82186780Y-104267000D02*
X81622900Y-104805480D01*
D23*
X82171540Y-104267000D02*
X81638140Y-103433880D01*
X81996280Y-102506780D02*
X81638140Y-103390700D01*
X82974180Y-102265480D02*
X82024220Y-102483920D01*
D25*
X82964020Y-101488240D02*
X82969100Y-102275640D01*
D23*
X82976720Y-101475540D02*
X81958180Y-101295200D01*
X81927700Y-101259640D02*
X81579720Y-100393500D01*
X82156300Y-99491800D02*
X81600040Y-100342700D01*
D25*
X82166460Y-99468940D02*
X81666080Y-98935540D01*
D23*
X81617820Y-98910140D02*
X80789780Y-99562920D01*
X80728820Y-99552760D02*
X79883000Y-99146360D01*
X79623920Y-98112580D02*
X79829660Y-99126040D01*
X79631540Y-98099880D02*
X78846680Y-98099880D01*
X78864460Y-98120200D02*
X78651100Y-99138740D01*
X78651100Y-99138740D02*
X77749400Y-99588320D01*
X77736700Y-99583240D02*
X76832460Y-98948800D01*
X76832460Y-98950780D02*
X76278740Y-99496880D01*
X76278740Y-99499420D02*
X76895960Y-100289360D01*
X76895960Y-100289360D02*
X76555600Y-101226620D01*
X76555600Y-101226620D02*
X75473560Y-101455220D01*
X75473560Y-101455220D02*
X75473560Y-102290880D01*
X75473560Y-102290880D02*
X76487020Y-102461060D01*
X76487020Y-102461060D02*
X76893420Y-103372920D01*
X76842620Y-104820720D02*
X77678280Y-104254300D01*
X77678280Y-104254300D02*
X78016100Y-104439720D01*
X78016100Y-104439720D02*
X78590140Y-102999540D01*
X78579980Y-102997000D02*
G75*
G02X78209140Y-101132640I746760J1117600D01*
G01*
X78198980Y-101147880D02*
G75*
G02X80124300Y-100949760I1061720J-863600D01*
G01*
X80149700Y-100975160D02*
G75*
G02X80073500Y-102829360I-965200J-889000D01*
G01*
X76893420Y-103372920D02*
X76273660Y-104259380D01*
X76827380Y-104813100D02*
X76273660Y-104267000D01*
D20*
X80393540Y-104622600D02*
X79743300Y-102953820D01*
X80777080Y-104419400D02*
X80431640Y-104640380D01*
X80789780Y-104409240D02*
X81615280Y-104973120D01*
X81622900Y-104980740D02*
X82344260Y-104287320D01*
X82351880Y-104284780D02*
X81754980Y-103421180D01*
X83113880Y-102377240D02*
X82042000Y-102572820D01*
X83113880Y-101384100D02*
X83113880Y-102369620D01*
X83116420Y-101381560D02*
X81945480Y-101178360D01*
X82047080Y-101183440D02*
X81711800Y-100350320D01*
X82308700Y-99499420D02*
X81714340Y-100352860D01*
X82329020Y-99463860D02*
X81655920Y-98750120D01*
X81643220Y-98747580D02*
X80672940Y-99463860D01*
X80708500Y-99395280D02*
X79804260Y-99016820D01*
X79720440Y-98000820D02*
X79921100Y-99026980D01*
X79710280Y-97993200D02*
X78745080Y-97993200D01*
X78745080Y-97993200D02*
X78519020Y-99164140D01*
X78529180Y-99082860D02*
X77724000Y-99420680D01*
X77843380Y-99468940D02*
X76832460Y-98795840D01*
X76827380Y-98793300D02*
X76133960Y-99484180D01*
X76128880Y-99491800D02*
X76832460Y-100482400D01*
X76743560Y-100373180D02*
X76377800Y-101241860D01*
X75440540Y-102143560D02*
X76547980Y-102367080D01*
X75356720Y-101401880D02*
X75359260Y-102359460D01*
X76494640Y-102590600D02*
X75371960Y-102379780D01*
X76390500Y-102557580D02*
X76771500Y-103538020D01*
X76423520Y-104193340D02*
X76908660Y-104724200D01*
X76819760Y-104968040D02*
X76136500Y-104277160D01*
X77706220Y-104353360D02*
X76829920Y-104973120D01*
X76842620Y-104658160D02*
X77663040Y-104129840D01*
X77525880Y-104325420D02*
X78054200Y-104653080D01*
X78054200Y-104653080D02*
X78440280Y-103672640D01*
X78445360Y-102974140D02*
X77917040Y-104355900D01*
X82821780Y-101572060D02*
X82821780Y-102222300D01*
X82964020Y-101627940D02*
X81848960Y-101381560D01*
X81434940Y-100360480D02*
X81821020Y-101358700D01*
X81429860Y-100365560D02*
X82031840Y-99456240D01*
X81673700Y-99011740D02*
X80789780Y-99733100D01*
X78402180Y-103032560D02*
X78224380Y-102910640D01*
X78224380Y-102910640D02*
X77848460Y-102199440D01*
X77848460Y-102199440D02*
X77848460Y-101681280D01*
X77843380Y-101693980D02*
X78077060Y-101020880D01*
X78077060Y-101020880D02*
X78587600Y-100591620D01*
X78587600Y-100591620D02*
X79402940Y-100431600D01*
X79402940Y-100423980D02*
X80274160Y-100853240D01*
X80274160Y-100853240D02*
X80693260Y-101584760D01*
X80698340Y-101589840D02*
X80566260Y-102412800D01*
X80561180Y-102443280D02*
X80467200Y-102613460D01*
X80561180Y-102443280D02*
X80467200Y-102613460D01*
X80337660Y-102664260D02*
X80078580Y-103002080D01*
X79969360Y-102778560D02*
X79743300Y-102953820D01*
X78468220Y-102781100D02*
X78722220Y-102946200D01*
X78605380Y-103235760D02*
X78727300Y-102951280D01*
X80784700Y-99730560D02*
X79801720Y-99237800D01*
X80454500Y-102643940D02*
X80147160Y-102910640D01*
D26*
X81470500Y-104073960D02*
X80617060Y-103052880D01*
X82506820Y-101869240D02*
X81089500Y-101808280D01*
X81521300Y-99583240D02*
X80459580Y-100690680D01*
X79260700Y-98607880D02*
X79255620Y-100121720D01*
X76995020Y-99664520D02*
X78107540Y-100731320D01*
X76004420Y-101848920D02*
X77472540Y-101935280D01*
X80794860Y-103901240D02*
X80429100Y-103139240D01*
X81460340Y-103002080D02*
X80896460Y-102522020D01*
X81709260Y-102356920D02*
X81003140Y-102229920D01*
X81384140Y-101112320D02*
X80942180Y-101272340D01*
X81208880Y-100632260D02*
X80751680Y-100921820D01*
X80210660Y-99855020D02*
X80035400Y-100213160D01*
X79776320Y-99595940D02*
X79608680Y-100205540D01*
X78511400Y-99611180D02*
X78732380Y-100296980D01*
X77924660Y-99862640D02*
X78343760Y-100449380D01*
X77055980Y-100731320D02*
X77711300Y-101097080D01*
X76814680Y-101424740D02*
X77536040Y-101572060D01*
X77650340Y-102582980D02*
X77040740Y-102689660D01*
X77970380Y-103002080D02*
X77353160Y-103329740D01*
X78084680Y-103139240D02*
X76903580Y-104152700D01*
X78084680Y-103047800D02*
X77751940Y-103779320D01*
D10*
X122809000Y-107950000D02*
G75*
G02X122936000Y-108077000I0J-127000D01*
G01*
X122682000Y-108013500D02*
G75*
G02X122745500Y-107950000I63500J0D01*
G01*
X122743071Y-108206545D02*
G75*
G02X122682000Y-108140500I2429J63505D01*
G01*
X123126500Y-107823000D02*
G75*
G02X122745500Y-108204000I-381000J0D01*
G01*
X122937048Y-106427575D02*
G75*
G02X123126500Y-106743500I-168688J-315925D01*
G01*
X122934549Y-106426142D02*
G75*
G02X122618500Y-106108500I478971J792622D01*
G01*
X122743935Y-106935845D02*
G75*
G02X122047000Y-106489500I153965J1007685D01*
G01*
X122300068Y-107696674D02*
G75*
G02X122301000Y-108013500I-316568J-159346D01*
G01*
X122300967Y-108013600D02*
G75*
G02X122174000Y-108140500I-190467J63600D01*
G01*
X120972275Y-107252493D02*
G75*
G02X121412000Y-107378500I-825195J-3709947D01*
G01*
X121411915Y-107379965D02*
G75*
G02X121983500Y-108140500I-284395J-808795D01*
G01*
X121349708Y-106935166D02*
G75*
G02X122301000Y-107696000I-285688J-1332334D01*
G01*
X120837461Y-107189576D02*
G75*
G02X120015000Y-106743500I147819J1253796D01*
G01*
X119506301Y-106553474D02*
G75*
G02X120015000Y-106743500I64199J-604046D01*
G01*
X121030915Y-105602114D02*
G75*
G02X120815100Y-105664000I-182795J230214D01*
G01*
X121031721Y-105600678D02*
G75*
G02X122618500Y-106108500I466639J-1274902D01*
G01*
X122745500Y-107950000D02*
X122809000Y-107950000D01*
X122745500Y-107950000D02*
X122745500Y-106934000D01*
X122682000Y-108140500D02*
X122682000Y-108013500D01*
X123126500Y-106743500D02*
X123126500Y-107823000D01*
X122174000Y-108140500D02*
X122021600Y-108140500D01*
X119189500Y-106553000D02*
X119507000Y-106553000D01*
X120815100Y-105664000D02*
X119634000Y-105664000D01*
X123190000Y-105727500D02*
X117856000Y-109220000D01*
X119634000Y-105664000D02*
X121412000Y-102108000D01*
X119189500Y-106553000D02*
X119634000Y-105664000D01*
X117856000Y-109220000D02*
X119189500Y-106553000D01*
X124968000Y-109220000D02*
X117856000Y-109220000D01*
X121412000Y-102108000D02*
X124968000Y-109220000D01*
X136144000Y-113284000D02*
G75*
G02X136398000Y-113538000I0J-254000D01*
G01*
X133096000Y-113538000D02*
G75*
G02X133350000Y-113284000I254000J0D01*
G01*
X133350000Y-115316000D02*
G75*
G02X133096000Y-115062000I0J254000D01*
G01*
X136398000Y-115062000D02*
G75*
G02X136144000Y-115316000I-254000J0D01*
G01*
X133350000Y-115316000D02*
X136144000Y-115316000D01*
X133096000Y-113538000D02*
X133096000Y-115062000D01*
X136398000Y-113538000D02*
X136398000Y-115062000D01*
X136144000Y-113284000D02*
X133350000Y-113284000D01*
X105410000Y-98679000D02*
G75*
G02X105156000Y-98425000I0J254000D01*
G01*
X108458000Y-98425000D02*
G75*
G02X108204000Y-98679000I-254000J0D01*
G01*
X108204000Y-96647000D02*
G75*
G02X108458000Y-96901000I0J-254000D01*
G01*
X105156000Y-96901000D02*
G75*
G02X105410000Y-96647000I254000J0D01*
G01*
X108204000Y-96647000D02*
X105410000Y-96647000D01*
X108458000Y-98425000D02*
X108458000Y-96901000D01*
X105156000Y-98425000D02*
X105156000Y-96901000D01*
X105410000Y-98679000D02*
X108204000Y-98679000D01*
D24*
X96844747Y-133985000D02*
G75*
G03X96844747Y-133985000I-337447J0D01*
G01*
D27*
X96520000Y-133210300D02*
X96012000Y-132702300D01*
X94919800Y-132626100D02*
X94284800Y-133235700D01*
X94310200Y-135191500D02*
X94869000Y-135775700D01*
X92684600Y-135788400D02*
X93141800Y-135331200D01*
X91698800Y-135788400D02*
X92684600Y-135788400D01*
D24*
X91552324Y-135763000D02*
G75*
G03X91552324Y-135763000I-366324J0D01*
G01*
D27*
X91186000Y-133070600D02*
X91186000Y-134670800D01*
D24*
X91546818Y-132537200D02*
G75*
G03X91546818Y-132537200I-373518J0D01*
G01*
X90313759Y-135737600D02*
G75*
G03X90313759Y-135737600I-359659J0D01*
G01*
D27*
X89966800Y-135229600D02*
X89966800Y-132638800D01*
X89966800Y-132638800D02*
X89128600Y-132638800D01*
X89128600Y-132638800D02*
X88519000Y-133146800D01*
X88417400Y-133934200D02*
X88417400Y-133223000D01*
X88341200Y-133146800D02*
X87706200Y-132638800D01*
D24*
X88788318Y-134467600D02*
G75*
G03X88788318Y-134467600I-370918J0D01*
G01*
D27*
X87706200Y-132638800D02*
X86817200Y-132638800D01*
D24*
X87167729Y-135750300D02*
G75*
G03X87167729Y-135750300I-363229J0D01*
G01*
X81304666Y-135839200D02*
G75*
G03X81304666Y-135839200I-329466J0D01*
G01*
D27*
X81305400Y-135483600D02*
X82143600Y-134670800D01*
D28*
X82651600Y-134569200D02*
X82118200Y-134569200D01*
D27*
X83794600Y-135788400D02*
X82651600Y-134670800D01*
X85115400Y-135788400D02*
X83794600Y-135788400D01*
X85547200Y-135356600D02*
X85115400Y-135788400D01*
X85547200Y-133121400D02*
X85547200Y-135356600D01*
X85547200Y-133096000D02*
X85064600Y-132588000D01*
X85016500Y-132613400D02*
X83794600Y-132613400D01*
X83794600Y-132613400D02*
X82702400Y-133680200D01*
D28*
X82677000Y-133794500D02*
X82118200Y-133794500D01*
D27*
X81254600Y-132803900D02*
X82118200Y-133697600D01*
D24*
X81245735Y-132448300D02*
G75*
G03X81245735Y-132448300I-359435J0D01*
G01*
D27*
X84328000Y-134188200D02*
X85547200Y-134188200D01*
D24*
X84179659Y-134188200D02*
G75*
G03X84179659Y-134188200I-359659J0D01*
G01*
D27*
X95948500Y-135801100D02*
X94907100Y-135801100D01*
X96507300Y-135242300D02*
X96507300Y-134480300D01*
X96520000Y-135229600D02*
X95935800Y-135801100D01*
X96520000Y-133261100D02*
X96520000Y-133502400D01*
X94297500Y-133223000D02*
X94297500Y-135153400D01*
X94919800Y-132613400D02*
X95923100Y-132613400D01*
X86804500Y-132626100D02*
X86804500Y-135229600D01*
X93141800Y-135343900D02*
X93141800Y-132613400D01*
D29*
X93141800Y-132270500D02*
X93421200Y-132270500D01*
X93446600Y-132270500D02*
X93446600Y-135420100D01*
X93433900Y-132270500D02*
X93446600Y-132270500D01*
X93421200Y-132270500D02*
X93433900Y-132270500D01*
X93306900Y-132359400D02*
X93370400Y-132346700D01*
X92824300Y-132270500D02*
X92824300Y-135305800D01*
X93129100Y-132270500D02*
X92824300Y-132270500D01*
X93002100Y-132346700D02*
X92887800Y-132346700D01*
X91503500Y-132956300D02*
X91503500Y-134975600D01*
X90868500Y-134975600D02*
X90868500Y-132956300D01*
X90893900Y-134975600D02*
X90868500Y-134975600D01*
X91503500Y-134975600D02*
X90893900Y-134975600D01*
X91363800Y-134912100D02*
X91427300Y-134912100D01*
X91020900Y-134912100D02*
X90932000Y-134912100D01*
X90284300Y-135318500D02*
X90284300Y-132334000D01*
X89039700Y-132321300D02*
X88455500Y-132803900D01*
X90284300Y-132321300D02*
X89039700Y-132321300D01*
X90131900Y-132384800D02*
X90208100Y-132384800D01*
X86474300Y-135343900D02*
X86474300Y-132334000D01*
X87795100Y-132321300D02*
X88417400Y-132816600D01*
X87769700Y-132321300D02*
X87795100Y-132321300D01*
X86474300Y-132321300D02*
X87769700Y-132321300D01*
X86474300Y-132334000D02*
X86474300Y-132321300D01*
X86626700Y-132397500D02*
X86525100Y-132397500D01*
X83680300Y-132283200D02*
X82423000Y-133527800D01*
X83731100Y-132283200D02*
X83680300Y-132283200D01*
X85102700Y-132283200D02*
X83731100Y-132283200D01*
D10*
X118491000Y-113538000D02*
G75*
G02X118237000Y-113284000I0J254000D01*
G01*
X121793000Y-113284000D02*
G75*
G02X121539000Y-113538000I-254000J0D01*
G01*
X121539000Y-112014000D02*
G75*
G02X121793000Y-112268000I0J-254000D01*
G01*
X118237000Y-112268000D02*
G75*
G02X118491000Y-112014000I254000J0D01*
G01*
X121539000Y-112014000D02*
X118491000Y-112014000D01*
X121793000Y-113284000D02*
X121793000Y-112268000D01*
X118237000Y-113284000D02*
X118237000Y-112268000D01*
X118491000Y-113538000D02*
X121539000Y-113538000D01*
X88646000Y-128016000D02*
G75*
G02X88900000Y-128270000I0J-254000D01*
G01*
X85344000Y-128270000D02*
G75*
G02X85598000Y-128016000I254000J0D01*
G01*
X85598000Y-129540000D02*
G75*
G02X85344000Y-129286000I0J254000D01*
G01*
X88900000Y-129286000D02*
G75*
G02X88646000Y-129540000I-254000J0D01*
G01*
X85598000Y-129540000D02*
X88646000Y-129540000D01*
X85344000Y-128270000D02*
X85344000Y-129286000D01*
X88900000Y-128270000D02*
X88900000Y-129286000D01*
X88646000Y-128016000D02*
X85598000Y-128016000D01*
D30*
X108396193Y-107492800D02*
X108480860Y-107577466D01*
X108734860Y-107662133D01*
X108904193Y-107662133D01*
X109158193Y-107577466D01*
X109327526Y-107408133D01*
X109412193Y-107238800D01*
X109496860Y-106900133D01*
X109496860Y-106646133D01*
X109412193Y-106307466D01*
X109327526Y-106138133D01*
X109158193Y-105968800D01*
X108904193Y-105884133D01*
X108734860Y-105884133D01*
X108480860Y-105968800D01*
X108396193Y-106053466D01*
X107380193Y-107662133D02*
X107549526Y-107577466D01*
X107634193Y-107492800D01*
X107718860Y-107323466D01*
X107718860Y-106815466D01*
X107634193Y-106646133D01*
X107549526Y-106561466D01*
X107380193Y-106476800D01*
X107126193Y-106476800D01*
X106956860Y-106561466D01*
X106872193Y-106646133D01*
X106787526Y-106815466D01*
X106787526Y-107323466D01*
X106872193Y-107492800D01*
X106956860Y-107577466D01*
X107126193Y-107662133D01*
X107380193Y-107662133D01*
X106025526Y-107662133D02*
X106025526Y-106476800D01*
X106025526Y-106646133D02*
X105940860Y-106561466D01*
X105771526Y-106476800D01*
X105517526Y-106476800D01*
X105348193Y-106561466D01*
X105263526Y-106730800D01*
X105263526Y-107662133D01*
X105263526Y-106730800D02*
X105178860Y-106561466D01*
X105009526Y-106476800D01*
X104755526Y-106476800D01*
X104586193Y-106561466D01*
X104501526Y-106730800D01*
X104501526Y-107662133D01*
X103654860Y-106476800D02*
X103654860Y-108254800D01*
X103654860Y-106561466D02*
X103485526Y-106476800D01*
X103146860Y-106476800D01*
X102977526Y-106561466D01*
X102892860Y-106646133D01*
X102808193Y-106815466D01*
X102808193Y-107323466D01*
X102892860Y-107492800D01*
X102977526Y-107577466D01*
X103146860Y-107662133D01*
X103485526Y-107662133D01*
X103654860Y-107577466D01*
X101792193Y-107662133D02*
X101961526Y-107577466D01*
X102046193Y-107408133D01*
X102046193Y-105884133D01*
X101114860Y-107662133D02*
X101114860Y-106476800D01*
X101114860Y-105884133D02*
X101199526Y-105968800D01*
X101114860Y-106053466D01*
X101030193Y-105968800D01*
X101114860Y-105884133D01*
X101114860Y-106053466D01*
X99506193Y-107662133D02*
X99506193Y-106730800D01*
X99590860Y-106561466D01*
X99760193Y-106476800D01*
X100098860Y-106476800D01*
X100268193Y-106561466D01*
X99506193Y-107577466D02*
X99675526Y-107662133D01*
X100098860Y-107662133D01*
X100268193Y-107577466D01*
X100352860Y-107408133D01*
X100352860Y-107238800D01*
X100268193Y-107069466D01*
X100098860Y-106984800D01*
X99675526Y-106984800D01*
X99506193Y-106900133D01*
X98659526Y-106476800D02*
X98659526Y-107662133D01*
X98659526Y-106646133D02*
X98574860Y-106561466D01*
X98405526Y-106476800D01*
X98151526Y-106476800D01*
X97982193Y-106561466D01*
X97897526Y-106730800D01*
X97897526Y-107662133D01*
X97304860Y-106476800D02*
X96627526Y-106476800D01*
X97050860Y-105884133D02*
X97050860Y-107408133D01*
X96966193Y-107577466D01*
X96796860Y-107662133D01*
X96627526Y-107662133D01*
D28*
X107817634Y-104557081D02*
X108484300Y-103604700D01*
X108960491Y-104557081D02*
X108960491Y-102557081D01*
X108198586Y-102557081D01*
X108008110Y-102652320D01*
X107912872Y-102747558D01*
X107817634Y-102938034D01*
X107817634Y-103223748D01*
X107912872Y-103414224D01*
X108008110Y-103509462D01*
X108198586Y-103604700D01*
X108960491Y-103604700D01*
X106674777Y-104557081D02*
X106865253Y-104461843D01*
X106960491Y-104366605D01*
X107055729Y-104176129D01*
X107055729Y-103604700D01*
X106960491Y-103414224D01*
X106865253Y-103318986D01*
X106674777Y-103223748D01*
X106389062Y-103223748D01*
X106198586Y-103318986D01*
X106103348Y-103414224D01*
X106008110Y-103604700D01*
X106008110Y-104176129D01*
X106103348Y-104366605D01*
X106198586Y-104461843D01*
X106389062Y-104557081D01*
X106674777Y-104557081D01*
X105150967Y-104557081D02*
X105150967Y-102557081D01*
X105150967Y-103509462D02*
X104008110Y-103509462D01*
X104008110Y-104557081D02*
X104008110Y-102557081D01*
X103150967Y-104461843D02*
X102865253Y-104557081D01*
X102389062Y-104557081D01*
X102198586Y-104461843D01*
X102103348Y-104366605D01*
X102008110Y-104176129D01*
X102008110Y-103985653D01*
X102103348Y-103795177D01*
X102198586Y-103699939D01*
X102389062Y-103604700D01*
X102770015Y-103509462D01*
X102960491Y-103414224D01*
X103055729Y-103318986D01*
X103150967Y-103128510D01*
X103150967Y-102938034D01*
X103055729Y-102747558D01*
X102960491Y-102652320D01*
X102770015Y-102557081D01*
X102293824Y-102557081D01*
X102008110Y-102652320D01*
D10*
X125572068Y-121373327D02*
X125572068Y-119673327D01*
X125000640Y-119673327D01*
X124857782Y-119754280D01*
X124786354Y-119835232D01*
X124714925Y-119997137D01*
X124714925Y-120239994D01*
X124786354Y-120401899D01*
X124857782Y-120482851D01*
X125000640Y-120563803D01*
X125572068Y-120563803D01*
X124072068Y-121373327D02*
X124072068Y-119673327D01*
X124072068Y-120320946D02*
X123929211Y-120239994D01*
X123643497Y-120239994D01*
X123500640Y-120320946D01*
X123429211Y-120401899D01*
X123357782Y-120563803D01*
X123357782Y-121049518D01*
X123429211Y-121211422D01*
X123500640Y-121292375D01*
X123643497Y-121373327D01*
X123929211Y-121373327D01*
X124072068Y-121292375D01*
X84194298Y-106654379D02*
X84299060Y-106601998D01*
X84351440Y-106549617D01*
X84403821Y-106444855D01*
X84403821Y-106130569D01*
X84351440Y-106025807D01*
X84299060Y-105973426D01*
X84194298Y-105921045D01*
X84037155Y-105921045D01*
X83932393Y-105973426D01*
X83880012Y-106025807D01*
X83827631Y-106130569D01*
X83827631Y-106444855D01*
X83880012Y-106549617D01*
X83932393Y-106601998D01*
X84037155Y-106654379D01*
X84194298Y-106654379D01*
X83356202Y-105921045D02*
X83356202Y-107021045D01*
X83356202Y-105973426D02*
X83251440Y-105921045D01*
X83041917Y-105921045D01*
X82937155Y-105973426D01*
X82884774Y-106025807D01*
X82832393Y-106130569D01*
X82832393Y-106444855D01*
X82884774Y-106549617D01*
X82937155Y-106601998D01*
X83041917Y-106654379D01*
X83251440Y-106654379D01*
X83356202Y-106601998D01*
X81941917Y-106601998D02*
X82046679Y-106654379D01*
X82256202Y-106654379D01*
X82360964Y-106601998D01*
X82413345Y-106497236D01*
X82413345Y-106078188D01*
X82360964Y-105973426D01*
X82256202Y-105921045D01*
X82046679Y-105921045D01*
X81941917Y-105973426D01*
X81889536Y-106078188D01*
X81889536Y-106182950D01*
X82413345Y-106287712D01*
X81418107Y-105921045D02*
X81418107Y-106654379D01*
X81418107Y-106025807D02*
X81365726Y-105973426D01*
X81260964Y-105921045D01*
X81103821Y-105921045D01*
X80999060Y-105973426D01*
X80946679Y-106078188D01*
X80946679Y-106654379D01*
D31*
X79878797Y-106700580D02*
X79878797Y-105700580D01*
X79450225Y-106700580D02*
X79450225Y-106176771D01*
X79497844Y-106081533D01*
X79593082Y-106033914D01*
X79735940Y-106033914D01*
X79831178Y-106081533D01*
X79878797Y-106129152D01*
X78545463Y-106700580D02*
X78545463Y-106176771D01*
X78593082Y-106081533D01*
X78688320Y-106033914D01*
X78878797Y-106033914D01*
X78974035Y-106081533D01*
X78545463Y-106652961D02*
X78640701Y-106700580D01*
X78878797Y-106700580D01*
X78974035Y-106652961D01*
X79021654Y-106557723D01*
X79021654Y-106462485D01*
X78974035Y-106367247D01*
X78878797Y-106319628D01*
X78640701Y-106319628D01*
X78545463Y-106272009D01*
X78069273Y-106700580D02*
X78069273Y-106033914D01*
X78069273Y-106224390D02*
X78021654Y-106129152D01*
X77974035Y-106081533D01*
X77878797Y-106033914D01*
X77783559Y-106033914D01*
X77021654Y-106700580D02*
X77021654Y-105700580D01*
X77021654Y-106652961D02*
X77116892Y-106700580D01*
X77307368Y-106700580D01*
X77402606Y-106652961D01*
X77450225Y-106605342D01*
X77497844Y-106510104D01*
X77497844Y-106224390D01*
X77450225Y-106129152D01*
X77402606Y-106081533D01*
X77307368Y-106033914D01*
X77116892Y-106033914D01*
X77021654Y-106081533D01*
X76640701Y-106033914D02*
X76450225Y-106700580D01*
X76259749Y-106224390D01*
X76069273Y-106700580D01*
X75878797Y-106033914D01*
X75069273Y-106700580D02*
X75069273Y-106176771D01*
X75116892Y-106081533D01*
X75212130Y-106033914D01*
X75402606Y-106033914D01*
X75497844Y-106081533D01*
X75069273Y-106652961D02*
X75164511Y-106700580D01*
X75402606Y-106700580D01*
X75497844Y-106652961D01*
X75545463Y-106557723D01*
X75545463Y-106462485D01*
X75497844Y-106367247D01*
X75402606Y-106319628D01*
X75164511Y-106319628D01*
X75069273Y-106272009D01*
X74593082Y-106700580D02*
X74593082Y-106033914D01*
X74593082Y-106224390D02*
X74545463Y-106129152D01*
X74497844Y-106081533D01*
X74402606Y-106033914D01*
X74307368Y-106033914D01*
X73593082Y-106652961D02*
X73688320Y-106700580D01*
X73878797Y-106700580D01*
X73974035Y-106652961D01*
X74021654Y-106557723D01*
X74021654Y-106176771D01*
X73974035Y-106081533D01*
X73878797Y-106033914D01*
X73688320Y-106033914D01*
X73593082Y-106081533D01*
X73545463Y-106176771D01*
X73545463Y-106272009D01*
X74021654Y-106367247D01*
D10*
X136658047Y-112503857D02*
X136706428Y-112552238D01*
X136851571Y-112600619D01*
X136948333Y-112600619D01*
X137093476Y-112552238D01*
X137190238Y-112455476D01*
X137238619Y-112358714D01*
X137287000Y-112165190D01*
X137287000Y-112020047D01*
X137238619Y-111826523D01*
X137190238Y-111729761D01*
X137093476Y-111633000D01*
X136948333Y-111584619D01*
X136851571Y-111584619D01*
X136706428Y-111633000D01*
X136658047Y-111681380D01*
X136271000Y-112310333D02*
X135787190Y-112310333D01*
X136367761Y-112600619D02*
X136029095Y-111584619D01*
X135690428Y-112600619D01*
X135351761Y-112600619D02*
X135351761Y-111584619D01*
X134771190Y-112600619D01*
X134771190Y-111584619D01*
X134529285Y-112697380D02*
X133755190Y-112697380D01*
X133658428Y-111584619D02*
X133077857Y-111584619D01*
X133368142Y-112600619D02*
X133368142Y-111584619D01*
X132207000Y-112600619D02*
X132787571Y-112600619D01*
X132497285Y-112600619D02*
X132497285Y-111584619D01*
X132594047Y-111729761D01*
X132690809Y-111826523D01*
X132787571Y-111874904D01*
X143624904Y-132842000D02*
X143721666Y-132793619D01*
X143866809Y-132793619D01*
X144011952Y-132842000D01*
X144108714Y-132938761D01*
X144157095Y-133035523D01*
X144205476Y-133229047D01*
X144205476Y-133374190D01*
X144157095Y-133567714D01*
X144108714Y-133664476D01*
X144011952Y-133761238D01*
X143866809Y-133809619D01*
X143770047Y-133809619D01*
X143624904Y-133761238D01*
X143576523Y-133712857D01*
X143576523Y-133374190D01*
X143770047Y-133374190D01*
X143141095Y-133809619D02*
X143141095Y-132793619D01*
X142560523Y-133809619D01*
X142560523Y-132793619D01*
X142076714Y-133809619D02*
X142076714Y-132793619D01*
X141834809Y-132793619D01*
X141689666Y-132842000D01*
X141592904Y-132938761D01*
X141544523Y-133035523D01*
X141496142Y-133229047D01*
X141496142Y-133374190D01*
X141544523Y-133567714D01*
X141592904Y-133664476D01*
X141689666Y-133761238D01*
X141834809Y-133809619D01*
X142076714Y-133809619D01*
X140528523Y-133809619D02*
X141109095Y-133809619D01*
X140818809Y-133809619D02*
X140818809Y-132793619D01*
X140915571Y-132938761D01*
X141012333Y-133035523D01*
X141109095Y-133083904D01*
X109401428Y-96090619D02*
X109401428Y-95074619D01*
X109014380Y-95074619D01*
X108917619Y-95123000D01*
X108869238Y-95171380D01*
X108820857Y-95268142D01*
X108820857Y-95413285D01*
X108869238Y-95510047D01*
X108917619Y-95558428D01*
X109014380Y-95606809D01*
X109401428Y-95606809D01*
X108385428Y-96090619D02*
X108385428Y-95074619D01*
X108385428Y-95558428D02*
X107804857Y-95558428D01*
X107804857Y-96090619D02*
X107804857Y-95074619D01*
X107127523Y-95606809D02*
X107127523Y-96090619D01*
X107466190Y-95074619D02*
X107127523Y-95606809D01*
X106788857Y-95074619D01*
X106692095Y-96187380D02*
X105918000Y-96187380D01*
X105095523Y-96090619D02*
X105434190Y-95606809D01*
X105676095Y-96090619D02*
X105676095Y-95074619D01*
X105289047Y-95074619D01*
X105192285Y-95123000D01*
X105143904Y-95171380D01*
X105095523Y-95268142D01*
X105095523Y-95413285D01*
X105143904Y-95510047D01*
X105192285Y-95558428D01*
X105289047Y-95606809D01*
X105676095Y-95606809D01*
X104708476Y-96042238D02*
X104563333Y-96090619D01*
X104321428Y-96090619D01*
X104224666Y-96042238D01*
X104176285Y-95993857D01*
X104127904Y-95897095D01*
X104127904Y-95800333D01*
X104176285Y-95703571D01*
X104224666Y-95655190D01*
X104321428Y-95606809D01*
X104514952Y-95558428D01*
X104611714Y-95510047D01*
X104660095Y-95461666D01*
X104708476Y-95364904D01*
X104708476Y-95268142D01*
X104660095Y-95171380D01*
X104611714Y-95123000D01*
X104514952Y-95074619D01*
X104273047Y-95074619D01*
X104127904Y-95123000D01*
X103837619Y-95074619D02*
X103257047Y-95074619D01*
X103547333Y-96090619D02*
X103547333Y-95074619D01*
X102386190Y-96090619D02*
X102966761Y-96090619D01*
X102676476Y-96090619D02*
X102676476Y-95074619D01*
X102773238Y-95219761D01*
X102870000Y-95316523D01*
X102966761Y-95364904D01*
D18*
X123284809Y-110323380D02*
X123761000Y-110323380D01*
X123808619Y-110799571D01*
X123761000Y-110751952D01*
X123665761Y-110704333D01*
X123427666Y-110704333D01*
X123332428Y-110751952D01*
X123284809Y-110799571D01*
X123237190Y-110894809D01*
X123237190Y-111132904D01*
X123284809Y-111228142D01*
X123332428Y-111275761D01*
X123427666Y-111323380D01*
X123665761Y-111323380D01*
X123761000Y-111275761D01*
X123808619Y-111228142D01*
X122808619Y-111228142D02*
X122761000Y-111275761D01*
X122808619Y-111323380D01*
X122856238Y-111275761D01*
X122808619Y-111228142D01*
X122808619Y-111323380D01*
X122141952Y-110323380D02*
X122046714Y-110323380D01*
X121951476Y-110371000D01*
X121903857Y-110418619D01*
X121856238Y-110513857D01*
X121808619Y-110704333D01*
X121808619Y-110942428D01*
X121856238Y-111132904D01*
X121903857Y-111228142D01*
X121951476Y-111275761D01*
X122046714Y-111323380D01*
X122141952Y-111323380D01*
X122237190Y-111275761D01*
X122284809Y-111228142D01*
X122332428Y-111132904D01*
X122380047Y-110942428D01*
X122380047Y-110704333D01*
X122332428Y-110513857D01*
X122284809Y-110418619D01*
X122237190Y-110371000D01*
X122141952Y-110323380D01*
X121522904Y-110323380D02*
X121189571Y-111323380D01*
X120856238Y-110323380D01*
X119808619Y-110275761D02*
X120665761Y-111561476D01*
X119570523Y-110323380D02*
X118951476Y-110323380D01*
X119284809Y-110704333D01*
X119141952Y-110704333D01*
X119046714Y-110751952D01*
X118999095Y-110799571D01*
X118951476Y-110894809D01*
X118951476Y-111132904D01*
X118999095Y-111228142D01*
X119046714Y-111275761D01*
X119141952Y-111323380D01*
X119427666Y-111323380D01*
X119522904Y-111275761D01*
X119570523Y-111228142D01*
X118522904Y-111228142D02*
X118475285Y-111275761D01*
X118522904Y-111323380D01*
X118570523Y-111275761D01*
X118522904Y-111228142D01*
X118522904Y-111323380D01*
X118141952Y-110323380D02*
X117522904Y-110323380D01*
X117856238Y-110704333D01*
X117713380Y-110704333D01*
X117618142Y-110751952D01*
X117570523Y-110799571D01*
X117522904Y-110894809D01*
X117522904Y-111132904D01*
X117570523Y-111228142D01*
X117618142Y-111275761D01*
X117713380Y-111323380D01*
X117999095Y-111323380D01*
X118094333Y-111275761D01*
X118141952Y-111228142D01*
X117237190Y-110323380D02*
X116903857Y-111323380D01*
X116570523Y-110323380D01*
X115713380Y-111323380D02*
X116284809Y-111323380D01*
X115999095Y-111323380D02*
X115999095Y-110323380D01*
X116094333Y-110466238D01*
X116189571Y-110561476D01*
X116284809Y-110609095D01*
X89883857Y-130535371D02*
X89741000Y-130582990D01*
X89693380Y-130630609D01*
X89645761Y-130725847D01*
X89645761Y-130868704D01*
X89693380Y-130963942D01*
X89741000Y-131011561D01*
X89836238Y-131059180D01*
X90217190Y-131059180D01*
X90217190Y-130059180D01*
X89883857Y-130059180D01*
X89788619Y-130106800D01*
X89741000Y-130154419D01*
X89693380Y-130249657D01*
X89693380Y-130344895D01*
X89741000Y-130440133D01*
X89788619Y-130487752D01*
X89883857Y-130535371D01*
X90217190Y-130535371D01*
X89264809Y-130773466D02*
X88788619Y-130773466D01*
X89360047Y-131059180D02*
X89026714Y-130059180D01*
X88693380Y-131059180D01*
X88502904Y-130059180D02*
X87931476Y-130059180D01*
X88217190Y-131059180D02*
X88217190Y-130059180D01*
X86883857Y-130011561D02*
X87741000Y-131297276D01*
X86217190Y-130535371D02*
X86074333Y-130582990D01*
X86026714Y-130630609D01*
X85979095Y-130725847D01*
X85979095Y-130868704D01*
X86026714Y-130963942D01*
X86074333Y-131011561D01*
X86169571Y-131059180D01*
X86550523Y-131059180D01*
X86550523Y-130059180D01*
X86217190Y-130059180D01*
X86121952Y-130106800D01*
X86074333Y-130154419D01*
X86026714Y-130249657D01*
X86026714Y-130344895D01*
X86074333Y-130440133D01*
X86121952Y-130487752D01*
X86217190Y-130535371D01*
X86550523Y-130535371D01*
X85550523Y-130059180D02*
X85550523Y-130868704D01*
X85502904Y-130963942D01*
X85455285Y-131011561D01*
X85360047Y-131059180D01*
X85169571Y-131059180D01*
X85074333Y-131011561D01*
X85026714Y-130963942D01*
X84979095Y-130868704D01*
X84979095Y-130059180D01*
X84645761Y-130059180D02*
X84074333Y-130059180D01*
X84360047Y-131059180D02*
X84360047Y-130059180D01*
X83217190Y-131059180D02*
X83788619Y-131059180D01*
X83502904Y-131059180D02*
X83502904Y-130059180D01*
X83598142Y-130202038D01*
X83693380Y-130297276D01*
X83788619Y-130344895D01*
M02*
