G04 #@! TF.GenerationSoftware,KiCad,Pcbnew,no-vcs-found-ddec803~58~ubuntu14.04.1*
G04 #@! TF.CreationDate,2017-06-01T11:20:01+03:00*
G04 #@! TF.ProjectId,ESP32-EVB_Rev_C,45535033322D4556425F5265765F432E,C*
G04 #@! TF.FileFunction,Copper,L2,Bot,Mixed*
G04 #@! TF.FilePolarity,Positive*
%FSLAX46Y46*%
G04 Gerber Fmt 4.6, Leading zero omitted, Abs format (unit mm)*
G04 Created by KiCad (PCBNEW no-vcs-found-ddec803~58~ubuntu14.04.1) date Thu Jun  1 11:20:01 2017*
%MOMM*%
%LPD*%
G01*
G04 APERTURE LIST*
%ADD10C,0.100000*%
%ADD11C,0.508000*%
%ADD12O,1.200000X1.800000*%
%ADD13C,3.000000*%
%ADD14C,1.524000*%
%ADD15R,1.524000X1.524000*%
%ADD16R,0.400000X0.400000*%
%ADD17R,1.422400X1.422400*%
%ADD18C,1.300000*%
%ADD19C,2.000000*%
%ADD20C,2.540000*%
%ADD21C,1.700000*%
%ADD22R,1.700000X1.700000*%
%ADD23C,3.200000*%
%ADD24C,1.650000*%
%ADD25C,2.700000*%
%ADD26C,1.410000*%
%ADD27R,1.600200X1.168400*%
%ADD28R,0.406400X0.508000*%
%ADD29R,1.168400X1.600200*%
%ADD30R,1.400000X1.400000*%
%ADD31C,1.400000*%
%ADD32C,3.048000*%
%ADD33R,3.048000X3.048000*%
%ADD34C,1.000000*%
%ADD35O,1.500000X4.500000*%
%ADD36O,4.500000X1.500000*%
%ADD37C,6.300000*%
%ADD38C,1.200000*%
%ADD39C,1.778000*%
%ADD40R,1.778000X1.778000*%
%ADD41R,0.762000X1.016000*%
%ADD42C,0.900000*%
%ADD43C,0.450000*%
%ADD44C,0.750000*%
%ADD45C,0.762000*%
%ADD46C,1.778000*%
%ADD47C,1.016000*%
%ADD48C,1.524000*%
%ADD49C,0.406400*%
%ADD50C,0.254000*%
%ADD51C,0.203200*%
G04 APERTURE END LIST*
D10*
D11*
X121158000Y-112776000D02*
X120015000Y-112776000D01*
D12*
X136600000Y-138553000D03*
X136600000Y-135083000D03*
X129400000Y-135083000D03*
X129400000Y-138553000D03*
D13*
X79909000Y-126840000D03*
X78309000Y-119540000D03*
D14*
X72009000Y-125730000D03*
X72009000Y-123190000D03*
X72009000Y-120650000D03*
D15*
X78359000Y-130810000D03*
D14*
X78359000Y-133350000D03*
D16*
X101249000Y-97544000D03*
X101249000Y-98544000D03*
X100449000Y-99344000D03*
X99449000Y-99344000D03*
X98649000Y-98544000D03*
X98649000Y-97544000D03*
X99449000Y-96744000D03*
X100449000Y-96744000D03*
D17*
X99949000Y-98044000D03*
D18*
X77969600Y-84682800D03*
D19*
X80281000Y-82346000D03*
D18*
X82643200Y-84682800D03*
X77969600Y-79983800D03*
X82643200Y-79983800D03*
X80281000Y-79983800D03*
X80281000Y-84682800D03*
X77969600Y-82219000D03*
X82643200Y-82219000D03*
D20*
X140000000Y-114315000D03*
X140000000Y-107315000D03*
X140000000Y-110815000D03*
D21*
X106426000Y-127762000D03*
X106426000Y-130302000D03*
X103886000Y-127762000D03*
X103886000Y-130302000D03*
X101346000Y-127762000D03*
X101346000Y-130302000D03*
X98806000Y-127762000D03*
X98806000Y-130302000D03*
X96266000Y-127762000D03*
D22*
X96266000Y-130302000D03*
D20*
X117176000Y-75184000D03*
X131176000Y-81184000D03*
X131176000Y-69184000D03*
X119176000Y-69184000D03*
X119176000Y-81184000D03*
X117176000Y-92456000D03*
X131176000Y-98456000D03*
X131176000Y-86456000D03*
X119176000Y-86456000D03*
X119176000Y-98456000D03*
D23*
X95885000Y-78359000D03*
X107315000Y-78359000D03*
D24*
X105670000Y-73610500D03*
X94990000Y-73610500D03*
D25*
X93800000Y-81409000D03*
X109400000Y-81409000D03*
D24*
X108210000Y-73610500D03*
X97530000Y-73610500D03*
D26*
X97165000Y-87599000D03*
X98435000Y-85059000D03*
X99705000Y-87599000D03*
X100975000Y-85059000D03*
X102245000Y-87599000D03*
X103515000Y-85059000D03*
X104785000Y-87599000D03*
X106055000Y-85059000D03*
D27*
X127254000Y-135509000D03*
X127254000Y-135509000D03*
X127254000Y-133985000D03*
D28*
X127254000Y-134747000D03*
D29*
X107569000Y-97663000D03*
X107569000Y-97663000D03*
X106045000Y-97663000D03*
D30*
X138046460Y-132326380D03*
D31*
X138043920Y-130314700D03*
D32*
X140500000Y-91774000D03*
D33*
X140500000Y-101774000D03*
D32*
X140500000Y-96774000D03*
X140500000Y-81774000D03*
D33*
X140500000Y-86774000D03*
D32*
X140500000Y-76774000D03*
D34*
X143002000Y-131826000D03*
D35*
X130937000Y-122319000D03*
X137437000Y-122319000D03*
D36*
X134237000Y-117869000D03*
D32*
X140208000Y-119895000D03*
D33*
X140208000Y-124895000D03*
D34*
X143002000Y-129286000D03*
D37*
X140970000Y-137922000D03*
D38*
X140970000Y-135509000D03*
X140970000Y-140335000D03*
X139319000Y-136271000D03*
X142621000Y-136271000D03*
X139319000Y-139700000D03*
X142621000Y-139573000D03*
X143383000Y-137922000D03*
X138557000Y-137922000D03*
X70993000Y-137922000D03*
X75819000Y-137922000D03*
X75057000Y-139573000D03*
X71755000Y-139700000D03*
X75057000Y-136271000D03*
X71755000Y-136271000D03*
X73406000Y-140335000D03*
X73406000Y-135509000D03*
D37*
X73406000Y-137922000D03*
D39*
X126746000Y-137668000D03*
X126746000Y-140208000D03*
X124206000Y-137668000D03*
X124206000Y-140208000D03*
X121666000Y-137668000D03*
X121666000Y-140208000D03*
X119126000Y-137668000D03*
X119126000Y-140208000D03*
X116586000Y-137668000D03*
X116586000Y-140208000D03*
X106426000Y-137668000D03*
X106426000Y-140208000D03*
X103886000Y-137668000D03*
X103886000Y-140208000D03*
X108966000Y-140208000D03*
X108966000Y-137668000D03*
X111506000Y-137668000D03*
X111506000Y-140208000D03*
X114046000Y-140208000D03*
X114046000Y-137668000D03*
X88646000Y-137668000D03*
X88646000Y-140208000D03*
X86106000Y-140208000D03*
X86106000Y-137668000D03*
X83566000Y-137668000D03*
X83566000Y-140208000D03*
D40*
X78486000Y-140208000D03*
D39*
X78486000Y-137668000D03*
X81026000Y-140208000D03*
X81026000Y-137668000D03*
X91186000Y-140208000D03*
X91186000Y-137668000D03*
X93726000Y-140208000D03*
X93726000Y-137668000D03*
X96266000Y-140208000D03*
X96266000Y-137668000D03*
X98806000Y-140208000D03*
X98806000Y-137668000D03*
X101346000Y-140208000D03*
X101346000Y-137668000D03*
D41*
X121158000Y-112776000D03*
X120015000Y-112776000D03*
X118872000Y-112776000D03*
D29*
X133985000Y-114300000D03*
X133985000Y-114300000D03*
X135509000Y-114300000D03*
D42*
X118872000Y-134112000D03*
X124460000Y-134366000D03*
X124460000Y-135382000D03*
X128524000Y-121412000D03*
X127508000Y-121412000D03*
D43*
X113538000Y-71374000D03*
D42*
X112141000Y-95758000D03*
X113030000Y-78232000D03*
D43*
X128143000Y-136525000D03*
X79756000Y-132080000D03*
X72644000Y-118745000D03*
X72390000Y-99568000D03*
X71755000Y-101854000D03*
X71755000Y-117856000D03*
D42*
X135001000Y-133985000D03*
X125476000Y-132715000D03*
X126365000Y-132715000D03*
X73914000Y-94361000D03*
X73914000Y-95631000D03*
X73914000Y-101219000D03*
X75819000Y-124460000D03*
X127508000Y-109728000D03*
D43*
X104902000Y-129032000D03*
D42*
X128524000Y-103251000D03*
X131572000Y-107061000D03*
X135382000Y-107061000D03*
X133985000Y-108458000D03*
X124333000Y-106680000D03*
X124333000Y-103251000D03*
X122809000Y-105029000D03*
X126111000Y-101346000D03*
X91059000Y-69469000D03*
X91059000Y-68199000D03*
X85979000Y-76073000D03*
X83185000Y-76073000D03*
X80391000Y-76073000D03*
X77089000Y-76073000D03*
X75819000Y-83693000D03*
X75565000Y-81280000D03*
X75565000Y-78105000D03*
X75565000Y-74295000D03*
X78740000Y-74295000D03*
X78740000Y-78105000D03*
X81915000Y-78105000D03*
X81915000Y-74295000D03*
X84455000Y-74295000D03*
X84455000Y-78105000D03*
X90551000Y-124079000D03*
X103632000Y-121158000D03*
X101092000Y-121158000D03*
X102362000Y-119761000D03*
X101092000Y-118491000D03*
X101092000Y-116967000D03*
X99949000Y-114173000D03*
X97536000Y-114173000D03*
X106172000Y-114173000D03*
X107950000Y-114173000D03*
X102743000Y-112649000D03*
X97917000Y-110871000D03*
X100457000Y-110871000D03*
X105537000Y-110744000D03*
X107569000Y-110744000D03*
X101219000Y-115443000D03*
X121666000Y-130937000D03*
X121666000Y-131953000D03*
X121666000Y-132969000D03*
X104902000Y-115443000D03*
X73914000Y-108204000D03*
D43*
X86868000Y-96774000D03*
X89662000Y-98425000D03*
D42*
X85471000Y-99949000D03*
X74168000Y-115570000D03*
X73914000Y-102108000D03*
X77978000Y-123063000D03*
X76200000Y-123444000D03*
X86360000Y-108458000D03*
X92583000Y-110998000D03*
X92583000Y-112014000D03*
X92583000Y-113030000D03*
X90170000Y-109982000D03*
X90170000Y-111125000D03*
X74168000Y-120142000D03*
X74168000Y-119126000D03*
X75184000Y-115570000D03*
X82804000Y-107442000D03*
D43*
X79121000Y-89662000D03*
X78613000Y-89662000D03*
X78105000Y-89662000D03*
D42*
X82804000Y-108458000D03*
X73914000Y-104394000D03*
X75184000Y-90805000D03*
X74168000Y-90805000D03*
X103124000Y-101981000D03*
X103124000Y-101092000D03*
X120396000Y-126111000D03*
X133477000Y-131191000D03*
X133477000Y-130175000D03*
X130175000Y-127381000D03*
X118237000Y-114427000D03*
X117094000Y-114427000D03*
X115951000Y-114427000D03*
X126111000Y-105029000D03*
X117475000Y-109601000D03*
X122809000Y-101346000D03*
X117475000Y-105156000D03*
X118491000Y-105156000D03*
X119507000Y-105156000D03*
X119507000Y-106172000D03*
X118491000Y-106172000D03*
X117475000Y-106172000D03*
X112014000Y-103124000D03*
X112014000Y-102108000D03*
X112014000Y-104140000D03*
X110998000Y-103124000D03*
X110998000Y-104140000D03*
X106426000Y-95123000D03*
X111506000Y-85852000D03*
D43*
X111379000Y-88138000D03*
D42*
X91567000Y-104775000D03*
D43*
X89662000Y-97917000D03*
D42*
X91694000Y-74676000D03*
X92710000Y-74676000D03*
X91567000Y-88138000D03*
X92456000Y-88138000D03*
D43*
X105918000Y-102235000D03*
X105918000Y-101727000D03*
X105918000Y-101219000D03*
D42*
X94234000Y-91821000D03*
X110236000Y-91186000D03*
X106426000Y-94107000D03*
D43*
X102362000Y-95504000D03*
X102997000Y-95758000D03*
D42*
X98806000Y-104648000D03*
X102362000Y-122428000D03*
X110998000Y-102108000D03*
X117856000Y-117475000D03*
X116840000Y-117602000D03*
X118364000Y-125095000D03*
X119380000Y-125095000D03*
X120396000Y-125095000D03*
X112141000Y-119253000D03*
X112141000Y-117221000D03*
X103632000Y-118491000D03*
X103632000Y-111125000D03*
X97409000Y-123444000D03*
X76200000Y-115570000D03*
X93980000Y-120015000D03*
X74168000Y-118110000D03*
X90170000Y-112141000D03*
D43*
X86233000Y-94615000D03*
D42*
X123825000Y-109728000D03*
X73914000Y-109474000D03*
X86995000Y-74549000D03*
X72517000Y-74549000D03*
X73533000Y-126873000D03*
X121539000Y-118872000D03*
X119507000Y-118872000D03*
X120523000Y-118872000D03*
D43*
X93726000Y-135763000D03*
X72517000Y-81026000D03*
X72136000Y-98806000D03*
X80264000Y-97282000D03*
X105537000Y-126365000D03*
D42*
X91948000Y-124968000D03*
D43*
X99568000Y-133985000D03*
D42*
X88773000Y-117983000D03*
X84201000Y-103378000D03*
X95631000Y-123952000D03*
X88773000Y-106553000D03*
X88773000Y-107569000D03*
X113030000Y-105537000D03*
X114046000Y-106553000D03*
X114046000Y-124333000D03*
X113030000Y-124333000D03*
X113030000Y-106553000D03*
X88773000Y-113538000D03*
D43*
X84074000Y-97028000D03*
D42*
X76200000Y-88646000D03*
D43*
X106426000Y-89281000D03*
X105791000Y-98806000D03*
X78867000Y-124333000D03*
X77216000Y-91186000D03*
X100584000Y-133985000D03*
X112649000Y-109855000D03*
X70993000Y-104140000D03*
X70993000Y-116840000D03*
X72517000Y-77216000D03*
X108331000Y-136017000D03*
X97917000Y-101854000D03*
X100457000Y-102235000D03*
X74295000Y-86360000D03*
X85725000Y-87122000D03*
X110363000Y-131826000D03*
X107442000Y-131953000D03*
X103505000Y-97155000D03*
X74295000Y-87122000D03*
X96520000Y-102235000D03*
X112903000Y-101473000D03*
X111633000Y-108204000D03*
X93091000Y-108331000D03*
X73406000Y-84836000D03*
X112522000Y-108077000D03*
X92583000Y-107950000D03*
X73025000Y-83566000D03*
X77470000Y-94361000D03*
X77343000Y-96139000D03*
X76327000Y-95123000D03*
X76835000Y-95631000D03*
X76454000Y-91059000D03*
X77089000Y-124587000D03*
X78359000Y-94361000D03*
X79121000Y-94361000D03*
X116713000Y-129667000D03*
X129286000Y-132080000D03*
X129286000Y-131445000D03*
X116459000Y-128651000D03*
X141351000Y-129286000D03*
X118745000Y-129794000D03*
X128016000Y-132715000D03*
D44*
X95250000Y-90678000D03*
D42*
X103505000Y-90805000D03*
D43*
X99314000Y-90805000D03*
D42*
X109474000Y-98298000D03*
D43*
X110617000Y-136017000D03*
X105156000Y-96520000D03*
X84328000Y-85852000D03*
X110744000Y-132461000D03*
X107950000Y-132461000D03*
X104521000Y-95885000D03*
X85725000Y-86360000D03*
X94488000Y-90297000D03*
X93853000Y-90297000D03*
D42*
X103505000Y-68580000D03*
X106680000Y-68580000D03*
X99695000Y-68580000D03*
X96520000Y-68580000D03*
X97790000Y-70485000D03*
X95250000Y-70485000D03*
X105410000Y-70485000D03*
X107950000Y-70485000D03*
X103505000Y-72390000D03*
X99695000Y-72390000D03*
X97155000Y-75565000D03*
X99695000Y-76200000D03*
X103505000Y-76200000D03*
X106045000Y-75565000D03*
X101600000Y-78105000D03*
X101600000Y-74295000D03*
X101600000Y-70485000D03*
X99695000Y-80010000D03*
X103505000Y-80010000D03*
X105410000Y-81915000D03*
X97790000Y-81915000D03*
X101600000Y-81915000D03*
X132715000Y-114173000D03*
D43*
X73025000Y-132080000D03*
X72517000Y-78486000D03*
X74422000Y-133096000D03*
X72517000Y-79629000D03*
X84328000Y-86614000D03*
X110109000Y-133096000D03*
X108204000Y-133096000D03*
X103378000Y-99695000D03*
X100965000Y-101473000D03*
X73787000Y-87630000D03*
X112395000Y-109220000D03*
X92710000Y-109347000D03*
X72517000Y-82296000D03*
X92075000Y-108966000D03*
X80264000Y-117221000D03*
X81661000Y-89408000D03*
X81153000Y-134239000D03*
X77978000Y-91186000D03*
X78867000Y-123571000D03*
X86360000Y-98933000D03*
X90043000Y-104902000D03*
X89662000Y-124841000D03*
X95250000Y-134747000D03*
X90678000Y-128397000D03*
X85344000Y-120777000D03*
X83820000Y-104521000D03*
X83312000Y-94742000D03*
X74930000Y-126746000D03*
X72517000Y-91186000D03*
X87376000Y-129032000D03*
X88265000Y-129032000D03*
X76581000Y-94361000D03*
X92456000Y-133731000D03*
X72517000Y-89916000D03*
X83439000Y-109474000D03*
X90043000Y-129032000D03*
X82550000Y-94742000D03*
X85090000Y-115062000D03*
X93599000Y-132080000D03*
X81661000Y-90678000D03*
X81661000Y-90043000D03*
X106680000Y-131826000D03*
X109347000Y-131064000D03*
X101727000Y-101981000D03*
X86106000Y-88265000D03*
D42*
X125222000Y-128143000D03*
X125222000Y-127127000D03*
X131064000Y-135128000D03*
X131064000Y-134239000D03*
D43*
X75311000Y-107061000D03*
X77597000Y-113411000D03*
X75692000Y-106426000D03*
X78105000Y-112903000D03*
X113919000Y-121920000D03*
X133096000Y-137033000D03*
X132334000Y-137033000D03*
X114173000Y-122555000D03*
X87249000Y-118999000D03*
X89281000Y-104902000D03*
D42*
X120015000Y-111379000D03*
D43*
X79375000Y-122809000D03*
X76073000Y-99314000D03*
D45*
X118872000Y-134112000D02*
X124206000Y-134112000D01*
X124206000Y-134112000D02*
X124460000Y-134366000D01*
D46*
X126746000Y-137668000D02*
X126746000Y-140208000D01*
D47*
X126746000Y-137668000D02*
X124460000Y-135382000D01*
X124460000Y-135382000D02*
X124460000Y-134366000D01*
D48*
X128016000Y-120904000D02*
X128016000Y-116586000D01*
D47*
X128016000Y-121412000D02*
X128016000Y-120904000D01*
X127508000Y-121412000D02*
X128016000Y-121412000D01*
X128016000Y-121412000D02*
X128524000Y-121412000D01*
D48*
X121793000Y-112776000D02*
X124206000Y-112776000D01*
X124206000Y-112776000D02*
X128016000Y-116586000D01*
X121793000Y-112776000D02*
X121793000Y-110236000D01*
X121793000Y-110236000D02*
X119380000Y-107823000D01*
X119380000Y-107823000D02*
X116713000Y-107823000D01*
X116713000Y-107823000D02*
X115824000Y-106934000D01*
X115824000Y-106934000D02*
X115824000Y-106045000D01*
D45*
X121158000Y-112776000D02*
X121793000Y-112776000D01*
D48*
X112141000Y-95758000D02*
X112141000Y-90297000D01*
X112141000Y-90297000D02*
X114681000Y-87757000D01*
D49*
X113538000Y-71374000D02*
X112903000Y-72009000D01*
X112903000Y-72009000D02*
X112903000Y-78105000D01*
X112903000Y-78105000D02*
X113030000Y-78232000D01*
D48*
X112141000Y-95758000D02*
X114300000Y-97917000D01*
X114300000Y-97917000D02*
X114300000Y-104521000D01*
X114681000Y-87757000D02*
X114681000Y-79883000D01*
X113030000Y-78232000D02*
X114681000Y-79883000D01*
X115824000Y-106045000D02*
X114300000Y-104521000D01*
D50*
X127254000Y-134747000D02*
X127254000Y-135509000D01*
D11*
X127254000Y-135509000D02*
X127254000Y-135636000D01*
X127254000Y-135636000D02*
X128143000Y-136525000D01*
D50*
X71755000Y-101854000D02*
X71755000Y-100711000D01*
D51*
X78486000Y-129667000D02*
X78232000Y-129413000D01*
X79756000Y-132080000D02*
X79756000Y-129667000D01*
X79756000Y-129667000D02*
X78486000Y-129667000D01*
D50*
X77216000Y-129540000D02*
X77470000Y-129286000D01*
X77216000Y-132080000D02*
X77216000Y-129540000D01*
X75819000Y-124460000D02*
X75565000Y-124714000D01*
X75565000Y-124714000D02*
X75565000Y-127762000D01*
X75565000Y-127762000D02*
X75438000Y-127889000D01*
X79756000Y-132080000D02*
X77216000Y-132080000D01*
D51*
X72390000Y-99568000D02*
X72644000Y-99822000D01*
X72644000Y-99822000D02*
X72644000Y-118745000D01*
X71755000Y-101854000D02*
X71882000Y-101981000D01*
X71882000Y-101981000D02*
X71882000Y-117729000D01*
X71755000Y-117856000D02*
X71882000Y-117729000D01*
D47*
X135636000Y-133350000D02*
X135001000Y-133985000D01*
D45*
X126365000Y-132715000D02*
X125476000Y-132715000D01*
D47*
X121666000Y-132715000D02*
X125476000Y-132715000D01*
X127254000Y-133985000D02*
X126365000Y-133985000D01*
D45*
X126365000Y-133985000D02*
X126365000Y-132715000D01*
D47*
X129400000Y-135083000D02*
X129400000Y-134861000D01*
X129400000Y-134861000D02*
X128524000Y-133985000D01*
X128524000Y-133985000D02*
X127254000Y-133985000D01*
X73914000Y-109474000D02*
X73914000Y-115316000D01*
X73914000Y-115316000D02*
X74168000Y-115570000D01*
X73914000Y-101219000D02*
X73914000Y-102108000D01*
X73914000Y-95631000D02*
X73914000Y-101219000D01*
X73533000Y-124714000D02*
X73533000Y-126873000D01*
X75819000Y-124460000D02*
X75819000Y-123825000D01*
X75819000Y-123825000D02*
X76200000Y-123444000D01*
D11*
X107569000Y-97663000D02*
X107823000Y-97663000D01*
X107823000Y-97663000D02*
X108204000Y-97536000D01*
X108204000Y-97536000D02*
X107823000Y-97663000D01*
D49*
X102616000Y-129413000D02*
X102997000Y-129032000D01*
X102997000Y-129032000D02*
X104902000Y-129032000D01*
X93218000Y-129667000D02*
X98425000Y-134874000D01*
X98425000Y-134874000D02*
X100584000Y-134874000D01*
X100584000Y-134874000D02*
X101600000Y-133858000D01*
X101600000Y-133858000D02*
X101600000Y-132461000D01*
X101600000Y-132461000D02*
X102616000Y-131445000D01*
X102616000Y-131445000D02*
X102616000Y-129413000D01*
X93218000Y-128524000D02*
X93218000Y-129667000D01*
X90551000Y-124079000D02*
X90551000Y-125857000D01*
X90551000Y-125857000D02*
X93218000Y-128524000D01*
D47*
X128524000Y-103251000D02*
X128524000Y-104013000D01*
X128524000Y-104013000D02*
X131572000Y-107061000D01*
X135382000Y-107061000D02*
X133985000Y-108458000D01*
X124333000Y-105029000D02*
X124333000Y-106680000D01*
X126111000Y-105029000D02*
X124333000Y-105029000D01*
X124333000Y-105029000D02*
X122809000Y-105029000D01*
X126111000Y-101346000D02*
X126111000Y-105029000D01*
X91059000Y-69469000D02*
X91059000Y-68199000D01*
X85979000Y-76073000D02*
X83185000Y-76073000D01*
X80391000Y-76073000D02*
X77089000Y-76073000D01*
X75565000Y-81280000D02*
X75565000Y-78105000D01*
X75565000Y-74295000D02*
X78740000Y-74295000D01*
X78740000Y-78105000D02*
X81915000Y-78105000D01*
X81915000Y-74295000D02*
X84455000Y-74295000D01*
X84455000Y-78105000D02*
X84455000Y-78172000D01*
X84455000Y-78172000D02*
X82643200Y-79983800D01*
X102362000Y-121158000D02*
X103632000Y-121158000D01*
X101092000Y-118491000D02*
X101092000Y-116967000D01*
X101219000Y-115443000D02*
X99949000Y-114173000D01*
X104902000Y-115443000D02*
X106172000Y-114173000D01*
X103632000Y-112649000D02*
X102743000Y-112649000D01*
X97917000Y-110871000D02*
X100457000Y-110871000D01*
X105537000Y-110744000D02*
X107569000Y-110744000D01*
X103505000Y-115443000D02*
X101219000Y-115443000D01*
X121666000Y-131953000D02*
X121666000Y-130937000D01*
X121666000Y-131953000D02*
X121666000Y-132715000D01*
X121666000Y-132715000D02*
X121666000Y-132969000D01*
X103632000Y-111125000D02*
X103124000Y-110617000D01*
X103124000Y-110617000D02*
X103124000Y-109728000D01*
X103632000Y-115443000D02*
X103505000Y-115443000D01*
X103505000Y-115443000D02*
X104902000Y-115443000D01*
X96266000Y-127762000D02*
X96266000Y-126238000D01*
X96266000Y-126238000D02*
X96901000Y-125603000D01*
X74168000Y-118110000D02*
X74168000Y-115570000D01*
X93980000Y-120015000D02*
X92710000Y-120015000D01*
X92710000Y-120015000D02*
X90297000Y-117602000D01*
X86360000Y-108458000D02*
X86360000Y-102362000D01*
X86360000Y-102362000D02*
X85471000Y-101473000D01*
X85471000Y-101473000D02*
X85471000Y-99949000D01*
D11*
X89662000Y-98425000D02*
X89662000Y-97917000D01*
X91694000Y-100457000D02*
X89662000Y-98425000D01*
X89662000Y-97917000D02*
X88519000Y-96774000D01*
X88519000Y-96774000D02*
X86868000Y-96774000D01*
X86233000Y-94615000D02*
X86868000Y-95250000D01*
X86868000Y-95250000D02*
X86868000Y-96774000D01*
D47*
X74168000Y-120142000D02*
X76200000Y-122174000D01*
X76200000Y-122174000D02*
X76200000Y-123444000D01*
X86360000Y-108458000D02*
X86360000Y-110998000D01*
X98806000Y-104648000D02*
X92583000Y-110871000D01*
X92583000Y-110871000D02*
X92583000Y-110998000D01*
X92583000Y-110998000D02*
X92583000Y-112014000D01*
X92583000Y-113030000D02*
X92583000Y-112014000D01*
X90170000Y-109982000D02*
X90170000Y-106172000D01*
X90170000Y-106172000D02*
X91567000Y-104775000D01*
X90170000Y-109982000D02*
X90170000Y-111125000D01*
X90170000Y-111125000D02*
X90170000Y-112141000D01*
X74168000Y-119126000D02*
X74168000Y-120142000D01*
X74168000Y-118110000D02*
X74168000Y-119126000D01*
X75184000Y-115570000D02*
X74168000Y-115570000D01*
X76200000Y-115570000D02*
X75184000Y-115570000D01*
D11*
X81407000Y-106045000D02*
X82804000Y-107442000D01*
D45*
X82804000Y-107442000D02*
X82804000Y-108458000D01*
D11*
X79121000Y-89662000D02*
X78613000Y-89662000D01*
X78613000Y-89662000D02*
X78105000Y-89662000D01*
X79629000Y-91948000D02*
X79629000Y-90170000D01*
X79629000Y-90170000D02*
X79121000Y-89662000D01*
X81407000Y-106045000D02*
X81407000Y-93726000D01*
X81407000Y-93726000D02*
X79629000Y-91948000D01*
D47*
X73914000Y-104394000D02*
X73914000Y-108204000D01*
X73914000Y-108204000D02*
X73914000Y-109474000D01*
X73914000Y-102108000D02*
X73914000Y-104394000D01*
D46*
X91567000Y-88138000D02*
X85648000Y-82219000D01*
X85648000Y-82219000D02*
X82643200Y-82219000D01*
D11*
X70231000Y-76835000D02*
X70231000Y-134747000D01*
X70231000Y-134747000D02*
X73406000Y-137922000D01*
D48*
X103124000Y-101981000D02*
X103124000Y-109728000D01*
X103124000Y-101092000D02*
X103124000Y-101981000D01*
X99949000Y-98044000D02*
X100076000Y-98044000D01*
X100076000Y-98044000D02*
X103124000Y-101092000D01*
D49*
X105918000Y-101219000D02*
X107823000Y-101219000D01*
X107823000Y-101219000D02*
X107188000Y-101219000D01*
X107188000Y-101219000D02*
X107823000Y-101219000D01*
D45*
X133477000Y-131191000D02*
X133477000Y-130175000D01*
D48*
X129032000Y-127381000D02*
X126365000Y-124714000D01*
X126365000Y-124714000D02*
X122428000Y-124714000D01*
X135636000Y-129794000D02*
X133223000Y-127381000D01*
X133223000Y-127381000D02*
X130175000Y-127381000D01*
X130175000Y-127381000D02*
X129032000Y-127381000D01*
X135636000Y-133357000D02*
X135636000Y-133350000D01*
X135636000Y-133350000D02*
X135636000Y-129794000D01*
D47*
X116840000Y-117475000D02*
X115951000Y-116586000D01*
X115951000Y-116586000D02*
X115951000Y-114427000D01*
X118237000Y-114427000D02*
X117094000Y-114427000D01*
X115951000Y-114427000D02*
X117094000Y-114427000D01*
X119507000Y-106172000D02*
X120396000Y-106172000D01*
X120396000Y-106172000D02*
X123825000Y-109728000D01*
X119507000Y-106172000D02*
X119507000Y-106172000D01*
X119507000Y-106172000D02*
X118491000Y-106172000D01*
X118491000Y-105156000D02*
X119507000Y-105156000D01*
X117475000Y-105156000D02*
X118491000Y-105156000D01*
X119507000Y-105156000D02*
X119507000Y-106172000D01*
X118491000Y-106172000D02*
X117475000Y-106172000D01*
X112014000Y-102108000D02*
X110998000Y-102108000D01*
X112014000Y-104140000D02*
X110998000Y-104140000D01*
X112014000Y-103124000D02*
X112014000Y-104140000D01*
X112014000Y-103124000D02*
X112014000Y-102108000D01*
D46*
X107823000Y-101854000D02*
X109093000Y-103124000D01*
X109093000Y-103124000D02*
X110998000Y-103124000D01*
D47*
X110998000Y-103124000D02*
X110998000Y-102108000D01*
X110998000Y-103124000D02*
X110998000Y-104140000D01*
D11*
X107823000Y-99568000D02*
X110998000Y-99568000D01*
D46*
X105410000Y-92456000D02*
X106426000Y-93472000D01*
X106426000Y-93472000D02*
X106426000Y-94107000D01*
X107823000Y-95123000D02*
X106426000Y-95123000D01*
X106426000Y-95123000D02*
X106426000Y-94107000D01*
D11*
X110617000Y-92329000D02*
X110236000Y-91948000D01*
X110236000Y-91948000D02*
X110236000Y-91186000D01*
X110236000Y-90424000D02*
X110236000Y-91186000D01*
X113411000Y-85852000D02*
X111506000Y-85852000D01*
D45*
X91694000Y-104013000D02*
X91694000Y-100457000D01*
X91567000Y-104775000D02*
X91567000Y-104140000D01*
X91567000Y-104140000D02*
X91694000Y-104013000D01*
D11*
X113411000Y-80391000D02*
X111506000Y-78486000D01*
X111506000Y-78486000D02*
X111506000Y-71628000D01*
X110236000Y-90424000D02*
X113411000Y-87249000D01*
X113411000Y-87249000D02*
X113411000Y-85852000D01*
X113411000Y-85852000D02*
X113411000Y-85725000D01*
X113411000Y-85725000D02*
X113411000Y-80391000D01*
D47*
X92710000Y-74676000D02*
X91694000Y-74676000D01*
D48*
X91567000Y-89916000D02*
X91567000Y-88138000D01*
X94234000Y-91821000D02*
X93472000Y-91821000D01*
X93472000Y-91821000D02*
X91567000Y-89916000D01*
D11*
X110998000Y-102108000D02*
X110998000Y-99568000D01*
X110998000Y-99568000D02*
X110998000Y-97155000D01*
X110998000Y-97155000D02*
X110617000Y-96774000D01*
X110617000Y-92329000D02*
X110617000Y-96774000D01*
D46*
X107823000Y-101981000D02*
X107823000Y-101854000D01*
X107823000Y-101854000D02*
X107823000Y-101219000D01*
X107823000Y-101219000D02*
X107823000Y-99568000D01*
X107823000Y-99568000D02*
X107823000Y-97663000D01*
X107823000Y-97663000D02*
X107823000Y-95123000D01*
D50*
X102362000Y-95504000D02*
X102743000Y-95504000D01*
X102743000Y-95504000D02*
X102997000Y-95758000D01*
D47*
X102362000Y-122428000D02*
X102362000Y-121158000D01*
X102362000Y-121158000D02*
X102362000Y-119761000D01*
X102362000Y-119761000D02*
X103632000Y-118491000D01*
D48*
X118364000Y-125095000D02*
X116840000Y-123571000D01*
X116840000Y-123571000D02*
X116840000Y-117475000D01*
X116840000Y-117475000D02*
X116840000Y-117602000D01*
D45*
X112141000Y-119253000D02*
X112141000Y-117221000D01*
D47*
X103632000Y-118491000D02*
X103632000Y-115443000D01*
X103632000Y-115443000D02*
X103632000Y-112649000D01*
X103632000Y-112649000D02*
X103632000Y-111125000D01*
X97409000Y-123444000D02*
X96901000Y-123444000D01*
X96901000Y-123444000D02*
X97028000Y-123444000D01*
X97028000Y-123444000D02*
X96901000Y-123444000D01*
X73533000Y-124714000D02*
X72009000Y-123190000D01*
X90297000Y-112268000D02*
X90297000Y-117602000D01*
X93980000Y-120015000D02*
X94615000Y-120015000D01*
X94615000Y-120015000D02*
X96901000Y-122301000D01*
X96901000Y-122301000D02*
X96901000Y-123444000D01*
X96901000Y-123444000D02*
X96901000Y-125603000D01*
X90170000Y-112141000D02*
X90297000Y-112268000D01*
D46*
X94869000Y-92456000D02*
X105410000Y-92456000D01*
X94234000Y-91821000D02*
X94869000Y-92456000D01*
D48*
X134237000Y-117869000D02*
X132093000Y-117869000D01*
X132093000Y-117869000D02*
X123825000Y-109728000D01*
D11*
X72517000Y-74549000D02*
X70231000Y-76835000D01*
D48*
X139946380Y-129532380D02*
X136017000Y-125603000D01*
X136017000Y-125603000D02*
X129921000Y-125603000D01*
X125603000Y-122936000D02*
X121793000Y-119126000D01*
D47*
X121793000Y-119126000D02*
X121539000Y-118872000D01*
D48*
X127254000Y-122936000D02*
X125603000Y-122936000D01*
X138046460Y-132326380D02*
X138691620Y-132326380D01*
X138691620Y-132326380D02*
X139946380Y-131071620D01*
X139946380Y-131071620D02*
X139946380Y-129532380D01*
D47*
X121539000Y-118872000D02*
X120523000Y-118872000D01*
D48*
X129921000Y-125603000D02*
X127254000Y-122936000D01*
D47*
X120523000Y-118872000D02*
X119507000Y-118872000D01*
D51*
X88773000Y-128397000D02*
X88773000Y-130937000D01*
X85852000Y-123825000D02*
X85852000Y-125476000D01*
X84074000Y-114808000D02*
X84074000Y-122047000D01*
X82804000Y-113538000D02*
X84074000Y-114808000D01*
X82804000Y-113538000D02*
X82804000Y-110363000D01*
X80264000Y-97282000D02*
X80264000Y-107823000D01*
X93599000Y-135763000D02*
X93726000Y-135763000D01*
X84074000Y-122047000D02*
X85852000Y-123825000D01*
X88773000Y-130937000D02*
X93599000Y-135763000D01*
X85852000Y-125476000D02*
X88773000Y-128397000D01*
X82804000Y-110363000D02*
X80264000Y-107823000D01*
X72009000Y-98552000D02*
X72136000Y-98679000D01*
X72009000Y-81534000D02*
X72009000Y-98552000D01*
X72517000Y-81026000D02*
X72009000Y-81534000D01*
X72136000Y-98679000D02*
X72136000Y-98806000D01*
D47*
X96266000Y-130302000D02*
X96266000Y-130048000D01*
X96266000Y-130048000D02*
X91948000Y-125730000D01*
X91948000Y-125730000D02*
X91948000Y-124968000D01*
D50*
X105537000Y-126365000D02*
X104648000Y-126365000D01*
X96266000Y-130302000D02*
X97536000Y-129032000D01*
X97536000Y-129032000D02*
X97536000Y-127127000D01*
X97536000Y-127127000D02*
X98298000Y-126365000D01*
X98298000Y-126365000D02*
X104648000Y-126365000D01*
D11*
X99568000Y-133985000D02*
X96266000Y-130683000D01*
X96266000Y-130683000D02*
X96266000Y-130302000D01*
D47*
X83312000Y-102489000D02*
X84201000Y-103378000D01*
X95631000Y-123952000D02*
X94742000Y-123952000D01*
X94742000Y-123952000D02*
X88773000Y-117983000D01*
X88773000Y-113538000D02*
X88773000Y-117983000D01*
X88773000Y-107569000D02*
X88773000Y-113538000D01*
X88773000Y-106553000D02*
X88773000Y-107569000D01*
X80137000Y-88646000D02*
X80645000Y-89154000D01*
X80645000Y-89154000D02*
X80645000Y-91059000D01*
X80645000Y-91059000D02*
X81280000Y-91694000D01*
X76200000Y-88646000D02*
X80137000Y-88646000D01*
X81280000Y-91694000D02*
X81788000Y-91694000D01*
X84074000Y-97028000D02*
X83312000Y-97790000D01*
X83312000Y-97790000D02*
X83312000Y-102489000D01*
X84074000Y-97028000D02*
X84328000Y-96774000D01*
X84328000Y-96774000D02*
X84328000Y-94234000D01*
D48*
X113538000Y-124333000D02*
X113538000Y-123952000D01*
X113538000Y-123952000D02*
X112649000Y-123063000D01*
X112649000Y-123063000D02*
X112649000Y-120904000D01*
X113538000Y-124333000D02*
X113538000Y-128270000D01*
D47*
X113030000Y-124333000D02*
X113538000Y-124333000D01*
X113538000Y-124333000D02*
X114046000Y-124333000D01*
D48*
X116205000Y-135636000D02*
X114046000Y-133477000D01*
X114046000Y-133477000D02*
X114046000Y-128778000D01*
X114046000Y-128778000D02*
X113538000Y-128270000D01*
D46*
X124206000Y-137668000D02*
X124206000Y-140208000D01*
D47*
X113919000Y-112522000D02*
X118618000Y-112522000D01*
D45*
X118618000Y-112522000D02*
X118872000Y-112776000D01*
D47*
X114046000Y-106680000D02*
X113919000Y-106807000D01*
X114046000Y-106553000D02*
X114046000Y-106680000D01*
X114046000Y-106553000D02*
X113030000Y-105537000D01*
X113030000Y-106553000D02*
X113030000Y-105537000D01*
X113030000Y-106553000D02*
X114046000Y-106553000D01*
D48*
X116205000Y-135636000D02*
X122555000Y-135636000D01*
X122555000Y-135636000D02*
X124206000Y-137287000D01*
X124206000Y-137287000D02*
X124206000Y-137668000D01*
X112649000Y-120904000D02*
X113919000Y-119634000D01*
X113919000Y-119634000D02*
X113919000Y-112522000D01*
X113919000Y-112522000D02*
X113919000Y-106807000D01*
D47*
X84328000Y-94234000D02*
X81788000Y-91694000D01*
D11*
X99705000Y-87599000D02*
X101387000Y-89281000D01*
X101387000Y-89281000D02*
X106426000Y-89281000D01*
X103515000Y-85059000D02*
X102214000Y-86360000D01*
X102214000Y-86360000D02*
X100944000Y-86360000D01*
X100944000Y-86360000D02*
X99705000Y-87599000D01*
X105791000Y-98806000D02*
X105791000Y-97917000D01*
X105791000Y-97917000D02*
X106045000Y-97663000D01*
D46*
X140500000Y-91774000D02*
X137367000Y-91774000D01*
X137367000Y-91774000D02*
X132049000Y-86456000D01*
X132049000Y-86456000D02*
X131176000Y-86456000D01*
X140500000Y-101774000D02*
X134494000Y-101774000D01*
X134494000Y-101774000D02*
X131176000Y-98456000D01*
X140500000Y-96774000D02*
X136271000Y-96774000D01*
X136271000Y-96774000D02*
X131953000Y-92456000D01*
X131953000Y-92456000D02*
X117176000Y-92456000D01*
X140500000Y-81774000D02*
X139559000Y-81774000D01*
X139559000Y-81774000D02*
X132969000Y-75184000D01*
X132969000Y-75184000D02*
X117176000Y-75184000D01*
X140500000Y-86774000D02*
X138463000Y-86774000D01*
X138463000Y-86774000D02*
X132873000Y-81184000D01*
X132873000Y-81184000D02*
X131176000Y-81184000D01*
X140500000Y-76774000D02*
X140500000Y-76619000D01*
X140500000Y-76619000D02*
X133065000Y-69184000D01*
X133065000Y-69184000D02*
X131176000Y-69184000D01*
D51*
X80518000Y-136017000D02*
X80518000Y-129540000D01*
X80518000Y-129540000D02*
X80137000Y-129159000D01*
X80137000Y-129159000D02*
X78867000Y-129159000D01*
X78867000Y-129159000D02*
X77470000Y-127762000D01*
X80264000Y-122936000D02*
X78867000Y-124333000D01*
X80264000Y-118618000D02*
X80264000Y-122936000D01*
X79121000Y-117475000D02*
X79121000Y-112395000D01*
X76708000Y-98171000D02*
X76708000Y-109982000D01*
X79121000Y-117475000D02*
X80264000Y-118618000D01*
X75438000Y-94107000D02*
X77216000Y-92329000D01*
X75438000Y-96901000D02*
X75438000Y-94107000D01*
X77216000Y-91186000D02*
X77216000Y-92329000D01*
X79121000Y-112395000D02*
X76708000Y-109982000D01*
X75438000Y-96901000D02*
X76708000Y-98171000D01*
X81026000Y-136525000D02*
X80518000Y-136017000D01*
D47*
X81026000Y-137668000D02*
X81026000Y-136525000D01*
D51*
X78867000Y-124333000D02*
X77470000Y-125730000D01*
X77470000Y-125730000D02*
X77470000Y-127762000D01*
X100584000Y-133985000D02*
X100076000Y-133477000D01*
X100076000Y-133477000D02*
X100076000Y-129032000D01*
D47*
X100076000Y-129032000D02*
X98806000Y-127762000D01*
D51*
X70866000Y-103886000D02*
X70993000Y-104013000D01*
X70993000Y-104013000D02*
X70993000Y-104140000D01*
X70866000Y-103886000D02*
X70866000Y-78867000D01*
X112649000Y-109855000D02*
X112649000Y-111379000D01*
X112649000Y-111379000D02*
X112649000Y-115443000D01*
X112649000Y-115443000D02*
X111252000Y-116840000D01*
X111252000Y-123571000D02*
X112014000Y-124333000D01*
X111252000Y-116840000D02*
X111252000Y-123571000D01*
X112014000Y-124333000D02*
X112014000Y-128524000D01*
X112014000Y-128524000D02*
X112776000Y-129286000D01*
X112776000Y-133985000D02*
X115316000Y-136525000D01*
X115316000Y-136525000D02*
X115316000Y-138430000D01*
X115316000Y-138430000D02*
X115824000Y-138938000D01*
X112776000Y-129286000D02*
X112776000Y-133985000D01*
X115824000Y-138938000D02*
X117856000Y-138938000D01*
D47*
X117856000Y-138938000D02*
X119126000Y-140208000D01*
D51*
X70993000Y-104140000D02*
X70993000Y-116840000D01*
X72517000Y-77216000D02*
X70866000Y-78867000D01*
X94361000Y-98171000D02*
X94361000Y-100203000D01*
X95250000Y-100330000D02*
X94488000Y-100330000D01*
X94488000Y-100330000D02*
X94361000Y-100203000D01*
X95377000Y-100457000D02*
X95250000Y-100330000D01*
X95377000Y-100838000D02*
X95377000Y-100457000D01*
X95250000Y-100965000D02*
X95377000Y-100838000D01*
X94488000Y-100965000D02*
X95250000Y-100965000D01*
X94361000Y-101092000D02*
X94361000Y-101473000D01*
X94361000Y-101092000D02*
X94488000Y-100965000D01*
X74295000Y-86360000D02*
X74422000Y-86233000D01*
X74422000Y-86233000D02*
X82423000Y-86233000D01*
X82423000Y-86233000D02*
X94361000Y-98171000D01*
X94361000Y-101473000D02*
X94488000Y-101600000D01*
X94488000Y-101600000D02*
X97663000Y-101600000D01*
X97663000Y-101600000D02*
X97917000Y-101854000D01*
X100457000Y-104902000D02*
X100457000Y-102235000D01*
X93980000Y-114935000D02*
X99314000Y-120269000D01*
X99314000Y-120269000D02*
X99314000Y-124206000D01*
X99314000Y-124206000D02*
X100457000Y-125349000D01*
X100457000Y-125349000D02*
X106680000Y-125349000D01*
X106680000Y-125349000D02*
X108204000Y-126873000D01*
X108204000Y-131318000D02*
X108204000Y-126873000D01*
X108331000Y-134747000D02*
X109093000Y-133985000D01*
X109093000Y-133985000D02*
X109093000Y-132207000D01*
X109093000Y-132207000D02*
X108204000Y-131318000D01*
X108331000Y-136017000D02*
X108331000Y-134747000D01*
X100457000Y-104902000D02*
X93980000Y-111379000D01*
X93980000Y-111379000D02*
X93980000Y-114935000D01*
X97917000Y-101854000D02*
X100076000Y-101854000D01*
X100076000Y-101854000D02*
X100457000Y-102235000D01*
X95250000Y-96139000D02*
X94869000Y-96139000D01*
X104013000Y-96647000D02*
X103505000Y-97155000D01*
X104013000Y-95250000D02*
X104013000Y-96647000D01*
X95377000Y-94742000D02*
X95504000Y-94615000D01*
X95377000Y-96012000D02*
X95377000Y-94742000D01*
X103378000Y-94615000D02*
X104013000Y-95250000D01*
X87249000Y-88519000D02*
X93345000Y-94615000D01*
X87249000Y-87884000D02*
X87249000Y-88519000D01*
X86487009Y-87122009D02*
X87249000Y-87884000D01*
X95250000Y-96139000D02*
X95377000Y-96012000D01*
X85725000Y-87122000D02*
X86487009Y-87122009D01*
X95885000Y-94615000D02*
X96012000Y-94742000D01*
X95504000Y-94615000D02*
X95885000Y-94615000D01*
X96012000Y-94742000D02*
X96012000Y-96012000D01*
X96012000Y-96012000D02*
X96139000Y-96139000D01*
X96139000Y-96139000D02*
X96520000Y-96139000D01*
X96520000Y-96139000D02*
X96647000Y-96012000D01*
X96647000Y-94742000D02*
X96774000Y-94615000D01*
X96647000Y-96012000D02*
X96647000Y-94742000D01*
X97155000Y-94615000D02*
X97282000Y-94742000D01*
X96774000Y-94615000D02*
X97155000Y-94615000D01*
X97282000Y-94742000D02*
X97282000Y-96012000D01*
X97282000Y-96012000D02*
X97409000Y-96139000D01*
X97409000Y-96139000D02*
X97790000Y-96139000D01*
X97790000Y-96139000D02*
X97917000Y-96012000D01*
X97917000Y-94742000D02*
X98044000Y-94615000D01*
X97917000Y-96012000D02*
X97917000Y-94742000D01*
X98044000Y-94615000D02*
X103378000Y-94615000D01*
X94615000Y-94615000D02*
X93345000Y-94615000D01*
X94742000Y-94742000D02*
X94615000Y-94615000D01*
X94742000Y-96012000D02*
X94742000Y-94742000D01*
X94869000Y-96139000D02*
X94742000Y-96012000D01*
X106807000Y-132588000D02*
X107442000Y-131953000D01*
X110236000Y-130556000D02*
X109728000Y-130048000D01*
X109728000Y-130048000D02*
X109728000Y-125857000D01*
X109728000Y-125857000D02*
X108966000Y-125095000D01*
X108966000Y-125095000D02*
X108966000Y-115316000D01*
X110363000Y-131826000D02*
X110236000Y-131699000D01*
X110236000Y-131699000D02*
X110236000Y-130556000D01*
X110109000Y-114173000D02*
X108966000Y-115316000D01*
X104648000Y-104775000D02*
X110109000Y-110236000D01*
X110109000Y-110236000D02*
X110109000Y-114173000D01*
X104648000Y-100203000D02*
X104648000Y-104775000D01*
X103505000Y-97155000D02*
X103378000Y-97282000D01*
X103378000Y-97282000D02*
X103378000Y-98933000D01*
X103378000Y-98933000D02*
X104648000Y-100203000D01*
X105537000Y-132588000D02*
X106807000Y-132588000D01*
X101346000Y-136779000D02*
X105537000Y-132588000D01*
D47*
X101346000Y-137668000D02*
X101346000Y-136779000D01*
D51*
X96012000Y-102108000D02*
X96393000Y-102108000D01*
X95885000Y-102616000D02*
X95885000Y-102235000D01*
X95885000Y-102235000D02*
X96012000Y-102108000D01*
X95758000Y-102743000D02*
X95885000Y-102616000D01*
X95377000Y-102743000D02*
X95758000Y-102743000D01*
X95250000Y-102616000D02*
X95377000Y-102743000D01*
X95250000Y-102235000D02*
X95250000Y-102616000D01*
X94742000Y-102108000D02*
X95123000Y-102108000D01*
X95123000Y-102108000D02*
X95250000Y-102235000D01*
X74295000Y-87122000D02*
X74803000Y-86614000D01*
X74803000Y-86614000D02*
X82042000Y-86614000D01*
X93980000Y-102616000D02*
X94107000Y-102743000D01*
X82042000Y-86614000D02*
X93980000Y-98552000D01*
X93980000Y-98552000D02*
X93980000Y-102616000D01*
X94615000Y-102616000D02*
X94615000Y-102235000D01*
X94107000Y-102743000D02*
X94488000Y-102743000D01*
X94488000Y-102743000D02*
X94615000Y-102616000D01*
X94615000Y-102235000D02*
X94742000Y-102108000D01*
X96393000Y-102108000D02*
X96520000Y-102235000D01*
X93599000Y-115189000D02*
X98933000Y-120523000D01*
X98933000Y-120523000D02*
X98933000Y-124460000D01*
X98933000Y-124460000D02*
X100203000Y-125730000D01*
X100203000Y-125730000D02*
X106426000Y-125730000D01*
X106426000Y-125730000D02*
X107823000Y-127127000D01*
X108712000Y-133604000D02*
X108712000Y-132461000D01*
X108712000Y-132461000D02*
X107823000Y-131572000D01*
X107823000Y-131572000D02*
X107823000Y-127127000D01*
X99949000Y-104775000D02*
X93599000Y-111125000D01*
X93599000Y-111125000D02*
X93599000Y-115189000D01*
X99949000Y-102870000D02*
X99949000Y-104775000D01*
X96520000Y-102235000D02*
X96774000Y-102489000D01*
X96774000Y-102489000D02*
X99568000Y-102489000D01*
X99568000Y-102489000D02*
X99949000Y-102870000D01*
D47*
X108966000Y-140208000D02*
X107696000Y-138938000D01*
D51*
X107696000Y-138938000D02*
X107696000Y-134620000D01*
X107696000Y-134620000D02*
X108712000Y-133604000D01*
X93599000Y-107823000D02*
X93091000Y-108331000D01*
X111506000Y-136652000D02*
X111633000Y-136525000D01*
X111633000Y-136525000D02*
X111633000Y-130048000D01*
D47*
X111506000Y-137668000D02*
X111506000Y-136652000D01*
D51*
X112141000Y-105156000D02*
X112141000Y-107696000D01*
X112141000Y-107696000D02*
X111633000Y-108204000D01*
X113030000Y-104267000D02*
X113030000Y-101600000D01*
X113030000Y-101600000D02*
X112903000Y-101473000D01*
X113030000Y-104267000D02*
X112141000Y-105156000D01*
X111633000Y-130048000D02*
X110871000Y-129286000D01*
X111252000Y-108585000D02*
X111633000Y-108204000D01*
X110109000Y-116078000D02*
X111252000Y-114935000D01*
X111252000Y-114935000D02*
X111252000Y-108585000D01*
X110871000Y-125095000D02*
X110109000Y-124333000D01*
X110109000Y-124333000D02*
X110109000Y-116078000D01*
X110871000Y-129286000D02*
X110871000Y-125095000D01*
X73406000Y-84836000D02*
X73279000Y-84963000D01*
X73279000Y-84963000D02*
X73279000Y-88011000D01*
X73279000Y-88011000D02*
X73533000Y-88265000D01*
X74041000Y-88265000D02*
X75311000Y-86995000D01*
X81661000Y-86995000D02*
X93599000Y-98933000D01*
X73533000Y-88265000D02*
X74041000Y-88265000D01*
X75311000Y-86995000D02*
X81661000Y-86995000D01*
X93599000Y-98933000D02*
X93599000Y-107823000D01*
X93218000Y-107315000D02*
X93218000Y-107315011D01*
X93218000Y-107315011D02*
X92583000Y-107950000D01*
X112776000Y-136271000D02*
X112014000Y-135509000D01*
X112014000Y-135509000D02*
X112014000Y-129794000D01*
X112014000Y-129794000D02*
X111252000Y-129032000D01*
X93218000Y-99187000D02*
X93218000Y-107315000D01*
X93218000Y-107315000D02*
X93218000Y-107314989D01*
D47*
X111506000Y-140208000D02*
X112776000Y-138938000D01*
D51*
X112776000Y-138938000D02*
X112776000Y-136271000D01*
X111252000Y-129032000D02*
X111252000Y-124841000D01*
X111252000Y-124841000D02*
X110490000Y-124079000D01*
X110490000Y-124079000D02*
X110490000Y-116332000D01*
X110490000Y-116332000D02*
X111633000Y-115189000D01*
X111633000Y-115189000D02*
X111633000Y-108966000D01*
X111633000Y-108966000D02*
X111887000Y-108712000D01*
X111887000Y-108712000D02*
X112522000Y-108077000D01*
X73025000Y-83566000D02*
X72898000Y-83693000D01*
X72898000Y-83693000D02*
X72898000Y-88392000D01*
X74295000Y-88646000D02*
X75565000Y-87376000D01*
X72898000Y-88392000D02*
X73152000Y-88646000D01*
X73152000Y-88646000D02*
X74295000Y-88646000D01*
X75565000Y-87376000D02*
X81407000Y-87376000D01*
X81407000Y-87376000D02*
X93218000Y-99187000D01*
X83820000Y-124841000D02*
X83820000Y-131699000D01*
X81280000Y-115062000D02*
X82550000Y-116332000D01*
X81280000Y-115062000D02*
X81280000Y-111379000D01*
X78613000Y-108712000D02*
X81280000Y-111379000D01*
X78613000Y-95504000D02*
X78613000Y-108712000D01*
X82550000Y-116332000D02*
X82550000Y-123571000D01*
X83820000Y-131699000D02*
X88646000Y-136525000D01*
X82550000Y-123571000D02*
X83820000Y-124841000D01*
X77470000Y-94361000D02*
X78613000Y-95504000D01*
D47*
X88646000Y-136525000D02*
X88646000Y-137668000D01*
D51*
X82169000Y-123952000D02*
X83312000Y-125095000D01*
X82169000Y-116713000D02*
X82169000Y-123952000D01*
X80899000Y-115443000D02*
X82169000Y-116713000D01*
X78232000Y-97028000D02*
X78232000Y-108966000D01*
X83312000Y-125095000D02*
X83312000Y-132334000D01*
X78232000Y-97028000D02*
X77343000Y-96139000D01*
X83312000Y-132334000D02*
X87376000Y-136398000D01*
X80899000Y-111633000D02*
X78232000Y-108966000D01*
X87376000Y-136398000D02*
X87376000Y-138938000D01*
X80899000Y-115443000D02*
X80899000Y-111633000D01*
D47*
X87376000Y-138938000D02*
X88646000Y-140208000D01*
D51*
X84836000Y-136271000D02*
X84836000Y-138938000D01*
X81407000Y-117475000D02*
X81407000Y-124714000D01*
X80010000Y-116078000D02*
X81407000Y-117475000D01*
X80010000Y-112014000D02*
X77470000Y-109474000D01*
X77470000Y-97663000D02*
X77470000Y-109474000D01*
X80010000Y-116078000D02*
X80010000Y-112014000D01*
X81407000Y-124714000D02*
X82296000Y-125603000D01*
X82296000Y-125603000D02*
X82296000Y-133731000D01*
X76327000Y-96520000D02*
X77470000Y-97663000D01*
X82296000Y-133731000D02*
X84836000Y-136271000D01*
X76327000Y-95123000D02*
X76327000Y-96520000D01*
D47*
X84836000Y-138938000D02*
X86106000Y-140208000D01*
D51*
X77851000Y-109220000D02*
X77851000Y-97409000D01*
X77851000Y-97409000D02*
X76835000Y-96393000D01*
X80518000Y-115824000D02*
X80518000Y-111887000D01*
X86106000Y-136525000D02*
X82804000Y-133223000D01*
X81788000Y-124333000D02*
X81788000Y-117094000D01*
X80518000Y-111887000D02*
X77851000Y-109220000D01*
X82804000Y-125349000D02*
X81788000Y-124333000D01*
X76835000Y-96393000D02*
X76835000Y-95631000D01*
X81788000Y-117094000D02*
X80518000Y-115824000D01*
X82804000Y-133223000D02*
X82804000Y-125349000D01*
D47*
X86106000Y-136525000D02*
X86106000Y-137668000D01*
D51*
X75565000Y-97663000D02*
X75057000Y-97155000D01*
X76454000Y-92456000D02*
X75057000Y-93853000D01*
X76454000Y-91059000D02*
X76454000Y-92456000D01*
X75057000Y-93853000D02*
X75057000Y-97155000D01*
X77089000Y-121793000D02*
X75819000Y-120523000D01*
X75819000Y-120523000D02*
X75819000Y-118491000D01*
X75819000Y-118491000D02*
X78359000Y-115951000D01*
X78359000Y-115951000D02*
X78359000Y-114935000D01*
X78359000Y-114935000D02*
X76962000Y-113538000D01*
X76962000Y-113538000D02*
X76962000Y-112903000D01*
X76962000Y-112903000D02*
X75057000Y-110998000D01*
X75057000Y-110998000D02*
X75057000Y-107823000D01*
X75057000Y-107823000D02*
X74803000Y-107569000D01*
X74803000Y-107569000D02*
X74803000Y-106172000D01*
X74803000Y-106172000D02*
X75565000Y-105410000D01*
X75565000Y-105410000D02*
X75565000Y-97663000D01*
X77089000Y-121793000D02*
X77089000Y-124587000D01*
X75057000Y-97155000D02*
X75057000Y-97155000D01*
X78486000Y-136652000D02*
X76200000Y-134366000D01*
X76200000Y-134366000D02*
X76200000Y-125476000D01*
X76200000Y-125476000D02*
X77089000Y-124587000D01*
D47*
X78486000Y-137668000D02*
X78486000Y-136652000D01*
D51*
X84328000Y-130810000D02*
X89916000Y-136398000D01*
X84328000Y-124587000D02*
X84328000Y-130810000D01*
X82931000Y-123190000D02*
X84328000Y-124587000D01*
X81661000Y-114681000D02*
X82931000Y-115951000D01*
X81661000Y-114681000D02*
X81661000Y-111125000D01*
X82931000Y-115951000D02*
X82931000Y-123190000D01*
X78994000Y-94996000D02*
X78994000Y-108458000D01*
X81661000Y-111125000D02*
X78994000Y-108458000D01*
X89916000Y-136398000D02*
X89916000Y-138938000D01*
X78359000Y-94361000D02*
X78994000Y-94996000D01*
D47*
X89916000Y-138938000D02*
X91186000Y-140208000D01*
D51*
X84836000Y-124333000D02*
X84836000Y-130175000D01*
X82042000Y-114300000D02*
X82042000Y-110871000D01*
X79375000Y-108204000D02*
X82042000Y-110871000D01*
X79121000Y-94361000D02*
X79375000Y-94615000D01*
X82042000Y-114300000D02*
X83312000Y-115570000D01*
X83312000Y-115570000D02*
X83312000Y-122809000D01*
X84836000Y-130175000D02*
X91186000Y-136525000D01*
X79375000Y-94615000D02*
X79375000Y-108204000D01*
X83312000Y-122809000D02*
X84836000Y-124333000D01*
D47*
X91186000Y-136525000D02*
X91186000Y-137668000D01*
D51*
X129159000Y-132080000D02*
X128651000Y-131572000D01*
X129286000Y-132080000D02*
X129159000Y-132080000D01*
X124333000Y-129159000D02*
X117221000Y-129159000D01*
X117221000Y-129159000D02*
X116713000Y-129667000D01*
X126746000Y-131572000D02*
X124333000Y-129159000D01*
X128651000Y-131572000D02*
X126746000Y-131572000D01*
X129286000Y-131445000D02*
X129032000Y-131191000D01*
X129032000Y-131191000D02*
X127000000Y-131191000D01*
X124460000Y-128651000D02*
X116459000Y-128651000D01*
X127000000Y-131191000D02*
X124460000Y-128651000D01*
D50*
X141351000Y-129286000D02*
X143002000Y-129286000D01*
D51*
X127254000Y-131953000D02*
X126492000Y-131953000D01*
X126492000Y-131953000D02*
X124333000Y-129794000D01*
X124333000Y-129794000D02*
X118745000Y-129794000D01*
X128016000Y-132715000D02*
X127254000Y-131953000D01*
D45*
X96393000Y-90805000D02*
X96266000Y-90678000D01*
X96266000Y-90678000D02*
X95250000Y-90678000D01*
D47*
X109474000Y-98298000D02*
X109474000Y-93218000D01*
X109474000Y-93218000D02*
X107061000Y-90805000D01*
X107061000Y-90805000D02*
X103505000Y-90805000D01*
X103505000Y-90805000D02*
X99314000Y-90805000D01*
X99314000Y-90805000D02*
X96393000Y-90805000D01*
X96393000Y-90805000D02*
X96520000Y-90805000D01*
D51*
X110617000Y-133604000D02*
X111252000Y-132969000D01*
X111252000Y-132969000D02*
X111252000Y-130302000D01*
X111252000Y-130302000D02*
X110490000Y-129540000D01*
X110490000Y-129540000D02*
X110490000Y-125349000D01*
X110490000Y-125349000D02*
X109728000Y-124587000D01*
X109728000Y-124587000D02*
X109728000Y-115824000D01*
X110617000Y-136017000D02*
X110617000Y-133604000D01*
X110871000Y-114681000D02*
X109728000Y-115824000D01*
X105410000Y-104267000D02*
X110871000Y-109728000D01*
X110871000Y-109728000D02*
X110871000Y-114681000D01*
X105156000Y-96520000D02*
X104902000Y-96774000D01*
X104902000Y-96774000D02*
X104902000Y-99187000D01*
X104902000Y-99187000D02*
X105410000Y-99695000D01*
X105410000Y-99695000D02*
X105410000Y-104267000D01*
X105156000Y-96520000D02*
X105029000Y-96393000D01*
X105029000Y-96393000D02*
X105029000Y-94996000D01*
X103886000Y-93853000D02*
X105029000Y-94996000D01*
X93853000Y-93853000D02*
X103886000Y-93853000D01*
X88265000Y-87757000D02*
X88265000Y-88265000D01*
X88265000Y-88265000D02*
X93853000Y-93853000D01*
X84328000Y-85852000D02*
X86360000Y-85852000D01*
X86360000Y-85852000D02*
X88265000Y-87757000D01*
X102616000Y-138938000D02*
X102616000Y-136779000D01*
D47*
X103886000Y-140208000D02*
X102616000Y-138938000D01*
D51*
X104521000Y-99441000D02*
X104521000Y-95885000D01*
X105029000Y-99949000D02*
X104521000Y-99441000D01*
X105029000Y-104521000D02*
X105029000Y-99949000D01*
X110490000Y-109982000D02*
X105029000Y-104521000D01*
X110490000Y-114427000D02*
X110490000Y-109982000D01*
X109347000Y-115570000D02*
X110490000Y-114427000D01*
X109347000Y-124841000D02*
X109347000Y-115570000D01*
X110109000Y-125603000D02*
X109347000Y-124841000D01*
X110109000Y-129794000D02*
X110109000Y-125603000D01*
X110871000Y-130556000D02*
X110109000Y-129794000D01*
X110871000Y-132334000D02*
X110871000Y-130556000D01*
X110744000Y-132461000D02*
X110871000Y-132334000D01*
X107188000Y-133223000D02*
X107950000Y-132461000D01*
X106172000Y-133223000D02*
X107188000Y-133223000D01*
X102616000Y-136779000D02*
X106172000Y-133223000D01*
X85725000Y-86360000D02*
X86297198Y-86360000D01*
X86297198Y-86360000D02*
X87757000Y-87819802D01*
X104521000Y-95885000D02*
X104394000Y-95758000D01*
X104394000Y-95758000D02*
X104394000Y-94996000D01*
X103632000Y-94234000D02*
X104394000Y-94996000D01*
X93599000Y-94234000D02*
X103632000Y-94234000D01*
X87757000Y-87819802D02*
X87757000Y-88392000D01*
X87757000Y-88392000D02*
X93599000Y-94234000D01*
D50*
X112776000Y-84328000D02*
X112522000Y-84582000D01*
X112776000Y-80645000D02*
X112776000Y-84328000D01*
X110236000Y-78105000D02*
X112776000Y-80645000D01*
X110236000Y-76454000D02*
X110236000Y-78105000D01*
X108210000Y-74428000D02*
X110236000Y-76454000D01*
D51*
X109855000Y-89916000D02*
X94869000Y-89916000D01*
X94869000Y-89916000D02*
X94488000Y-90297000D01*
D50*
X110236000Y-89535000D02*
X110236000Y-84963000D01*
X109855000Y-89916000D02*
X110236000Y-89535000D01*
X110617000Y-84582000D02*
X110236000Y-84963000D01*
X112522000Y-84582000D02*
X110617000Y-84582000D01*
D47*
X108210000Y-73610500D02*
X108210000Y-74428000D01*
D51*
X93345000Y-85090000D02*
X90678000Y-82423000D01*
X90678000Y-82423000D02*
X90678000Y-79248000D01*
X90678000Y-79248000D02*
X94990000Y-74936000D01*
D47*
X94990000Y-74936000D02*
X94990000Y-73610500D01*
D51*
X93853000Y-90297000D02*
X93853000Y-90297000D01*
X93853000Y-90297000D02*
X93345000Y-89789000D01*
X93345000Y-89789000D02*
X93345000Y-85090000D01*
D47*
X93800000Y-81409000D02*
X94306000Y-81915000D01*
X94306000Y-81915000D02*
X97790000Y-81915000D01*
X101600000Y-70485000D02*
X103505000Y-68580000D01*
X103505000Y-68580000D02*
X106680000Y-68580000D01*
X99695000Y-68580000D02*
X96520000Y-68580000D01*
X97790000Y-70485000D02*
X95250000Y-70485000D01*
X105410000Y-70485000D02*
X107950000Y-70485000D01*
X103505000Y-72390000D02*
X103505000Y-76200000D01*
X99695000Y-72390000D02*
X99695000Y-76200000D01*
X99695000Y-76200000D02*
X103505000Y-76200000D01*
X101600000Y-78105000D02*
X101600000Y-74295000D01*
X99695000Y-80010000D02*
X103505000Y-80010000D01*
X105410000Y-81915000D02*
X108894000Y-81915000D01*
X108894000Y-81915000D02*
X109400000Y-81409000D01*
X97790000Y-81915000D02*
X101600000Y-81915000D01*
X140000000Y-114315000D02*
X139985000Y-114300000D01*
X139985000Y-114300000D02*
X135509000Y-114300000D01*
D45*
X132715000Y-114173000D02*
X133858000Y-114173000D01*
X133858000Y-114173000D02*
X133985000Y-114300000D01*
D51*
X70866000Y-129921000D02*
X73025000Y-132080000D01*
X71247000Y-103378000D02*
X71501000Y-103632000D01*
X71247000Y-79756000D02*
X71247000Y-103378000D01*
X72517000Y-78486000D02*
X71247000Y-79756000D01*
X71501000Y-103632000D02*
X71501000Y-117221000D01*
X71501000Y-117221000D02*
X70866000Y-117856000D01*
X70866000Y-117856000D02*
X70866000Y-129921000D01*
X71882000Y-119761000D02*
X71882000Y-118618000D01*
X71882000Y-118618000D02*
X72263000Y-118237000D01*
D47*
X72009000Y-120650000D02*
X71882000Y-120523000D01*
X71882000Y-120523000D02*
X71882000Y-119761000D01*
D51*
X72263000Y-100330000D02*
X72263000Y-118237000D01*
D47*
X72009000Y-120650000D02*
X72771000Y-121412000D01*
D51*
X72771000Y-121412000D02*
X74422000Y-123063000D01*
X74422000Y-123063000D02*
X74422000Y-133096000D01*
X72517000Y-79629000D02*
X71628000Y-80518000D01*
X71628000Y-80518000D02*
X71628000Y-99695000D01*
X71628000Y-99695000D02*
X72263000Y-100330000D01*
X98298000Y-96647000D02*
X98679000Y-96266000D01*
X102870000Y-97028000D02*
X102870000Y-99187000D01*
X103632000Y-95504000D02*
X103632000Y-96266000D01*
X103124000Y-94996000D02*
X103632000Y-95504000D01*
X94742000Y-96647000D02*
X98298000Y-96647000D01*
X86741000Y-88646000D02*
X94742000Y-96647000D01*
X86741000Y-88011000D02*
X86741000Y-88646000D01*
X86487000Y-87757000D02*
X86741000Y-88011000D01*
X85471000Y-87757000D02*
X86487000Y-87757000D01*
X102870000Y-99187000D02*
X103378000Y-99695000D01*
X103632000Y-96266000D02*
X102870000Y-97028000D01*
X84328000Y-86614000D02*
X85471000Y-87757000D01*
X98933000Y-94996000D02*
X103124000Y-94996000D01*
X98679000Y-95250000D02*
X98933000Y-94996000D01*
X98679000Y-96266000D02*
X98679000Y-95250000D01*
X105156000Y-138938000D02*
X105156000Y-136144000D01*
X105156000Y-136144000D02*
X108204000Y-133096000D01*
X109855000Y-130810000D02*
X109347000Y-130302000D01*
X109347000Y-130302000D02*
X109347000Y-126111000D01*
X109347000Y-126111000D02*
X108585000Y-125349000D01*
X108585000Y-125349000D02*
X108585000Y-115062000D01*
X109855000Y-132842000D02*
X109855000Y-130810000D01*
X110109000Y-133096000D02*
X109855000Y-132842000D01*
X109728000Y-113919000D02*
X108585000Y-115062000D01*
X104267000Y-105029000D02*
X109728000Y-110490000D01*
X109728000Y-110490000D02*
X109728000Y-113919000D01*
X104267000Y-100584000D02*
X104267000Y-105029000D01*
X103378000Y-99695000D02*
X104267000Y-100584000D01*
D47*
X106426000Y-140208000D02*
X105156000Y-138938000D01*
D51*
X73787000Y-87630000D02*
X73787000Y-86106000D01*
X73787000Y-86106000D02*
X74041000Y-85852000D01*
X74041000Y-85852000D02*
X82677000Y-85852000D01*
X82677000Y-85852000D02*
X94742000Y-97917000D01*
X96774000Y-101219000D02*
X100711000Y-101219000D01*
X94742000Y-97917000D02*
X94742000Y-99187000D01*
X94742000Y-99187000D02*
X96774000Y-101219000D01*
X100711000Y-101219000D02*
X100965000Y-101473000D01*
X100965000Y-105029000D02*
X100965000Y-101473000D01*
X94361000Y-114681000D02*
X99695000Y-120015000D01*
X99695000Y-120015000D02*
X99695000Y-123952000D01*
X99695000Y-123952000D02*
X100711000Y-124968000D01*
X100711000Y-124968000D02*
X106934000Y-124968000D01*
X106934000Y-124968000D02*
X108585000Y-126619000D01*
X109474000Y-131953000D02*
X108585000Y-131064000D01*
X108585000Y-131064000D02*
X108585000Y-126619000D01*
X109474000Y-134366000D02*
X109474000Y-131953000D01*
X100965000Y-105029000D02*
X94361000Y-111633000D01*
X94361000Y-111633000D02*
X94361000Y-114681000D01*
D47*
X108966000Y-137668000D02*
X108966000Y-136779000D01*
D51*
X108966000Y-136779000D02*
X108966000Y-134874000D01*
X108966000Y-134874000D02*
X109474000Y-134366000D01*
X75819000Y-87757000D02*
X81026000Y-87757000D01*
X81026000Y-87757000D02*
X92837000Y-99568000D01*
X92075000Y-107696000D02*
X92837000Y-106934000D01*
X92837000Y-106934000D02*
X92837000Y-99568000D01*
X114046000Y-136652000D02*
X112395000Y-135001000D01*
X112395000Y-135001000D02*
X112395000Y-129540000D01*
X92710000Y-109347000D02*
X92710000Y-108839000D01*
X75818968Y-87757032D02*
X75819000Y-87757000D01*
X75819000Y-87757000D02*
X74549000Y-89027000D01*
X92710000Y-108839000D02*
X92075000Y-108204000D01*
X92075000Y-108204000D02*
X92075000Y-107696000D01*
X74549000Y-89027000D02*
X72898000Y-89027000D01*
X72898000Y-89027000D02*
X72517000Y-88646000D01*
X72517000Y-88646000D02*
X72517000Y-82296000D01*
X112141000Y-109474000D02*
X112395000Y-109220000D01*
X110871000Y-116586000D02*
X112141000Y-115316000D01*
X112141000Y-115316000D02*
X112141000Y-109474000D01*
X111633000Y-124587000D02*
X110871000Y-123825000D01*
X110871000Y-123825000D02*
X110871000Y-116586000D01*
D47*
X114046000Y-137668000D02*
X114046000Y-136652000D01*
D51*
X112395000Y-129540000D02*
X111633000Y-128778000D01*
X111633000Y-128778000D02*
X111633000Y-124587000D01*
X81788000Y-134747000D02*
X81788000Y-125857000D01*
X81788000Y-125857000D02*
X81026000Y-125095000D01*
X81026000Y-117983000D02*
X81026000Y-125095000D01*
X81026000Y-117983000D02*
X80264000Y-117221000D01*
X83566000Y-136525000D02*
X81788000Y-134747000D01*
X92075000Y-108966000D02*
X91694000Y-108585000D01*
X91694000Y-108585000D02*
X91694000Y-107315000D01*
X81661000Y-89408000D02*
X82042000Y-89408000D01*
X82042000Y-89408000D02*
X92456000Y-99822000D01*
X92456000Y-99822000D02*
X92456000Y-106553000D01*
X92456000Y-106553000D02*
X91694000Y-107315000D01*
D47*
X83566000Y-137668000D02*
X83566000Y-136525000D01*
D51*
X81153000Y-134239000D02*
X81153000Y-129286000D01*
X77851000Y-127508000D02*
X79121000Y-128778000D01*
X79121000Y-128778000D02*
X80645000Y-128778000D01*
X80645000Y-128778000D02*
X81153000Y-129286000D01*
X80645000Y-118364000D02*
X80645000Y-123317000D01*
X79502000Y-117221000D02*
X79502000Y-112141000D01*
X79502000Y-112141000D02*
X77089000Y-109728000D01*
X75819000Y-96647000D02*
X77089000Y-97917000D01*
X75819000Y-94361000D02*
X75819000Y-96647000D01*
X77978000Y-92202000D02*
X75819000Y-94361000D01*
X77851000Y-126112900D02*
X77851000Y-127508000D01*
X80645000Y-123317000D02*
X77851000Y-126112900D01*
X77089000Y-97917000D02*
X77089000Y-109728000D01*
X77978000Y-91186000D02*
X77978000Y-92202000D01*
X79502000Y-117221000D02*
X80645000Y-118364000D01*
D47*
X82296000Y-138938000D02*
X83566000Y-140208000D01*
D51*
X82296000Y-136398000D02*
X82296000Y-138938000D01*
X81153000Y-134239000D02*
X81153000Y-135255000D01*
X81153000Y-135255000D02*
X82296000Y-136398000D01*
X76708000Y-125730000D02*
X76708000Y-133604000D01*
D47*
X79756000Y-138938000D02*
X78486000Y-140208000D01*
D51*
X79756000Y-138938000D02*
X79756000Y-136652000D01*
X76708000Y-125730000D02*
X78867000Y-123571000D01*
X76708000Y-133604000D02*
X79756000Y-136652000D01*
X88646000Y-104267000D02*
X89027000Y-104267000D01*
X87757000Y-104267000D02*
X87884000Y-104140000D01*
X87884000Y-104140000D02*
X87884000Y-102997000D01*
X87884000Y-102997000D02*
X88011000Y-102870000D01*
X88011000Y-102870000D02*
X88392000Y-102870000D01*
X88392000Y-102870000D02*
X88519000Y-102997000D01*
X88519000Y-102997000D02*
X88519000Y-104140000D01*
X88519000Y-104140000D02*
X88646000Y-104267000D01*
X86360000Y-101219000D02*
X87249000Y-102108000D01*
X86360000Y-101219000D02*
X86360000Y-98933000D01*
X87249000Y-104140000D02*
X87376000Y-104267000D01*
X87249000Y-102108000D02*
X87249000Y-104140000D01*
X87376000Y-104267000D02*
X87757000Y-104267000D01*
X90043000Y-104902000D02*
X89408000Y-105537000D01*
X88519000Y-105537000D02*
X89408000Y-105537000D01*
X89789000Y-104648000D02*
X90043000Y-104902000D01*
X89789000Y-102997000D02*
X89789000Y-104648000D01*
X89662000Y-102870000D02*
X89789000Y-102997000D01*
X89281000Y-102870000D02*
X89662000Y-102870000D01*
X89154000Y-102997000D02*
X89281000Y-102870000D01*
X89154000Y-104140000D02*
X89154000Y-102997000D01*
X89027000Y-104267000D02*
X89154000Y-104140000D01*
X87757000Y-106299000D02*
X88519000Y-105537000D01*
X87757000Y-106299000D02*
X87757000Y-120904000D01*
X87757000Y-120904000D02*
X89027000Y-122174000D01*
X89027000Y-122174000D02*
X89027000Y-124206000D01*
X89027000Y-124206000D02*
X89662000Y-124841000D01*
X85471000Y-115824000D02*
X85471000Y-120650000D01*
X85471000Y-120650000D02*
X85344000Y-120777000D01*
X87376000Y-124841000D02*
X90678000Y-128143000D01*
X85344000Y-120904000D02*
X87376000Y-122936000D01*
X87376000Y-122936000D02*
X87376000Y-124841000D01*
X85344000Y-120777000D02*
X85344000Y-120904000D01*
X90678000Y-128143000D02*
X90678000Y-128397000D01*
X90678000Y-130175000D02*
X90678000Y-128397000D01*
X90678000Y-130175000D02*
X95250000Y-134747000D01*
X82423000Y-102870000D02*
X83820000Y-104267000D01*
X83820000Y-104267000D02*
X83820000Y-104521000D01*
X85725000Y-115570000D02*
X85471000Y-115824000D01*
X82423000Y-97409000D02*
X82423000Y-102870000D01*
X83312000Y-94742000D02*
X83312000Y-96520000D01*
X83312000Y-96520000D02*
X82423000Y-97409000D01*
X85725000Y-114173000D02*
X85725000Y-115570000D01*
X84582000Y-113030000D02*
X85725000Y-114173000D01*
X83820000Y-104648000D02*
X83820000Y-104521000D01*
X83820000Y-104648000D02*
X84582000Y-105410000D01*
X84582000Y-105410000D02*
X84582000Y-113030000D01*
X74930000Y-122174000D02*
X74930000Y-126746000D01*
X73025000Y-98806000D02*
X73025000Y-118237000D01*
X73025000Y-118237000D02*
X73279000Y-118491000D01*
X73279000Y-118491000D02*
X73279000Y-120523000D01*
X72517000Y-91186000D02*
X72517000Y-98298000D01*
X72517000Y-98298000D02*
X73025000Y-98806000D01*
X73279000Y-120523000D02*
X74930000Y-122174000D01*
X87376000Y-129032000D02*
X87376000Y-131318000D01*
X87376000Y-131318000D02*
X92456000Y-136398000D01*
D47*
X92456000Y-138938000D02*
X93726000Y-140208000D01*
D51*
X92456000Y-136398000D02*
X92456000Y-138938000D01*
X77216000Y-93726000D02*
X76581000Y-94361000D01*
X79756000Y-94107000D02*
X79375000Y-93726000D01*
X79756000Y-107950000D02*
X79756000Y-94107000D01*
X82423000Y-110617000D02*
X79756000Y-107950000D01*
X83693000Y-122428000D02*
X83693000Y-115189000D01*
X85344000Y-126111000D02*
X85344000Y-124079000D01*
X85344000Y-124079000D02*
X83693000Y-122428000D01*
X79375000Y-93726000D02*
X77216000Y-93726000D01*
X83693000Y-115189000D02*
X82423000Y-113919000D01*
X88265000Y-129032000D02*
X85344000Y-126111000D01*
X82423000Y-113919000D02*
X82423000Y-110617000D01*
D47*
X93726000Y-137668000D02*
X93726000Y-136779000D01*
D51*
X93726000Y-136779000D02*
X88265000Y-131318000D01*
X88265000Y-129032000D02*
X88265000Y-131318000D01*
X84455000Y-121666000D02*
X86360000Y-123571000D01*
X83439000Y-113411000D02*
X84455000Y-114427000D01*
X89408000Y-128270000D02*
X89408000Y-130683000D01*
X86360000Y-125222000D02*
X89408000Y-128270000D01*
X84455000Y-114427000D02*
X84455000Y-121666000D01*
X89408000Y-130683000D02*
X92456000Y-133731000D01*
X83439000Y-109474000D02*
X83439000Y-113411000D01*
X86360000Y-123571000D02*
X86360000Y-125222000D01*
X80772000Y-96647000D02*
X80772000Y-107569000D01*
X80772000Y-107569000D02*
X82677000Y-109474000D01*
X82677000Y-109474000D02*
X83439000Y-109474000D01*
D47*
X94996000Y-138938000D02*
X96266000Y-140208000D01*
D51*
X94996000Y-136271000D02*
X94996000Y-138938000D01*
X92456000Y-133731000D02*
X94996000Y-136271000D01*
X78613000Y-92075000D02*
X80264000Y-93726000D01*
X80264000Y-93726000D02*
X80264000Y-96139000D01*
X80264000Y-96139000D02*
X80772000Y-96647000D01*
X72517000Y-89916000D02*
X77597000Y-89916000D01*
X77597000Y-89916000D02*
X78613000Y-90932000D01*
X78613000Y-90932000D02*
X78613000Y-92075000D01*
X85090000Y-115062000D02*
X84836000Y-115316000D01*
X84836000Y-121285000D02*
X84836000Y-115316000D01*
X86868000Y-123317000D02*
X86868000Y-124968000D01*
X84836000Y-121285000D02*
X86868000Y-123317000D01*
X90043000Y-128143000D02*
X90043000Y-129032000D01*
X86868000Y-124968000D02*
X90043000Y-128143000D01*
X82042000Y-97155000D02*
X82550000Y-96647000D01*
X82550000Y-96647000D02*
X82550000Y-94742000D01*
X84201000Y-105791000D02*
X83185000Y-104775000D01*
X83185000Y-104775000D02*
X83185000Y-104394000D01*
X83185000Y-104394000D02*
X82042000Y-103251000D01*
X85090000Y-115062000D02*
X85090000Y-114300000D01*
X85090000Y-114300000D02*
X84201000Y-113411000D01*
X82042000Y-103251000D02*
X82042000Y-97155000D01*
X84201000Y-113411000D02*
X84201000Y-105791000D01*
D47*
X96266000Y-136652000D02*
X96266000Y-137668000D01*
D51*
X90043000Y-129032000D02*
X90043000Y-130429000D01*
X90043000Y-130429000D02*
X96266000Y-136652000D01*
X81661000Y-90678000D02*
X82042000Y-90678000D01*
X82042000Y-90678000D02*
X85217000Y-93853000D01*
X87884000Y-124587000D02*
X91440000Y-128143000D01*
X91440000Y-128143000D02*
X91440000Y-129540000D01*
X86106000Y-120904000D02*
X87884000Y-122682000D01*
X84201000Y-98171000D02*
X84201000Y-102108000D01*
X85217000Y-93853000D02*
X85217000Y-97155000D01*
X97536000Y-136017000D02*
X97536000Y-138938000D01*
X91440000Y-129540000D02*
X91440000Y-129921000D01*
X85217000Y-97155000D02*
X84201000Y-98171000D01*
X86106000Y-113792000D02*
X86106000Y-120904000D01*
X84201000Y-102108000D02*
X85090000Y-102997000D01*
X85090000Y-102997000D02*
X85090000Y-112776000D01*
X85090000Y-112776000D02*
X86106000Y-113792000D01*
X87884000Y-122682000D02*
X87884000Y-124587000D01*
X91440000Y-129921000D02*
X93599000Y-132080000D01*
X93599000Y-132080000D02*
X97536000Y-136017000D01*
D47*
X97536000Y-138938000D02*
X98806000Y-140208000D01*
D51*
X106426000Y-128524000D02*
X105156000Y-129794000D01*
X105156000Y-129794000D02*
X105156000Y-131064000D01*
D47*
X106426000Y-127762000D02*
X106426000Y-128524000D01*
D51*
X81661000Y-90043000D02*
X82011172Y-90043000D01*
X82011172Y-90043000D02*
X85598000Y-93629828D01*
X98806000Y-136398000D02*
X92075000Y-129667000D01*
X92075000Y-129667000D02*
X92075000Y-128143000D01*
X92075000Y-128143000D02*
X88392000Y-124460000D01*
X98806000Y-136398000D02*
X99822000Y-136398000D01*
X99822000Y-136398000D02*
X105156000Y-131064000D01*
X84582000Y-98425000D02*
X84582000Y-101854000D01*
X85598000Y-93629828D02*
X85598000Y-97409000D01*
X86614000Y-113538000D02*
X86614000Y-120650000D01*
X85598000Y-97409000D02*
X84582000Y-98425000D01*
X84582000Y-101854000D02*
X85471000Y-102743000D01*
X85471000Y-112395000D02*
X86614000Y-113538000D01*
X85471000Y-102743000D02*
X85471000Y-112395000D01*
X86614000Y-120650000D02*
X88392000Y-122428000D01*
X88392000Y-122428000D02*
X88392000Y-124460000D01*
D47*
X98806000Y-136398000D02*
X98806000Y-137668000D01*
D51*
X86106000Y-88265000D02*
X86106000Y-88646000D01*
X86106000Y-88646000D02*
X95123000Y-97663000D01*
X95123000Y-97663000D02*
X95123000Y-98933000D01*
X95123000Y-98933000D02*
X97028000Y-100838000D01*
X97028000Y-100838000D02*
X101092000Y-100838000D01*
X101092000Y-100838000D02*
X101727000Y-101473000D01*
X101727000Y-101473000D02*
X101727000Y-101981000D01*
X101346000Y-105283000D02*
X101346000Y-102362000D01*
X101346000Y-102362000D02*
X101727000Y-101981000D01*
X94742000Y-114427000D02*
X100076000Y-119761000D01*
X100076000Y-119761000D02*
X100076000Y-123698000D01*
X100076000Y-123698000D02*
X100965000Y-124587000D01*
X100965000Y-124587000D02*
X107188000Y-124587000D01*
X107188000Y-124587000D02*
X108966000Y-126365000D01*
X109347000Y-131064000D02*
X108966000Y-130683000D01*
X108966000Y-130683000D02*
X108966000Y-126365000D01*
X101340708Y-105288292D02*
X101346000Y-105283000D01*
X101346000Y-105283000D02*
X94742000Y-111887000D01*
X94742000Y-111887000D02*
X94742000Y-114427000D01*
D47*
X101346000Y-140208000D02*
X100076000Y-138938000D01*
D51*
X100076000Y-138938000D02*
X100076000Y-136906000D01*
X100076000Y-136906000D02*
X104902000Y-132080000D01*
X104902000Y-132080000D02*
X106426000Y-132080000D01*
X106426000Y-132080000D02*
X106680000Y-131826000D01*
D47*
X131064000Y-134239000D02*
X130556000Y-133731000D01*
X130556000Y-133731000D02*
X130556000Y-133350000D01*
X131064000Y-134239000D02*
X131064000Y-133858000D01*
X131064000Y-133858000D02*
X130556000Y-133350000D01*
D48*
X127508000Y-130048000D02*
X129667000Y-130048000D01*
X129667000Y-130048000D02*
X130556000Y-130937000D01*
X130556000Y-130937000D02*
X130556000Y-133350000D01*
D47*
X125603000Y-128143000D02*
X125222000Y-128143000D01*
D48*
X127508000Y-130048000D02*
X125603000Y-128143000D01*
D47*
X125222000Y-128143000D02*
X125222000Y-127127000D01*
X131064000Y-135128000D02*
X131064000Y-134239000D01*
D51*
X75311000Y-107061000D02*
X75438000Y-107188000D01*
X75438000Y-107188000D02*
X75438000Y-110744000D01*
X75438000Y-110744000D02*
X77597000Y-112903000D01*
X77597000Y-112903000D02*
X77597000Y-113411000D01*
X75819000Y-106553000D02*
X75692000Y-106426000D01*
X75819000Y-110490000D02*
X75819000Y-106553000D01*
X75819000Y-110490000D02*
X78105000Y-112776000D01*
X78105000Y-112776000D02*
X78105000Y-112903000D01*
X133096000Y-137033000D02*
X132715000Y-136652000D01*
X114858800Y-122047000D02*
X114046000Y-122047000D01*
X114046000Y-122047000D02*
X113919000Y-121920000D01*
X130556000Y-128524000D02*
X132334000Y-130302000D01*
X132334000Y-130302000D02*
X132334000Y-133045200D01*
X128397000Y-128524000D02*
X125730000Y-125857000D01*
X128397000Y-128524000D02*
X130556000Y-128524000D01*
X118110000Y-127000000D02*
X115316000Y-124206000D01*
X115316000Y-124206000D02*
X115316000Y-122504200D01*
X115316000Y-122504200D02*
X114858800Y-122047000D01*
X123952000Y-125857000D02*
X122809000Y-127000000D01*
X122809000Y-127000000D02*
X118110000Y-127000000D01*
X125730000Y-125857000D02*
X123952000Y-125857000D01*
X132715000Y-133426200D02*
X132334000Y-133045200D01*
X132715000Y-136652000D02*
X132715000Y-133426200D01*
X132334000Y-133604000D02*
X132334000Y-137033000D01*
X132334000Y-133604000D02*
X131953000Y-133223000D01*
X114935000Y-122682000D02*
X114681000Y-122428000D01*
X114681000Y-122428000D02*
X114300000Y-122428000D01*
X114300000Y-122428000D02*
X114173000Y-122555000D01*
X131953000Y-133223000D02*
X131953000Y-130505200D01*
X122986800Y-127381000D02*
X117932200Y-127381000D01*
X117932200Y-127381000D02*
X114935000Y-124383800D01*
X131953000Y-130505200D02*
X130352800Y-128905000D01*
X130352800Y-128905000D02*
X128219200Y-128905000D01*
X128219200Y-128905000D02*
X125552200Y-126238000D01*
X125552200Y-126238000D02*
X124129800Y-126238000D01*
X124129800Y-126238000D02*
X122986800Y-127381000D01*
X114935000Y-124383800D02*
X114935000Y-122682000D01*
X87249000Y-106045000D02*
X87249000Y-118999000D01*
X88392000Y-104902000D02*
X89281000Y-104902000D01*
X87249000Y-106045000D02*
X88392000Y-104902000D01*
D45*
X120015000Y-112776000D02*
X120015000Y-111379000D01*
D51*
X78740000Y-116205000D02*
X76327000Y-118618000D01*
X76326998Y-101346000D02*
X76326998Y-101346000D01*
X76327000Y-118618000D02*
X76327000Y-120396000D01*
X76327000Y-120396000D02*
X77851000Y-121920000D01*
X77851000Y-121920000D02*
X78486000Y-121920000D01*
X78486000Y-121920000D02*
X79375000Y-122809000D01*
X76326998Y-110235998D02*
X78740000Y-112649000D01*
X76326998Y-101346000D02*
X76326998Y-110235998D01*
X78740000Y-112649000D02*
X78740000Y-116205000D01*
X76073000Y-99949000D02*
X76326998Y-100202998D01*
X76073000Y-99314000D02*
X76073000Y-99949000D01*
X76326998Y-100202998D02*
X76326998Y-101346000D01*
D50*
G36*
X127836428Y-100683218D02*
X128942957Y-101791680D01*
X129115876Y-101863482D01*
X133260197Y-106007803D01*
X133301399Y-106035333D01*
X133350000Y-106045000D01*
X138526662Y-106045000D01*
X138269119Y-106302543D01*
X138431850Y-106465274D01*
X138184732Y-106624053D01*
X138058497Y-107371321D01*
X138184732Y-108005947D01*
X138431852Y-108164727D01*
X139281580Y-107315000D01*
X139267437Y-107300858D01*
X139985858Y-106582437D01*
X140000000Y-106596580D01*
X140014142Y-106582437D01*
X140732563Y-107300858D01*
X140718420Y-107315000D01*
X141568148Y-108164727D01*
X141815268Y-108005947D01*
X141941503Y-107258679D01*
X141815268Y-106624053D01*
X141568150Y-106465274D01*
X141730881Y-106302543D01*
X141473338Y-106045000D01*
X144145000Y-106045000D01*
X144145000Y-131768791D01*
X144078889Y-131402321D01*
X144063062Y-131364111D01*
X143862324Y-131319229D01*
X143355553Y-131826000D01*
X143862324Y-132332771D01*
X144063062Y-132287889D01*
X144145000Y-131911264D01*
X144145000Y-135889311D01*
X143921016Y-135689404D01*
X143791494Y-135818926D01*
X143786711Y-135794882D01*
X143581791Y-135734474D01*
X143045264Y-136271000D01*
X143192342Y-136418078D01*
X142894922Y-136715498D01*
X142853586Y-136674162D01*
X142726742Y-136801006D01*
X142621000Y-136695264D01*
X142084474Y-137231791D01*
X142144882Y-137436711D01*
X142169030Y-137441390D01*
X141688420Y-137922000D01*
X142168926Y-138402506D01*
X142144882Y-138407289D01*
X142084474Y-138612209D01*
X142621000Y-139148736D01*
X142726742Y-139042994D01*
X142853586Y-139169838D01*
X142894922Y-139128502D01*
X143192342Y-139425922D01*
X143045264Y-139573000D01*
X143581791Y-140109526D01*
X143786711Y-140049118D01*
X143791390Y-140024970D01*
X143921016Y-140154596D01*
X144145000Y-139954689D01*
X144145000Y-141097000D01*
X143002689Y-141097000D01*
X143202596Y-140873016D01*
X143073074Y-140743494D01*
X143097118Y-140738711D01*
X143157526Y-140533791D01*
X142621000Y-139997264D01*
X142473922Y-140144342D01*
X142176502Y-139846922D01*
X142217838Y-139805586D01*
X142090994Y-139678742D01*
X142196736Y-139573000D01*
X141660209Y-139036474D01*
X141455289Y-139096882D01*
X141450610Y-139121030D01*
X140970000Y-138640420D01*
X140955858Y-138654563D01*
X140237438Y-137936143D01*
X140251580Y-137922000D01*
X139771074Y-137441494D01*
X139795118Y-137436711D01*
X139855526Y-137231791D01*
X139319000Y-136695264D01*
X139213258Y-136801006D01*
X139086414Y-136674162D01*
X139045078Y-136715498D01*
X138747658Y-136418078D01*
X138894736Y-136271000D01*
X138358209Y-135734474D01*
X138153289Y-135794882D01*
X138148610Y-135819030D01*
X138018984Y-135689404D01*
X137584414Y-136077260D01*
X137769047Y-135720029D01*
X137648627Y-135533000D01*
X136900000Y-135533000D01*
X136900000Y-136416593D01*
X137083716Y-136519329D01*
X137188325Y-136447956D01*
X137551083Y-136141749D01*
X137570061Y-136105030D01*
X137225420Y-137219356D01*
X137188325Y-137188044D01*
X137083716Y-137116671D01*
X136900000Y-137219407D01*
X136900000Y-138103000D01*
X137128000Y-138103000D01*
X137128000Y-139003000D01*
X136900000Y-139003000D01*
X136900000Y-139081000D01*
X136300000Y-139081000D01*
X136300000Y-139003000D01*
X135551373Y-139003000D01*
X135430953Y-139190029D01*
X135648917Y-139611749D01*
X136011675Y-139917956D01*
X136091998Y-139972759D01*
X136091998Y-140081000D01*
X129908002Y-140081000D01*
X129908002Y-139972759D01*
X129988325Y-139917956D01*
X130351083Y-139611749D01*
X130569047Y-139190029D01*
X130448627Y-139003000D01*
X129700000Y-139003000D01*
X129700000Y-139081000D01*
X129100000Y-139081000D01*
X129100000Y-139003000D01*
X128351373Y-139003000D01*
X128230953Y-139190029D01*
X128448917Y-139611749D01*
X128811675Y-139917956D01*
X128891998Y-139972759D01*
X128891998Y-140081000D01*
X128270000Y-140081000D01*
X128143089Y-140106244D01*
X128143242Y-139931339D01*
X128143000Y-139930753D01*
X128143000Y-137915971D01*
X128230953Y-137915971D01*
X128351373Y-138103000D01*
X129100000Y-138103000D01*
X129100000Y-137219407D01*
X129700000Y-137219407D01*
X129700000Y-138103000D01*
X130448627Y-138103000D01*
X130569047Y-137915971D01*
X135430953Y-137915971D01*
X135551373Y-138103000D01*
X136300000Y-138103000D01*
X136300000Y-137219407D01*
X136116284Y-137116671D01*
X136011675Y-137188044D01*
X135648917Y-137494251D01*
X135430953Y-137915971D01*
X130569047Y-137915971D01*
X130351083Y-137494251D01*
X129988325Y-137188044D01*
X129883716Y-137116671D01*
X129700000Y-137219407D01*
X129100000Y-137219407D01*
X128916284Y-137116671D01*
X128811675Y-137188044D01*
X128448917Y-137494251D01*
X128230953Y-137915971D01*
X128143000Y-137915971D01*
X128143000Y-137668647D01*
X128143242Y-137391339D01*
X128096291Y-137277709D01*
X128143000Y-137287000D01*
X128288154Y-137258127D01*
X128288163Y-137258127D01*
X128288171Y-137258124D01*
X128434605Y-137228996D01*
X128557661Y-137146772D01*
X128557669Y-137146769D01*
X128557675Y-137146763D01*
X128681815Y-137063815D01*
X128764038Y-136940760D01*
X128764045Y-136940753D01*
X128764049Y-136940744D01*
X128846996Y-136816605D01*
X128875870Y-136671448D01*
X128875872Y-136671442D01*
X128875872Y-136671436D01*
X128905000Y-136525000D01*
X128901923Y-136509531D01*
X128916284Y-136519329D01*
X129100000Y-136416593D01*
X129100000Y-135533000D01*
X128872000Y-135533000D01*
X128872000Y-134633000D01*
X129100000Y-134633000D01*
X129100000Y-134555000D01*
X129700000Y-134555000D01*
X129700000Y-134633000D01*
X129928000Y-134633000D01*
X129928000Y-135533000D01*
X129700000Y-135533000D01*
X129700000Y-136416593D01*
X129883716Y-136519329D01*
X129988325Y-136447956D01*
X130192110Y-136275939D01*
X130191860Y-136563016D01*
X130314611Y-136860097D01*
X130541707Y-137087590D01*
X130838574Y-137210860D01*
X131160016Y-137211140D01*
X131457097Y-137088389D01*
X131601077Y-136944660D01*
X131600873Y-137178163D01*
X131712231Y-137447669D01*
X131918247Y-137654045D01*
X132187558Y-137765872D01*
X132479163Y-137766127D01*
X132715248Y-137668578D01*
X132949558Y-137765872D01*
X133241163Y-137766127D01*
X133510669Y-137654769D01*
X133717045Y-137448753D01*
X133828872Y-137179442D01*
X133829127Y-136887837D01*
X133717769Y-136618331D01*
X133662551Y-136563016D01*
X134191860Y-136563016D01*
X134314611Y-136860097D01*
X134541707Y-137087590D01*
X134838574Y-137210860D01*
X135160016Y-137211140D01*
X135457097Y-137088389D01*
X135684590Y-136861293D01*
X135807860Y-136564426D01*
X135808111Y-136276126D01*
X136011675Y-136447956D01*
X136116284Y-136519329D01*
X136300000Y-136416593D01*
X136300000Y-135533000D01*
X135551373Y-135533000D01*
X135437543Y-135709794D01*
X135161426Y-135595140D01*
X134839984Y-135594860D01*
X134542903Y-135717611D01*
X134315410Y-135944707D01*
X134192140Y-136241574D01*
X134191860Y-136563016D01*
X133662551Y-136563016D01*
X133511753Y-136411955D01*
X133324600Y-136334243D01*
X133324600Y-134970984D01*
X138737404Y-134970984D01*
X138866926Y-135100506D01*
X138842882Y-135105289D01*
X138782474Y-135310209D01*
X139319000Y-135846736D01*
X139466078Y-135699658D01*
X139763498Y-135997078D01*
X139722162Y-136038414D01*
X139849006Y-136165258D01*
X139743264Y-136271000D01*
X140279791Y-136807526D01*
X140484711Y-136747118D01*
X140489390Y-136722970D01*
X140970000Y-137203580D01*
X141450506Y-136723074D01*
X141455289Y-136747118D01*
X141660209Y-136807526D01*
X142196736Y-136271000D01*
X142090994Y-136165258D01*
X142217838Y-136038414D01*
X142176502Y-135997078D01*
X142473922Y-135699658D01*
X142621000Y-135846736D01*
X143157526Y-135310209D01*
X143097118Y-135105289D01*
X143072970Y-135100610D01*
X143202596Y-134970984D01*
X142807634Y-134528452D01*
X141369098Y-134083539D01*
X139869803Y-134222996D01*
X139132366Y-134528452D01*
X138737404Y-134970984D01*
X133324600Y-134970984D01*
X133324600Y-134445971D01*
X135430953Y-134445971D01*
X135551373Y-134633000D01*
X136300000Y-134633000D01*
X136300000Y-133749407D01*
X136900000Y-133749407D01*
X136900000Y-134633000D01*
X137648627Y-134633000D01*
X137769047Y-134445971D01*
X137551083Y-134024251D01*
X137188325Y-133718044D01*
X137083716Y-133646671D01*
X136900000Y-133749407D01*
X136300000Y-133749407D01*
X136116284Y-133646671D01*
X136011675Y-133718044D01*
X135648917Y-134024251D01*
X135430953Y-134445971D01*
X133324600Y-134445971D01*
X133324600Y-133426200D01*
X133278197Y-133192916D01*
X133236661Y-133130753D01*
X133146052Y-132995147D01*
X132943600Y-132792696D01*
X132943600Y-130302000D01*
X132897197Y-130068716D01*
X132765052Y-129870948D01*
X130987052Y-128092948D01*
X130789284Y-127960803D01*
X130556000Y-127914400D01*
X128649505Y-127914400D01*
X126161052Y-125425948D01*
X125963284Y-125293803D01*
X125730000Y-125247400D01*
X123952000Y-125247400D01*
X123718716Y-125293803D01*
X123520948Y-125425948D01*
X122556496Y-126390400D01*
X118362505Y-126390400D01*
X115925600Y-123953496D01*
X115925600Y-122504200D01*
X115879197Y-122270916D01*
X115847634Y-122223679D01*
X115747052Y-122073147D01*
X115289852Y-121615948D01*
X115092084Y-121483803D01*
X114858800Y-121437400D01*
X114472956Y-121437400D01*
X114334753Y-121298955D01*
X114133616Y-121215436D01*
X114817023Y-120532028D01*
X114817026Y-120532026D01*
X115092327Y-120120008D01*
X115189000Y-119634000D01*
X115189000Y-113538000D01*
X118049752Y-113538000D01*
X118124753Y-113650247D01*
X118292788Y-113762525D01*
X118491000Y-113801952D01*
X119253000Y-113801952D01*
X119443500Y-113764059D01*
X119634000Y-113801952D01*
X120396000Y-113801952D01*
X120586500Y-113764059D01*
X120777000Y-113801952D01*
X121086429Y-113801952D01*
X121306992Y-113949327D01*
X121793000Y-114046000D01*
X123679948Y-114046000D01*
X126746000Y-117112051D01*
X126746000Y-120758802D01*
X126569338Y-121023194D01*
X126492000Y-121412000D01*
X126542524Y-121666000D01*
X126129051Y-121666000D01*
X122691026Y-118227974D01*
X122279008Y-117952673D01*
X121793000Y-117855999D01*
X121665998Y-117881261D01*
X121539000Y-117856000D01*
X119507000Y-117856000D01*
X119118194Y-117933338D01*
X118788580Y-118153580D01*
X118568338Y-118483194D01*
X118491000Y-118872000D01*
X118568338Y-119260806D01*
X118788580Y-119590420D01*
X119118194Y-119810662D01*
X119507000Y-119888000D01*
X120804085Y-119888000D01*
X120894974Y-120024026D01*
X124704972Y-123834023D01*
X124704974Y-123834026D01*
X124988996Y-124023803D01*
X125116992Y-124109327D01*
X125603000Y-124206001D01*
X125603005Y-124206000D01*
X126727948Y-124206000D01*
X129022972Y-126501023D01*
X129022974Y-126501026D01*
X129354434Y-126722500D01*
X129434992Y-126776327D01*
X129921000Y-126873001D01*
X129921005Y-126873000D01*
X135490948Y-126873000D01*
X137644696Y-129026748D01*
X137553912Y-129044806D01*
X137477996Y-129253802D01*
X138043920Y-129819725D01*
X138169785Y-129693860D01*
X138664760Y-130188835D01*
X138538895Y-130314700D01*
X138664760Y-130440565D01*
X138169785Y-130935540D01*
X138043920Y-130809675D01*
X137918055Y-130935540D01*
X137423080Y-130440565D01*
X137548945Y-130314700D01*
X136983022Y-129748776D01*
X136774026Y-129824692D01*
X136683172Y-130347959D01*
X136774026Y-130804708D01*
X136819111Y-130821085D01*
X136723986Y-130916210D01*
X137032783Y-131225007D01*
X136980213Y-131260133D01*
X136867935Y-131428168D01*
X136828508Y-131626380D01*
X136828508Y-132064717D01*
X136776460Y-132326380D01*
X136828508Y-132588043D01*
X136828508Y-133026380D01*
X136867935Y-133224592D01*
X136980213Y-133392627D01*
X137148248Y-133504905D01*
X137346460Y-133544332D01*
X137784797Y-133544332D01*
X138046460Y-133596380D01*
X138691615Y-133596380D01*
X138691620Y-133596381D01*
X139177628Y-133499707D01*
X139589646Y-133224406D01*
X140127727Y-132686324D01*
X142495229Y-132686324D01*
X142540111Y-132887062D01*
X142981321Y-132983051D01*
X143425679Y-132902889D01*
X143463889Y-132887062D01*
X143508771Y-132686324D01*
X143002000Y-132179553D01*
X142495229Y-132686324D01*
X140127727Y-132686324D01*
X140844403Y-131969648D01*
X140844406Y-131969646D01*
X140954204Y-131805321D01*
X141844949Y-131805321D01*
X141925111Y-132249679D01*
X141940938Y-132287889D01*
X142141676Y-132332771D01*
X142648447Y-131826000D01*
X142141676Y-131319229D01*
X141940938Y-131364111D01*
X141844949Y-131805321D01*
X140954204Y-131805321D01*
X141119707Y-131557628D01*
X141137058Y-131470400D01*
X141216381Y-131071620D01*
X141216380Y-131071615D01*
X141216380Y-130965676D01*
X142495229Y-130965676D01*
X143002000Y-131472447D01*
X143508771Y-130965676D01*
X143463889Y-130764938D01*
X143022679Y-130668949D01*
X142578321Y-130749111D01*
X142540111Y-130764938D01*
X142495229Y-130965676D01*
X141216380Y-130965676D01*
X141216380Y-130018882D01*
X141496163Y-130019127D01*
X141733648Y-129921000D01*
X142211608Y-129921000D01*
X142430268Y-130140043D01*
X142800617Y-130293825D01*
X143201624Y-130294175D01*
X143572240Y-130141039D01*
X143856043Y-129857732D01*
X144009825Y-129487383D01*
X144010175Y-129086376D01*
X143857039Y-128715760D01*
X143573732Y-128431957D01*
X143203383Y-128278175D01*
X142802376Y-128277825D01*
X142431760Y-128430961D01*
X142211336Y-128651000D01*
X141733145Y-128651000D01*
X141497442Y-128553128D01*
X141205837Y-128552873D01*
X140936331Y-128664231D01*
X140893163Y-128707324D01*
X140844406Y-128634354D01*
X140844403Y-128634352D01*
X139147003Y-126936952D01*
X141732000Y-126936952D01*
X141930212Y-126897525D01*
X142098247Y-126785247D01*
X142210525Y-126617212D01*
X142249952Y-126419000D01*
X142249952Y-123371000D01*
X142210525Y-123172788D01*
X142098247Y-123004753D01*
X141930212Y-122892475D01*
X141732000Y-122853048D01*
X138822000Y-122853048D01*
X138822000Y-122827000D01*
X137812000Y-122827000D01*
X137812000Y-124986503D01*
X138015952Y-125077189D01*
X138166048Y-125000441D01*
X138166048Y-125955996D01*
X137062000Y-124851948D01*
X137062000Y-122827000D01*
X136052000Y-122827000D01*
X136052000Y-124327000D01*
X136061002Y-124341752D01*
X136017000Y-124332999D01*
X136016995Y-124333000D01*
X132103506Y-124333000D01*
X132195000Y-123873032D01*
X132195000Y-120764968D01*
X132104700Y-120311000D01*
X136052000Y-120311000D01*
X136052000Y-121811000D01*
X137062000Y-121811000D01*
X137062000Y-119651497D01*
X137812000Y-119651497D01*
X137812000Y-121811000D01*
X138822000Y-121811000D01*
X138822000Y-121618585D01*
X139012419Y-121809004D01*
X139168295Y-121653128D01*
X139360016Y-121926411D01*
X140201951Y-122096288D01*
X141044809Y-121931040D01*
X141055984Y-121926411D01*
X141247706Y-121653127D01*
X140208000Y-120613420D01*
X140193858Y-120627563D01*
X139475437Y-119909142D01*
X139489580Y-119895000D01*
X140926420Y-119895000D01*
X141966127Y-120934706D01*
X142239411Y-120742984D01*
X142409288Y-119901049D01*
X142244040Y-119058191D01*
X142239411Y-119047016D01*
X141966127Y-118855294D01*
X140926420Y-119895000D01*
X139489580Y-119895000D01*
X138449873Y-118855294D01*
X138176589Y-119047016D01*
X138067593Y-119587216D01*
X138015952Y-119560811D01*
X137812000Y-119651497D01*
X137062000Y-119651497D01*
X136858048Y-119560811D01*
X136351830Y-119819653D01*
X136052000Y-120311000D01*
X132104700Y-120311000D01*
X132099240Y-120283552D01*
X131826540Y-119875428D01*
X131418416Y-119602728D01*
X130937000Y-119506968D01*
X130455584Y-119602728D01*
X130047460Y-119875428D01*
X129774760Y-120283552D01*
X129679000Y-120764968D01*
X129679000Y-123564949D01*
X128539057Y-122425005D01*
X128912806Y-122350662D01*
X129242420Y-122130420D01*
X129462662Y-121800806D01*
X129540000Y-121412000D01*
X129462662Y-121023194D01*
X129286000Y-120758802D01*
X129286000Y-118447952D01*
X131478811Y-118447952D01*
X131737653Y-118954170D01*
X132229000Y-119254000D01*
X133729000Y-119254000D01*
X133729000Y-118244000D01*
X134745000Y-118244000D01*
X134745000Y-119254000D01*
X136245000Y-119254000D01*
X136736347Y-118954170D01*
X136995189Y-118447952D01*
X136904503Y-118244000D01*
X134745000Y-118244000D01*
X133729000Y-118244000D01*
X131569497Y-118244000D01*
X131478811Y-118447952D01*
X129286000Y-118447952D01*
X129286000Y-118136873D01*
X139168294Y-118136873D01*
X140208000Y-119176580D01*
X141247706Y-118136873D01*
X141055984Y-117863589D01*
X140214049Y-117693712D01*
X139371191Y-117858960D01*
X139360016Y-117863589D01*
X139168294Y-118136873D01*
X129286000Y-118136873D01*
X129286000Y-117290048D01*
X131478811Y-117290048D01*
X131569497Y-117494000D01*
X133729000Y-117494000D01*
X133729000Y-116484000D01*
X134745000Y-116484000D01*
X134745000Y-117494000D01*
X136904503Y-117494000D01*
X136995189Y-117290048D01*
X136736347Y-116783830D01*
X136245000Y-116484000D01*
X134745000Y-116484000D01*
X133729000Y-116484000D01*
X132229000Y-116484000D01*
X131737653Y-116783830D01*
X131478811Y-117290048D01*
X129286000Y-117290048D01*
X129286000Y-116586005D01*
X129286001Y-116586000D01*
X129189327Y-116099992D01*
X129126655Y-116006197D01*
X128914026Y-115687974D01*
X128914023Y-115687972D01*
X127588774Y-114362722D01*
X131756834Y-114362722D01*
X131902374Y-114714954D01*
X132171628Y-114984679D01*
X132523606Y-115130833D01*
X132889025Y-115131152D01*
X132922275Y-115298312D01*
X133034553Y-115466347D01*
X133202588Y-115578625D01*
X133400800Y-115618052D01*
X134569200Y-115618052D01*
X134747000Y-115582685D01*
X134924800Y-115618052D01*
X136093200Y-115618052D01*
X136291412Y-115578625D01*
X136459447Y-115466347D01*
X136559906Y-115316000D01*
X138489806Y-115316000D01*
X138491806Y-115320840D01*
X138991529Y-115821436D01*
X139644782Y-116092691D01*
X140352114Y-116093308D01*
X141005840Y-115823194D01*
X141506436Y-115323471D01*
X141777691Y-114670218D01*
X141778308Y-113962886D01*
X141508194Y-113309160D01*
X141008471Y-112808564D01*
X140421266Y-112564735D01*
X141005840Y-112323194D01*
X141506436Y-111823471D01*
X141777691Y-111170218D01*
X141778308Y-110462886D01*
X141508194Y-109809160D01*
X141008471Y-109308564D01*
X140615317Y-109145312D01*
X140690947Y-109130268D01*
X140849727Y-108883148D01*
X140000000Y-108033420D01*
X139150273Y-108883148D01*
X139309053Y-109130268D01*
X139388808Y-109143741D01*
X138994160Y-109306806D01*
X138493564Y-109806529D01*
X138222309Y-110459782D01*
X138221692Y-111167114D01*
X138491806Y-111820840D01*
X138991529Y-112321436D01*
X139578734Y-112565265D01*
X138994160Y-112806806D01*
X138516132Y-113284000D01*
X136559906Y-113284000D01*
X136459447Y-113133653D01*
X136291412Y-113021375D01*
X136093200Y-112981948D01*
X134924800Y-112981948D01*
X134747000Y-113017315D01*
X134569200Y-112981948D01*
X133400800Y-112981948D01*
X133202588Y-113021375D01*
X133034553Y-113133653D01*
X132964081Y-113239121D01*
X132906394Y-113215167D01*
X132525278Y-113214834D01*
X132173046Y-113360374D01*
X131903321Y-113629628D01*
X131757167Y-113981606D01*
X131756834Y-114362722D01*
X127588774Y-114362722D01*
X125104026Y-111877974D01*
X124692008Y-111602673D01*
X124206000Y-111505999D01*
X124205995Y-111506000D01*
X123063000Y-111506000D01*
X123063000Y-110236000D01*
X122966327Y-109749992D01*
X122691026Y-109337974D01*
X122691023Y-109337972D01*
X120278026Y-106924974D01*
X119866008Y-106649673D01*
X119380000Y-106552999D01*
X119379995Y-106553000D01*
X117239052Y-106553000D01*
X117094000Y-106407948D01*
X117094000Y-106045000D01*
X116997327Y-105558992D01*
X116722026Y-105146974D01*
X116722023Y-105146972D01*
X115570000Y-103994948D01*
X115570000Y-100584000D01*
X127795432Y-100584000D01*
X127836428Y-100683218D01*
X127836428Y-100683218D01*
G37*
X127836428Y-100683218D02*
X128942957Y-101791680D01*
X129115876Y-101863482D01*
X133260197Y-106007803D01*
X133301399Y-106035333D01*
X133350000Y-106045000D01*
X138526662Y-106045000D01*
X138269119Y-106302543D01*
X138431850Y-106465274D01*
X138184732Y-106624053D01*
X138058497Y-107371321D01*
X138184732Y-108005947D01*
X138431852Y-108164727D01*
X139281580Y-107315000D01*
X139267437Y-107300858D01*
X139985858Y-106582437D01*
X140000000Y-106596580D01*
X140014142Y-106582437D01*
X140732563Y-107300858D01*
X140718420Y-107315000D01*
X141568148Y-108164727D01*
X141815268Y-108005947D01*
X141941503Y-107258679D01*
X141815268Y-106624053D01*
X141568150Y-106465274D01*
X141730881Y-106302543D01*
X141473338Y-106045000D01*
X144145000Y-106045000D01*
X144145000Y-131768791D01*
X144078889Y-131402321D01*
X144063062Y-131364111D01*
X143862324Y-131319229D01*
X143355553Y-131826000D01*
X143862324Y-132332771D01*
X144063062Y-132287889D01*
X144145000Y-131911264D01*
X144145000Y-135889311D01*
X143921016Y-135689404D01*
X143791494Y-135818926D01*
X143786711Y-135794882D01*
X143581791Y-135734474D01*
X143045264Y-136271000D01*
X143192342Y-136418078D01*
X142894922Y-136715498D01*
X142853586Y-136674162D01*
X142726742Y-136801006D01*
X142621000Y-136695264D01*
X142084474Y-137231791D01*
X142144882Y-137436711D01*
X142169030Y-137441390D01*
X141688420Y-137922000D01*
X142168926Y-138402506D01*
X142144882Y-138407289D01*
X142084474Y-138612209D01*
X142621000Y-139148736D01*
X142726742Y-139042994D01*
X142853586Y-139169838D01*
X142894922Y-139128502D01*
X143192342Y-139425922D01*
X143045264Y-139573000D01*
X143581791Y-140109526D01*
X143786711Y-140049118D01*
X143791390Y-140024970D01*
X143921016Y-140154596D01*
X144145000Y-139954689D01*
X144145000Y-141097000D01*
X143002689Y-141097000D01*
X143202596Y-140873016D01*
X143073074Y-140743494D01*
X143097118Y-140738711D01*
X143157526Y-140533791D01*
X142621000Y-139997264D01*
X142473922Y-140144342D01*
X142176502Y-139846922D01*
X142217838Y-139805586D01*
X142090994Y-139678742D01*
X142196736Y-139573000D01*
X141660209Y-139036474D01*
X141455289Y-139096882D01*
X141450610Y-139121030D01*
X140970000Y-138640420D01*
X140955858Y-138654563D01*
X140237438Y-137936143D01*
X140251580Y-137922000D01*
X139771074Y-137441494D01*
X139795118Y-137436711D01*
X139855526Y-137231791D01*
X139319000Y-136695264D01*
X139213258Y-136801006D01*
X139086414Y-136674162D01*
X139045078Y-136715498D01*
X138747658Y-136418078D01*
X138894736Y-136271000D01*
X138358209Y-135734474D01*
X138153289Y-135794882D01*
X138148610Y-135819030D01*
X138018984Y-135689404D01*
X137584414Y-136077260D01*
X137769047Y-135720029D01*
X137648627Y-135533000D01*
X136900000Y-135533000D01*
X136900000Y-136416593D01*
X137083716Y-136519329D01*
X137188325Y-136447956D01*
X137551083Y-136141749D01*
X137570061Y-136105030D01*
X137225420Y-137219356D01*
X137188325Y-137188044D01*
X137083716Y-137116671D01*
X136900000Y-137219407D01*
X136900000Y-138103000D01*
X137128000Y-138103000D01*
X137128000Y-139003000D01*
X136900000Y-139003000D01*
X136900000Y-139081000D01*
X136300000Y-139081000D01*
X136300000Y-139003000D01*
X135551373Y-139003000D01*
X135430953Y-139190029D01*
X135648917Y-139611749D01*
X136011675Y-139917956D01*
X136091998Y-139972759D01*
X136091998Y-140081000D01*
X129908002Y-140081000D01*
X129908002Y-139972759D01*
X129988325Y-139917956D01*
X130351083Y-139611749D01*
X130569047Y-139190029D01*
X130448627Y-139003000D01*
X129700000Y-139003000D01*
X129700000Y-139081000D01*
X129100000Y-139081000D01*
X129100000Y-139003000D01*
X128351373Y-139003000D01*
X128230953Y-139190029D01*
X128448917Y-139611749D01*
X128811675Y-139917956D01*
X128891998Y-139972759D01*
X128891998Y-140081000D01*
X128270000Y-140081000D01*
X128143089Y-140106244D01*
X128143242Y-139931339D01*
X128143000Y-139930753D01*
X128143000Y-137915971D01*
X128230953Y-137915971D01*
X128351373Y-138103000D01*
X129100000Y-138103000D01*
X129100000Y-137219407D01*
X129700000Y-137219407D01*
X129700000Y-138103000D01*
X130448627Y-138103000D01*
X130569047Y-137915971D01*
X135430953Y-137915971D01*
X135551373Y-138103000D01*
X136300000Y-138103000D01*
X136300000Y-137219407D01*
X136116284Y-137116671D01*
X136011675Y-137188044D01*
X135648917Y-137494251D01*
X135430953Y-137915971D01*
X130569047Y-137915971D01*
X130351083Y-137494251D01*
X129988325Y-137188044D01*
X129883716Y-137116671D01*
X129700000Y-137219407D01*
X129100000Y-137219407D01*
X128916284Y-137116671D01*
X128811675Y-137188044D01*
X128448917Y-137494251D01*
X128230953Y-137915971D01*
X128143000Y-137915971D01*
X128143000Y-137668647D01*
X128143242Y-137391339D01*
X128096291Y-137277709D01*
X128143000Y-137287000D01*
X128288154Y-137258127D01*
X128288163Y-137258127D01*
X128288171Y-137258124D01*
X128434605Y-137228996D01*
X128557661Y-137146772D01*
X128557669Y-137146769D01*
X128557675Y-137146763D01*
X128681815Y-137063815D01*
X128764038Y-136940760D01*
X128764045Y-136940753D01*
X128764049Y-136940744D01*
X128846996Y-136816605D01*
X128875870Y-136671448D01*
X128875872Y-136671442D01*
X128875872Y-136671436D01*
X128905000Y-136525000D01*
X128901923Y-136509531D01*
X128916284Y-136519329D01*
X129100000Y-136416593D01*
X129100000Y-135533000D01*
X128872000Y-135533000D01*
X128872000Y-134633000D01*
X129100000Y-134633000D01*
X129100000Y-134555000D01*
X129700000Y-134555000D01*
X129700000Y-134633000D01*
X129928000Y-134633000D01*
X129928000Y-135533000D01*
X129700000Y-135533000D01*
X129700000Y-136416593D01*
X129883716Y-136519329D01*
X129988325Y-136447956D01*
X130192110Y-136275939D01*
X130191860Y-136563016D01*
X130314611Y-136860097D01*
X130541707Y-137087590D01*
X130838574Y-137210860D01*
X131160016Y-137211140D01*
X131457097Y-137088389D01*
X131601077Y-136944660D01*
X131600873Y-137178163D01*
X131712231Y-137447669D01*
X131918247Y-137654045D01*
X132187558Y-137765872D01*
X132479163Y-137766127D01*
X132715248Y-137668578D01*
X132949558Y-137765872D01*
X133241163Y-137766127D01*
X133510669Y-137654769D01*
X133717045Y-137448753D01*
X133828872Y-137179442D01*
X133829127Y-136887837D01*
X133717769Y-136618331D01*
X133662551Y-136563016D01*
X134191860Y-136563016D01*
X134314611Y-136860097D01*
X134541707Y-137087590D01*
X134838574Y-137210860D01*
X135160016Y-137211140D01*
X135457097Y-137088389D01*
X135684590Y-136861293D01*
X135807860Y-136564426D01*
X135808111Y-136276126D01*
X136011675Y-136447956D01*
X136116284Y-136519329D01*
X136300000Y-136416593D01*
X136300000Y-135533000D01*
X135551373Y-135533000D01*
X135437543Y-135709794D01*
X135161426Y-135595140D01*
X134839984Y-135594860D01*
X134542903Y-135717611D01*
X134315410Y-135944707D01*
X134192140Y-136241574D01*
X134191860Y-136563016D01*
X133662551Y-136563016D01*
X133511753Y-136411955D01*
X133324600Y-136334243D01*
X133324600Y-134970984D01*
X138737404Y-134970984D01*
X138866926Y-135100506D01*
X138842882Y-135105289D01*
X138782474Y-135310209D01*
X139319000Y-135846736D01*
X139466078Y-135699658D01*
X139763498Y-135997078D01*
X139722162Y-136038414D01*
X139849006Y-136165258D01*
X139743264Y-136271000D01*
X140279791Y-136807526D01*
X140484711Y-136747118D01*
X140489390Y-136722970D01*
X140970000Y-137203580D01*
X141450506Y-136723074D01*
X141455289Y-136747118D01*
X141660209Y-136807526D01*
X142196736Y-136271000D01*
X142090994Y-136165258D01*
X142217838Y-136038414D01*
X142176502Y-135997078D01*
X142473922Y-135699658D01*
X142621000Y-135846736D01*
X143157526Y-135310209D01*
X143097118Y-135105289D01*
X143072970Y-135100610D01*
X143202596Y-134970984D01*
X142807634Y-134528452D01*
X141369098Y-134083539D01*
X139869803Y-134222996D01*
X139132366Y-134528452D01*
X138737404Y-134970984D01*
X133324600Y-134970984D01*
X133324600Y-134445971D01*
X135430953Y-134445971D01*
X135551373Y-134633000D01*
X136300000Y-134633000D01*
X136300000Y-133749407D01*
X136900000Y-133749407D01*
X136900000Y-134633000D01*
X137648627Y-134633000D01*
X137769047Y-134445971D01*
X137551083Y-134024251D01*
X137188325Y-133718044D01*
X137083716Y-133646671D01*
X136900000Y-133749407D01*
X136300000Y-133749407D01*
X136116284Y-133646671D01*
X136011675Y-133718044D01*
X135648917Y-134024251D01*
X135430953Y-134445971D01*
X133324600Y-134445971D01*
X133324600Y-133426200D01*
X133278197Y-133192916D01*
X133236661Y-133130753D01*
X133146052Y-132995147D01*
X132943600Y-132792696D01*
X132943600Y-130302000D01*
X132897197Y-130068716D01*
X132765052Y-129870948D01*
X130987052Y-128092948D01*
X130789284Y-127960803D01*
X130556000Y-127914400D01*
X128649505Y-127914400D01*
X126161052Y-125425948D01*
X125963284Y-125293803D01*
X125730000Y-125247400D01*
X123952000Y-125247400D01*
X123718716Y-125293803D01*
X123520948Y-125425948D01*
X122556496Y-126390400D01*
X118362505Y-126390400D01*
X115925600Y-123953496D01*
X115925600Y-122504200D01*
X115879197Y-122270916D01*
X115847634Y-122223679D01*
X115747052Y-122073147D01*
X115289852Y-121615948D01*
X115092084Y-121483803D01*
X114858800Y-121437400D01*
X114472956Y-121437400D01*
X114334753Y-121298955D01*
X114133616Y-121215436D01*
X114817023Y-120532028D01*
X114817026Y-120532026D01*
X115092327Y-120120008D01*
X115189000Y-119634000D01*
X115189000Y-113538000D01*
X118049752Y-113538000D01*
X118124753Y-113650247D01*
X118292788Y-113762525D01*
X118491000Y-113801952D01*
X119253000Y-113801952D01*
X119443500Y-113764059D01*
X119634000Y-113801952D01*
X120396000Y-113801952D01*
X120586500Y-113764059D01*
X120777000Y-113801952D01*
X121086429Y-113801952D01*
X121306992Y-113949327D01*
X121793000Y-114046000D01*
X123679948Y-114046000D01*
X126746000Y-117112051D01*
X126746000Y-120758802D01*
X126569338Y-121023194D01*
X126492000Y-121412000D01*
X126542524Y-121666000D01*
X126129051Y-121666000D01*
X122691026Y-118227974D01*
X122279008Y-117952673D01*
X121793000Y-117855999D01*
X121665998Y-117881261D01*
X121539000Y-117856000D01*
X119507000Y-117856000D01*
X119118194Y-117933338D01*
X118788580Y-118153580D01*
X118568338Y-118483194D01*
X118491000Y-118872000D01*
X118568338Y-119260806D01*
X118788580Y-119590420D01*
X119118194Y-119810662D01*
X119507000Y-119888000D01*
X120804085Y-119888000D01*
X120894974Y-120024026D01*
X124704972Y-123834023D01*
X124704974Y-123834026D01*
X124988996Y-124023803D01*
X125116992Y-124109327D01*
X125603000Y-124206001D01*
X125603005Y-124206000D01*
X126727948Y-124206000D01*
X129022972Y-126501023D01*
X129022974Y-126501026D01*
X129354434Y-126722500D01*
X129434992Y-126776327D01*
X129921000Y-126873001D01*
X129921005Y-126873000D01*
X135490948Y-126873000D01*
X137644696Y-129026748D01*
X137553912Y-129044806D01*
X137477996Y-129253802D01*
X138043920Y-129819725D01*
X138169785Y-129693860D01*
X138664760Y-130188835D01*
X138538895Y-130314700D01*
X138664760Y-130440565D01*
X138169785Y-130935540D01*
X138043920Y-130809675D01*
X137918055Y-130935540D01*
X137423080Y-130440565D01*
X137548945Y-130314700D01*
X136983022Y-129748776D01*
X136774026Y-129824692D01*
X136683172Y-130347959D01*
X136774026Y-130804708D01*
X136819111Y-130821085D01*
X136723986Y-130916210D01*
X137032783Y-131225007D01*
X136980213Y-131260133D01*
X136867935Y-131428168D01*
X136828508Y-131626380D01*
X136828508Y-132064717D01*
X136776460Y-132326380D01*
X136828508Y-132588043D01*
X136828508Y-133026380D01*
X136867935Y-133224592D01*
X136980213Y-133392627D01*
X137148248Y-133504905D01*
X137346460Y-133544332D01*
X137784797Y-133544332D01*
X138046460Y-133596380D01*
X138691615Y-133596380D01*
X138691620Y-133596381D01*
X139177628Y-133499707D01*
X139589646Y-133224406D01*
X140127727Y-132686324D01*
X142495229Y-132686324D01*
X142540111Y-132887062D01*
X142981321Y-132983051D01*
X143425679Y-132902889D01*
X143463889Y-132887062D01*
X143508771Y-132686324D01*
X143002000Y-132179553D01*
X142495229Y-132686324D01*
X140127727Y-132686324D01*
X140844403Y-131969648D01*
X140844406Y-131969646D01*
X140954204Y-131805321D01*
X141844949Y-131805321D01*
X141925111Y-132249679D01*
X141940938Y-132287889D01*
X142141676Y-132332771D01*
X142648447Y-131826000D01*
X142141676Y-131319229D01*
X141940938Y-131364111D01*
X141844949Y-131805321D01*
X140954204Y-131805321D01*
X141119707Y-131557628D01*
X141137058Y-131470400D01*
X141216381Y-131071620D01*
X141216380Y-131071615D01*
X141216380Y-130965676D01*
X142495229Y-130965676D01*
X143002000Y-131472447D01*
X143508771Y-130965676D01*
X143463889Y-130764938D01*
X143022679Y-130668949D01*
X142578321Y-130749111D01*
X142540111Y-130764938D01*
X142495229Y-130965676D01*
X141216380Y-130965676D01*
X141216380Y-130018882D01*
X141496163Y-130019127D01*
X141733648Y-129921000D01*
X142211608Y-129921000D01*
X142430268Y-130140043D01*
X142800617Y-130293825D01*
X143201624Y-130294175D01*
X143572240Y-130141039D01*
X143856043Y-129857732D01*
X144009825Y-129487383D01*
X144010175Y-129086376D01*
X143857039Y-128715760D01*
X143573732Y-128431957D01*
X143203383Y-128278175D01*
X142802376Y-128277825D01*
X142431760Y-128430961D01*
X142211336Y-128651000D01*
X141733145Y-128651000D01*
X141497442Y-128553128D01*
X141205837Y-128552873D01*
X140936331Y-128664231D01*
X140893163Y-128707324D01*
X140844406Y-128634354D01*
X140844403Y-128634352D01*
X139147003Y-126936952D01*
X141732000Y-126936952D01*
X141930212Y-126897525D01*
X142098247Y-126785247D01*
X142210525Y-126617212D01*
X142249952Y-126419000D01*
X142249952Y-123371000D01*
X142210525Y-123172788D01*
X142098247Y-123004753D01*
X141930212Y-122892475D01*
X141732000Y-122853048D01*
X138822000Y-122853048D01*
X138822000Y-122827000D01*
X137812000Y-122827000D01*
X137812000Y-124986503D01*
X138015952Y-125077189D01*
X138166048Y-125000441D01*
X138166048Y-125955996D01*
X137062000Y-124851948D01*
X137062000Y-122827000D01*
X136052000Y-122827000D01*
X136052000Y-124327000D01*
X136061002Y-124341752D01*
X136017000Y-124332999D01*
X136016995Y-124333000D01*
X132103506Y-124333000D01*
X132195000Y-123873032D01*
X132195000Y-120764968D01*
X132104700Y-120311000D01*
X136052000Y-120311000D01*
X136052000Y-121811000D01*
X137062000Y-121811000D01*
X137062000Y-119651497D01*
X137812000Y-119651497D01*
X137812000Y-121811000D01*
X138822000Y-121811000D01*
X138822000Y-121618585D01*
X139012419Y-121809004D01*
X139168295Y-121653128D01*
X139360016Y-121926411D01*
X140201951Y-122096288D01*
X141044809Y-121931040D01*
X141055984Y-121926411D01*
X141247706Y-121653127D01*
X140208000Y-120613420D01*
X140193858Y-120627563D01*
X139475437Y-119909142D01*
X139489580Y-119895000D01*
X140926420Y-119895000D01*
X141966127Y-120934706D01*
X142239411Y-120742984D01*
X142409288Y-119901049D01*
X142244040Y-119058191D01*
X142239411Y-119047016D01*
X141966127Y-118855294D01*
X140926420Y-119895000D01*
X139489580Y-119895000D01*
X138449873Y-118855294D01*
X138176589Y-119047016D01*
X138067593Y-119587216D01*
X138015952Y-119560811D01*
X137812000Y-119651497D01*
X137062000Y-119651497D01*
X136858048Y-119560811D01*
X136351830Y-119819653D01*
X136052000Y-120311000D01*
X132104700Y-120311000D01*
X132099240Y-120283552D01*
X131826540Y-119875428D01*
X131418416Y-119602728D01*
X130937000Y-119506968D01*
X130455584Y-119602728D01*
X130047460Y-119875428D01*
X129774760Y-120283552D01*
X129679000Y-120764968D01*
X129679000Y-123564949D01*
X128539057Y-122425005D01*
X128912806Y-122350662D01*
X129242420Y-122130420D01*
X129462662Y-121800806D01*
X129540000Y-121412000D01*
X129462662Y-121023194D01*
X129286000Y-120758802D01*
X129286000Y-118447952D01*
X131478811Y-118447952D01*
X131737653Y-118954170D01*
X132229000Y-119254000D01*
X133729000Y-119254000D01*
X133729000Y-118244000D01*
X134745000Y-118244000D01*
X134745000Y-119254000D01*
X136245000Y-119254000D01*
X136736347Y-118954170D01*
X136995189Y-118447952D01*
X136904503Y-118244000D01*
X134745000Y-118244000D01*
X133729000Y-118244000D01*
X131569497Y-118244000D01*
X131478811Y-118447952D01*
X129286000Y-118447952D01*
X129286000Y-118136873D01*
X139168294Y-118136873D01*
X140208000Y-119176580D01*
X141247706Y-118136873D01*
X141055984Y-117863589D01*
X140214049Y-117693712D01*
X139371191Y-117858960D01*
X139360016Y-117863589D01*
X139168294Y-118136873D01*
X129286000Y-118136873D01*
X129286000Y-117290048D01*
X131478811Y-117290048D01*
X131569497Y-117494000D01*
X133729000Y-117494000D01*
X133729000Y-116484000D01*
X134745000Y-116484000D01*
X134745000Y-117494000D01*
X136904503Y-117494000D01*
X136995189Y-117290048D01*
X136736347Y-116783830D01*
X136245000Y-116484000D01*
X134745000Y-116484000D01*
X133729000Y-116484000D01*
X132229000Y-116484000D01*
X131737653Y-116783830D01*
X131478811Y-117290048D01*
X129286000Y-117290048D01*
X129286000Y-116586005D01*
X129286001Y-116586000D01*
X129189327Y-116099992D01*
X129126655Y-116006197D01*
X128914026Y-115687974D01*
X128914023Y-115687972D01*
X127588774Y-114362722D01*
X131756834Y-114362722D01*
X131902374Y-114714954D01*
X132171628Y-114984679D01*
X132523606Y-115130833D01*
X132889025Y-115131152D01*
X132922275Y-115298312D01*
X133034553Y-115466347D01*
X133202588Y-115578625D01*
X133400800Y-115618052D01*
X134569200Y-115618052D01*
X134747000Y-115582685D01*
X134924800Y-115618052D01*
X136093200Y-115618052D01*
X136291412Y-115578625D01*
X136459447Y-115466347D01*
X136559906Y-115316000D01*
X138489806Y-115316000D01*
X138491806Y-115320840D01*
X138991529Y-115821436D01*
X139644782Y-116092691D01*
X140352114Y-116093308D01*
X141005840Y-115823194D01*
X141506436Y-115323471D01*
X141777691Y-114670218D01*
X141778308Y-113962886D01*
X141508194Y-113309160D01*
X141008471Y-112808564D01*
X140421266Y-112564735D01*
X141005840Y-112323194D01*
X141506436Y-111823471D01*
X141777691Y-111170218D01*
X141778308Y-110462886D01*
X141508194Y-109809160D01*
X141008471Y-109308564D01*
X140615317Y-109145312D01*
X140690947Y-109130268D01*
X140849727Y-108883148D01*
X140000000Y-108033420D01*
X139150273Y-108883148D01*
X139309053Y-109130268D01*
X139388808Y-109143741D01*
X138994160Y-109306806D01*
X138493564Y-109806529D01*
X138222309Y-110459782D01*
X138221692Y-111167114D01*
X138491806Y-111820840D01*
X138991529Y-112321436D01*
X139578734Y-112565265D01*
X138994160Y-112806806D01*
X138516132Y-113284000D01*
X136559906Y-113284000D01*
X136459447Y-113133653D01*
X136291412Y-113021375D01*
X136093200Y-112981948D01*
X134924800Y-112981948D01*
X134747000Y-113017315D01*
X134569200Y-112981948D01*
X133400800Y-112981948D01*
X133202588Y-113021375D01*
X133034553Y-113133653D01*
X132964081Y-113239121D01*
X132906394Y-113215167D01*
X132525278Y-113214834D01*
X132173046Y-113360374D01*
X131903321Y-113629628D01*
X131757167Y-113981606D01*
X131756834Y-114362722D01*
X127588774Y-114362722D01*
X125104026Y-111877974D01*
X124692008Y-111602673D01*
X124206000Y-111505999D01*
X124205995Y-111506000D01*
X123063000Y-111506000D01*
X123063000Y-110236000D01*
X122966327Y-109749992D01*
X122691026Y-109337974D01*
X122691023Y-109337972D01*
X120278026Y-106924974D01*
X119866008Y-106649673D01*
X119380000Y-106552999D01*
X119379995Y-106553000D01*
X117239052Y-106553000D01*
X117094000Y-106407948D01*
X117094000Y-106045000D01*
X116997327Y-105558992D01*
X116722026Y-105146974D01*
X116722023Y-105146972D01*
X115570000Y-103994948D01*
X115570000Y-100584000D01*
X127795432Y-100584000D01*
X127836428Y-100683218D01*
G36*
X92329000Y-74041000D02*
X92338667Y-74089601D01*
X92366197Y-74130803D01*
X92407399Y-74158333D01*
X92456000Y-74168000D01*
X93091000Y-74168000D01*
X93091000Y-75972896D01*
X90246948Y-78816948D01*
X90114803Y-79014716D01*
X90068400Y-79248000D01*
X90068400Y-82423000D01*
X90114803Y-82656284D01*
X90246948Y-82854052D01*
X92735400Y-85342505D01*
X92735400Y-89789000D01*
X92781803Y-90022284D01*
X92913948Y-90220052D01*
X93119887Y-90425992D01*
X93119873Y-90442163D01*
X93231231Y-90711669D01*
X93437247Y-90918045D01*
X93706558Y-91029872D01*
X93998163Y-91030127D01*
X94170591Y-90958881D01*
X94341558Y-91029872D01*
X94436521Y-91029955D01*
X94445683Y-91043667D01*
X94500993Y-91177526D01*
X94604220Y-91280933D01*
X94621382Y-91306618D01*
X94646843Y-91323631D01*
X94749168Y-91426134D01*
X94884108Y-91482166D01*
X94909794Y-91499329D01*
X94939828Y-91505303D01*
X95073590Y-91560846D01*
X95219704Y-91560974D01*
X95250000Y-91567000D01*
X95739802Y-91567000D01*
X96004194Y-91743662D01*
X96393000Y-91821000D01*
X106640160Y-91821000D01*
X108458000Y-93638841D01*
X108458000Y-96301833D01*
X108279509Y-96227900D01*
X108019850Y-96227900D01*
X107861100Y-96386650D01*
X107861100Y-97262950D01*
X108097000Y-97262950D01*
X108097000Y-98063050D01*
X107861100Y-98063050D01*
X107861100Y-98939350D01*
X108019850Y-99098100D01*
X108279509Y-99098100D01*
X108512898Y-99001427D01*
X108652370Y-98861956D01*
X108755580Y-99016420D01*
X109085194Y-99236662D01*
X109474000Y-99314000D01*
X109862806Y-99236662D01*
X110192420Y-99016420D01*
X110412662Y-98686806D01*
X110490000Y-98298000D01*
X110490000Y-93218000D01*
X110412662Y-92829194D01*
X110316047Y-92684600D01*
X110192420Y-92499579D01*
X108218440Y-90525600D01*
X109727304Y-90525600D01*
X109855000Y-90551000D01*
X110098004Y-90502664D01*
X110304013Y-90365013D01*
X110685013Y-89984013D01*
X110822664Y-89778005D01*
X110871000Y-89535000D01*
X110871000Y-85226026D01*
X110880026Y-85217000D01*
X112522000Y-85217000D01*
X112765004Y-85168664D01*
X112971013Y-85031013D01*
X113225013Y-84777013D01*
X113362664Y-84571004D01*
X113411000Y-84328000D01*
X113411000Y-87230949D01*
X111242974Y-89398974D01*
X110967673Y-89810992D01*
X110870999Y-90297000D01*
X110871000Y-90297005D01*
X110871000Y-95757995D01*
X110870999Y-95758000D01*
X110967673Y-96244008D01*
X111242974Y-96656026D01*
X113030000Y-98443052D01*
X113030000Y-100740111D01*
X112757837Y-100739873D01*
X112488331Y-100851231D01*
X112281955Y-101057247D01*
X112170128Y-101326558D01*
X112169873Y-101618163D01*
X112281231Y-101887669D01*
X112420400Y-102027081D01*
X112420400Y-104014496D01*
X111709948Y-104724948D01*
X111577803Y-104922716D01*
X111531400Y-105156000D01*
X111531400Y-107443495D01*
X111504008Y-107470887D01*
X111487837Y-107470873D01*
X111218331Y-107582231D01*
X111011955Y-107788247D01*
X110900128Y-108057558D01*
X110900113Y-108074783D01*
X110820948Y-108153948D01*
X110688803Y-108351716D01*
X110642400Y-108585000D01*
X110642400Y-108637296D01*
X106019600Y-104014496D01*
X106019600Y-99695000D01*
X105986599Y-99529093D01*
X106082605Y-99509996D01*
X106205661Y-99427772D01*
X106205669Y-99427769D01*
X106205675Y-99427763D01*
X106329815Y-99344815D01*
X106412038Y-99221760D01*
X106412045Y-99221753D01*
X106412049Y-99221744D01*
X106494996Y-99097605D01*
X106518180Y-98981052D01*
X106604727Y-98981052D01*
X106625102Y-99001427D01*
X106858491Y-99098100D01*
X107118150Y-99098100D01*
X107276900Y-98939350D01*
X107276900Y-98063050D01*
X107147152Y-98063050D01*
X107147152Y-97262950D01*
X107276900Y-97262950D01*
X107276900Y-96386650D01*
X107118150Y-96227900D01*
X106858491Y-96227900D01*
X106625102Y-96324573D01*
X106604727Y-96344948D01*
X105876777Y-96344948D01*
X105777769Y-96105331D01*
X105638600Y-95965919D01*
X105638600Y-94996000D01*
X105592197Y-94762716D01*
X105460052Y-94564948D01*
X104317052Y-93421948D01*
X104119284Y-93289803D01*
X103886000Y-93243400D01*
X94105505Y-93243400D01*
X88874600Y-88012496D01*
X88874600Y-87757000D01*
X88828197Y-87523716D01*
X88696052Y-87325948D01*
X86791052Y-85420948D01*
X86593284Y-85288803D01*
X86360000Y-85242400D01*
X84755178Y-85242400D01*
X84743753Y-85230955D01*
X84474442Y-85119128D01*
X84182837Y-85118873D01*
X83913331Y-85230231D01*
X83706955Y-85436247D01*
X83595128Y-85705558D01*
X83594951Y-85907847D01*
X83108052Y-85420948D01*
X82910284Y-85288803D01*
X82759614Y-85258833D01*
X82643200Y-85142419D01*
X82543219Y-85242400D01*
X82456095Y-85242400D01*
X82040038Y-84826343D01*
X82183581Y-84682800D01*
X83102819Y-84682800D01*
X83654084Y-85234065D01*
X83861056Y-85165902D01*
X83953228Y-84663075D01*
X83861056Y-84199698D01*
X83654084Y-84131535D01*
X83102819Y-84682800D01*
X82183581Y-84682800D01*
X81632316Y-84131535D01*
X81462100Y-84187593D01*
X81291884Y-84131535D01*
X80740619Y-84682800D01*
X80884162Y-84826343D01*
X80468105Y-85242400D01*
X80380981Y-85242400D01*
X80281000Y-85142419D01*
X80181019Y-85242400D01*
X80093895Y-85242400D01*
X79677838Y-84826343D01*
X79821381Y-84682800D01*
X79270116Y-84131535D01*
X79125300Y-84179228D01*
X78980484Y-84131535D01*
X78429219Y-84682800D01*
X78572762Y-84826343D01*
X78156705Y-85242400D01*
X78069581Y-85242400D01*
X77969600Y-85142419D01*
X77869619Y-85242400D01*
X77782495Y-85242400D01*
X77366438Y-84826343D01*
X77509981Y-84682800D01*
X76958716Y-84131535D01*
X76751744Y-84199698D01*
X76659572Y-84702525D01*
X76751744Y-85165902D01*
X76764029Y-85169948D01*
X76691577Y-85242400D01*
X74041000Y-85242400D01*
X74030022Y-85244584D01*
X74138872Y-84982442D01*
X74139127Y-84690837D01*
X74027769Y-84421331D01*
X73821753Y-84214955D01*
X73552442Y-84103128D01*
X73524482Y-84103104D01*
X73646045Y-83981753D01*
X73757872Y-83712442D01*
X73758127Y-83420837D01*
X73679227Y-83229884D01*
X77418335Y-83229884D01*
X77486498Y-83436856D01*
X77559984Y-83450327D01*
X77486498Y-83464944D01*
X77418335Y-83671916D01*
X77969600Y-84223181D01*
X78487018Y-83705763D01*
X79628344Y-83705763D01*
X79750764Y-83926458D01*
X80018566Y-83960747D01*
X80281000Y-84223181D01*
X80519741Y-83984440D01*
X80811236Y-83926458D01*
X80933656Y-83705763D01*
X80799097Y-83571204D01*
X80764102Y-83464944D01*
X80676841Y-83448948D01*
X80457777Y-83229884D01*
X82091935Y-83229884D01*
X82160098Y-83436856D01*
X82233584Y-83450327D01*
X82160098Y-83464944D01*
X82091935Y-83671916D01*
X82643200Y-84223181D01*
X83194465Y-83671916D01*
X83126302Y-83464944D01*
X83052816Y-83451473D01*
X83126302Y-83436856D01*
X83194465Y-83229884D01*
X82643200Y-82678619D01*
X82091935Y-83229884D01*
X80457777Y-83229884D01*
X80281000Y-83053107D01*
X79886858Y-83447249D01*
X79797898Y-83464944D01*
X79762903Y-83571204D01*
X79628344Y-83705763D01*
X78487018Y-83705763D01*
X78520865Y-83671916D01*
X78452702Y-83464944D01*
X78379216Y-83451473D01*
X78452702Y-83436856D01*
X78520865Y-83229884D01*
X77969600Y-82678619D01*
X77418335Y-83229884D01*
X73679227Y-83229884D01*
X73646769Y-83151331D01*
X73440753Y-82944955D01*
X73171442Y-82833128D01*
X73126600Y-82833089D01*
X73126600Y-82723178D01*
X73138045Y-82711753D01*
X73249872Y-82442442D01*
X73250050Y-82238725D01*
X76659572Y-82238725D01*
X76751744Y-82702102D01*
X76958716Y-82770265D01*
X77509981Y-82219000D01*
X78429219Y-82219000D01*
X78623976Y-82413757D01*
X78617935Y-82460941D01*
X78700542Y-82876236D01*
X78921237Y-82998656D01*
X79573893Y-82346000D01*
X80988107Y-82346000D01*
X81640763Y-82998656D01*
X81861458Y-82876236D01*
X81910666Y-82491915D01*
X82183581Y-82219000D01*
X83102819Y-82219000D01*
X83654084Y-82770265D01*
X83861056Y-82702102D01*
X83953228Y-82199275D01*
X83861056Y-81735898D01*
X83654084Y-81667735D01*
X83102819Y-82219000D01*
X82183581Y-82219000D01*
X81881598Y-81917017D01*
X81861458Y-81815764D01*
X81679303Y-81714722D01*
X81632316Y-81667735D01*
X81425344Y-81735898D01*
X81386544Y-81947563D01*
X80988107Y-82346000D01*
X79573893Y-82346000D01*
X79242993Y-82015100D01*
X79187456Y-81735898D01*
X78980484Y-81667735D01*
X78938056Y-81710163D01*
X78921237Y-81693344D01*
X78700542Y-81815764D01*
X78681172Y-81967047D01*
X78429219Y-82219000D01*
X77509981Y-82219000D01*
X76958716Y-81667735D01*
X76751744Y-81735898D01*
X76659572Y-82238725D01*
X73250050Y-82238725D01*
X73250127Y-82150837D01*
X73138769Y-81881331D01*
X72932753Y-81674955D01*
X72899396Y-81661104D01*
X72931669Y-81647769D01*
X73138045Y-81441753D01*
X73249872Y-81172442D01*
X73250027Y-80994684D01*
X77418335Y-80994684D01*
X77453480Y-81101400D01*
X77418335Y-81208116D01*
X77969600Y-81759381D01*
X78520865Y-81208116D01*
X78485720Y-81101400D01*
X78520865Y-80994684D01*
X78512418Y-80986237D01*
X79628344Y-80986237D01*
X79775376Y-81133269D01*
X79797898Y-81201656D01*
X79854057Y-81211950D01*
X80281000Y-81638893D01*
X80706848Y-81213045D01*
X80764102Y-81201656D01*
X80786624Y-81133269D01*
X80925209Y-80994684D01*
X82091935Y-80994684D01*
X82127080Y-81101400D01*
X82091935Y-81208116D01*
X82643200Y-81759381D01*
X83194465Y-81208116D01*
X83159320Y-81101400D01*
X83194465Y-80994684D01*
X82643200Y-80443419D01*
X82091935Y-80994684D01*
X80925209Y-80994684D01*
X80933656Y-80986237D01*
X80811236Y-80765542D01*
X80572564Y-80734983D01*
X80281000Y-80443419D01*
X80010552Y-80713867D01*
X79750764Y-80765542D01*
X79628344Y-80986237D01*
X78512418Y-80986237D01*
X77969600Y-80443419D01*
X77418335Y-80994684D01*
X73250027Y-80994684D01*
X73250127Y-80880837D01*
X73138769Y-80611331D01*
X72932753Y-80404955D01*
X72746093Y-80327448D01*
X72931669Y-80250769D01*
X73138045Y-80044753D01*
X73155164Y-80003525D01*
X76659572Y-80003525D01*
X76751744Y-80466902D01*
X76958716Y-80535065D01*
X77509981Y-79983800D01*
X78429219Y-79983800D01*
X78980484Y-80535065D01*
X79125300Y-80487372D01*
X79270116Y-80535065D01*
X79821381Y-79983800D01*
X80740619Y-79983800D01*
X81291884Y-80535065D01*
X81462100Y-80479007D01*
X81632316Y-80535065D01*
X82183581Y-79983800D01*
X83102819Y-79983800D01*
X83654084Y-80535065D01*
X83861056Y-80466902D01*
X83953228Y-79964075D01*
X83861056Y-79500698D01*
X83654084Y-79432535D01*
X83102819Y-79983800D01*
X82183581Y-79983800D01*
X81632316Y-79432535D01*
X81462100Y-79488593D01*
X81291884Y-79432535D01*
X80740619Y-79983800D01*
X79821381Y-79983800D01*
X79270116Y-79432535D01*
X79125300Y-79480228D01*
X78980484Y-79432535D01*
X78429219Y-79983800D01*
X77509981Y-79983800D01*
X76958716Y-79432535D01*
X76751744Y-79500698D01*
X76659572Y-80003525D01*
X73155164Y-80003525D01*
X73249872Y-79775442D01*
X73250127Y-79483837D01*
X73138769Y-79214331D01*
X72982119Y-79057407D01*
X73066757Y-78972916D01*
X77418335Y-78972916D01*
X77969600Y-79524181D01*
X78520865Y-78972916D01*
X79729735Y-78972916D01*
X80281000Y-79524181D01*
X80832265Y-78972916D01*
X82091935Y-78972916D01*
X82643200Y-79524181D01*
X83194465Y-78972916D01*
X83126302Y-78765944D01*
X82623475Y-78673772D01*
X82160098Y-78765944D01*
X82091935Y-78972916D01*
X80832265Y-78972916D01*
X80764102Y-78765944D01*
X80261275Y-78673772D01*
X79797898Y-78765944D01*
X79729735Y-78972916D01*
X78520865Y-78972916D01*
X78452702Y-78765944D01*
X77949875Y-78673772D01*
X77486498Y-78765944D01*
X77418335Y-78972916D01*
X73066757Y-78972916D01*
X73138045Y-78901753D01*
X73249872Y-78632442D01*
X73250127Y-78340837D01*
X73138769Y-78071331D01*
X72932753Y-77864955D01*
X72899396Y-77851104D01*
X72931669Y-77837769D01*
X73138045Y-77631753D01*
X73249872Y-77362442D01*
X73250127Y-77070837D01*
X73138769Y-76801331D01*
X72932753Y-76594955D01*
X72663442Y-76483128D01*
X72371837Y-76482873D01*
X72102331Y-76594231D01*
X71895955Y-76800247D01*
X71784128Y-77069558D01*
X71784113Y-77086782D01*
X70434948Y-78435948D01*
X70302803Y-78633716D01*
X70256400Y-78867000D01*
X70256400Y-103886000D01*
X70272073Y-103964792D01*
X70260128Y-103993558D01*
X70259873Y-104285163D01*
X70371231Y-104554669D01*
X70383400Y-104566859D01*
X70383400Y-116412822D01*
X70371955Y-116424247D01*
X70260128Y-116693558D01*
X70259873Y-116985163D01*
X70371231Y-117254669D01*
X70488127Y-117371769D01*
X70434948Y-117424948D01*
X70302803Y-117622716D01*
X70256400Y-117856000D01*
X70256400Y-129921000D01*
X70302803Y-130154284D01*
X70434948Y-130352052D01*
X72291887Y-132208991D01*
X72291873Y-132225163D01*
X72403231Y-132494669D01*
X72609247Y-132701045D01*
X72878558Y-132812872D01*
X73170163Y-132813127D01*
X73439669Y-132701769D01*
X73646045Y-132495753D01*
X73757872Y-132226442D01*
X73758127Y-131934837D01*
X73646769Y-131665331D01*
X73440753Y-131458955D01*
X73171442Y-131347128D01*
X73154217Y-131347113D01*
X71475600Y-129668496D01*
X71475600Y-126883649D01*
X71755273Y-126999779D01*
X72260510Y-127000220D01*
X72727458Y-126807282D01*
X73085026Y-126450337D01*
X73278779Y-125983727D01*
X73279220Y-125478490D01*
X73086282Y-125011542D01*
X72729337Y-124653974D01*
X72446329Y-124536459D01*
X72507481Y-124524295D01*
X72593006Y-124312821D01*
X72009000Y-123728815D01*
X71905055Y-123832760D01*
X71475600Y-123403305D01*
X71475600Y-122976695D01*
X71905055Y-122547240D01*
X72009000Y-122651185D01*
X72112945Y-122547240D01*
X72651760Y-123086055D01*
X72547815Y-123190000D01*
X73131821Y-123774006D01*
X73343295Y-123688481D01*
X73432489Y-123139923D01*
X73381753Y-122884857D01*
X73812400Y-123315505D01*
X73812400Y-132668822D01*
X73800955Y-132680247D01*
X73689128Y-132949558D01*
X73688873Y-133241163D01*
X73800231Y-133510669D01*
X74006247Y-133717045D01*
X74275558Y-133828872D01*
X74567163Y-133829127D01*
X74836669Y-133717769D01*
X75043045Y-133511753D01*
X75154872Y-133242442D01*
X75155127Y-132950837D01*
X75043769Y-132681331D01*
X75031600Y-132669141D01*
X75031600Y-127479089D01*
X75075163Y-127479127D01*
X75344669Y-127367769D01*
X75551045Y-127161753D01*
X75590400Y-127066975D01*
X75590400Y-134366000D01*
X75636803Y-134599284D01*
X75768948Y-134797052D01*
X77495533Y-136523637D01*
X77470000Y-136652000D01*
X77470000Y-136708293D01*
X77302371Y-136875630D01*
X77145215Y-137254105D01*
X77105004Y-136821803D01*
X76799548Y-136084366D01*
X76357016Y-135689404D01*
X76227494Y-135818926D01*
X76222711Y-135794882D01*
X76017791Y-135734474D01*
X75481264Y-136271000D01*
X75628342Y-136418078D01*
X75330922Y-136715498D01*
X75289586Y-136674162D01*
X75162742Y-136801006D01*
X75057000Y-136695264D01*
X74520474Y-137231791D01*
X74580882Y-137436711D01*
X74605030Y-137441390D01*
X74124420Y-137922000D01*
X74604926Y-138402506D01*
X74580882Y-138407289D01*
X74520474Y-138612209D01*
X75057000Y-139148736D01*
X75162742Y-139042994D01*
X75289586Y-139169838D01*
X75330922Y-139128502D01*
X75628342Y-139425922D01*
X75481264Y-139573000D01*
X76017791Y-140109526D01*
X76222711Y-140049118D01*
X76227390Y-140024970D01*
X76357016Y-140154596D01*
X76799548Y-139759634D01*
X77244391Y-138321323D01*
X77300990Y-138458303D01*
X77643137Y-138801048D01*
X77597000Y-138801048D01*
X77398788Y-138840475D01*
X77230753Y-138952753D01*
X77118475Y-139120788D01*
X77079048Y-139319000D01*
X77079048Y-141097000D01*
X75438689Y-141097000D01*
X75638596Y-140873016D01*
X75509074Y-140743494D01*
X75533118Y-140738711D01*
X75593526Y-140533791D01*
X75057000Y-139997264D01*
X74909922Y-140144342D01*
X74612502Y-139846922D01*
X74653838Y-139805586D01*
X74526994Y-139678742D01*
X74632736Y-139573000D01*
X74096209Y-139036474D01*
X73891289Y-139096882D01*
X73886610Y-139121030D01*
X73406000Y-138640420D01*
X72917922Y-139128498D01*
X72876586Y-139087162D01*
X72781039Y-139182709D01*
X72715791Y-139163474D01*
X72179264Y-139700000D01*
X72221506Y-139742242D01*
X72158162Y-139805586D01*
X72199498Y-139846922D01*
X71838578Y-140207842D01*
X71755000Y-140124264D01*
X71218474Y-140660791D01*
X71256531Y-140789889D01*
X71173404Y-140873016D01*
X71373311Y-141097000D01*
X70231000Y-141097000D01*
X70231000Y-139954689D01*
X70454984Y-140154596D01*
X70563436Y-140046144D01*
X70589289Y-140176118D01*
X70794209Y-140236526D01*
X71330736Y-139700000D01*
X71169516Y-139538780D01*
X71593780Y-139114516D01*
X71755000Y-139275736D01*
X72291526Y-138739209D01*
X72231118Y-138534289D01*
X72169838Y-138522414D01*
X72240838Y-138451414D01*
X72199502Y-138410078D01*
X72687580Y-137922000D01*
X72207074Y-137441494D01*
X72231118Y-137436711D01*
X72291526Y-137231791D01*
X71755000Y-136695264D01*
X71649258Y-136801006D01*
X71522414Y-136674162D01*
X71481078Y-136715498D01*
X71183658Y-136418078D01*
X71330736Y-136271000D01*
X70794209Y-135734474D01*
X70589289Y-135794882D01*
X70584610Y-135819030D01*
X70454984Y-135689404D01*
X70231000Y-135889311D01*
X70231000Y-134970984D01*
X71173404Y-134970984D01*
X71302926Y-135100506D01*
X71278882Y-135105289D01*
X71218474Y-135310209D01*
X71755000Y-135846736D01*
X71902078Y-135699658D01*
X72199498Y-135997078D01*
X72158162Y-136038414D01*
X72285006Y-136165258D01*
X72179264Y-136271000D01*
X72715791Y-136807526D01*
X72920711Y-136747118D01*
X72925390Y-136722970D01*
X73406000Y-137203580D01*
X73886506Y-136723074D01*
X73891289Y-136747118D01*
X74096209Y-136807526D01*
X74632736Y-136271000D01*
X74526994Y-136165258D01*
X74653838Y-136038414D01*
X74612502Y-135997078D01*
X74909922Y-135699658D01*
X75057000Y-135846736D01*
X75593526Y-135310209D01*
X75533118Y-135105289D01*
X75508970Y-135100610D01*
X75638596Y-134970984D01*
X75243634Y-134528452D01*
X73805098Y-134083539D01*
X72305803Y-134222996D01*
X71568366Y-134528452D01*
X71173404Y-134970984D01*
X70231000Y-134970984D01*
X70231000Y-73787000D01*
X89154000Y-73787000D01*
X89397004Y-73738664D01*
X89603013Y-73601013D01*
X89740664Y-73395004D01*
X89789000Y-73152000D01*
X89789000Y-67691000D01*
X92329000Y-67691000D01*
X92329000Y-74041000D01*
X92329000Y-74041000D01*
G37*
X92329000Y-74041000D02*
X92338667Y-74089601D01*
X92366197Y-74130803D01*
X92407399Y-74158333D01*
X92456000Y-74168000D01*
X93091000Y-74168000D01*
X93091000Y-75972896D01*
X90246948Y-78816948D01*
X90114803Y-79014716D01*
X90068400Y-79248000D01*
X90068400Y-82423000D01*
X90114803Y-82656284D01*
X90246948Y-82854052D01*
X92735400Y-85342505D01*
X92735400Y-89789000D01*
X92781803Y-90022284D01*
X92913948Y-90220052D01*
X93119887Y-90425992D01*
X93119873Y-90442163D01*
X93231231Y-90711669D01*
X93437247Y-90918045D01*
X93706558Y-91029872D01*
X93998163Y-91030127D01*
X94170591Y-90958881D01*
X94341558Y-91029872D01*
X94436521Y-91029955D01*
X94445683Y-91043667D01*
X94500993Y-91177526D01*
X94604220Y-91280933D01*
X94621382Y-91306618D01*
X94646843Y-91323631D01*
X94749168Y-91426134D01*
X94884108Y-91482166D01*
X94909794Y-91499329D01*
X94939828Y-91505303D01*
X95073590Y-91560846D01*
X95219704Y-91560974D01*
X95250000Y-91567000D01*
X95739802Y-91567000D01*
X96004194Y-91743662D01*
X96393000Y-91821000D01*
X106640160Y-91821000D01*
X108458000Y-93638841D01*
X108458000Y-96301833D01*
X108279509Y-96227900D01*
X108019850Y-96227900D01*
X107861100Y-96386650D01*
X107861100Y-97262950D01*
X108097000Y-97262950D01*
X108097000Y-98063050D01*
X107861100Y-98063050D01*
X107861100Y-98939350D01*
X108019850Y-99098100D01*
X108279509Y-99098100D01*
X108512898Y-99001427D01*
X108652370Y-98861956D01*
X108755580Y-99016420D01*
X109085194Y-99236662D01*
X109474000Y-99314000D01*
X109862806Y-99236662D01*
X110192420Y-99016420D01*
X110412662Y-98686806D01*
X110490000Y-98298000D01*
X110490000Y-93218000D01*
X110412662Y-92829194D01*
X110316047Y-92684600D01*
X110192420Y-92499579D01*
X108218440Y-90525600D01*
X109727304Y-90525600D01*
X109855000Y-90551000D01*
X110098004Y-90502664D01*
X110304013Y-90365013D01*
X110685013Y-89984013D01*
X110822664Y-89778005D01*
X110871000Y-89535000D01*
X110871000Y-85226026D01*
X110880026Y-85217000D01*
X112522000Y-85217000D01*
X112765004Y-85168664D01*
X112971013Y-85031013D01*
X113225013Y-84777013D01*
X113362664Y-84571004D01*
X113411000Y-84328000D01*
X113411000Y-87230949D01*
X111242974Y-89398974D01*
X110967673Y-89810992D01*
X110870999Y-90297000D01*
X110871000Y-90297005D01*
X110871000Y-95757995D01*
X110870999Y-95758000D01*
X110967673Y-96244008D01*
X111242974Y-96656026D01*
X113030000Y-98443052D01*
X113030000Y-100740111D01*
X112757837Y-100739873D01*
X112488331Y-100851231D01*
X112281955Y-101057247D01*
X112170128Y-101326558D01*
X112169873Y-101618163D01*
X112281231Y-101887669D01*
X112420400Y-102027081D01*
X112420400Y-104014496D01*
X111709948Y-104724948D01*
X111577803Y-104922716D01*
X111531400Y-105156000D01*
X111531400Y-107443495D01*
X111504008Y-107470887D01*
X111487837Y-107470873D01*
X111218331Y-107582231D01*
X111011955Y-107788247D01*
X110900128Y-108057558D01*
X110900113Y-108074783D01*
X110820948Y-108153948D01*
X110688803Y-108351716D01*
X110642400Y-108585000D01*
X110642400Y-108637296D01*
X106019600Y-104014496D01*
X106019600Y-99695000D01*
X105986599Y-99529093D01*
X106082605Y-99509996D01*
X106205661Y-99427772D01*
X106205669Y-99427769D01*
X106205675Y-99427763D01*
X106329815Y-99344815D01*
X106412038Y-99221760D01*
X106412045Y-99221753D01*
X106412049Y-99221744D01*
X106494996Y-99097605D01*
X106518180Y-98981052D01*
X106604727Y-98981052D01*
X106625102Y-99001427D01*
X106858491Y-99098100D01*
X107118150Y-99098100D01*
X107276900Y-98939350D01*
X107276900Y-98063050D01*
X107147152Y-98063050D01*
X107147152Y-97262950D01*
X107276900Y-97262950D01*
X107276900Y-96386650D01*
X107118150Y-96227900D01*
X106858491Y-96227900D01*
X106625102Y-96324573D01*
X106604727Y-96344948D01*
X105876777Y-96344948D01*
X105777769Y-96105331D01*
X105638600Y-95965919D01*
X105638600Y-94996000D01*
X105592197Y-94762716D01*
X105460052Y-94564948D01*
X104317052Y-93421948D01*
X104119284Y-93289803D01*
X103886000Y-93243400D01*
X94105505Y-93243400D01*
X88874600Y-88012496D01*
X88874600Y-87757000D01*
X88828197Y-87523716D01*
X88696052Y-87325948D01*
X86791052Y-85420948D01*
X86593284Y-85288803D01*
X86360000Y-85242400D01*
X84755178Y-85242400D01*
X84743753Y-85230955D01*
X84474442Y-85119128D01*
X84182837Y-85118873D01*
X83913331Y-85230231D01*
X83706955Y-85436247D01*
X83595128Y-85705558D01*
X83594951Y-85907847D01*
X83108052Y-85420948D01*
X82910284Y-85288803D01*
X82759614Y-85258833D01*
X82643200Y-85142419D01*
X82543219Y-85242400D01*
X82456095Y-85242400D01*
X82040038Y-84826343D01*
X82183581Y-84682800D01*
X83102819Y-84682800D01*
X83654084Y-85234065D01*
X83861056Y-85165902D01*
X83953228Y-84663075D01*
X83861056Y-84199698D01*
X83654084Y-84131535D01*
X83102819Y-84682800D01*
X82183581Y-84682800D01*
X81632316Y-84131535D01*
X81462100Y-84187593D01*
X81291884Y-84131535D01*
X80740619Y-84682800D01*
X80884162Y-84826343D01*
X80468105Y-85242400D01*
X80380981Y-85242400D01*
X80281000Y-85142419D01*
X80181019Y-85242400D01*
X80093895Y-85242400D01*
X79677838Y-84826343D01*
X79821381Y-84682800D01*
X79270116Y-84131535D01*
X79125300Y-84179228D01*
X78980484Y-84131535D01*
X78429219Y-84682800D01*
X78572762Y-84826343D01*
X78156705Y-85242400D01*
X78069581Y-85242400D01*
X77969600Y-85142419D01*
X77869619Y-85242400D01*
X77782495Y-85242400D01*
X77366438Y-84826343D01*
X77509981Y-84682800D01*
X76958716Y-84131535D01*
X76751744Y-84199698D01*
X76659572Y-84702525D01*
X76751744Y-85165902D01*
X76764029Y-85169948D01*
X76691577Y-85242400D01*
X74041000Y-85242400D01*
X74030022Y-85244584D01*
X74138872Y-84982442D01*
X74139127Y-84690837D01*
X74027769Y-84421331D01*
X73821753Y-84214955D01*
X73552442Y-84103128D01*
X73524482Y-84103104D01*
X73646045Y-83981753D01*
X73757872Y-83712442D01*
X73758127Y-83420837D01*
X73679227Y-83229884D01*
X77418335Y-83229884D01*
X77486498Y-83436856D01*
X77559984Y-83450327D01*
X77486498Y-83464944D01*
X77418335Y-83671916D01*
X77969600Y-84223181D01*
X78487018Y-83705763D01*
X79628344Y-83705763D01*
X79750764Y-83926458D01*
X80018566Y-83960747D01*
X80281000Y-84223181D01*
X80519741Y-83984440D01*
X80811236Y-83926458D01*
X80933656Y-83705763D01*
X80799097Y-83571204D01*
X80764102Y-83464944D01*
X80676841Y-83448948D01*
X80457777Y-83229884D01*
X82091935Y-83229884D01*
X82160098Y-83436856D01*
X82233584Y-83450327D01*
X82160098Y-83464944D01*
X82091935Y-83671916D01*
X82643200Y-84223181D01*
X83194465Y-83671916D01*
X83126302Y-83464944D01*
X83052816Y-83451473D01*
X83126302Y-83436856D01*
X83194465Y-83229884D01*
X82643200Y-82678619D01*
X82091935Y-83229884D01*
X80457777Y-83229884D01*
X80281000Y-83053107D01*
X79886858Y-83447249D01*
X79797898Y-83464944D01*
X79762903Y-83571204D01*
X79628344Y-83705763D01*
X78487018Y-83705763D01*
X78520865Y-83671916D01*
X78452702Y-83464944D01*
X78379216Y-83451473D01*
X78452702Y-83436856D01*
X78520865Y-83229884D01*
X77969600Y-82678619D01*
X77418335Y-83229884D01*
X73679227Y-83229884D01*
X73646769Y-83151331D01*
X73440753Y-82944955D01*
X73171442Y-82833128D01*
X73126600Y-82833089D01*
X73126600Y-82723178D01*
X73138045Y-82711753D01*
X73249872Y-82442442D01*
X73250050Y-82238725D01*
X76659572Y-82238725D01*
X76751744Y-82702102D01*
X76958716Y-82770265D01*
X77509981Y-82219000D01*
X78429219Y-82219000D01*
X78623976Y-82413757D01*
X78617935Y-82460941D01*
X78700542Y-82876236D01*
X78921237Y-82998656D01*
X79573893Y-82346000D01*
X80988107Y-82346000D01*
X81640763Y-82998656D01*
X81861458Y-82876236D01*
X81910666Y-82491915D01*
X82183581Y-82219000D01*
X83102819Y-82219000D01*
X83654084Y-82770265D01*
X83861056Y-82702102D01*
X83953228Y-82199275D01*
X83861056Y-81735898D01*
X83654084Y-81667735D01*
X83102819Y-82219000D01*
X82183581Y-82219000D01*
X81881598Y-81917017D01*
X81861458Y-81815764D01*
X81679303Y-81714722D01*
X81632316Y-81667735D01*
X81425344Y-81735898D01*
X81386544Y-81947563D01*
X80988107Y-82346000D01*
X79573893Y-82346000D01*
X79242993Y-82015100D01*
X79187456Y-81735898D01*
X78980484Y-81667735D01*
X78938056Y-81710163D01*
X78921237Y-81693344D01*
X78700542Y-81815764D01*
X78681172Y-81967047D01*
X78429219Y-82219000D01*
X77509981Y-82219000D01*
X76958716Y-81667735D01*
X76751744Y-81735898D01*
X76659572Y-82238725D01*
X73250050Y-82238725D01*
X73250127Y-82150837D01*
X73138769Y-81881331D01*
X72932753Y-81674955D01*
X72899396Y-81661104D01*
X72931669Y-81647769D01*
X73138045Y-81441753D01*
X73249872Y-81172442D01*
X73250027Y-80994684D01*
X77418335Y-80994684D01*
X77453480Y-81101400D01*
X77418335Y-81208116D01*
X77969600Y-81759381D01*
X78520865Y-81208116D01*
X78485720Y-81101400D01*
X78520865Y-80994684D01*
X78512418Y-80986237D01*
X79628344Y-80986237D01*
X79775376Y-81133269D01*
X79797898Y-81201656D01*
X79854057Y-81211950D01*
X80281000Y-81638893D01*
X80706848Y-81213045D01*
X80764102Y-81201656D01*
X80786624Y-81133269D01*
X80925209Y-80994684D01*
X82091935Y-80994684D01*
X82127080Y-81101400D01*
X82091935Y-81208116D01*
X82643200Y-81759381D01*
X83194465Y-81208116D01*
X83159320Y-81101400D01*
X83194465Y-80994684D01*
X82643200Y-80443419D01*
X82091935Y-80994684D01*
X80925209Y-80994684D01*
X80933656Y-80986237D01*
X80811236Y-80765542D01*
X80572564Y-80734983D01*
X80281000Y-80443419D01*
X80010552Y-80713867D01*
X79750764Y-80765542D01*
X79628344Y-80986237D01*
X78512418Y-80986237D01*
X77969600Y-80443419D01*
X77418335Y-80994684D01*
X73250027Y-80994684D01*
X73250127Y-80880837D01*
X73138769Y-80611331D01*
X72932753Y-80404955D01*
X72746093Y-80327448D01*
X72931669Y-80250769D01*
X73138045Y-80044753D01*
X73155164Y-80003525D01*
X76659572Y-80003525D01*
X76751744Y-80466902D01*
X76958716Y-80535065D01*
X77509981Y-79983800D01*
X78429219Y-79983800D01*
X78980484Y-80535065D01*
X79125300Y-80487372D01*
X79270116Y-80535065D01*
X79821381Y-79983800D01*
X80740619Y-79983800D01*
X81291884Y-80535065D01*
X81462100Y-80479007D01*
X81632316Y-80535065D01*
X82183581Y-79983800D01*
X83102819Y-79983800D01*
X83654084Y-80535065D01*
X83861056Y-80466902D01*
X83953228Y-79964075D01*
X83861056Y-79500698D01*
X83654084Y-79432535D01*
X83102819Y-79983800D01*
X82183581Y-79983800D01*
X81632316Y-79432535D01*
X81462100Y-79488593D01*
X81291884Y-79432535D01*
X80740619Y-79983800D01*
X79821381Y-79983800D01*
X79270116Y-79432535D01*
X79125300Y-79480228D01*
X78980484Y-79432535D01*
X78429219Y-79983800D01*
X77509981Y-79983800D01*
X76958716Y-79432535D01*
X76751744Y-79500698D01*
X76659572Y-80003525D01*
X73155164Y-80003525D01*
X73249872Y-79775442D01*
X73250127Y-79483837D01*
X73138769Y-79214331D01*
X72982119Y-79057407D01*
X73066757Y-78972916D01*
X77418335Y-78972916D01*
X77969600Y-79524181D01*
X78520865Y-78972916D01*
X79729735Y-78972916D01*
X80281000Y-79524181D01*
X80832265Y-78972916D01*
X82091935Y-78972916D01*
X82643200Y-79524181D01*
X83194465Y-78972916D01*
X83126302Y-78765944D01*
X82623475Y-78673772D01*
X82160098Y-78765944D01*
X82091935Y-78972916D01*
X80832265Y-78972916D01*
X80764102Y-78765944D01*
X80261275Y-78673772D01*
X79797898Y-78765944D01*
X79729735Y-78972916D01*
X78520865Y-78972916D01*
X78452702Y-78765944D01*
X77949875Y-78673772D01*
X77486498Y-78765944D01*
X77418335Y-78972916D01*
X73066757Y-78972916D01*
X73138045Y-78901753D01*
X73249872Y-78632442D01*
X73250127Y-78340837D01*
X73138769Y-78071331D01*
X72932753Y-77864955D01*
X72899396Y-77851104D01*
X72931669Y-77837769D01*
X73138045Y-77631753D01*
X73249872Y-77362442D01*
X73250127Y-77070837D01*
X73138769Y-76801331D01*
X72932753Y-76594955D01*
X72663442Y-76483128D01*
X72371837Y-76482873D01*
X72102331Y-76594231D01*
X71895955Y-76800247D01*
X71784128Y-77069558D01*
X71784113Y-77086782D01*
X70434948Y-78435948D01*
X70302803Y-78633716D01*
X70256400Y-78867000D01*
X70256400Y-103886000D01*
X70272073Y-103964792D01*
X70260128Y-103993558D01*
X70259873Y-104285163D01*
X70371231Y-104554669D01*
X70383400Y-104566859D01*
X70383400Y-116412822D01*
X70371955Y-116424247D01*
X70260128Y-116693558D01*
X70259873Y-116985163D01*
X70371231Y-117254669D01*
X70488127Y-117371769D01*
X70434948Y-117424948D01*
X70302803Y-117622716D01*
X70256400Y-117856000D01*
X70256400Y-129921000D01*
X70302803Y-130154284D01*
X70434948Y-130352052D01*
X72291887Y-132208991D01*
X72291873Y-132225163D01*
X72403231Y-132494669D01*
X72609247Y-132701045D01*
X72878558Y-132812872D01*
X73170163Y-132813127D01*
X73439669Y-132701769D01*
X73646045Y-132495753D01*
X73757872Y-132226442D01*
X73758127Y-131934837D01*
X73646769Y-131665331D01*
X73440753Y-131458955D01*
X73171442Y-131347128D01*
X73154217Y-131347113D01*
X71475600Y-129668496D01*
X71475600Y-126883649D01*
X71755273Y-126999779D01*
X72260510Y-127000220D01*
X72727458Y-126807282D01*
X73085026Y-126450337D01*
X73278779Y-125983727D01*
X73279220Y-125478490D01*
X73086282Y-125011542D01*
X72729337Y-124653974D01*
X72446329Y-124536459D01*
X72507481Y-124524295D01*
X72593006Y-124312821D01*
X72009000Y-123728815D01*
X71905055Y-123832760D01*
X71475600Y-123403305D01*
X71475600Y-122976695D01*
X71905055Y-122547240D01*
X72009000Y-122651185D01*
X72112945Y-122547240D01*
X72651760Y-123086055D01*
X72547815Y-123190000D01*
X73131821Y-123774006D01*
X73343295Y-123688481D01*
X73432489Y-123139923D01*
X73381753Y-122884857D01*
X73812400Y-123315505D01*
X73812400Y-132668822D01*
X73800955Y-132680247D01*
X73689128Y-132949558D01*
X73688873Y-133241163D01*
X73800231Y-133510669D01*
X74006247Y-133717045D01*
X74275558Y-133828872D01*
X74567163Y-133829127D01*
X74836669Y-133717769D01*
X75043045Y-133511753D01*
X75154872Y-133242442D01*
X75155127Y-132950837D01*
X75043769Y-132681331D01*
X75031600Y-132669141D01*
X75031600Y-127479089D01*
X75075163Y-127479127D01*
X75344669Y-127367769D01*
X75551045Y-127161753D01*
X75590400Y-127066975D01*
X75590400Y-134366000D01*
X75636803Y-134599284D01*
X75768948Y-134797052D01*
X77495533Y-136523637D01*
X77470000Y-136652000D01*
X77470000Y-136708293D01*
X77302371Y-136875630D01*
X77145215Y-137254105D01*
X77105004Y-136821803D01*
X76799548Y-136084366D01*
X76357016Y-135689404D01*
X76227494Y-135818926D01*
X76222711Y-135794882D01*
X76017791Y-135734474D01*
X75481264Y-136271000D01*
X75628342Y-136418078D01*
X75330922Y-136715498D01*
X75289586Y-136674162D01*
X75162742Y-136801006D01*
X75057000Y-136695264D01*
X74520474Y-137231791D01*
X74580882Y-137436711D01*
X74605030Y-137441390D01*
X74124420Y-137922000D01*
X74604926Y-138402506D01*
X74580882Y-138407289D01*
X74520474Y-138612209D01*
X75057000Y-139148736D01*
X75162742Y-139042994D01*
X75289586Y-139169838D01*
X75330922Y-139128502D01*
X75628342Y-139425922D01*
X75481264Y-139573000D01*
X76017791Y-140109526D01*
X76222711Y-140049118D01*
X76227390Y-140024970D01*
X76357016Y-140154596D01*
X76799548Y-139759634D01*
X77244391Y-138321323D01*
X77300990Y-138458303D01*
X77643137Y-138801048D01*
X77597000Y-138801048D01*
X77398788Y-138840475D01*
X77230753Y-138952753D01*
X77118475Y-139120788D01*
X77079048Y-139319000D01*
X77079048Y-141097000D01*
X75438689Y-141097000D01*
X75638596Y-140873016D01*
X75509074Y-140743494D01*
X75533118Y-140738711D01*
X75593526Y-140533791D01*
X75057000Y-139997264D01*
X74909922Y-140144342D01*
X74612502Y-139846922D01*
X74653838Y-139805586D01*
X74526994Y-139678742D01*
X74632736Y-139573000D01*
X74096209Y-139036474D01*
X73891289Y-139096882D01*
X73886610Y-139121030D01*
X73406000Y-138640420D01*
X72917922Y-139128498D01*
X72876586Y-139087162D01*
X72781039Y-139182709D01*
X72715791Y-139163474D01*
X72179264Y-139700000D01*
X72221506Y-139742242D01*
X72158162Y-139805586D01*
X72199498Y-139846922D01*
X71838578Y-140207842D01*
X71755000Y-140124264D01*
X71218474Y-140660791D01*
X71256531Y-140789889D01*
X71173404Y-140873016D01*
X71373311Y-141097000D01*
X70231000Y-141097000D01*
X70231000Y-139954689D01*
X70454984Y-140154596D01*
X70563436Y-140046144D01*
X70589289Y-140176118D01*
X70794209Y-140236526D01*
X71330736Y-139700000D01*
X71169516Y-139538780D01*
X71593780Y-139114516D01*
X71755000Y-139275736D01*
X72291526Y-138739209D01*
X72231118Y-138534289D01*
X72169838Y-138522414D01*
X72240838Y-138451414D01*
X72199502Y-138410078D01*
X72687580Y-137922000D01*
X72207074Y-137441494D01*
X72231118Y-137436711D01*
X72291526Y-137231791D01*
X71755000Y-136695264D01*
X71649258Y-136801006D01*
X71522414Y-136674162D01*
X71481078Y-136715498D01*
X71183658Y-136418078D01*
X71330736Y-136271000D01*
X70794209Y-135734474D01*
X70589289Y-135794882D01*
X70584610Y-135819030D01*
X70454984Y-135689404D01*
X70231000Y-135889311D01*
X70231000Y-134970984D01*
X71173404Y-134970984D01*
X71302926Y-135100506D01*
X71278882Y-135105289D01*
X71218474Y-135310209D01*
X71755000Y-135846736D01*
X71902078Y-135699658D01*
X72199498Y-135997078D01*
X72158162Y-136038414D01*
X72285006Y-136165258D01*
X72179264Y-136271000D01*
X72715791Y-136807526D01*
X72920711Y-136747118D01*
X72925390Y-136722970D01*
X73406000Y-137203580D01*
X73886506Y-136723074D01*
X73891289Y-136747118D01*
X74096209Y-136807526D01*
X74632736Y-136271000D01*
X74526994Y-136165258D01*
X74653838Y-136038414D01*
X74612502Y-135997078D01*
X74909922Y-135699658D01*
X75057000Y-135846736D01*
X75593526Y-135310209D01*
X75533118Y-135105289D01*
X75508970Y-135100610D01*
X75638596Y-134970984D01*
X75243634Y-134528452D01*
X73805098Y-134083539D01*
X72305803Y-134222996D01*
X71568366Y-134528452D01*
X71173404Y-134970984D01*
X70231000Y-134970984D01*
X70231000Y-73787000D01*
X89154000Y-73787000D01*
X89397004Y-73738664D01*
X89603013Y-73601013D01*
X89740664Y-73395004D01*
X89789000Y-73152000D01*
X89789000Y-67691000D01*
X92329000Y-67691000D01*
X92329000Y-74041000D01*
G36*
X122353662Y-137608957D02*
X122294618Y-137668000D01*
X122809000Y-138182382D01*
X122809000Y-139693618D01*
X122294618Y-140208000D01*
X122353662Y-140267044D01*
X121725044Y-140895662D01*
X121666000Y-140836618D01*
X121606957Y-140895662D01*
X120978339Y-140267044D01*
X121037382Y-140208000D01*
X120416612Y-139587230D01*
X120387006Y-139601621D01*
X120311010Y-139417697D01*
X119918370Y-139024371D01*
X119732320Y-138947116D01*
X119746770Y-138917388D01*
X121045230Y-138917388D01*
X121055249Y-138938000D01*
X121045230Y-138958612D01*
X121084221Y-138997603D01*
X121150441Y-139133834D01*
X121232116Y-139145498D01*
X121666000Y-139579382D01*
X122094164Y-139151218D01*
X122181559Y-139133834D01*
X122247779Y-138997603D01*
X122286770Y-138958612D01*
X122276751Y-138938000D01*
X122286770Y-138917388D01*
X122247779Y-138878397D01*
X122181559Y-138742166D01*
X122099884Y-138730502D01*
X121666000Y-138296618D01*
X121237836Y-138724782D01*
X121150441Y-138742166D01*
X121084221Y-138878397D01*
X121045230Y-138917388D01*
X119746770Y-138917388D01*
X119126000Y-138296618D01*
X119066957Y-138355662D01*
X118438339Y-137727044D01*
X118497382Y-137668000D01*
X118438339Y-137608957D01*
X119066957Y-136980339D01*
X119126000Y-137039382D01*
X119185044Y-136980339D01*
X119813662Y-137608957D01*
X119754618Y-137668000D01*
X120182782Y-138096164D01*
X120200166Y-138183559D01*
X120336397Y-138249779D01*
X120375388Y-138288770D01*
X120396000Y-138278751D01*
X120416612Y-138288770D01*
X120455603Y-138249779D01*
X120591834Y-138183559D01*
X120603498Y-138101884D01*
X121037382Y-137668000D01*
X120978339Y-137608957D01*
X121606957Y-136980339D01*
X121666000Y-137039382D01*
X121725044Y-136980339D01*
X122353662Y-137608957D01*
X122353662Y-137608957D01*
G37*
X122353662Y-137608957D02*
X122294618Y-137668000D01*
X122809000Y-138182382D01*
X122809000Y-139693618D01*
X122294618Y-140208000D01*
X122353662Y-140267044D01*
X121725044Y-140895662D01*
X121666000Y-140836618D01*
X121606957Y-140895662D01*
X120978339Y-140267044D01*
X121037382Y-140208000D01*
X120416612Y-139587230D01*
X120387006Y-139601621D01*
X120311010Y-139417697D01*
X119918370Y-139024371D01*
X119732320Y-138947116D01*
X119746770Y-138917388D01*
X121045230Y-138917388D01*
X121055249Y-138938000D01*
X121045230Y-138958612D01*
X121084221Y-138997603D01*
X121150441Y-139133834D01*
X121232116Y-139145498D01*
X121666000Y-139579382D01*
X122094164Y-139151218D01*
X122181559Y-139133834D01*
X122247779Y-138997603D01*
X122286770Y-138958612D01*
X122276751Y-138938000D01*
X122286770Y-138917388D01*
X122247779Y-138878397D01*
X122181559Y-138742166D01*
X122099884Y-138730502D01*
X121666000Y-138296618D01*
X121237836Y-138724782D01*
X121150441Y-138742166D01*
X121084221Y-138878397D01*
X121045230Y-138917388D01*
X119746770Y-138917388D01*
X119126000Y-138296618D01*
X119066957Y-138355662D01*
X118438339Y-137727044D01*
X118497382Y-137668000D01*
X118438339Y-137608957D01*
X119066957Y-136980339D01*
X119126000Y-137039382D01*
X119185044Y-136980339D01*
X119813662Y-137608957D01*
X119754618Y-137668000D01*
X120182782Y-138096164D01*
X120200166Y-138183559D01*
X120336397Y-138249779D01*
X120375388Y-138288770D01*
X120396000Y-138278751D01*
X120416612Y-138288770D01*
X120455603Y-138249779D01*
X120591834Y-138183559D01*
X120603498Y-138101884D01*
X121037382Y-137668000D01*
X120978339Y-137608957D01*
X121606957Y-136980339D01*
X121666000Y-137039382D01*
X121725044Y-136980339D01*
X122353662Y-137608957D01*
G36*
X79908400Y-129792505D02*
X79908400Y-135942296D01*
X78586303Y-134620199D01*
X78610510Y-134620220D01*
X79077458Y-134427282D01*
X79435026Y-134070337D01*
X79628779Y-133603727D01*
X79629220Y-133098490D01*
X79436282Y-132631542D01*
X79079337Y-132273974D01*
X78636162Y-132089952D01*
X79121000Y-132089952D01*
X79319212Y-132050525D01*
X79487247Y-131938247D01*
X79599525Y-131770212D01*
X79638952Y-131572000D01*
X79638952Y-130048000D01*
X79599525Y-129849788D01*
X79545277Y-129768600D01*
X79884496Y-129768600D01*
X79908400Y-129792505D01*
X79908400Y-129792505D01*
G37*
X79908400Y-129792505D02*
X79908400Y-135942296D01*
X78586303Y-134620199D01*
X78610510Y-134620220D01*
X79077458Y-134427282D01*
X79435026Y-134070337D01*
X79628779Y-133603727D01*
X79629220Y-133098490D01*
X79436282Y-132631542D01*
X79079337Y-132273974D01*
X78636162Y-132089952D01*
X79121000Y-132089952D01*
X79319212Y-132050525D01*
X79487247Y-131938247D01*
X79599525Y-131770212D01*
X79638952Y-131572000D01*
X79638952Y-130048000D01*
X79599525Y-129849788D01*
X79545277Y-129768600D01*
X79884496Y-129768600D01*
X79908400Y-129792505D01*
G36*
X94898048Y-130116889D02*
X94898048Y-131152000D01*
X94937475Y-131350212D01*
X95049753Y-131518247D01*
X95217788Y-131630525D01*
X95416000Y-131669952D01*
X96175322Y-131669952D01*
X99029185Y-134523815D01*
X99152240Y-134606038D01*
X99152247Y-134606045D01*
X99152256Y-134606049D01*
X99276395Y-134688996D01*
X99421550Y-134717869D01*
X99421558Y-134717872D01*
X99421567Y-134717872D01*
X99568000Y-134746999D01*
X99713151Y-134718127D01*
X99713163Y-134718127D01*
X99713174Y-134718122D01*
X99859604Y-134688996D01*
X99982660Y-134606773D01*
X99982669Y-134606769D01*
X99982676Y-134606762D01*
X100094425Y-134532094D01*
X100168247Y-134606045D01*
X100437558Y-134717872D01*
X100639847Y-134718049D01*
X99586062Y-135771834D01*
X99524420Y-135679580D01*
X99194806Y-135459338D01*
X98806000Y-135382000D01*
X98677638Y-135407533D01*
X92684600Y-129414496D01*
X92684600Y-128143000D01*
X92638197Y-127909716D01*
X92556468Y-127787400D01*
X92532120Y-127750960D01*
X94898048Y-130116889D01*
X94898048Y-130116889D01*
G37*
X94898048Y-130116889D02*
X94898048Y-131152000D01*
X94937475Y-131350212D01*
X95049753Y-131518247D01*
X95217788Y-131630525D01*
X95416000Y-131669952D01*
X96175322Y-131669952D01*
X99029185Y-134523815D01*
X99152240Y-134606038D01*
X99152247Y-134606045D01*
X99152256Y-134606049D01*
X99276395Y-134688996D01*
X99421550Y-134717869D01*
X99421558Y-134717872D01*
X99421567Y-134717872D01*
X99568000Y-134746999D01*
X99713151Y-134718127D01*
X99713163Y-134718127D01*
X99713174Y-134718122D01*
X99859604Y-134688996D01*
X99982660Y-134606773D01*
X99982669Y-134606769D01*
X99982676Y-134606762D01*
X100094425Y-134532094D01*
X100168247Y-134606045D01*
X100437558Y-134717872D01*
X100639847Y-134718049D01*
X99586062Y-135771834D01*
X99524420Y-135679580D01*
X99194806Y-135459338D01*
X98806000Y-135382000D01*
X98677638Y-135407533D01*
X92684600Y-129414496D01*
X92684600Y-128143000D01*
X92638197Y-127909716D01*
X92556468Y-127787400D01*
X92532120Y-127750960D01*
X94898048Y-130116889D01*
G36*
X117501148Y-127812052D02*
X117698916Y-127944197D01*
X117932200Y-127990600D01*
X122986800Y-127990600D01*
X123220084Y-127944197D01*
X123417852Y-127812052D01*
X124231599Y-126998305D01*
X124206000Y-127127000D01*
X124206000Y-128041400D01*
X116886178Y-128041400D01*
X116874753Y-128029955D01*
X116605442Y-127918128D01*
X116313837Y-127917873D01*
X116044331Y-128029231D01*
X115837955Y-128235247D01*
X115726128Y-128504558D01*
X115725873Y-128796163D01*
X115837231Y-129065669D01*
X116043247Y-129272045D01*
X116077426Y-129286237D01*
X115980128Y-129520558D01*
X115979873Y-129812163D01*
X116091231Y-130081669D01*
X116297247Y-130288045D01*
X116566558Y-130399872D01*
X116858163Y-130400127D01*
X117127669Y-130288769D01*
X117334045Y-130082753D01*
X117445872Y-129813442D01*
X117445887Y-129796218D01*
X117473505Y-129768600D01*
X118012022Y-129768600D01*
X118011873Y-129939163D01*
X118123231Y-130208669D01*
X118329247Y-130415045D01*
X118598558Y-130526872D01*
X118890163Y-130527127D01*
X119159669Y-130415769D01*
X119171859Y-130403600D01*
X124080496Y-130403600D01*
X126060948Y-132384052D01*
X126258716Y-132516197D01*
X126492000Y-132562600D01*
X127001496Y-132562600D01*
X127204696Y-132765800D01*
X126745998Y-132765800D01*
X126745998Y-132816598D01*
X126695200Y-132765800D01*
X126327590Y-132765800D01*
X126094201Y-132862473D01*
X125915573Y-133041102D01*
X125818900Y-133274491D01*
X125818900Y-133534150D01*
X125977650Y-133692900D01*
X126853950Y-133692900D01*
X126853950Y-133457000D01*
X127654050Y-133457000D01*
X127654050Y-133692900D01*
X127782000Y-133692900D01*
X127782000Y-134099059D01*
X127655412Y-134014475D01*
X127457200Y-133975048D01*
X127050800Y-133975048D01*
X126852588Y-134014475D01*
X126684553Y-134126753D01*
X126584094Y-134277100D01*
X125977650Y-134277100D01*
X125818900Y-134435850D01*
X125818900Y-134695509D01*
X125915573Y-134928898D01*
X125935948Y-134949273D01*
X125935948Y-135421108D01*
X125476000Y-134961160D01*
X125476000Y-134366000D01*
X125398662Y-133977194D01*
X125178420Y-133647580D01*
X124848806Y-133427338D01*
X124709175Y-133399564D01*
X124546206Y-133290671D01*
X124206000Y-133223000D01*
X119229162Y-133223000D01*
X119063394Y-133154167D01*
X118682278Y-133153834D01*
X118330046Y-133299374D01*
X118060321Y-133568628D01*
X117914167Y-133920606D01*
X117913834Y-134301722D01*
X117940393Y-134366000D01*
X116731052Y-134366000D01*
X115316000Y-132950948D01*
X115316000Y-128778000D01*
X115219327Y-128291992D01*
X114944026Y-127879974D01*
X114944023Y-127879972D01*
X114808000Y-127743949D01*
X114808000Y-125118904D01*
X117501148Y-127812052D01*
X117501148Y-127812052D01*
G37*
X117501148Y-127812052D02*
X117698916Y-127944197D01*
X117932200Y-127990600D01*
X122986800Y-127990600D01*
X123220084Y-127944197D01*
X123417852Y-127812052D01*
X124231599Y-126998305D01*
X124206000Y-127127000D01*
X124206000Y-128041400D01*
X116886178Y-128041400D01*
X116874753Y-128029955D01*
X116605442Y-127918128D01*
X116313837Y-127917873D01*
X116044331Y-128029231D01*
X115837955Y-128235247D01*
X115726128Y-128504558D01*
X115725873Y-128796163D01*
X115837231Y-129065669D01*
X116043247Y-129272045D01*
X116077426Y-129286237D01*
X115980128Y-129520558D01*
X115979873Y-129812163D01*
X116091231Y-130081669D01*
X116297247Y-130288045D01*
X116566558Y-130399872D01*
X116858163Y-130400127D01*
X117127669Y-130288769D01*
X117334045Y-130082753D01*
X117445872Y-129813442D01*
X117445887Y-129796218D01*
X117473505Y-129768600D01*
X118012022Y-129768600D01*
X118011873Y-129939163D01*
X118123231Y-130208669D01*
X118329247Y-130415045D01*
X118598558Y-130526872D01*
X118890163Y-130527127D01*
X119159669Y-130415769D01*
X119171859Y-130403600D01*
X124080496Y-130403600D01*
X126060948Y-132384052D01*
X126258716Y-132516197D01*
X126492000Y-132562600D01*
X127001496Y-132562600D01*
X127204696Y-132765800D01*
X126745998Y-132765800D01*
X126745998Y-132816598D01*
X126695200Y-132765800D01*
X126327590Y-132765800D01*
X126094201Y-132862473D01*
X125915573Y-133041102D01*
X125818900Y-133274491D01*
X125818900Y-133534150D01*
X125977650Y-133692900D01*
X126853950Y-133692900D01*
X126853950Y-133457000D01*
X127654050Y-133457000D01*
X127654050Y-133692900D01*
X127782000Y-133692900D01*
X127782000Y-134099059D01*
X127655412Y-134014475D01*
X127457200Y-133975048D01*
X127050800Y-133975048D01*
X126852588Y-134014475D01*
X126684553Y-134126753D01*
X126584094Y-134277100D01*
X125977650Y-134277100D01*
X125818900Y-134435850D01*
X125818900Y-134695509D01*
X125915573Y-134928898D01*
X125935948Y-134949273D01*
X125935948Y-135421108D01*
X125476000Y-134961160D01*
X125476000Y-134366000D01*
X125398662Y-133977194D01*
X125178420Y-133647580D01*
X124848806Y-133427338D01*
X124709175Y-133399564D01*
X124546206Y-133290671D01*
X124206000Y-133223000D01*
X119229162Y-133223000D01*
X119063394Y-133154167D01*
X118682278Y-133153834D01*
X118330046Y-133299374D01*
X118060321Y-133568628D01*
X117914167Y-133920606D01*
X117913834Y-134301722D01*
X117940393Y-134366000D01*
X116731052Y-134366000D01*
X115316000Y-132950948D01*
X115316000Y-128778000D01*
X115219327Y-128291992D01*
X114944026Y-127879974D01*
X114944023Y-127879972D01*
X114808000Y-127743949D01*
X114808000Y-125118904D01*
X117501148Y-127812052D01*
G36*
X102734072Y-131070240D02*
X103115750Y-131452585D01*
X103614692Y-131659764D01*
X103698059Y-131659837D01*
X101316951Y-134040945D01*
X101317127Y-133839837D01*
X101205769Y-133570331D01*
X100999753Y-133363955D01*
X100730442Y-133252128D01*
X100713217Y-133252113D01*
X100685600Y-133224496D01*
X100685600Y-131498199D01*
X101074692Y-131659764D01*
X101614938Y-131660235D01*
X102114240Y-131453928D01*
X102496585Y-131072250D01*
X102616038Y-130784575D01*
X102734072Y-131070240D01*
X102734072Y-131070240D01*
G37*
X102734072Y-131070240D02*
X103115750Y-131452585D01*
X103614692Y-131659764D01*
X103698059Y-131659837D01*
X101316951Y-134040945D01*
X101317127Y-133839837D01*
X101205769Y-133570331D01*
X100999753Y-133363955D01*
X100730442Y-133252128D01*
X100713217Y-133252113D01*
X100685600Y-133224496D01*
X100685600Y-131498199D01*
X101074692Y-131659764D01*
X101614938Y-131660235D01*
X102114240Y-131453928D01*
X102496585Y-131072250D01*
X102616038Y-130784575D01*
X102734072Y-131070240D01*
G36*
X102734072Y-128530240D02*
X103115750Y-128912585D01*
X103403425Y-129032038D01*
X103117760Y-129150072D01*
X102735415Y-129531750D01*
X102615962Y-129819425D01*
X102497928Y-129533760D01*
X102116250Y-129151415D01*
X101828575Y-129031962D01*
X102114240Y-128913928D01*
X102496585Y-128532250D01*
X102616038Y-128244575D01*
X102734072Y-128530240D01*
X102734072Y-128530240D01*
G37*
X102734072Y-128530240D02*
X103115750Y-128912585D01*
X103403425Y-129032038D01*
X103117760Y-129150072D01*
X102735415Y-129531750D01*
X102615962Y-129819425D01*
X102497928Y-129533760D01*
X102116250Y-129151415D01*
X101828575Y-129031962D01*
X102114240Y-128913928D01*
X102496585Y-128532250D01*
X102616038Y-128244575D01*
X102734072Y-128530240D01*
G36*
X78375943Y-129530048D02*
X77597000Y-129530048D01*
X77398788Y-129569475D01*
X77317600Y-129623723D01*
X77317600Y-128471704D01*
X78375943Y-129530048D01*
X78375943Y-129530048D01*
G37*
X78375943Y-129530048D02*
X77597000Y-129530048D01*
X77398788Y-129569475D01*
X77317600Y-129623723D01*
X77317600Y-128471704D01*
X78375943Y-129530048D01*
G36*
X105274072Y-128530240D02*
X105415740Y-128672156D01*
X104796243Y-129291653D01*
X104656250Y-129151415D01*
X104368575Y-129031962D01*
X104654240Y-128913928D01*
X105036585Y-128532250D01*
X105156038Y-128244575D01*
X105274072Y-128530240D01*
X105274072Y-128530240D01*
G37*
X105274072Y-128530240D02*
X105415740Y-128672156D01*
X104796243Y-129291653D01*
X104656250Y-129151415D01*
X104368575Y-129031962D01*
X104654240Y-128913928D01*
X105036585Y-128532250D01*
X105156038Y-128244575D01*
X105274072Y-128530240D01*
G36*
X91846400Y-100074504D02*
X91846400Y-106300496D01*
X91262948Y-106883948D01*
X91130803Y-107081716D01*
X91084400Y-107315000D01*
X91084400Y-108585000D01*
X91130803Y-108818284D01*
X91262948Y-109016052D01*
X91341887Y-109094991D01*
X91341873Y-109111163D01*
X91453231Y-109380669D01*
X91659247Y-109587045D01*
X91928558Y-109698872D01*
X92062332Y-109698989D01*
X92088231Y-109761669D01*
X92294247Y-109968045D01*
X92563558Y-110079872D01*
X92855163Y-110080127D01*
X93124669Y-109968769D01*
X93331045Y-109762753D01*
X93442872Y-109493442D01*
X93443127Y-109201837D01*
X93364342Y-109011164D01*
X93505669Y-108952769D01*
X93712045Y-108746753D01*
X93823872Y-108477442D01*
X93823887Y-108460218D01*
X94030052Y-108254053D01*
X94162197Y-108056284D01*
X94169056Y-108021803D01*
X94208600Y-107823000D01*
X94208600Y-103352600D01*
X94488000Y-103352600D01*
X94721284Y-103306197D01*
X94919052Y-103174052D01*
X94932500Y-103160604D01*
X94945948Y-103174052D01*
X95143716Y-103306197D01*
X95377000Y-103352600D01*
X95758000Y-103352600D01*
X95991284Y-103306197D01*
X96189052Y-103174052D01*
X96316052Y-103047052D01*
X96369958Y-102966377D01*
X96373558Y-102967872D01*
X96414569Y-102967908D01*
X96540716Y-103052197D01*
X96774000Y-103098600D01*
X99315496Y-103098600D01*
X99339400Y-103122505D01*
X99339400Y-104522496D01*
X93167948Y-110693948D01*
X93035803Y-110891716D01*
X92989400Y-111125000D01*
X92989400Y-115189000D01*
X93035803Y-115422284D01*
X93167948Y-115620052D01*
X98323400Y-120775504D01*
X98323400Y-124460000D01*
X98369803Y-124693284D01*
X98501948Y-124891052D01*
X99340896Y-125730000D01*
X98298000Y-125730000D01*
X98054996Y-125778336D01*
X97848987Y-125915987D01*
X97203353Y-126561621D01*
X96975654Y-126333922D01*
X96838456Y-126471121D01*
X96776350Y-126336511D01*
X96191991Y-126249717D01*
X95755650Y-126336511D01*
X95656485Y-126551444D01*
X96266000Y-127160959D01*
X96338832Y-127088127D01*
X96901000Y-127650295D01*
X96901000Y-127728041D01*
X96867041Y-127762000D01*
X96901000Y-127795959D01*
X96901000Y-127873705D01*
X96338832Y-128435873D01*
X96266000Y-128363041D01*
X96193168Y-128435873D01*
X95592127Y-127834832D01*
X95664959Y-127762000D01*
X95055444Y-127152485D01*
X94885660Y-127230819D01*
X92964000Y-125309160D01*
X92964000Y-124968000D01*
X92886662Y-124579194D01*
X92666420Y-124249580D01*
X92336806Y-124029338D01*
X91948000Y-123952000D01*
X91559194Y-124029338D01*
X91229580Y-124249580D01*
X91009338Y-124579194D01*
X90932000Y-124968000D01*
X90932000Y-125730000D01*
X90993503Y-126039197D01*
X91009338Y-126118807D01*
X91203513Y-126409409D01*
X90166850Y-125372745D01*
X90283045Y-125256753D01*
X90394872Y-124987442D01*
X90395127Y-124695837D01*
X90283769Y-124426331D01*
X90077753Y-124219955D01*
X89808442Y-124108128D01*
X89791217Y-124108113D01*
X89636600Y-123953496D01*
X89636600Y-122174000D01*
X89590197Y-121940716D01*
X89458052Y-121742948D01*
X88366600Y-120651496D01*
X88366600Y-119013440D01*
X94023580Y-124670421D01*
X94353193Y-124890662D01*
X94381020Y-124896197D01*
X94742000Y-124968000D01*
X95631000Y-124968000D01*
X96019806Y-124890662D01*
X96349420Y-124670420D01*
X96569662Y-124340806D01*
X96647000Y-123952000D01*
X96569662Y-123563194D01*
X96349420Y-123233580D01*
X96019806Y-123013338D01*
X95631000Y-122936000D01*
X95162841Y-122936000D01*
X89789000Y-117562160D01*
X89789000Y-106553000D01*
X89711662Y-106164194D01*
X89660376Y-106087440D01*
X89839052Y-105968052D01*
X90171992Y-105635113D01*
X90188163Y-105635127D01*
X90457669Y-105523769D01*
X90664045Y-105317753D01*
X90775872Y-105048442D01*
X90776127Y-104756837D01*
X90664769Y-104487331D01*
X90458753Y-104280955D01*
X90398600Y-104255977D01*
X90398600Y-102997000D01*
X90352197Y-102763716D01*
X90220052Y-102565948D01*
X90093052Y-102438948D01*
X89895284Y-102306803D01*
X89662000Y-102260400D01*
X89281000Y-102260400D01*
X89047716Y-102306803D01*
X88849948Y-102438948D01*
X88836500Y-102452396D01*
X88823052Y-102438948D01*
X88625284Y-102306803D01*
X88392000Y-102260400D01*
X88011000Y-102260400D01*
X87858600Y-102290714D01*
X87858600Y-102108000D01*
X87812197Y-101874716D01*
X87680052Y-101676948D01*
X86969600Y-100966496D01*
X86969600Y-99360178D01*
X86981045Y-99348753D01*
X87092872Y-99079442D01*
X87093127Y-98787837D01*
X86981769Y-98518331D01*
X86775753Y-98311955D01*
X86506442Y-98200128D01*
X86214837Y-98199873D01*
X85945331Y-98311231D01*
X85738955Y-98517247D01*
X85627128Y-98786558D01*
X85626873Y-99078163D01*
X85738231Y-99347669D01*
X85750400Y-99359859D01*
X85750400Y-101219000D01*
X85796803Y-101452284D01*
X85928948Y-101650052D01*
X86639400Y-102360504D01*
X86639400Y-104140000D01*
X86685803Y-104373284D01*
X86817948Y-104571052D01*
X86944948Y-104698052D01*
X87142716Y-104830197D01*
X87376000Y-104876600D01*
X87555296Y-104876600D01*
X86817948Y-105613948D01*
X86685803Y-105811716D01*
X86639400Y-106045000D01*
X86639400Y-112701296D01*
X86080600Y-112142496D01*
X86080600Y-102743000D01*
X86034197Y-102509716D01*
X85902052Y-102311948D01*
X85191600Y-101601496D01*
X85191600Y-98677504D01*
X86029052Y-97840052D01*
X86161197Y-97642284D01*
X86207600Y-97409000D01*
X86207600Y-94435704D01*
X91846400Y-100074504D01*
X91846400Y-100074504D01*
G37*
X91846400Y-100074504D02*
X91846400Y-106300496D01*
X91262948Y-106883948D01*
X91130803Y-107081716D01*
X91084400Y-107315000D01*
X91084400Y-108585000D01*
X91130803Y-108818284D01*
X91262948Y-109016052D01*
X91341887Y-109094991D01*
X91341873Y-109111163D01*
X91453231Y-109380669D01*
X91659247Y-109587045D01*
X91928558Y-109698872D01*
X92062332Y-109698989D01*
X92088231Y-109761669D01*
X92294247Y-109968045D01*
X92563558Y-110079872D01*
X92855163Y-110080127D01*
X93124669Y-109968769D01*
X93331045Y-109762753D01*
X93442872Y-109493442D01*
X93443127Y-109201837D01*
X93364342Y-109011164D01*
X93505669Y-108952769D01*
X93712045Y-108746753D01*
X93823872Y-108477442D01*
X93823887Y-108460218D01*
X94030052Y-108254053D01*
X94162197Y-108056284D01*
X94169056Y-108021803D01*
X94208600Y-107823000D01*
X94208600Y-103352600D01*
X94488000Y-103352600D01*
X94721284Y-103306197D01*
X94919052Y-103174052D01*
X94932500Y-103160604D01*
X94945948Y-103174052D01*
X95143716Y-103306197D01*
X95377000Y-103352600D01*
X95758000Y-103352600D01*
X95991284Y-103306197D01*
X96189052Y-103174052D01*
X96316052Y-103047052D01*
X96369958Y-102966377D01*
X96373558Y-102967872D01*
X96414569Y-102967908D01*
X96540716Y-103052197D01*
X96774000Y-103098600D01*
X99315496Y-103098600D01*
X99339400Y-103122505D01*
X99339400Y-104522496D01*
X93167948Y-110693948D01*
X93035803Y-110891716D01*
X92989400Y-111125000D01*
X92989400Y-115189000D01*
X93035803Y-115422284D01*
X93167948Y-115620052D01*
X98323400Y-120775504D01*
X98323400Y-124460000D01*
X98369803Y-124693284D01*
X98501948Y-124891052D01*
X99340896Y-125730000D01*
X98298000Y-125730000D01*
X98054996Y-125778336D01*
X97848987Y-125915987D01*
X97203353Y-126561621D01*
X96975654Y-126333922D01*
X96838456Y-126471121D01*
X96776350Y-126336511D01*
X96191991Y-126249717D01*
X95755650Y-126336511D01*
X95656485Y-126551444D01*
X96266000Y-127160959D01*
X96338832Y-127088127D01*
X96901000Y-127650295D01*
X96901000Y-127728041D01*
X96867041Y-127762000D01*
X96901000Y-127795959D01*
X96901000Y-127873705D01*
X96338832Y-128435873D01*
X96266000Y-128363041D01*
X96193168Y-128435873D01*
X95592127Y-127834832D01*
X95664959Y-127762000D01*
X95055444Y-127152485D01*
X94885660Y-127230819D01*
X92964000Y-125309160D01*
X92964000Y-124968000D01*
X92886662Y-124579194D01*
X92666420Y-124249580D01*
X92336806Y-124029338D01*
X91948000Y-123952000D01*
X91559194Y-124029338D01*
X91229580Y-124249580D01*
X91009338Y-124579194D01*
X90932000Y-124968000D01*
X90932000Y-125730000D01*
X90993503Y-126039197D01*
X91009338Y-126118807D01*
X91203513Y-126409409D01*
X90166850Y-125372745D01*
X90283045Y-125256753D01*
X90394872Y-124987442D01*
X90395127Y-124695837D01*
X90283769Y-124426331D01*
X90077753Y-124219955D01*
X89808442Y-124108128D01*
X89791217Y-124108113D01*
X89636600Y-123953496D01*
X89636600Y-122174000D01*
X89590197Y-121940716D01*
X89458052Y-121742948D01*
X88366600Y-120651496D01*
X88366600Y-119013440D01*
X94023580Y-124670421D01*
X94353193Y-124890662D01*
X94381020Y-124896197D01*
X94742000Y-124968000D01*
X95631000Y-124968000D01*
X96019806Y-124890662D01*
X96349420Y-124670420D01*
X96569662Y-124340806D01*
X96647000Y-123952000D01*
X96569662Y-123563194D01*
X96349420Y-123233580D01*
X96019806Y-123013338D01*
X95631000Y-122936000D01*
X95162841Y-122936000D01*
X89789000Y-117562160D01*
X89789000Y-106553000D01*
X89711662Y-106164194D01*
X89660376Y-106087440D01*
X89839052Y-105968052D01*
X90171992Y-105635113D01*
X90188163Y-105635127D01*
X90457669Y-105523769D01*
X90664045Y-105317753D01*
X90775872Y-105048442D01*
X90776127Y-104756837D01*
X90664769Y-104487331D01*
X90458753Y-104280955D01*
X90398600Y-104255977D01*
X90398600Y-102997000D01*
X90352197Y-102763716D01*
X90220052Y-102565948D01*
X90093052Y-102438948D01*
X89895284Y-102306803D01*
X89662000Y-102260400D01*
X89281000Y-102260400D01*
X89047716Y-102306803D01*
X88849948Y-102438948D01*
X88836500Y-102452396D01*
X88823052Y-102438948D01*
X88625284Y-102306803D01*
X88392000Y-102260400D01*
X88011000Y-102260400D01*
X87858600Y-102290714D01*
X87858600Y-102108000D01*
X87812197Y-101874716D01*
X87680052Y-101676948D01*
X86969600Y-100966496D01*
X86969600Y-99360178D01*
X86981045Y-99348753D01*
X87092872Y-99079442D01*
X87093127Y-98787837D01*
X86981769Y-98518331D01*
X86775753Y-98311955D01*
X86506442Y-98200128D01*
X86214837Y-98199873D01*
X85945331Y-98311231D01*
X85738955Y-98517247D01*
X85627128Y-98786558D01*
X85626873Y-99078163D01*
X85738231Y-99347669D01*
X85750400Y-99359859D01*
X85750400Y-101219000D01*
X85796803Y-101452284D01*
X85928948Y-101650052D01*
X86639400Y-102360504D01*
X86639400Y-104140000D01*
X86685803Y-104373284D01*
X86817948Y-104571052D01*
X86944948Y-104698052D01*
X87142716Y-104830197D01*
X87376000Y-104876600D01*
X87555296Y-104876600D01*
X86817948Y-105613948D01*
X86685803Y-105811716D01*
X86639400Y-106045000D01*
X86639400Y-112701296D01*
X86080600Y-112142496D01*
X86080600Y-102743000D01*
X86034197Y-102509716D01*
X85902052Y-102311948D01*
X85191600Y-101601496D01*
X85191600Y-98677504D01*
X86029052Y-97840052D01*
X86161197Y-97642284D01*
X86207600Y-97409000D01*
X86207600Y-94435704D01*
X91846400Y-100074504D01*
G36*
X80641563Y-126825858D02*
X80627420Y-126840000D01*
X80641563Y-126854142D01*
X79923142Y-127572563D01*
X79909000Y-127558420D01*
X79894858Y-127572563D01*
X79176438Y-126854143D01*
X79190580Y-126840000D01*
X79176437Y-126825858D01*
X79894858Y-126107438D01*
X79909000Y-126121580D01*
X79923142Y-126107437D01*
X80641563Y-126825858D01*
X80641563Y-126825858D01*
G37*
X80641563Y-126825858D02*
X80627420Y-126840000D01*
X80641563Y-126854142D01*
X79923142Y-127572563D01*
X79909000Y-127558420D01*
X79894858Y-127572563D01*
X79176438Y-126854143D01*
X79190580Y-126840000D01*
X79176437Y-126825858D01*
X79894858Y-126107438D01*
X79909000Y-126121580D01*
X79923142Y-126107437D01*
X80641563Y-126825858D01*
G36*
X75832955Y-90643247D02*
X75721128Y-90912558D01*
X75720873Y-91204163D01*
X75832231Y-91473669D01*
X75844400Y-91485859D01*
X75844400Y-92203495D01*
X74625949Y-93421947D01*
X74625948Y-93421948D01*
X74493803Y-93619716D01*
X74447400Y-93853000D01*
X74447400Y-97155000D01*
X74493803Y-97388284D01*
X74625948Y-97586052D01*
X74955400Y-97915505D01*
X74955400Y-105157496D01*
X74371948Y-105740948D01*
X74239803Y-105938716D01*
X74193400Y-106172000D01*
X74193400Y-107569000D01*
X74239803Y-107802284D01*
X74371948Y-108000052D01*
X74447400Y-108075504D01*
X74447400Y-110998000D01*
X74493803Y-111231284D01*
X74625948Y-111429052D01*
X76352400Y-113155504D01*
X76352400Y-113538000D01*
X76398803Y-113771284D01*
X76530948Y-113969052D01*
X77749400Y-115187505D01*
X77749400Y-115698495D01*
X75387948Y-118059948D01*
X75255803Y-118257716D01*
X75209400Y-118491000D01*
X75209400Y-120523000D01*
X75255803Y-120756284D01*
X75387948Y-120954052D01*
X76479400Y-122045504D01*
X76479400Y-124159822D01*
X76467955Y-124171247D01*
X76356128Y-124440558D01*
X76356113Y-124457783D01*
X75768948Y-125044948D01*
X75636803Y-125242716D01*
X75590400Y-125476000D01*
X75590400Y-126424825D01*
X75551769Y-126331331D01*
X75539600Y-126319141D01*
X75539600Y-122174000D01*
X75493197Y-121940716D01*
X75436394Y-121855705D01*
X75361053Y-121742948D01*
X73888600Y-120270496D01*
X73888600Y-118491000D01*
X73842197Y-118257716D01*
X73710052Y-118059948D01*
X73634600Y-117984496D01*
X73634600Y-98806000D01*
X73588197Y-98572716D01*
X73557383Y-98526600D01*
X73456052Y-98374947D01*
X73126600Y-98045496D01*
X73126600Y-91613178D01*
X73138045Y-91601753D01*
X73249872Y-91332442D01*
X73250127Y-91040837D01*
X73138769Y-90771331D01*
X72932753Y-90564955D01*
X72899396Y-90551104D01*
X72931669Y-90537769D01*
X72943859Y-90525600D01*
X75950808Y-90525600D01*
X75832955Y-90643247D01*
X75832955Y-90643247D01*
G37*
X75832955Y-90643247D02*
X75721128Y-90912558D01*
X75720873Y-91204163D01*
X75832231Y-91473669D01*
X75844400Y-91485859D01*
X75844400Y-92203495D01*
X74625949Y-93421947D01*
X74625948Y-93421948D01*
X74493803Y-93619716D01*
X74447400Y-93853000D01*
X74447400Y-97155000D01*
X74493803Y-97388284D01*
X74625948Y-97586052D01*
X74955400Y-97915505D01*
X74955400Y-105157496D01*
X74371948Y-105740948D01*
X74239803Y-105938716D01*
X74193400Y-106172000D01*
X74193400Y-107569000D01*
X74239803Y-107802284D01*
X74371948Y-108000052D01*
X74447400Y-108075504D01*
X74447400Y-110998000D01*
X74493803Y-111231284D01*
X74625948Y-111429052D01*
X76352400Y-113155504D01*
X76352400Y-113538000D01*
X76398803Y-113771284D01*
X76530948Y-113969052D01*
X77749400Y-115187505D01*
X77749400Y-115698495D01*
X75387948Y-118059948D01*
X75255803Y-118257716D01*
X75209400Y-118491000D01*
X75209400Y-120523000D01*
X75255803Y-120756284D01*
X75387948Y-120954052D01*
X76479400Y-122045504D01*
X76479400Y-124159822D01*
X76467955Y-124171247D01*
X76356128Y-124440558D01*
X76356113Y-124457783D01*
X75768948Y-125044948D01*
X75636803Y-125242716D01*
X75590400Y-125476000D01*
X75590400Y-126424825D01*
X75551769Y-126331331D01*
X75539600Y-126319141D01*
X75539600Y-122174000D01*
X75493197Y-121940716D01*
X75436394Y-121855705D01*
X75361053Y-121742948D01*
X73888600Y-120270496D01*
X73888600Y-118491000D01*
X73842197Y-118257716D01*
X73710052Y-118059948D01*
X73634600Y-117984496D01*
X73634600Y-98806000D01*
X73588197Y-98572716D01*
X73557383Y-98526600D01*
X73456052Y-98374947D01*
X73126600Y-98045496D01*
X73126600Y-91613178D01*
X73138045Y-91601753D01*
X73249872Y-91332442D01*
X73250127Y-91040837D01*
X73138769Y-90771331D01*
X72932753Y-90564955D01*
X72899396Y-90551104D01*
X72931669Y-90537769D01*
X72943859Y-90525600D01*
X75950808Y-90525600D01*
X75832955Y-90643247D01*
G36*
X103022400Y-95756505D02*
X103022400Y-96013496D01*
X102438948Y-96596948D01*
X102306803Y-96794716D01*
X102260400Y-97028000D01*
X102260400Y-99187000D01*
X102306803Y-99420284D01*
X102438948Y-99618052D01*
X102644887Y-99823992D01*
X102644873Y-99840163D01*
X102756231Y-100109669D01*
X102962247Y-100316045D01*
X103231558Y-100427872D01*
X103248783Y-100427887D01*
X103657400Y-100836504D01*
X103657400Y-105029000D01*
X103703803Y-105262284D01*
X103835948Y-105460052D01*
X109118400Y-110742504D01*
X109118400Y-113666496D01*
X108153948Y-114630948D01*
X108021803Y-114828716D01*
X107975400Y-115062000D01*
X107975400Y-124512296D01*
X107619052Y-124155948D01*
X107421284Y-124023803D01*
X107188000Y-123977400D01*
X101217504Y-123977400D01*
X100685600Y-123445496D01*
X100685600Y-119761000D01*
X100639197Y-119527716D01*
X100507052Y-119329948D01*
X95351600Y-114174496D01*
X95351600Y-112139504D01*
X101777052Y-105714053D01*
X101909197Y-105516284D01*
X101920382Y-105460052D01*
X101955600Y-105283000D01*
X101955600Y-102679651D01*
X102141669Y-102602769D01*
X102348045Y-102396753D01*
X102459872Y-102127442D01*
X102460127Y-101835837D01*
X102348769Y-101566331D01*
X102336600Y-101554141D01*
X102336600Y-101473000D01*
X102290197Y-101239716D01*
X102237267Y-101160502D01*
X102158053Y-101041948D01*
X101523052Y-100406948D01*
X101325284Y-100274803D01*
X101092000Y-100228400D01*
X97280504Y-100228400D01*
X95732600Y-98680496D01*
X95732600Y-97663000D01*
X95686197Y-97429716D01*
X95684491Y-97427163D01*
X95570525Y-97256600D01*
X98298000Y-97256600D01*
X98531284Y-97210197D01*
X98729052Y-97078052D01*
X99110052Y-96697053D01*
X99242197Y-96499284D01*
X99257595Y-96421873D01*
X99288600Y-96266000D01*
X99288600Y-95605600D01*
X102871496Y-95605600D01*
X103022400Y-95756505D01*
X103022400Y-95756505D01*
G37*
X103022400Y-95756505D02*
X103022400Y-96013496D01*
X102438948Y-96596948D01*
X102306803Y-96794716D01*
X102260400Y-97028000D01*
X102260400Y-99187000D01*
X102306803Y-99420284D01*
X102438948Y-99618052D01*
X102644887Y-99823992D01*
X102644873Y-99840163D01*
X102756231Y-100109669D01*
X102962247Y-100316045D01*
X103231558Y-100427872D01*
X103248783Y-100427887D01*
X103657400Y-100836504D01*
X103657400Y-105029000D01*
X103703803Y-105262284D01*
X103835948Y-105460052D01*
X109118400Y-110742504D01*
X109118400Y-113666496D01*
X108153948Y-114630948D01*
X108021803Y-114828716D01*
X107975400Y-115062000D01*
X107975400Y-124512296D01*
X107619052Y-124155948D01*
X107421284Y-124023803D01*
X107188000Y-123977400D01*
X101217504Y-123977400D01*
X100685600Y-123445496D01*
X100685600Y-119761000D01*
X100639197Y-119527716D01*
X100507052Y-119329948D01*
X95351600Y-114174496D01*
X95351600Y-112139504D01*
X101777052Y-105714053D01*
X101909197Y-105516284D01*
X101920382Y-105460052D01*
X101955600Y-105283000D01*
X101955600Y-102679651D01*
X102141669Y-102602769D01*
X102348045Y-102396753D01*
X102459872Y-102127442D01*
X102460127Y-101835837D01*
X102348769Y-101566331D01*
X102336600Y-101554141D01*
X102336600Y-101473000D01*
X102290197Y-101239716D01*
X102237267Y-101160502D01*
X102158053Y-101041948D01*
X101523052Y-100406948D01*
X101325284Y-100274803D01*
X101092000Y-100228400D01*
X97280504Y-100228400D01*
X95732600Y-98680496D01*
X95732600Y-97663000D01*
X95686197Y-97429716D01*
X95684491Y-97427163D01*
X95570525Y-97256600D01*
X98298000Y-97256600D01*
X98531284Y-97210197D01*
X98729052Y-97078052D01*
X99110052Y-96697053D01*
X99242197Y-96499284D01*
X99257595Y-96421873D01*
X99288600Y-96266000D01*
X99288600Y-95605600D01*
X102871496Y-95605600D01*
X103022400Y-95756505D01*
G36*
X77851000Y-122529600D02*
X78233496Y-122529600D01*
X78594418Y-122890522D01*
X78452331Y-122949231D01*
X78245955Y-123155247D01*
X78134128Y-123424558D01*
X78134113Y-123441783D01*
X77698600Y-123877296D01*
X77698600Y-122499286D01*
X77851000Y-122529600D01*
X77851000Y-122529600D01*
G37*
X77851000Y-122529600D02*
X78233496Y-122529600D01*
X78594418Y-122890522D01*
X78452331Y-122949231D01*
X78245955Y-123155247D01*
X78134128Y-123424558D01*
X78134113Y-123441783D01*
X77698600Y-123877296D01*
X77698600Y-122499286D01*
X77851000Y-122529600D01*
G36*
X78309000Y-118821580D02*
X78323143Y-118807438D01*
X79041563Y-119525858D01*
X79027420Y-119540000D01*
X79041563Y-119554142D01*
X78323142Y-120272563D01*
X78309000Y-120258420D01*
X78294858Y-120272563D01*
X77576438Y-119554143D01*
X77590580Y-119540000D01*
X77576437Y-119525858D01*
X78294858Y-118807437D01*
X78309000Y-118821580D01*
X78309000Y-118821580D01*
G37*
X78309000Y-118821580D02*
X78323143Y-118807438D01*
X79041563Y-119525858D01*
X79027420Y-119540000D01*
X79041563Y-119554142D01*
X78323142Y-120272563D01*
X78309000Y-120258420D01*
X78294858Y-120272563D01*
X77576438Y-119554143D01*
X77590580Y-119540000D01*
X77576437Y-119525858D01*
X78294858Y-118807437D01*
X78309000Y-118821580D01*
G36*
X112649000Y-119107949D02*
X111861600Y-119895348D01*
X111861600Y-117092504D01*
X112649000Y-116305105D01*
X112649000Y-119107949D01*
X112649000Y-119107949D01*
G37*
X112649000Y-119107949D02*
X111861600Y-119895348D01*
X111861600Y-117092504D01*
X112649000Y-116305105D01*
X112649000Y-119107949D01*
G36*
X72669400Y-118743504D02*
X72669400Y-119145815D01*
X72600420Y-119042580D01*
X72491600Y-118969868D01*
X72491600Y-118870504D01*
X72644000Y-118718104D01*
X72669400Y-118743504D01*
X72669400Y-118743504D01*
G37*
X72669400Y-118743504D02*
X72669400Y-119145815D01*
X72600420Y-119042580D01*
X72491600Y-118969868D01*
X72491600Y-118870504D01*
X72644000Y-118718104D01*
X72669400Y-118743504D01*
G36*
X115814974Y-108721026D02*
X116226992Y-108996327D01*
X116713000Y-109093001D01*
X116713005Y-109093000D01*
X118853948Y-109093000D01*
X120182094Y-110421146D01*
X119825278Y-110420834D01*
X119473046Y-110566374D01*
X119203321Y-110835628D01*
X119057167Y-111187606D01*
X119056834Y-111568722D01*
X119084256Y-111635089D01*
X119006806Y-111583338D01*
X118618000Y-111506000D01*
X115189000Y-111506000D01*
X115189000Y-108095052D01*
X115814974Y-108721026D01*
X115814974Y-108721026D01*
G37*
X115814974Y-108721026D02*
X116226992Y-108996327D01*
X116713000Y-109093001D01*
X116713005Y-109093000D01*
X118853948Y-109093000D01*
X120182094Y-110421146D01*
X119825278Y-110420834D01*
X119473046Y-110566374D01*
X119203321Y-110835628D01*
X119057167Y-111187606D01*
X119056834Y-111568722D01*
X119084256Y-111635089D01*
X119006806Y-111583338D01*
X118618000Y-111506000D01*
X115189000Y-111506000D01*
X115189000Y-108095052D01*
X115814974Y-108721026D01*
G36*
X79629000Y-91059000D02*
X79690471Y-91368037D01*
X79706338Y-91447807D01*
X79926580Y-91777420D01*
X80561580Y-92412421D01*
X80891193Y-92632662D01*
X81280000Y-92710000D01*
X81367160Y-92710000D01*
X82666261Y-94009102D01*
X82404837Y-94008873D01*
X82135331Y-94120231D01*
X81928955Y-94326247D01*
X81817128Y-94595558D01*
X81816873Y-94887163D01*
X81928231Y-95156669D01*
X81940400Y-95168859D01*
X81940400Y-96394495D01*
X81610948Y-96723948D01*
X81478803Y-96921716D01*
X81432400Y-97155000D01*
X81432400Y-103251000D01*
X81478803Y-103484284D01*
X81610948Y-103682052D01*
X82575400Y-104646504D01*
X82575400Y-104775000D01*
X82621803Y-105008284D01*
X82753948Y-105206052D01*
X83591400Y-106043504D01*
X83591400Y-108743602D01*
X83585442Y-108741128D01*
X83293837Y-108740873D01*
X83024331Y-108852231D01*
X83012141Y-108864400D01*
X82929504Y-108864400D01*
X81381600Y-107316496D01*
X81381600Y-96647000D01*
X81335197Y-96413716D01*
X81317112Y-96386650D01*
X81203052Y-96215947D01*
X80873600Y-95886496D01*
X80873600Y-93726000D01*
X80827197Y-93492716D01*
X80762937Y-93396544D01*
X80695053Y-93294948D01*
X79222600Y-91822496D01*
X79222600Y-90932000D01*
X79176197Y-90698716D01*
X79044052Y-90500948D01*
X78205104Y-89662000D01*
X79629000Y-89662000D01*
X79629000Y-91059000D01*
X79629000Y-91059000D01*
G37*
X79629000Y-91059000D02*
X79690471Y-91368037D01*
X79706338Y-91447807D01*
X79926580Y-91777420D01*
X80561580Y-92412421D01*
X80891193Y-92632662D01*
X81280000Y-92710000D01*
X81367160Y-92710000D01*
X82666261Y-94009102D01*
X82404837Y-94008873D01*
X82135331Y-94120231D01*
X81928955Y-94326247D01*
X81817128Y-94595558D01*
X81816873Y-94887163D01*
X81928231Y-95156669D01*
X81940400Y-95168859D01*
X81940400Y-96394495D01*
X81610948Y-96723948D01*
X81478803Y-96921716D01*
X81432400Y-97155000D01*
X81432400Y-103251000D01*
X81478803Y-103484284D01*
X81610948Y-103682052D01*
X82575400Y-104646504D01*
X82575400Y-104775000D01*
X82621803Y-105008284D01*
X82753948Y-105206052D01*
X83591400Y-106043504D01*
X83591400Y-108743602D01*
X83585442Y-108741128D01*
X83293837Y-108740873D01*
X83024331Y-108852231D01*
X83012141Y-108864400D01*
X82929504Y-108864400D01*
X81381600Y-107316496D01*
X81381600Y-96647000D01*
X81335197Y-96413716D01*
X81317112Y-96386650D01*
X81203052Y-96215947D01*
X80873600Y-95886496D01*
X80873600Y-93726000D01*
X80827197Y-93492716D01*
X80762937Y-93396544D01*
X80695053Y-93294948D01*
X79222600Y-91822496D01*
X79222600Y-90932000D01*
X79176197Y-90698716D01*
X79044052Y-90500948D01*
X78205104Y-89662000D01*
X79629000Y-89662000D01*
X79629000Y-91059000D01*
G36*
X72415400Y-99620295D02*
X72318715Y-99523611D01*
X72415400Y-99483661D01*
X72415400Y-99620295D01*
X72415400Y-99620295D01*
G37*
X72415400Y-99620295D02*
X72318715Y-99523611D01*
X72415400Y-99483661D01*
X72415400Y-99620295D01*
G36*
X115443000Y-71640221D02*
X114948782Y-71844428D01*
X113840320Y-72950957D01*
X113614200Y-73495515D01*
X113614200Y-72303588D01*
X113900439Y-72017350D01*
X113952669Y-71995769D01*
X114159045Y-71789753D01*
X114270872Y-71520442D01*
X114271127Y-71228837D01*
X114159769Y-70959331D01*
X113953753Y-70752955D01*
X113684442Y-70641128D01*
X113392837Y-70640873D01*
X113123331Y-70752231D01*
X112916955Y-70958247D01*
X112894936Y-71011275D01*
X112400106Y-71506106D01*
X112245937Y-71736835D01*
X112224098Y-71846628D01*
X112191800Y-72009000D01*
X112191800Y-77294000D01*
X112131974Y-77333974D01*
X111856673Y-77745992D01*
X111759999Y-78232000D01*
X111856673Y-78718008D01*
X112077449Y-79048424D01*
X110871000Y-77841974D01*
X110871000Y-76454005D01*
X110871001Y-76454000D01*
X110822664Y-76210996D01*
X110685013Y-76004987D01*
X110109000Y-75428974D01*
X110109000Y-74930000D01*
X110744000Y-74930000D01*
X110792601Y-74920333D01*
X110833803Y-74892803D01*
X110861333Y-74851601D01*
X110871000Y-74803000D01*
X110871000Y-67691000D01*
X115443000Y-67691000D01*
X115443000Y-71640221D01*
X115443000Y-71640221D01*
G37*
X115443000Y-71640221D02*
X114948782Y-71844428D01*
X113840320Y-72950957D01*
X113614200Y-73495515D01*
X113614200Y-72303588D01*
X113900439Y-72017350D01*
X113952669Y-71995769D01*
X114159045Y-71789753D01*
X114270872Y-71520442D01*
X114271127Y-71228837D01*
X114159769Y-70959331D01*
X113953753Y-70752955D01*
X113684442Y-70641128D01*
X113392837Y-70640873D01*
X113123331Y-70752231D01*
X112916955Y-70958247D01*
X112894936Y-71011275D01*
X112400106Y-71506106D01*
X112245937Y-71736835D01*
X112224098Y-71846628D01*
X112191800Y-72009000D01*
X112191800Y-77294000D01*
X112131974Y-77333974D01*
X111856673Y-77745992D01*
X111759999Y-78232000D01*
X111856673Y-78718008D01*
X112077449Y-79048424D01*
X110871000Y-77841974D01*
X110871000Y-76454005D01*
X110871001Y-76454000D01*
X110822664Y-76210996D01*
X110685013Y-76004987D01*
X110109000Y-75428974D01*
X110109000Y-74930000D01*
X110744000Y-74930000D01*
X110792601Y-74920333D01*
X110833803Y-74892803D01*
X110861333Y-74851601D01*
X110871000Y-74803000D01*
X110871000Y-67691000D01*
X115443000Y-67691000D01*
X115443000Y-71640221D01*
G36*
X109474000Y-73178962D02*
X109340721Y-72856403D01*
X108966070Y-72481097D01*
X108476313Y-72277732D01*
X107946013Y-72277269D01*
X107455903Y-72479779D01*
X107080597Y-72854430D01*
X106939905Y-73193253D01*
X106800721Y-72856403D01*
X106426070Y-72481097D01*
X105936313Y-72277732D01*
X105406013Y-72277269D01*
X104915903Y-72479779D01*
X104540597Y-72854430D01*
X104337232Y-73344187D01*
X104336769Y-73874487D01*
X104539279Y-74364597D01*
X104913930Y-74739903D01*
X105403687Y-74943268D01*
X105933987Y-74943731D01*
X106424097Y-74741221D01*
X106799403Y-74366570D01*
X106940095Y-74027747D01*
X107079279Y-74364597D01*
X107206798Y-74492339D01*
X107271338Y-74816806D01*
X107491580Y-75146420D01*
X107821194Y-75366662D01*
X108210000Y-75444000D01*
X108308401Y-75424427D01*
X109474000Y-76590026D01*
X109474000Y-79405374D01*
X109363378Y-79385444D01*
X109153998Y-79427092D01*
X109422633Y-78780147D01*
X109423365Y-77941532D01*
X109103117Y-77166474D01*
X108510645Y-76572967D01*
X107736147Y-76251367D01*
X106897532Y-76250635D01*
X106122474Y-76570883D01*
X105528967Y-77163355D01*
X105207367Y-77937853D01*
X105206635Y-78776468D01*
X105526883Y-79551526D01*
X106119355Y-80145033D01*
X106893853Y-80466633D01*
X107732468Y-80467365D01*
X107737757Y-80465180D01*
X107771797Y-80499220D01*
X107516463Y-80668453D01*
X107376444Y-81445622D01*
X107516463Y-82149547D01*
X107771797Y-82318780D01*
X107611443Y-82479134D01*
X107809309Y-82677000D01*
X95390691Y-82677000D01*
X95588557Y-82479134D01*
X95428203Y-82318780D01*
X95683537Y-82149547D01*
X95823556Y-81372378D01*
X95683537Y-80668453D01*
X95428203Y-80499220D01*
X95461689Y-80465734D01*
X95463853Y-80466633D01*
X96302468Y-80467365D01*
X97077526Y-80147117D01*
X97671033Y-79554645D01*
X97992633Y-78780147D01*
X97993365Y-77941532D01*
X97673117Y-77166474D01*
X97080645Y-76572967D01*
X96306147Y-76251367D01*
X95467532Y-76250635D01*
X94692474Y-76570883D01*
X94098967Y-77163355D01*
X93777367Y-77937853D01*
X93776635Y-78776468D01*
X94049564Y-79437005D01*
X93763378Y-79385444D01*
X93726000Y-79392879D01*
X93726000Y-77062104D01*
X94861637Y-75926467D01*
X94990000Y-75952000D01*
X95378806Y-75874662D01*
X95708420Y-75654420D01*
X95928662Y-75324806D01*
X96006000Y-74936000D01*
X96006000Y-74479775D01*
X96119403Y-74366570D01*
X96260095Y-74027747D01*
X96399279Y-74364597D01*
X96773930Y-74739903D01*
X97263687Y-74943268D01*
X97793987Y-74943731D01*
X98284097Y-74741221D01*
X98659403Y-74366570D01*
X98862768Y-73876813D01*
X98863231Y-73346513D01*
X98660721Y-72856403D01*
X98286070Y-72481097D01*
X97796313Y-72277732D01*
X97266013Y-72277269D01*
X96775903Y-72479779D01*
X96400597Y-72854430D01*
X96259905Y-73193253D01*
X96120721Y-72856403D01*
X95746070Y-72481097D01*
X95256313Y-72277732D01*
X94726013Y-72277269D01*
X94235903Y-72479779D01*
X93860597Y-72854430D01*
X93726000Y-73178575D01*
X93726000Y-67691000D01*
X109474000Y-67691000D01*
X109474000Y-73178962D01*
X109474000Y-73178962D01*
G37*
X109474000Y-73178962D02*
X109340721Y-72856403D01*
X108966070Y-72481097D01*
X108476313Y-72277732D01*
X107946013Y-72277269D01*
X107455903Y-72479779D01*
X107080597Y-72854430D01*
X106939905Y-73193253D01*
X106800721Y-72856403D01*
X106426070Y-72481097D01*
X105936313Y-72277732D01*
X105406013Y-72277269D01*
X104915903Y-72479779D01*
X104540597Y-72854430D01*
X104337232Y-73344187D01*
X104336769Y-73874487D01*
X104539279Y-74364597D01*
X104913930Y-74739903D01*
X105403687Y-74943268D01*
X105933987Y-74943731D01*
X106424097Y-74741221D01*
X106799403Y-74366570D01*
X106940095Y-74027747D01*
X107079279Y-74364597D01*
X107206798Y-74492339D01*
X107271338Y-74816806D01*
X107491580Y-75146420D01*
X107821194Y-75366662D01*
X108210000Y-75444000D01*
X108308401Y-75424427D01*
X109474000Y-76590026D01*
X109474000Y-79405374D01*
X109363378Y-79385444D01*
X109153998Y-79427092D01*
X109422633Y-78780147D01*
X109423365Y-77941532D01*
X109103117Y-77166474D01*
X108510645Y-76572967D01*
X107736147Y-76251367D01*
X106897532Y-76250635D01*
X106122474Y-76570883D01*
X105528967Y-77163355D01*
X105207367Y-77937853D01*
X105206635Y-78776468D01*
X105526883Y-79551526D01*
X106119355Y-80145033D01*
X106893853Y-80466633D01*
X107732468Y-80467365D01*
X107737757Y-80465180D01*
X107771797Y-80499220D01*
X107516463Y-80668453D01*
X107376444Y-81445622D01*
X107516463Y-82149547D01*
X107771797Y-82318780D01*
X107611443Y-82479134D01*
X107809309Y-82677000D01*
X95390691Y-82677000D01*
X95588557Y-82479134D01*
X95428203Y-82318780D01*
X95683537Y-82149547D01*
X95823556Y-81372378D01*
X95683537Y-80668453D01*
X95428203Y-80499220D01*
X95461689Y-80465734D01*
X95463853Y-80466633D01*
X96302468Y-80467365D01*
X97077526Y-80147117D01*
X97671033Y-79554645D01*
X97992633Y-78780147D01*
X97993365Y-77941532D01*
X97673117Y-77166474D01*
X97080645Y-76572967D01*
X96306147Y-76251367D01*
X95467532Y-76250635D01*
X94692474Y-76570883D01*
X94098967Y-77163355D01*
X93777367Y-77937853D01*
X93776635Y-78776468D01*
X94049564Y-79437005D01*
X93763378Y-79385444D01*
X93726000Y-79392879D01*
X93726000Y-77062104D01*
X94861637Y-75926467D01*
X94990000Y-75952000D01*
X95378806Y-75874662D01*
X95708420Y-75654420D01*
X95928662Y-75324806D01*
X96006000Y-74936000D01*
X96006000Y-74479775D01*
X96119403Y-74366570D01*
X96260095Y-74027747D01*
X96399279Y-74364597D01*
X96773930Y-74739903D01*
X97263687Y-74943268D01*
X97793987Y-74943731D01*
X98284097Y-74741221D01*
X98659403Y-74366570D01*
X98862768Y-73876813D01*
X98863231Y-73346513D01*
X98660721Y-72856403D01*
X98286070Y-72481097D01*
X97796313Y-72277732D01*
X97266013Y-72277269D01*
X96775903Y-72479779D01*
X96400597Y-72854430D01*
X96259905Y-73193253D01*
X96120721Y-72856403D01*
X95746070Y-72481097D01*
X95256313Y-72277732D01*
X94726013Y-72277269D01*
X94235903Y-72479779D01*
X93860597Y-72854430D01*
X93726000Y-73178575D01*
X93726000Y-67691000D01*
X109474000Y-67691000D01*
X109474000Y-73178962D01*
G36*
X109474000Y-80736295D02*
X109474000Y-82081705D01*
X109414143Y-82141563D01*
X109400000Y-82127420D01*
X109385858Y-82141563D01*
X108667438Y-81423143D01*
X108681580Y-81409000D01*
X108667438Y-81394858D01*
X109385858Y-80676438D01*
X109400000Y-80690580D01*
X109414143Y-80676438D01*
X109474000Y-80736295D01*
X109474000Y-80736295D01*
G37*
X109474000Y-80736295D02*
X109474000Y-82081705D01*
X109414143Y-82141563D01*
X109400000Y-82127420D01*
X109385858Y-82141563D01*
X108667438Y-81423143D01*
X108681580Y-81409000D01*
X108667438Y-81394858D01*
X109385858Y-80676438D01*
X109400000Y-80690580D01*
X109414143Y-80676438D01*
X109474000Y-80736295D01*
G36*
X94532563Y-81394858D02*
X94518420Y-81409000D01*
X94532563Y-81423143D01*
X93814143Y-82141563D01*
X93800000Y-82127420D01*
X93785858Y-82141563D01*
X93726000Y-82081705D01*
X93726000Y-80736295D01*
X93785858Y-80676438D01*
X93800000Y-80690580D01*
X93814143Y-80676438D01*
X94532563Y-81394858D01*
X94532563Y-81394858D01*
G37*
X94532563Y-81394858D02*
X94518420Y-81409000D01*
X94532563Y-81423143D01*
X93814143Y-82141563D01*
X93800000Y-82127420D01*
X93785858Y-82141563D01*
X93726000Y-82081705D01*
X93726000Y-80736295D01*
X93785858Y-80676438D01*
X93800000Y-80690580D01*
X93814143Y-80676438D01*
X94532563Y-81394858D01*
M02*
