G04 #@! TF.GenerationSoftware,KiCad,Pcbnew,no-vcs-found-ddec803~58~ubuntu14.04.1*
G04 #@! TF.CreationDate,2017-06-01T11:20:14+03:00*
G04 #@! TF.ProjectId,ESP32-EVB_Rev_C,45535033322D4556425F5265765F432E,C*
G04 #@! TF.FileFunction,Paste,Top*
G04 #@! TF.FilePolarity,Positive*
%FSLAX46Y46*%
G04 Gerber Fmt 4.6, Leading zero omitted, Abs format (unit mm)*
G04 Created by KiCad (PCBNEW no-vcs-found-ddec803~58~ubuntu14.04.1) date Thu Jun  1 11:20:14 2017*
%MOMM*%
%LPD*%
G01*
G04 APERTURE LIST*
%ADD10C,0.100000*%
%ADD11C,0.254000*%
%ADD12C,0.200000*%
%ADD13R,1.100000X1.000000*%
%ADD14R,0.325000X2.150000*%
%ADD15R,0.980000X0.230000*%
%ADD16R,2.200000X0.600000*%
%ADD17R,1.270000X0.325000*%
%ADD18R,0.230000X0.780000*%
%ADD19R,0.780000X0.230000*%
%ADD20R,0.914400X0.914400*%
%ADD21R,1.435000X0.635000*%
%ADD22R,0.635000X1.435000*%
%ADD23R,1.400000X1.400000*%
%ADD24R,1.500000X3.100000*%
%ADD25R,1.500000X0.800000*%
%ADD26R,1.524000X1.270000*%
%ADD27R,1.016000X1.016000*%
%ADD28R,1.270000X1.524000*%
%ADD29R,1.200000X1.400000*%
%ADD30R,1.298400X0.898400*%
%ADD31R,1.778000X2.286000*%
%ADD32R,1.700000X2.000000*%
%ADD33R,0.898400X1.298400*%
%ADD34R,1.422400X1.168400*%
%ADD35R,3.398400X1.498400*%
%ADD36R,1.168400X1.422400*%
%ADD37R,0.800000X0.800000*%
%ADD38R,0.914400X0.279400*%
%ADD39R,0.914400X0.533400*%
%ADD40R,0.279400X0.914400*%
%ADD41R,0.533400X0.914400*%
%ADD42R,0.448400X1.098400*%
%ADD43R,1.778000X1.016000*%
%ADD44R,4.724400X0.998400*%
%ADD45R,1.778000X1.524000*%
%ADD46R,1.524000X1.778000*%
%ADD47R,1.098400X0.448400*%
%ADD48R,1.400000X1.000000*%
G04 APERTURE END LIST*
D10*
D11*
X137795000Y-141732000D02*
X144780000Y-141732000D01*
X137795000Y-140716000D02*
X137795000Y-141732000D01*
X128270000Y-140716000D02*
X137795000Y-140716000D01*
X128270000Y-141732000D02*
X128270000Y-140716000D01*
X69596000Y-141732000D02*
X128270000Y-141732000D01*
X89154000Y-67056000D02*
X144780000Y-67056000D01*
X89154000Y-73152000D02*
X89154000Y-67056000D01*
X69596000Y-73152000D02*
X89154000Y-73152000D01*
X69596000Y-141732000D02*
X69596000Y-73152000D01*
X144780000Y-141732000D02*
X144780000Y-67056000D01*
D12*
X101549000Y-97244000D02*
X101549000Y-96444000D01*
X100749000Y-97244000D02*
X101549000Y-97244000D01*
X100749000Y-96444000D02*
X100749000Y-97244000D01*
X101549000Y-96444000D02*
X100749000Y-96444000D01*
X101549000Y-96544000D02*
X100749000Y-96544000D01*
X101549000Y-96644000D02*
X100749000Y-96644000D01*
X101549000Y-96744000D02*
X100749000Y-96744000D01*
X101549000Y-96844000D02*
X100749000Y-96844000D01*
X101549000Y-96944000D02*
X100749000Y-96944000D01*
X101549000Y-97044000D02*
X100749000Y-97044000D01*
X101549000Y-97144000D02*
X100749000Y-97144000D01*
X99149000Y-97144000D02*
X98349000Y-97144000D01*
X99149000Y-97044000D02*
X98349000Y-97044000D01*
X99149000Y-96944000D02*
X98349000Y-96944000D01*
X99149000Y-96844000D02*
X98349000Y-96844000D01*
X99149000Y-96744000D02*
X98349000Y-96744000D01*
X99149000Y-96644000D02*
X98349000Y-96644000D01*
X99149000Y-96544000D02*
X98349000Y-96544000D01*
X99149000Y-96444000D02*
X98349000Y-96444000D01*
X98349000Y-96444000D02*
X98349000Y-97244000D01*
X98349000Y-97244000D02*
X99149000Y-97244000D01*
X99149000Y-97244000D02*
X99149000Y-96444000D01*
X101549000Y-99544000D02*
X100749000Y-99544000D01*
X101549000Y-99444000D02*
X100749000Y-99444000D01*
X101549000Y-99344000D02*
X100749000Y-99344000D01*
X101549000Y-99244000D02*
X100749000Y-99244000D01*
X101549000Y-99144000D02*
X100749000Y-99144000D01*
X101549000Y-99044000D02*
X100749000Y-99044000D01*
X101549000Y-98944000D02*
X100749000Y-98944000D01*
X101549000Y-98844000D02*
X100749000Y-98844000D01*
X100749000Y-98844000D02*
X100749000Y-99644000D01*
X100749000Y-99644000D02*
X101549000Y-99644000D01*
X101549000Y-99644000D02*
X101549000Y-98844000D01*
X99149000Y-99644000D02*
X99149000Y-98844000D01*
X98349000Y-99644000D02*
X99149000Y-99644000D01*
X98349000Y-98844000D02*
X98349000Y-99644000D01*
X99149000Y-98844000D02*
X98349000Y-98844000D01*
X99149000Y-98944000D02*
X98349000Y-98944000D01*
X99149000Y-99044000D02*
X98349000Y-99044000D01*
X99149000Y-99144000D02*
X98349000Y-99144000D01*
X99149000Y-99244000D02*
X98349000Y-99244000D01*
X99149000Y-99344000D02*
X98349000Y-99344000D01*
X99149000Y-99444000D02*
X98349000Y-99444000D01*
X99149000Y-99544000D02*
X98349000Y-99544000D01*
X99749000Y-96444000D02*
X100149000Y-96444000D01*
X99749000Y-97244000D02*
X99749000Y-96444000D01*
X100149000Y-97244000D02*
X99749000Y-97244000D01*
X100149000Y-96444000D02*
X100149000Y-97244000D01*
X100049000Y-96444000D02*
X100049000Y-97244000D01*
X99949000Y-96444000D02*
X99949000Y-97244000D01*
X99849000Y-96444000D02*
X99849000Y-97244000D01*
X99849000Y-98844000D02*
X99849000Y-99644000D01*
X99949000Y-98844000D02*
X99949000Y-99644000D01*
X100049000Y-98844000D02*
X100049000Y-99644000D01*
X100149000Y-98844000D02*
X100149000Y-99644000D01*
X100149000Y-99644000D02*
X99749000Y-99644000D01*
X99749000Y-99644000D02*
X99749000Y-98844000D01*
X99749000Y-98844000D02*
X100149000Y-98844000D01*
X101549000Y-98244000D02*
X101549000Y-97844000D01*
X100749000Y-98244000D02*
X101549000Y-98244000D01*
X100749000Y-97844000D02*
X100749000Y-98244000D01*
X101549000Y-97844000D02*
X100749000Y-97844000D01*
X101549000Y-97944000D02*
X100749000Y-97944000D01*
X100749000Y-98044000D02*
X101549000Y-98044000D01*
X101549000Y-98144000D02*
X100749000Y-98144000D01*
X99149000Y-98144000D02*
X98349000Y-98144000D01*
X98349000Y-98044000D02*
X99149000Y-98044000D01*
X99149000Y-97944000D02*
X98349000Y-97944000D01*
X99149000Y-97844000D02*
X98349000Y-97844000D01*
X98349000Y-97844000D02*
X98349000Y-98244000D01*
X98349000Y-98244000D02*
X99149000Y-98244000D01*
X99149000Y-98244000D02*
X99149000Y-97844000D01*
D13*
X134500000Y-139703000D03*
X131500000Y-139703000D03*
D14*
X134300000Y-135403000D03*
X133650000Y-135403000D03*
X133000000Y-135403000D03*
X132350000Y-135403000D03*
X131700000Y-135403000D03*
D15*
X135369000Y-130318000D03*
X135369000Y-130818000D03*
X135369000Y-131318000D03*
X135369000Y-131818000D03*
X135369000Y-132318000D03*
X130569000Y-132318000D03*
X130569000Y-131818000D03*
X130569000Y-131318000D03*
X130569000Y-130818000D03*
X130569000Y-130318000D03*
D16*
X130770000Y-108458000D03*
X130770000Y-109728000D03*
X130770000Y-110998000D03*
X130770000Y-112268000D03*
X125770000Y-112268000D03*
X125770000Y-110998000D03*
X125770000Y-109728000D03*
X125770000Y-108458000D03*
D17*
X105346500Y-122686000D03*
X105346500Y-122036000D03*
X105346500Y-121386000D03*
X105346500Y-120736000D03*
X105346500Y-120086000D03*
X105346500Y-119436000D03*
X105346500Y-118786000D03*
X105346500Y-118136000D03*
X105346500Y-117486000D03*
X105346500Y-116836000D03*
X98107500Y-116836000D03*
X98107500Y-117486000D03*
X98107500Y-118136000D03*
X98107500Y-118786000D03*
X98107500Y-119436000D03*
X98107500Y-120086000D03*
X98107500Y-120736000D03*
X98107500Y-121386000D03*
X98107500Y-122036000D03*
X98107500Y-122686000D03*
D18*
X98199000Y-95594000D03*
X98699000Y-95594000D03*
X99199000Y-95594000D03*
X99699000Y-95594000D03*
X100199000Y-95594000D03*
X100699000Y-95594000D03*
X101199000Y-95594000D03*
X101699000Y-95594000D03*
D19*
X102399000Y-96294000D03*
X102399000Y-96794000D03*
X102399000Y-97294000D03*
X102399000Y-97794000D03*
X102399000Y-98294000D03*
X102399000Y-98794000D03*
X102399000Y-99294000D03*
X102399000Y-99794000D03*
D18*
X101699000Y-100494000D03*
X101199000Y-100494000D03*
X100699000Y-100494000D03*
X100199000Y-100494000D03*
X99699000Y-100494000D03*
X99199000Y-100494000D03*
X98699000Y-100494000D03*
X98199000Y-100494000D03*
D19*
X97499000Y-99794000D03*
X97499000Y-99294000D03*
X97499000Y-98794000D03*
X97499000Y-98294000D03*
X97499000Y-97794000D03*
X97499000Y-97294000D03*
X97499000Y-96794000D03*
X97499000Y-96294000D03*
D20*
X104775000Y-92583000D03*
X104775000Y-90805000D03*
D21*
X89010000Y-74673000D03*
X89010000Y-75943000D03*
X89010000Y-77213000D03*
X89010000Y-78483000D03*
X89010000Y-79753000D03*
X89010000Y-81023000D03*
X89010000Y-82293000D03*
X89010000Y-83563000D03*
X89010000Y-84833000D03*
X89010000Y-86103000D03*
X89010000Y-87373000D03*
X89010000Y-88643000D03*
X89010000Y-89913000D03*
X89010000Y-91183000D03*
D22*
X85740000Y-92633000D03*
X84470000Y-92633000D03*
X83200000Y-92633000D03*
X81930000Y-92633000D03*
X80660000Y-92633000D03*
X79390000Y-92633000D03*
X78120000Y-92633000D03*
X76850000Y-92633000D03*
X75580000Y-92633000D03*
X74310000Y-92633000D03*
D21*
X71010000Y-91143000D03*
X71010000Y-89873000D03*
X71010000Y-88603000D03*
X71010000Y-87333000D03*
X71010000Y-86063000D03*
X71010000Y-84793000D03*
X71010000Y-83523000D03*
X71010000Y-82253000D03*
X71010000Y-80983000D03*
X71010000Y-79713000D03*
X71010000Y-78443000D03*
X71010000Y-77173000D03*
X71010000Y-75903000D03*
X71010000Y-74633000D03*
D23*
X79011000Y-80949000D03*
X81551000Y-80949000D03*
X79036400Y-83616000D03*
X81576400Y-83616000D03*
D24*
X81577000Y-114275000D03*
X81577000Y-108215000D03*
D25*
X72327000Y-107275000D03*
X72327000Y-108375000D03*
X72327000Y-109475000D03*
X72327000Y-110575000D03*
X72327000Y-111675000D03*
X72327000Y-112775000D03*
X72327000Y-113875000D03*
X72327000Y-114975000D03*
D26*
X125984000Y-131572000D03*
X125984000Y-129540000D03*
X128016000Y-129540000D03*
X128016000Y-131572000D03*
D27*
X91948000Y-122809000D03*
X90170000Y-122809000D03*
X116967000Y-125730000D03*
X115189000Y-125730000D03*
X116967000Y-127254000D03*
X115189000Y-127254000D03*
X105664000Y-104902000D03*
X105664000Y-103124000D03*
X104140000Y-104902000D03*
X104140000Y-103124000D03*
D28*
X85217000Y-112014000D03*
X87249000Y-112014000D03*
D27*
X106426000Y-92583000D03*
X106426000Y-90805000D03*
X109474000Y-104775000D03*
X109474000Y-102997000D03*
X97790000Y-104902000D03*
X97790000Y-103124000D03*
X103632000Y-94234000D03*
X105410000Y-94234000D03*
X94488000Y-94615000D03*
X92710000Y-94615000D03*
X94488000Y-99822000D03*
X92710000Y-99822000D03*
X92710000Y-98298000D03*
X94488000Y-98298000D03*
X105029000Y-98679000D03*
X106807000Y-98679000D03*
D29*
X90551000Y-100838000D03*
X90551000Y-98298000D03*
X88011000Y-98298000D03*
X88011000Y-100838000D03*
D30*
X112141000Y-94356000D03*
X112141000Y-90556000D03*
D31*
X118854000Y-126746000D03*
X123208000Y-126746000D03*
D30*
X112141000Y-77084000D03*
X112141000Y-73284000D03*
D32*
X124841000Y-118150000D03*
X124841000Y-123150000D03*
D33*
X102240000Y-134874000D03*
X106040000Y-134874000D03*
D30*
X120055640Y-122938540D03*
X122265440Y-121983500D03*
X122265440Y-123885960D03*
D34*
X93726000Y-122809000D03*
X95758000Y-122809000D03*
D35*
X117221000Y-123374000D03*
X117221000Y-120974000D03*
D36*
X107569000Y-104648000D03*
X107569000Y-102616000D03*
D34*
X85217000Y-113919000D03*
X87249000Y-113919000D03*
D37*
X113538000Y-99695000D03*
X112014000Y-99695000D03*
X112014000Y-68834000D03*
X113538000Y-68834000D03*
X119888000Y-132969000D03*
X119888000Y-134493000D03*
D30*
X116626640Y-102491540D03*
X118836440Y-101536500D03*
X118836440Y-103438960D03*
D33*
X108016040Y-93309440D03*
X109918500Y-93309440D03*
X108963460Y-91099640D03*
D27*
X121031000Y-104521000D03*
X121031000Y-106299000D03*
X121031000Y-101346000D03*
X121031000Y-103124000D03*
X113792000Y-97282000D03*
X112014000Y-97282000D03*
X108077000Y-96647000D03*
X109855000Y-96647000D03*
X109855000Y-95123000D03*
X108077000Y-95123000D03*
X113411000Y-131318000D03*
X113411000Y-129540000D03*
X125857000Y-133731000D03*
X127635000Y-133731000D03*
X115570000Y-129540000D03*
X115570000Y-131318000D03*
X125857000Y-135255000D03*
X127635000Y-135255000D03*
X111887000Y-70485000D03*
X113665000Y-70485000D03*
X133096000Y-128397000D03*
X131318000Y-128397000D03*
X136271000Y-128397000D03*
X134493000Y-128397000D03*
X83185000Y-95758000D03*
X81407000Y-95758000D03*
X117729000Y-131318000D03*
X117729000Y-129540000D03*
X82931000Y-103759000D03*
X81153000Y-103759000D03*
X122301000Y-120396000D03*
X120523000Y-120396000D03*
X87884000Y-133985000D03*
X89662000Y-133985000D03*
X89662000Y-131953000D03*
X89662000Y-130175000D03*
X113411000Y-127889000D03*
X113411000Y-126111000D03*
X97790000Y-134874000D03*
X99568000Y-134874000D03*
X85852000Y-102997000D03*
X85852000Y-101219000D03*
X91694000Y-71501000D03*
X91694000Y-73279000D03*
X112649000Y-85852000D03*
X112649000Y-84074000D03*
X98552000Y-90805000D03*
X98552000Y-92583000D03*
X85344000Y-115824000D03*
X87122000Y-115824000D03*
X96266000Y-92583000D03*
X96266000Y-90805000D03*
X102362000Y-90805000D03*
X102362000Y-92583000D03*
X100076000Y-92583000D03*
X100076000Y-90805000D03*
X90170000Y-103378000D03*
X88392000Y-103378000D03*
X110109000Y-122809000D03*
X108331000Y-122809000D03*
X87884000Y-95758000D03*
X89662000Y-95758000D03*
X106807000Y-100203000D03*
X105029000Y-100203000D03*
X94488000Y-93091000D03*
X92710000Y-93091000D03*
X110109000Y-121285000D03*
X108331000Y-121285000D03*
X95758000Y-116967000D03*
X93980000Y-116967000D03*
D38*
X84963000Y-106299000D03*
X84963000Y-105537000D03*
X86487000Y-106299000D03*
X86487000Y-105537000D03*
D39*
X84963000Y-107188000D03*
X86487000Y-107188000D03*
X84963000Y-104648000D03*
X86487000Y-104648000D03*
D40*
X94996000Y-104775000D03*
X94234000Y-104775000D03*
X94996000Y-103251000D03*
X94234000Y-103251000D03*
D41*
X95885000Y-104775000D03*
X95885000Y-103251000D03*
X93345000Y-104775000D03*
X93345000Y-103251000D03*
X102235000Y-104775000D03*
X102235000Y-103251000D03*
X99695000Y-104775000D03*
X99695000Y-103251000D03*
D40*
X101346000Y-104775000D03*
X100584000Y-104775000D03*
X101346000Y-103251000D03*
X100584000Y-103251000D03*
D42*
X117790000Y-116175000D03*
X115890000Y-116175000D03*
X117790000Y-118775000D03*
X116840000Y-118775000D03*
X115890000Y-118775000D03*
D27*
X85344000Y-110236000D03*
X87122000Y-110236000D03*
D34*
X71120000Y-97155000D03*
X79248000Y-97155000D03*
X71120000Y-102997000D03*
X79248000Y-102997000D03*
D43*
X92075000Y-86995000D03*
X92075000Y-83439000D03*
X92075000Y-79375000D03*
X92075000Y-75819000D03*
D37*
X115570000Y-134493000D03*
X115570000Y-132969000D03*
X113411000Y-134493000D03*
X113411000Y-132969000D03*
D27*
X93980000Y-114300000D03*
X95758000Y-114300000D03*
X109474000Y-114300000D03*
X111252000Y-114300000D03*
X93980000Y-121158000D03*
X95758000Y-121158000D03*
X108331000Y-119253000D03*
X110109000Y-119253000D03*
X121158000Y-111379000D03*
X121158000Y-109601000D03*
X122682000Y-109601000D03*
X122682000Y-111379000D03*
X71628000Y-128143000D03*
X73406000Y-128143000D03*
X79502000Y-101092000D03*
X79502000Y-99314000D03*
D32*
X128143000Y-118150000D03*
X128143000Y-123150000D03*
D33*
X126367540Y-127721360D03*
X125412500Y-125511560D03*
X127314960Y-125511560D03*
D37*
X117729000Y-134493000D03*
X117729000Y-132969000D03*
D44*
X97917000Y-112395000D03*
X107315000Y-112395000D03*
D30*
X89829640Y-116207540D03*
X92039440Y-115252500D03*
X92039440Y-117154960D03*
X89702640Y-119763540D03*
X91912440Y-118808500D03*
X91912440Y-120710960D03*
X82590640Y-131066540D03*
X84800440Y-130111500D03*
X84800440Y-132013960D03*
D27*
X129032000Y-125603000D03*
X129032000Y-127381000D03*
X93980000Y-118745000D03*
X95758000Y-118745000D03*
X83185000Y-97282000D03*
X81407000Y-97282000D03*
X81407000Y-98806000D03*
X83185000Y-98806000D03*
D45*
X134239000Y-114173000D03*
X134239000Y-111379000D03*
D27*
X127381000Y-106553000D03*
X129159000Y-106553000D03*
X129159000Y-105029000D03*
X127381000Y-105029000D03*
X121031000Y-107950000D03*
X122809000Y-107950000D03*
X122809000Y-112903000D03*
X121031000Y-112903000D03*
X118618000Y-109601000D03*
X118618000Y-111379000D03*
D46*
X71374000Y-130429000D03*
X74168000Y-130429000D03*
D27*
X84963000Y-98679000D03*
X84963000Y-96901000D03*
X88138000Y-131953000D03*
X88138000Y-130175000D03*
X86614000Y-130175000D03*
X86614000Y-131953000D03*
X119888000Y-129540000D03*
X119888000Y-131318000D03*
X114427000Y-115824000D03*
X112649000Y-115824000D03*
X112649000Y-114300000D03*
X114427000Y-114300000D03*
D26*
X122174000Y-117094000D03*
X122174000Y-115062000D03*
X120142000Y-115062000D03*
X120142000Y-117094000D03*
D27*
X86360000Y-120015000D03*
X88138000Y-120015000D03*
D47*
X81504000Y-100269000D03*
X81504000Y-102169000D03*
X84104000Y-100269000D03*
X84104000Y-101219000D03*
X84104000Y-102169000D03*
D48*
X85387000Y-125034000D03*
X85387000Y-126934000D03*
X87587000Y-125984000D03*
X85387000Y-121732000D03*
X85387000Y-123632000D03*
X87587000Y-122682000D03*
D27*
X83439000Y-122428000D03*
X83439000Y-124206000D03*
M02*
