M48
;DRILL file {KiCad no-vcs-found-ddec803~58~ubuntu14.04.1} date Thu Jun  1 11:20:20 2017
;FORMAT={-:-/ absolute / metric / decimal}
FMAT,2
METRIC,TZ
T1C0.300
T2C0.300
T3C0.500
T4C0.600
T5C0.800
T6C0.900
T7C1.000
T8C1.100
T9C1.200
T10C1.300
T11C1.800
T12C2.000
T13C3.200
T14C3.300
%
G90
G05
M71
T1
X100.449Y-99.344
T2
X70.993Y-104.14
X70.993Y-116.84
X71.755Y-101.854
X71.755Y-117.856
X72.136Y-98.806
X72.39Y-99.568
X72.517Y-77.216
X72.517Y-78.486
X72.517Y-79.629
X72.517Y-81.026
X72.517Y-82.296
X72.517Y-89.916
X72.517Y-91.186
X72.644Y-118.745
X73.025Y-83.566
X73.025Y-132.08
X73.406Y-84.836
X73.787Y-87.63
X74.295Y-86.36
X74.295Y-87.122
X74.422Y-133.096
X74.93Y-126.746
X75.311Y-107.061
X75.692Y-106.426
X76.073Y-99.314
X76.327Y-95.123
X76.454Y-91.059
X76.581Y-94.361
X76.835Y-95.631
X77.089Y-124.587
X77.216Y-91.186
X77.343Y-96.139
X77.47Y-94.361
X77.597Y-113.411
X77.978Y-91.186
X78.105Y-89.662
X78.105Y-112.903
X78.359Y-94.361
X78.613Y-89.662
X78.867Y-123.571
X78.867Y-124.333
X79.121Y-89.662
X79.121Y-94.361
X79.375Y-122.809
X79.756Y-132.08
X80.264Y-97.282
X80.264Y-117.221
X81.153Y-134.239
X81.661Y-89.408
X81.661Y-90.043
X81.661Y-90.678
X82.55Y-94.742
X83.312Y-94.742
X83.439Y-109.474
X83.82Y-104.521
X84.074Y-97.028
X84.328Y-85.852
X84.328Y-86.614
X85.09Y-115.062
X85.344Y-120.777
X85.725Y-86.36
X85.725Y-87.122
X86.106Y-88.265
X86.233Y-94.615
X86.36Y-98.933
X86.868Y-96.774
X87.249Y-118.999
X87.376Y-129.032
X88.265Y-129.032
X89.281Y-104.902
X89.662Y-97.917
X89.662Y-98.425
X89.662Y-124.841
X90.043Y-104.902
X90.043Y-129.032
X90.678Y-128.397
X92.075Y-108.966
X92.456Y-133.731
X92.583Y-107.95
X92.71Y-109.347
X93.091Y-108.331
X93.599Y-132.08
X93.726Y-135.763
X93.853Y-90.297
X94.488Y-90.297
X95.25Y-134.747
X96.52Y-102.235
X97.917Y-101.854
X99.314Y-90.805
X99.568Y-133.985
X100.457Y-102.235
X100.584Y-133.985
X100.965Y-101.473
X101.727Y-101.981
X102.362Y-95.504
X102.997Y-95.758
X103.378Y-99.695
X103.505Y-97.155
X104.521Y-95.885
X104.902Y-129.032
X105.156Y-96.52
X105.537Y-126.365
X105.791Y-98.806
X105.918Y-101.219
X105.918Y-101.727
X105.918Y-102.235
X106.426Y-89.281
X106.68Y-131.826
X107.442Y-131.953
X107.95Y-132.461
X108.204Y-133.096
X108.331Y-136.017
X109.347Y-131.064
X110.109Y-133.096
X110.363Y-131.826
X110.617Y-136.017
X110.744Y-132.461
X111.379Y-88.138
X111.633Y-108.204
X112.395Y-109.22
X112.522Y-108.077
X112.649Y-109.855
X112.903Y-101.473
X113.538Y-71.374
X113.919Y-121.92
X114.173Y-122.555
X116.459Y-128.651
X116.713Y-129.667
X118.745Y-129.794
X128.016Y-132.715
X128.143Y-136.525
X129.286Y-131.445
X129.286Y-132.08
X132.334Y-137.033
X133.096Y-137.033
X141.351Y-129.286
X98.649Y-97.544
X98.649Y-98.544
X99.449Y-96.744
X99.449Y-99.344
X100.449Y-96.744
X101.249Y-97.544
X101.249Y-98.544
T3
X95.25Y-90.678
T4
X72.517Y-74.549
X73.533Y-126.873
X73.914Y-94.361
X73.914Y-95.631
X73.914Y-101.219
X73.914Y-102.108
X73.914Y-104.394
X73.914Y-108.204
X73.914Y-109.474
X74.168Y-90.805
X74.168Y-115.57
X74.168Y-118.11
X74.168Y-119.126
X74.168Y-120.142
X75.184Y-90.805
X75.184Y-115.57
X75.565Y-74.295
X75.565Y-78.105
X75.565Y-81.28
X75.819Y-83.693
X75.819Y-124.46
X76.2Y-88.646
X76.2Y-115.57
X76.2Y-123.444
X77.089Y-76.073
X77.978Y-123.063
X78.74Y-74.295
X78.74Y-78.105
X80.391Y-76.073
X81.915Y-74.295
X81.915Y-78.105
X82.804Y-107.442
X82.804Y-108.458
X83.185Y-76.073
X84.201Y-103.378
X84.455Y-74.295
X84.455Y-78.105
X85.471Y-99.949
X85.979Y-76.073
X86.36Y-108.458
X86.995Y-74.549
X88.773Y-106.553
X88.773Y-107.569
X88.773Y-113.538
X88.773Y-117.983
X90.17Y-109.982
X90.17Y-111.125
X90.17Y-112.141
X90.551Y-124.079
X91.059Y-68.199
X91.059Y-69.469
X91.567Y-88.138
X91.567Y-104.775
X91.694Y-74.676
X91.948Y-124.968
X92.456Y-88.138
X92.583Y-110.998
X92.583Y-112.014
X92.583Y-113.03
X92.71Y-74.676
X93.98Y-120.015
X94.234Y-91.821
X95.25Y-70.485
X95.631Y-123.952
X96.52Y-68.58
X97.155Y-75.565
X97.409Y-123.444
X97.536Y-114.173
X97.79Y-70.485
X97.79Y-81.915
X97.917Y-110.871
X98.806Y-104.648
X99.695Y-68.58
X99.695Y-72.39
X99.695Y-76.2
X99.695Y-80.01
X99.949Y-114.173
X100.457Y-110.871
X101.092Y-116.967
X101.092Y-118.491
X101.092Y-121.158
X101.219Y-115.443
X101.6Y-70.485
X101.6Y-74.295
X101.6Y-78.105
X101.6Y-81.915
X102.362Y-119.761
X102.362Y-122.428
X102.743Y-112.649
X103.124Y-101.092
X103.124Y-101.981
X103.505Y-68.58
X103.505Y-72.39
X103.505Y-76.2
X103.505Y-80.01
X103.505Y-90.805
X103.632Y-111.125
X103.632Y-118.491
X103.632Y-121.158
X104.902Y-115.443
X105.41Y-70.485
X105.41Y-81.915
X105.537Y-110.744
X106.045Y-75.565
X106.172Y-114.173
X106.426Y-94.107
X106.426Y-95.123
X106.68Y-68.58
X107.569Y-110.744
X107.95Y-70.485
X107.95Y-114.173
X109.474Y-98.298
X110.236Y-91.186
X110.998Y-102.108
X110.998Y-103.124
X110.998Y-104.14
X111.506Y-85.852
X112.014Y-102.108
X112.014Y-103.124
X112.014Y-104.14
X112.141Y-95.758
X112.141Y-117.221
X112.141Y-119.253
X113.03Y-78.232
X113.03Y-105.537
X113.03Y-106.553
X113.03Y-124.333
X114.046Y-106.553
X114.046Y-124.333
X115.951Y-114.427
X116.84Y-117.602
X117.094Y-114.427
X117.475Y-105.156
X117.475Y-106.172
X117.475Y-109.601
X117.856Y-117.475
X118.237Y-114.427
X118.364Y-125.095
X118.491Y-105.156
X118.491Y-106.172
X118.872Y-134.112
X119.38Y-125.095
X119.507Y-105.156
X119.507Y-106.172
X119.507Y-118.872
X120.015Y-111.379
X120.396Y-125.095
X120.396Y-126.111
X120.523Y-118.872
X121.539Y-118.872
X121.666Y-130.937
X121.666Y-131.953
X121.666Y-132.969
X122.809Y-101.346
X122.809Y-105.029
X123.825Y-109.728
X124.333Y-103.251
X124.333Y-106.68
X124.46Y-134.366
X124.46Y-135.382
X125.222Y-127.127
X125.222Y-128.143
X125.476Y-132.715
X126.111Y-101.346
X126.111Y-105.029
X126.365Y-132.715
X127.508Y-109.728
X127.508Y-121.412
X128.524Y-103.251
X128.524Y-121.412
X130.175Y-127.381
X131.064Y-134.239
X131.064Y-135.128
X131.572Y-107.061
X132.715Y-114.173
X133.477Y-130.175
X133.477Y-131.191
X133.985Y-108.458
X135.001Y-133.985
X135.382Y-107.061
X138.557Y-137.922
X139.319Y-136.271
X139.319Y-139.7
X140.97Y-135.509
X140.97Y-140.335
X142.621Y-136.271
X142.621Y-139.573
X143.383Y-137.922
X77.97Y-79.984
X77.97Y-82.219
X77.97Y-84.683
X80.281Y-79.984
X80.281Y-84.683
X82.643Y-79.984
X82.643Y-82.219
X82.643Y-84.683
X70.993Y-137.922
X71.755Y-136.271
X71.755Y-139.7
X73.406Y-135.509
X73.406Y-140.335
X75.057Y-136.271
X75.057Y-139.573
X75.819Y-137.922
T5
X78.359Y-130.81
X78.359Y-133.35
X72.009Y-120.65
X72.009Y-123.19
X72.009Y-125.73
T6
X97.165Y-87.599
X98.435Y-85.059
X99.705Y-87.599
X100.975Y-85.059
X102.245Y-87.599
X103.515Y-85.059
X104.785Y-87.599
X106.055Y-85.059
X138.044Y-130.315
X138.046Y-132.326
T7
X78.486Y-137.668
X78.486Y-140.208
X81.026Y-137.668
X81.026Y-140.208
X83.566Y-137.668
X83.566Y-140.208
X86.106Y-137.668
X86.106Y-140.208
X88.646Y-137.668
X88.646Y-140.208
X91.186Y-137.668
X91.186Y-140.208
X93.726Y-137.668
X93.726Y-140.208
X96.266Y-137.668
X96.266Y-140.208
X98.806Y-137.668
X98.806Y-140.208
X101.346Y-137.668
X101.346Y-140.208
X103.886Y-137.668
X103.886Y-140.208
X106.426Y-137.668
X106.426Y-140.208
X108.966Y-137.668
X108.966Y-140.208
X111.506Y-137.668
X111.506Y-140.208
X114.046Y-137.668
X114.046Y-140.208
X116.586Y-137.668
X116.586Y-140.208
X119.126Y-137.668
X119.126Y-140.208
X121.666Y-137.668
X121.666Y-140.208
X124.206Y-137.668
X124.206Y-140.208
X126.746Y-137.668
X126.746Y-140.208
X80.281Y-82.346
T8
X96.266Y-127.762
X96.266Y-130.302
X98.806Y-127.762
X98.806Y-130.302
X101.346Y-127.762
X101.346Y-130.302
X103.886Y-127.762
X103.886Y-130.302
X106.426Y-127.762
X106.426Y-130.302
X94.99Y-73.611
X97.53Y-73.611
X105.67Y-73.611
X108.21Y-73.611
T9
X99.949Y-98.044
T10
X140.Y-107.315
X140.Y-110.815
X140.Y-114.315
X117.176Y-92.456
X119.176Y-86.456
X119.176Y-98.456
X131.176Y-86.456
X131.176Y-98.456
X140.5Y-91.774
X140.5Y-96.774
X140.5Y-101.774
X140.5Y-76.774
X140.5Y-81.774
X140.5Y-86.774
X117.176Y-75.184
X119.176Y-69.184
X119.176Y-81.184
X131.176Y-69.184
X131.176Y-81.184
X140.208Y-119.895
X140.208Y-124.895
T11
X93.8Y-81.409
X109.4Y-81.409
T12
X78.309Y-119.54
X79.909Y-126.84
T13
X95.885Y-78.359
X107.315Y-78.359
T14
X73.406Y-137.922
X140.97Y-137.922
T4
X129.4Y-134.783G85X129.4Y-135.383
G05
X129.4Y-138.253G85X129.4Y-138.853
G05
X136.6Y-134.783G85X136.6Y-135.383
G05
X136.6Y-138.253G85X136.6Y-138.853
G05
T7
X130.937Y-123.819G85X130.937Y-120.819
G05
X135.737Y-117.869G85X132.737Y-117.869
G05
X137.437Y-123.819G85X137.437Y-120.819
G05
T0
M30
