G04 #@! TF.GenerationSoftware,KiCad,Pcbnew,no-vcs-found-ddec803~58~ubuntu14.04.1*
G04 #@! TF.CreationDate,2017-06-01T11:20:14+03:00*
G04 #@! TF.ProjectId,ESP32-EVB_Rev_C,45535033322D4556425F5265765F432E,C*
G04 #@! TF.FileFunction,Legend,Top*
G04 #@! TF.FilePolarity,Positive*
%FSLAX46Y46*%
G04 Gerber Fmt 4.6, Leading zero omitted, Abs format (unit mm)*
G04 Created by KiCad (PCBNEW no-vcs-found-ddec803~58~ubuntu14.04.1) date Thu Jun  1 11:20:14 2017*
%MOMM*%
%LPD*%
G01*
G04 APERTURE LIST*
%ADD10C,0.100000*%
%ADD11C,0.254000*%
%ADD12C,0.381000*%
%ADD13C,0.250000*%
%ADD14C,0.203200*%
%ADD15C,0.127000*%
%ADD16C,0.150000*%
%ADD17C,0.200000*%
%ADD18C,0.300000*%
%ADD19C,0.400000*%
%ADD20C,0.050000*%
%ADD21C,0.158750*%
%ADD22C,0.190500*%
G04 APERTURE END LIST*
D10*
D11*
X124460000Y-130048000D02*
X123825000Y-130683000D01*
X137795000Y-141732000D02*
X144780000Y-141732000D01*
X137795000Y-140716000D02*
X137795000Y-141732000D01*
X128270000Y-140716000D02*
X137795000Y-140716000D01*
X128270000Y-141732000D02*
X128270000Y-140716000D01*
X69596000Y-141732000D02*
X128270000Y-141732000D01*
D12*
X96302285Y-108349142D02*
X96810285Y-108349142D01*
X97028000Y-109147428D02*
X96302285Y-109147428D01*
X96302285Y-107623428D01*
X97028000Y-107623428D01*
X97608571Y-109074857D02*
X97826285Y-109147428D01*
X98189142Y-109147428D01*
X98334285Y-109074857D01*
X98406857Y-109002285D01*
X98479428Y-108857142D01*
X98479428Y-108712000D01*
X98406857Y-108566857D01*
X98334285Y-108494285D01*
X98189142Y-108421714D01*
X97898857Y-108349142D01*
X97753714Y-108276571D01*
X97681142Y-108204000D01*
X97608571Y-108058857D01*
X97608571Y-107913714D01*
X97681142Y-107768571D01*
X97753714Y-107696000D01*
X97898857Y-107623428D01*
X98261714Y-107623428D01*
X98479428Y-107696000D01*
X99132571Y-109147428D02*
X99132571Y-107623428D01*
X99713142Y-107623428D01*
X99858285Y-107696000D01*
X99930857Y-107768571D01*
X100003428Y-107913714D01*
X100003428Y-108131428D01*
X99930857Y-108276571D01*
X99858285Y-108349142D01*
X99713142Y-108421714D01*
X99132571Y-108421714D01*
X100511428Y-107623428D02*
X101454857Y-107623428D01*
X100946857Y-108204000D01*
X101164571Y-108204000D01*
X101309714Y-108276571D01*
X101382285Y-108349142D01*
X101454857Y-108494285D01*
X101454857Y-108857142D01*
X101382285Y-109002285D01*
X101309714Y-109074857D01*
X101164571Y-109147428D01*
X100729142Y-109147428D01*
X100584000Y-109074857D01*
X100511428Y-109002285D01*
X102035428Y-107768571D02*
X102108000Y-107696000D01*
X102253142Y-107623428D01*
X102616000Y-107623428D01*
X102761142Y-107696000D01*
X102833714Y-107768571D01*
X102906285Y-107913714D01*
X102906285Y-108058857D01*
X102833714Y-108276571D01*
X101962857Y-109147428D01*
X102906285Y-109147428D01*
X103559428Y-108566857D02*
X104720571Y-108566857D01*
X105446285Y-108349142D02*
X105954285Y-108349142D01*
X106172000Y-109147428D02*
X105446285Y-109147428D01*
X105446285Y-107623428D01*
X106172000Y-107623428D01*
X106607428Y-107623428D02*
X107115428Y-109147428D01*
X107623428Y-107623428D01*
X108639428Y-108349142D02*
X108857142Y-108421714D01*
X108929714Y-108494285D01*
X109002285Y-108639428D01*
X109002285Y-108857142D01*
X108929714Y-109002285D01*
X108857142Y-109074857D01*
X108712000Y-109147428D01*
X108131428Y-109147428D01*
X108131428Y-107623428D01*
X108639428Y-107623428D01*
X108784571Y-107696000D01*
X108857142Y-107768571D01*
X108929714Y-107913714D01*
X108929714Y-108058857D01*
X108857142Y-108204000D01*
X108784571Y-108276571D01*
X108639428Y-108349142D01*
X108131428Y-108349142D01*
D11*
X124841000Y-128778000D02*
X124841000Y-128524000D01*
X124587000Y-128524000D02*
X124841000Y-128778000D01*
X124841000Y-128524000D02*
X124587000Y-128524000D01*
X124460000Y-128905000D02*
X124841000Y-128524000D01*
X124460000Y-130048000D02*
X124460000Y-128905000D01*
X76617285Y-141175619D02*
X76036714Y-141175619D01*
X76327000Y-141175619D02*
X76327000Y-140159619D01*
X76230238Y-140304761D01*
X76133476Y-140401523D01*
X76036714Y-140449904D01*
X70485000Y-118745000D02*
X70485000Y-119253000D01*
X70358000Y-118618000D02*
X70358000Y-119380000D01*
X70231000Y-118491000D02*
X70231000Y-119507000D01*
X70739000Y-118999000D02*
X70231000Y-118491000D01*
X70231000Y-119507000D02*
X70739000Y-118999000D01*
D13*
X70770714Y-121229380D02*
X70199285Y-121229380D01*
X70485000Y-121229380D02*
X70485000Y-120229380D01*
X70389761Y-120372238D01*
X70294523Y-120467476D01*
X70199285Y-120515095D01*
D11*
X115768842Y-99669600D02*
G75*
G03X115768842Y-99669600I-71842J0D01*
G01*
X89154000Y-67056000D02*
X144780000Y-67056000D01*
X89154000Y-73152000D02*
X89154000Y-67056000D01*
X69596000Y-73152000D02*
X89154000Y-73152000D01*
X69596000Y-141732000D02*
X69596000Y-73152000D01*
X144780000Y-141732000D02*
X144780000Y-67056000D01*
X128936000Y-141732000D02*
X129317000Y-140716000D01*
X137064000Y-141732000D02*
X136683000Y-140716000D01*
X136700000Y-136203000D02*
X136700000Y-137403000D01*
X129300000Y-140703000D02*
X129300000Y-139703000D01*
X137064000Y-141803000D02*
X128936000Y-141803000D01*
X136700000Y-139703000D02*
X136700000Y-140703000D01*
X135800000Y-134703000D02*
X134800000Y-134703000D01*
X131200000Y-134703000D02*
X130200000Y-134703000D01*
X129300000Y-136203000D02*
X129300000Y-137403000D01*
X136700000Y-140703000D02*
X129300000Y-140703000D01*
X131469000Y-132818000D02*
X131469000Y-129818000D01*
X132609512Y-130518000D02*
G75*
G03X132609512Y-130518000I-390512J0D01*
G01*
X131469000Y-132818000D02*
X134469000Y-132818000D01*
X134469000Y-132818000D02*
X134469000Y-129818000D01*
X134469000Y-129818000D02*
X131469000Y-129818000D01*
D14*
X127832566Y-108585000D02*
G75*
G03X127832566Y-108585000I-197566J0D01*
G01*
D11*
X129540000Y-107913000D02*
X129540000Y-112813000D01*
X127270000Y-107913000D02*
X129540000Y-107913000D01*
X127000000Y-108213000D02*
X127270000Y-107913000D01*
X127000000Y-112813000D02*
X127000000Y-108213000D01*
X129540000Y-112813000D02*
X127000000Y-112813000D01*
D14*
X126803866Y-107637580D02*
G75*
G03X126803866Y-107637580I-197566J0D01*
G01*
D15*
X98996500Y-123190000D02*
X104457500Y-123190000D01*
D16*
X98996500Y-115951000D02*
X98996500Y-123571000D01*
X104457500Y-123571000D02*
X104457500Y-115951000D01*
X98996500Y-115951000D02*
X104457500Y-115951000D01*
X104457500Y-123571000D02*
X98996500Y-123571000D01*
X105578710Y-123698000D02*
G75*
G03X105578710Y-123698000I-359210J0D01*
G01*
X78885051Y-123190000D02*
G75*
G03X78885051Y-123190000I-1796051J0D01*
G01*
X75809000Y-124400000D02*
X78309000Y-121950000D01*
X78309000Y-124450000D02*
X75859000Y-121950000D01*
D13*
X82009000Y-126900000D02*
X81759000Y-126900000D01*
X82009000Y-119650000D02*
X82009000Y-126900000D01*
X80259000Y-119650000D02*
X82009000Y-119650000D01*
X74009000Y-119650000D02*
X76509000Y-119650000D01*
X74009000Y-126900000D02*
X74009000Y-119650000D01*
X78009000Y-126900000D02*
X74009000Y-126900000D01*
X73259000Y-120650000D02*
X74009000Y-120650000D01*
X73259000Y-123150000D02*
X74009000Y-123150000D01*
X73259000Y-125900000D02*
X74009000Y-125900000D01*
D11*
X80006834Y-129578572D02*
G75*
G02X76709000Y-129580000I-1647834J-2501428D01*
G01*
X79959000Y-133380000D02*
X79459000Y-133380000D01*
X79959000Y-130780000D02*
X79459000Y-130780000D01*
D15*
X77759000Y-132334000D02*
X77632000Y-132334000D01*
X77632000Y-132334000D02*
X77759000Y-132207000D01*
X78902000Y-131826000D02*
X78394000Y-132334000D01*
X78394000Y-132334000D02*
X78394000Y-131826000D01*
X78394000Y-131826000D02*
X77759000Y-132334000D01*
X77759000Y-132334000D02*
X77886000Y-132334000D01*
X77886000Y-132334000D02*
X77759000Y-132080000D01*
X77759000Y-132080000D02*
X77632000Y-132334000D01*
D11*
X79959000Y-132580000D02*
X79959000Y-133380000D01*
X79959000Y-130780000D02*
X79959000Y-131580000D01*
X79459000Y-131580000D02*
X80459000Y-131580000D01*
X80459000Y-132580000D02*
X79459000Y-132580000D01*
X79459000Y-132580000D02*
X79959000Y-131680000D01*
X79959000Y-131680000D02*
X80459000Y-132580000D01*
X80859000Y-132080000D02*
G75*
G03X80859000Y-132080000I-2500000J0D01*
G01*
X76709000Y-129580000D02*
X80009000Y-129580000D01*
X80009000Y-129580000D02*
X80009000Y-129580000D01*
D17*
X97226873Y-95145860D02*
G75*
G03X97226873Y-95145860I-176013J0D01*
G01*
D11*
X97850960Y-95544640D02*
X97624900Y-95544640D01*
X102448360Y-95544640D02*
X102047040Y-95544640D01*
X102448360Y-95945960D02*
X102448360Y-95544640D01*
X102448360Y-100543360D02*
X102448360Y-100142040D01*
X102047040Y-100543360D02*
X102448360Y-100543360D01*
X97449640Y-100543360D02*
X97850960Y-100543360D01*
X97449640Y-100142040D02*
X97449640Y-100543360D01*
X97449640Y-95719900D02*
X97449640Y-95945960D01*
X97624900Y-95544640D02*
X97449640Y-95719900D01*
D15*
X104140000Y-91186000D02*
X104140000Y-90170000D01*
X104140000Y-90170000D02*
X105410000Y-90170000D01*
X105410000Y-90170000D02*
X105410000Y-91186000D01*
X104140000Y-93218000D02*
X105410000Y-93218000D01*
X105410000Y-93218000D02*
X105410000Y-92202000D01*
X104140000Y-93218000D02*
X104140000Y-92202000D01*
D11*
X71010000Y-67133000D02*
X89010000Y-67133000D01*
X71010000Y-73133000D02*
X89010000Y-73133000D01*
X70419411Y-73353000D02*
G75*
G03X70419411Y-73353000I-339411J0D01*
G01*
X89010000Y-67133000D02*
X89010000Y-73753000D01*
X71010000Y-92633000D02*
X71010000Y-92043000D01*
X71010000Y-92633000D02*
X73380000Y-92633000D01*
X89010000Y-92633000D02*
X86520000Y-92633000D01*
X89010000Y-92633000D02*
X89010000Y-92093000D01*
X71010000Y-67133000D02*
X71010000Y-73753000D01*
X77284580Y-116852700D02*
X75577700Y-117944900D01*
X70609460Y-106027220D02*
X70609460Y-117513100D01*
X71038720Y-105585260D02*
X81975960Y-105585260D01*
X71038720Y-117944900D02*
X75557380Y-117944900D01*
X82405220Y-116123720D02*
X82405220Y-116423440D01*
X82405220Y-110025180D02*
X82405220Y-112473740D01*
X82405220Y-106017060D02*
X82405220Y-106486960D01*
X81975960Y-116852700D02*
X77284580Y-116852700D01*
X136500000Y-105565000D02*
X144500000Y-105565000D01*
X136500000Y-116065000D02*
X144500000Y-116065000D01*
X144500000Y-105565000D02*
X144500000Y-116065000D01*
X136500000Y-116065000D02*
X136500000Y-105565000D01*
D15*
X138200210Y-107259000D02*
G75*
G03X138200210Y-107259000I-359210J0D01*
G01*
X138200210Y-107259000D02*
G75*
G03X138200210Y-107259000I-359210J0D01*
G01*
X138200210Y-110815000D02*
G75*
G03X138200210Y-110815000I-359210J0D01*
G01*
X138200210Y-110815000D02*
G75*
G03X138200210Y-110815000I-359210J0D01*
G01*
X138200210Y-114371000D02*
G75*
G03X138200210Y-114371000I-359210J0D01*
G01*
X138200210Y-114371000D02*
G75*
G03X138200210Y-114371000I-359210J0D01*
G01*
D11*
X138000000Y-105065000D02*
X138000000Y-105565000D01*
X137000000Y-105065000D02*
X137000000Y-105565000D01*
X138000000Y-105065000D02*
X137000000Y-105065000D01*
X138000000Y-105215000D02*
X137000000Y-105215000D01*
X138000000Y-105415000D02*
X137000000Y-105415000D01*
X143000000Y-116065000D02*
X143000000Y-116565000D01*
X143000000Y-116565000D02*
X142500000Y-116565000D01*
X142500000Y-116565000D02*
X142500000Y-116065000D01*
X143000000Y-116415000D02*
X142500000Y-116415000D01*
X143000000Y-116215000D02*
X142500000Y-116215000D01*
X97007680Y-133256020D02*
X97007680Y-133423660D01*
X95722440Y-133256020D02*
X96994980Y-133256020D01*
X95714820Y-133416040D02*
X95722440Y-133256020D01*
X96956880Y-133421120D02*
X99354640Y-133421120D01*
X99400360Y-131429760D02*
X103441500Y-131427220D01*
X99400360Y-133421120D02*
X99400360Y-131429760D01*
X106240580Y-132875020D02*
X106715560Y-133383020D01*
D16*
X106177080Y-132887720D02*
X106253280Y-132887720D01*
X106108500Y-132887720D02*
X106189780Y-132887720D01*
D11*
X104152700Y-132887720D02*
X106159300Y-132887720D01*
X103477060Y-133403340D02*
X104127300Y-132900420D01*
X103446580Y-131427220D02*
X103451660Y-133416040D01*
X106728260Y-133395720D02*
X111483140Y-133398260D01*
X92369640Y-124383800D02*
X92369640Y-124696220D01*
X93672660Y-124383800D02*
X92369640Y-124383800D01*
X93672660Y-124703840D02*
X93672660Y-124383800D01*
X100611940Y-124703840D02*
X93672660Y-124703840D01*
X100617020Y-124399040D02*
X100611940Y-124703840D01*
X101927660Y-124393960D02*
X100617020Y-124399040D01*
X101932740Y-124719080D02*
X101927660Y-124393960D01*
X108943140Y-124698760D02*
X101932740Y-124719080D01*
X108943140Y-124393960D02*
X108943140Y-124698760D01*
X110246160Y-124393960D02*
X108943140Y-124393960D01*
X110246160Y-124691140D02*
X110246160Y-124393960D01*
X111500920Y-124693680D02*
X110246160Y-124691140D01*
X99387660Y-132189220D02*
X92539820Y-132191760D01*
X99400360Y-133418580D02*
X103449120Y-133416040D01*
X92468700Y-125844300D02*
X110210600Y-125857000D01*
X91262200Y-124701300D02*
X92367100Y-124701300D01*
X91274900Y-124714000D02*
X91274900Y-133426200D01*
X92468700Y-125844300D02*
X92468700Y-132194300D01*
X110223300Y-125869700D02*
X110223300Y-132219700D01*
X103466900Y-132207000D02*
X110210600Y-132219700D01*
X91287600Y-133413500D02*
X95758000Y-133413500D01*
X111531400Y-124714000D02*
X111531400Y-133426200D01*
X104546400Y-132219700D02*
X104546400Y-132867400D01*
X105867200Y-132207000D02*
X105867200Y-132867400D01*
D18*
X135076000Y-82984000D02*
X135076000Y-67384000D01*
X115876000Y-82984000D02*
X135076000Y-82984000D01*
X135076000Y-67384000D02*
X115876000Y-67384000D01*
X115876000Y-82984000D02*
X115876000Y-76584000D01*
X115876000Y-73784000D02*
X115876000Y-67384000D01*
X121576000Y-81184000D02*
X122276000Y-81184000D01*
X121576000Y-69184000D02*
X122276000Y-69184000D01*
X122276000Y-81184000D02*
X122276000Y-75784000D01*
X122276000Y-69184000D02*
X122276000Y-74484000D01*
X123576000Y-75784000D02*
X123576000Y-74484000D01*
X121076000Y-75784000D02*
X123576000Y-75784000D01*
X121076000Y-74484000D02*
X121076000Y-75784000D01*
X123576000Y-74484000D02*
X121076000Y-74484000D01*
X123576000Y-74484000D02*
X121076000Y-75784000D01*
X118876000Y-75184000D02*
X120176000Y-75184000D01*
X120176000Y-75184000D02*
G75*
G03X122176000Y-77184000I2000000J0D01*
G01*
X122476000Y-77184000D02*
G75*
G03X124476000Y-75184000I0J2000000D01*
G01*
X122576000Y-77184000D02*
X122076000Y-77184000D01*
X131176000Y-78884000D02*
X131176000Y-75884000D01*
X131176000Y-71384000D02*
X131176000Y-74484000D01*
X130376000Y-75184000D02*
X130576000Y-75184000D01*
X124476000Y-75184000D02*
X130376000Y-75184000D01*
X130576000Y-75184000D02*
X131976000Y-73784000D01*
X135076000Y-100256000D02*
X135076000Y-84656000D01*
X115876000Y-100256000D02*
X135076000Y-100256000D01*
X135076000Y-84656000D02*
X115876000Y-84656000D01*
X115876000Y-100256000D02*
X115876000Y-93856000D01*
X115876000Y-91056000D02*
X115876000Y-84656000D01*
X121576000Y-98456000D02*
X122276000Y-98456000D01*
X121576000Y-86456000D02*
X122276000Y-86456000D01*
X122276000Y-98456000D02*
X122276000Y-93056000D01*
X122276000Y-86456000D02*
X122276000Y-91756000D01*
X123576000Y-93056000D02*
X123576000Y-91756000D01*
X121076000Y-93056000D02*
X123576000Y-93056000D01*
X121076000Y-91756000D02*
X121076000Y-93056000D01*
X123576000Y-91756000D02*
X121076000Y-91756000D01*
X123576000Y-91756000D02*
X121076000Y-93056000D01*
X118876000Y-92456000D02*
X120176000Y-92456000D01*
X120176000Y-92456000D02*
G75*
G03X122176000Y-94456000I2000000J0D01*
G01*
X122476000Y-94456000D02*
G75*
G03X124476000Y-92456000I0J2000000D01*
G01*
X122576000Y-94456000D02*
X122076000Y-94456000D01*
X131176000Y-96156000D02*
X131176000Y-93156000D01*
X131176000Y-88656000D02*
X131176000Y-91756000D01*
X130376000Y-92456000D02*
X130576000Y-92456000D01*
X124476000Y-92456000D02*
X130376000Y-92456000D01*
X130576000Y-92456000D02*
X131976000Y-91056000D01*
D11*
X98600260Y-67360800D02*
X100401120Y-67360800D01*
X99400360Y-72161400D02*
X98600260Y-67360800D01*
X99601020Y-72161400D02*
X99400360Y-72161400D01*
X100401120Y-67360800D02*
X99601020Y-72161400D01*
X102798880Y-67360800D02*
X104599740Y-67360800D01*
X103598980Y-72161400D02*
X102798880Y-67360800D01*
X103799640Y-72161400D02*
X103598980Y-72161400D01*
X104599740Y-67360800D02*
X103799640Y-72161400D01*
X110600000Y-67359000D02*
X110600000Y-74359000D01*
X109600000Y-67359000D02*
X110600000Y-67359000D01*
X92600000Y-67359000D02*
X92600000Y-74359000D01*
X93600000Y-67359000D02*
X92600000Y-67359000D01*
X99001580Y-72859900D02*
X98000820Y-67360800D01*
X100002340Y-72859900D02*
X99001580Y-72859900D01*
X101000560Y-67360800D02*
X100002340Y-72859900D01*
X103197660Y-72859900D02*
X102199440Y-67360800D01*
X104198420Y-72859900D02*
X103197660Y-72859900D01*
X105199180Y-67360800D02*
X104198420Y-72859900D01*
X95501460Y-68859400D02*
X95501460Y-69060060D01*
X95501460Y-68859400D02*
X95702120Y-68859400D01*
X95900240Y-69359780D02*
X95501460Y-68859400D01*
X96202500Y-68859400D02*
X96202500Y-69060060D01*
X96202500Y-68859400D02*
X96400620Y-68859400D01*
X96601280Y-69359780D02*
X96202500Y-68859400D01*
X97533460Y-70561200D02*
X97533460Y-72499220D01*
X96832420Y-70561200D02*
X97533460Y-70561200D01*
X95834200Y-69761100D02*
X95834200Y-71361300D01*
X95933260Y-70561200D02*
X96733360Y-71361300D01*
X96733360Y-69761100D02*
X95933260Y-70561200D01*
X96733360Y-69761100D02*
X96733360Y-71361300D01*
X95034100Y-70561200D02*
X95732600Y-70561200D01*
X95034100Y-72588120D02*
X95034100Y-70561200D01*
X106199940Y-68859400D02*
X106199940Y-69060060D01*
X106199940Y-68859400D02*
X106398060Y-68859400D01*
X106598720Y-69359780D02*
X106199940Y-68859400D01*
X106898440Y-68859400D02*
X106898440Y-69060060D01*
X106898440Y-68859400D02*
X107099100Y-68859400D01*
X107299760Y-69359780D02*
X106898440Y-68859400D01*
X105700000Y-70559000D02*
X105700000Y-72459000D01*
X106398060Y-70561200D02*
X105699560Y-70561200D01*
X106499660Y-71361300D02*
X106499660Y-69761100D01*
X106598720Y-70561200D02*
X107398820Y-69761100D01*
X107398820Y-71361300D02*
X106598720Y-70561200D01*
X107400000Y-71359000D02*
X107400000Y-69759000D01*
X108200000Y-70559000D02*
X107500000Y-70559000D01*
X108200000Y-72559000D02*
X108200000Y-70559000D01*
X109600000Y-83109000D02*
X109600000Y-89359000D01*
X109600000Y-67359000D02*
X109600000Y-79609000D01*
X93600000Y-67359000D02*
X109600000Y-67359000D01*
X93600000Y-79609000D02*
X93600000Y-67359000D01*
X93600000Y-89359000D02*
X93600000Y-83109000D01*
X109600000Y-89359000D02*
X93600000Y-89359000D01*
X103700000Y-72159000D02*
X103050000Y-67369000D01*
X103710000Y-72009000D02*
X104360000Y-67379000D01*
X103720000Y-71399000D02*
X103160000Y-67369000D01*
X103710000Y-71109000D02*
X104120000Y-67379000D01*
X103730000Y-70589000D02*
X103370000Y-67379000D01*
X103680000Y-69879000D02*
X103870000Y-67369000D01*
X103770000Y-68999000D02*
X103570000Y-67359000D01*
X103600000Y-68229000D02*
X103740000Y-67419000D01*
X99510000Y-71969000D02*
X98790000Y-67369000D01*
X99500000Y-71799000D02*
X100170000Y-67379000D01*
X99510000Y-71219000D02*
X98990000Y-67489000D01*
X99450000Y-70749000D02*
X99930000Y-67389000D01*
X99580000Y-69999000D02*
X99180000Y-67429000D01*
X99550000Y-69579000D02*
X99700000Y-67399000D01*
X99620000Y-68969000D02*
X99340000Y-67389000D01*
X99510000Y-68259000D02*
X99510000Y-67389000D01*
X138049000Y-134381240D02*
X138046460Y-128325880D01*
X138043920Y-134383780D02*
X144353280Y-134383780D01*
X144353280Y-134383780D02*
X144353280Y-128303020D01*
X144353280Y-128303020D02*
X138059160Y-128303020D01*
X127000000Y-130048000D02*
X127000000Y-131064000D01*
X124968000Y-130048000D02*
X124968000Y-131064000D01*
X127000000Y-130048000D02*
X127000000Y-131064000D01*
X129032000Y-130048000D02*
X129032000Y-131064000D01*
X90551000Y-122047000D02*
X91567000Y-122047000D01*
X90551000Y-123571000D02*
X91567000Y-123571000D01*
X115570000Y-124968000D02*
X116586000Y-124968000D01*
X115570000Y-126492000D02*
X116586000Y-126492000D01*
X115570000Y-126492000D02*
X116586000Y-126492000D01*
X115570000Y-128016000D02*
X116586000Y-128016000D01*
X106426000Y-104521000D02*
X106426000Y-103505000D01*
X104902000Y-104521000D02*
X104902000Y-103505000D01*
X104902000Y-104521000D02*
X104902000Y-103505000D01*
X103378000Y-104521000D02*
X103378000Y-103505000D01*
X85725000Y-113030000D02*
X86741000Y-113030000D01*
X85725000Y-110998000D02*
X86741000Y-110998000D01*
X107188000Y-91186000D02*
X107188000Y-92202000D01*
X105664000Y-91186000D02*
X105664000Y-92202000D01*
X110236000Y-103378000D02*
X110236000Y-104394000D01*
X108712000Y-103378000D02*
X108712000Y-104394000D01*
X98552000Y-103505000D02*
X98552000Y-104521000D01*
X97028000Y-103505000D02*
X97028000Y-104521000D01*
X104013000Y-94996000D02*
X105029000Y-94996000D01*
X104013000Y-93472000D02*
X105029000Y-93472000D01*
X94107000Y-93853000D02*
X93091000Y-93853000D01*
X94107000Y-95377000D02*
X93091000Y-95377000D01*
X94107000Y-99060000D02*
X93091000Y-99060000D01*
X94107000Y-100584000D02*
X93091000Y-100584000D01*
X94107000Y-99060000D02*
X93091000Y-99060000D01*
X94107000Y-97536000D02*
X93091000Y-97536000D01*
X106426000Y-99441000D02*
X105410000Y-99441000D01*
X106426000Y-97917000D02*
X105410000Y-97917000D01*
X138300000Y-89924000D02*
X138300000Y-89224000D01*
X137200000Y-89924000D02*
X138300000Y-89924000D01*
X137200000Y-89224000D02*
X137200000Y-89924000D01*
X137240000Y-104894000D02*
X138300000Y-104894000D01*
X137200000Y-105024000D02*
X138300000Y-105024000D01*
X138300000Y-105024000D02*
X138300000Y-104324000D01*
X137200000Y-104324000D02*
X137200000Y-105024000D01*
X142300000Y-90404000D02*
X142300000Y-89214000D01*
X142300000Y-95224000D02*
X142300000Y-93404000D01*
X142300000Y-100154000D02*
X142300000Y-98294000D01*
X142300000Y-103414000D02*
X142300000Y-104314000D01*
X135410000Y-104324000D02*
X144690000Y-104314000D01*
X135410000Y-89224000D02*
X135410000Y-104324000D01*
X144690000Y-89214000D02*
X135410000Y-89224000D01*
X144690000Y-104314000D02*
X144690000Y-89214000D01*
X137513450Y-91794000D02*
G75*
G03X137513450Y-91794000I-523450J0D01*
G01*
X137200000Y-89444000D02*
X138300000Y-89444000D01*
X137200000Y-89624000D02*
X138290000Y-89624000D01*
X137200000Y-89874000D02*
X138300000Y-89874000D01*
X137200000Y-104524000D02*
X138300000Y-104524000D01*
X137200000Y-104764000D02*
X138300000Y-104764000D01*
X137513450Y-96784000D02*
G75*
G03X137513450Y-96784000I-523450J0D01*
G01*
X137523450Y-101774000D02*
G75*
G03X137523450Y-101774000I-523450J0D01*
G01*
X137523450Y-86774000D02*
G75*
G03X137523450Y-86774000I-523450J0D01*
G01*
X137513450Y-81784000D02*
G75*
G03X137513450Y-81784000I-523450J0D01*
G01*
X137200000Y-89764000D02*
X138300000Y-89764000D01*
X137200000Y-89524000D02*
X138300000Y-89524000D01*
X137200000Y-74874000D02*
X138300000Y-74874000D01*
X137200000Y-74624000D02*
X138290000Y-74624000D01*
X137200000Y-74444000D02*
X138300000Y-74444000D01*
X137513450Y-76794000D02*
G75*
G03X137513450Y-76794000I-523450J0D01*
G01*
X144690000Y-89314000D02*
X144690000Y-74214000D01*
X144690000Y-74214000D02*
X135410000Y-74224000D01*
X135410000Y-74224000D02*
X135410000Y-89324000D01*
X135410000Y-89324000D02*
X144690000Y-89314000D01*
X142300000Y-88414000D02*
X142300000Y-89314000D01*
X142300000Y-85154000D02*
X142300000Y-83294000D01*
X142300000Y-80224000D02*
X142300000Y-78404000D01*
X142300000Y-75404000D02*
X142300000Y-74214000D01*
X137200000Y-89324000D02*
X137200000Y-90024000D01*
X138300000Y-90024000D02*
X138300000Y-89324000D01*
X137200000Y-90024000D02*
X138300000Y-90024000D01*
X137240000Y-89894000D02*
X138300000Y-89894000D01*
X137200000Y-74224000D02*
X137200000Y-74924000D01*
X137200000Y-74924000D02*
X138300000Y-74924000D01*
X138300000Y-74924000D02*
X138300000Y-74224000D01*
X90881000Y-102068000D02*
X87681000Y-102068000D01*
X87681000Y-97068000D02*
X90881000Y-97068000D01*
X90881000Y-102068000D02*
X90881000Y-101768000D01*
X90881000Y-99868000D02*
X90881000Y-99268000D01*
X90881000Y-97368000D02*
X90881000Y-97068000D01*
X87681000Y-102068000D02*
X87681000Y-101768000D01*
X87681000Y-99868000D02*
X87681000Y-99268000D01*
X87681000Y-97368000D02*
X87681000Y-97068000D01*
X89535000Y-100076000D02*
X89535000Y-99060000D01*
X89535000Y-99060000D02*
X89027000Y-99060000D01*
X89027000Y-99060000D02*
X89027000Y-100076000D01*
X89027000Y-100076000D02*
X89535000Y-100076000D01*
X89916000Y-99895660D02*
X89916000Y-99568000D01*
X89916000Y-99568000D02*
X89916000Y-99240340D01*
X89916000Y-99568000D02*
X90297000Y-99568000D01*
X88646000Y-99895660D02*
X88646000Y-99568000D01*
X88646000Y-99568000D02*
X88646000Y-99240340D01*
X88646000Y-99568000D02*
X88265000Y-99568000D01*
X89781000Y-102058000D02*
G75*
G03X88781000Y-102058000I-500000J0D01*
G01*
X111137700Y-89623900D02*
X113157000Y-89623900D01*
X113157000Y-89623900D02*
X113157000Y-90995500D01*
X111137700Y-89623900D02*
X111137700Y-90995500D01*
X111150400Y-95275400D02*
X113144300Y-95275400D01*
X113157000Y-95250000D02*
X113157000Y-93954600D01*
X111150400Y-95262700D02*
X111150400Y-93967300D01*
X112128300Y-91211400D02*
X112128300Y-93687900D01*
X113080800Y-91795600D02*
X112166400Y-93167200D01*
X112166400Y-93167200D02*
X111175800Y-91795600D01*
X113080800Y-93167200D02*
X111175800Y-93167200D01*
X113080800Y-91795600D02*
X111175800Y-91795600D01*
D19*
X121981000Y-128221000D02*
X121981000Y-125221000D01*
D11*
X123530360Y-128348740D02*
X118531640Y-128348740D01*
X118531640Y-125143260D02*
X123530360Y-125143260D01*
X120396000Y-126111000D02*
X120396000Y-127381000D01*
X120396000Y-127381000D02*
X121412000Y-126746000D01*
X120396000Y-126111000D02*
X121412000Y-126746000D01*
X121412000Y-126111000D02*
X121412000Y-127381000D01*
X111137700Y-72351900D02*
X113157000Y-72351900D01*
X113157000Y-72351900D02*
X113157000Y-73723500D01*
X111137700Y-72351900D02*
X111137700Y-73723500D01*
X111150400Y-78003400D02*
X113144300Y-78003400D01*
X113157000Y-77978000D02*
X113157000Y-76682600D01*
X111150400Y-77990700D02*
X111150400Y-76695300D01*
X112128300Y-73939400D02*
X112128300Y-76415900D01*
X113080800Y-74523600D02*
X112166400Y-75895200D01*
X112166400Y-75895200D02*
X111175800Y-74523600D01*
X113080800Y-75895200D02*
X111175800Y-75895200D01*
X113080800Y-74523600D02*
X111175800Y-74523600D01*
X126191000Y-119960000D02*
X123491000Y-119960000D01*
X126191000Y-123150000D02*
X126191000Y-118150000D01*
X126191000Y-119520000D02*
X123491000Y-119520000D01*
X123491000Y-118150000D02*
X123491000Y-123150000D01*
X106972100Y-133870700D02*
X106972100Y-135890000D01*
X106972100Y-135890000D02*
X105600500Y-135890000D01*
X106972100Y-133870700D02*
X105600500Y-133870700D01*
X101320600Y-133883400D02*
X101320600Y-135877300D01*
X101346000Y-135890000D02*
X102641400Y-135890000D01*
X101333300Y-133883400D02*
X102628700Y-133883400D01*
X105384600Y-134861300D02*
X102908100Y-134861300D01*
X104800400Y-135813800D02*
X103428800Y-134899400D01*
X103428800Y-134899400D02*
X104800400Y-133908800D01*
X103428800Y-135813800D02*
X103428800Y-133908800D01*
X104800400Y-135813800D02*
X104800400Y-133908800D01*
X120523000Y-123647200D02*
X120523000Y-124358400D01*
X121361200Y-124358400D02*
X120523000Y-124358400D01*
X121361200Y-121513600D02*
X120523000Y-121513600D01*
X120523000Y-121513600D02*
X120523000Y-122224800D01*
D15*
X95173800Y-121920000D02*
X94335600Y-121920000D01*
X95173800Y-123698000D02*
X94335600Y-123698000D01*
X106680000Y-104063800D02*
X106680000Y-103225600D01*
X108458000Y-104063800D02*
X108458000Y-103225600D01*
X86664800Y-113030000D02*
X85826600Y-113030000D01*
X86664800Y-114808000D02*
X85826600Y-114808000D01*
X111379000Y-99110800D02*
X112395000Y-99110800D01*
X111379000Y-100279200D02*
X112395000Y-100279200D01*
X111379000Y-99110800D02*
X111379000Y-100279200D01*
X114173000Y-100279200D02*
X113157000Y-100279200D01*
X113157000Y-99060000D02*
X114173000Y-99060000D01*
D10*
X112516000Y-99695000D02*
X113036000Y-99695000D01*
X112686000Y-99585000D02*
X112686000Y-99805000D01*
X112686000Y-99585000D02*
X112796000Y-99685000D01*
X112686000Y-99805000D02*
X112786000Y-99705000D01*
X112876000Y-99585000D02*
X112876000Y-99805000D01*
D20*
X112666000Y-99445000D02*
X112796000Y-99335000D01*
X112806000Y-99315000D02*
X112726000Y-99325000D01*
X112806000Y-99315000D02*
X112806000Y-99395000D01*
X112996000Y-99315000D02*
X112996000Y-99395000D01*
X112996000Y-99315000D02*
X112916000Y-99325000D01*
X112856000Y-99445000D02*
X112986000Y-99335000D01*
D16*
X112229900Y-98831400D02*
X112776000Y-98259900D01*
X112788700Y-98259900D02*
X112369600Y-98348800D01*
X112788700Y-98272600D02*
X112737900Y-98666300D01*
X113576100Y-98272600D02*
X113525300Y-98666300D01*
X113576100Y-98259900D02*
X113157000Y-98348800D01*
X113017300Y-98831400D02*
X113563400Y-98259900D01*
D11*
X114185700Y-99123500D02*
X114338100Y-99250500D01*
X114185700Y-100215700D02*
X114325400Y-100088700D01*
X114338100Y-99250500D02*
X114338100Y-100076000D01*
X114173000Y-100177600D02*
X114173000Y-99136200D01*
X114173000Y-69316600D02*
X114173000Y-68275200D01*
X114338100Y-68389500D02*
X114338100Y-69215000D01*
X114185700Y-69354700D02*
X114325400Y-69227700D01*
X114185700Y-68262500D02*
X114338100Y-68389500D01*
D16*
X113017300Y-67970400D02*
X113563400Y-67398900D01*
X113576100Y-67398900D02*
X113157000Y-67487800D01*
X113576100Y-67411600D02*
X113525300Y-67805300D01*
X112788700Y-67411600D02*
X112737900Y-67805300D01*
X112788700Y-67398900D02*
X112369600Y-67487800D01*
X112229900Y-67970400D02*
X112776000Y-67398900D01*
D20*
X112856000Y-68584000D02*
X112986000Y-68474000D01*
X112996000Y-68454000D02*
X112916000Y-68464000D01*
X112996000Y-68454000D02*
X112996000Y-68534000D01*
X112806000Y-68454000D02*
X112806000Y-68534000D01*
X112806000Y-68454000D02*
X112726000Y-68464000D01*
X112666000Y-68584000D02*
X112796000Y-68474000D01*
D10*
X112876000Y-68724000D02*
X112876000Y-68944000D01*
X112686000Y-68944000D02*
X112786000Y-68844000D01*
X112686000Y-68724000D02*
X112796000Y-68824000D01*
X112686000Y-68724000D02*
X112686000Y-68944000D01*
X112516000Y-68834000D02*
X113036000Y-68834000D01*
D15*
X113157000Y-68199000D02*
X114173000Y-68199000D01*
X114173000Y-69418200D02*
X113157000Y-69418200D01*
X111379000Y-68249800D02*
X111379000Y-69418200D01*
X111379000Y-69418200D02*
X112395000Y-69418200D01*
X111379000Y-68249800D02*
X112395000Y-68249800D01*
D11*
X130937000Y-126921000D02*
X144437000Y-126921000D01*
X144437000Y-126921000D02*
X144437000Y-117869000D01*
X130937000Y-126921000D02*
X130937000Y-124823000D01*
X130937000Y-117868720D02*
X130937000Y-119727000D01*
X144437000Y-117869000D02*
X136737000Y-117869000D01*
X130937000Y-117869000D02*
X131637000Y-117869000D01*
X135308000Y-127405000D02*
X144398000Y-127405000D01*
X135308000Y-117395000D02*
X135308000Y-127405000D01*
X144408000Y-117395000D02*
X135308000Y-117395000D01*
X144398000Y-127405000D02*
X144408000Y-117395000D01*
X142008000Y-123865000D02*
X142008000Y-120925000D01*
X142008000Y-127405000D02*
X142008000Y-125915000D01*
X142008000Y-117395000D02*
X142008000Y-118885000D01*
X137231450Y-124895000D02*
G75*
G03X137231450Y-124895000I-523450J0D01*
G01*
X137221450Y-119905000D02*
G75*
G03X137221450Y-119905000I-523450J0D01*
G01*
X135118000Y-117395000D02*
X135118000Y-127405000D01*
X135548000Y-117395000D02*
X135118000Y-117395000D01*
X135488000Y-127405000D02*
X135118000Y-127405000D01*
X136908000Y-127405000D02*
X136908000Y-127885000D01*
X136908000Y-127885000D02*
X138008000Y-127885000D01*
X138008000Y-127885000D02*
X138008000Y-127405000D01*
X136908000Y-127645000D02*
X138008000Y-127645000D01*
X136908000Y-117395000D02*
X136908000Y-117995000D01*
X138008000Y-117995000D02*
X138008000Y-117395000D01*
X136908000Y-117995000D02*
X138008000Y-117995000D01*
X136908000Y-117745000D02*
X137998000Y-117745000D01*
X136908000Y-117565000D02*
X138008000Y-117565000D01*
D15*
X119303800Y-135128000D02*
X119303800Y-134112000D01*
X120472200Y-135128000D02*
X120472200Y-134112000D01*
X119303800Y-135128000D02*
X120472200Y-135128000D01*
X120472200Y-132334000D02*
X120472200Y-133350000D01*
X119253000Y-133350000D02*
X119253000Y-132334000D01*
D10*
X119888000Y-133991000D02*
X119888000Y-133471000D01*
X119778000Y-133821000D02*
X119998000Y-133821000D01*
X119778000Y-133821000D02*
X119878000Y-133711000D01*
X119998000Y-133821000D02*
X119898000Y-133721000D01*
X119778000Y-133631000D02*
X119998000Y-133631000D01*
D20*
X119638000Y-133841000D02*
X119528000Y-133711000D01*
X119508000Y-133701000D02*
X119518000Y-133781000D01*
X119508000Y-133701000D02*
X119588000Y-133701000D01*
X119508000Y-133511000D02*
X119588000Y-133511000D01*
X119508000Y-133511000D02*
X119518000Y-133591000D01*
X119638000Y-133651000D02*
X119528000Y-133521000D01*
D16*
X119024400Y-134277100D02*
X118452900Y-133731000D01*
X118452900Y-133718300D02*
X118541800Y-134137400D01*
X118465600Y-133718300D02*
X118859300Y-133769100D01*
X118465600Y-132930900D02*
X118859300Y-132981700D01*
X118452900Y-132930900D02*
X118541800Y-133350000D01*
X119024400Y-133489700D02*
X118452900Y-132943600D01*
D11*
X119316500Y-132321300D02*
X119443500Y-132168900D01*
X120408700Y-132321300D02*
X120281700Y-132181600D01*
X119443500Y-132168900D02*
X120269000Y-132168900D01*
X120370600Y-132334000D02*
X119329200Y-132334000D01*
X117094000Y-103200200D02*
X117094000Y-103911400D01*
X117932200Y-103911400D02*
X117094000Y-103911400D01*
X117932200Y-101066600D02*
X117094000Y-101066600D01*
X117094000Y-101066600D02*
X117094000Y-101777800D01*
X110388400Y-91567000D02*
X109677200Y-91567000D01*
X110388400Y-92405200D02*
X110388400Y-91567000D01*
X107543600Y-92405200D02*
X107543600Y-91567000D01*
X108254800Y-91567000D02*
X107543600Y-91567000D01*
X120269000Y-105918000D02*
X120269000Y-104902000D01*
X121793000Y-105918000D02*
X121793000Y-104902000D01*
X120269000Y-101727000D02*
X120269000Y-102743000D01*
X121793000Y-101727000D02*
X121793000Y-102743000D01*
X113411000Y-96520000D02*
X112395000Y-96520000D01*
X113411000Y-98044000D02*
X112395000Y-98044000D01*
X109474000Y-97409000D02*
X108458000Y-97409000D01*
X109474000Y-95885000D02*
X108458000Y-95885000D01*
X109474000Y-94361000D02*
X108458000Y-94361000D01*
X109474000Y-95885000D02*
X108458000Y-95885000D01*
X114173000Y-130937000D02*
X114173000Y-129921000D01*
X112649000Y-130937000D02*
X112649000Y-129921000D01*
X127254000Y-134493000D02*
X126238000Y-134493000D01*
X127254000Y-132969000D02*
X126238000Y-132969000D01*
X114808000Y-130937000D02*
X114808000Y-129921000D01*
X116332000Y-130937000D02*
X116332000Y-129921000D01*
X127254000Y-136017000D02*
X126238000Y-136017000D01*
X127254000Y-134493000D02*
X126238000Y-134493000D01*
X113284000Y-71247000D02*
X112268000Y-71247000D01*
X113284000Y-69723000D02*
X112268000Y-69723000D01*
X131699000Y-127635000D02*
X132715000Y-127635000D01*
X131699000Y-129159000D02*
X132715000Y-129159000D01*
X134874000Y-127635000D02*
X135890000Y-127635000D01*
X134874000Y-129159000D02*
X135890000Y-129159000D01*
X81788000Y-94996000D02*
X82804000Y-94996000D01*
X81788000Y-96520000D02*
X82804000Y-96520000D01*
X118491000Y-130937000D02*
X118491000Y-129921000D01*
X116967000Y-130937000D02*
X116967000Y-129921000D01*
X82550000Y-102997000D02*
X81534000Y-102997000D01*
X82550000Y-104521000D02*
X81534000Y-104521000D01*
X120904000Y-119634000D02*
X121920000Y-119634000D01*
X120904000Y-121158000D02*
X121920000Y-121158000D01*
X88265000Y-134747000D02*
X89281000Y-134747000D01*
X88265000Y-133223000D02*
X89281000Y-133223000D01*
X90424000Y-131572000D02*
X90424000Y-130556000D01*
X88900000Y-131572000D02*
X88900000Y-130556000D01*
X114173000Y-126492000D02*
X114173000Y-127508000D01*
X112649000Y-126492000D02*
X112649000Y-127508000D01*
X99187000Y-135636000D02*
X98171000Y-135636000D01*
X99187000Y-134112000D02*
X98171000Y-134112000D01*
X86614000Y-102616000D02*
X86614000Y-101600000D01*
X85090000Y-102616000D02*
X85090000Y-101600000D01*
X90932000Y-72898000D02*
X90932000Y-71882000D01*
X92456000Y-72898000D02*
X92456000Y-71882000D01*
X113411000Y-84455000D02*
X113411000Y-85471000D01*
X111887000Y-84455000D02*
X111887000Y-85471000D01*
X97790000Y-91186000D02*
X97790000Y-92202000D01*
X99314000Y-91186000D02*
X99314000Y-92202000D01*
X86741000Y-116586000D02*
X85725000Y-116586000D01*
X86741000Y-115062000D02*
X85725000Y-115062000D01*
X97028000Y-91186000D02*
X97028000Y-92202000D01*
X95504000Y-91186000D02*
X95504000Y-92202000D01*
X101600000Y-91186000D02*
X101600000Y-92202000D01*
X103124000Y-91186000D02*
X103124000Y-92202000D01*
X100838000Y-91186000D02*
X100838000Y-92202000D01*
X99314000Y-91186000D02*
X99314000Y-92202000D01*
X88773000Y-102616000D02*
X89789000Y-102616000D01*
X88773000Y-104140000D02*
X89789000Y-104140000D01*
X108712000Y-122047000D02*
X109728000Y-122047000D01*
X108712000Y-123571000D02*
X109728000Y-123571000D01*
X88265000Y-96520000D02*
X89281000Y-96520000D01*
X88265000Y-94996000D02*
X89281000Y-94996000D01*
X105410000Y-99441000D02*
X106426000Y-99441000D01*
X105410000Y-100965000D02*
X106426000Y-100965000D01*
X94107000Y-92329000D02*
X93091000Y-92329000D01*
X94107000Y-93853000D02*
X93091000Y-93853000D01*
X108712000Y-120523000D02*
X109728000Y-120523000D01*
X108712000Y-122047000D02*
X109728000Y-122047000D01*
X95377000Y-116205000D02*
X94361000Y-116205000D01*
X95377000Y-117729000D02*
X94361000Y-117729000D01*
X87198200Y-103924100D02*
X84251800Y-103924100D01*
X87198200Y-103936800D02*
X87198200Y-104114600D01*
X84251800Y-103911400D02*
X84251800Y-104127300D01*
X87198200Y-107734100D02*
X87198200Y-107924600D01*
X87198200Y-107924600D02*
X84251800Y-107924600D01*
X84251800Y-107924600D02*
X84251800Y-107708700D01*
X92621100Y-102539800D02*
X92621100Y-105486200D01*
X92633800Y-102539800D02*
X92811600Y-102539800D01*
X92608400Y-105486200D02*
X92824300Y-105486200D01*
X96431100Y-102539800D02*
X96621600Y-102539800D01*
X96621600Y-102539800D02*
X96621600Y-105486200D01*
X96621600Y-105486200D02*
X96405700Y-105486200D01*
X98958400Y-102539800D02*
X99174300Y-102539800D01*
X98958400Y-105486200D02*
X98958400Y-102539800D01*
X99148900Y-105486200D02*
X98958400Y-105486200D01*
X102971600Y-102539800D02*
X102755700Y-102539800D01*
X102946200Y-105486200D02*
X102768400Y-105486200D01*
X102958900Y-105486200D02*
X102958900Y-102539800D01*
X115430300Y-116916200D02*
X115430300Y-118046500D01*
X118237000Y-116916200D02*
X118237000Y-118046500D01*
X107696000Y-141224000D02*
X107950000Y-141478000D01*
X107442000Y-141478000D02*
X107696000Y-141224000D01*
X104902000Y-141478000D02*
X102870000Y-141478000D01*
X105156000Y-141224000D02*
X104902000Y-141478000D01*
X105410000Y-141478000D02*
X105156000Y-141224000D01*
X107442000Y-141478000D02*
X105410000Y-141478000D01*
X102870000Y-141478000D02*
X102616000Y-141224000D01*
X102616000Y-136652000D02*
X102870000Y-136398000D01*
X109982000Y-141478000D02*
X107950000Y-141478000D01*
X110236000Y-141224000D02*
X109982000Y-141478000D01*
X113030000Y-141478000D02*
X112776000Y-141224000D01*
X112522000Y-141478000D02*
X110490000Y-141478000D01*
X112776000Y-141224000D02*
X112522000Y-141478000D01*
X112522000Y-136398000D02*
X112776000Y-136652000D01*
X110490000Y-136398000D02*
X112522000Y-136398000D01*
X110236000Y-136652000D02*
X110490000Y-136398000D01*
X109982000Y-136398000D02*
X110236000Y-136652000D01*
X107950000Y-136398000D02*
X109982000Y-136398000D01*
X107696000Y-136652000D02*
X107950000Y-136398000D01*
X107442000Y-136398000D02*
X107696000Y-136652000D01*
X105410000Y-136398000D02*
X107442000Y-136398000D01*
X105156000Y-136652000D02*
X105410000Y-136398000D01*
X104902000Y-136398000D02*
X105156000Y-136652000D01*
X102870000Y-136398000D02*
X104902000Y-136398000D01*
X112776000Y-136652000D02*
X113030000Y-136398000D01*
X113030000Y-136398000D02*
X115062000Y-136398000D01*
X117602000Y-136398000D02*
X117856000Y-136652000D01*
X115062000Y-141478000D02*
X113030000Y-141478000D01*
X110490000Y-141478000D02*
X110236000Y-141224000D01*
X117856000Y-141224000D02*
X117602000Y-141478000D01*
X115570000Y-136398000D02*
X117602000Y-136398000D01*
X115316000Y-136652000D02*
X115570000Y-136398000D01*
X117602000Y-141478000D02*
X115570000Y-141478000D01*
X115316000Y-141224000D02*
X115062000Y-141478000D01*
X115570000Y-141478000D02*
X115316000Y-141224000D01*
X115062000Y-136398000D02*
X115316000Y-136652000D01*
X117602000Y-136398000D02*
X117856000Y-136652000D01*
X117856000Y-141224000D02*
X117602000Y-141478000D01*
X117602000Y-141478000D02*
X115570000Y-141478000D01*
X115570000Y-136398000D02*
X117602000Y-136398000D01*
X115316000Y-136652000D02*
X115570000Y-136398000D01*
X115570000Y-141478000D02*
X115316000Y-141224000D01*
X120650000Y-141478000D02*
X120396000Y-141224000D01*
X120396000Y-136652000D02*
X120650000Y-136398000D01*
X120650000Y-136398000D02*
X122682000Y-136398000D01*
X122682000Y-141478000D02*
X120650000Y-141478000D01*
X122936000Y-141224000D02*
X122682000Y-141478000D01*
X122682000Y-136398000D02*
X122936000Y-136652000D01*
X120142000Y-136398000D02*
X120396000Y-136652000D01*
X120650000Y-141478000D02*
X120396000Y-141224000D01*
X120396000Y-141224000D02*
X120142000Y-141478000D01*
X122682000Y-141478000D02*
X120650000Y-141478000D01*
X120396000Y-136652000D02*
X120650000Y-136398000D01*
X120650000Y-136398000D02*
X122682000Y-136398000D01*
X122936000Y-141224000D02*
X122682000Y-141478000D01*
X120142000Y-141478000D02*
X118110000Y-141478000D01*
X122682000Y-136398000D02*
X122936000Y-136652000D01*
X118110000Y-136398000D02*
X120142000Y-136398000D01*
X117856000Y-136652000D02*
X118110000Y-136398000D01*
X118110000Y-141478000D02*
X117856000Y-141224000D01*
X123190000Y-141478000D02*
X122936000Y-141224000D01*
X122936000Y-136652000D02*
X123190000Y-136398000D01*
X123190000Y-136398000D02*
X125222000Y-136398000D01*
X127762000Y-136398000D02*
X128016000Y-136652000D01*
X125222000Y-141478000D02*
X123190000Y-141478000D01*
X128016000Y-141224000D02*
X127762000Y-141478000D01*
X128016000Y-139192000D02*
X128016000Y-141224000D01*
X125730000Y-136398000D02*
X127762000Y-136398000D01*
X125476000Y-136652000D02*
X125730000Y-136398000D01*
X127762000Y-141478000D02*
X125730000Y-141478000D01*
X125476000Y-141224000D02*
X125222000Y-141478000D01*
X125730000Y-141478000D02*
X125476000Y-141224000D01*
X125222000Y-136398000D02*
X125476000Y-136652000D01*
X127762000Y-136398000D02*
X128016000Y-136652000D01*
X128016000Y-141224000D02*
X127762000Y-141478000D01*
X127762000Y-141478000D02*
X125730000Y-141478000D01*
X125730000Y-136398000D02*
X127762000Y-136398000D01*
X125476000Y-136652000D02*
X125730000Y-136398000D01*
X125730000Y-141478000D02*
X125476000Y-141224000D01*
X128016000Y-136652000D02*
X128016000Y-139065000D01*
X77216000Y-136398000D02*
X77216000Y-138938000D01*
X100330000Y-141478000D02*
X100076000Y-141224000D01*
X100076000Y-136652000D02*
X100330000Y-136398000D01*
X100330000Y-136398000D02*
X102362000Y-136398000D01*
X102362000Y-141478000D02*
X100330000Y-141478000D01*
X102616000Y-141224000D02*
X102362000Y-141478000D01*
X102362000Y-136398000D02*
X102616000Y-136652000D01*
X99822000Y-136398000D02*
X100076000Y-136652000D01*
X100330000Y-141478000D02*
X100076000Y-141224000D01*
X100076000Y-141224000D02*
X99822000Y-141478000D01*
X102362000Y-141478000D02*
X100330000Y-141478000D01*
X100076000Y-136652000D02*
X100330000Y-136398000D01*
X100330000Y-136398000D02*
X102362000Y-136398000D01*
X102616000Y-141224000D02*
X102362000Y-141478000D01*
X99822000Y-141478000D02*
X97790000Y-141478000D01*
X102362000Y-136398000D02*
X102616000Y-136652000D01*
X97790000Y-136398000D02*
X99822000Y-136398000D01*
X97536000Y-136652000D02*
X97790000Y-136398000D01*
X97790000Y-141478000D02*
X97536000Y-141224000D01*
X92710000Y-141478000D02*
X92456000Y-141224000D01*
X92456000Y-136652000D02*
X92710000Y-136398000D01*
X92710000Y-136398000D02*
X94742000Y-136398000D01*
X97282000Y-136398000D02*
X97536000Y-136652000D01*
X94742000Y-141478000D02*
X92710000Y-141478000D01*
X97536000Y-141224000D02*
X97282000Y-141478000D01*
X95250000Y-136398000D02*
X97282000Y-136398000D01*
X94996000Y-136652000D02*
X95250000Y-136398000D01*
X97282000Y-141478000D02*
X95250000Y-141478000D01*
X94996000Y-141224000D02*
X94742000Y-141478000D01*
X95250000Y-141478000D02*
X94996000Y-141224000D01*
X94742000Y-136398000D02*
X94996000Y-136652000D01*
X97282000Y-136398000D02*
X97536000Y-136652000D01*
X97536000Y-141224000D02*
X97282000Y-141478000D01*
X97282000Y-141478000D02*
X95250000Y-141478000D01*
X95250000Y-136398000D02*
X97282000Y-136398000D01*
X94996000Y-136652000D02*
X95250000Y-136398000D01*
X95250000Y-141478000D02*
X94996000Y-141224000D01*
X90170000Y-141478000D02*
X89916000Y-141224000D01*
X89916000Y-136652000D02*
X90170000Y-136398000D01*
X90170000Y-136398000D02*
X92202000Y-136398000D01*
X92202000Y-141478000D02*
X90170000Y-141478000D01*
X92456000Y-141224000D02*
X92202000Y-141478000D01*
X92202000Y-136398000D02*
X92456000Y-136652000D01*
X89662000Y-136398000D02*
X89916000Y-136652000D01*
X90170000Y-141478000D02*
X89916000Y-141224000D01*
X89916000Y-141224000D02*
X89662000Y-141478000D01*
X92202000Y-141478000D02*
X90170000Y-141478000D01*
X89916000Y-136652000D02*
X90170000Y-136398000D01*
X90170000Y-136398000D02*
X92202000Y-136398000D01*
X92456000Y-141224000D02*
X92202000Y-141478000D01*
X85090000Y-141478000D02*
X84836000Y-141224000D01*
X89662000Y-141478000D02*
X87630000Y-141478000D01*
X92202000Y-136398000D02*
X92456000Y-136652000D01*
X87630000Y-136398000D02*
X89662000Y-136398000D01*
X87376000Y-136652000D02*
X87630000Y-136398000D01*
X77216000Y-136398000D02*
X77470000Y-136398000D01*
X77470000Y-136398000D02*
X79502000Y-136398000D01*
X79502000Y-136398000D02*
X79756000Y-136652000D01*
X79756000Y-136652000D02*
X80010000Y-136398000D01*
X80010000Y-136398000D02*
X82042000Y-136398000D01*
X82042000Y-136398000D02*
X82296000Y-136652000D01*
X82296000Y-136652000D02*
X82550000Y-136398000D01*
X82550000Y-136398000D02*
X84582000Y-136398000D01*
X84582000Y-136398000D02*
X84836000Y-136652000D01*
X84836000Y-136652000D02*
X85090000Y-136398000D01*
X85090000Y-136398000D02*
X87122000Y-136398000D01*
X87122000Y-136398000D02*
X87376000Y-136652000D01*
X87376000Y-141224000D02*
X87122000Y-141478000D01*
X87122000Y-141478000D02*
X85090000Y-141478000D01*
X87630000Y-141478000D02*
X87376000Y-141224000D01*
X84836000Y-141224000D02*
X84582000Y-141478000D01*
X84582000Y-141478000D02*
X82550000Y-141478000D01*
X77216000Y-136652000D02*
X77470000Y-136398000D01*
X77470000Y-141478000D02*
X77216000Y-141224000D01*
X77724000Y-141478000D02*
X77216000Y-141478000D01*
X82042000Y-141478000D02*
X80010000Y-141478000D01*
X80010000Y-141478000D02*
X79756000Y-141224000D01*
X79756000Y-141224000D02*
X79502000Y-141478000D01*
X79502000Y-141478000D02*
X77724000Y-141478000D01*
X82042000Y-141478000D02*
X82296000Y-141224000D01*
X82296000Y-141224000D02*
X82550000Y-141478000D01*
X77216000Y-138938000D02*
X77216000Y-141478000D01*
X86741000Y-110998000D02*
X85725000Y-110998000D01*
X86741000Y-109474000D02*
X85725000Y-109474000D01*
X76484000Y-96555000D02*
X76484000Y-97755000D01*
X76484000Y-97755000D02*
X73884000Y-97755000D01*
X73884000Y-96555000D02*
X73884000Y-97755000D01*
X76484000Y-96555000D02*
X73884000Y-96555000D01*
X72284000Y-99255000D02*
X78084000Y-99255000D01*
X72284000Y-95055000D02*
X72284000Y-99255000D01*
X78084000Y-95055000D02*
X72284000Y-95055000D01*
X78084000Y-99255000D02*
X78084000Y-95055000D01*
X76484000Y-102397000D02*
X76484000Y-103597000D01*
X76484000Y-103597000D02*
X73884000Y-103597000D01*
X73884000Y-102397000D02*
X73884000Y-103597000D01*
X76484000Y-102397000D02*
X73884000Y-102397000D01*
X72284000Y-105097000D02*
X78084000Y-105097000D01*
X72284000Y-100897000D02*
X72284000Y-105097000D01*
X78084000Y-100897000D02*
X72284000Y-100897000D01*
X78084000Y-105097000D02*
X78084000Y-100897000D01*
X93218000Y-85979000D02*
X93218000Y-84455000D01*
X90932000Y-85979000D02*
X90932000Y-84455000D01*
X93218000Y-76835000D02*
X93218000Y-78359000D01*
X90932000Y-76835000D02*
X90932000Y-78359000D01*
X116052600Y-132334000D02*
X115011200Y-132334000D01*
X115125500Y-132168900D02*
X115951000Y-132168900D01*
X116090700Y-132321300D02*
X115963700Y-132181600D01*
X114998500Y-132321300D02*
X115125500Y-132168900D01*
D16*
X114706400Y-133489700D02*
X114134900Y-132943600D01*
X114134900Y-132930900D02*
X114223800Y-133350000D01*
X114147600Y-132930900D02*
X114541300Y-132981700D01*
X114147600Y-133718300D02*
X114541300Y-133769100D01*
X114134900Y-133718300D02*
X114223800Y-134137400D01*
X114706400Y-134277100D02*
X114134900Y-133731000D01*
D20*
X115320000Y-133651000D02*
X115210000Y-133521000D01*
X115190000Y-133511000D02*
X115200000Y-133591000D01*
X115190000Y-133511000D02*
X115270000Y-133511000D01*
X115190000Y-133701000D02*
X115270000Y-133701000D01*
X115190000Y-133701000D02*
X115200000Y-133781000D01*
X115320000Y-133841000D02*
X115210000Y-133711000D01*
D10*
X115460000Y-133631000D02*
X115680000Y-133631000D01*
X115680000Y-133821000D02*
X115580000Y-133721000D01*
X115460000Y-133821000D02*
X115560000Y-133711000D01*
X115460000Y-133821000D02*
X115680000Y-133821000D01*
X115570000Y-133991000D02*
X115570000Y-133471000D01*
D15*
X114935000Y-133350000D02*
X114935000Y-132334000D01*
X116154200Y-132334000D02*
X116154200Y-133350000D01*
X114985800Y-135128000D02*
X116154200Y-135128000D01*
X116154200Y-135128000D02*
X116154200Y-134112000D01*
X114985800Y-135128000D02*
X114985800Y-134112000D01*
D11*
X113893600Y-132334000D02*
X112852200Y-132334000D01*
X112966500Y-132168900D02*
X113792000Y-132168900D01*
X113931700Y-132321300D02*
X113804700Y-132181600D01*
X112839500Y-132321300D02*
X112966500Y-132168900D01*
D16*
X112547400Y-133489700D02*
X111975900Y-132943600D01*
X111975900Y-132930900D02*
X112064800Y-133350000D01*
X111988600Y-132930900D02*
X112382300Y-132981700D01*
X111988600Y-133718300D02*
X112382300Y-133769100D01*
X111975900Y-133718300D02*
X112064800Y-134137400D01*
X112547400Y-134277100D02*
X111975900Y-133731000D01*
D20*
X113161000Y-133651000D02*
X113051000Y-133521000D01*
X113031000Y-133511000D02*
X113041000Y-133591000D01*
X113031000Y-133511000D02*
X113111000Y-133511000D01*
X113031000Y-133701000D02*
X113111000Y-133701000D01*
X113031000Y-133701000D02*
X113041000Y-133781000D01*
X113161000Y-133841000D02*
X113051000Y-133711000D01*
D10*
X113301000Y-133631000D02*
X113521000Y-133631000D01*
X113521000Y-133821000D02*
X113421000Y-133721000D01*
X113301000Y-133821000D02*
X113401000Y-133711000D01*
X113301000Y-133821000D02*
X113521000Y-133821000D01*
X113411000Y-133991000D02*
X113411000Y-133471000D01*
D15*
X112776000Y-133350000D02*
X112776000Y-132334000D01*
X113995200Y-132334000D02*
X113995200Y-133350000D01*
X112826800Y-135128000D02*
X113995200Y-135128000D01*
X113995200Y-135128000D02*
X113995200Y-134112000D01*
X112826800Y-135128000D02*
X112826800Y-134112000D01*
D11*
X95377000Y-115062000D02*
X94361000Y-115062000D01*
X95377000Y-113538000D02*
X94361000Y-113538000D01*
X109855000Y-115062000D02*
X110871000Y-115062000D01*
X109855000Y-113538000D02*
X110871000Y-113538000D01*
X95377000Y-121920000D02*
X94361000Y-121920000D01*
X95377000Y-120396000D02*
X94361000Y-120396000D01*
X108712000Y-120015000D02*
X109728000Y-120015000D01*
X108712000Y-118491000D02*
X109728000Y-118491000D01*
X121920000Y-109982000D02*
X121920000Y-110998000D01*
X120396000Y-109982000D02*
X120396000Y-110998000D01*
X121920000Y-109982000D02*
X121920000Y-110998000D01*
X123444000Y-109982000D02*
X123444000Y-110998000D01*
X72009000Y-128905000D02*
X73025000Y-128905000D01*
X72009000Y-127381000D02*
X73025000Y-127381000D01*
X80264000Y-100711000D02*
X80264000Y-99695000D01*
X78740000Y-100711000D02*
X78740000Y-99695000D01*
X129493000Y-123150000D02*
X129493000Y-118150000D01*
X126793000Y-121780000D02*
X129493000Y-121780000D01*
X126793000Y-118150000D02*
X126793000Y-123150000D01*
X126793000Y-121340000D02*
X129493000Y-121340000D01*
X127076200Y-127254000D02*
X127787400Y-127254000D01*
X127787400Y-126415800D02*
X127787400Y-127254000D01*
X124942600Y-126415800D02*
X124942600Y-127254000D01*
X124942600Y-127254000D02*
X125653800Y-127254000D01*
X118211600Y-132334000D02*
X117170200Y-132334000D01*
X117284500Y-132168900D02*
X118110000Y-132168900D01*
X118249700Y-132321300D02*
X118122700Y-132181600D01*
X117157500Y-132321300D02*
X117284500Y-132168900D01*
D16*
X116865400Y-133489700D02*
X116293900Y-132943600D01*
X116293900Y-132930900D02*
X116382800Y-133350000D01*
X116306600Y-132930900D02*
X116700300Y-132981700D01*
X116306600Y-133718300D02*
X116700300Y-133769100D01*
X116293900Y-133718300D02*
X116382800Y-134137400D01*
X116865400Y-134277100D02*
X116293900Y-133731000D01*
D20*
X117479000Y-133651000D02*
X117369000Y-133521000D01*
X117349000Y-133511000D02*
X117359000Y-133591000D01*
X117349000Y-133511000D02*
X117429000Y-133511000D01*
X117349000Y-133701000D02*
X117429000Y-133701000D01*
X117349000Y-133701000D02*
X117359000Y-133781000D01*
X117479000Y-133841000D02*
X117369000Y-133711000D01*
D10*
X117619000Y-133631000D02*
X117839000Y-133631000D01*
X117839000Y-133821000D02*
X117739000Y-133721000D01*
X117619000Y-133821000D02*
X117719000Y-133711000D01*
X117619000Y-133821000D02*
X117839000Y-133821000D01*
X117729000Y-133991000D02*
X117729000Y-133471000D01*
D15*
X117094000Y-133350000D02*
X117094000Y-132334000D01*
X118313200Y-132334000D02*
X118313200Y-133350000D01*
X117144800Y-135128000D02*
X118313200Y-135128000D01*
X118313200Y-135128000D02*
X118313200Y-134112000D01*
X117144800Y-135128000D02*
X117144800Y-134112000D01*
D16*
X97663000Y-110744000D02*
X97663000Y-111125000D01*
X97663000Y-114046000D02*
X97663000Y-113665000D01*
X107569000Y-114046000D02*
X107569000Y-113665000D01*
X107569000Y-110744000D02*
X107569000Y-111125000D01*
X108331000Y-109855000D02*
X108331000Y-111125000D01*
X108331000Y-114935000D02*
X108331000Y-113665000D01*
X96901000Y-114935000D02*
X96901000Y-113665000D01*
X96901000Y-109855000D02*
X96901000Y-111125000D01*
X97663000Y-114046000D02*
X98298000Y-114681000D01*
X98298000Y-114681000D02*
X106934000Y-114681000D01*
X106934000Y-114681000D02*
X107569000Y-114046000D01*
X107569000Y-110744000D02*
X106934000Y-110109000D01*
X106934000Y-110109000D02*
X98298000Y-110109000D01*
X98298000Y-110109000D02*
X97663000Y-110744000D01*
X108331000Y-114935000D02*
X96901000Y-114935000D01*
X96901000Y-109855000D02*
X108331000Y-109855000D01*
D11*
X90297000Y-116916200D02*
X90297000Y-117627400D01*
X91135200Y-117627400D02*
X90297000Y-117627400D01*
X91135200Y-114782600D02*
X90297000Y-114782600D01*
X90297000Y-114782600D02*
X90297000Y-115493800D01*
X90170000Y-120472200D02*
X90170000Y-121183400D01*
X91008200Y-121183400D02*
X90170000Y-121183400D01*
X91008200Y-118338600D02*
X90170000Y-118338600D01*
X90170000Y-118338600D02*
X90170000Y-119049800D01*
X83058000Y-131775200D02*
X83058000Y-132486400D01*
X83896200Y-132486400D02*
X83058000Y-132486400D01*
X83896200Y-129641600D02*
X83058000Y-129641600D01*
X83058000Y-129641600D02*
X83058000Y-130352800D01*
X128270000Y-125984000D02*
X128270000Y-127000000D01*
X129794000Y-125984000D02*
X129794000Y-127000000D01*
X95377000Y-119507000D02*
X94361000Y-119507000D01*
X95377000Y-117983000D02*
X94361000Y-117983000D01*
X82804000Y-96520000D02*
X81788000Y-96520000D01*
X82804000Y-98044000D02*
X81788000Y-98044000D01*
X81788000Y-99568000D02*
X82804000Y-99568000D01*
X81788000Y-98044000D02*
X82804000Y-98044000D01*
X135382000Y-112014000D02*
X135382000Y-113538000D01*
X133096000Y-112014000D02*
X133096000Y-113538000D01*
X128778000Y-107315000D02*
X127762000Y-107315000D01*
X128778000Y-105791000D02*
X127762000Y-105791000D01*
X128778000Y-104267000D02*
X127762000Y-104267000D01*
X128778000Y-105791000D02*
X127762000Y-105791000D01*
X121412000Y-108712000D02*
X122428000Y-108712000D01*
X121412000Y-107188000D02*
X122428000Y-107188000D01*
X121412000Y-112141000D02*
X122428000Y-112141000D01*
X121412000Y-113665000D02*
X122428000Y-113665000D01*
X117856000Y-109982000D02*
X117856000Y-110998000D01*
X119380000Y-109982000D02*
X119380000Y-110998000D01*
X73533000Y-131572000D02*
X72009000Y-131572000D01*
X73533000Y-129286000D02*
X72009000Y-129286000D01*
X85725000Y-98298000D02*
X85725000Y-97282000D01*
X84201000Y-98298000D02*
X84201000Y-97282000D01*
X88900000Y-130556000D02*
X88900000Y-131572000D01*
X87376000Y-130556000D02*
X87376000Y-131572000D01*
X85852000Y-130556000D02*
X85852000Y-131572000D01*
X87376000Y-130556000D02*
X87376000Y-131572000D01*
X119126000Y-130937000D02*
X119126000Y-129921000D01*
X120650000Y-130937000D02*
X120650000Y-129921000D01*
X114046000Y-115062000D02*
X113030000Y-115062000D01*
X114046000Y-116586000D02*
X113030000Y-116586000D01*
X114046000Y-115062000D02*
X113030000Y-115062000D01*
X114046000Y-113538000D02*
X113030000Y-113538000D01*
X123190000Y-116586000D02*
X123190000Y-115570000D01*
X121158000Y-116586000D02*
X121158000Y-115570000D01*
X119126000Y-116586000D02*
X119126000Y-115570000D01*
X121158000Y-116586000D02*
X121158000Y-115570000D01*
X87757000Y-120777000D02*
X86741000Y-120777000D01*
X87757000Y-119253000D02*
X86741000Y-119253000D01*
X82245200Y-102628700D02*
X83375500Y-102628700D01*
X82245200Y-99822000D02*
X83375500Y-99822000D01*
X86360000Y-124561600D02*
X87147400Y-124561600D01*
X87147400Y-124561600D02*
X87147400Y-125222000D01*
X87147400Y-126746000D02*
X87147400Y-127406400D01*
X87147400Y-127406400D02*
X86360000Y-127406400D01*
X85826600Y-125780800D02*
X85826600Y-126187200D01*
X86360000Y-121259600D02*
X87147400Y-121259600D01*
X87147400Y-121259600D02*
X87147400Y-121920000D01*
X87147400Y-123444000D02*
X87147400Y-124104400D01*
X87147400Y-124104400D02*
X86360000Y-124104400D01*
X85826600Y-122478800D02*
X85826600Y-122885200D01*
X82677000Y-122809000D02*
X82677000Y-123825000D01*
X84201000Y-122809000D02*
X84201000Y-123825000D01*
D21*
X129038047Y-133256261D02*
X129038047Y-133770309D01*
X129068285Y-133830785D01*
X129098523Y-133861023D01*
X129159000Y-133891261D01*
X129279952Y-133891261D01*
X129340428Y-133861023D01*
X129370666Y-133830785D01*
X129400904Y-133770309D01*
X129400904Y-133256261D01*
X129673047Y-133861023D02*
X129763761Y-133891261D01*
X129914952Y-133891261D01*
X129975428Y-133861023D01*
X130005666Y-133830785D01*
X130035904Y-133770309D01*
X130035904Y-133709833D01*
X130005666Y-133649357D01*
X129975428Y-133619119D01*
X129914952Y-133588880D01*
X129794000Y-133558642D01*
X129733523Y-133528404D01*
X129703285Y-133498166D01*
X129673047Y-133437690D01*
X129673047Y-133377214D01*
X129703285Y-133316738D01*
X129733523Y-133286500D01*
X129794000Y-133256261D01*
X129945190Y-133256261D01*
X130035904Y-133286500D01*
X130519714Y-133558642D02*
X130610428Y-133588880D01*
X130640666Y-133619119D01*
X130670904Y-133679595D01*
X130670904Y-133770309D01*
X130640666Y-133830785D01*
X130610428Y-133861023D01*
X130549952Y-133891261D01*
X130308047Y-133891261D01*
X130308047Y-133256261D01*
X130519714Y-133256261D01*
X130580190Y-133286500D01*
X130610428Y-133316738D01*
X130640666Y-133377214D01*
X130640666Y-133437690D01*
X130610428Y-133498166D01*
X130580190Y-133528404D01*
X130519714Y-133558642D01*
X130308047Y-133558642D01*
X130943047Y-133649357D02*
X131426857Y-133649357D01*
X131729238Y-133256261D02*
X131729238Y-133770309D01*
X131759476Y-133830785D01*
X131789714Y-133861023D01*
X131850190Y-133891261D01*
X131971142Y-133891261D01*
X132031619Y-133861023D01*
X132061857Y-133830785D01*
X132092095Y-133770309D01*
X132092095Y-133256261D01*
X132364238Y-133709833D02*
X132666619Y-133709833D01*
X132303761Y-133891261D02*
X132515428Y-133256261D01*
X132727095Y-133891261D01*
X133301619Y-133891261D02*
X133089952Y-133588880D01*
X132938761Y-133891261D02*
X132938761Y-133256261D01*
X133180666Y-133256261D01*
X133241142Y-133286500D01*
X133271380Y-133316738D01*
X133301619Y-133377214D01*
X133301619Y-133467928D01*
X133271380Y-133528404D01*
X133241142Y-133558642D01*
X133180666Y-133588880D01*
X132938761Y-133588880D01*
X133483047Y-133256261D02*
X133845904Y-133256261D01*
X133664476Y-133891261D02*
X133664476Y-133256261D01*
X134390190Y-133891261D02*
X134027333Y-133891261D01*
X134208761Y-133891261D02*
X134208761Y-133256261D01*
X134148285Y-133346976D01*
X134087809Y-133407452D01*
X134027333Y-133437690D01*
D16*
D22*
X129467428Y-129122714D02*
X129467428Y-129739571D01*
X129503714Y-129812142D01*
X129540000Y-129848428D01*
X129612571Y-129884714D01*
X129757714Y-129884714D01*
X129830285Y-129848428D01*
X129866571Y-129812142D01*
X129902857Y-129739571D01*
X129902857Y-129122714D01*
X130664857Y-129884714D02*
X130229428Y-129884714D01*
X130447142Y-129884714D02*
X130447142Y-129122714D01*
X130374571Y-129231571D01*
X130302000Y-129304142D01*
X130229428Y-129340428D01*
D11*
X124828904Y-106123619D02*
X124828904Y-106946095D01*
X124877285Y-107042857D01*
X124925666Y-107091238D01*
X125022428Y-107139619D01*
X125215952Y-107139619D01*
X125312714Y-107091238D01*
X125361095Y-107042857D01*
X125409476Y-106946095D01*
X125409476Y-106123619D01*
X126328714Y-106123619D02*
X126135190Y-106123619D01*
X126038428Y-106172000D01*
X125990047Y-106220380D01*
X125893285Y-106365523D01*
X125844904Y-106559047D01*
X125844904Y-106946095D01*
X125893285Y-107042857D01*
X125941666Y-107091238D01*
X126038428Y-107139619D01*
X126231952Y-107139619D01*
X126328714Y-107091238D01*
X126377095Y-107042857D01*
X126425476Y-106946095D01*
X126425476Y-106704190D01*
X126377095Y-106607428D01*
X126328714Y-106559047D01*
X126231952Y-106510666D01*
X126038428Y-106510666D01*
X125941666Y-106559047D01*
X125893285Y-106607428D01*
X125844904Y-106704190D01*
D22*
X128850208Y-112432737D02*
X128886494Y-112323880D01*
X128886494Y-112142451D01*
X128850208Y-112069880D01*
X128813922Y-112033594D01*
X128741351Y-111997308D01*
X128668780Y-111997308D01*
X128596208Y-112033594D01*
X128559922Y-112069880D01*
X128523637Y-112142451D01*
X128487351Y-112287594D01*
X128451065Y-112360165D01*
X128414780Y-112396451D01*
X128342208Y-112432737D01*
X128269637Y-112432737D01*
X128197065Y-112396451D01*
X128160780Y-112360165D01*
X128124494Y-112287594D01*
X128124494Y-112106165D01*
X128160780Y-111997308D01*
X128124494Y-111525594D02*
X128124494Y-111380451D01*
X128160780Y-111307880D01*
X128233351Y-111235308D01*
X128378494Y-111199022D01*
X128632494Y-111199022D01*
X128777637Y-111235308D01*
X128850208Y-111307880D01*
X128886494Y-111380451D01*
X128886494Y-111525594D01*
X128850208Y-111598165D01*
X128777637Y-111670737D01*
X128632494Y-111707022D01*
X128378494Y-111707022D01*
X128233351Y-111670737D01*
X128160780Y-111598165D01*
X128124494Y-111525594D01*
X128886494Y-110872451D02*
X128124494Y-110872451D01*
X128813922Y-110074165D02*
X128850208Y-110110451D01*
X128886494Y-110219308D01*
X128886494Y-110291880D01*
X128850208Y-110400737D01*
X128777637Y-110473308D01*
X128705065Y-110509594D01*
X128559922Y-110545880D01*
X128451065Y-110545880D01*
X128305922Y-110509594D01*
X128233351Y-110473308D01*
X128160780Y-110400737D01*
X128124494Y-110291880D01*
X128124494Y-110219308D01*
X128160780Y-110110451D01*
X128197065Y-110074165D01*
X128596208Y-109747594D02*
X128596208Y-109167022D01*
X128451065Y-108695308D02*
X128414780Y-108767880D01*
X128378494Y-108804165D01*
X128305922Y-108840451D01*
X128269637Y-108840451D01*
X128197065Y-108804165D01*
X128160780Y-108767880D01*
X128124494Y-108695308D01*
X128124494Y-108550165D01*
X128160780Y-108477594D01*
X128197065Y-108441308D01*
X128269637Y-108405022D01*
X128305922Y-108405022D01*
X128378494Y-108441308D01*
X128414780Y-108477594D01*
X128451065Y-108550165D01*
X128451065Y-108695308D01*
X128487351Y-108767880D01*
X128523637Y-108804165D01*
X128596208Y-108840451D01*
X128741351Y-108840451D01*
X128813922Y-108804165D01*
X128850208Y-108767880D01*
X128886494Y-108695308D01*
X128886494Y-108550165D01*
X128850208Y-108477594D01*
X128813922Y-108441308D01*
X128741351Y-108405022D01*
X128596208Y-108405022D01*
X128523637Y-108441308D01*
X128487351Y-108477594D01*
X128451065Y-108550165D01*
D21*
X127846061Y-112035166D02*
X127846061Y-112398023D01*
X127846061Y-112216595D02*
X127211061Y-112216595D01*
X127301776Y-112277071D01*
X127362252Y-112337547D01*
X127392490Y-112398023D01*
X127211061Y-111460642D02*
X127211061Y-111763023D01*
X127513442Y-111793261D01*
X127483204Y-111763023D01*
X127452966Y-111702547D01*
X127452966Y-111551357D01*
X127483204Y-111490880D01*
X127513442Y-111460642D01*
X127573919Y-111430404D01*
X127725109Y-111430404D01*
X127785585Y-111460642D01*
X127815823Y-111490880D01*
X127846061Y-111551357D01*
X127846061Y-111702547D01*
X127815823Y-111763023D01*
X127785585Y-111793261D01*
X127211061Y-111037309D02*
X127211061Y-110976833D01*
X127241300Y-110916357D01*
X127271538Y-110886119D01*
X127332014Y-110855880D01*
X127452966Y-110825642D01*
X127604157Y-110825642D01*
X127725109Y-110855880D01*
X127785585Y-110886119D01*
X127815823Y-110916357D01*
X127846061Y-110976833D01*
X127846061Y-111037309D01*
X127815823Y-111097785D01*
X127785585Y-111128023D01*
X127725109Y-111158261D01*
X127604157Y-111188500D01*
X127452966Y-111188500D01*
X127332014Y-111158261D01*
X127271538Y-111128023D01*
X127241300Y-111097785D01*
X127211061Y-111037309D01*
X127846061Y-110553500D02*
X127422728Y-110553500D01*
X127483204Y-110553500D02*
X127452966Y-110523261D01*
X127422728Y-110462785D01*
X127422728Y-110372071D01*
X127452966Y-110311595D01*
X127513442Y-110281357D01*
X127846061Y-110281357D01*
X127513442Y-110281357D02*
X127452966Y-110251119D01*
X127422728Y-110190642D01*
X127422728Y-110099928D01*
X127452966Y-110039452D01*
X127513442Y-110009214D01*
X127846061Y-110009214D01*
X127846061Y-109706833D02*
X127422728Y-109706833D01*
X127211061Y-109706833D02*
X127241300Y-109737071D01*
X127271538Y-109706833D01*
X127241300Y-109676595D01*
X127211061Y-109706833D01*
X127271538Y-109706833D01*
X127846061Y-109313738D02*
X127815823Y-109374214D01*
X127755347Y-109404452D01*
X127211061Y-109404452D01*
D11*
X105905904Y-123268619D02*
X105905904Y-124091095D01*
X105954285Y-124187857D01*
X106002666Y-124236238D01*
X106099428Y-124284619D01*
X106292952Y-124284619D01*
X106389714Y-124236238D01*
X106438095Y-124187857D01*
X106486476Y-124091095D01*
X106486476Y-123268619D01*
X107454095Y-123268619D02*
X106970285Y-123268619D01*
X106921904Y-123752428D01*
X106970285Y-123704047D01*
X107067047Y-123655666D01*
X107308952Y-123655666D01*
X107405714Y-123704047D01*
X107454095Y-123752428D01*
X107502476Y-123849190D01*
X107502476Y-124091095D01*
X107454095Y-124187857D01*
X107405714Y-124236238D01*
X107308952Y-124284619D01*
X107067047Y-124284619D01*
X106970285Y-124236238D01*
X106921904Y-124187857D01*
X71488904Y-118442619D02*
X71488904Y-119265095D01*
X71537285Y-119361857D01*
X71585666Y-119410238D01*
X71682428Y-119458619D01*
X71875952Y-119458619D01*
X71972714Y-119410238D01*
X72021095Y-119361857D01*
X72069476Y-119265095D01*
X72069476Y-118442619D01*
X72456523Y-118442619D02*
X73133857Y-118442619D01*
X72698428Y-119458619D01*
X82175047Y-134063619D02*
X81691238Y-134063619D01*
X81691238Y-133047619D01*
X82513714Y-133531428D02*
X82852380Y-133531428D01*
X82997523Y-134063619D02*
X82513714Y-134063619D01*
X82513714Y-133047619D01*
X82997523Y-133047619D01*
X83432952Y-134063619D02*
X83432952Y-133047619D01*
X83674857Y-133047619D01*
X83820000Y-133096000D01*
X83916761Y-133192761D01*
X83965142Y-133289523D01*
X84013523Y-133483047D01*
X84013523Y-133628190D01*
X83965142Y-133821714D01*
X83916761Y-133918476D01*
X83820000Y-134015238D01*
X83674857Y-134063619D01*
X83432952Y-134063619D01*
X84352190Y-133047619D02*
X84981142Y-133047619D01*
X84642476Y-133434666D01*
X84787619Y-133434666D01*
X84884380Y-133483047D01*
X84932761Y-133531428D01*
X84981142Y-133628190D01*
X84981142Y-133870095D01*
X84932761Y-133966857D01*
X84884380Y-134015238D01*
X84787619Y-134063619D01*
X84497333Y-134063619D01*
X84400571Y-134015238D01*
X84352190Y-133966857D01*
D14*
X77461166Y-131042833D02*
X76572166Y-131042833D01*
X77461166Y-130534833D02*
X76953166Y-130915833D01*
X76572166Y-130534833D02*
X77080166Y-131042833D01*
X77207166Y-133561666D02*
X77207166Y-133138333D01*
X77461166Y-133646333D02*
X76572166Y-133350000D01*
X77461166Y-133053666D01*
D11*
X94983904Y-95455619D02*
X94983904Y-96278095D01*
X95032285Y-96374857D01*
X95080666Y-96423238D01*
X95177428Y-96471619D01*
X95370952Y-96471619D01*
X95467714Y-96423238D01*
X95516095Y-96374857D01*
X95564476Y-96278095D01*
X95564476Y-95455619D01*
X96483714Y-95794285D02*
X96483714Y-96471619D01*
X96241809Y-95407238D02*
X95999904Y-96132952D01*
X96628857Y-96132952D01*
D21*
X102715785Y-90203261D02*
X102504119Y-89900880D01*
X102352928Y-90203261D02*
X102352928Y-89568261D01*
X102594833Y-89568261D01*
X102655309Y-89598500D01*
X102685547Y-89628738D01*
X102715785Y-89689214D01*
X102715785Y-89779928D01*
X102685547Y-89840404D01*
X102655309Y-89870642D01*
X102594833Y-89900880D01*
X102352928Y-89900880D01*
X102957690Y-89628738D02*
X102987928Y-89598500D01*
X103048404Y-89568261D01*
X103199595Y-89568261D01*
X103260071Y-89598500D01*
X103290309Y-89628738D01*
X103320547Y-89689214D01*
X103320547Y-89749690D01*
X103290309Y-89840404D01*
X102927452Y-90203261D01*
X103320547Y-90203261D01*
X103895071Y-89568261D02*
X103592690Y-89568261D01*
X103562452Y-89870642D01*
X103592690Y-89840404D01*
X103653166Y-89810166D01*
X103804357Y-89810166D01*
X103864833Y-89840404D01*
X103895071Y-89870642D01*
X103925309Y-89931119D01*
X103925309Y-90082309D01*
X103895071Y-90142785D01*
X103864833Y-90173023D01*
X103804357Y-90203261D01*
X103653166Y-90203261D01*
X103592690Y-90173023D01*
X103562452Y-90142785D01*
D11*
X87490904Y-93296619D02*
X87490904Y-94119095D01*
X87539285Y-94215857D01*
X87587666Y-94264238D01*
X87684428Y-94312619D01*
X87877952Y-94312619D01*
X87974714Y-94264238D01*
X88023095Y-94215857D01*
X88071476Y-94119095D01*
X88071476Y-93296619D01*
X88458523Y-93296619D02*
X89087476Y-93296619D01*
X88748809Y-93683666D01*
X88893952Y-93683666D01*
X88990714Y-93732047D01*
X89039095Y-93780428D01*
X89087476Y-93877190D01*
X89087476Y-94119095D01*
X89039095Y-94215857D01*
X88990714Y-94264238D01*
X88893952Y-94312619D01*
X88603666Y-94312619D01*
X88506904Y-94264238D01*
X88458523Y-94215857D01*
X84025619Y-116259428D02*
X83009619Y-116259428D01*
X83735333Y-115920761D01*
X83009619Y-115582095D01*
X84025619Y-115582095D01*
X84025619Y-115098285D02*
X83009619Y-115098285D01*
X83928857Y-114033904D02*
X83977238Y-114082285D01*
X84025619Y-114227428D01*
X84025619Y-114324190D01*
X83977238Y-114469333D01*
X83880476Y-114566095D01*
X83783714Y-114614476D01*
X83590190Y-114662857D01*
X83445047Y-114662857D01*
X83251523Y-114614476D01*
X83154761Y-114566095D01*
X83058000Y-114469333D01*
X83009619Y-114324190D01*
X83009619Y-114227428D01*
X83058000Y-114082285D01*
X83106380Y-114033904D01*
X84025619Y-113017904D02*
X83541809Y-113356571D01*
X84025619Y-113598476D02*
X83009619Y-113598476D01*
X83009619Y-113211428D01*
X83058000Y-113114666D01*
X83106380Y-113066285D01*
X83203142Y-113017904D01*
X83348285Y-113017904D01*
X83445047Y-113066285D01*
X83493428Y-113114666D01*
X83541809Y-113211428D01*
X83541809Y-113598476D01*
X83009619Y-112388952D02*
X83009619Y-112195428D01*
X83058000Y-112098666D01*
X83154761Y-112001904D01*
X83348285Y-111953523D01*
X83686952Y-111953523D01*
X83880476Y-112001904D01*
X83977238Y-112098666D01*
X84025619Y-112195428D01*
X84025619Y-112388952D01*
X83977238Y-112485714D01*
X83880476Y-112582476D01*
X83686952Y-112630857D01*
X83348285Y-112630857D01*
X83154761Y-112582476D01*
X83058000Y-112485714D01*
X83009619Y-112388952D01*
X84122380Y-111760000D02*
X84122380Y-110985904D01*
X83977238Y-110792380D02*
X84025619Y-110647238D01*
X84025619Y-110405333D01*
X83977238Y-110308571D01*
X83928857Y-110260190D01*
X83832095Y-110211809D01*
X83735333Y-110211809D01*
X83638571Y-110260190D01*
X83590190Y-110308571D01*
X83541809Y-110405333D01*
X83493428Y-110598857D01*
X83445047Y-110695619D01*
X83396666Y-110744000D01*
X83299904Y-110792380D01*
X83203142Y-110792380D01*
X83106380Y-110744000D01*
X83058000Y-110695619D01*
X83009619Y-110598857D01*
X83009619Y-110356952D01*
X83058000Y-110211809D01*
X84025619Y-109776380D02*
X83009619Y-109776380D01*
X83009619Y-109534476D01*
X83058000Y-109389333D01*
X83154761Y-109292571D01*
X83251523Y-109244190D01*
X83445047Y-109195809D01*
X83590190Y-109195809D01*
X83783714Y-109244190D01*
X83880476Y-109292571D01*
X83977238Y-109389333D01*
X84025619Y-109534476D01*
X84025619Y-109776380D01*
X84025619Y-108228190D02*
X84025619Y-108808761D01*
X84025619Y-108518476D02*
X83009619Y-108518476D01*
X83154761Y-108615238D01*
X83251523Y-108712000D01*
X83299904Y-108808761D01*
X135327571Y-108990190D02*
X135388047Y-109050666D01*
X135448523Y-109232095D01*
X135448523Y-109353047D01*
X135388047Y-109534476D01*
X135267095Y-109655428D01*
X135146142Y-109715904D01*
X134904238Y-109776380D01*
X134722809Y-109776380D01*
X134480904Y-109715904D01*
X134359952Y-109655428D01*
X134239000Y-109534476D01*
X134178523Y-109353047D01*
X134178523Y-109232095D01*
X134239000Y-109050666D01*
X134299476Y-108990190D01*
X135085666Y-108506380D02*
X135085666Y-107901619D01*
X135448523Y-108627333D02*
X134178523Y-108204000D01*
X135448523Y-107780666D01*
X135448523Y-107357333D02*
X134178523Y-107357333D01*
X135448523Y-106631619D01*
X134178523Y-106631619D01*
X135448523Y-105361619D02*
X135448523Y-106087333D01*
X135448523Y-105724476D02*
X134178523Y-105724476D01*
X134359952Y-105845428D01*
X134480904Y-105966380D01*
X134541380Y-106087333D01*
X91494428Y-133936619D02*
X91494428Y-134759095D01*
X91542809Y-134855857D01*
X91591190Y-134904238D01*
X91687952Y-134952619D01*
X91881476Y-134952619D01*
X91978238Y-134904238D01*
X92026619Y-134855857D01*
X92075000Y-134759095D01*
X92075000Y-133936619D01*
X92558809Y-134420428D02*
X92897476Y-134420428D01*
X93042619Y-134952619D02*
X92558809Y-134952619D01*
X92558809Y-133936619D01*
X93042619Y-133936619D01*
X93381285Y-133936619D02*
X94058619Y-134952619D01*
X94058619Y-133936619D02*
X93381285Y-134952619D01*
X94300523Y-133936619D02*
X94881095Y-133936619D01*
X94590809Y-134952619D02*
X94590809Y-133936619D01*
X95751952Y-134952619D02*
X95171380Y-134952619D01*
X95461666Y-134952619D02*
X95461666Y-133936619D01*
X95364904Y-134081761D01*
X95268142Y-134178523D01*
X95171380Y-134226904D01*
D16*
X101193623Y-133035300D02*
X100622195Y-133035300D01*
X100907909Y-133035300D02*
X100907909Y-132035300D01*
X100812671Y-132178158D01*
X100717433Y-132273396D01*
X100622195Y-132321015D01*
X101812671Y-132035300D02*
X101907909Y-132035300D01*
X102003147Y-132082920D01*
X102050766Y-132130539D01*
X102098385Y-132225777D01*
X102146004Y-132416253D01*
X102146004Y-132654348D01*
X102098385Y-132844824D01*
X102050766Y-132940062D01*
X102003147Y-132987681D01*
X101907909Y-133035300D01*
X101812671Y-133035300D01*
X101717433Y-132987681D01*
X101669814Y-132940062D01*
X101622195Y-132844824D01*
X101574576Y-132654348D01*
X101574576Y-132416253D01*
X101622195Y-132225777D01*
X101669814Y-132130539D01*
X101717433Y-132082920D01*
X101812671Y-132035300D01*
X94367314Y-130876300D02*
X93795885Y-130876300D01*
X94081600Y-130876300D02*
X94081600Y-129876300D01*
X93986361Y-130019158D01*
X93891123Y-130114396D01*
X93795885Y-130162015D01*
X93712065Y-127345179D02*
X93759684Y-127297560D01*
X93854922Y-127249940D01*
X94093018Y-127249940D01*
X94188256Y-127297560D01*
X94235875Y-127345179D01*
X94283494Y-127440417D01*
X94283494Y-127535655D01*
X94235875Y-127678512D01*
X93664446Y-128249940D01*
X94283494Y-128249940D01*
D11*
X115001523Y-82199238D02*
X114396761Y-82622571D01*
X115001523Y-82924952D02*
X113731523Y-82924952D01*
X113731523Y-82441142D01*
X113792000Y-82320190D01*
X113852476Y-82259714D01*
X113973428Y-82199238D01*
X114154857Y-82199238D01*
X114275809Y-82259714D01*
X114336285Y-82320190D01*
X114396761Y-82441142D01*
X114396761Y-82924952D01*
X114336285Y-81654952D02*
X114336285Y-81231619D01*
X115001523Y-81050190D02*
X115001523Y-81654952D01*
X113731523Y-81654952D01*
X113731523Y-81050190D01*
X115001523Y-79901142D02*
X115001523Y-80505904D01*
X113731523Y-80505904D01*
X113852476Y-79538285D02*
X113792000Y-79477809D01*
X113731523Y-79356857D01*
X113731523Y-79054476D01*
X113792000Y-78933523D01*
X113852476Y-78873047D01*
X113973428Y-78812571D01*
X114094380Y-78812571D01*
X114275809Y-78873047D01*
X115001523Y-79598761D01*
X115001523Y-78812571D01*
X124048761Y-102047523D02*
X123625428Y-101442761D01*
X123323047Y-102047523D02*
X123323047Y-100777523D01*
X123806857Y-100777523D01*
X123927809Y-100838000D01*
X123988285Y-100898476D01*
X124048761Y-101019428D01*
X124048761Y-101200857D01*
X123988285Y-101321809D01*
X123927809Y-101382285D01*
X123806857Y-101442761D01*
X123323047Y-101442761D01*
X124593047Y-101382285D02*
X125016380Y-101382285D01*
X125197809Y-102047523D02*
X124593047Y-102047523D01*
X124593047Y-100777523D01*
X125197809Y-100777523D01*
X126346857Y-102047523D02*
X125742095Y-102047523D01*
X125742095Y-100777523D01*
X127435428Y-102047523D02*
X126709714Y-102047523D01*
X127072571Y-102047523D02*
X127072571Y-100777523D01*
X126951619Y-100958952D01*
X126830666Y-101079904D01*
X126709714Y-101140380D01*
X92335047Y-91137619D02*
X91851238Y-91137619D01*
X91851238Y-90121619D01*
X92625333Y-90847333D02*
X93109142Y-90847333D01*
X92528571Y-91137619D02*
X92867238Y-90121619D01*
X93205904Y-91137619D01*
X93544571Y-91137619D02*
X93544571Y-90121619D01*
X94125142Y-91137619D01*
X94125142Y-90121619D01*
X95141142Y-91137619D02*
X94560571Y-91137619D01*
X94850857Y-91137619D02*
X94850857Y-90121619D01*
X94754095Y-90266761D01*
X94657333Y-90363523D01*
X94560571Y-90411904D01*
D22*
X136597571Y-132624285D02*
X136633857Y-132515428D01*
X136670142Y-132479142D01*
X136742714Y-132442857D01*
X136851571Y-132442857D01*
X136924142Y-132479142D01*
X136960428Y-132515428D01*
X136996714Y-132588000D01*
X136996714Y-132878285D01*
X136234714Y-132878285D01*
X136234714Y-132624285D01*
X136271000Y-132551714D01*
X136307285Y-132515428D01*
X136379857Y-132479142D01*
X136452428Y-132479142D01*
X136525000Y-132515428D01*
X136561285Y-132551714D01*
X136597571Y-132624285D01*
X136597571Y-132878285D01*
X136779000Y-132152571D02*
X136779000Y-131789714D01*
X136996714Y-132225142D02*
X136234714Y-131971142D01*
X136996714Y-131717142D01*
X136234714Y-131572000D02*
X136234714Y-131136571D01*
X136996714Y-131354285D02*
X136234714Y-131354285D01*
X136996714Y-130483428D02*
X136996714Y-130918857D01*
X136996714Y-130701142D02*
X136234714Y-130701142D01*
X136343571Y-130773714D01*
X136416142Y-130846285D01*
X136452428Y-130918857D01*
X124605142Y-132334000D02*
X124641428Y-132370285D01*
X124677714Y-132479142D01*
X124677714Y-132551714D01*
X124641428Y-132660571D01*
X124568857Y-132733142D01*
X124496285Y-132769428D01*
X124351142Y-132805714D01*
X124242285Y-132805714D01*
X124097142Y-132769428D01*
X124024571Y-132733142D01*
X123952000Y-132660571D01*
X123915714Y-132551714D01*
X123915714Y-132479142D01*
X123952000Y-132370285D01*
X123988285Y-132334000D01*
X124677714Y-131608285D02*
X124677714Y-132043714D01*
X124677714Y-131826000D02*
X123915714Y-131826000D01*
X124024571Y-131898571D01*
X124097142Y-131971142D01*
X124133428Y-132043714D01*
D21*
X127988785Y-128248833D02*
X128019023Y-128279071D01*
X128049261Y-128369785D01*
X128049261Y-128430261D01*
X128019023Y-128520976D01*
X127958547Y-128581452D01*
X127898071Y-128611690D01*
X127777119Y-128641928D01*
X127686404Y-128641928D01*
X127565452Y-128611690D01*
X127504976Y-128581452D01*
X127444500Y-128520976D01*
X127414261Y-128430261D01*
X127414261Y-128369785D01*
X127444500Y-128279071D01*
X127474738Y-128248833D01*
X127474738Y-128006928D02*
X127444500Y-127976690D01*
X127414261Y-127916214D01*
X127414261Y-127765023D01*
X127444500Y-127704547D01*
X127474738Y-127674309D01*
X127535214Y-127644071D01*
X127595690Y-127644071D01*
X127686404Y-127674309D01*
X128049261Y-128037166D01*
X128049261Y-127644071D01*
D22*
X89027000Y-121938142D02*
X88990714Y-121974428D01*
X88881857Y-122010714D01*
X88809285Y-122010714D01*
X88700428Y-121974428D01*
X88627857Y-121901857D01*
X88591571Y-121829285D01*
X88555285Y-121684142D01*
X88555285Y-121575285D01*
X88591571Y-121430142D01*
X88627857Y-121357571D01*
X88700428Y-121285000D01*
X88809285Y-121248714D01*
X88881857Y-121248714D01*
X88990714Y-121285000D01*
X89027000Y-121321285D01*
X89716428Y-121248714D02*
X89353571Y-121248714D01*
X89317285Y-121611571D01*
X89353571Y-121575285D01*
X89426142Y-121539000D01*
X89607571Y-121539000D01*
X89680142Y-121575285D01*
X89716428Y-121611571D01*
X89752714Y-121684142D01*
X89752714Y-121865571D01*
X89716428Y-121938142D01*
X89680142Y-121974428D01*
X89607571Y-122010714D01*
X89426142Y-122010714D01*
X89353571Y-121974428D01*
X89317285Y-121938142D01*
D21*
X114575166Y-123797785D02*
X114544928Y-123828023D01*
X114454214Y-123858261D01*
X114393738Y-123858261D01*
X114303023Y-123828023D01*
X114242547Y-123767547D01*
X114212309Y-123707071D01*
X114182071Y-123586119D01*
X114182071Y-123495404D01*
X114212309Y-123374452D01*
X114242547Y-123313976D01*
X114303023Y-123253500D01*
X114393738Y-123223261D01*
X114454214Y-123223261D01*
X114544928Y-123253500D01*
X114575166Y-123283738D01*
X115119452Y-123223261D02*
X114998500Y-123223261D01*
X114938023Y-123253500D01*
X114907785Y-123283738D01*
X114847309Y-123374452D01*
X114817071Y-123495404D01*
X114817071Y-123737309D01*
X114847309Y-123797785D01*
X114877547Y-123828023D01*
X114938023Y-123858261D01*
X115058976Y-123858261D01*
X115119452Y-123828023D01*
X115149690Y-123797785D01*
X115179928Y-123737309D01*
X115179928Y-123586119D01*
X115149690Y-123525642D01*
X115119452Y-123495404D01*
X115058976Y-123465166D01*
X114938023Y-123465166D01*
X114877547Y-123495404D01*
X114847309Y-123525642D01*
X114817071Y-123586119D01*
X114575166Y-124813785D02*
X114544928Y-124844023D01*
X114454214Y-124874261D01*
X114393738Y-124874261D01*
X114303023Y-124844023D01*
X114242547Y-124783547D01*
X114212309Y-124723071D01*
X114182071Y-124602119D01*
X114182071Y-124511404D01*
X114212309Y-124390452D01*
X114242547Y-124329976D01*
X114303023Y-124269500D01*
X114393738Y-124239261D01*
X114454214Y-124239261D01*
X114544928Y-124269500D01*
X114575166Y-124299738D01*
X114786833Y-124239261D02*
X115210166Y-124239261D01*
X114938023Y-124874261D01*
D22*
X105664000Y-106698142D02*
X105627714Y-106734428D01*
X105518857Y-106770714D01*
X105446285Y-106770714D01*
X105337428Y-106734428D01*
X105264857Y-106661857D01*
X105228571Y-106589285D01*
X105192285Y-106444142D01*
X105192285Y-106335285D01*
X105228571Y-106190142D01*
X105264857Y-106117571D01*
X105337428Y-106045000D01*
X105446285Y-106008714D01*
X105518857Y-106008714D01*
X105627714Y-106045000D01*
X105664000Y-106081285D01*
X106099428Y-106335285D02*
X106026857Y-106299000D01*
X105990571Y-106262714D01*
X105954285Y-106190142D01*
X105954285Y-106153857D01*
X105990571Y-106081285D01*
X106026857Y-106045000D01*
X106099428Y-106008714D01*
X106244571Y-106008714D01*
X106317142Y-106045000D01*
X106353428Y-106081285D01*
X106389714Y-106153857D01*
X106389714Y-106190142D01*
X106353428Y-106262714D01*
X106317142Y-106299000D01*
X106244571Y-106335285D01*
X106099428Y-106335285D01*
X106026857Y-106371571D01*
X105990571Y-106407857D01*
X105954285Y-106480428D01*
X105954285Y-106625571D01*
X105990571Y-106698142D01*
X106026857Y-106734428D01*
X106099428Y-106770714D01*
X106244571Y-106770714D01*
X106317142Y-106734428D01*
X106353428Y-106698142D01*
X106389714Y-106625571D01*
X106389714Y-106480428D01*
X106353428Y-106407857D01*
X106317142Y-106371571D01*
X106244571Y-106335285D01*
X103759000Y-106698142D02*
X103722714Y-106734428D01*
X103613857Y-106770714D01*
X103541285Y-106770714D01*
X103432428Y-106734428D01*
X103359857Y-106661857D01*
X103323571Y-106589285D01*
X103287285Y-106444142D01*
X103287285Y-106335285D01*
X103323571Y-106190142D01*
X103359857Y-106117571D01*
X103432428Y-106045000D01*
X103541285Y-106008714D01*
X103613857Y-106008714D01*
X103722714Y-106045000D01*
X103759000Y-106081285D01*
X104121857Y-106770714D02*
X104267000Y-106770714D01*
X104339571Y-106734428D01*
X104375857Y-106698142D01*
X104448428Y-106589285D01*
X104484714Y-106444142D01*
X104484714Y-106153857D01*
X104448428Y-106081285D01*
X104412142Y-106045000D01*
X104339571Y-106008714D01*
X104194428Y-106008714D01*
X104121857Y-106045000D01*
X104085571Y-106081285D01*
X104049285Y-106153857D01*
X104049285Y-106335285D01*
X104085571Y-106407857D01*
X104121857Y-106444142D01*
X104194428Y-106480428D01*
X104339571Y-106480428D01*
X104412142Y-106444142D01*
X104448428Y-106407857D01*
X104484714Y-106335285D01*
X88537142Y-112286142D02*
X88500857Y-112322428D01*
X88392000Y-112358714D01*
X88319428Y-112358714D01*
X88210571Y-112322428D01*
X88138000Y-112249857D01*
X88101714Y-112177285D01*
X88065428Y-112032142D01*
X88065428Y-111923285D01*
X88101714Y-111778142D01*
X88138000Y-111705571D01*
X88210571Y-111633000D01*
X88319428Y-111596714D01*
X88392000Y-111596714D01*
X88500857Y-111633000D01*
X88537142Y-111669285D01*
X89262857Y-112358714D02*
X88827428Y-112358714D01*
X89045142Y-112358714D02*
X89045142Y-111596714D01*
X88972571Y-111705571D01*
X88900000Y-111778142D01*
X88827428Y-111814428D01*
X89734571Y-111596714D02*
X89807142Y-111596714D01*
X89879714Y-111633000D01*
X89916000Y-111669285D01*
X89952285Y-111741857D01*
X89988571Y-111887000D01*
X89988571Y-112068428D01*
X89952285Y-112213571D01*
X89916000Y-112286142D01*
X89879714Y-112322428D01*
X89807142Y-112358714D01*
X89734571Y-112358714D01*
X89662000Y-112322428D01*
X89625714Y-112286142D01*
X89589428Y-112213571D01*
X89553142Y-112068428D01*
X89553142Y-111887000D01*
X89589428Y-111741857D01*
X89625714Y-111669285D01*
X89662000Y-111633000D01*
X89734571Y-111596714D01*
D21*
X107160785Y-94388214D02*
X107191023Y-94418452D01*
X107221261Y-94509166D01*
X107221261Y-94569642D01*
X107191023Y-94660357D01*
X107130547Y-94720833D01*
X107070071Y-94751071D01*
X106949119Y-94781309D01*
X106858404Y-94781309D01*
X106737452Y-94751071D01*
X106676976Y-94720833D01*
X106616500Y-94660357D01*
X106586261Y-94569642D01*
X106586261Y-94509166D01*
X106616500Y-94418452D01*
X106646738Y-94388214D01*
X107221261Y-93783452D02*
X107221261Y-94146309D01*
X107221261Y-93964880D02*
X106586261Y-93964880D01*
X106676976Y-94025357D01*
X106737452Y-94085833D01*
X106767690Y-94146309D01*
X107221261Y-93178690D02*
X107221261Y-93541547D01*
X107221261Y-93360119D02*
X106586261Y-93360119D01*
X106676976Y-93420595D01*
X106737452Y-93481071D01*
X106767690Y-93541547D01*
D22*
X109492142Y-106698142D02*
X109455857Y-106734428D01*
X109347000Y-106770714D01*
X109274428Y-106770714D01*
X109165571Y-106734428D01*
X109093000Y-106661857D01*
X109056714Y-106589285D01*
X109020428Y-106444142D01*
X109020428Y-106335285D01*
X109056714Y-106190142D01*
X109093000Y-106117571D01*
X109165571Y-106045000D01*
X109274428Y-106008714D01*
X109347000Y-106008714D01*
X109455857Y-106045000D01*
X109492142Y-106081285D01*
X110217857Y-106770714D02*
X109782428Y-106770714D01*
X110000142Y-106770714D02*
X110000142Y-106008714D01*
X109927571Y-106117571D01*
X109855000Y-106190142D01*
X109782428Y-106226428D01*
X110508142Y-106081285D02*
X110544428Y-106045000D01*
X110617000Y-106008714D01*
X110798428Y-106008714D01*
X110871000Y-106045000D01*
X110907285Y-106081285D01*
X110943571Y-106153857D01*
X110943571Y-106226428D01*
X110907285Y-106335285D01*
X110471857Y-106770714D01*
X110943571Y-106770714D01*
X97427142Y-106698142D02*
X97390857Y-106734428D01*
X97282000Y-106770714D01*
X97209428Y-106770714D01*
X97100571Y-106734428D01*
X97028000Y-106661857D01*
X96991714Y-106589285D01*
X96955428Y-106444142D01*
X96955428Y-106335285D01*
X96991714Y-106190142D01*
X97028000Y-106117571D01*
X97100571Y-106045000D01*
X97209428Y-106008714D01*
X97282000Y-106008714D01*
X97390857Y-106045000D01*
X97427142Y-106081285D01*
X98152857Y-106770714D02*
X97717428Y-106770714D01*
X97935142Y-106770714D02*
X97935142Y-106008714D01*
X97862571Y-106117571D01*
X97790000Y-106190142D01*
X97717428Y-106226428D01*
X98406857Y-106008714D02*
X98878571Y-106008714D01*
X98624571Y-106299000D01*
X98733428Y-106299000D01*
X98806000Y-106335285D01*
X98842285Y-106371571D01*
X98878571Y-106444142D01*
X98878571Y-106625571D01*
X98842285Y-106698142D01*
X98806000Y-106734428D01*
X98733428Y-106770714D01*
X98515714Y-106770714D01*
X98443142Y-106734428D01*
X98406857Y-106698142D01*
X103904142Y-96157142D02*
X103867857Y-96193428D01*
X103759000Y-96229714D01*
X103686428Y-96229714D01*
X103577571Y-96193428D01*
X103505000Y-96120857D01*
X103468714Y-96048285D01*
X103432428Y-95903142D01*
X103432428Y-95794285D01*
X103468714Y-95649142D01*
X103505000Y-95576571D01*
X103577571Y-95504000D01*
X103686428Y-95467714D01*
X103759000Y-95467714D01*
X103867857Y-95504000D01*
X103904142Y-95540285D01*
X104629857Y-96229714D02*
X104194428Y-96229714D01*
X104412142Y-96229714D02*
X104412142Y-95467714D01*
X104339571Y-95576571D01*
X104267000Y-95649142D01*
X104194428Y-95685428D01*
X105283000Y-95721714D02*
X105283000Y-96229714D01*
X105101571Y-95431428D02*
X104920142Y-95975714D01*
X105391857Y-95975714D01*
D21*
X90650785Y-94841785D02*
X90620547Y-94872023D01*
X90529833Y-94902261D01*
X90469357Y-94902261D01*
X90378642Y-94872023D01*
X90318166Y-94811547D01*
X90287928Y-94751071D01*
X90257690Y-94630119D01*
X90257690Y-94539404D01*
X90287928Y-94418452D01*
X90318166Y-94357976D01*
X90378642Y-94297500D01*
X90469357Y-94267261D01*
X90529833Y-94267261D01*
X90620547Y-94297500D01*
X90650785Y-94327738D01*
X91255547Y-94902261D02*
X90892690Y-94902261D01*
X91074119Y-94902261D02*
X91074119Y-94267261D01*
X91013642Y-94357976D01*
X90953166Y-94418452D01*
X90892690Y-94448690D01*
X91830071Y-94267261D02*
X91527690Y-94267261D01*
X91497452Y-94569642D01*
X91527690Y-94539404D01*
X91588166Y-94509166D01*
X91739357Y-94509166D01*
X91799833Y-94539404D01*
X91830071Y-94569642D01*
X91860309Y-94630119D01*
X91860309Y-94781309D01*
X91830071Y-94841785D01*
X91799833Y-94872023D01*
X91739357Y-94902261D01*
X91588166Y-94902261D01*
X91527690Y-94872023D01*
X91497452Y-94841785D01*
X95095785Y-101318785D02*
X95065547Y-101349023D01*
X94974833Y-101379261D01*
X94914357Y-101379261D01*
X94823642Y-101349023D01*
X94763166Y-101288547D01*
X94732928Y-101228071D01*
X94702690Y-101107119D01*
X94702690Y-101016404D01*
X94732928Y-100895452D01*
X94763166Y-100834976D01*
X94823642Y-100774500D01*
X94914357Y-100744261D01*
X94974833Y-100744261D01*
X95065547Y-100774500D01*
X95095785Y-100804738D01*
X95700547Y-101379261D02*
X95337690Y-101379261D01*
X95519119Y-101379261D02*
X95519119Y-100744261D01*
X95458642Y-100834976D01*
X95398166Y-100895452D01*
X95337690Y-100925690D01*
X96244833Y-100744261D02*
X96123880Y-100744261D01*
X96063404Y-100774500D01*
X96033166Y-100804738D01*
X95972690Y-100895452D01*
X95942452Y-101016404D01*
X95942452Y-101258309D01*
X95972690Y-101318785D01*
X96002928Y-101349023D01*
X96063404Y-101379261D01*
X96184357Y-101379261D01*
X96244833Y-101349023D01*
X96275071Y-101318785D01*
X96305309Y-101258309D01*
X96305309Y-101107119D01*
X96275071Y-101046642D01*
X96244833Y-101016404D01*
X96184357Y-100986166D01*
X96063404Y-100986166D01*
X96002928Y-101016404D01*
X95972690Y-101046642D01*
X95942452Y-101107119D01*
X95095785Y-97508785D02*
X95065547Y-97539023D01*
X94974833Y-97569261D01*
X94914357Y-97569261D01*
X94823642Y-97539023D01*
X94763166Y-97478547D01*
X94732928Y-97418071D01*
X94702690Y-97297119D01*
X94702690Y-97206404D01*
X94732928Y-97085452D01*
X94763166Y-97024976D01*
X94823642Y-96964500D01*
X94914357Y-96934261D01*
X94974833Y-96934261D01*
X95065547Y-96964500D01*
X95095785Y-96994738D01*
X95700547Y-97569261D02*
X95337690Y-97569261D01*
X95519119Y-97569261D02*
X95519119Y-96934261D01*
X95458642Y-97024976D01*
X95398166Y-97085452D01*
X95337690Y-97115690D01*
X95912214Y-96934261D02*
X96335547Y-96934261D01*
X96063404Y-97569261D01*
D22*
X108222142Y-99586142D02*
X108185857Y-99622428D01*
X108077000Y-99658714D01*
X108004428Y-99658714D01*
X107895571Y-99622428D01*
X107823000Y-99549857D01*
X107786714Y-99477285D01*
X107750428Y-99332142D01*
X107750428Y-99223285D01*
X107786714Y-99078142D01*
X107823000Y-99005571D01*
X107895571Y-98933000D01*
X108004428Y-98896714D01*
X108077000Y-98896714D01*
X108185857Y-98933000D01*
X108222142Y-98969285D01*
X108947857Y-99658714D02*
X108512428Y-99658714D01*
X108730142Y-99658714D02*
X108730142Y-98896714D01*
X108657571Y-99005571D01*
X108585000Y-99078142D01*
X108512428Y-99114428D01*
X109383285Y-99223285D02*
X109310714Y-99187000D01*
X109274428Y-99150714D01*
X109238142Y-99078142D01*
X109238142Y-99041857D01*
X109274428Y-98969285D01*
X109310714Y-98933000D01*
X109383285Y-98896714D01*
X109528428Y-98896714D01*
X109601000Y-98933000D01*
X109637285Y-98969285D01*
X109673571Y-99041857D01*
X109673571Y-99078142D01*
X109637285Y-99150714D01*
X109601000Y-99187000D01*
X109528428Y-99223285D01*
X109383285Y-99223285D01*
X109310714Y-99259571D01*
X109274428Y-99295857D01*
X109238142Y-99368428D01*
X109238142Y-99513571D01*
X109274428Y-99586142D01*
X109310714Y-99622428D01*
X109383285Y-99658714D01*
X109528428Y-99658714D01*
X109601000Y-99622428D01*
X109637285Y-99586142D01*
X109673571Y-99513571D01*
X109673571Y-99368428D01*
X109637285Y-99295857D01*
X109601000Y-99259571D01*
X109528428Y-99223285D01*
D11*
X134601857Y-103976714D02*
X134650238Y-104025095D01*
X134698619Y-104170238D01*
X134698619Y-104267000D01*
X134650238Y-104412142D01*
X134553476Y-104508904D01*
X134456714Y-104557285D01*
X134263190Y-104605666D01*
X134118047Y-104605666D01*
X133924523Y-104557285D01*
X133827761Y-104508904D01*
X133731000Y-104412142D01*
X133682619Y-104267000D01*
X133682619Y-104170238D01*
X133731000Y-104025095D01*
X133779380Y-103976714D01*
X133682619Y-103347761D02*
X133682619Y-103154238D01*
X133731000Y-103057476D01*
X133827761Y-102960714D01*
X134021285Y-102912333D01*
X134359952Y-102912333D01*
X134553476Y-102960714D01*
X134650238Y-103057476D01*
X134698619Y-103154238D01*
X134698619Y-103347761D01*
X134650238Y-103444523D01*
X134553476Y-103541285D01*
X134359952Y-103589666D01*
X134021285Y-103589666D01*
X133827761Y-103541285D01*
X133731000Y-103444523D01*
X133682619Y-103347761D01*
X134698619Y-102476904D02*
X133682619Y-102476904D01*
X134698619Y-101896333D01*
X133682619Y-101896333D01*
X134698619Y-100880333D02*
X134698619Y-101460904D01*
X134698619Y-101170619D02*
X133682619Y-101170619D01*
X133827761Y-101267380D01*
X133924523Y-101364142D01*
X133972904Y-101460904D01*
X136633857Y-73242714D02*
X136682238Y-73291095D01*
X136730619Y-73436238D01*
X136730619Y-73533000D01*
X136682238Y-73678142D01*
X136585476Y-73774904D01*
X136488714Y-73823285D01*
X136295190Y-73871666D01*
X136150047Y-73871666D01*
X135956523Y-73823285D01*
X135859761Y-73774904D01*
X135763000Y-73678142D01*
X135714619Y-73533000D01*
X135714619Y-73436238D01*
X135763000Y-73291095D01*
X135811380Y-73242714D01*
X135714619Y-72613761D02*
X135714619Y-72420238D01*
X135763000Y-72323476D01*
X135859761Y-72226714D01*
X136053285Y-72178333D01*
X136391952Y-72178333D01*
X136585476Y-72226714D01*
X136682238Y-72323476D01*
X136730619Y-72420238D01*
X136730619Y-72613761D01*
X136682238Y-72710523D01*
X136585476Y-72807285D01*
X136391952Y-72855666D01*
X136053285Y-72855666D01*
X135859761Y-72807285D01*
X135763000Y-72710523D01*
X135714619Y-72613761D01*
X136730619Y-71742904D02*
X135714619Y-71742904D01*
X136730619Y-71162333D01*
X135714619Y-71162333D01*
X135811380Y-70726904D02*
X135763000Y-70678523D01*
X135714619Y-70581761D01*
X135714619Y-70339857D01*
X135763000Y-70243095D01*
X135811380Y-70194714D01*
X135908142Y-70146333D01*
X136004904Y-70146333D01*
X136150047Y-70194714D01*
X136730619Y-70775285D01*
X136730619Y-70146333D01*
D22*
X92202000Y-101745142D02*
X92165714Y-101781428D01*
X92056857Y-101817714D01*
X91984285Y-101817714D01*
X91875428Y-101781428D01*
X91802857Y-101708857D01*
X91766571Y-101636285D01*
X91730285Y-101491142D01*
X91730285Y-101382285D01*
X91766571Y-101237142D01*
X91802857Y-101164571D01*
X91875428Y-101092000D01*
X91984285Y-101055714D01*
X92056857Y-101055714D01*
X92165714Y-101092000D01*
X92202000Y-101128285D01*
X92964000Y-101817714D02*
X92710000Y-101454857D01*
X92528571Y-101817714D02*
X92528571Y-101055714D01*
X92818857Y-101055714D01*
X92891428Y-101092000D01*
X92927714Y-101128285D01*
X92964000Y-101200857D01*
X92964000Y-101309714D01*
X92927714Y-101382285D01*
X92891428Y-101418571D01*
X92818857Y-101454857D01*
X92528571Y-101454857D01*
X93689714Y-101817714D02*
X93254285Y-101817714D01*
X93472000Y-101817714D02*
X93472000Y-101055714D01*
X93399428Y-101164571D01*
X93326857Y-101237142D01*
X93254285Y-101273428D01*
D11*
X114759619Y-93205904D02*
X113743619Y-93205904D01*
X113743619Y-92964000D01*
X113792000Y-92818857D01*
X113888761Y-92722095D01*
X113985523Y-92673714D01*
X114179047Y-92625333D01*
X114324190Y-92625333D01*
X114517714Y-92673714D01*
X114614476Y-92722095D01*
X114711238Y-92818857D01*
X114759619Y-92964000D01*
X114759619Y-93205904D01*
X114759619Y-91657714D02*
X114759619Y-92238285D01*
X114759619Y-91948000D02*
X113743619Y-91948000D01*
X113888761Y-92044761D01*
X113985523Y-92141523D01*
X114033904Y-92238285D01*
X122313095Y-129872619D02*
X122313095Y-128856619D01*
X122555000Y-128856619D01*
X122700142Y-128905000D01*
X122796904Y-129001761D01*
X122845285Y-129098523D01*
X122893666Y-129292047D01*
X122893666Y-129437190D01*
X122845285Y-129630714D01*
X122796904Y-129727476D01*
X122700142Y-129824238D01*
X122555000Y-129872619D01*
X122313095Y-129872619D01*
X123280714Y-128953380D02*
X123329095Y-128905000D01*
X123425857Y-128856619D01*
X123667761Y-128856619D01*
X123764523Y-128905000D01*
X123812904Y-128953380D01*
X123861285Y-129050142D01*
X123861285Y-129146904D01*
X123812904Y-129292047D01*
X123232333Y-129872619D01*
X123861285Y-129872619D01*
X114886619Y-75933904D02*
X113870619Y-75933904D01*
X113870619Y-75692000D01*
X113919000Y-75546857D01*
X114015761Y-75450095D01*
X114112523Y-75401714D01*
X114306047Y-75353333D01*
X114451190Y-75353333D01*
X114644714Y-75401714D01*
X114741476Y-75450095D01*
X114838238Y-75546857D01*
X114886619Y-75692000D01*
X114886619Y-75933904D01*
X113870619Y-75014666D02*
X113870619Y-74385714D01*
X114257666Y-74724380D01*
X114257666Y-74579238D01*
X114306047Y-74482476D01*
X114354428Y-74434095D01*
X114451190Y-74385714D01*
X114693095Y-74385714D01*
X114789857Y-74434095D01*
X114838238Y-74482476D01*
X114886619Y-74579238D01*
X114886619Y-74869523D01*
X114838238Y-74966285D01*
X114789857Y-75014666D01*
X126062619Y-116827904D02*
X125046619Y-116827904D01*
X125046619Y-116586000D01*
X125095000Y-116440857D01*
X125191761Y-116344095D01*
X125288523Y-116295714D01*
X125482047Y-116247333D01*
X125627190Y-116247333D01*
X125820714Y-116295714D01*
X125917476Y-116344095D01*
X126014238Y-116440857D01*
X126062619Y-116586000D01*
X126062619Y-116827904D01*
X125385285Y-115376476D02*
X126062619Y-115376476D01*
X124998238Y-115618380D02*
X125723952Y-115860285D01*
X125723952Y-115231333D01*
D21*
X107735309Y-136050261D02*
X107735309Y-135415261D01*
X107886500Y-135415261D01*
X107977214Y-135445500D01*
X108037690Y-135505976D01*
X108067928Y-135566452D01*
X108098166Y-135687404D01*
X108098166Y-135778119D01*
X108067928Y-135899071D01*
X108037690Y-135959547D01*
X107977214Y-136020023D01*
X107886500Y-136050261D01*
X107735309Y-136050261D01*
X108672690Y-135415261D02*
X108370309Y-135415261D01*
X108340071Y-135717642D01*
X108370309Y-135687404D01*
X108430785Y-135657166D01*
X108581976Y-135657166D01*
X108642452Y-135687404D01*
X108672690Y-135717642D01*
X108702928Y-135778119D01*
X108702928Y-135929309D01*
X108672690Y-135989785D01*
X108642452Y-136020023D01*
X108581976Y-136050261D01*
X108430785Y-136050261D01*
X108370309Y-136020023D01*
X108340071Y-135989785D01*
X119461642Y-122025833D02*
X119461642Y-122237500D01*
X119794261Y-122237500D02*
X119159261Y-122237500D01*
X119159261Y-121935119D01*
X119461642Y-121693214D02*
X119461642Y-121481547D01*
X119794261Y-121390833D02*
X119794261Y-121693214D01*
X119159261Y-121693214D01*
X119159261Y-121390833D01*
X119159261Y-121209404D02*
X119159261Y-120846547D01*
X119794261Y-121027976D02*
X119159261Y-121027976D01*
X119794261Y-120302261D02*
X119794261Y-120665119D01*
X119794261Y-120483690D02*
X119159261Y-120483690D01*
X119249976Y-120544166D01*
X119310452Y-120604642D01*
X119340690Y-120665119D01*
D22*
X97536000Y-124296714D02*
X97173142Y-124296714D01*
X97173142Y-123534714D01*
X98189142Y-124296714D02*
X97753714Y-124296714D01*
X97971428Y-124296714D02*
X97971428Y-123534714D01*
X97898857Y-123643571D01*
X97826285Y-123716142D01*
X97753714Y-123752428D01*
D11*
X115013619Y-121327333D02*
X115013619Y-121811142D01*
X113997619Y-121811142D01*
X114094380Y-121037047D02*
X114046000Y-120988666D01*
X113997619Y-120891904D01*
X113997619Y-120650000D01*
X114046000Y-120553238D01*
X114094380Y-120504857D01*
X114191142Y-120456476D01*
X114287904Y-120456476D01*
X114433047Y-120504857D01*
X115013619Y-121085428D01*
X115013619Y-120456476D01*
D22*
X107569000Y-106770714D02*
X107206142Y-106770714D01*
X107206142Y-106008714D01*
X107750428Y-106008714D02*
X108222142Y-106008714D01*
X107968142Y-106299000D01*
X108077000Y-106299000D01*
X108149571Y-106335285D01*
X108185857Y-106371571D01*
X108222142Y-106444142D01*
X108222142Y-106625571D01*
X108185857Y-106698142D01*
X108149571Y-106734428D01*
X108077000Y-106770714D01*
X107859285Y-106770714D01*
X107786714Y-106734428D01*
X107750428Y-106698142D01*
X88773000Y-115025714D02*
X88410142Y-115025714D01*
X88410142Y-114263714D01*
X89353571Y-114517714D02*
X89353571Y-115025714D01*
X89172142Y-114227428D02*
X88990714Y-114771714D01*
X89462428Y-114771714D01*
D11*
X112020047Y-101805619D02*
X111536238Y-101805619D01*
X111536238Y-100789619D01*
X112358714Y-101273428D02*
X112697380Y-101273428D01*
X112842523Y-101805619D02*
X112358714Y-101805619D01*
X112358714Y-100789619D01*
X112842523Y-100789619D01*
X113277952Y-101805619D02*
X113277952Y-100789619D01*
X113519857Y-100789619D01*
X113665000Y-100838000D01*
X113761761Y-100934761D01*
X113810142Y-101031523D01*
X113858523Y-101225047D01*
X113858523Y-101370190D01*
X113810142Y-101563714D01*
X113761761Y-101660476D01*
X113665000Y-101757238D01*
X113519857Y-101805619D01*
X113277952Y-101805619D01*
X114826142Y-101805619D02*
X114245571Y-101805619D01*
X114535857Y-101805619D02*
X114535857Y-100789619D01*
X114439095Y-100934761D01*
X114342333Y-101031523D01*
X114245571Y-101079904D01*
D22*
X115533714Y-69686714D02*
X115533714Y-70049571D01*
X114771714Y-70049571D01*
X115134571Y-69432714D02*
X115134571Y-69178714D01*
X115533714Y-69069857D02*
X115533714Y-69432714D01*
X114771714Y-69432714D01*
X114771714Y-69069857D01*
X115533714Y-68743285D02*
X114771714Y-68743285D01*
X114771714Y-68561857D01*
X114808000Y-68453000D01*
X114880571Y-68380428D01*
X114953142Y-68344142D01*
X115098285Y-68307857D01*
X115207142Y-68307857D01*
X115352285Y-68344142D01*
X115424857Y-68380428D01*
X115497428Y-68453000D01*
X115533714Y-68561857D01*
X115533714Y-68743285D01*
X114844285Y-68017571D02*
X114808000Y-67981285D01*
X114771714Y-67908714D01*
X114771714Y-67727285D01*
X114808000Y-67654714D01*
X114844285Y-67618428D01*
X114916857Y-67582142D01*
X114989428Y-67582142D01*
X115098285Y-67618428D01*
X115533714Y-68053857D01*
X115533714Y-67582142D01*
D11*
X128590523Y-115140619D02*
X128590523Y-114124619D01*
X128977571Y-114124619D01*
X129074333Y-114173000D01*
X129122714Y-114221380D01*
X129171095Y-114318142D01*
X129171095Y-114463285D01*
X129122714Y-114560047D01*
X129074333Y-114608428D01*
X128977571Y-114656809D01*
X128590523Y-114656809D01*
X129509761Y-114124619D02*
X129751666Y-115140619D01*
X129945190Y-114414904D01*
X130138714Y-115140619D01*
X130380619Y-114124619D01*
X131348238Y-115140619D02*
X131009571Y-114656809D01*
X130767666Y-115140619D02*
X130767666Y-114124619D01*
X131154714Y-114124619D01*
X131251476Y-114173000D01*
X131299857Y-114221380D01*
X131348238Y-114318142D01*
X131348238Y-114463285D01*
X131299857Y-114560047D01*
X131251476Y-114608428D01*
X131154714Y-114656809D01*
X130767666Y-114656809D01*
X132315857Y-115140619D02*
X131735285Y-115140619D01*
X132025571Y-115140619D02*
X132025571Y-114124619D01*
X131928809Y-114269761D01*
X131832047Y-114366523D01*
X131735285Y-114414904D01*
X128590523Y-116791619D02*
X128590523Y-115775619D01*
X128977571Y-115775619D01*
X129074333Y-115824000D01*
X129122714Y-115872380D01*
X129171095Y-115969142D01*
X129171095Y-116114285D01*
X129122714Y-116211047D01*
X129074333Y-116259428D01*
X128977571Y-116307809D01*
X128590523Y-116307809D01*
X129509761Y-115775619D02*
X129751666Y-116791619D01*
X129945190Y-116065904D01*
X130138714Y-116791619D01*
X130380619Y-115775619D01*
X131348238Y-116791619D02*
X131009571Y-116307809D01*
X130767666Y-116791619D02*
X130767666Y-115775619D01*
X131154714Y-115775619D01*
X131251476Y-115824000D01*
X131299857Y-115872380D01*
X131348238Y-115969142D01*
X131348238Y-116114285D01*
X131299857Y-116211047D01*
X131251476Y-116259428D01*
X131154714Y-116307809D01*
X130767666Y-116307809D01*
X131735285Y-115872380D02*
X131783666Y-115824000D01*
X131880428Y-115775619D01*
X132122333Y-115775619D01*
X132219095Y-115824000D01*
X132267476Y-115872380D01*
X132315857Y-115969142D01*
X132315857Y-116065904D01*
X132267476Y-116211047D01*
X131686904Y-116791619D01*
X132315857Y-116791619D01*
D21*
X120798166Y-135034261D02*
X120798166Y-134399261D01*
X121040071Y-134399261D01*
X121100547Y-134429500D01*
X121130785Y-134459738D01*
X121161023Y-134520214D01*
X121161023Y-134610928D01*
X121130785Y-134671404D01*
X121100547Y-134701642D01*
X121040071Y-134731880D01*
X120798166Y-134731880D01*
X121372690Y-134399261D02*
X121523880Y-135034261D01*
X121644833Y-134580690D01*
X121765785Y-135034261D01*
X121916976Y-134399261D01*
X122521738Y-135034261D02*
X122310071Y-134731880D01*
X122158880Y-135034261D02*
X122158880Y-134399261D01*
X122400785Y-134399261D01*
X122461261Y-134429500D01*
X122491500Y-134459738D01*
X122521738Y-134520214D01*
X122521738Y-134610928D01*
X122491500Y-134671404D01*
X122461261Y-134701642D01*
X122400785Y-134731880D01*
X122158880Y-134731880D01*
X123096261Y-135034261D02*
X122793880Y-135034261D01*
X122793880Y-134399261D01*
X123307928Y-134701642D02*
X123519595Y-134701642D01*
X123610309Y-135034261D02*
X123307928Y-135034261D01*
X123307928Y-134399261D01*
X123610309Y-134399261D01*
X123882452Y-135034261D02*
X123882452Y-134399261D01*
X124033642Y-134399261D01*
X124124357Y-134429500D01*
X124184833Y-134489976D01*
X124215071Y-134550452D01*
X124245309Y-134671404D01*
X124245309Y-134762119D01*
X124215071Y-134883071D01*
X124184833Y-134943547D01*
X124124357Y-135004023D01*
X124033642Y-135034261D01*
X123882452Y-135034261D01*
X124850071Y-135034261D02*
X124487214Y-135034261D01*
X124668642Y-135034261D02*
X124668642Y-134399261D01*
X124608166Y-134489976D01*
X124547690Y-134550452D01*
X124487214Y-134580690D01*
D11*
X115727238Y-104696380D02*
X115630476Y-104648000D01*
X115533714Y-104551238D01*
X115388571Y-104406095D01*
X115291809Y-104357714D01*
X115195047Y-104357714D01*
X115243428Y-104599619D02*
X115146666Y-104551238D01*
X115049904Y-104454476D01*
X115001523Y-104260952D01*
X115001523Y-103922285D01*
X115049904Y-103728761D01*
X115146666Y-103632000D01*
X115243428Y-103583619D01*
X115436952Y-103583619D01*
X115533714Y-103632000D01*
X115630476Y-103728761D01*
X115678857Y-103922285D01*
X115678857Y-104260952D01*
X115630476Y-104454476D01*
X115533714Y-104551238D01*
X115436952Y-104599619D01*
X115243428Y-104599619D01*
X116646476Y-104599619D02*
X116065904Y-104599619D01*
X116356190Y-104599619D02*
X116356190Y-103583619D01*
X116259428Y-103728761D01*
X116162666Y-103825523D01*
X116065904Y-103873904D01*
D22*
X110780285Y-90115571D02*
X110744000Y-90188142D01*
X110671428Y-90260714D01*
X110562571Y-90369571D01*
X110526285Y-90442142D01*
X110526285Y-90514714D01*
X110707714Y-90478428D02*
X110671428Y-90551000D01*
X110598857Y-90623571D01*
X110453714Y-90659857D01*
X110199714Y-90659857D01*
X110054571Y-90623571D01*
X109982000Y-90551000D01*
X109945714Y-90478428D01*
X109945714Y-90333285D01*
X109982000Y-90260714D01*
X110054571Y-90188142D01*
X110199714Y-90151857D01*
X110453714Y-90151857D01*
X110598857Y-90188142D01*
X110671428Y-90260714D01*
X110707714Y-90333285D01*
X110707714Y-90478428D01*
X110018285Y-89861571D02*
X109982000Y-89825285D01*
X109945714Y-89752714D01*
X109945714Y-89571285D01*
X109982000Y-89498714D01*
X110018285Y-89462428D01*
X110090857Y-89426142D01*
X110163428Y-89426142D01*
X110272285Y-89462428D01*
X110707714Y-89897857D01*
X110707714Y-89426142D01*
X123026714Y-106172000D02*
X122663857Y-106426000D01*
X123026714Y-106607428D02*
X122264714Y-106607428D01*
X122264714Y-106317142D01*
X122301000Y-106244571D01*
X122337285Y-106208285D01*
X122409857Y-106172000D01*
X122518714Y-106172000D01*
X122591285Y-106208285D01*
X122627571Y-106244571D01*
X122663857Y-106317142D01*
X122663857Y-106607428D01*
X123026714Y-105446285D02*
X123026714Y-105881714D01*
X123026714Y-105664000D02*
X122264714Y-105664000D01*
X122373571Y-105736571D01*
X122446142Y-105809142D01*
X122482428Y-105881714D01*
X123026714Y-103632000D02*
X122663857Y-103886000D01*
X123026714Y-104067428D02*
X122264714Y-104067428D01*
X122264714Y-103777142D01*
X122301000Y-103704571D01*
X122337285Y-103668285D01*
X122409857Y-103632000D01*
X122518714Y-103632000D01*
X122591285Y-103668285D01*
X122627571Y-103704571D01*
X122663857Y-103777142D01*
X122663857Y-104067428D01*
X122337285Y-103341714D02*
X122301000Y-103305428D01*
X122264714Y-103232857D01*
X122264714Y-103051428D01*
X122301000Y-102978857D01*
X122337285Y-102942571D01*
X122409857Y-102906285D01*
X122482428Y-102906285D01*
X122591285Y-102942571D01*
X123026714Y-103378000D01*
X123026714Y-102906285D01*
X114173000Y-96229714D02*
X113919000Y-95866857D01*
X113737571Y-96229714D02*
X113737571Y-95467714D01*
X114027857Y-95467714D01*
X114100428Y-95504000D01*
X114136714Y-95540285D01*
X114173000Y-95612857D01*
X114173000Y-95721714D01*
X114136714Y-95794285D01*
X114100428Y-95830571D01*
X114027857Y-95866857D01*
X113737571Y-95866857D01*
X114427000Y-95467714D02*
X114898714Y-95467714D01*
X114644714Y-95758000D01*
X114753571Y-95758000D01*
X114826142Y-95794285D01*
X114862428Y-95830571D01*
X114898714Y-95903142D01*
X114898714Y-96084571D01*
X114862428Y-96157142D01*
X114826142Y-96193428D01*
X114753571Y-96229714D01*
X114535857Y-96229714D01*
X114463285Y-96193428D01*
X114427000Y-96157142D01*
X106426000Y-97372714D02*
X106172000Y-97009857D01*
X105990571Y-97372714D02*
X105990571Y-96610714D01*
X106280857Y-96610714D01*
X106353428Y-96647000D01*
X106389714Y-96683285D01*
X106426000Y-96755857D01*
X106426000Y-96864714D01*
X106389714Y-96937285D01*
X106353428Y-96973571D01*
X106280857Y-97009857D01*
X105990571Y-97009857D01*
X107115428Y-96610714D02*
X106752571Y-96610714D01*
X106716285Y-96973571D01*
X106752571Y-96937285D01*
X106825142Y-96901000D01*
X107006571Y-96901000D01*
X107079142Y-96937285D01*
X107115428Y-96973571D01*
X107151714Y-97046142D01*
X107151714Y-97227571D01*
X107115428Y-97300142D01*
X107079142Y-97336428D01*
X107006571Y-97372714D01*
X106825142Y-97372714D01*
X106752571Y-97336428D01*
X106716285Y-97300142D01*
X106426000Y-96102714D02*
X106172000Y-95739857D01*
X105990571Y-96102714D02*
X105990571Y-95340714D01*
X106280857Y-95340714D01*
X106353428Y-95377000D01*
X106389714Y-95413285D01*
X106426000Y-95485857D01*
X106426000Y-95594714D01*
X106389714Y-95667285D01*
X106353428Y-95703571D01*
X106280857Y-95739857D01*
X105990571Y-95739857D01*
X107079142Y-95340714D02*
X106934000Y-95340714D01*
X106861428Y-95377000D01*
X106825142Y-95413285D01*
X106752571Y-95522142D01*
X106716285Y-95667285D01*
X106716285Y-95957571D01*
X106752571Y-96030142D01*
X106788857Y-96066428D01*
X106861428Y-96102714D01*
X107006571Y-96102714D01*
X107079142Y-96066428D01*
X107115428Y-96030142D01*
X107151714Y-95957571D01*
X107151714Y-95776142D01*
X107115428Y-95703571D01*
X107079142Y-95667285D01*
X107006571Y-95631000D01*
X106861428Y-95631000D01*
X106788857Y-95667285D01*
X106752571Y-95703571D01*
X106716285Y-95776142D01*
D21*
X112682261Y-129010833D02*
X112379880Y-129222500D01*
X112682261Y-129373690D02*
X112047261Y-129373690D01*
X112047261Y-129131785D01*
X112077500Y-129071309D01*
X112107738Y-129041071D01*
X112168214Y-129010833D01*
X112258928Y-129010833D01*
X112319404Y-129041071D01*
X112349642Y-129071309D01*
X112379880Y-129131785D01*
X112379880Y-129373690D01*
X112047261Y-128799166D02*
X112047261Y-128375833D01*
X112682261Y-128647976D01*
X128672166Y-133002261D02*
X128460500Y-132699880D01*
X128309309Y-133002261D02*
X128309309Y-132367261D01*
X128551214Y-132367261D01*
X128611690Y-132397500D01*
X128641928Y-132427738D01*
X128672166Y-132488214D01*
X128672166Y-132578928D01*
X128641928Y-132639404D01*
X128611690Y-132669642D01*
X128551214Y-132699880D01*
X128309309Y-132699880D01*
X129035023Y-132639404D02*
X128974547Y-132609166D01*
X128944309Y-132578928D01*
X128914071Y-132518452D01*
X128914071Y-132488214D01*
X128944309Y-132427738D01*
X128974547Y-132397500D01*
X129035023Y-132367261D01*
X129155976Y-132367261D01*
X129216452Y-132397500D01*
X129246690Y-132427738D01*
X129276928Y-132488214D01*
X129276928Y-132518452D01*
X129246690Y-132578928D01*
X129216452Y-132609166D01*
X129155976Y-132639404D01*
X129035023Y-132639404D01*
X128974547Y-132669642D01*
X128944309Y-132699880D01*
X128914071Y-132760357D01*
X128914071Y-132881309D01*
X128944309Y-132941785D01*
X128974547Y-132972023D01*
X129035023Y-133002261D01*
X129155976Y-133002261D01*
X129216452Y-132972023D01*
X129246690Y-132941785D01*
X129276928Y-132881309D01*
X129276928Y-132760357D01*
X129246690Y-132699880D01*
X129216452Y-132669642D01*
X129155976Y-132639404D01*
X114841261Y-129010833D02*
X114538880Y-129222500D01*
X114841261Y-129373690D02*
X114206261Y-129373690D01*
X114206261Y-129131785D01*
X114236500Y-129071309D01*
X114266738Y-129041071D01*
X114327214Y-129010833D01*
X114417928Y-129010833D01*
X114478404Y-129041071D01*
X114508642Y-129071309D01*
X114538880Y-129131785D01*
X114538880Y-129373690D01*
X114841261Y-128708452D02*
X114841261Y-128587500D01*
X114811023Y-128527023D01*
X114780785Y-128496785D01*
X114690071Y-128436309D01*
X114569119Y-128406071D01*
X114327214Y-128406071D01*
X114266738Y-128436309D01*
X114236500Y-128466547D01*
X114206261Y-128527023D01*
X114206261Y-128647976D01*
X114236500Y-128708452D01*
X114266738Y-128738690D01*
X114327214Y-128768928D01*
X114478404Y-128768928D01*
X114538880Y-128738690D01*
X114569119Y-128708452D01*
X114599357Y-128647976D01*
X114599357Y-128527023D01*
X114569119Y-128466547D01*
X114538880Y-128436309D01*
X114478404Y-128406071D01*
X128938261Y-137187214D02*
X128635880Y-137398880D01*
X128938261Y-137550071D02*
X128303261Y-137550071D01*
X128303261Y-137308166D01*
X128333500Y-137247690D01*
X128363738Y-137217452D01*
X128424214Y-137187214D01*
X128514928Y-137187214D01*
X128575404Y-137217452D01*
X128605642Y-137247690D01*
X128635880Y-137308166D01*
X128635880Y-137550071D01*
X128938261Y-136582452D02*
X128938261Y-136945309D01*
X128938261Y-136763880D02*
X128303261Y-136763880D01*
X128393976Y-136824357D01*
X128454452Y-136884833D01*
X128484690Y-136945309D01*
X128303261Y-136189357D02*
X128303261Y-136128880D01*
X128333500Y-136068404D01*
X128363738Y-136038166D01*
X128424214Y-136007928D01*
X128545166Y-135977690D01*
X128696357Y-135977690D01*
X128817309Y-136007928D01*
X128877785Y-136038166D01*
X128908023Y-136068404D01*
X128938261Y-136128880D01*
X128938261Y-136189357D01*
X128908023Y-136249833D01*
X128877785Y-136280071D01*
X128817309Y-136310309D01*
X128696357Y-136340547D01*
X128545166Y-136340547D01*
X128424214Y-136310309D01*
X128363738Y-136280071D01*
X128333500Y-136249833D01*
X128303261Y-136189357D01*
D22*
X114064142Y-72226714D02*
X113810142Y-71863857D01*
X113628714Y-72226714D02*
X113628714Y-71464714D01*
X113919000Y-71464714D01*
X113991571Y-71501000D01*
X114027857Y-71537285D01*
X114064142Y-71609857D01*
X114064142Y-71718714D01*
X114027857Y-71791285D01*
X113991571Y-71827571D01*
X113919000Y-71863857D01*
X113628714Y-71863857D01*
X114789857Y-72226714D02*
X114354428Y-72226714D01*
X114572142Y-72226714D02*
X114572142Y-71464714D01*
X114499571Y-71573571D01*
X114427000Y-71646142D01*
X114354428Y-71682428D01*
X115515571Y-72226714D02*
X115080142Y-72226714D01*
X115297857Y-72226714D02*
X115297857Y-71464714D01*
X115225285Y-71573571D01*
X115152714Y-71646142D01*
X115080142Y-71682428D01*
D21*
X129385785Y-128684261D02*
X129174119Y-128381880D01*
X129022928Y-128684261D02*
X129022928Y-128049261D01*
X129264833Y-128049261D01*
X129325309Y-128079500D01*
X129355547Y-128109738D01*
X129385785Y-128170214D01*
X129385785Y-128260928D01*
X129355547Y-128321404D01*
X129325309Y-128351642D01*
X129264833Y-128381880D01*
X129022928Y-128381880D01*
X129990547Y-128684261D02*
X129627690Y-128684261D01*
X129809119Y-128684261D02*
X129809119Y-128049261D01*
X129748642Y-128139976D01*
X129688166Y-128200452D01*
X129627690Y-128230690D01*
X130232452Y-128109738D02*
X130262690Y-128079500D01*
X130323166Y-128049261D01*
X130474357Y-128049261D01*
X130534833Y-128079500D01*
X130565071Y-128109738D01*
X130595309Y-128170214D01*
X130595309Y-128230690D01*
X130565071Y-128321404D01*
X130202214Y-128684261D01*
X130595309Y-128684261D01*
X135989785Y-130081261D02*
X135778119Y-129778880D01*
X135626928Y-130081261D02*
X135626928Y-129446261D01*
X135868833Y-129446261D01*
X135929309Y-129476500D01*
X135959547Y-129506738D01*
X135989785Y-129567214D01*
X135989785Y-129657928D01*
X135959547Y-129718404D01*
X135929309Y-129748642D01*
X135868833Y-129778880D01*
X135626928Y-129778880D01*
X136594547Y-130081261D02*
X136231690Y-130081261D01*
X136413119Y-130081261D02*
X136413119Y-129446261D01*
X136352642Y-129536976D01*
X136292166Y-129597452D01*
X136231690Y-129627690D01*
X136806214Y-129446261D02*
X137199309Y-129446261D01*
X136987642Y-129688166D01*
X137078357Y-129688166D01*
X137138833Y-129718404D01*
X137169071Y-129748642D01*
X137199309Y-129809119D01*
X137199309Y-129960309D01*
X137169071Y-130020785D01*
X137138833Y-130051023D01*
X137078357Y-130081261D01*
X136896928Y-130081261D01*
X136836452Y-130051023D01*
X136806214Y-130020785D01*
X79093785Y-94330761D02*
X78882119Y-94028380D01*
X78730928Y-94330761D02*
X78730928Y-93695761D01*
X78972833Y-93695761D01*
X79033309Y-93726000D01*
X79063547Y-93756238D01*
X79093785Y-93816714D01*
X79093785Y-93907428D01*
X79063547Y-93967904D01*
X79033309Y-93998142D01*
X78972833Y-94028380D01*
X78730928Y-94028380D01*
X79698547Y-94330761D02*
X79335690Y-94330761D01*
X79517119Y-94330761D02*
X79517119Y-93695761D01*
X79456642Y-93786476D01*
X79396166Y-93846952D01*
X79335690Y-93877190D01*
X80242833Y-93907428D02*
X80242833Y-94330761D01*
X80091642Y-93665523D02*
X79940452Y-94119095D01*
X80333547Y-94119095D01*
X116939785Y-128938261D02*
X116728119Y-128635880D01*
X116576928Y-128938261D02*
X116576928Y-128303261D01*
X116818833Y-128303261D01*
X116879309Y-128333500D01*
X116909547Y-128363738D01*
X116939785Y-128424214D01*
X116939785Y-128514928D01*
X116909547Y-128575404D01*
X116879309Y-128605642D01*
X116818833Y-128635880D01*
X116576928Y-128635880D01*
X117544547Y-128938261D02*
X117181690Y-128938261D01*
X117363119Y-128938261D02*
X117363119Y-128303261D01*
X117302642Y-128393976D01*
X117242166Y-128454452D01*
X117181690Y-128484690D01*
X118119071Y-128303261D02*
X117816690Y-128303261D01*
X117786452Y-128605642D01*
X117816690Y-128575404D01*
X117877166Y-128545166D01*
X118028357Y-128545166D01*
X118088833Y-128575404D01*
X118119071Y-128605642D01*
X118149309Y-128666119D01*
X118149309Y-128817309D01*
X118119071Y-128877785D01*
X118088833Y-128908023D01*
X118028357Y-128938261D01*
X117877166Y-128938261D01*
X117816690Y-128908023D01*
X117786452Y-128877785D01*
X78966785Y-104681261D02*
X78755119Y-104378880D01*
X78603928Y-104681261D02*
X78603928Y-104046261D01*
X78845833Y-104046261D01*
X78906309Y-104076500D01*
X78936547Y-104106738D01*
X78966785Y-104167214D01*
X78966785Y-104257928D01*
X78936547Y-104318404D01*
X78906309Y-104348642D01*
X78845833Y-104378880D01*
X78603928Y-104378880D01*
X79571547Y-104681261D02*
X79208690Y-104681261D01*
X79390119Y-104681261D02*
X79390119Y-104046261D01*
X79329642Y-104136976D01*
X79269166Y-104197452D01*
X79208690Y-104227690D01*
X80115833Y-104046261D02*
X79994880Y-104046261D01*
X79934404Y-104076500D01*
X79904166Y-104106738D01*
X79843690Y-104197452D01*
X79813452Y-104318404D01*
X79813452Y-104560309D01*
X79843690Y-104620785D01*
X79873928Y-104651023D01*
X79934404Y-104681261D01*
X80055357Y-104681261D01*
X80115833Y-104651023D01*
X80146071Y-104620785D01*
X80176309Y-104560309D01*
X80176309Y-104409119D01*
X80146071Y-104348642D01*
X80115833Y-104318404D01*
X80055357Y-104288166D01*
X79934404Y-104288166D01*
X79873928Y-104318404D01*
X79843690Y-104348642D01*
X79813452Y-104409119D01*
X122969261Y-119280214D02*
X122666880Y-119491880D01*
X122969261Y-119643071D02*
X122334261Y-119643071D01*
X122334261Y-119401166D01*
X122364500Y-119340690D01*
X122394738Y-119310452D01*
X122455214Y-119280214D01*
X122545928Y-119280214D01*
X122606404Y-119310452D01*
X122636642Y-119340690D01*
X122666880Y-119401166D01*
X122666880Y-119643071D01*
X122969261Y-118675452D02*
X122969261Y-119038309D01*
X122969261Y-118856880D02*
X122334261Y-118856880D01*
X122424976Y-118917357D01*
X122485452Y-118977833D01*
X122515690Y-119038309D01*
X122334261Y-118463785D02*
X122334261Y-118040452D01*
X122969261Y-118312595D01*
D22*
X88283142Y-135853714D02*
X88029142Y-135490857D01*
X87847714Y-135853714D02*
X87847714Y-135091714D01*
X88138000Y-135091714D01*
X88210571Y-135128000D01*
X88246857Y-135164285D01*
X88283142Y-135236857D01*
X88283142Y-135345714D01*
X88246857Y-135418285D01*
X88210571Y-135454571D01*
X88138000Y-135490857D01*
X87847714Y-135490857D01*
X89008857Y-135853714D02*
X88573428Y-135853714D01*
X88791142Y-135853714D02*
X88791142Y-135091714D01*
X88718571Y-135200571D01*
X88646000Y-135273142D01*
X88573428Y-135309428D01*
X89444285Y-135418285D02*
X89371714Y-135382000D01*
X89335428Y-135345714D01*
X89299142Y-135273142D01*
X89299142Y-135236857D01*
X89335428Y-135164285D01*
X89371714Y-135128000D01*
X89444285Y-135091714D01*
X89589428Y-135091714D01*
X89662000Y-135128000D01*
X89698285Y-135164285D01*
X89734571Y-135236857D01*
X89734571Y-135273142D01*
X89698285Y-135345714D01*
X89662000Y-135382000D01*
X89589428Y-135418285D01*
X89444285Y-135418285D01*
X89371714Y-135454571D01*
X89335428Y-135490857D01*
X89299142Y-135563428D01*
X89299142Y-135708571D01*
X89335428Y-135781142D01*
X89371714Y-135817428D01*
X89444285Y-135853714D01*
X89589428Y-135853714D01*
X89662000Y-135817428D01*
X89698285Y-135781142D01*
X89734571Y-135708571D01*
X89734571Y-135563428D01*
X89698285Y-135490857D01*
X89662000Y-135454571D01*
X89589428Y-135418285D01*
X89879714Y-128759857D02*
X89516857Y-129013857D01*
X89879714Y-129195285D02*
X89117714Y-129195285D01*
X89117714Y-128905000D01*
X89154000Y-128832428D01*
X89190285Y-128796142D01*
X89262857Y-128759857D01*
X89371714Y-128759857D01*
X89444285Y-128796142D01*
X89480571Y-128832428D01*
X89516857Y-128905000D01*
X89516857Y-129195285D01*
X89190285Y-128469571D02*
X89154000Y-128433285D01*
X89117714Y-128360714D01*
X89117714Y-128179285D01*
X89154000Y-128106714D01*
X89190285Y-128070428D01*
X89262857Y-128034142D01*
X89335428Y-128034142D01*
X89444285Y-128070428D01*
X89879714Y-128505857D01*
X89879714Y-128034142D01*
X89879714Y-127308428D02*
X89879714Y-127743857D01*
X89879714Y-127526142D02*
X89117714Y-127526142D01*
X89226571Y-127598714D01*
X89299142Y-127671285D01*
X89335428Y-127743857D01*
D21*
X112555261Y-125122214D02*
X112252880Y-125333880D01*
X112555261Y-125485071D02*
X111920261Y-125485071D01*
X111920261Y-125243166D01*
X111950500Y-125182690D01*
X111980738Y-125152452D01*
X112041214Y-125122214D01*
X112131928Y-125122214D01*
X112192404Y-125152452D01*
X112222642Y-125182690D01*
X112252880Y-125243166D01*
X112252880Y-125485071D01*
X111980738Y-124880309D02*
X111950500Y-124850071D01*
X111920261Y-124789595D01*
X111920261Y-124638404D01*
X111950500Y-124577928D01*
X111980738Y-124547690D01*
X112041214Y-124517452D01*
X112101690Y-124517452D01*
X112192404Y-124547690D01*
X112555261Y-124910547D01*
X112555261Y-124517452D01*
X111980738Y-124275547D02*
X111950500Y-124245309D01*
X111920261Y-124184833D01*
X111920261Y-124033642D01*
X111950500Y-123973166D01*
X111980738Y-123942928D01*
X112041214Y-123912690D01*
X112101690Y-123912690D01*
X112192404Y-123942928D01*
X112555261Y-124305785D01*
X112555261Y-123912690D01*
X95730785Y-136050261D02*
X95519119Y-135747880D01*
X95367928Y-136050261D02*
X95367928Y-135415261D01*
X95609833Y-135415261D01*
X95670309Y-135445500D01*
X95700547Y-135475738D01*
X95730785Y-135536214D01*
X95730785Y-135626928D01*
X95700547Y-135687404D01*
X95670309Y-135717642D01*
X95609833Y-135747880D01*
X95367928Y-135747880D01*
X95972690Y-135475738D02*
X96002928Y-135445500D01*
X96063404Y-135415261D01*
X96214595Y-135415261D01*
X96275071Y-135445500D01*
X96305309Y-135475738D01*
X96335547Y-135536214D01*
X96335547Y-135596690D01*
X96305309Y-135687404D01*
X95942452Y-136050261D01*
X96335547Y-136050261D01*
X96547214Y-135415261D02*
X96940309Y-135415261D01*
X96728642Y-135657166D01*
X96819357Y-135657166D01*
X96879833Y-135687404D01*
X96910071Y-135717642D01*
X96940309Y-135778119D01*
X96940309Y-135929309D01*
X96910071Y-135989785D01*
X96879833Y-136020023D01*
X96819357Y-136050261D01*
X96637928Y-136050261D01*
X96577452Y-136020023D01*
X96547214Y-135989785D01*
X87028261Y-100103214D02*
X86725880Y-100314880D01*
X87028261Y-100466071D02*
X86393261Y-100466071D01*
X86393261Y-100224166D01*
X86423500Y-100163690D01*
X86453738Y-100133452D01*
X86514214Y-100103214D01*
X86604928Y-100103214D01*
X86665404Y-100133452D01*
X86695642Y-100163690D01*
X86725880Y-100224166D01*
X86725880Y-100466071D01*
X86453738Y-99861309D02*
X86423500Y-99831071D01*
X86393261Y-99770595D01*
X86393261Y-99619404D01*
X86423500Y-99558928D01*
X86453738Y-99528690D01*
X86514214Y-99498452D01*
X86574690Y-99498452D01*
X86665404Y-99528690D01*
X87028261Y-99891547D01*
X87028261Y-99498452D01*
X86604928Y-98954166D02*
X87028261Y-98954166D01*
X86363023Y-99105357D02*
X86816595Y-99256547D01*
X86816595Y-98863452D01*
D22*
X90387714Y-72879857D02*
X90024857Y-73133857D01*
X90387714Y-73315285D02*
X89625714Y-73315285D01*
X89625714Y-73025000D01*
X89662000Y-72952428D01*
X89698285Y-72916142D01*
X89770857Y-72879857D01*
X89879714Y-72879857D01*
X89952285Y-72916142D01*
X89988571Y-72952428D01*
X90024857Y-73025000D01*
X90024857Y-73315285D01*
X89698285Y-72589571D02*
X89662000Y-72553285D01*
X89625714Y-72480714D01*
X89625714Y-72299285D01*
X89662000Y-72226714D01*
X89698285Y-72190428D01*
X89770857Y-72154142D01*
X89843428Y-72154142D01*
X89952285Y-72190428D01*
X90387714Y-72625857D01*
X90387714Y-72154142D01*
X89625714Y-71501000D02*
X89625714Y-71646142D01*
X89662000Y-71718714D01*
X89698285Y-71755000D01*
X89807142Y-71827571D01*
X89952285Y-71863857D01*
X90242571Y-71863857D01*
X90315142Y-71827571D01*
X90351428Y-71791285D01*
X90387714Y-71718714D01*
X90387714Y-71573571D01*
X90351428Y-71501000D01*
X90315142Y-71464714D01*
X90242571Y-71428428D01*
X90061142Y-71428428D01*
X89988571Y-71464714D01*
X89952285Y-71501000D01*
X89916000Y-71573571D01*
X89916000Y-71718714D01*
X89952285Y-71791285D01*
X89988571Y-71827571D01*
X90061142Y-71863857D01*
X114644714Y-85452857D02*
X114281857Y-85706857D01*
X114644714Y-85888285D02*
X113882714Y-85888285D01*
X113882714Y-85598000D01*
X113919000Y-85525428D01*
X113955285Y-85489142D01*
X114027857Y-85452857D01*
X114136714Y-85452857D01*
X114209285Y-85489142D01*
X114245571Y-85525428D01*
X114281857Y-85598000D01*
X114281857Y-85888285D01*
X113955285Y-85162571D02*
X113919000Y-85126285D01*
X113882714Y-85053714D01*
X113882714Y-84872285D01*
X113919000Y-84799714D01*
X113955285Y-84763428D01*
X114027857Y-84727142D01*
X114100428Y-84727142D01*
X114209285Y-84763428D01*
X114644714Y-85198857D01*
X114644714Y-84727142D01*
X113882714Y-84473142D02*
X113882714Y-83965142D01*
X114644714Y-84291714D01*
D21*
X98839261Y-94515214D02*
X98536880Y-94726880D01*
X98839261Y-94878071D02*
X98204261Y-94878071D01*
X98204261Y-94636166D01*
X98234500Y-94575690D01*
X98264738Y-94545452D01*
X98325214Y-94515214D01*
X98415928Y-94515214D01*
X98476404Y-94545452D01*
X98506642Y-94575690D01*
X98536880Y-94636166D01*
X98536880Y-94878071D01*
X98264738Y-94273309D02*
X98234500Y-94243071D01*
X98204261Y-94182595D01*
X98204261Y-94031404D01*
X98234500Y-93970928D01*
X98264738Y-93940690D01*
X98325214Y-93910452D01*
X98385690Y-93910452D01*
X98476404Y-93940690D01*
X98839261Y-94303547D01*
X98839261Y-93910452D01*
X98476404Y-93547595D02*
X98446166Y-93608071D01*
X98415928Y-93638309D01*
X98355452Y-93668547D01*
X98325214Y-93668547D01*
X98264738Y-93638309D01*
X98234500Y-93608071D01*
X98204261Y-93547595D01*
X98204261Y-93426642D01*
X98234500Y-93366166D01*
X98264738Y-93335928D01*
X98325214Y-93305690D01*
X98355452Y-93305690D01*
X98415928Y-93335928D01*
X98446166Y-93366166D01*
X98476404Y-93426642D01*
X98476404Y-93547595D01*
X98506642Y-93608071D01*
X98536880Y-93638309D01*
X98597357Y-93668547D01*
X98718309Y-93668547D01*
X98778785Y-93638309D01*
X98809023Y-93608071D01*
X98839261Y-93547595D01*
X98839261Y-93426642D01*
X98809023Y-93366166D01*
X98778785Y-93335928D01*
X98718309Y-93305690D01*
X98597357Y-93305690D01*
X98536880Y-93335928D01*
X98506642Y-93366166D01*
X98476404Y-93426642D01*
D22*
X85616142Y-117692714D02*
X85362142Y-117329857D01*
X85180714Y-117692714D02*
X85180714Y-116930714D01*
X85471000Y-116930714D01*
X85543571Y-116967000D01*
X85579857Y-117003285D01*
X85616142Y-117075857D01*
X85616142Y-117184714D01*
X85579857Y-117257285D01*
X85543571Y-117293571D01*
X85471000Y-117329857D01*
X85180714Y-117329857D01*
X85906428Y-117003285D02*
X85942714Y-116967000D01*
X86015285Y-116930714D01*
X86196714Y-116930714D01*
X86269285Y-116967000D01*
X86305571Y-117003285D01*
X86341857Y-117075857D01*
X86341857Y-117148428D01*
X86305571Y-117257285D01*
X85870142Y-117692714D01*
X86341857Y-117692714D01*
X86704714Y-117692714D02*
X86849857Y-117692714D01*
X86922428Y-117656428D01*
X86958714Y-117620142D01*
X87031285Y-117511285D01*
X87067571Y-117366142D01*
X87067571Y-117075857D01*
X87031285Y-117003285D01*
X86995000Y-116967000D01*
X86922428Y-116930714D01*
X86777285Y-116930714D01*
X86704714Y-116967000D01*
X86668428Y-117003285D01*
X86632142Y-117075857D01*
X86632142Y-117257285D01*
X86668428Y-117329857D01*
X86704714Y-117366142D01*
X86777285Y-117402428D01*
X86922428Y-117402428D01*
X86995000Y-117366142D01*
X87031285Y-117329857D01*
X87067571Y-117257285D01*
D21*
X96553261Y-94515214D02*
X96250880Y-94726880D01*
X96553261Y-94878071D02*
X95918261Y-94878071D01*
X95918261Y-94636166D01*
X95948500Y-94575690D01*
X95978738Y-94545452D01*
X96039214Y-94515214D01*
X96129928Y-94515214D01*
X96190404Y-94545452D01*
X96220642Y-94575690D01*
X96250880Y-94636166D01*
X96250880Y-94878071D01*
X95918261Y-94303547D02*
X95918261Y-93910452D01*
X96160166Y-94122119D01*
X96160166Y-94031404D01*
X96190404Y-93970928D01*
X96220642Y-93940690D01*
X96281119Y-93910452D01*
X96432309Y-93910452D01*
X96492785Y-93940690D01*
X96523023Y-93970928D01*
X96553261Y-94031404D01*
X96553261Y-94212833D01*
X96523023Y-94273309D01*
X96492785Y-94303547D01*
X96553261Y-93305690D02*
X96553261Y-93668547D01*
X96553261Y-93487119D02*
X95918261Y-93487119D01*
X96008976Y-93547595D01*
X96069452Y-93608071D01*
X96099690Y-93668547D01*
X102649261Y-94515214D02*
X102346880Y-94726880D01*
X102649261Y-94878071D02*
X102014261Y-94878071D01*
X102014261Y-94636166D01*
X102044500Y-94575690D01*
X102074738Y-94545452D01*
X102135214Y-94515214D01*
X102225928Y-94515214D01*
X102286404Y-94545452D01*
X102316642Y-94575690D01*
X102346880Y-94636166D01*
X102346880Y-94878071D01*
X102014261Y-94303547D02*
X102014261Y-93910452D01*
X102256166Y-94122119D01*
X102256166Y-94031404D01*
X102286404Y-93970928D01*
X102316642Y-93940690D01*
X102377119Y-93910452D01*
X102528309Y-93910452D01*
X102588785Y-93940690D01*
X102619023Y-93970928D01*
X102649261Y-94031404D01*
X102649261Y-94212833D01*
X102619023Y-94273309D01*
X102588785Y-94303547D01*
X102074738Y-93668547D02*
X102044500Y-93638309D01*
X102014261Y-93577833D01*
X102014261Y-93426642D01*
X102044500Y-93366166D01*
X102074738Y-93335928D01*
X102135214Y-93305690D01*
X102195690Y-93305690D01*
X102286404Y-93335928D01*
X102649261Y-93698785D01*
X102649261Y-93305690D01*
X100363261Y-94515214D02*
X100060880Y-94726880D01*
X100363261Y-94878071D02*
X99728261Y-94878071D01*
X99728261Y-94636166D01*
X99758500Y-94575690D01*
X99788738Y-94545452D01*
X99849214Y-94515214D01*
X99939928Y-94515214D01*
X100000404Y-94545452D01*
X100030642Y-94575690D01*
X100060880Y-94636166D01*
X100060880Y-94878071D01*
X99728261Y-94303547D02*
X99728261Y-93910452D01*
X99970166Y-94122119D01*
X99970166Y-94031404D01*
X100000404Y-93970928D01*
X100030642Y-93940690D01*
X100091119Y-93910452D01*
X100242309Y-93910452D01*
X100302785Y-93940690D01*
X100333023Y-93970928D01*
X100363261Y-94031404D01*
X100363261Y-94212833D01*
X100333023Y-94273309D01*
X100302785Y-94303547D01*
X99728261Y-93698785D02*
X99728261Y-93305690D01*
X99970166Y-93517357D01*
X99970166Y-93426642D01*
X100000404Y-93366166D01*
X100030642Y-93335928D01*
X100091119Y-93305690D01*
X100242309Y-93305690D01*
X100302785Y-93335928D01*
X100333023Y-93366166D01*
X100363261Y-93426642D01*
X100363261Y-93608071D01*
X100333023Y-93668547D01*
X100302785Y-93698785D01*
D22*
X89045142Y-105373714D02*
X88791142Y-105010857D01*
X88609714Y-105373714D02*
X88609714Y-104611714D01*
X88900000Y-104611714D01*
X88972571Y-104648000D01*
X89008857Y-104684285D01*
X89045142Y-104756857D01*
X89045142Y-104865714D01*
X89008857Y-104938285D01*
X88972571Y-104974571D01*
X88900000Y-105010857D01*
X88609714Y-105010857D01*
X89299142Y-104611714D02*
X89770857Y-104611714D01*
X89516857Y-104902000D01*
X89625714Y-104902000D01*
X89698285Y-104938285D01*
X89734571Y-104974571D01*
X89770857Y-105047142D01*
X89770857Y-105228571D01*
X89734571Y-105301142D01*
X89698285Y-105337428D01*
X89625714Y-105373714D01*
X89408000Y-105373714D01*
X89335428Y-105337428D01*
X89299142Y-105301142D01*
X90424000Y-104865714D02*
X90424000Y-105373714D01*
X90242571Y-104575428D02*
X90061142Y-105119714D01*
X90532857Y-105119714D01*
X111397142Y-123153714D02*
X111143142Y-122790857D01*
X110961714Y-123153714D02*
X110961714Y-122391714D01*
X111252000Y-122391714D01*
X111324571Y-122428000D01*
X111360857Y-122464285D01*
X111397142Y-122536857D01*
X111397142Y-122645714D01*
X111360857Y-122718285D01*
X111324571Y-122754571D01*
X111252000Y-122790857D01*
X110961714Y-122790857D01*
X111651142Y-122391714D02*
X112122857Y-122391714D01*
X111868857Y-122682000D01*
X111977714Y-122682000D01*
X112050285Y-122718285D01*
X112086571Y-122754571D01*
X112122857Y-122827142D01*
X112122857Y-123008571D01*
X112086571Y-123081142D01*
X112050285Y-123117428D01*
X111977714Y-123153714D01*
X111760000Y-123153714D01*
X111687428Y-123117428D01*
X111651142Y-123081142D01*
X112812285Y-122391714D02*
X112449428Y-122391714D01*
X112413142Y-122754571D01*
X112449428Y-122718285D01*
X112522000Y-122682000D01*
X112703428Y-122682000D01*
X112776000Y-122718285D01*
X112812285Y-122754571D01*
X112848571Y-122827142D01*
X112848571Y-123008571D01*
X112812285Y-123081142D01*
X112776000Y-123117428D01*
X112703428Y-123153714D01*
X112522000Y-123153714D01*
X112449428Y-123117428D01*
X112413142Y-123081142D01*
D21*
X85824785Y-95918261D02*
X85613119Y-95615880D01*
X85461928Y-95918261D02*
X85461928Y-95283261D01*
X85703833Y-95283261D01*
X85764309Y-95313500D01*
X85794547Y-95343738D01*
X85824785Y-95404214D01*
X85824785Y-95494928D01*
X85794547Y-95555404D01*
X85764309Y-95585642D01*
X85703833Y-95615880D01*
X85461928Y-95615880D01*
X86036452Y-95283261D02*
X86429547Y-95283261D01*
X86217880Y-95525166D01*
X86308595Y-95525166D01*
X86369071Y-95555404D01*
X86399309Y-95585642D01*
X86429547Y-95646119D01*
X86429547Y-95797309D01*
X86399309Y-95857785D01*
X86369071Y-95888023D01*
X86308595Y-95918261D01*
X86127166Y-95918261D01*
X86066690Y-95888023D01*
X86036452Y-95857785D01*
X86973833Y-95283261D02*
X86852880Y-95283261D01*
X86792404Y-95313500D01*
X86762166Y-95343738D01*
X86701690Y-95434452D01*
X86671452Y-95555404D01*
X86671452Y-95797309D01*
X86701690Y-95857785D01*
X86731928Y-95888023D01*
X86792404Y-95918261D01*
X86913357Y-95918261D01*
X86973833Y-95888023D01*
X87004071Y-95857785D01*
X87034309Y-95797309D01*
X87034309Y-95646119D01*
X87004071Y-95585642D01*
X86973833Y-95555404D01*
X86913357Y-95525166D01*
X86792404Y-95525166D01*
X86731928Y-95555404D01*
X86701690Y-95585642D01*
X86671452Y-95646119D01*
D22*
X108222142Y-100928714D02*
X107968142Y-100565857D01*
X107786714Y-100928714D02*
X107786714Y-100166714D01*
X108077000Y-100166714D01*
X108149571Y-100203000D01*
X108185857Y-100239285D01*
X108222142Y-100311857D01*
X108222142Y-100420714D01*
X108185857Y-100493285D01*
X108149571Y-100529571D01*
X108077000Y-100565857D01*
X107786714Y-100565857D01*
X108476142Y-100166714D02*
X108947857Y-100166714D01*
X108693857Y-100457000D01*
X108802714Y-100457000D01*
X108875285Y-100493285D01*
X108911571Y-100529571D01*
X108947857Y-100602142D01*
X108947857Y-100783571D01*
X108911571Y-100856142D01*
X108875285Y-100892428D01*
X108802714Y-100928714D01*
X108585000Y-100928714D01*
X108512428Y-100892428D01*
X108476142Y-100856142D01*
X109383285Y-100493285D02*
X109310714Y-100457000D01*
X109274428Y-100420714D01*
X109238142Y-100348142D01*
X109238142Y-100311857D01*
X109274428Y-100239285D01*
X109310714Y-100203000D01*
X109383285Y-100166714D01*
X109528428Y-100166714D01*
X109601000Y-100203000D01*
X109637285Y-100239285D01*
X109673571Y-100311857D01*
X109673571Y-100348142D01*
X109637285Y-100420714D01*
X109601000Y-100457000D01*
X109528428Y-100493285D01*
X109383285Y-100493285D01*
X109310714Y-100529571D01*
X109274428Y-100565857D01*
X109238142Y-100638428D01*
X109238142Y-100783571D01*
X109274428Y-100856142D01*
X109310714Y-100892428D01*
X109383285Y-100928714D01*
X109528428Y-100928714D01*
X109601000Y-100892428D01*
X109637285Y-100856142D01*
X109673571Y-100783571D01*
X109673571Y-100638428D01*
X109637285Y-100565857D01*
X109601000Y-100529571D01*
X109528428Y-100493285D01*
D21*
X90650785Y-93378261D02*
X90439119Y-93075880D01*
X90287928Y-93378261D02*
X90287928Y-92743261D01*
X90529833Y-92743261D01*
X90590309Y-92773500D01*
X90620547Y-92803738D01*
X90650785Y-92864214D01*
X90650785Y-92954928D01*
X90620547Y-93015404D01*
X90590309Y-93045642D01*
X90529833Y-93075880D01*
X90287928Y-93075880D01*
X90862452Y-92743261D02*
X91255547Y-92743261D01*
X91043880Y-92985166D01*
X91134595Y-92985166D01*
X91195071Y-93015404D01*
X91225309Y-93045642D01*
X91255547Y-93106119D01*
X91255547Y-93257309D01*
X91225309Y-93317785D01*
X91195071Y-93348023D01*
X91134595Y-93378261D01*
X90953166Y-93378261D01*
X90892690Y-93348023D01*
X90862452Y-93317785D01*
X91557928Y-93378261D02*
X91678880Y-93378261D01*
X91739357Y-93348023D01*
X91769595Y-93317785D01*
X91830071Y-93227071D01*
X91860309Y-93106119D01*
X91860309Y-92864214D01*
X91830071Y-92803738D01*
X91799833Y-92773500D01*
X91739357Y-92743261D01*
X91618404Y-92743261D01*
X91557928Y-92773500D01*
X91527690Y-92803738D01*
X91497452Y-92864214D01*
X91497452Y-93015404D01*
X91527690Y-93075880D01*
X91557928Y-93106119D01*
X91618404Y-93136357D01*
X91739357Y-93136357D01*
X91799833Y-93106119D01*
X91830071Y-93075880D01*
X91860309Y-93015404D01*
D22*
X111397142Y-121629714D02*
X111143142Y-121266857D01*
X110961714Y-121629714D02*
X110961714Y-120867714D01*
X111252000Y-120867714D01*
X111324571Y-120904000D01*
X111360857Y-120940285D01*
X111397142Y-121012857D01*
X111397142Y-121121714D01*
X111360857Y-121194285D01*
X111324571Y-121230571D01*
X111252000Y-121266857D01*
X110961714Y-121266857D01*
X112050285Y-121121714D02*
X112050285Y-121629714D01*
X111868857Y-120831428D02*
X111687428Y-121375714D01*
X112159142Y-121375714D01*
X112594571Y-120867714D02*
X112667142Y-120867714D01*
X112739714Y-120904000D01*
X112776000Y-120940285D01*
X112812285Y-121012857D01*
X112848571Y-121158000D01*
X112848571Y-121339428D01*
X112812285Y-121484571D01*
X112776000Y-121557142D01*
X112739714Y-121593428D01*
X112667142Y-121629714D01*
X112594571Y-121629714D01*
X112522000Y-121593428D01*
X112485714Y-121557142D01*
X112449428Y-121484571D01*
X112413142Y-121339428D01*
X112413142Y-121158000D01*
X112449428Y-121012857D01*
X112485714Y-120940285D01*
X112522000Y-120904000D01*
X112594571Y-120867714D01*
D21*
X96238785Y-116111261D02*
X96027119Y-115808880D01*
X95875928Y-116111261D02*
X95875928Y-115476261D01*
X96117833Y-115476261D01*
X96178309Y-115506500D01*
X96208547Y-115536738D01*
X96238785Y-115597214D01*
X96238785Y-115687928D01*
X96208547Y-115748404D01*
X96178309Y-115778642D01*
X96117833Y-115808880D01*
X95875928Y-115808880D01*
X96783071Y-115687928D02*
X96783071Y-116111261D01*
X96631880Y-115446023D02*
X96480690Y-115899595D01*
X96873785Y-115899595D01*
X97448309Y-116111261D02*
X97085452Y-116111261D01*
X97266880Y-116111261D02*
X97266880Y-115476261D01*
X97206404Y-115566976D01*
X97145928Y-115627452D01*
X97085452Y-115657690D01*
D22*
X88464571Y-108802714D02*
X88210571Y-108439857D01*
X88029142Y-108802714D02*
X88029142Y-108040714D01*
X88319428Y-108040714D01*
X88392000Y-108077000D01*
X88428285Y-108113285D01*
X88464571Y-108185857D01*
X88464571Y-108294714D01*
X88428285Y-108367285D01*
X88392000Y-108403571D01*
X88319428Y-108439857D01*
X88029142Y-108439857D01*
X88791142Y-108802714D02*
X88791142Y-108040714D01*
X89045142Y-108585000D01*
X89299142Y-108040714D01*
X89299142Y-108802714D01*
X90061142Y-108802714D02*
X89625714Y-108802714D01*
X89843428Y-108802714D02*
X89843428Y-108040714D01*
X89770857Y-108149571D01*
X89698285Y-108222142D01*
X89625714Y-108258428D01*
X94052571Y-106770714D02*
X93798571Y-106407857D01*
X93617142Y-106770714D02*
X93617142Y-106008714D01*
X93907428Y-106008714D01*
X93980000Y-106045000D01*
X94016285Y-106081285D01*
X94052571Y-106153857D01*
X94052571Y-106262714D01*
X94016285Y-106335285D01*
X93980000Y-106371571D01*
X93907428Y-106407857D01*
X93617142Y-106407857D01*
X94379142Y-106770714D02*
X94379142Y-106008714D01*
X94633142Y-106553000D01*
X94887142Y-106008714D01*
X94887142Y-106770714D01*
X95213714Y-106081285D02*
X95250000Y-106045000D01*
X95322571Y-106008714D01*
X95504000Y-106008714D01*
X95576571Y-106045000D01*
X95612857Y-106081285D01*
X95649142Y-106153857D01*
X95649142Y-106226428D01*
X95612857Y-106335285D01*
X95177428Y-106770714D01*
X95649142Y-106770714D01*
X100402571Y-106770714D02*
X100148571Y-106407857D01*
X99967142Y-106770714D02*
X99967142Y-106008714D01*
X100257428Y-106008714D01*
X100330000Y-106045000D01*
X100366285Y-106081285D01*
X100402571Y-106153857D01*
X100402571Y-106262714D01*
X100366285Y-106335285D01*
X100330000Y-106371571D01*
X100257428Y-106407857D01*
X99967142Y-106407857D01*
X100729142Y-106770714D02*
X100729142Y-106008714D01*
X100983142Y-106553000D01*
X101237142Y-106008714D01*
X101237142Y-106770714D01*
X101527428Y-106008714D02*
X101999142Y-106008714D01*
X101745142Y-106299000D01*
X101854000Y-106299000D01*
X101926571Y-106335285D01*
X101962857Y-106371571D01*
X101999142Y-106444142D01*
X101999142Y-106625571D01*
X101962857Y-106698142D01*
X101926571Y-106734428D01*
X101854000Y-106770714D01*
X101636285Y-106770714D01*
X101563714Y-106734428D01*
X101527428Y-106698142D01*
D11*
X113398904Y-118569619D02*
X113398904Y-119392095D01*
X113447285Y-119488857D01*
X113495666Y-119537238D01*
X113592428Y-119585619D01*
X113785952Y-119585619D01*
X113882714Y-119537238D01*
X113931095Y-119488857D01*
X113979476Y-119392095D01*
X113979476Y-118569619D01*
X114414904Y-118666380D02*
X114463285Y-118618000D01*
X114560047Y-118569619D01*
X114801952Y-118569619D01*
X114898714Y-118618000D01*
X114947095Y-118666380D01*
X114995476Y-118763142D01*
X114995476Y-118859904D01*
X114947095Y-119005047D01*
X114366523Y-119585619D01*
X114995476Y-119585619D01*
X80596619Y-135309428D02*
X80935285Y-135309428D01*
X81080428Y-135841619D02*
X80596619Y-135841619D01*
X80596619Y-134825619D01*
X81080428Y-134825619D01*
X81419095Y-134825619D02*
X82096428Y-135841619D01*
X82096428Y-134825619D02*
X81419095Y-135841619D01*
X82338333Y-134825619D02*
X82918904Y-134825619D01*
X82628619Y-135841619D02*
X82628619Y-134825619D01*
X83789761Y-135841619D02*
X83209190Y-135841619D01*
X83499476Y-135841619D02*
X83499476Y-134825619D01*
X83402714Y-134970761D01*
X83305952Y-135067523D01*
X83209190Y-135115904D01*
D22*
X88410142Y-110580714D02*
X88156142Y-110217857D01*
X87974714Y-110580714D02*
X87974714Y-109818714D01*
X88265000Y-109818714D01*
X88337571Y-109855000D01*
X88373857Y-109891285D01*
X88410142Y-109963857D01*
X88410142Y-110072714D01*
X88373857Y-110145285D01*
X88337571Y-110181571D01*
X88265000Y-110217857D01*
X87974714Y-110217857D01*
X89063285Y-110072714D02*
X89063285Y-110580714D01*
X88881857Y-109782428D02*
X88700428Y-110326714D01*
X89172142Y-110326714D01*
X89389857Y-109818714D02*
X89861571Y-109818714D01*
X89607571Y-110109000D01*
X89716428Y-110109000D01*
X89789000Y-110145285D01*
X89825285Y-110181571D01*
X89861571Y-110254142D01*
X89861571Y-110435571D01*
X89825285Y-110508142D01*
X89789000Y-110544428D01*
X89716428Y-110580714D01*
X89498714Y-110580714D01*
X89426142Y-110544428D01*
X89389857Y-110508142D01*
D11*
X70666428Y-95945476D02*
X70714809Y-95800333D01*
X70763190Y-95751952D01*
X70859952Y-95703571D01*
X71005095Y-95703571D01*
X71101857Y-95751952D01*
X71150238Y-95800333D01*
X71198619Y-95897095D01*
X71198619Y-96284142D01*
X70182619Y-96284142D01*
X70182619Y-95945476D01*
X70231000Y-95848714D01*
X70279380Y-95800333D01*
X70376142Y-95751952D01*
X70472904Y-95751952D01*
X70569666Y-95800333D01*
X70618047Y-95848714D01*
X70666428Y-95945476D01*
X70666428Y-96284142D01*
X70182619Y-95268142D02*
X71005095Y-95268142D01*
X71101857Y-95219761D01*
X71150238Y-95171380D01*
X71198619Y-95074619D01*
X71198619Y-94881095D01*
X71150238Y-94784333D01*
X71101857Y-94735952D01*
X71005095Y-94687571D01*
X70182619Y-94687571D01*
X70182619Y-94348904D02*
X70182619Y-93768333D01*
X71198619Y-94058619D02*
X70182619Y-94058619D01*
X71198619Y-92897476D02*
X71198619Y-93478047D01*
X71198619Y-93187761D02*
X70182619Y-93187761D01*
X70327761Y-93284523D01*
X70424523Y-93381285D01*
X70472904Y-93478047D01*
X71198619Y-101243190D02*
X70714809Y-101581857D01*
X71198619Y-101823761D02*
X70182619Y-101823761D01*
X70182619Y-101436714D01*
X70231000Y-101339952D01*
X70279380Y-101291571D01*
X70376142Y-101243190D01*
X70521285Y-101243190D01*
X70618047Y-101291571D01*
X70666428Y-101339952D01*
X70714809Y-101436714D01*
X70714809Y-101823761D01*
X71150238Y-100856142D02*
X71198619Y-100711000D01*
X71198619Y-100469095D01*
X71150238Y-100372333D01*
X71101857Y-100323952D01*
X71005095Y-100275571D01*
X70908333Y-100275571D01*
X70811571Y-100323952D01*
X70763190Y-100372333D01*
X70714809Y-100469095D01*
X70666428Y-100662619D01*
X70618047Y-100759380D01*
X70569666Y-100807761D01*
X70472904Y-100856142D01*
X70376142Y-100856142D01*
X70279380Y-100807761D01*
X70231000Y-100759380D01*
X70182619Y-100662619D01*
X70182619Y-100420714D01*
X70231000Y-100275571D01*
X70182619Y-99985285D02*
X70182619Y-99404714D01*
X71198619Y-99695000D02*
X70182619Y-99695000D01*
X71198619Y-98533857D02*
X71198619Y-99114428D01*
X71198619Y-98824142D02*
X70182619Y-98824142D01*
X70327761Y-98920904D01*
X70424523Y-99017666D01*
X70472904Y-99114428D01*
D22*
X90696142Y-82441142D02*
X90659857Y-82477428D01*
X90551000Y-82513714D01*
X90478428Y-82513714D01*
X90369571Y-82477428D01*
X90297000Y-82404857D01*
X90260714Y-82332285D01*
X90224428Y-82187142D01*
X90224428Y-82078285D01*
X90260714Y-81933142D01*
X90297000Y-81860571D01*
X90369571Y-81788000D01*
X90478428Y-81751714D01*
X90551000Y-81751714D01*
X90659857Y-81788000D01*
X90696142Y-81824285D01*
X91421857Y-82513714D02*
X90986428Y-82513714D01*
X91204142Y-82513714D02*
X91204142Y-81751714D01*
X91131571Y-81860571D01*
X91059000Y-81933142D01*
X90986428Y-81969428D01*
X91784714Y-82513714D02*
X91929857Y-82513714D01*
X92002428Y-82477428D01*
X92038714Y-82441142D01*
X92111285Y-82332285D01*
X92147571Y-82187142D01*
X92147571Y-81896857D01*
X92111285Y-81824285D01*
X92075000Y-81788000D01*
X92002428Y-81751714D01*
X91857285Y-81751714D01*
X91784714Y-81788000D01*
X91748428Y-81824285D01*
X91712142Y-81896857D01*
X91712142Y-82078285D01*
X91748428Y-82150857D01*
X91784714Y-82187142D01*
X91857285Y-82223428D01*
X92002428Y-82223428D01*
X92075000Y-82187142D01*
X92111285Y-82150857D01*
X92147571Y-82078285D01*
X90696142Y-81044142D02*
X90659857Y-81080428D01*
X90551000Y-81116714D01*
X90478428Y-81116714D01*
X90369571Y-81080428D01*
X90297000Y-81007857D01*
X90260714Y-80935285D01*
X90224428Y-80790142D01*
X90224428Y-80681285D01*
X90260714Y-80536142D01*
X90297000Y-80463571D01*
X90369571Y-80391000D01*
X90478428Y-80354714D01*
X90551000Y-80354714D01*
X90659857Y-80391000D01*
X90696142Y-80427285D01*
X90986428Y-80427285D02*
X91022714Y-80391000D01*
X91095285Y-80354714D01*
X91276714Y-80354714D01*
X91349285Y-80391000D01*
X91385571Y-80427285D01*
X91421857Y-80499857D01*
X91421857Y-80572428D01*
X91385571Y-80681285D01*
X90950142Y-81116714D01*
X91421857Y-81116714D01*
X91893571Y-80354714D02*
X91966142Y-80354714D01*
X92038714Y-80391000D01*
X92075000Y-80427285D01*
X92111285Y-80499857D01*
X92147571Y-80645000D01*
X92147571Y-80826428D01*
X92111285Y-80971571D01*
X92075000Y-81044142D01*
X92038714Y-81080428D01*
X91966142Y-81116714D01*
X91893571Y-81116714D01*
X91821000Y-81080428D01*
X91784714Y-81044142D01*
X91748428Y-80971571D01*
X91712142Y-80826428D01*
X91712142Y-80645000D01*
X91748428Y-80499857D01*
X91784714Y-80427285D01*
X91821000Y-80391000D01*
X91893571Y-80354714D01*
D21*
X111645095Y-135989785D02*
X111614857Y-136020023D01*
X111524142Y-136050261D01*
X111463666Y-136050261D01*
X111372952Y-136020023D01*
X111312476Y-135959547D01*
X111282238Y-135899071D01*
X111252000Y-135778119D01*
X111252000Y-135687404D01*
X111282238Y-135566452D01*
X111312476Y-135505976D01*
X111372952Y-135445500D01*
X111463666Y-135415261D01*
X111524142Y-135415261D01*
X111614857Y-135445500D01*
X111645095Y-135475738D01*
X111917238Y-136050261D02*
X111917238Y-135415261D01*
X111917238Y-135717642D02*
X112280095Y-135717642D01*
X112280095Y-136050261D02*
X112280095Y-135415261D01*
X112552238Y-135868833D02*
X112854619Y-135868833D01*
X112491761Y-136050261D02*
X112703428Y-135415261D01*
X112915095Y-136050261D01*
X113489619Y-136050261D02*
X113277952Y-135747880D01*
X113126761Y-136050261D02*
X113126761Y-135415261D01*
X113368666Y-135415261D01*
X113429142Y-135445500D01*
X113459380Y-135475738D01*
X113489619Y-135536214D01*
X113489619Y-135626928D01*
X113459380Y-135687404D01*
X113429142Y-135717642D01*
X113368666Y-135747880D01*
X113126761Y-135747880D01*
X114094380Y-135445500D02*
X114033904Y-135415261D01*
X113943190Y-135415261D01*
X113852476Y-135445500D01*
X113792000Y-135505976D01*
X113761761Y-135566452D01*
X113731523Y-135687404D01*
X113731523Y-135778119D01*
X113761761Y-135899071D01*
X113792000Y-135959547D01*
X113852476Y-136020023D01*
X113943190Y-136050261D01*
X114003666Y-136050261D01*
X114094380Y-136020023D01*
X114124619Y-135989785D01*
X114124619Y-135778119D01*
X114003666Y-135778119D01*
X114396761Y-136050261D02*
X114396761Y-135415261D01*
X114699142Y-136050261D02*
X114699142Y-135415261D01*
X115062000Y-136050261D01*
X115062000Y-135415261D01*
X115697000Y-135445500D02*
X115636523Y-135415261D01*
X115545809Y-135415261D01*
X115455095Y-135445500D01*
X115394619Y-135505976D01*
X115364380Y-135566452D01*
X115334142Y-135687404D01*
X115334142Y-135778119D01*
X115364380Y-135899071D01*
X115394619Y-135959547D01*
X115455095Y-136020023D01*
X115545809Y-136050261D01*
X115606285Y-136050261D01*
X115697000Y-136020023D01*
X115727238Y-135989785D01*
X115727238Y-135778119D01*
X115606285Y-135778119D01*
X116332000Y-136050261D02*
X115969142Y-136050261D01*
X116150571Y-136050261D02*
X116150571Y-135415261D01*
X116090095Y-135505976D01*
X116029619Y-135566452D01*
X115969142Y-135596690D01*
X107789738Y-134973785D02*
X107759500Y-135004023D01*
X107668785Y-135034261D01*
X107608309Y-135034261D01*
X107517595Y-135004023D01*
X107457119Y-134943547D01*
X107426880Y-134883071D01*
X107396642Y-134762119D01*
X107396642Y-134671404D01*
X107426880Y-134550452D01*
X107457119Y-134489976D01*
X107517595Y-134429500D01*
X107608309Y-134399261D01*
X107668785Y-134399261D01*
X107759500Y-134429500D01*
X107789738Y-134459738D01*
X108182833Y-134399261D02*
X108303785Y-134399261D01*
X108364261Y-134429500D01*
X108424738Y-134489976D01*
X108454976Y-134610928D01*
X108454976Y-134822595D01*
X108424738Y-134943547D01*
X108364261Y-135004023D01*
X108303785Y-135034261D01*
X108182833Y-135034261D01*
X108122357Y-135004023D01*
X108061880Y-134943547D01*
X108031642Y-134822595D01*
X108031642Y-134610928D01*
X108061880Y-134489976D01*
X108122357Y-134429500D01*
X108182833Y-134399261D01*
X108727119Y-135034261D02*
X108727119Y-134399261D01*
X108938785Y-134852833D01*
X109150452Y-134399261D01*
X109150452Y-135034261D01*
X109452833Y-135034261D02*
X109452833Y-134399261D01*
X109694738Y-134399261D01*
X109755214Y-134429500D01*
X109785452Y-134459738D01*
X109815690Y-134520214D01*
X109815690Y-134610928D01*
X109785452Y-134671404D01*
X109755214Y-134701642D01*
X109694738Y-134731880D01*
X109452833Y-134731880D01*
X110390214Y-135034261D02*
X110087833Y-135034261D01*
X110087833Y-134399261D01*
X110601880Y-134701642D02*
X110813547Y-134701642D01*
X110904261Y-135034261D02*
X110601880Y-135034261D01*
X110601880Y-134399261D01*
X110904261Y-134399261D01*
X111085690Y-134399261D02*
X111448547Y-134399261D01*
X111267119Y-135034261D02*
X111267119Y-134399261D01*
X111660214Y-134701642D02*
X111871880Y-134701642D01*
X111962595Y-135034261D02*
X111660214Y-135034261D01*
X111660214Y-134399261D01*
X111962595Y-134399261D01*
X112567357Y-135034261D02*
X112204500Y-135034261D01*
X112385928Y-135034261D02*
X112385928Y-134399261D01*
X112325452Y-134489976D01*
X112264976Y-134550452D01*
X112204500Y-134580690D01*
D22*
X93744142Y-113048142D02*
X93707857Y-113084428D01*
X93599000Y-113120714D01*
X93526428Y-113120714D01*
X93417571Y-113084428D01*
X93345000Y-113011857D01*
X93308714Y-112939285D01*
X93272428Y-112794142D01*
X93272428Y-112685285D01*
X93308714Y-112540142D01*
X93345000Y-112467571D01*
X93417571Y-112395000D01*
X93526428Y-112358714D01*
X93599000Y-112358714D01*
X93707857Y-112395000D01*
X93744142Y-112431285D01*
X94034428Y-112431285D02*
X94070714Y-112395000D01*
X94143285Y-112358714D01*
X94324714Y-112358714D01*
X94397285Y-112395000D01*
X94433571Y-112431285D01*
X94469857Y-112503857D01*
X94469857Y-112576428D01*
X94433571Y-112685285D01*
X93998142Y-113120714D01*
X94469857Y-113120714D01*
X95195571Y-113120714D02*
X94760142Y-113120714D01*
X94977857Y-113120714D02*
X94977857Y-112358714D01*
X94905285Y-112467571D01*
X94832714Y-112540142D01*
X94760142Y-112576428D01*
X110635142Y-112794142D02*
X110598857Y-112830428D01*
X110490000Y-112866714D01*
X110417428Y-112866714D01*
X110308571Y-112830428D01*
X110236000Y-112757857D01*
X110199714Y-112685285D01*
X110163428Y-112540142D01*
X110163428Y-112431285D01*
X110199714Y-112286142D01*
X110236000Y-112213571D01*
X110308571Y-112141000D01*
X110417428Y-112104714D01*
X110490000Y-112104714D01*
X110598857Y-112141000D01*
X110635142Y-112177285D01*
X110925428Y-112177285D02*
X110961714Y-112141000D01*
X111034285Y-112104714D01*
X111215714Y-112104714D01*
X111288285Y-112141000D01*
X111324571Y-112177285D01*
X111360857Y-112249857D01*
X111360857Y-112322428D01*
X111324571Y-112431285D01*
X110889142Y-112866714D01*
X111360857Y-112866714D01*
X111651142Y-112177285D02*
X111687428Y-112141000D01*
X111760000Y-112104714D01*
X111941428Y-112104714D01*
X112014000Y-112141000D01*
X112050285Y-112177285D01*
X112086571Y-112249857D01*
X112086571Y-112322428D01*
X112050285Y-112431285D01*
X111614857Y-112866714D01*
X112086571Y-112866714D01*
D21*
X95984785Y-120241785D02*
X95954547Y-120272023D01*
X95863833Y-120302261D01*
X95803357Y-120302261D01*
X95712642Y-120272023D01*
X95652166Y-120211547D01*
X95621928Y-120151071D01*
X95591690Y-120030119D01*
X95591690Y-119939404D01*
X95621928Y-119818452D01*
X95652166Y-119757976D01*
X95712642Y-119697500D01*
X95803357Y-119667261D01*
X95863833Y-119667261D01*
X95954547Y-119697500D01*
X95984785Y-119727738D01*
X96226690Y-119727738D02*
X96256928Y-119697500D01*
X96317404Y-119667261D01*
X96468595Y-119667261D01*
X96529071Y-119697500D01*
X96559309Y-119727738D01*
X96589547Y-119788214D01*
X96589547Y-119848690D01*
X96559309Y-119939404D01*
X96196452Y-120302261D01*
X96589547Y-120302261D01*
X96801214Y-119667261D02*
X97194309Y-119667261D01*
X96982642Y-119909166D01*
X97073357Y-119909166D01*
X97133833Y-119939404D01*
X97164071Y-119969642D01*
X97194309Y-120030119D01*
X97194309Y-120181309D01*
X97164071Y-120241785D01*
X97133833Y-120272023D01*
X97073357Y-120302261D01*
X96891928Y-120302261D01*
X96831452Y-120272023D01*
X96801214Y-120241785D01*
D22*
X111397142Y-118636142D02*
X111360857Y-118672428D01*
X111252000Y-118708714D01*
X111179428Y-118708714D01*
X111070571Y-118672428D01*
X110998000Y-118599857D01*
X110961714Y-118527285D01*
X110925428Y-118382142D01*
X110925428Y-118273285D01*
X110961714Y-118128142D01*
X110998000Y-118055571D01*
X111070571Y-117983000D01*
X111179428Y-117946714D01*
X111252000Y-117946714D01*
X111360857Y-117983000D01*
X111397142Y-118019285D01*
X111687428Y-118019285D02*
X111723714Y-117983000D01*
X111796285Y-117946714D01*
X111977714Y-117946714D01*
X112050285Y-117983000D01*
X112086571Y-118019285D01*
X112122857Y-118091857D01*
X112122857Y-118164428D01*
X112086571Y-118273285D01*
X111651142Y-118708714D01*
X112122857Y-118708714D01*
X112776000Y-118200714D02*
X112776000Y-118708714D01*
X112594571Y-117910428D02*
X112413142Y-118454714D01*
X112884857Y-118454714D01*
X115588142Y-110852857D02*
X115624428Y-110889142D01*
X115660714Y-110998000D01*
X115660714Y-111070571D01*
X115624428Y-111179428D01*
X115551857Y-111252000D01*
X115479285Y-111288285D01*
X115334142Y-111324571D01*
X115225285Y-111324571D01*
X115080142Y-111288285D01*
X115007571Y-111252000D01*
X114935000Y-111179428D01*
X114898714Y-111070571D01*
X114898714Y-110998000D01*
X114935000Y-110889142D01*
X114971285Y-110852857D01*
X114971285Y-110562571D02*
X114935000Y-110526285D01*
X114898714Y-110453714D01*
X114898714Y-110272285D01*
X114935000Y-110199714D01*
X114971285Y-110163428D01*
X115043857Y-110127142D01*
X115116428Y-110127142D01*
X115225285Y-110163428D01*
X115660714Y-110598857D01*
X115660714Y-110127142D01*
X114898714Y-109437714D02*
X114898714Y-109800571D01*
X115261571Y-109836857D01*
X115225285Y-109800571D01*
X115189000Y-109728000D01*
X115189000Y-109546571D01*
X115225285Y-109474000D01*
X115261571Y-109437714D01*
X115334142Y-109401428D01*
X115515571Y-109401428D01*
X115588142Y-109437714D01*
X115624428Y-109474000D01*
X115660714Y-109546571D01*
X115660714Y-109728000D01*
X115624428Y-109800571D01*
X115588142Y-109836857D01*
X116858142Y-110852857D02*
X116894428Y-110889142D01*
X116930714Y-110998000D01*
X116930714Y-111070571D01*
X116894428Y-111179428D01*
X116821857Y-111252000D01*
X116749285Y-111288285D01*
X116604142Y-111324571D01*
X116495285Y-111324571D01*
X116350142Y-111288285D01*
X116277571Y-111252000D01*
X116205000Y-111179428D01*
X116168714Y-111070571D01*
X116168714Y-110998000D01*
X116205000Y-110889142D01*
X116241285Y-110852857D01*
X116241285Y-110562571D02*
X116205000Y-110526285D01*
X116168714Y-110453714D01*
X116168714Y-110272285D01*
X116205000Y-110199714D01*
X116241285Y-110163428D01*
X116313857Y-110127142D01*
X116386428Y-110127142D01*
X116495285Y-110163428D01*
X116930714Y-110598857D01*
X116930714Y-110127142D01*
X116168714Y-109474000D02*
X116168714Y-109619142D01*
X116205000Y-109691714D01*
X116241285Y-109728000D01*
X116350142Y-109800571D01*
X116495285Y-109836857D01*
X116785571Y-109836857D01*
X116858142Y-109800571D01*
X116894428Y-109764285D01*
X116930714Y-109691714D01*
X116930714Y-109546571D01*
X116894428Y-109474000D01*
X116858142Y-109437714D01*
X116785571Y-109401428D01*
X116604142Y-109401428D01*
X116531571Y-109437714D01*
X116495285Y-109474000D01*
X116459000Y-109546571D01*
X116459000Y-109691714D01*
X116495285Y-109764285D01*
X116531571Y-109800571D01*
X116604142Y-109836857D01*
X74821142Y-128542142D02*
X74784857Y-128578428D01*
X74676000Y-128614714D01*
X74603428Y-128614714D01*
X74494571Y-128578428D01*
X74422000Y-128505857D01*
X74385714Y-128433285D01*
X74349428Y-128288142D01*
X74349428Y-128179285D01*
X74385714Y-128034142D01*
X74422000Y-127961571D01*
X74494571Y-127889000D01*
X74603428Y-127852714D01*
X74676000Y-127852714D01*
X74784857Y-127889000D01*
X74821142Y-127925285D01*
X75111428Y-127925285D02*
X75147714Y-127889000D01*
X75220285Y-127852714D01*
X75401714Y-127852714D01*
X75474285Y-127889000D01*
X75510571Y-127925285D01*
X75546857Y-127997857D01*
X75546857Y-128070428D01*
X75510571Y-128179285D01*
X75075142Y-128614714D01*
X75546857Y-128614714D01*
X75800857Y-127852714D02*
X76308857Y-127852714D01*
X75982285Y-128614714D01*
X76662642Y-100411642D02*
X76626357Y-100447928D01*
X76517500Y-100484214D01*
X76444928Y-100484214D01*
X76336071Y-100447928D01*
X76263500Y-100375357D01*
X76227214Y-100302785D01*
X76190928Y-100157642D01*
X76190928Y-100048785D01*
X76227214Y-99903642D01*
X76263500Y-99831071D01*
X76336071Y-99758500D01*
X76444928Y-99722214D01*
X76517500Y-99722214D01*
X76626357Y-99758500D01*
X76662642Y-99794785D01*
X76952928Y-99794785D02*
X76989214Y-99758500D01*
X77061785Y-99722214D01*
X77243214Y-99722214D01*
X77315785Y-99758500D01*
X77352071Y-99794785D01*
X77388357Y-99867357D01*
X77388357Y-99939928D01*
X77352071Y-100048785D01*
X76916642Y-100484214D01*
X77388357Y-100484214D01*
X77823785Y-100048785D02*
X77751214Y-100012500D01*
X77714928Y-99976214D01*
X77678642Y-99903642D01*
X77678642Y-99867357D01*
X77714928Y-99794785D01*
X77751214Y-99758500D01*
X77823785Y-99722214D01*
X77968928Y-99722214D01*
X78041500Y-99758500D01*
X78077785Y-99794785D01*
X78114071Y-99867357D01*
X78114071Y-99903642D01*
X78077785Y-99976214D01*
X78041500Y-100012500D01*
X77968928Y-100048785D01*
X77823785Y-100048785D01*
X77751214Y-100085071D01*
X77714928Y-100121357D01*
X77678642Y-100193928D01*
X77678642Y-100339071D01*
X77714928Y-100411642D01*
X77751214Y-100447928D01*
X77823785Y-100484214D01*
X77968928Y-100484214D01*
X78041500Y-100447928D01*
X78077785Y-100411642D01*
X78114071Y-100339071D01*
X78114071Y-100193928D01*
X78077785Y-100121357D01*
X78041500Y-100085071D01*
X77968928Y-100048785D01*
D11*
X127713619Y-116827904D02*
X126697619Y-116827904D01*
X126697619Y-116586000D01*
X126746000Y-116440857D01*
X126842761Y-116344095D01*
X126939523Y-116295714D01*
X127133047Y-116247333D01*
X127278190Y-116247333D01*
X127471714Y-116295714D01*
X127568476Y-116344095D01*
X127665238Y-116440857D01*
X127713619Y-116586000D01*
X127713619Y-116827904D01*
X126697619Y-115376476D02*
X126697619Y-115570000D01*
X126746000Y-115666761D01*
X126794380Y-115715142D01*
X126939523Y-115811904D01*
X127133047Y-115860285D01*
X127520095Y-115860285D01*
X127616857Y-115811904D01*
X127665238Y-115763523D01*
X127713619Y-115666761D01*
X127713619Y-115473238D01*
X127665238Y-115376476D01*
X127616857Y-115328095D01*
X127520095Y-115279714D01*
X127278190Y-115279714D01*
X127181428Y-115328095D01*
X127133047Y-115376476D01*
X127084666Y-115473238D01*
X127084666Y-115666761D01*
X127133047Y-115763523D01*
X127181428Y-115811904D01*
X127278190Y-115860285D01*
X122863428Y-133392333D02*
X122863428Y-133731000D01*
X123395619Y-133731000D02*
X122379619Y-133731000D01*
X122379619Y-133247190D01*
X122863428Y-132860142D02*
X122863428Y-132521476D01*
X123395619Y-132376333D02*
X123395619Y-132860142D01*
X122379619Y-132860142D01*
X122379619Y-132376333D01*
X122379619Y-132086047D02*
X122379619Y-131505476D01*
X123395619Y-131795761D02*
X122379619Y-131795761D01*
X122476380Y-131215190D02*
X122428000Y-131166809D01*
X122379619Y-131070047D01*
X122379619Y-130828142D01*
X122428000Y-130731380D01*
X122476380Y-130683000D01*
X122573142Y-130634619D01*
X122669904Y-130634619D01*
X122815047Y-130683000D01*
X123395619Y-131263571D01*
X123395619Y-130634619D01*
D21*
X117196809Y-136050261D02*
X117196809Y-135415261D01*
X117438714Y-135415261D01*
X117499190Y-135445500D01*
X117529428Y-135475738D01*
X117559666Y-135536214D01*
X117559666Y-135626928D01*
X117529428Y-135687404D01*
X117499190Y-135717642D01*
X117438714Y-135747880D01*
X117196809Y-135747880D01*
X117771333Y-135415261D02*
X117922523Y-136050261D01*
X118043476Y-135596690D01*
X118164428Y-136050261D01*
X118315619Y-135415261D01*
X118920380Y-136050261D02*
X118708714Y-135747880D01*
X118557523Y-136050261D02*
X118557523Y-135415261D01*
X118799428Y-135415261D01*
X118859904Y-135445500D01*
X118890142Y-135475738D01*
X118920380Y-135536214D01*
X118920380Y-135626928D01*
X118890142Y-135687404D01*
X118859904Y-135717642D01*
X118799428Y-135747880D01*
X118557523Y-135747880D01*
X119041333Y-136110738D02*
X119525142Y-136110738D01*
X120008952Y-135445500D02*
X119948476Y-135415261D01*
X119857761Y-135415261D01*
X119767047Y-135445500D01*
X119706571Y-135505976D01*
X119676333Y-135566452D01*
X119646095Y-135687404D01*
X119646095Y-135778119D01*
X119676333Y-135899071D01*
X119706571Y-135959547D01*
X119767047Y-136020023D01*
X119857761Y-136050261D01*
X119918238Y-136050261D01*
X120008952Y-136020023D01*
X120039190Y-135989785D01*
X120039190Y-135778119D01*
X119918238Y-135778119D01*
X120432285Y-135415261D02*
X120553238Y-135415261D01*
X120613714Y-135445500D01*
X120674190Y-135505976D01*
X120704428Y-135626928D01*
X120704428Y-135838595D01*
X120674190Y-135959547D01*
X120613714Y-136020023D01*
X120553238Y-136050261D01*
X120432285Y-136050261D01*
X120371809Y-136020023D01*
X120311333Y-135959547D01*
X120281095Y-135838595D01*
X120281095Y-135626928D01*
X120311333Y-135505976D01*
X120371809Y-135445500D01*
X120432285Y-135415261D01*
X121097523Y-135415261D02*
X121218476Y-135415261D01*
X121278952Y-135445500D01*
X121339428Y-135505976D01*
X121369666Y-135626928D01*
X121369666Y-135838595D01*
X121339428Y-135959547D01*
X121278952Y-136020023D01*
X121218476Y-136050261D01*
X121097523Y-136050261D01*
X121037047Y-136020023D01*
X120976571Y-135959547D01*
X120946333Y-135838595D01*
X120946333Y-135626928D01*
X120976571Y-135505976D01*
X121037047Y-135445500D01*
X121097523Y-135415261D01*
X121641809Y-136050261D02*
X121641809Y-135415261D01*
X121793000Y-135415261D01*
X121883714Y-135445500D01*
X121944190Y-135505976D01*
X121974428Y-135566452D01*
X122004666Y-135687404D01*
X122004666Y-135778119D01*
X121974428Y-135899071D01*
X121944190Y-135959547D01*
X121883714Y-136020023D01*
X121793000Y-136050261D01*
X121641809Y-136050261D01*
X122609428Y-136050261D02*
X122246571Y-136050261D01*
X122428000Y-136050261D02*
X122428000Y-135415261D01*
X122367523Y-135505976D01*
X122307047Y-135566452D01*
X122246571Y-135596690D01*
D11*
X107345238Y-116507380D02*
X107248476Y-116459000D01*
X107151714Y-116362238D01*
X107006571Y-116217095D01*
X106909809Y-116168714D01*
X106813047Y-116168714D01*
X106861428Y-116410619D02*
X106764666Y-116362238D01*
X106667904Y-116265476D01*
X106619523Y-116071952D01*
X106619523Y-115733285D01*
X106667904Y-115539761D01*
X106764666Y-115443000D01*
X106861428Y-115394619D01*
X107054952Y-115394619D01*
X107151714Y-115443000D01*
X107248476Y-115539761D01*
X107296857Y-115733285D01*
X107296857Y-116071952D01*
X107248476Y-116265476D01*
X107151714Y-116362238D01*
X107054952Y-116410619D01*
X106861428Y-116410619D01*
X107635523Y-115394619D02*
X108264476Y-115394619D01*
X107925809Y-115781666D01*
X108070952Y-115781666D01*
X108167714Y-115830047D01*
X108216095Y-115878428D01*
X108264476Y-115975190D01*
X108264476Y-116217095D01*
X108216095Y-116313857D01*
X108167714Y-116362238D01*
X108070952Y-116410619D01*
X107780666Y-116410619D01*
X107683904Y-116362238D01*
X107635523Y-116313857D01*
X91724238Y-114348380D02*
X91627476Y-114300000D01*
X91530714Y-114203238D01*
X91385571Y-114058095D01*
X91288809Y-114009714D01*
X91192047Y-114009714D01*
X91240428Y-114251619D02*
X91143666Y-114203238D01*
X91046904Y-114106476D01*
X90998523Y-113912952D01*
X90998523Y-113574285D01*
X91046904Y-113380761D01*
X91143666Y-113284000D01*
X91240428Y-113235619D01*
X91433952Y-113235619D01*
X91530714Y-113284000D01*
X91627476Y-113380761D01*
X91675857Y-113574285D01*
X91675857Y-113912952D01*
X91627476Y-114106476D01*
X91530714Y-114203238D01*
X91433952Y-114251619D01*
X91240428Y-114251619D01*
X92546714Y-113574285D02*
X92546714Y-114251619D01*
X92304809Y-113187238D02*
X92062904Y-113912952D01*
X92691857Y-113912952D01*
D22*
X89081428Y-119035285D02*
X89008857Y-118999000D01*
X88936285Y-118926428D01*
X88827428Y-118817571D01*
X88754857Y-118781285D01*
X88682285Y-118781285D01*
X88718571Y-118962714D02*
X88646000Y-118926428D01*
X88573428Y-118853857D01*
X88537142Y-118708714D01*
X88537142Y-118454714D01*
X88573428Y-118309571D01*
X88646000Y-118237000D01*
X88718571Y-118200714D01*
X88863714Y-118200714D01*
X88936285Y-118237000D01*
X89008857Y-118309571D01*
X89045142Y-118454714D01*
X89045142Y-118708714D01*
X89008857Y-118853857D01*
X88936285Y-118926428D01*
X88863714Y-118962714D01*
X88718571Y-118962714D01*
X89734571Y-118200714D02*
X89371714Y-118200714D01*
X89335428Y-118563571D01*
X89371714Y-118527285D01*
X89444285Y-118491000D01*
X89625714Y-118491000D01*
X89698285Y-118527285D01*
X89734571Y-118563571D01*
X89770857Y-118636142D01*
X89770857Y-118817571D01*
X89734571Y-118890142D01*
X89698285Y-118926428D01*
X89625714Y-118962714D01*
X89444285Y-118962714D01*
X89371714Y-118926428D01*
X89335428Y-118890142D01*
X81969428Y-129957285D02*
X81896857Y-129921000D01*
X81824285Y-129848428D01*
X81715428Y-129739571D01*
X81642857Y-129703285D01*
X81570285Y-129703285D01*
X81606571Y-129884714D02*
X81534000Y-129848428D01*
X81461428Y-129775857D01*
X81425142Y-129630714D01*
X81425142Y-129376714D01*
X81461428Y-129231571D01*
X81534000Y-129159000D01*
X81606571Y-129122714D01*
X81751714Y-129122714D01*
X81824285Y-129159000D01*
X81896857Y-129231571D01*
X81933142Y-129376714D01*
X81933142Y-129630714D01*
X81896857Y-129775857D01*
X81824285Y-129848428D01*
X81751714Y-129884714D01*
X81606571Y-129884714D01*
X82187142Y-129122714D02*
X82695142Y-129122714D01*
X82368571Y-129884714D01*
D21*
X130716261Y-126392214D02*
X130413880Y-126603880D01*
X130716261Y-126755071D02*
X130081261Y-126755071D01*
X130081261Y-126513166D01*
X130111500Y-126452690D01*
X130141738Y-126422452D01*
X130202214Y-126392214D01*
X130292928Y-126392214D01*
X130353404Y-126422452D01*
X130383642Y-126452690D01*
X130413880Y-126513166D01*
X130413880Y-126755071D01*
X130081261Y-126180547D02*
X130081261Y-125787452D01*
X130323166Y-125999119D01*
X130323166Y-125908404D01*
X130353404Y-125847928D01*
X130383642Y-125817690D01*
X130444119Y-125787452D01*
X130595309Y-125787452D01*
X130655785Y-125817690D01*
X130686023Y-125847928D01*
X130716261Y-125908404D01*
X130716261Y-126089833D01*
X130686023Y-126150309D01*
X130655785Y-126180547D01*
X130081261Y-125394357D02*
X130081261Y-125333880D01*
X130111500Y-125273404D01*
X130141738Y-125243166D01*
X130202214Y-125212928D01*
X130323166Y-125182690D01*
X130474357Y-125182690D01*
X130595309Y-125212928D01*
X130655785Y-125243166D01*
X130686023Y-125273404D01*
X130716261Y-125333880D01*
X130716261Y-125394357D01*
X130686023Y-125454833D01*
X130655785Y-125485071D01*
X130595309Y-125515309D01*
X130474357Y-125545547D01*
X130323166Y-125545547D01*
X130202214Y-125515309D01*
X130141738Y-125485071D01*
X130111500Y-125454833D01*
X130081261Y-125394357D01*
X97188261Y-118772214D02*
X96885880Y-118983880D01*
X97188261Y-119135071D02*
X96553261Y-119135071D01*
X96553261Y-118893166D01*
X96583500Y-118832690D01*
X96613738Y-118802452D01*
X96674214Y-118772214D01*
X96764928Y-118772214D01*
X96825404Y-118802452D01*
X96855642Y-118832690D01*
X96885880Y-118893166D01*
X96885880Y-119135071D01*
X96764928Y-118227928D02*
X97188261Y-118227928D01*
X96523023Y-118379119D02*
X96976595Y-118530309D01*
X96976595Y-118137214D01*
X96613738Y-117925547D02*
X96583500Y-117895309D01*
X96553261Y-117834833D01*
X96553261Y-117683642D01*
X96583500Y-117623166D01*
X96613738Y-117592928D01*
X96674214Y-117562690D01*
X96734690Y-117562690D01*
X96825404Y-117592928D01*
X97188261Y-117955785D01*
X97188261Y-117562690D01*
X79093785Y-95346761D02*
X78882119Y-95044380D01*
X78730928Y-95346761D02*
X78730928Y-94711761D01*
X78972833Y-94711761D01*
X79033309Y-94742000D01*
X79063547Y-94772238D01*
X79093785Y-94832714D01*
X79093785Y-94923428D01*
X79063547Y-94983904D01*
X79033309Y-95014142D01*
X78972833Y-95044380D01*
X78730928Y-95044380D01*
X79638071Y-94923428D02*
X79638071Y-95346761D01*
X79486880Y-94681523D02*
X79335690Y-95135095D01*
X79728785Y-95135095D01*
X80273071Y-94711761D02*
X79970690Y-94711761D01*
X79940452Y-95014142D01*
X79970690Y-94983904D01*
X80031166Y-94953666D01*
X80182357Y-94953666D01*
X80242833Y-94983904D01*
X80273071Y-95014142D01*
X80303309Y-95074619D01*
X80303309Y-95225809D01*
X80273071Y-95286285D01*
X80242833Y-95316523D01*
X80182357Y-95346761D01*
X80031166Y-95346761D01*
X79970690Y-95316523D01*
X79940452Y-95286285D01*
X79093785Y-96362761D02*
X78882119Y-96060380D01*
X78730928Y-96362761D02*
X78730928Y-95727761D01*
X78972833Y-95727761D01*
X79033309Y-95758000D01*
X79063547Y-95788238D01*
X79093785Y-95848714D01*
X79093785Y-95939428D01*
X79063547Y-95999904D01*
X79033309Y-96030142D01*
X78972833Y-96060380D01*
X78730928Y-96060380D01*
X79638071Y-95939428D02*
X79638071Y-96362761D01*
X79486880Y-95697523D02*
X79335690Y-96151095D01*
X79728785Y-96151095D01*
X80242833Y-95727761D02*
X80121880Y-95727761D01*
X80061404Y-95758000D01*
X80031166Y-95788238D01*
X79970690Y-95878952D01*
X79940452Y-95999904D01*
X79940452Y-96241809D01*
X79970690Y-96302285D01*
X80000928Y-96332523D01*
X80061404Y-96362761D01*
X80182357Y-96362761D01*
X80242833Y-96332523D01*
X80273071Y-96302285D01*
X80303309Y-96241809D01*
X80303309Y-96090619D01*
X80273071Y-96030142D01*
X80242833Y-95999904D01*
X80182357Y-95969666D01*
X80061404Y-95969666D01*
X80000928Y-95999904D01*
X79970690Y-96030142D01*
X79940452Y-96090619D01*
D22*
X133440714Y-109709857D02*
X133077857Y-109963857D01*
X133440714Y-110145285D02*
X132678714Y-110145285D01*
X132678714Y-109855000D01*
X132715000Y-109782428D01*
X132751285Y-109746142D01*
X132823857Y-109709857D01*
X132932714Y-109709857D01*
X133005285Y-109746142D01*
X133041571Y-109782428D01*
X133077857Y-109855000D01*
X133077857Y-110145285D01*
X132932714Y-109056714D02*
X133440714Y-109056714D01*
X132642428Y-109238142D02*
X133186714Y-109419571D01*
X133186714Y-108947857D01*
X132678714Y-108730142D02*
X132678714Y-108222142D01*
X133440714Y-108548714D01*
X130701142Y-106643714D02*
X130447142Y-106280857D01*
X130265714Y-106643714D02*
X130265714Y-105881714D01*
X130556000Y-105881714D01*
X130628571Y-105918000D01*
X130664857Y-105954285D01*
X130701142Y-106026857D01*
X130701142Y-106135714D01*
X130664857Y-106208285D01*
X130628571Y-106244571D01*
X130556000Y-106280857D01*
X130265714Y-106280857D01*
X131354285Y-106135714D02*
X131354285Y-106643714D01*
X131172857Y-105845428D02*
X130991428Y-106389714D01*
X131463142Y-106389714D01*
X131862285Y-106208285D02*
X131789714Y-106172000D01*
X131753428Y-106135714D01*
X131717142Y-106063142D01*
X131717142Y-106026857D01*
X131753428Y-105954285D01*
X131789714Y-105918000D01*
X131862285Y-105881714D01*
X132007428Y-105881714D01*
X132080000Y-105918000D01*
X132116285Y-105954285D01*
X132152571Y-106026857D01*
X132152571Y-106063142D01*
X132116285Y-106135714D01*
X132080000Y-106172000D01*
X132007428Y-106208285D01*
X131862285Y-106208285D01*
X131789714Y-106244571D01*
X131753428Y-106280857D01*
X131717142Y-106353428D01*
X131717142Y-106498571D01*
X131753428Y-106571142D01*
X131789714Y-106607428D01*
X131862285Y-106643714D01*
X132007428Y-106643714D01*
X132080000Y-106607428D01*
X132116285Y-106571142D01*
X132152571Y-106498571D01*
X132152571Y-106353428D01*
X132116285Y-106280857D01*
X132080000Y-106244571D01*
X132007428Y-106208285D01*
X130701142Y-105373714D02*
X130447142Y-105010857D01*
X130265714Y-105373714D02*
X130265714Y-104611714D01*
X130556000Y-104611714D01*
X130628571Y-104648000D01*
X130664857Y-104684285D01*
X130701142Y-104756857D01*
X130701142Y-104865714D01*
X130664857Y-104938285D01*
X130628571Y-104974571D01*
X130556000Y-105010857D01*
X130265714Y-105010857D01*
X131354285Y-104865714D02*
X131354285Y-105373714D01*
X131172857Y-104575428D02*
X130991428Y-105119714D01*
X131463142Y-105119714D01*
X131789714Y-105373714D02*
X131934857Y-105373714D01*
X132007428Y-105337428D01*
X132043714Y-105301142D01*
X132116285Y-105192285D01*
X132152571Y-105047142D01*
X132152571Y-104756857D01*
X132116285Y-104684285D01*
X132080000Y-104648000D01*
X132007428Y-104611714D01*
X131862285Y-104611714D01*
X131789714Y-104648000D01*
X131753428Y-104684285D01*
X131717142Y-104756857D01*
X131717142Y-104938285D01*
X131753428Y-105010857D01*
X131789714Y-105047142D01*
X131862285Y-105083428D01*
X132007428Y-105083428D01*
X132080000Y-105047142D01*
X132116285Y-105010857D01*
X132152571Y-104938285D01*
X118509142Y-108421714D02*
X118255142Y-108058857D01*
X118073714Y-108421714D02*
X118073714Y-107659714D01*
X118364000Y-107659714D01*
X118436571Y-107696000D01*
X118472857Y-107732285D01*
X118509142Y-107804857D01*
X118509142Y-107913714D01*
X118472857Y-107986285D01*
X118436571Y-108022571D01*
X118364000Y-108058857D01*
X118073714Y-108058857D01*
X119198571Y-107659714D02*
X118835714Y-107659714D01*
X118799428Y-108022571D01*
X118835714Y-107986285D01*
X118908285Y-107950000D01*
X119089714Y-107950000D01*
X119162285Y-107986285D01*
X119198571Y-108022571D01*
X119234857Y-108095142D01*
X119234857Y-108276571D01*
X119198571Y-108349142D01*
X119162285Y-108385428D01*
X119089714Y-108421714D01*
X118908285Y-108421714D01*
X118835714Y-108385428D01*
X118799428Y-108349142D01*
X119706571Y-107659714D02*
X119779142Y-107659714D01*
X119851714Y-107696000D01*
X119888000Y-107732285D01*
X119924285Y-107804857D01*
X119960571Y-107950000D01*
X119960571Y-108131428D01*
X119924285Y-108276571D01*
X119888000Y-108349142D01*
X119851714Y-108385428D01*
X119779142Y-108421714D01*
X119706571Y-108421714D01*
X119634000Y-108385428D01*
X119597714Y-108349142D01*
X119561428Y-108276571D01*
X119525142Y-108131428D01*
X119525142Y-107950000D01*
X119561428Y-107804857D01*
X119597714Y-107732285D01*
X119634000Y-107696000D01*
X119706571Y-107659714D01*
X118636142Y-112993714D02*
X118382142Y-112630857D01*
X118200714Y-112993714D02*
X118200714Y-112231714D01*
X118491000Y-112231714D01*
X118563571Y-112268000D01*
X118599857Y-112304285D01*
X118636142Y-112376857D01*
X118636142Y-112485714D01*
X118599857Y-112558285D01*
X118563571Y-112594571D01*
X118491000Y-112630857D01*
X118200714Y-112630857D01*
X119325571Y-112231714D02*
X118962714Y-112231714D01*
X118926428Y-112594571D01*
X118962714Y-112558285D01*
X119035285Y-112522000D01*
X119216714Y-112522000D01*
X119289285Y-112558285D01*
X119325571Y-112594571D01*
X119361857Y-112667142D01*
X119361857Y-112848571D01*
X119325571Y-112921142D01*
X119289285Y-112957428D01*
X119216714Y-112993714D01*
X119035285Y-112993714D01*
X118962714Y-112957428D01*
X118926428Y-112921142D01*
X120087571Y-112993714D02*
X119652142Y-112993714D01*
X119869857Y-112993714D02*
X119869857Y-112231714D01*
X119797285Y-112340571D01*
X119724714Y-112413142D01*
X119652142Y-112449428D01*
X114390714Y-110852857D02*
X114027857Y-111106857D01*
X114390714Y-111288285D02*
X113628714Y-111288285D01*
X113628714Y-110998000D01*
X113665000Y-110925428D01*
X113701285Y-110889142D01*
X113773857Y-110852857D01*
X113882714Y-110852857D01*
X113955285Y-110889142D01*
X113991571Y-110925428D01*
X114027857Y-110998000D01*
X114027857Y-111288285D01*
X113628714Y-110163428D02*
X113628714Y-110526285D01*
X113991571Y-110562571D01*
X113955285Y-110526285D01*
X113919000Y-110453714D01*
X113919000Y-110272285D01*
X113955285Y-110199714D01*
X113991571Y-110163428D01*
X114064142Y-110127142D01*
X114245571Y-110127142D01*
X114318142Y-110163428D01*
X114354428Y-110199714D01*
X114390714Y-110272285D01*
X114390714Y-110453714D01*
X114354428Y-110526285D01*
X114318142Y-110562571D01*
X113701285Y-109836857D02*
X113665000Y-109800571D01*
X113628714Y-109728000D01*
X113628714Y-109546571D01*
X113665000Y-109474000D01*
X113701285Y-109437714D01*
X113773857Y-109401428D01*
X113846428Y-109401428D01*
X113955285Y-109437714D01*
X114390714Y-109873142D01*
X114390714Y-109401428D01*
X73551142Y-132932714D02*
X73297142Y-132569857D01*
X73115714Y-132932714D02*
X73115714Y-132170714D01*
X73406000Y-132170714D01*
X73478571Y-132207000D01*
X73514857Y-132243285D01*
X73551142Y-132315857D01*
X73551142Y-132424714D01*
X73514857Y-132497285D01*
X73478571Y-132533571D01*
X73406000Y-132569857D01*
X73115714Y-132569857D01*
X74240571Y-132170714D02*
X73877714Y-132170714D01*
X73841428Y-132533571D01*
X73877714Y-132497285D01*
X73950285Y-132461000D01*
X74131714Y-132461000D01*
X74204285Y-132497285D01*
X74240571Y-132533571D01*
X74276857Y-132606142D01*
X74276857Y-132787571D01*
X74240571Y-132860142D01*
X74204285Y-132896428D01*
X74131714Y-132932714D01*
X73950285Y-132932714D01*
X73877714Y-132896428D01*
X73841428Y-132860142D01*
X74530857Y-132170714D02*
X75002571Y-132170714D01*
X74748571Y-132461000D01*
X74857428Y-132461000D01*
X74930000Y-132497285D01*
X74966285Y-132533571D01*
X75002571Y-132606142D01*
X75002571Y-132787571D01*
X74966285Y-132860142D01*
X74930000Y-132896428D01*
X74857428Y-132932714D01*
X74639714Y-132932714D01*
X74567142Y-132896428D01*
X74530857Y-132860142D01*
D21*
X86774261Y-98071214D02*
X86471880Y-98282880D01*
X86774261Y-98434071D02*
X86139261Y-98434071D01*
X86139261Y-98192166D01*
X86169500Y-98131690D01*
X86199738Y-98101452D01*
X86260214Y-98071214D01*
X86350928Y-98071214D01*
X86411404Y-98101452D01*
X86441642Y-98131690D01*
X86471880Y-98192166D01*
X86471880Y-98434071D01*
X86139261Y-97496690D02*
X86139261Y-97799071D01*
X86441642Y-97829309D01*
X86411404Y-97799071D01*
X86381166Y-97738595D01*
X86381166Y-97587404D01*
X86411404Y-97526928D01*
X86441642Y-97496690D01*
X86502119Y-97466452D01*
X86653309Y-97466452D01*
X86713785Y-97496690D01*
X86744023Y-97526928D01*
X86774261Y-97587404D01*
X86774261Y-97738595D01*
X86744023Y-97799071D01*
X86713785Y-97829309D01*
X86350928Y-96922166D02*
X86774261Y-96922166D01*
X86109023Y-97073357D02*
X86562595Y-97224547D01*
X86562595Y-96831452D01*
D22*
X88482714Y-128759857D02*
X88119857Y-129013857D01*
X88482714Y-129195285D02*
X87720714Y-129195285D01*
X87720714Y-128905000D01*
X87757000Y-128832428D01*
X87793285Y-128796142D01*
X87865857Y-128759857D01*
X87974714Y-128759857D01*
X88047285Y-128796142D01*
X88083571Y-128832428D01*
X88119857Y-128905000D01*
X88119857Y-129195285D01*
X87720714Y-128070428D02*
X87720714Y-128433285D01*
X88083571Y-128469571D01*
X88047285Y-128433285D01*
X88011000Y-128360714D01*
X88011000Y-128179285D01*
X88047285Y-128106714D01*
X88083571Y-128070428D01*
X88156142Y-128034142D01*
X88337571Y-128034142D01*
X88410142Y-128070428D01*
X88446428Y-128106714D01*
X88482714Y-128179285D01*
X88482714Y-128360714D01*
X88446428Y-128433285D01*
X88410142Y-128469571D01*
X87720714Y-127344714D02*
X87720714Y-127707571D01*
X88083571Y-127743857D01*
X88047285Y-127707571D01*
X88011000Y-127635000D01*
X88011000Y-127453571D01*
X88047285Y-127381000D01*
X88083571Y-127344714D01*
X88156142Y-127308428D01*
X88337571Y-127308428D01*
X88410142Y-127344714D01*
X88446428Y-127381000D01*
X88482714Y-127453571D01*
X88482714Y-127635000D01*
X88446428Y-127707571D01*
X88410142Y-127743857D01*
X86704714Y-134220857D02*
X86341857Y-134474857D01*
X86704714Y-134656285D02*
X85942714Y-134656285D01*
X85942714Y-134366000D01*
X85979000Y-134293428D01*
X86015285Y-134257142D01*
X86087857Y-134220857D01*
X86196714Y-134220857D01*
X86269285Y-134257142D01*
X86305571Y-134293428D01*
X86341857Y-134366000D01*
X86341857Y-134656285D01*
X85942714Y-133531428D02*
X85942714Y-133894285D01*
X86305571Y-133930571D01*
X86269285Y-133894285D01*
X86233000Y-133821714D01*
X86233000Y-133640285D01*
X86269285Y-133567714D01*
X86305571Y-133531428D01*
X86378142Y-133495142D01*
X86559571Y-133495142D01*
X86632142Y-133531428D01*
X86668428Y-133567714D01*
X86704714Y-133640285D01*
X86704714Y-133821714D01*
X86668428Y-133894285D01*
X86632142Y-133930571D01*
X85942714Y-132842000D02*
X85942714Y-132987142D01*
X85979000Y-133059714D01*
X86015285Y-133096000D01*
X86124142Y-133168571D01*
X86269285Y-133204857D01*
X86559571Y-133204857D01*
X86632142Y-133168571D01*
X86668428Y-133132285D01*
X86704714Y-133059714D01*
X86704714Y-132914571D01*
X86668428Y-132842000D01*
X86632142Y-132805714D01*
X86559571Y-132769428D01*
X86378142Y-132769428D01*
X86305571Y-132805714D01*
X86269285Y-132842000D01*
X86233000Y-132914571D01*
X86233000Y-133059714D01*
X86269285Y-133132285D01*
X86305571Y-133168571D01*
X86378142Y-133204857D01*
X121756714Y-129921000D02*
X121393857Y-130175000D01*
X121756714Y-130356428D02*
X120994714Y-130356428D01*
X120994714Y-130066142D01*
X121031000Y-129993571D01*
X121067285Y-129957285D01*
X121139857Y-129921000D01*
X121248714Y-129921000D01*
X121321285Y-129957285D01*
X121357571Y-129993571D01*
X121393857Y-130066142D01*
X121393857Y-130356428D01*
X121248714Y-129267857D02*
X121756714Y-129267857D01*
X120958428Y-129449285D02*
X121502714Y-129630714D01*
X121502714Y-129159000D01*
X110254142Y-116422714D02*
X110000142Y-116059857D01*
X109818714Y-116422714D02*
X109818714Y-115660714D01*
X110109000Y-115660714D01*
X110181571Y-115697000D01*
X110217857Y-115733285D01*
X110254142Y-115805857D01*
X110254142Y-115914714D01*
X110217857Y-115987285D01*
X110181571Y-116023571D01*
X110109000Y-116059857D01*
X109818714Y-116059857D01*
X110979857Y-116422714D02*
X110544428Y-116422714D01*
X110762142Y-116422714D02*
X110762142Y-115660714D01*
X110689571Y-115769571D01*
X110617000Y-115842142D01*
X110544428Y-115878428D01*
X111342714Y-116422714D02*
X111487857Y-116422714D01*
X111560428Y-116386428D01*
X111596714Y-116350142D01*
X111669285Y-116241285D01*
X111705571Y-116096142D01*
X111705571Y-115805857D01*
X111669285Y-115733285D01*
X111633000Y-115697000D01*
X111560428Y-115660714D01*
X111415285Y-115660714D01*
X111342714Y-115697000D01*
X111306428Y-115733285D01*
X111270142Y-115805857D01*
X111270142Y-115987285D01*
X111306428Y-116059857D01*
X111342714Y-116096142D01*
X111415285Y-116132428D01*
X111560428Y-116132428D01*
X111633000Y-116096142D01*
X111669285Y-116059857D01*
X111705571Y-115987285D01*
X113429142Y-112866714D02*
X113175142Y-112503857D01*
X112993714Y-112866714D02*
X112993714Y-112104714D01*
X113284000Y-112104714D01*
X113356571Y-112141000D01*
X113392857Y-112177285D01*
X113429142Y-112249857D01*
X113429142Y-112358714D01*
X113392857Y-112431285D01*
X113356571Y-112467571D01*
X113284000Y-112503857D01*
X112993714Y-112503857D01*
X113719428Y-112177285D02*
X113755714Y-112141000D01*
X113828285Y-112104714D01*
X114009714Y-112104714D01*
X114082285Y-112141000D01*
X114118571Y-112177285D01*
X114154857Y-112249857D01*
X114154857Y-112322428D01*
X114118571Y-112431285D01*
X113683142Y-112866714D01*
X114154857Y-112866714D01*
X114626571Y-112104714D02*
X114699142Y-112104714D01*
X114771714Y-112141000D01*
X114808000Y-112177285D01*
X114844285Y-112249857D01*
X114880571Y-112395000D01*
X114880571Y-112576428D01*
X114844285Y-112721571D01*
X114808000Y-112794142D01*
X114771714Y-112830428D01*
X114699142Y-112866714D01*
X114626571Y-112866714D01*
X114554000Y-112830428D01*
X114517714Y-112794142D01*
X114481428Y-112721571D01*
X114445142Y-112576428D01*
X114445142Y-112395000D01*
X114481428Y-112249857D01*
X114517714Y-112177285D01*
X114554000Y-112141000D01*
X114626571Y-112104714D01*
D11*
X124441857Y-114850333D02*
X124490238Y-114898714D01*
X124538619Y-115043857D01*
X124538619Y-115140619D01*
X124490238Y-115285761D01*
X124393476Y-115382523D01*
X124296714Y-115430904D01*
X124103190Y-115479285D01*
X123958047Y-115479285D01*
X123764523Y-115430904D01*
X123667761Y-115382523D01*
X123571000Y-115285761D01*
X123522619Y-115140619D01*
X123522619Y-115043857D01*
X123571000Y-114898714D01*
X123619380Y-114850333D01*
X123522619Y-114511666D02*
X123522619Y-113882714D01*
X123909666Y-114221380D01*
X123909666Y-114076238D01*
X123958047Y-113979476D01*
X124006428Y-113931095D01*
X124103190Y-113882714D01*
X124345095Y-113882714D01*
X124441857Y-113931095D01*
X124490238Y-113979476D01*
X124538619Y-114076238D01*
X124538619Y-114366523D01*
X124490238Y-114463285D01*
X124441857Y-114511666D01*
X118853857Y-114596333D02*
X118902238Y-114644714D01*
X118950619Y-114789857D01*
X118950619Y-114886619D01*
X118902238Y-115031761D01*
X118805476Y-115128523D01*
X118708714Y-115176904D01*
X118515190Y-115225285D01*
X118370047Y-115225285D01*
X118176523Y-115176904D01*
X118079761Y-115128523D01*
X117983000Y-115031761D01*
X117934619Y-114886619D01*
X117934619Y-114789857D01*
X117983000Y-114644714D01*
X118031380Y-114596333D01*
X118273285Y-113725476D02*
X118950619Y-113725476D01*
X117886238Y-113967380D02*
X118611952Y-114209285D01*
X118611952Y-113580333D01*
D22*
X85489142Y-118962714D02*
X85235142Y-118599857D01*
X85053714Y-118962714D02*
X85053714Y-118200714D01*
X85344000Y-118200714D01*
X85416571Y-118237000D01*
X85452857Y-118273285D01*
X85489142Y-118345857D01*
X85489142Y-118454714D01*
X85452857Y-118527285D01*
X85416571Y-118563571D01*
X85344000Y-118599857D01*
X85053714Y-118599857D01*
X85743142Y-118200714D02*
X86214857Y-118200714D01*
X85960857Y-118491000D01*
X86069714Y-118491000D01*
X86142285Y-118527285D01*
X86178571Y-118563571D01*
X86214857Y-118636142D01*
X86214857Y-118817571D01*
X86178571Y-118890142D01*
X86142285Y-118926428D01*
X86069714Y-118962714D01*
X85852000Y-118962714D01*
X85779428Y-118926428D01*
X85743142Y-118890142D01*
X86468857Y-118200714D02*
X86976857Y-118200714D01*
X86650285Y-118962714D01*
X83620428Y-102643214D02*
X83620428Y-103260071D01*
X83656714Y-103332642D01*
X83693000Y-103368928D01*
X83765571Y-103405214D01*
X83910714Y-103405214D01*
X83983285Y-103368928D01*
X84019571Y-103332642D01*
X84055857Y-103260071D01*
X84055857Y-102643214D01*
X84527571Y-102969785D02*
X84455000Y-102933500D01*
X84418714Y-102897214D01*
X84382428Y-102824642D01*
X84382428Y-102788357D01*
X84418714Y-102715785D01*
X84455000Y-102679500D01*
X84527571Y-102643214D01*
X84672714Y-102643214D01*
X84745285Y-102679500D01*
X84781571Y-102715785D01*
X84817857Y-102788357D01*
X84817857Y-102824642D01*
X84781571Y-102897214D01*
X84745285Y-102933500D01*
X84672714Y-102969785D01*
X84527571Y-102969785D01*
X84455000Y-103006071D01*
X84418714Y-103042357D01*
X84382428Y-103114928D01*
X84382428Y-103260071D01*
X84418714Y-103332642D01*
X84455000Y-103368928D01*
X84527571Y-103405214D01*
X84672714Y-103405214D01*
X84745285Y-103368928D01*
X84781571Y-103332642D01*
X84817857Y-103260071D01*
X84817857Y-103114928D01*
X84781571Y-103042357D01*
X84745285Y-103006071D01*
X84672714Y-102969785D01*
X88954428Y-125566714D02*
X88954428Y-126183571D01*
X88990714Y-126256142D01*
X89027000Y-126292428D01*
X89099571Y-126328714D01*
X89244714Y-126328714D01*
X89317285Y-126292428D01*
X89353571Y-126256142D01*
X89389857Y-126183571D01*
X89389857Y-125566714D01*
X89789000Y-126328714D02*
X89934142Y-126328714D01*
X90006714Y-126292428D01*
X90043000Y-126256142D01*
X90115571Y-126147285D01*
X90151857Y-126002142D01*
X90151857Y-125711857D01*
X90115571Y-125639285D01*
X90079285Y-125603000D01*
X90006714Y-125566714D01*
X89861571Y-125566714D01*
X89789000Y-125603000D01*
X89752714Y-125639285D01*
X89716428Y-125711857D01*
X89716428Y-125893285D01*
X89752714Y-125965857D01*
X89789000Y-126002142D01*
X89861571Y-126038428D01*
X90006714Y-126038428D01*
X90079285Y-126002142D01*
X90115571Y-125965857D01*
X90151857Y-125893285D01*
X87702571Y-123915714D02*
X87702571Y-124532571D01*
X87738857Y-124605142D01*
X87775142Y-124641428D01*
X87847714Y-124677714D01*
X87992857Y-124677714D01*
X88065428Y-124641428D01*
X88101714Y-124605142D01*
X88138000Y-124532571D01*
X88138000Y-123915714D01*
X88900000Y-124677714D02*
X88464571Y-124677714D01*
X88682285Y-124677714D02*
X88682285Y-123915714D01*
X88609714Y-124024571D01*
X88537142Y-124097142D01*
X88464571Y-124133428D01*
X89371714Y-123915714D02*
X89444285Y-123915714D01*
X89516857Y-123952000D01*
X89553142Y-123988285D01*
X89589428Y-124060857D01*
X89625714Y-124206000D01*
X89625714Y-124387428D01*
X89589428Y-124532571D01*
X89553142Y-124605142D01*
X89516857Y-124641428D01*
X89444285Y-124677714D01*
X89371714Y-124677714D01*
X89299142Y-124641428D01*
X89262857Y-124605142D01*
X89226571Y-124532571D01*
X89190285Y-124387428D01*
X89190285Y-124206000D01*
X89226571Y-124060857D01*
X89262857Y-123988285D01*
X89299142Y-123952000D01*
X89371714Y-123915714D01*
X83783714Y-121012857D02*
X83420857Y-121266857D01*
X83783714Y-121448285D02*
X83021714Y-121448285D01*
X83021714Y-121158000D01*
X83058000Y-121085428D01*
X83094285Y-121049142D01*
X83166857Y-121012857D01*
X83275714Y-121012857D01*
X83348285Y-121049142D01*
X83384571Y-121085428D01*
X83420857Y-121158000D01*
X83420857Y-121448285D01*
X83275714Y-120359714D02*
X83783714Y-120359714D01*
X82985428Y-120541142D02*
X83529714Y-120722571D01*
X83529714Y-120250857D01*
X83275714Y-119634000D02*
X83783714Y-119634000D01*
X82985428Y-119815428D02*
X83529714Y-119996857D01*
X83529714Y-119525142D01*
M02*
