G04 #@! TF.GenerationSoftware,KiCad,Pcbnew,5.1.6-c6e7f7d~87~ubuntu18.04.1*
G04 #@! TF.CreationDate,2022-06-03T15:36:12+03:00*
G04 #@! TF.ProjectId,ESP32-EVB_Rev_K,45535033-322d-4455-9642-5f5265765f4b,K*
G04 #@! TF.SameCoordinates,Original*
G04 #@! TF.FileFunction,Soldermask,Bot*
G04 #@! TF.FilePolarity,Negative*
%FSLAX46Y46*%
G04 Gerber Fmt 4.6, Leading zero omitted, Abs format (unit mm)*
G04 Created by KiCad (PCBNEW 5.1.6-c6e7f7d~87~ubuntu18.04.1) date 2022-06-03 15:36:12*
%MOMM*%
%LPD*%
G01*
G04 APERTURE LIST*
%ADD10R,2.641600X2.641600*%
%ADD11C,2.641600*%
%ADD12O,5.101600X2.101600*%
%ADD13O,2.101600X5.101600*%
%ADD14C,1.801600*%
%ADD15R,1.801600X1.801600*%
%ADD16C,2.101600*%
%ADD17C,1.879600*%
%ADD18R,1.879600X1.879600*%
%ADD19C,3.301600*%
%ADD20C,1.751600*%
%ADD21C,2.801600*%
%ADD22C,1.511600*%
%ADD23R,1.501600X1.501600*%
%ADD24C,1.501600*%
%ADD25C,0.701600*%
%ADD26O,1.301600X1.901600*%
%ADD27R,1.524000X1.524000*%
%ADD28C,3.149600*%
%ADD29R,3.149600X3.149600*%
%ADD30R,1.625600X1.625600*%
%ADD31C,1.625600*%
%ADD32C,3.101600*%
%ADD33R,1.270000X1.701800*%
%ADD34C,1.301600*%
%ADD35C,6.401600*%
%ADD36C,1.101600*%
%ADD37C,3.401600*%
%ADD38R,0.863600X1.117600*%
G04 APERTURE END LIST*
D10*
X140208000Y-124895000D03*
D11*
X140208000Y-119895000D03*
D12*
X134237000Y-117869000D03*
D13*
X137437000Y-122319000D03*
X130937000Y-122319000D03*
D14*
X106426000Y-127762000D03*
X106426000Y-130302000D03*
X103886000Y-127762000D03*
X103886000Y-130302000D03*
X101346000Y-127762000D03*
X101346000Y-130302000D03*
X98806000Y-127762000D03*
X98806000Y-130302000D03*
X96266000Y-127762000D03*
D15*
X96266000Y-130302000D03*
D16*
X79010000Y-82083000D03*
D17*
X101346000Y-137668000D03*
X101346000Y-140208000D03*
X98806000Y-137668000D03*
X98806000Y-140208000D03*
X96266000Y-137668000D03*
X96266000Y-140208000D03*
X93726000Y-137668000D03*
X93726000Y-140208000D03*
X91186000Y-137668000D03*
X91186000Y-140208000D03*
X81026000Y-137668000D03*
X81026000Y-140208000D03*
X78486000Y-137668000D03*
D18*
X78486000Y-140208000D03*
D17*
X83566000Y-140208000D03*
X83566000Y-137668000D03*
X86106000Y-137668000D03*
X86106000Y-140208000D03*
X88646000Y-140208000D03*
X88646000Y-137668000D03*
X114046000Y-137668000D03*
X114046000Y-140208000D03*
X111506000Y-140208000D03*
X111506000Y-137668000D03*
X108966000Y-137668000D03*
X108966000Y-140208000D03*
X103886000Y-140208000D03*
X103886000Y-137668000D03*
X106426000Y-140208000D03*
X106426000Y-137668000D03*
X116586000Y-140208000D03*
X116586000Y-137668000D03*
X119126000Y-140208000D03*
X119126000Y-137668000D03*
X121666000Y-140208000D03*
X121666000Y-137668000D03*
X124206000Y-140208000D03*
X124206000Y-137668000D03*
X126746000Y-140208000D03*
X126746000Y-137668000D03*
D11*
X140000000Y-114315000D03*
X140000000Y-107315000D03*
X140000000Y-110815000D03*
D19*
X95885000Y-78359000D03*
X107315000Y-78359000D03*
D20*
X105670000Y-73610500D03*
X94990000Y-73610500D03*
D21*
X93800000Y-81409000D03*
X109400000Y-81409000D03*
D20*
X108210000Y-73610500D03*
X97530000Y-73610500D03*
D22*
X97165000Y-87599000D03*
X98435000Y-85059000D03*
X99705000Y-87599000D03*
X100975000Y-85059000D03*
X102245000Y-87599000D03*
X103515000Y-85059000D03*
X104785000Y-87599000D03*
X106055000Y-85059000D03*
D11*
X117176000Y-75184000D03*
X131176000Y-81184000D03*
X131176000Y-69184000D03*
X119176000Y-69184000D03*
X119176000Y-81184000D03*
X117176000Y-92456000D03*
X131176000Y-98456000D03*
X131176000Y-86456000D03*
X119176000Y-86456000D03*
X119176000Y-98456000D03*
D23*
X138046460Y-132326380D03*
D24*
X138043920Y-130314700D03*
D25*
X131000000Y-136403000D03*
X135000000Y-136403000D03*
D26*
X129400000Y-138553000D03*
X129400000Y-135083000D03*
X136600000Y-135083000D03*
X136600000Y-138553000D03*
D27*
X99949000Y-98044000D03*
D28*
X140500000Y-76774000D03*
D29*
X140500000Y-86774000D03*
D28*
X140500000Y-81774000D03*
X140500000Y-91774000D03*
D29*
X140500000Y-101774000D03*
D28*
X140500000Y-96774000D03*
D30*
X78359000Y-130810000D03*
D31*
X78359000Y-133350000D03*
D32*
X79909000Y-126840000D03*
X78309000Y-119540000D03*
D31*
X72009000Y-125730000D03*
X72009000Y-123190000D03*
X72009000Y-120650000D03*
D33*
X135509000Y-114300000D03*
X133985000Y-114300000D03*
X133985000Y-114300000D03*
D34*
X70993000Y-137922000D03*
X75819000Y-137922000D03*
X75057000Y-139573000D03*
X71755000Y-139700000D03*
X75057000Y-136271000D03*
X71755000Y-136271000D03*
X73406000Y-140335000D03*
X73406000Y-135509000D03*
D35*
X73406000Y-137922000D03*
D34*
X138557000Y-137922000D03*
X143383000Y-137922000D03*
X142621000Y-139573000D03*
X139319000Y-139700000D03*
X142621000Y-136271000D03*
X139319000Y-136271000D03*
X140970000Y-140335000D03*
X140970000Y-135509000D03*
D35*
X140970000Y-137922000D03*
D36*
X143002000Y-131826000D03*
D37*
X140970000Y-70358000D03*
D33*
X106045000Y-97663000D03*
X107569000Y-97663000D03*
X107569000Y-97663000D03*
D38*
X118872000Y-112776000D03*
X120015000Y-112776000D03*
X121158000Y-112776000D03*
X88265000Y-128778000D03*
X87122000Y-128778000D03*
X85979000Y-128778000D03*
M02*
