G04 #@! TF.FileFunction,Paste,Top*
%FSLAX46Y46*%
G04 Gerber Fmt 4.6, Leading zero omitted, Abs format (unit mm)*
G04 Created by KiCad (PCBNEW no-vcs-found-undefined) date Wed Nov  9 17:16:08 2016*
%MOMM*%
%LPD*%
G01*
G04 APERTURE LIST*
%ADD10C,0.100000*%
%ADD11C,0.254000*%
%ADD12C,0.200000*%
%ADD13R,1.435000X0.635000*%
%ADD14R,0.635000X1.435000*%
%ADD15R,1.400000X1.400000*%
%ADD16R,1.524000X1.270000*%
%ADD17R,1.016000X1.016000*%
%ADD18R,1.200000X1.400000*%
%ADD19R,1.298400X0.898400*%
%ADD20R,1.778000X2.286000*%
%ADD21R,1.700000X2.000000*%
%ADD22R,0.898400X1.298400*%
%ADD23R,2.700000X1.800000*%
%ADD24R,1.422400X1.168400*%
%ADD25R,3.398400X1.498400*%
%ADD26R,1.168400X1.422400*%
%ADD27R,0.800000X0.800000*%
%ADD28R,0.500000X0.550000*%
%ADD29R,0.550000X0.500000*%
%ADD30R,0.914400X0.914400*%
%ADD31R,0.678400X0.398400*%
%ADD32R,0.914400X0.533400*%
%ADD33R,0.914400X0.279400*%
%ADD34R,0.279400X0.914400*%
%ADD35R,0.533400X0.914400*%
%ADD36R,0.980000X0.230000*%
%ADD37R,1.098400X0.448400*%
%ADD38R,0.780000X0.230000*%
%ADD39R,0.230000X0.780000*%
%ADD40R,1.500000X0.800000*%
%ADD41R,1.500000X3.100000*%
%ADD42R,1.778000X1.016000*%
G04 APERTURE END LIST*
D10*
D11*
X88976200Y-67056000D02*
X144723000Y-67056000D01*
X88976200Y-73075800D02*
X88976200Y-67056000D01*
X69720000Y-73075800D02*
X88976200Y-73075800D01*
X69720000Y-124200000D02*
X69720000Y-73075800D01*
X144723000Y-124206000D02*
X144723000Y-67056000D01*
X69723000Y-124206000D02*
X144723000Y-124206000D01*
D12*
X99149000Y-99133000D02*
X99149000Y-98733000D01*
X98349000Y-99133000D02*
X99149000Y-99133000D01*
X98349000Y-98733000D02*
X98349000Y-99133000D01*
X99149000Y-98733000D02*
X98349000Y-98733000D01*
X99149000Y-98833000D02*
X98349000Y-98833000D01*
X98349000Y-98933000D02*
X99149000Y-98933000D01*
X99149000Y-99033000D02*
X98349000Y-99033000D01*
X101549000Y-99033000D02*
X100749000Y-99033000D01*
X100749000Y-98933000D02*
X101549000Y-98933000D01*
X101549000Y-98833000D02*
X100749000Y-98833000D01*
X101549000Y-98733000D02*
X100749000Y-98733000D01*
X100749000Y-98733000D02*
X100749000Y-99133000D01*
X100749000Y-99133000D02*
X101549000Y-99133000D01*
X101549000Y-99133000D02*
X101549000Y-98733000D01*
X99749000Y-99733000D02*
X100149000Y-99733000D01*
X99749000Y-100533000D02*
X99749000Y-99733000D01*
X100149000Y-100533000D02*
X99749000Y-100533000D01*
X100149000Y-99733000D02*
X100149000Y-100533000D01*
X100049000Y-99733000D02*
X100049000Y-100533000D01*
X99949000Y-99733000D02*
X99949000Y-100533000D01*
X99849000Y-99733000D02*
X99849000Y-100533000D01*
X99849000Y-97333000D02*
X99849000Y-98133000D01*
X99949000Y-97333000D02*
X99949000Y-98133000D01*
X100049000Y-97333000D02*
X100049000Y-98133000D01*
X100149000Y-97333000D02*
X100149000Y-98133000D01*
X100149000Y-98133000D02*
X99749000Y-98133000D01*
X99749000Y-98133000D02*
X99749000Y-97333000D01*
X99749000Y-97333000D02*
X100149000Y-97333000D01*
X99149000Y-100433000D02*
X98349000Y-100433000D01*
X99149000Y-100333000D02*
X98349000Y-100333000D01*
X99149000Y-100233000D02*
X98349000Y-100233000D01*
X99149000Y-100133000D02*
X98349000Y-100133000D01*
X99149000Y-100033000D02*
X98349000Y-100033000D01*
X99149000Y-99933000D02*
X98349000Y-99933000D01*
X99149000Y-99833000D02*
X98349000Y-99833000D01*
X99149000Y-99733000D02*
X98349000Y-99733000D01*
X98349000Y-99733000D02*
X98349000Y-100533000D01*
X98349000Y-100533000D02*
X99149000Y-100533000D01*
X99149000Y-100533000D02*
X99149000Y-99733000D01*
X101549000Y-100533000D02*
X101549000Y-99733000D01*
X100749000Y-100533000D02*
X101549000Y-100533000D01*
X100749000Y-99733000D02*
X100749000Y-100533000D01*
X101549000Y-99733000D02*
X100749000Y-99733000D01*
X101549000Y-99833000D02*
X100749000Y-99833000D01*
X101549000Y-99933000D02*
X100749000Y-99933000D01*
X101549000Y-100033000D02*
X100749000Y-100033000D01*
X101549000Y-100133000D02*
X100749000Y-100133000D01*
X101549000Y-100233000D02*
X100749000Y-100233000D01*
X101549000Y-100333000D02*
X100749000Y-100333000D01*
X101549000Y-100433000D02*
X100749000Y-100433000D01*
X99149000Y-98133000D02*
X99149000Y-97333000D01*
X98349000Y-98133000D02*
X99149000Y-98133000D01*
X98349000Y-97333000D02*
X98349000Y-98133000D01*
X99149000Y-97333000D02*
X98349000Y-97333000D01*
X99149000Y-97433000D02*
X98349000Y-97433000D01*
X99149000Y-97533000D02*
X98349000Y-97533000D01*
X99149000Y-97633000D02*
X98349000Y-97633000D01*
X99149000Y-97733000D02*
X98349000Y-97733000D01*
X99149000Y-97833000D02*
X98349000Y-97833000D01*
X99149000Y-97933000D02*
X98349000Y-97933000D01*
X99149000Y-98033000D02*
X98349000Y-98033000D01*
X101549000Y-98033000D02*
X100749000Y-98033000D01*
X101549000Y-97933000D02*
X100749000Y-97933000D01*
X101549000Y-97833000D02*
X100749000Y-97833000D01*
X101549000Y-97733000D02*
X100749000Y-97733000D01*
X101549000Y-97633000D02*
X100749000Y-97633000D01*
X101549000Y-97533000D02*
X100749000Y-97533000D01*
X101549000Y-97433000D02*
X100749000Y-97433000D01*
X101549000Y-97333000D02*
X100749000Y-97333000D01*
X100749000Y-97333000D02*
X100749000Y-98133000D01*
X100749000Y-98133000D02*
X101549000Y-98133000D01*
X101549000Y-98133000D02*
X101549000Y-97333000D01*
D13*
X88980300Y-74623000D03*
X88980300Y-75893000D03*
X88980300Y-77163000D03*
X88980300Y-78433000D03*
X88980300Y-79703000D03*
X88980300Y-80973000D03*
X88980300Y-82243000D03*
X88980300Y-83513000D03*
X88980300Y-84783000D03*
X88980300Y-86053000D03*
X88980300Y-87323000D03*
X88980300Y-88593000D03*
X88980300Y-89863000D03*
X88980300Y-91133000D03*
D14*
X85710300Y-92583000D03*
X84440300Y-92583000D03*
X83170300Y-92583000D03*
X81900300Y-92583000D03*
X80630300Y-92583000D03*
X79360300Y-92583000D03*
X78090300Y-92583000D03*
X76820300Y-92583000D03*
X75550300Y-92583000D03*
X74280300Y-92583000D03*
D13*
X70980300Y-91093000D03*
X70980300Y-89823000D03*
X70980300Y-88553000D03*
X70980300Y-87283000D03*
X70980300Y-86013000D03*
X70980300Y-84743000D03*
X70980300Y-83473000D03*
X70980300Y-82203000D03*
X70980300Y-80933000D03*
X70980300Y-79663000D03*
X70980300Y-78393000D03*
X70980300Y-77123000D03*
X70980300Y-75853000D03*
X70980300Y-74583000D03*
D15*
X78981300Y-80899000D03*
X81521300Y-80899000D03*
X79006700Y-83566000D03*
X81546700Y-83566000D03*
D16*
X124841000Y-110744000D03*
X124841000Y-108712000D03*
X122428000Y-109093000D03*
X122428000Y-111125000D03*
D17*
X122047000Y-113030000D03*
X122047000Y-114808000D03*
X93091000Y-111252000D03*
X93091000Y-109474000D03*
X117221000Y-111125000D03*
X117221000Y-112903000D03*
X115443000Y-111125000D03*
X115443000Y-112903000D03*
X91440000Y-88646000D03*
X91440000Y-86868000D03*
X93599000Y-88646000D03*
X93599000Y-86868000D03*
D16*
X86868000Y-111506000D03*
X86868000Y-113538000D03*
D17*
X95885000Y-93091000D03*
X94107000Y-93091000D03*
X105283000Y-93091000D03*
X105283000Y-91313000D03*
X93980000Y-103886000D03*
X93980000Y-105664000D03*
X107061000Y-91313000D03*
X107061000Y-93091000D03*
X108839000Y-91313000D03*
X108839000Y-93091000D03*
X93218000Y-101092000D03*
X91440000Y-101092000D03*
X91440000Y-99314000D03*
X93218000Y-99314000D03*
X108712000Y-96393000D03*
X110490000Y-96393000D03*
D18*
X90043000Y-98933000D03*
X90043000Y-96393000D03*
X87503000Y-96393000D03*
X87503000Y-98933000D03*
D19*
X112242600Y-92451000D03*
X112242600Y-88651000D03*
D20*
X124442000Y-113284000D03*
X128796000Y-113284000D03*
D19*
X112242600Y-77363400D03*
X112242600Y-73563400D03*
D21*
X119634000Y-113371000D03*
X119634000Y-108371000D03*
D22*
X101468000Y-107950000D03*
X97668000Y-107950000D03*
D19*
X125389640Y-101729540D03*
X127599440Y-100774500D03*
X127599440Y-102676960D03*
D23*
X127635000Y-105623000D03*
X127635000Y-110023000D03*
D24*
X95504000Y-107950000D03*
X93472000Y-107950000D03*
D25*
X116586000Y-115132000D03*
X116586000Y-117532000D03*
D26*
X91567000Y-92583000D03*
X91567000Y-90551000D03*
X86868000Y-109093000D03*
X86868000Y-107061000D03*
D27*
X114046000Y-99441000D03*
X114046000Y-97917000D03*
X113792000Y-68072000D03*
X113792000Y-69596000D03*
X142113000Y-116967000D03*
X143637000Y-116967000D03*
D22*
X113921540Y-86827360D03*
X112966500Y-84617560D03*
X114868960Y-84617560D03*
X90363040Y-70322440D03*
X92265500Y-70322440D03*
X91310460Y-68112640D03*
D17*
X114808000Y-81153000D03*
X113030000Y-81153000D03*
X113030000Y-82931000D03*
X114808000Y-82931000D03*
X114046000Y-94488000D03*
X114046000Y-96266000D03*
D28*
X139954000Y-116967000D03*
X140970000Y-116967000D03*
D17*
X90678000Y-73533000D03*
X92456000Y-73533000D03*
X92202000Y-72009000D03*
X90424000Y-72009000D03*
X129032000Y-118491000D03*
X129032000Y-116713000D03*
X118999000Y-103886000D03*
X117221000Y-103886000D03*
X127254000Y-116078000D03*
X127254000Y-117856000D03*
X118999000Y-105791000D03*
X117221000Y-105791000D03*
X112141000Y-68199000D03*
X112141000Y-69977000D03*
X115443000Y-107950000D03*
X117221000Y-107950000D03*
X115443000Y-109728000D03*
X117221000Y-109728000D03*
X81026000Y-98552000D03*
X81026000Y-100330000D03*
X130810000Y-118491000D03*
X130810000Y-116713000D03*
X81026000Y-103378000D03*
X81026000Y-101600000D03*
X124714000Y-100457000D03*
X122936000Y-100457000D03*
X93091000Y-114554000D03*
X93091000Y-112776000D03*
D29*
X123952000Y-118110000D03*
X123952000Y-117094000D03*
X125095000Y-117094000D03*
X125095000Y-118110000D03*
D17*
X108712000Y-108331000D03*
X108712000Y-106553000D03*
X110617000Y-106553000D03*
X110617000Y-108331000D03*
X105664000Y-107823000D03*
X103886000Y-107823000D03*
X72644000Y-93853000D03*
X70866000Y-93853000D03*
D30*
X94107000Y-91313000D03*
X95885000Y-91313000D03*
D31*
X94996000Y-91313000D03*
D17*
X93853000Y-75057000D03*
X92075000Y-75057000D03*
X92202000Y-76581000D03*
X93980000Y-76581000D03*
X99949000Y-91313000D03*
X99949000Y-93091000D03*
X83312000Y-115697000D03*
X85090000Y-115697000D03*
X97663000Y-93091000D03*
X97663000Y-91313000D03*
X103505000Y-91313000D03*
X103505000Y-93091000D03*
X101727000Y-93091000D03*
X101727000Y-91313000D03*
X89662000Y-101219000D03*
X87884000Y-101219000D03*
X91694000Y-95377000D03*
X91694000Y-97155000D03*
X87884000Y-94107000D03*
X89662000Y-94107000D03*
X108712000Y-99949000D03*
X110490000Y-99949000D03*
X110490000Y-98171000D03*
X108712000Y-98171000D03*
X95885000Y-94869000D03*
X94107000Y-94869000D03*
X110490000Y-103505000D03*
X108712000Y-103505000D03*
X108712000Y-101727000D03*
X110490000Y-101727000D03*
D32*
X85090000Y-108458000D03*
X83566000Y-108458000D03*
X85090000Y-110998000D03*
X83566000Y-110998000D03*
D33*
X85090000Y-109347000D03*
X85090000Y-110109000D03*
X83566000Y-109347000D03*
X83566000Y-110109000D03*
D34*
X97409000Y-105664000D03*
X96647000Y-105664000D03*
X97409000Y-104140000D03*
X96647000Y-104140000D03*
D35*
X98298000Y-105664000D03*
X98298000Y-104140000D03*
X95758000Y-105664000D03*
X95758000Y-104140000D03*
X102616000Y-105664000D03*
X102616000Y-104140000D03*
X100076000Y-105664000D03*
X100076000Y-104140000D03*
D34*
X101727000Y-105664000D03*
X100965000Y-105664000D03*
X101727000Y-104140000D03*
X100965000Y-104140000D03*
D36*
X115329000Y-100219000D03*
X115329000Y-100719000D03*
X115329000Y-101219000D03*
X115329000Y-101719000D03*
X115329000Y-102219000D03*
X120129000Y-102219000D03*
X120129000Y-101719000D03*
X120129000Y-101219000D03*
X120129000Y-100719000D03*
X120129000Y-100219000D03*
D37*
X121823000Y-117917000D03*
X121823000Y-116017000D03*
X119223000Y-117917000D03*
X119223000Y-116967000D03*
X119223000Y-116017000D03*
D38*
X97499000Y-97183000D03*
X97499000Y-97683000D03*
X97499000Y-98183000D03*
X97499000Y-98683000D03*
X97499000Y-99183000D03*
X97499000Y-99683000D03*
X97499000Y-100183000D03*
X97499000Y-100683000D03*
D39*
X98199000Y-101383000D03*
X98699000Y-101383000D03*
X99199000Y-101383000D03*
X99699000Y-101383000D03*
X100199000Y-101383000D03*
X100699000Y-101383000D03*
X101199000Y-101383000D03*
X101699000Y-101383000D03*
D38*
X102399000Y-100683000D03*
X102399000Y-100183000D03*
X102399000Y-99683000D03*
X102399000Y-99183000D03*
X102399000Y-98683000D03*
X102399000Y-98183000D03*
X102399000Y-97683000D03*
X102399000Y-97183000D03*
D39*
X101699000Y-96483000D03*
X101199000Y-96483000D03*
X100699000Y-96483000D03*
X100199000Y-96483000D03*
X99699000Y-96483000D03*
X99199000Y-96483000D03*
X98699000Y-96483000D03*
X98199000Y-96483000D03*
D40*
X72327000Y-113705000D03*
X72327000Y-112605000D03*
X72327000Y-111505000D03*
X72327000Y-110405000D03*
X72327000Y-109305000D03*
X72327000Y-108205000D03*
X72327000Y-107105000D03*
X72327000Y-106005000D03*
D41*
X81577000Y-106945000D03*
X81577000Y-113005000D03*
D17*
X85090000Y-113792000D03*
X83312000Y-113792000D03*
D24*
X71120000Y-97155000D03*
X79248000Y-97155000D03*
X79248000Y-101727000D03*
X71120000Y-101727000D03*
D42*
X92075000Y-85852000D03*
X92075000Y-82296000D03*
X92075000Y-81280000D03*
X92075000Y-77724000D03*
D27*
X131000500Y-121793000D03*
X131000500Y-123317000D03*
X128206500Y-123317000D03*
X128206500Y-121793000D03*
X129603500Y-123317000D03*
X129603500Y-121793000D03*
M02*
