G04 #@! TF.FileFunction,Soldermask,Bot*
%FSLAX46Y46*%
G04 Gerber Fmt 4.6, Leading zero omitted, Abs format (unit mm)*
G04 Created by KiCad (PCBNEW no-vcs-found-undefined) date Wed Nov  9 17:16:08 2016*
%MOMM*%
%LPD*%
G01*
G04 APERTURE LIST*
%ADD10C,0.100000*%
%ADD11C,0.254000*%
%ADD12C,3.600000*%
%ADD13C,2.050000*%
%ADD14C,3.100000*%
%ADD15C,1.810000*%
%ADD16R,0.508000X0.609600*%
%ADD17R,1.701800X1.270000*%
%ADD18R,1.270000X1.701800*%
%ADD19C,3.700000*%
%ADD20C,1.700000*%
%ADD21C,2.400000*%
%ADD22R,1.800000X1.800000*%
%ADD23C,1.800000*%
%ADD24C,1.924000*%
%ADD25R,1.924000X1.924000*%
%ADD26C,3.448000*%
%ADD27R,3.448000X3.448000*%
%ADD28O,1.601600X4.601600*%
%ADD29O,4.601600X1.601600*%
%ADD30C,2.940000*%
%ADD31R,1.822400X1.822400*%
%ADD32R,2.100000X2.100000*%
%ADD33C,2.100000*%
%ADD34C,6.700000*%
%ADD35C,1.600000*%
%ADD36C,1.879600*%
%ADD37R,1.879600X1.879600*%
%ADD38C,1.254000*%
G04 APERTURE END LIST*
D10*
D11*
X88976200Y-67056000D02*
X144723000Y-67056000D01*
X88976200Y-73075800D02*
X88976200Y-67056000D01*
X69720000Y-73075800D02*
X88976200Y-73075800D01*
X69720000Y-124200000D02*
X69720000Y-73075800D01*
X144723000Y-124206000D02*
X144723000Y-67056000D01*
X69723000Y-124206000D02*
X144723000Y-124206000D01*
D12*
X97155000Y-78359000D03*
X108585000Y-78359000D03*
D13*
X106940000Y-73610500D03*
X96260000Y-73610500D03*
D14*
X95070000Y-81409000D03*
X110670000Y-81409000D03*
D13*
X109480000Y-73610500D03*
X98800000Y-73610500D03*
D15*
X98435000Y-87599000D03*
X99705000Y-85059000D03*
X100975000Y-87599000D03*
X102245000Y-85059000D03*
X103515000Y-87599000D03*
X104785000Y-85059000D03*
X106055000Y-87599000D03*
X107325000Y-85059000D03*
D16*
X126111000Y-117729000D03*
D17*
X126111000Y-118491000D03*
X126111000Y-116967000D03*
X126111000Y-116967000D03*
D16*
X115570000Y-105664000D03*
D17*
X115570000Y-104902000D03*
X115570000Y-106426000D03*
X115570000Y-106426000D03*
D18*
X108839000Y-96393000D03*
X110363000Y-96393000D03*
X110363000Y-96393000D03*
D19*
X141351000Y-70358000D03*
D20*
X77939900Y-84632800D03*
D21*
X80251300Y-82296000D03*
D20*
X82613500Y-84632800D03*
X77939900Y-79933800D03*
X82613500Y-79933800D03*
X80251300Y-79933800D03*
X80251300Y-84632800D03*
X77939900Y-82169000D03*
X82613500Y-82169000D03*
D22*
X133865620Y-117624860D03*
D23*
X135877300Y-117622320D03*
D24*
X122809000Y-103759000D03*
D25*
X122809000Y-106299000D03*
D26*
X140500000Y-91774000D03*
D27*
X140500000Y-101774000D03*
D26*
X140500000Y-96774000D03*
X140500000Y-81774000D03*
D27*
X140500000Y-86774000D03*
D26*
X140500000Y-76774000D03*
D28*
X130937000Y-111049000D03*
X137437000Y-111049000D03*
D29*
X134237000Y-106599000D03*
D26*
X140208000Y-108625000D03*
D27*
X140208000Y-113625000D03*
D30*
X119176000Y-97440000D03*
X119176000Y-85440000D03*
X131176000Y-85440000D03*
X131176000Y-97440000D03*
X117176000Y-91440000D03*
X117176000Y-75184000D03*
X131176000Y-81184000D03*
X131176000Y-69184000D03*
X119176000Y-69184000D03*
X119176000Y-81184000D03*
D31*
X99949000Y-98933000D03*
D32*
X99060000Y-115189000D03*
D33*
X99060000Y-112649000D03*
X101600000Y-115189000D03*
X101600000Y-112649000D03*
X104140000Y-115189000D03*
X104140000Y-112649000D03*
X106680000Y-115189000D03*
X106680000Y-112649000D03*
X109220000Y-115189000D03*
X109220000Y-112649000D03*
D34*
X141351000Y-120904000D03*
D35*
X141351000Y-118491000D03*
X141351000Y-123317000D03*
X139700000Y-119253000D03*
X143002000Y-119253000D03*
X139700000Y-122682000D03*
X143002000Y-122555000D03*
X143764000Y-120904000D03*
X138938000Y-120904000D03*
X70612000Y-120904000D03*
X75438000Y-120904000D03*
X74676000Y-122555000D03*
X71374000Y-122682000D03*
X74676000Y-119253000D03*
X71374000Y-119253000D03*
X73025000Y-123317000D03*
X73025000Y-118491000D03*
D34*
X73025000Y-120904000D03*
D36*
X126111000Y-120142000D03*
X126111000Y-122682000D03*
X123571000Y-120142000D03*
X123571000Y-122682000D03*
X121031000Y-120142000D03*
X121031000Y-122682000D03*
X118491000Y-120142000D03*
X118491000Y-122682000D03*
X115951000Y-120142000D03*
X115951000Y-122682000D03*
X105791000Y-120142000D03*
X105791000Y-122682000D03*
X103251000Y-120142000D03*
X103251000Y-122682000D03*
X108331000Y-122682000D03*
X108331000Y-120142000D03*
X110871000Y-120142000D03*
X110871000Y-122682000D03*
X113411000Y-122682000D03*
X113411000Y-120142000D03*
X88011000Y-120142000D03*
X88011000Y-122682000D03*
X85471000Y-122682000D03*
X85471000Y-120142000D03*
X82931000Y-120142000D03*
X82931000Y-122682000D03*
D37*
X77851000Y-122682000D03*
D36*
X77851000Y-120142000D03*
X80391000Y-122682000D03*
X80391000Y-120142000D03*
X90551000Y-122682000D03*
X90551000Y-120142000D03*
X93091000Y-122682000D03*
X93091000Y-120142000D03*
X95631000Y-122682000D03*
X95631000Y-120142000D03*
X98171000Y-122682000D03*
X98171000Y-120142000D03*
X100711000Y-122682000D03*
X100711000Y-120142000D03*
D38*
X76962000Y-117729000D03*
X133985000Y-120396000D03*
X136525000Y-68961000D03*
M02*
