G04 #@! TF.FileFunction,Legend,Top*
%FSLAX46Y46*%
G04 Gerber Fmt 4.6, Leading zero omitted, Abs format (unit mm)*
G04 Created by KiCad (PCBNEW no-vcs-found-undefined) date Wed Nov  9 17:16:08 2016*
%MOMM*%
%LPD*%
G01*
G04 APERTURE LIST*
%ADD10C,0.100000*%
%ADD11C,0.254000*%
%ADD12C,0.158750*%
%ADD13C,0.250000*%
%ADD14C,0.400000*%
%ADD15C,0.127000*%
%ADD16C,0.050000*%
%ADD17C,0.150000*%
%ADD18C,0.300000*%
%ADD19C,0.200000*%
%ADD20C,0.225000*%
G04 APERTURE END LIST*
D10*
D11*
X70485000Y-117475000D02*
X70485000Y-117983000D01*
X70358000Y-117348000D02*
X70358000Y-118110000D01*
X70231000Y-117221000D02*
X70231000Y-118237000D01*
X70739000Y-117729000D02*
X70231000Y-117221000D01*
X70231000Y-118237000D02*
X70739000Y-117729000D01*
D12*
X127856927Y-118774493D02*
X127557585Y-119073835D01*
X127921072Y-118496533D02*
X127493441Y-118710348D01*
X127771401Y-118988309D01*
X128327322Y-118945546D02*
X128370085Y-118988309D01*
X128391466Y-119052453D01*
X128391466Y-119095217D01*
X128370085Y-119159361D01*
X128305940Y-119266269D01*
X128199032Y-119373177D01*
X128092124Y-119437322D01*
X128027980Y-119458703D01*
X127985217Y-119458703D01*
X127921072Y-119437322D01*
X127878309Y-119394558D01*
X127856927Y-119330414D01*
X127856927Y-119287651D01*
X127878309Y-119223506D01*
X127942453Y-119116598D01*
X128049361Y-119009690D01*
X128156269Y-118945546D01*
X128220414Y-118924164D01*
X128263177Y-118924164D01*
X128327322Y-118945546D01*
D13*
X76231714Y-123896380D02*
X75660285Y-123896380D01*
X75946000Y-123896380D02*
X75946000Y-122896380D01*
X75850761Y-123039238D01*
X75755523Y-123134476D01*
X75660285Y-123182095D01*
D11*
X113919000Y-102679500D02*
X113919000Y-107251500D01*
X115768842Y-99669600D02*
G75*
G03X115768842Y-99669600I-71842J0D01*
G01*
X88976200Y-67056000D02*
X144723000Y-67056000D01*
X88976200Y-73075800D02*
X88976200Y-67056000D01*
X69720000Y-73075800D02*
X88976200Y-73075800D01*
X69720000Y-124200000D02*
X69720000Y-73075800D01*
X144723000Y-124206000D02*
X144723000Y-67056000D01*
X69723000Y-124206000D02*
X144723000Y-124206000D01*
X99870260Y-67360800D02*
X101671120Y-67360800D01*
X100670360Y-72161400D02*
X99870260Y-67360800D01*
X100871020Y-72161400D02*
X100670360Y-72161400D01*
X101671120Y-67360800D02*
X100871020Y-72161400D01*
X104068880Y-67360800D02*
X105869740Y-67360800D01*
X104868980Y-72161400D02*
X104068880Y-67360800D01*
X105069640Y-72161400D02*
X104868980Y-72161400D01*
X105869740Y-67360800D02*
X105069640Y-72161400D01*
X111870000Y-67359000D02*
X111870000Y-74359000D01*
X110870000Y-67359000D02*
X111870000Y-67359000D01*
X93870000Y-67359000D02*
X93870000Y-74359000D01*
X94870000Y-67359000D02*
X93870000Y-67359000D01*
X100271580Y-72859900D02*
X99270820Y-67360800D01*
X101272340Y-72859900D02*
X100271580Y-72859900D01*
X102270560Y-67360800D02*
X101272340Y-72859900D01*
X104467660Y-72859900D02*
X103469440Y-67360800D01*
X105468420Y-72859900D02*
X104467660Y-72859900D01*
X106469180Y-67360800D02*
X105468420Y-72859900D01*
X96771460Y-68859400D02*
X96771460Y-69060060D01*
X96771460Y-68859400D02*
X96972120Y-68859400D01*
X97170240Y-69359780D02*
X96771460Y-68859400D01*
X97472500Y-68859400D02*
X97472500Y-69060060D01*
X97472500Y-68859400D02*
X97670620Y-68859400D01*
X97871280Y-69359780D02*
X97472500Y-68859400D01*
X98803460Y-70561200D02*
X98803460Y-72499220D01*
X98102420Y-70561200D02*
X98803460Y-70561200D01*
X97104200Y-69761100D02*
X97104200Y-71361300D01*
X97203260Y-70561200D02*
X98003360Y-71361300D01*
X98003360Y-69761100D02*
X97203260Y-70561200D01*
X98003360Y-69761100D02*
X98003360Y-71361300D01*
X96304100Y-70561200D02*
X97002600Y-70561200D01*
X96304100Y-72588120D02*
X96304100Y-70561200D01*
X107469940Y-68859400D02*
X107469940Y-69060060D01*
X107469940Y-68859400D02*
X107668060Y-68859400D01*
X107868720Y-69359780D02*
X107469940Y-68859400D01*
X108168440Y-68859400D02*
X108168440Y-69060060D01*
X108168440Y-68859400D02*
X108369100Y-68859400D01*
X108569760Y-69359780D02*
X108168440Y-68859400D01*
X106970000Y-70559000D02*
X106970000Y-72459000D01*
X107668060Y-70561200D02*
X106969560Y-70561200D01*
X107769660Y-71361300D02*
X107769660Y-69761100D01*
X107868720Y-70561200D02*
X108668820Y-69761100D01*
X108668820Y-71361300D02*
X107868720Y-70561200D01*
X108670000Y-71359000D02*
X108670000Y-69759000D01*
X109470000Y-70559000D02*
X108770000Y-70559000D01*
X109470000Y-72559000D02*
X109470000Y-70559000D01*
X110870000Y-83109000D02*
X110870000Y-89359000D01*
X110870000Y-67359000D02*
X110870000Y-79609000D01*
X94870000Y-67359000D02*
X110870000Y-67359000D01*
X94870000Y-79609000D02*
X94870000Y-67359000D01*
X94870000Y-89359000D02*
X94870000Y-83109000D01*
X110870000Y-89359000D02*
X94870000Y-89359000D01*
X104970000Y-72159000D02*
X104320000Y-67369000D01*
X104980000Y-72009000D02*
X105630000Y-67379000D01*
X104990000Y-71399000D02*
X104430000Y-67369000D01*
X104980000Y-71109000D02*
X105390000Y-67379000D01*
X105000000Y-70589000D02*
X104640000Y-67379000D01*
X104950000Y-69879000D02*
X105140000Y-67369000D01*
X105040000Y-68999000D02*
X104840000Y-67359000D01*
X104870000Y-68229000D02*
X105010000Y-67419000D01*
X100780000Y-71969000D02*
X100060000Y-67369000D01*
X100770000Y-71799000D02*
X101440000Y-67379000D01*
X100780000Y-71219000D02*
X100260000Y-67489000D01*
X100720000Y-70749000D02*
X101200000Y-67389000D01*
X100850000Y-69999000D02*
X100450000Y-67429000D01*
X100820000Y-69579000D02*
X100970000Y-67399000D01*
X100890000Y-68969000D02*
X100610000Y-67389000D01*
X100780000Y-68259000D02*
X100780000Y-67389000D01*
X70980300Y-67083000D02*
X88980300Y-67083000D01*
X70980300Y-73083000D02*
X88980300Y-73083000D01*
X70389711Y-73303000D02*
G75*
G03X70389711Y-73303000I-339411J0D01*
G01*
X88980300Y-67083000D02*
X88980300Y-73703000D01*
X70980300Y-92583000D02*
X70980300Y-91993000D01*
X70980300Y-92583000D02*
X73350300Y-92583000D01*
X88980300Y-92583000D02*
X86490300Y-92583000D01*
X88980300Y-92583000D02*
X88980300Y-92043000D01*
X70980300Y-67083000D02*
X70980300Y-73703000D01*
X131810760Y-117627400D02*
X137866120Y-117624860D01*
X131808220Y-117622320D02*
X131808220Y-123931680D01*
X131808220Y-123931680D02*
X137888980Y-123931680D01*
X137888980Y-123931680D02*
X137888980Y-117637560D01*
X125857000Y-109220000D02*
X125857000Y-110236000D01*
X123825000Y-109220000D02*
X123825000Y-110236000D01*
X121412000Y-109601000D02*
X121412000Y-110617000D01*
X123444000Y-109601000D02*
X123444000Y-110617000D01*
X124396500Y-103251000D02*
X123634500Y-103251000D01*
X124015500Y-102870000D02*
X124015500Y-103632000D01*
X125896021Y-105029000D02*
G75*
G03X125896021Y-105029000I-3087021J0D01*
G01*
X121285000Y-114427000D02*
X121285000Y-113411000D01*
X122809000Y-114427000D02*
X122809000Y-113411000D01*
X93853000Y-110871000D02*
X93853000Y-109855000D01*
X92329000Y-110871000D02*
X92329000Y-109855000D01*
X116459000Y-112522000D02*
X116459000Y-111506000D01*
X117983000Y-112522000D02*
X117983000Y-111506000D01*
X114681000Y-112522000D02*
X114681000Y-111506000D01*
X116205000Y-112522000D02*
X116205000Y-111506000D01*
X92202000Y-88265000D02*
X92202000Y-87249000D01*
X90678000Y-88265000D02*
X90678000Y-87249000D01*
X94361000Y-88265000D02*
X94361000Y-87249000D01*
X92837000Y-88265000D02*
X92837000Y-87249000D01*
X85852000Y-112014000D02*
X85852000Y-113030000D01*
X87884000Y-112014000D02*
X87884000Y-113030000D01*
X95504000Y-92329000D02*
X94488000Y-92329000D01*
X95504000Y-93853000D02*
X94488000Y-93853000D01*
X106045000Y-91694000D02*
X106045000Y-92710000D01*
X104521000Y-91694000D02*
X104521000Y-92710000D01*
X93218000Y-105283000D02*
X93218000Y-104267000D01*
X94742000Y-105283000D02*
X94742000Y-104267000D01*
X106299000Y-91694000D02*
X106299000Y-92710000D01*
X107823000Y-91694000D02*
X107823000Y-92710000D01*
X108077000Y-91694000D02*
X108077000Y-92710000D01*
X109601000Y-91694000D02*
X109601000Y-92710000D01*
X92837000Y-100330000D02*
X91821000Y-100330000D01*
X92837000Y-101854000D02*
X91821000Y-101854000D01*
X92837000Y-100076000D02*
X91821000Y-100076000D01*
X92837000Y-98552000D02*
X91821000Y-98552000D01*
X110109000Y-97155000D02*
X109093000Y-97155000D01*
X110109000Y-95631000D02*
X109093000Y-95631000D01*
X138300000Y-89924000D02*
X138300000Y-89224000D01*
X137200000Y-89924000D02*
X138300000Y-89924000D01*
X137200000Y-89224000D02*
X137200000Y-89924000D01*
X137240000Y-104894000D02*
X138300000Y-104894000D01*
X137200000Y-105024000D02*
X138300000Y-105024000D01*
X138300000Y-105024000D02*
X138300000Y-104324000D01*
X137200000Y-104324000D02*
X137200000Y-105024000D01*
X142300000Y-90404000D02*
X142300000Y-89214000D01*
X142300000Y-95224000D02*
X142300000Y-93404000D01*
X142300000Y-100154000D02*
X142300000Y-98294000D01*
X142300000Y-103414000D02*
X142300000Y-104314000D01*
X135410000Y-104324000D02*
X144690000Y-104314000D01*
X135410000Y-89224000D02*
X135410000Y-104324000D01*
X144690000Y-89214000D02*
X135410000Y-89224000D01*
X144690000Y-104314000D02*
X144690000Y-89214000D01*
X137513450Y-91794000D02*
G75*
G03X137513450Y-91794000I-523450J0D01*
G01*
X137200000Y-89444000D02*
X138300000Y-89444000D01*
X137200000Y-89624000D02*
X138290000Y-89624000D01*
X137200000Y-89874000D02*
X138300000Y-89874000D01*
X137200000Y-104524000D02*
X138300000Y-104524000D01*
X137200000Y-104764000D02*
X138300000Y-104764000D01*
X137513450Y-96784000D02*
G75*
G03X137513450Y-96784000I-523450J0D01*
G01*
X137523450Y-101774000D02*
G75*
G03X137523450Y-101774000I-523450J0D01*
G01*
X137523450Y-86774000D02*
G75*
G03X137523450Y-86774000I-523450J0D01*
G01*
X137513450Y-81784000D02*
G75*
G03X137513450Y-81784000I-523450J0D01*
G01*
X137200000Y-89764000D02*
X138300000Y-89764000D01*
X137200000Y-89524000D02*
X138300000Y-89524000D01*
X137200000Y-74874000D02*
X138300000Y-74874000D01*
X137200000Y-74624000D02*
X138290000Y-74624000D01*
X137200000Y-74444000D02*
X138300000Y-74444000D01*
X137513450Y-76794000D02*
G75*
G03X137513450Y-76794000I-523450J0D01*
G01*
X144690000Y-89314000D02*
X144690000Y-74214000D01*
X144690000Y-74214000D02*
X135410000Y-74224000D01*
X135410000Y-74224000D02*
X135410000Y-89324000D01*
X135410000Y-89324000D02*
X144690000Y-89314000D01*
X142300000Y-88414000D02*
X142300000Y-89314000D01*
X142300000Y-85154000D02*
X142300000Y-83294000D01*
X142300000Y-80224000D02*
X142300000Y-78404000D01*
X142300000Y-75404000D02*
X142300000Y-74214000D01*
X137200000Y-89324000D02*
X137200000Y-90024000D01*
X138300000Y-90024000D02*
X138300000Y-89324000D01*
X137200000Y-90024000D02*
X138300000Y-90024000D01*
X137240000Y-89894000D02*
X138300000Y-89894000D01*
X137200000Y-74224000D02*
X137200000Y-74924000D01*
X137200000Y-74924000D02*
X138300000Y-74924000D01*
X138300000Y-74924000D02*
X138300000Y-74224000D01*
X90373000Y-100163000D02*
X87173000Y-100163000D01*
X87173000Y-95163000D02*
X90373000Y-95163000D01*
X90373000Y-100163000D02*
X90373000Y-99863000D01*
X90373000Y-97963000D02*
X90373000Y-97363000D01*
X90373000Y-95463000D02*
X90373000Y-95163000D01*
X87173000Y-100163000D02*
X87173000Y-99863000D01*
X87173000Y-97963000D02*
X87173000Y-97363000D01*
X87173000Y-95463000D02*
X87173000Y-95163000D01*
X89027000Y-98171000D02*
X89027000Y-97155000D01*
X89027000Y-97155000D02*
X88519000Y-97155000D01*
X88519000Y-97155000D02*
X88519000Y-98171000D01*
X88519000Y-98171000D02*
X89027000Y-98171000D01*
X89408000Y-97990660D02*
X89408000Y-97663000D01*
X89408000Y-97663000D02*
X89408000Y-97335340D01*
X89408000Y-97663000D02*
X89789000Y-97663000D01*
X88138000Y-97990660D02*
X88138000Y-97663000D01*
X88138000Y-97663000D02*
X88138000Y-97335340D01*
X88138000Y-97663000D02*
X87757000Y-97663000D01*
X89273000Y-100153000D02*
G75*
G03X88273000Y-100153000I-500000J0D01*
G01*
X111239300Y-87718900D02*
X113258600Y-87718900D01*
X113258600Y-87718900D02*
X113258600Y-89090500D01*
X111239300Y-87718900D02*
X111239300Y-89090500D01*
X111252000Y-93370400D02*
X113245900Y-93370400D01*
X113258600Y-93345000D02*
X113258600Y-92049600D01*
X111252000Y-93357700D02*
X111252000Y-92062300D01*
X112229900Y-89306400D02*
X112229900Y-91782900D01*
X113182400Y-89890600D02*
X112268000Y-91262200D01*
X112268000Y-91262200D02*
X111277400Y-89890600D01*
X113182400Y-91262200D02*
X111277400Y-91262200D01*
X113182400Y-89890600D02*
X111277400Y-89890600D01*
D14*
X127569000Y-114759000D02*
X127569000Y-111759000D01*
D11*
X129118360Y-114886740D02*
X124119640Y-114886740D01*
X124119640Y-111681260D02*
X129118360Y-111681260D01*
X125984000Y-112649000D02*
X125984000Y-113919000D01*
X125984000Y-113919000D02*
X127000000Y-113284000D01*
X125984000Y-112649000D02*
X127000000Y-113284000D01*
X127000000Y-112649000D02*
X127000000Y-113919000D01*
X111239300Y-72631300D02*
X113258600Y-72631300D01*
X113258600Y-72631300D02*
X113258600Y-74002900D01*
X111239300Y-72631300D02*
X111239300Y-74002900D01*
X111252000Y-78282800D02*
X113245900Y-78282800D01*
X113258600Y-78257400D02*
X113258600Y-76962000D01*
X111252000Y-78270100D02*
X111252000Y-76974700D01*
X112229900Y-74218800D02*
X112229900Y-76695300D01*
X113182400Y-74803000D02*
X112268000Y-76174600D01*
X112268000Y-76174600D02*
X111277400Y-74803000D01*
X113182400Y-76174600D02*
X111277400Y-76174600D01*
X113182400Y-74803000D02*
X111277400Y-74803000D01*
X118284000Y-111561000D02*
X120984000Y-111561000D01*
X118284000Y-108371000D02*
X118284000Y-113371000D01*
X118284000Y-112001000D02*
X120984000Y-112001000D01*
X120984000Y-113371000D02*
X120984000Y-108371000D01*
X100228400Y-108889800D02*
X100228400Y-106984800D01*
X98856800Y-108889800D02*
X98856800Y-106984800D01*
X98856800Y-107975400D02*
X100228400Y-106984800D01*
X100228400Y-108889800D02*
X98856800Y-107975400D01*
X100812600Y-107937300D02*
X98336100Y-107937300D01*
X96761300Y-106959400D02*
X98056700Y-106959400D01*
X96774000Y-108966000D02*
X98069400Y-108966000D01*
X96748600Y-106959400D02*
X96748600Y-108953300D01*
X102400100Y-106946700D02*
X101028500Y-106946700D01*
X102400100Y-108966000D02*
X101028500Y-108966000D01*
X102400100Y-106946700D02*
X102400100Y-108966000D01*
X125857000Y-102438200D02*
X125857000Y-103149400D01*
X126695200Y-103149400D02*
X125857000Y-103149400D01*
X126695200Y-100304600D02*
X125857000Y-100304600D01*
X125857000Y-100304600D02*
X125857000Y-101015800D01*
X126335000Y-106823000D02*
X126335000Y-108823000D01*
X128935000Y-106823000D02*
X128935000Y-108823000D01*
D15*
X94919800Y-108839000D02*
X94081600Y-108839000D01*
X94919800Y-107061000D02*
X94081600Y-107061000D01*
X90678000Y-91135200D02*
X90678000Y-91973400D01*
X92456000Y-91135200D02*
X92456000Y-91973400D01*
X85979000Y-107645200D02*
X85979000Y-108483400D01*
X87757000Y-107645200D02*
X87757000Y-108483400D01*
X114630200Y-97282000D02*
X114630200Y-98298000D01*
X113461800Y-97282000D02*
X113461800Y-98298000D01*
X114630200Y-97282000D02*
X113461800Y-97282000D01*
X113461800Y-100076000D02*
X113461800Y-99060000D01*
X114681000Y-99060000D02*
X114681000Y-100076000D01*
D10*
X114046000Y-98419000D02*
X114046000Y-98939000D01*
X114156000Y-98589000D02*
X113936000Y-98589000D01*
X114156000Y-98589000D02*
X114056000Y-98699000D01*
X113936000Y-98589000D02*
X114036000Y-98689000D01*
X114156000Y-98779000D02*
X113936000Y-98779000D01*
D16*
X114296000Y-98569000D02*
X114406000Y-98699000D01*
X114426000Y-98709000D02*
X114416000Y-98629000D01*
X114426000Y-98709000D02*
X114346000Y-98709000D01*
X114426000Y-98899000D02*
X114346000Y-98899000D01*
X114426000Y-98899000D02*
X114416000Y-98819000D01*
X114296000Y-98759000D02*
X114406000Y-98889000D01*
D17*
X114909600Y-98132900D02*
X115481100Y-98679000D01*
X115481100Y-98691700D02*
X115392200Y-98272600D01*
X115468400Y-98691700D02*
X115074700Y-98640900D01*
X115468400Y-99479100D02*
X115074700Y-99428300D01*
X115481100Y-99479100D02*
X115392200Y-99060000D01*
X114909600Y-98920300D02*
X115481100Y-99466400D01*
D11*
X114617500Y-100088700D02*
X114490500Y-100241100D01*
X113525300Y-100088700D02*
X113652300Y-100228400D01*
X114490500Y-100241100D02*
X113665000Y-100241100D01*
X113563400Y-100076000D02*
X114604800Y-100076000D01*
X113309400Y-70231000D02*
X114350800Y-70231000D01*
X114236500Y-70396100D02*
X113411000Y-70396100D01*
X113271300Y-70243700D02*
X113398300Y-70383400D01*
X114363500Y-70243700D02*
X114236500Y-70396100D01*
D17*
X114655600Y-69075300D02*
X115227100Y-69621400D01*
X115227100Y-69634100D02*
X115138200Y-69215000D01*
X115214400Y-69634100D02*
X114820700Y-69583300D01*
X115214400Y-68846700D02*
X114820700Y-68795900D01*
X115227100Y-68846700D02*
X115138200Y-68427600D01*
X114655600Y-68287900D02*
X115227100Y-68834000D01*
D16*
X114042000Y-68914000D02*
X114152000Y-69044000D01*
X114172000Y-69054000D02*
X114162000Y-68974000D01*
X114172000Y-69054000D02*
X114092000Y-69054000D01*
X114172000Y-68864000D02*
X114092000Y-68864000D01*
X114172000Y-68864000D02*
X114162000Y-68784000D01*
X114042000Y-68724000D02*
X114152000Y-68854000D01*
D10*
X113902000Y-68934000D02*
X113682000Y-68934000D01*
X113682000Y-68744000D02*
X113782000Y-68844000D01*
X113902000Y-68744000D02*
X113802000Y-68854000D01*
X113902000Y-68744000D02*
X113682000Y-68744000D01*
X113792000Y-68574000D02*
X113792000Y-69094000D01*
D15*
X114427000Y-69215000D02*
X114427000Y-70231000D01*
X113207800Y-70231000D02*
X113207800Y-69215000D01*
X114376200Y-67437000D02*
X113207800Y-67437000D01*
X113207800Y-67437000D02*
X113207800Y-68453000D01*
X114376200Y-67437000D02*
X114376200Y-68453000D01*
D11*
X130937000Y-115651000D02*
X144437000Y-115651000D01*
X144437000Y-115651000D02*
X144437000Y-106599000D01*
X130937000Y-115651000D02*
X130937000Y-113553000D01*
X130937000Y-106598720D02*
X130937000Y-108457000D01*
X144437000Y-106599000D02*
X136737000Y-106599000D01*
X130937000Y-106599000D02*
X131637000Y-106599000D01*
X135308000Y-116135000D02*
X144398000Y-116135000D01*
X135308000Y-106125000D02*
X135308000Y-116135000D01*
X144408000Y-106125000D02*
X135308000Y-106125000D01*
X144398000Y-116135000D02*
X144408000Y-106125000D01*
X142008000Y-112595000D02*
X142008000Y-109655000D01*
X142008000Y-116135000D02*
X142008000Y-114645000D01*
X142008000Y-106125000D02*
X142008000Y-107615000D01*
X137231450Y-113625000D02*
G75*
G03X137231450Y-113625000I-523450J0D01*
G01*
X137221450Y-108635000D02*
G75*
G03X137221450Y-108635000I-523450J0D01*
G01*
X135118000Y-106125000D02*
X135118000Y-116135000D01*
X135548000Y-106125000D02*
X135118000Y-106125000D01*
X135488000Y-116135000D02*
X135118000Y-116135000D01*
X136908000Y-116135000D02*
X136908000Y-116615000D01*
X136908000Y-116615000D02*
X138008000Y-116615000D01*
X138008000Y-116615000D02*
X138008000Y-116135000D01*
X136908000Y-116375000D02*
X138008000Y-116375000D01*
X136908000Y-106125000D02*
X136908000Y-106725000D01*
X138008000Y-106725000D02*
X138008000Y-106125000D01*
X136908000Y-106725000D02*
X138008000Y-106725000D01*
X136908000Y-106475000D02*
X137998000Y-106475000D01*
X136908000Y-106295000D02*
X138008000Y-106295000D01*
X144272000Y-117449600D02*
X144272000Y-116408200D01*
X144437100Y-116522500D02*
X144437100Y-117348000D01*
X144284700Y-117487700D02*
X144424400Y-117360700D01*
X144284700Y-116395500D02*
X144437100Y-116522500D01*
D17*
X143116300Y-116103400D02*
X143662400Y-115531900D01*
X143675100Y-115531900D02*
X143256000Y-115620800D01*
X143675100Y-115544600D02*
X143624300Y-115938300D01*
X142887700Y-115544600D02*
X142836900Y-115938300D01*
X142887700Y-115531900D02*
X142468600Y-115620800D01*
X142328900Y-116103400D02*
X142875000Y-115531900D01*
D16*
X142955000Y-116717000D02*
X143085000Y-116607000D01*
X143095000Y-116587000D02*
X143015000Y-116597000D01*
X143095000Y-116587000D02*
X143095000Y-116667000D01*
X142905000Y-116587000D02*
X142905000Y-116667000D01*
X142905000Y-116587000D02*
X142825000Y-116597000D01*
X142765000Y-116717000D02*
X142895000Y-116607000D01*
D10*
X142975000Y-116857000D02*
X142975000Y-117077000D01*
X142785000Y-117077000D02*
X142885000Y-116977000D01*
X142785000Y-116857000D02*
X142895000Y-116957000D01*
X142785000Y-116857000D02*
X142785000Y-117077000D01*
X142615000Y-116967000D02*
X143135000Y-116967000D01*
D15*
X143256000Y-116332000D02*
X144272000Y-116332000D01*
X144272000Y-117551200D02*
X143256000Y-117551200D01*
X141478000Y-116382800D02*
X141478000Y-117551200D01*
X141478000Y-117551200D02*
X142494000Y-117551200D01*
X141478000Y-116382800D02*
X142494000Y-116382800D01*
D11*
X114630200Y-86360000D02*
X115341400Y-86360000D01*
X115341400Y-85521800D02*
X115341400Y-86360000D01*
X112496600Y-85521800D02*
X112496600Y-86360000D01*
X112496600Y-86360000D02*
X113207800Y-86360000D01*
X92735400Y-68580000D02*
X92024200Y-68580000D01*
X92735400Y-69418200D02*
X92735400Y-68580000D01*
X89890600Y-69418200D02*
X89890600Y-68580000D01*
X90601800Y-68580000D02*
X89890600Y-68580000D01*
X113411000Y-80391000D02*
X114427000Y-80391000D01*
X113411000Y-81915000D02*
X114427000Y-81915000D01*
X113411000Y-83693000D02*
X114427000Y-83693000D01*
X113411000Y-82169000D02*
X114427000Y-82169000D01*
X113284000Y-94869000D02*
X113284000Y-95885000D01*
X114808000Y-94869000D02*
X114808000Y-95885000D01*
X140462000Y-116522500D02*
X140208000Y-116522500D01*
X140462000Y-116522500D02*
X140716000Y-116522500D01*
X140462000Y-117411500D02*
X140716000Y-117411500D01*
X140462000Y-117411500D02*
X140208000Y-117411500D01*
X92075000Y-74295000D02*
X91059000Y-74295000D01*
X92075000Y-72771000D02*
X91059000Y-72771000D01*
X91821000Y-71247000D02*
X90805000Y-71247000D01*
X91821000Y-72771000D02*
X90805000Y-72771000D01*
X129794000Y-118110000D02*
X129794000Y-117094000D01*
X128270000Y-118110000D02*
X128270000Y-117094000D01*
X118618000Y-103124000D02*
X117602000Y-103124000D01*
X118618000Y-104648000D02*
X117602000Y-104648000D01*
X126492000Y-117475000D02*
X126492000Y-116459000D01*
X128016000Y-117475000D02*
X128016000Y-116459000D01*
X118618000Y-105029000D02*
X117602000Y-105029000D01*
X118618000Y-106553000D02*
X117602000Y-106553000D01*
X111379000Y-69596000D02*
X111379000Y-68580000D01*
X112903000Y-69596000D02*
X112903000Y-68580000D01*
X116840000Y-108712000D02*
X115824000Y-108712000D01*
X116840000Y-107188000D02*
X115824000Y-107188000D01*
X115824000Y-110490000D02*
X116840000Y-110490000D01*
X115824000Y-108966000D02*
X116840000Y-108966000D01*
X80264000Y-98933000D02*
X80264000Y-99949000D01*
X81788000Y-98933000D02*
X81788000Y-99949000D01*
X131572000Y-118110000D02*
X131572000Y-117094000D01*
X130048000Y-118110000D02*
X130048000Y-117094000D01*
X81788000Y-102997000D02*
X81788000Y-101981000D01*
X80264000Y-102997000D02*
X80264000Y-101981000D01*
X123317000Y-99695000D02*
X124333000Y-99695000D01*
X123317000Y-101219000D02*
X124333000Y-101219000D01*
X93853000Y-113157000D02*
X93853000Y-114173000D01*
X92329000Y-113157000D02*
X92329000Y-114173000D01*
X123507500Y-117602000D02*
X123507500Y-117348000D01*
X123507500Y-117602000D02*
X123507500Y-117856000D01*
X124396500Y-117602000D02*
X124396500Y-117856000D01*
X124396500Y-117602000D02*
X124396500Y-117348000D01*
X125539500Y-117602000D02*
X125539500Y-117348000D01*
X125539500Y-117602000D02*
X125539500Y-117856000D01*
X124650500Y-117602000D02*
X124650500Y-117856000D01*
X124650500Y-117602000D02*
X124650500Y-117348000D01*
X109474000Y-106934000D02*
X109474000Y-107950000D01*
X107950000Y-106934000D02*
X107950000Y-107950000D01*
X109855000Y-106934000D02*
X109855000Y-107950000D01*
X111379000Y-106934000D02*
X111379000Y-107950000D01*
X105283000Y-107061000D02*
X104267000Y-107061000D01*
X105283000Y-108585000D02*
X104267000Y-108585000D01*
X72263000Y-93091000D02*
X71247000Y-93091000D01*
X72263000Y-94615000D02*
X71247000Y-94615000D01*
D15*
X95504000Y-90678000D02*
X96520000Y-90678000D01*
X96520000Y-90678000D02*
X96520000Y-91948000D01*
X96520000Y-91948000D02*
X95504000Y-91948000D01*
X93472000Y-90678000D02*
X93472000Y-91948000D01*
X93472000Y-91948000D02*
X94488000Y-91948000D01*
X93472000Y-90678000D02*
X94488000Y-90678000D01*
D11*
X92456000Y-74295000D02*
X93472000Y-74295000D01*
X92456000Y-75819000D02*
X93472000Y-75819000D01*
X93599000Y-77343000D02*
X92583000Y-77343000D01*
X93599000Y-75819000D02*
X92583000Y-75819000D01*
X99187000Y-91694000D02*
X99187000Y-92710000D01*
X100711000Y-91694000D02*
X100711000Y-92710000D01*
X84709000Y-116459000D02*
X83693000Y-116459000D01*
X84709000Y-114935000D02*
X83693000Y-114935000D01*
X98425000Y-91694000D02*
X98425000Y-92710000D01*
X96901000Y-91694000D02*
X96901000Y-92710000D01*
X102743000Y-91694000D02*
X102743000Y-92710000D01*
X104267000Y-91694000D02*
X104267000Y-92710000D01*
X102489000Y-91694000D02*
X102489000Y-92710000D01*
X100965000Y-91694000D02*
X100965000Y-92710000D01*
X88265000Y-100457000D02*
X89281000Y-100457000D01*
X88265000Y-101981000D02*
X89281000Y-101981000D01*
X90932000Y-96774000D02*
X90932000Y-95758000D01*
X92456000Y-96774000D02*
X92456000Y-95758000D01*
X88265000Y-94869000D02*
X89281000Y-94869000D01*
X88265000Y-93345000D02*
X89281000Y-93345000D01*
X109093000Y-100711000D02*
X110109000Y-100711000D01*
X109093000Y-99187000D02*
X110109000Y-99187000D01*
X109093000Y-97409000D02*
X110109000Y-97409000D01*
X109093000Y-98933000D02*
X110109000Y-98933000D01*
X95504000Y-94107000D02*
X94488000Y-94107000D01*
X95504000Y-95631000D02*
X94488000Y-95631000D01*
X109093000Y-102743000D02*
X110109000Y-102743000D01*
X109093000Y-104267000D02*
X110109000Y-104267000D01*
X109093000Y-102489000D02*
X110109000Y-102489000D01*
X109093000Y-100965000D02*
X110109000Y-100965000D01*
D18*
X130576000Y-91440000D02*
X131976000Y-92840000D01*
X124476000Y-91440000D02*
X130376000Y-91440000D01*
X130376000Y-91440000D02*
X130576000Y-91440000D01*
X131176000Y-87640000D02*
X131176000Y-90740000D01*
X131176000Y-95140000D02*
X131176000Y-92140000D01*
X122576000Y-93440000D02*
X122076000Y-93440000D01*
X122476000Y-93440000D02*
G75*
G03X124476000Y-91440000I0J2000000D01*
G01*
X120176000Y-91440000D02*
G75*
G03X122176000Y-93440000I2000000J0D01*
G01*
X118876000Y-91440000D02*
X120176000Y-91440000D01*
X123576000Y-90740000D02*
X121076000Y-92040000D01*
X123576000Y-90740000D02*
X121076000Y-90740000D01*
X121076000Y-90740000D02*
X121076000Y-92040000D01*
X121076000Y-92040000D02*
X123576000Y-92040000D01*
X123576000Y-92040000D02*
X123576000Y-90740000D01*
X122276000Y-85440000D02*
X122276000Y-90740000D01*
X122276000Y-97440000D02*
X122276000Y-92040000D01*
X121576000Y-85440000D02*
X122276000Y-85440000D01*
X121576000Y-97440000D02*
X122276000Y-97440000D01*
X115876000Y-90040000D02*
X115876000Y-83640000D01*
X115876000Y-99240000D02*
X115876000Y-92840000D01*
X135076000Y-83640000D02*
X115876000Y-83640000D01*
X115876000Y-99240000D02*
X135076000Y-99240000D01*
X135076000Y-99240000D02*
X135076000Y-83640000D01*
X135076000Y-82984000D02*
X135076000Y-67384000D01*
X115876000Y-82984000D02*
X135076000Y-82984000D01*
X135076000Y-67384000D02*
X115876000Y-67384000D01*
X115876000Y-82984000D02*
X115876000Y-76584000D01*
X115876000Y-73784000D02*
X115876000Y-67384000D01*
X121576000Y-81184000D02*
X122276000Y-81184000D01*
X121576000Y-69184000D02*
X122276000Y-69184000D01*
X122276000Y-81184000D02*
X122276000Y-75784000D01*
X122276000Y-69184000D02*
X122276000Y-74484000D01*
X123576000Y-75784000D02*
X123576000Y-74484000D01*
X121076000Y-75784000D02*
X123576000Y-75784000D01*
X121076000Y-74484000D02*
X121076000Y-75784000D01*
X123576000Y-74484000D02*
X121076000Y-74484000D01*
X123576000Y-74484000D02*
X121076000Y-75784000D01*
X118876000Y-75184000D02*
X120176000Y-75184000D01*
X120176000Y-75184000D02*
G75*
G03X122176000Y-77184000I2000000J0D01*
G01*
X122476000Y-77184000D02*
G75*
G03X124476000Y-75184000I0J2000000D01*
G01*
X122576000Y-77184000D02*
X122076000Y-77184000D01*
X131176000Y-78884000D02*
X131176000Y-75884000D01*
X131176000Y-71384000D02*
X131176000Y-74484000D01*
X130376000Y-75184000D02*
X130576000Y-75184000D01*
X124476000Y-75184000D02*
X130376000Y-75184000D01*
X130576000Y-75184000D02*
X131976000Y-76584000D01*
D11*
X82854800Y-111734600D02*
X82854800Y-111518700D01*
X85801200Y-111734600D02*
X82854800Y-111734600D01*
X85801200Y-111544100D02*
X85801200Y-111734600D01*
X82854800Y-107721400D02*
X82854800Y-107937300D01*
X85801200Y-107746800D02*
X85801200Y-107924600D01*
X85801200Y-107734100D02*
X82854800Y-107734100D01*
X95034100Y-103428800D02*
X95034100Y-106375200D01*
X95046800Y-103428800D02*
X95224600Y-103428800D01*
X95021400Y-106375200D02*
X95237300Y-106375200D01*
X98844100Y-103428800D02*
X99034600Y-103428800D01*
X99034600Y-103428800D02*
X99034600Y-106375200D01*
X99034600Y-106375200D02*
X98818700Y-106375200D01*
X99339400Y-103428800D02*
X99555300Y-103428800D01*
X99339400Y-106375200D02*
X99339400Y-103428800D01*
X99529900Y-106375200D02*
X99339400Y-106375200D01*
X103352600Y-103428800D02*
X103136700Y-103428800D01*
X103327200Y-106375200D02*
X103149400Y-106375200D01*
X103339900Y-106375200D02*
X103339900Y-103428800D01*
X119229000Y-99719000D02*
X116229000Y-99719000D01*
X119229000Y-102719000D02*
X119229000Y-99719000D01*
X116229000Y-102719000D02*
X119229000Y-102719000D01*
X117369512Y-100419000D02*
G75*
G03X117369512Y-100419000I-390512J0D01*
G01*
X116229000Y-102719000D02*
X116229000Y-99719000D01*
X121081800Y-115557300D02*
X119951500Y-115557300D01*
X121081800Y-118364000D02*
X119951500Y-118364000D01*
X97624900Y-96433640D02*
X97449640Y-96608900D01*
X97449640Y-96608900D02*
X97449640Y-96834960D01*
X97449640Y-101031040D02*
X97449640Y-101432360D01*
X97449640Y-101432360D02*
X97850960Y-101432360D01*
X102047040Y-101432360D02*
X102448360Y-101432360D01*
X102448360Y-101432360D02*
X102448360Y-101031040D01*
X102448360Y-96834960D02*
X102448360Y-96433640D01*
X102448360Y-96433640D02*
X102047040Y-96433640D01*
X97850960Y-96433640D02*
X97624900Y-96433640D01*
D19*
X97226873Y-96034860D02*
G75*
G03X97226873Y-96034860I-176013J0D01*
G01*
D11*
X108661200Y-117094000D02*
X108661200Y-117754400D01*
X107340400Y-117106700D02*
X107340400Y-117754400D01*
X114325400Y-109601000D02*
X114325400Y-118313200D01*
X94081600Y-118300500D02*
X98552000Y-118300500D01*
X106260900Y-117094000D02*
X113004600Y-117106700D01*
X113017300Y-110756700D02*
X113017300Y-117106700D01*
X95262700Y-110731300D02*
X95262700Y-117081300D01*
X94068900Y-109601000D02*
X94068900Y-118313200D01*
X94056200Y-109588300D02*
X95161100Y-109588300D01*
X95262700Y-110731300D02*
X113004600Y-110744000D01*
X102194360Y-118305580D02*
X106243120Y-118303040D01*
X102181660Y-117076220D02*
X95333820Y-117078760D01*
X114294920Y-109580680D02*
X113040160Y-109578140D01*
X113040160Y-109578140D02*
X113040160Y-109280960D01*
X113040160Y-109280960D02*
X111737140Y-109280960D01*
X111737140Y-109280960D02*
X111737140Y-109585760D01*
X111737140Y-109585760D02*
X104726740Y-109606080D01*
X104726740Y-109606080D02*
X104721660Y-109280960D01*
X104721660Y-109280960D02*
X103411020Y-109286040D01*
X103411020Y-109286040D02*
X103405940Y-109590840D01*
X103405940Y-109590840D02*
X96466660Y-109590840D01*
X96466660Y-109590840D02*
X96466660Y-109270800D01*
X96466660Y-109270800D02*
X95163640Y-109270800D01*
X95163640Y-109270800D02*
X95163640Y-109583220D01*
X109522260Y-118282720D02*
X114277140Y-118285260D01*
X106240580Y-116314220D02*
X106245660Y-118303040D01*
X106271060Y-118290340D02*
X106921300Y-117787420D01*
X106946700Y-117774720D02*
X108953300Y-117774720D01*
D17*
X108902500Y-117774720D02*
X108983780Y-117774720D01*
X108971080Y-117774720D02*
X109047280Y-117774720D01*
D11*
X109034580Y-117762020D02*
X109509560Y-118270020D01*
X102194360Y-118308120D02*
X102194360Y-116316760D01*
X102194360Y-116316760D02*
X106235500Y-116314220D01*
X99750880Y-118308120D02*
X102148640Y-118308120D01*
X98508820Y-118303040D02*
X98516440Y-118143020D01*
X98516440Y-118143020D02*
X99788980Y-118143020D01*
X99801680Y-118143020D02*
X99801680Y-118310660D01*
X107061000Y-123698000D02*
X107315000Y-123952000D01*
X106807000Y-123952000D02*
X107061000Y-123698000D01*
X104267000Y-123952000D02*
X102235000Y-123952000D01*
X104521000Y-123698000D02*
X104267000Y-123952000D01*
X104775000Y-123952000D02*
X104521000Y-123698000D01*
X106807000Y-123952000D02*
X104775000Y-123952000D01*
X102235000Y-123952000D02*
X101981000Y-123698000D01*
X101981000Y-119126000D02*
X102235000Y-118872000D01*
X109347000Y-123952000D02*
X107315000Y-123952000D01*
X109601000Y-123698000D02*
X109347000Y-123952000D01*
X112395000Y-123952000D02*
X112141000Y-123698000D01*
X111887000Y-123952000D02*
X109855000Y-123952000D01*
X112141000Y-123698000D02*
X111887000Y-123952000D01*
X111887000Y-118872000D02*
X112141000Y-119126000D01*
X109855000Y-118872000D02*
X111887000Y-118872000D01*
X109601000Y-119126000D02*
X109855000Y-118872000D01*
X109347000Y-118872000D02*
X109601000Y-119126000D01*
X107315000Y-118872000D02*
X109347000Y-118872000D01*
X107061000Y-119126000D02*
X107315000Y-118872000D01*
X106807000Y-118872000D02*
X107061000Y-119126000D01*
X104775000Y-118872000D02*
X106807000Y-118872000D01*
X104521000Y-119126000D02*
X104775000Y-118872000D01*
X104267000Y-118872000D02*
X104521000Y-119126000D01*
X102235000Y-118872000D02*
X104267000Y-118872000D01*
X112141000Y-119126000D02*
X112395000Y-118872000D01*
X112395000Y-118872000D02*
X114427000Y-118872000D01*
X116967000Y-118872000D02*
X117221000Y-119126000D01*
X114427000Y-123952000D02*
X112395000Y-123952000D01*
X109855000Y-123952000D02*
X109601000Y-123698000D01*
X117221000Y-123698000D02*
X116967000Y-123952000D01*
X114935000Y-118872000D02*
X116967000Y-118872000D01*
X114681000Y-119126000D02*
X114935000Y-118872000D01*
X116967000Y-123952000D02*
X114935000Y-123952000D01*
X114681000Y-123698000D02*
X114427000Y-123952000D01*
X114935000Y-123952000D02*
X114681000Y-123698000D01*
X114427000Y-118872000D02*
X114681000Y-119126000D01*
X116967000Y-118872000D02*
X117221000Y-119126000D01*
X117221000Y-123698000D02*
X116967000Y-123952000D01*
X116967000Y-123952000D02*
X114935000Y-123952000D01*
X114935000Y-118872000D02*
X116967000Y-118872000D01*
X114681000Y-119126000D02*
X114935000Y-118872000D01*
X114935000Y-123952000D02*
X114681000Y-123698000D01*
X120015000Y-123952000D02*
X119761000Y-123698000D01*
X119761000Y-119126000D02*
X120015000Y-118872000D01*
X120015000Y-118872000D02*
X122047000Y-118872000D01*
X122047000Y-123952000D02*
X120015000Y-123952000D01*
X122301000Y-123698000D02*
X122047000Y-123952000D01*
X122047000Y-118872000D02*
X122301000Y-119126000D01*
X119507000Y-118872000D02*
X119761000Y-119126000D01*
X120015000Y-123952000D02*
X119761000Y-123698000D01*
X119761000Y-123698000D02*
X119507000Y-123952000D01*
X122047000Y-123952000D02*
X120015000Y-123952000D01*
X119761000Y-119126000D02*
X120015000Y-118872000D01*
X120015000Y-118872000D02*
X122047000Y-118872000D01*
X122301000Y-123698000D02*
X122047000Y-123952000D01*
X119507000Y-123952000D02*
X117475000Y-123952000D01*
X122047000Y-118872000D02*
X122301000Y-119126000D01*
X117475000Y-118872000D02*
X119507000Y-118872000D01*
X117221000Y-119126000D02*
X117475000Y-118872000D01*
X117475000Y-123952000D02*
X117221000Y-123698000D01*
X122555000Y-123952000D02*
X122301000Y-123698000D01*
X122301000Y-119126000D02*
X122555000Y-118872000D01*
X122555000Y-118872000D02*
X124587000Y-118872000D01*
X127127000Y-118872000D02*
X127381000Y-119126000D01*
X124587000Y-123952000D02*
X122555000Y-123952000D01*
X127381000Y-123698000D02*
X127127000Y-123952000D01*
X127381000Y-121666000D02*
X127381000Y-123698000D01*
X125095000Y-118872000D02*
X127127000Y-118872000D01*
X124841000Y-119126000D02*
X125095000Y-118872000D01*
X127127000Y-123952000D02*
X125095000Y-123952000D01*
X124841000Y-123698000D02*
X124587000Y-123952000D01*
X125095000Y-123952000D02*
X124841000Y-123698000D01*
X124587000Y-118872000D02*
X124841000Y-119126000D01*
X127127000Y-118872000D02*
X127381000Y-119126000D01*
X127381000Y-123698000D02*
X127127000Y-123952000D01*
X127127000Y-123952000D02*
X125095000Y-123952000D01*
X125095000Y-118872000D02*
X127127000Y-118872000D01*
X124841000Y-119126000D02*
X125095000Y-118872000D01*
X125095000Y-123952000D02*
X124841000Y-123698000D01*
X127381000Y-119126000D02*
X127381000Y-121539000D01*
X76581000Y-118872000D02*
X76581000Y-121412000D01*
X99695000Y-123952000D02*
X99441000Y-123698000D01*
X99441000Y-119126000D02*
X99695000Y-118872000D01*
X99695000Y-118872000D02*
X101727000Y-118872000D01*
X101727000Y-123952000D02*
X99695000Y-123952000D01*
X101981000Y-123698000D02*
X101727000Y-123952000D01*
X101727000Y-118872000D02*
X101981000Y-119126000D01*
X99187000Y-118872000D02*
X99441000Y-119126000D01*
X99695000Y-123952000D02*
X99441000Y-123698000D01*
X99441000Y-123698000D02*
X99187000Y-123952000D01*
X101727000Y-123952000D02*
X99695000Y-123952000D01*
X99441000Y-119126000D02*
X99695000Y-118872000D01*
X99695000Y-118872000D02*
X101727000Y-118872000D01*
X101981000Y-123698000D02*
X101727000Y-123952000D01*
X99187000Y-123952000D02*
X97155000Y-123952000D01*
X101727000Y-118872000D02*
X101981000Y-119126000D01*
X97155000Y-118872000D02*
X99187000Y-118872000D01*
X96901000Y-119126000D02*
X97155000Y-118872000D01*
X97155000Y-123952000D02*
X96901000Y-123698000D01*
X92075000Y-123952000D02*
X91821000Y-123698000D01*
X91821000Y-119126000D02*
X92075000Y-118872000D01*
X92075000Y-118872000D02*
X94107000Y-118872000D01*
X96647000Y-118872000D02*
X96901000Y-119126000D01*
X94107000Y-123952000D02*
X92075000Y-123952000D01*
X96901000Y-123698000D02*
X96647000Y-123952000D01*
X94615000Y-118872000D02*
X96647000Y-118872000D01*
X94361000Y-119126000D02*
X94615000Y-118872000D01*
X96647000Y-123952000D02*
X94615000Y-123952000D01*
X94361000Y-123698000D02*
X94107000Y-123952000D01*
X94615000Y-123952000D02*
X94361000Y-123698000D01*
X94107000Y-118872000D02*
X94361000Y-119126000D01*
X96647000Y-118872000D02*
X96901000Y-119126000D01*
X96901000Y-123698000D02*
X96647000Y-123952000D01*
X96647000Y-123952000D02*
X94615000Y-123952000D01*
X94615000Y-118872000D02*
X96647000Y-118872000D01*
X94361000Y-119126000D02*
X94615000Y-118872000D01*
X94615000Y-123952000D02*
X94361000Y-123698000D01*
X89535000Y-123952000D02*
X89281000Y-123698000D01*
X89281000Y-119126000D02*
X89535000Y-118872000D01*
X89535000Y-118872000D02*
X91567000Y-118872000D01*
X91567000Y-123952000D02*
X89535000Y-123952000D01*
X91821000Y-123698000D02*
X91567000Y-123952000D01*
X91567000Y-118872000D02*
X91821000Y-119126000D01*
X89027000Y-118872000D02*
X89281000Y-119126000D01*
X89535000Y-123952000D02*
X89281000Y-123698000D01*
X89281000Y-123698000D02*
X89027000Y-123952000D01*
X91567000Y-123952000D02*
X89535000Y-123952000D01*
X89281000Y-119126000D02*
X89535000Y-118872000D01*
X89535000Y-118872000D02*
X91567000Y-118872000D01*
X91821000Y-123698000D02*
X91567000Y-123952000D01*
X84455000Y-123952000D02*
X84201000Y-123698000D01*
X89027000Y-123952000D02*
X86995000Y-123952000D01*
X91567000Y-118872000D02*
X91821000Y-119126000D01*
X86995000Y-118872000D02*
X89027000Y-118872000D01*
X86741000Y-119126000D02*
X86995000Y-118872000D01*
X76581000Y-118872000D02*
X76835000Y-118872000D01*
X76835000Y-118872000D02*
X78867000Y-118872000D01*
X78867000Y-118872000D02*
X79121000Y-119126000D01*
X79121000Y-119126000D02*
X79375000Y-118872000D01*
X79375000Y-118872000D02*
X81407000Y-118872000D01*
X81407000Y-118872000D02*
X81661000Y-119126000D01*
X81661000Y-119126000D02*
X81915000Y-118872000D01*
X81915000Y-118872000D02*
X83947000Y-118872000D01*
X83947000Y-118872000D02*
X84201000Y-119126000D01*
X84201000Y-119126000D02*
X84455000Y-118872000D01*
X84455000Y-118872000D02*
X86487000Y-118872000D01*
X86487000Y-118872000D02*
X86741000Y-119126000D01*
X86741000Y-123698000D02*
X86487000Y-123952000D01*
X86487000Y-123952000D02*
X84455000Y-123952000D01*
X86995000Y-123952000D02*
X86741000Y-123698000D01*
X84201000Y-123698000D02*
X83947000Y-123952000D01*
X83947000Y-123952000D02*
X81915000Y-123952000D01*
X76581000Y-119126000D02*
X76835000Y-118872000D01*
X76835000Y-123952000D02*
X76581000Y-123698000D01*
X77089000Y-123952000D02*
X76581000Y-123952000D01*
X81407000Y-123952000D02*
X79375000Y-123952000D01*
X79375000Y-123952000D02*
X79121000Y-123698000D01*
X79121000Y-123698000D02*
X78867000Y-123952000D01*
X78867000Y-123952000D02*
X77089000Y-123952000D01*
X81407000Y-123952000D02*
X81661000Y-123698000D01*
X81661000Y-123698000D02*
X81915000Y-123952000D01*
X76581000Y-121412000D02*
X76581000Y-123952000D01*
X81975960Y-115582700D02*
X77284580Y-115582700D01*
X82405220Y-104747060D02*
X82405220Y-105216960D01*
X82405220Y-108755180D02*
X82405220Y-111203740D01*
X82405220Y-114853720D02*
X82405220Y-115153440D01*
X71038720Y-116674900D02*
X75557380Y-116674900D01*
X71038720Y-104315260D02*
X81975960Y-104315260D01*
X70609460Y-104757220D02*
X70609460Y-116243100D01*
X77284580Y-115582700D02*
X75577700Y-116674900D01*
X84709000Y-113030000D02*
X83693000Y-113030000D01*
X84709000Y-114554000D02*
X83693000Y-114554000D01*
X76484000Y-96555000D02*
X76484000Y-97755000D01*
X76484000Y-97755000D02*
X73884000Y-97755000D01*
X73884000Y-96555000D02*
X73884000Y-97755000D01*
X76484000Y-96555000D02*
X73884000Y-96555000D01*
X72284000Y-99255000D02*
X78084000Y-99255000D01*
X72284000Y-95055000D02*
X72284000Y-99255000D01*
X78084000Y-95055000D02*
X72284000Y-95055000D01*
X78084000Y-99255000D02*
X78084000Y-95055000D01*
X78084000Y-103827000D02*
X78084000Y-99627000D01*
X78084000Y-99627000D02*
X72284000Y-99627000D01*
X72284000Y-99627000D02*
X72284000Y-103827000D01*
X72284000Y-103827000D02*
X78084000Y-103827000D01*
X76484000Y-101127000D02*
X73884000Y-101127000D01*
X73884000Y-101127000D02*
X73884000Y-102327000D01*
X76484000Y-102327000D02*
X73884000Y-102327000D01*
X76484000Y-101127000D02*
X76484000Y-102327000D01*
X93218000Y-84836000D02*
X93218000Y-83312000D01*
X90932000Y-84836000D02*
X90932000Y-83312000D01*
X93218000Y-78740000D02*
X93218000Y-80264000D01*
X90932000Y-78740000D02*
X90932000Y-80264000D01*
D15*
X130416300Y-123952000D02*
X130416300Y-122936000D01*
X131584700Y-123952000D02*
X131584700Y-122936000D01*
X130416300Y-123952000D02*
X131584700Y-123952000D01*
X131584700Y-121158000D02*
X131584700Y-122174000D01*
X130365500Y-122174000D02*
X130365500Y-121158000D01*
D10*
X131000500Y-122815000D02*
X131000500Y-122295000D01*
X130890500Y-122645000D02*
X131110500Y-122645000D01*
X130890500Y-122645000D02*
X130990500Y-122535000D01*
X131110500Y-122645000D02*
X131010500Y-122545000D01*
X130890500Y-122455000D02*
X131110500Y-122455000D01*
D16*
X130750500Y-122665000D02*
X130640500Y-122535000D01*
X130620500Y-122525000D02*
X130630500Y-122605000D01*
X130620500Y-122525000D02*
X130700500Y-122525000D01*
X130620500Y-122335000D02*
X130700500Y-122335000D01*
X130620500Y-122335000D02*
X130630500Y-122415000D01*
X130750500Y-122475000D02*
X130640500Y-122345000D01*
D17*
X130136900Y-123101100D02*
X129565400Y-122555000D01*
X129565400Y-122542300D02*
X129654300Y-122961400D01*
X129578100Y-122542300D02*
X129971800Y-122593100D01*
X129578100Y-121754900D02*
X129971800Y-121805700D01*
X129565400Y-121754900D02*
X129654300Y-122174000D01*
X130136900Y-122313700D02*
X129565400Y-121767600D01*
D11*
X130429000Y-121145300D02*
X130556000Y-120992900D01*
X131521200Y-121145300D02*
X131394200Y-121005600D01*
X130556000Y-120992900D02*
X131381500Y-120992900D01*
X131483100Y-121158000D02*
X130441700Y-121158000D01*
X128689100Y-121158000D02*
X127647700Y-121158000D01*
X127762000Y-120992900D02*
X128587500Y-120992900D01*
X128727200Y-121145300D02*
X128600200Y-121005600D01*
X127635000Y-121145300D02*
X127762000Y-120992900D01*
D17*
X127342900Y-122313700D02*
X126771400Y-121767600D01*
X126771400Y-121754900D02*
X126860300Y-122174000D01*
X126784100Y-121754900D02*
X127177800Y-121805700D01*
X126784100Y-122542300D02*
X127177800Y-122593100D01*
X126771400Y-122542300D02*
X126860300Y-122961400D01*
X127342900Y-123101100D02*
X126771400Y-122555000D01*
D16*
X127956500Y-122475000D02*
X127846500Y-122345000D01*
X127826500Y-122335000D02*
X127836500Y-122415000D01*
X127826500Y-122335000D02*
X127906500Y-122335000D01*
X127826500Y-122525000D02*
X127906500Y-122525000D01*
X127826500Y-122525000D02*
X127836500Y-122605000D01*
X127956500Y-122665000D02*
X127846500Y-122535000D01*
D10*
X128096500Y-122455000D02*
X128316500Y-122455000D01*
X128316500Y-122645000D02*
X128216500Y-122545000D01*
X128096500Y-122645000D02*
X128196500Y-122535000D01*
X128096500Y-122645000D02*
X128316500Y-122645000D01*
X128206500Y-122815000D02*
X128206500Y-122295000D01*
D15*
X127571500Y-122174000D02*
X127571500Y-121158000D01*
X128790700Y-121158000D02*
X128790700Y-122174000D01*
X127622300Y-123952000D02*
X128790700Y-123952000D01*
X128790700Y-123952000D02*
X128790700Y-122936000D01*
X127622300Y-123952000D02*
X127622300Y-122936000D01*
D11*
X130086100Y-121158000D02*
X129044700Y-121158000D01*
X129159000Y-120992900D02*
X129984500Y-120992900D01*
X130124200Y-121145300D02*
X129997200Y-121005600D01*
X129032000Y-121145300D02*
X129159000Y-120992900D01*
D17*
X128739900Y-122313700D02*
X128168400Y-121767600D01*
X128168400Y-121754900D02*
X128257300Y-122174000D01*
X128181100Y-121754900D02*
X128574800Y-121805700D01*
X128181100Y-122542300D02*
X128574800Y-122593100D01*
X128168400Y-122542300D02*
X128257300Y-122961400D01*
X128739900Y-123101100D02*
X128168400Y-122555000D01*
D16*
X129353500Y-122475000D02*
X129243500Y-122345000D01*
X129223500Y-122335000D02*
X129233500Y-122415000D01*
X129223500Y-122335000D02*
X129303500Y-122335000D01*
X129223500Y-122525000D02*
X129303500Y-122525000D01*
X129223500Y-122525000D02*
X129233500Y-122605000D01*
X129353500Y-122665000D02*
X129243500Y-122535000D01*
D10*
X129493500Y-122455000D02*
X129713500Y-122455000D01*
X129713500Y-122645000D02*
X129613500Y-122545000D01*
X129493500Y-122645000D02*
X129593500Y-122535000D01*
X129493500Y-122645000D02*
X129713500Y-122645000D01*
X129603500Y-122815000D02*
X129603500Y-122295000D01*
D15*
X128968500Y-122174000D02*
X128968500Y-121158000D01*
X130187700Y-121158000D02*
X130187700Y-122174000D01*
X129019300Y-123952000D02*
X130187700Y-123952000D01*
X130187700Y-123952000D02*
X130187700Y-122936000D01*
X129019300Y-123952000D02*
X129019300Y-122936000D01*
D11*
X107329047Y-90876619D02*
X106805238Y-90876619D01*
X106805238Y-89776619D01*
X107643333Y-90562333D02*
X108167142Y-90562333D01*
X107538571Y-90876619D02*
X107905238Y-89776619D01*
X108271904Y-90876619D01*
X108638571Y-90876619D02*
X108638571Y-89776619D01*
X109267142Y-90876619D01*
X109267142Y-89776619D01*
X110367142Y-90876619D02*
X109738571Y-90876619D01*
X110052857Y-90876619D02*
X110052857Y-89776619D01*
X109948095Y-89933761D01*
X109843333Y-90038523D01*
X109738571Y-90090904D01*
D13*
X80264095Y-94067380D02*
X80264095Y-94876904D01*
X80311714Y-94972142D01*
X80359333Y-95019761D01*
X80454571Y-95067380D01*
X80645047Y-95067380D01*
X80740285Y-95019761D01*
X80787904Y-94972142D01*
X80835523Y-94876904D01*
X80835523Y-94067380D01*
X81216476Y-94067380D02*
X81835523Y-94067380D01*
X81502190Y-94448333D01*
X81645047Y-94448333D01*
X81740285Y-94495952D01*
X81787904Y-94543571D01*
X81835523Y-94638809D01*
X81835523Y-94876904D01*
X81787904Y-94972142D01*
X81740285Y-95019761D01*
X81645047Y-95067380D01*
X81359333Y-95067380D01*
X81264095Y-95019761D01*
X81216476Y-94972142D01*
D12*
X132070928Y-116286642D02*
X132161642Y-116316880D01*
X132191880Y-116347119D01*
X132222119Y-116407595D01*
X132222119Y-116498309D01*
X132191880Y-116558785D01*
X132161642Y-116589023D01*
X132101166Y-116619261D01*
X131859261Y-116619261D01*
X131859261Y-115984261D01*
X132070928Y-115984261D01*
X132131404Y-116014500D01*
X132161642Y-116044738D01*
X132191880Y-116105214D01*
X132191880Y-116165690D01*
X132161642Y-116226166D01*
X132131404Y-116256404D01*
X132070928Y-116286642D01*
X131859261Y-116286642D01*
X132464023Y-116437833D02*
X132766404Y-116437833D01*
X132403547Y-116619261D02*
X132615214Y-115984261D01*
X132826880Y-116619261D01*
X132947833Y-115984261D02*
X133310690Y-115984261D01*
X133129261Y-116619261D02*
X133129261Y-115984261D01*
X133854976Y-116619261D02*
X133492119Y-116619261D01*
X133673547Y-116619261D02*
X133673547Y-115984261D01*
X133613071Y-116074976D01*
X133552595Y-116135452D01*
X133492119Y-116165690D01*
X125905985Y-107547833D02*
X125936223Y-107578071D01*
X125966461Y-107668785D01*
X125966461Y-107729261D01*
X125936223Y-107819976D01*
X125875747Y-107880452D01*
X125815271Y-107910690D01*
X125694319Y-107940928D01*
X125603604Y-107940928D01*
X125482652Y-107910690D01*
X125422176Y-107880452D01*
X125361700Y-107819976D01*
X125331461Y-107729261D01*
X125331461Y-107668785D01*
X125361700Y-107578071D01*
X125391938Y-107547833D01*
X125966461Y-106943071D02*
X125966461Y-107305928D01*
X125966461Y-107124500D02*
X125331461Y-107124500D01*
X125422176Y-107184976D01*
X125482652Y-107245452D01*
X125512890Y-107305928D01*
X123873985Y-111484833D02*
X123904223Y-111515071D01*
X123934461Y-111605785D01*
X123934461Y-111666261D01*
X123904223Y-111756976D01*
X123843747Y-111817452D01*
X123783271Y-111847690D01*
X123662319Y-111877928D01*
X123571604Y-111877928D01*
X123450652Y-111847690D01*
X123390176Y-111817452D01*
X123329700Y-111756976D01*
X123299461Y-111666261D01*
X123299461Y-111605785D01*
X123329700Y-111515071D01*
X123359938Y-111484833D01*
X123359938Y-111242928D02*
X123329700Y-111212690D01*
X123299461Y-111152214D01*
X123299461Y-111001023D01*
X123329700Y-110940547D01*
X123359938Y-110910309D01*
X123420414Y-110880071D01*
X123480890Y-110880071D01*
X123571604Y-110910309D01*
X123934461Y-111273166D01*
X123934461Y-110880071D01*
X126386166Y-104112785D02*
X126355928Y-104143023D01*
X126265214Y-104173261D01*
X126204738Y-104173261D01*
X126114023Y-104143023D01*
X126053547Y-104082547D01*
X126023309Y-104022071D01*
X125993071Y-103901119D01*
X125993071Y-103810404D01*
X126023309Y-103689452D01*
X126053547Y-103628976D01*
X126114023Y-103568500D01*
X126204738Y-103538261D01*
X126265214Y-103538261D01*
X126355928Y-103568500D01*
X126386166Y-103598738D01*
X126597833Y-103538261D02*
X126990928Y-103538261D01*
X126779261Y-103780166D01*
X126869976Y-103780166D01*
X126930452Y-103810404D01*
X126960690Y-103840642D01*
X126990928Y-103901119D01*
X126990928Y-104052309D01*
X126960690Y-104112785D01*
X126930452Y-104143023D01*
X126869976Y-104173261D01*
X126688547Y-104173261D01*
X126628071Y-104143023D01*
X126597833Y-104112785D01*
X123289785Y-112881833D02*
X123320023Y-112912071D01*
X123350261Y-113002785D01*
X123350261Y-113063261D01*
X123320023Y-113153976D01*
X123259547Y-113214452D01*
X123199071Y-113244690D01*
X123078119Y-113274928D01*
X122987404Y-113274928D01*
X122866452Y-113244690D01*
X122805976Y-113214452D01*
X122745500Y-113153976D01*
X122715261Y-113063261D01*
X122715261Y-113002785D01*
X122745500Y-112912071D01*
X122775738Y-112881833D01*
X122926928Y-112337547D02*
X123350261Y-112337547D01*
X122685023Y-112488738D02*
X123138595Y-112639928D01*
X123138595Y-112246833D01*
D11*
X91766571Y-110701666D02*
X91827047Y-110762142D01*
X91887523Y-110943571D01*
X91887523Y-111064523D01*
X91827047Y-111245952D01*
X91706095Y-111366904D01*
X91585142Y-111427380D01*
X91343238Y-111487857D01*
X91161809Y-111487857D01*
X90919904Y-111427380D01*
X90798952Y-111366904D01*
X90678000Y-111245952D01*
X90617523Y-111064523D01*
X90617523Y-110943571D01*
X90678000Y-110762142D01*
X90738476Y-110701666D01*
X90617523Y-109552619D02*
X90617523Y-110157380D01*
X91222285Y-110217857D01*
X91161809Y-110157380D01*
X91101333Y-110036428D01*
X91101333Y-109734047D01*
X91161809Y-109613095D01*
X91222285Y-109552619D01*
X91343238Y-109492142D01*
X91645619Y-109492142D01*
X91766571Y-109552619D01*
X91827047Y-109613095D01*
X91887523Y-109734047D01*
X91887523Y-110036428D01*
X91827047Y-110157380D01*
X91766571Y-110217857D01*
D12*
X113383785Y-104880833D02*
X113414023Y-104911071D01*
X113444261Y-105001785D01*
X113444261Y-105062261D01*
X113414023Y-105152976D01*
X113353547Y-105213452D01*
X113293071Y-105243690D01*
X113172119Y-105273928D01*
X113081404Y-105273928D01*
X112960452Y-105243690D01*
X112899976Y-105213452D01*
X112839500Y-105152976D01*
X112809261Y-105062261D01*
X112809261Y-105001785D01*
X112839500Y-104911071D01*
X112869738Y-104880833D01*
X112809261Y-104336547D02*
X112809261Y-104457500D01*
X112839500Y-104517976D01*
X112869738Y-104548214D01*
X112960452Y-104608690D01*
X113081404Y-104638928D01*
X113323309Y-104638928D01*
X113383785Y-104608690D01*
X113414023Y-104578452D01*
X113444261Y-104517976D01*
X113444261Y-104397023D01*
X113414023Y-104336547D01*
X113383785Y-104306309D01*
X113323309Y-104276071D01*
X113172119Y-104276071D01*
X113111642Y-104306309D01*
X113081404Y-104336547D01*
X113051166Y-104397023D01*
X113051166Y-104517976D01*
X113081404Y-104578452D01*
X113111642Y-104608690D01*
X113172119Y-104638928D01*
X112367785Y-104880833D02*
X112398023Y-104911071D01*
X112428261Y-105001785D01*
X112428261Y-105062261D01*
X112398023Y-105152976D01*
X112337547Y-105213452D01*
X112277071Y-105243690D01*
X112156119Y-105273928D01*
X112065404Y-105273928D01*
X111944452Y-105243690D01*
X111883976Y-105213452D01*
X111823500Y-105152976D01*
X111793261Y-105062261D01*
X111793261Y-105001785D01*
X111823500Y-104911071D01*
X111853738Y-104880833D01*
X111793261Y-104669166D02*
X111793261Y-104245833D01*
X112428261Y-104517976D01*
X90650785Y-89132833D02*
X90681023Y-89163071D01*
X90711261Y-89253785D01*
X90711261Y-89314261D01*
X90681023Y-89404976D01*
X90620547Y-89465452D01*
X90560071Y-89495690D01*
X90439119Y-89525928D01*
X90348404Y-89525928D01*
X90227452Y-89495690D01*
X90166976Y-89465452D01*
X90106500Y-89404976D01*
X90076261Y-89314261D01*
X90076261Y-89253785D01*
X90106500Y-89163071D01*
X90136738Y-89132833D01*
X90348404Y-88769976D02*
X90318166Y-88830452D01*
X90287928Y-88860690D01*
X90227452Y-88890928D01*
X90197214Y-88890928D01*
X90136738Y-88860690D01*
X90106500Y-88830452D01*
X90076261Y-88769976D01*
X90076261Y-88649023D01*
X90106500Y-88588547D01*
X90136738Y-88558309D01*
X90197214Y-88528071D01*
X90227452Y-88528071D01*
X90287928Y-88558309D01*
X90318166Y-88588547D01*
X90348404Y-88649023D01*
X90348404Y-88769976D01*
X90378642Y-88830452D01*
X90408880Y-88860690D01*
X90469357Y-88890928D01*
X90590309Y-88890928D01*
X90650785Y-88860690D01*
X90681023Y-88830452D01*
X90711261Y-88769976D01*
X90711261Y-88649023D01*
X90681023Y-88588547D01*
X90650785Y-88558309D01*
X90590309Y-88528071D01*
X90469357Y-88528071D01*
X90408880Y-88558309D01*
X90378642Y-88588547D01*
X90348404Y-88649023D01*
X94333785Y-85703833D02*
X94364023Y-85734071D01*
X94394261Y-85824785D01*
X94394261Y-85885261D01*
X94364023Y-85975976D01*
X94303547Y-86036452D01*
X94243071Y-86066690D01*
X94122119Y-86096928D01*
X94031404Y-86096928D01*
X93910452Y-86066690D01*
X93849976Y-86036452D01*
X93789500Y-85975976D01*
X93759261Y-85885261D01*
X93759261Y-85824785D01*
X93789500Y-85734071D01*
X93819738Y-85703833D01*
X94394261Y-85401452D02*
X94394261Y-85280500D01*
X94364023Y-85220023D01*
X94333785Y-85189785D01*
X94243071Y-85129309D01*
X94122119Y-85099071D01*
X93880214Y-85099071D01*
X93819738Y-85129309D01*
X93789500Y-85159547D01*
X93759261Y-85220023D01*
X93759261Y-85340976D01*
X93789500Y-85401452D01*
X93819738Y-85431690D01*
X93880214Y-85461928D01*
X94031404Y-85461928D01*
X94091880Y-85431690D01*
X94122119Y-85401452D01*
X94152357Y-85340976D01*
X94152357Y-85220023D01*
X94122119Y-85159547D01*
X94091880Y-85129309D01*
X94031404Y-85099071D01*
D11*
X89480571Y-113211428D02*
X89541047Y-113271904D01*
X89601523Y-113453333D01*
X89601523Y-113574285D01*
X89541047Y-113755714D01*
X89420095Y-113876666D01*
X89299142Y-113937142D01*
X89057238Y-113997619D01*
X88875809Y-113997619D01*
X88633904Y-113937142D01*
X88512952Y-113876666D01*
X88392000Y-113755714D01*
X88331523Y-113574285D01*
X88331523Y-113453333D01*
X88392000Y-113271904D01*
X88452476Y-113211428D01*
X89601523Y-112001904D02*
X89601523Y-112727619D01*
X89601523Y-112364761D02*
X88331523Y-112364761D01*
X88512952Y-112485714D01*
X88633904Y-112606666D01*
X88694380Y-112727619D01*
X88331523Y-111215714D02*
X88331523Y-111094761D01*
X88392000Y-110973809D01*
X88452476Y-110913333D01*
X88573428Y-110852857D01*
X88815333Y-110792380D01*
X89117714Y-110792380D01*
X89359619Y-110852857D01*
X89480571Y-110913333D01*
X89541047Y-110973809D01*
X89601523Y-111094761D01*
X89601523Y-111215714D01*
X89541047Y-111336666D01*
X89480571Y-111397142D01*
X89359619Y-111457619D01*
X89117714Y-111518095D01*
X88815333Y-111518095D01*
X88573428Y-111457619D01*
X88452476Y-111397142D01*
X88392000Y-111336666D01*
X88331523Y-111215714D01*
D12*
X93190785Y-93372214D02*
X93221023Y-93402452D01*
X93251261Y-93493166D01*
X93251261Y-93553642D01*
X93221023Y-93644357D01*
X93160547Y-93704833D01*
X93100071Y-93735071D01*
X92979119Y-93765309D01*
X92888404Y-93765309D01*
X92767452Y-93735071D01*
X92706976Y-93704833D01*
X92646500Y-93644357D01*
X92616261Y-93553642D01*
X92616261Y-93493166D01*
X92646500Y-93402452D01*
X92676738Y-93372214D01*
X93251261Y-92767452D02*
X93251261Y-93130309D01*
X93251261Y-92948880D02*
X92616261Y-92948880D01*
X92706976Y-93009357D01*
X92767452Y-93069833D01*
X92797690Y-93130309D01*
X93251261Y-92162690D02*
X93251261Y-92525547D01*
X93251261Y-92344119D02*
X92616261Y-92344119D01*
X92706976Y-92404595D01*
X92767452Y-92465071D01*
X92797690Y-92525547D01*
D13*
X105640142Y-95765857D02*
X105687761Y-95813476D01*
X105735380Y-95956333D01*
X105735380Y-96051571D01*
X105687761Y-96194428D01*
X105592523Y-96289666D01*
X105497285Y-96337285D01*
X105306809Y-96384904D01*
X105163952Y-96384904D01*
X104973476Y-96337285D01*
X104878238Y-96289666D01*
X104783000Y-96194428D01*
X104735380Y-96051571D01*
X104735380Y-95956333D01*
X104783000Y-95813476D01*
X104830619Y-95765857D01*
X105735380Y-94813476D02*
X105735380Y-95384904D01*
X105735380Y-95099190D02*
X104735380Y-95099190D01*
X104878238Y-95194428D01*
X104973476Y-95289666D01*
X105021095Y-95384904D01*
X104830619Y-94432523D02*
X104783000Y-94384904D01*
X104735380Y-94289666D01*
X104735380Y-94051571D01*
X104783000Y-93956333D01*
X104830619Y-93908714D01*
X104925857Y-93861095D01*
X105021095Y-93861095D01*
X105163952Y-93908714D01*
X105735380Y-94480142D01*
X105735380Y-93861095D01*
D11*
X92467857Y-105482142D02*
X92520238Y-105534523D01*
X92572619Y-105691666D01*
X92572619Y-105796428D01*
X92520238Y-105953571D01*
X92415476Y-106058333D01*
X92310714Y-106110714D01*
X92101190Y-106163095D01*
X91944047Y-106163095D01*
X91734523Y-106110714D01*
X91629761Y-106058333D01*
X91525000Y-105953571D01*
X91472619Y-105796428D01*
X91472619Y-105691666D01*
X91525000Y-105534523D01*
X91577380Y-105482142D01*
X92572619Y-104434523D02*
X92572619Y-105063095D01*
X92572619Y-104748809D02*
X91472619Y-104748809D01*
X91629761Y-104853571D01*
X91734523Y-104958333D01*
X91786904Y-105063095D01*
X91472619Y-104067857D02*
X91472619Y-103386904D01*
X91891666Y-103753571D01*
X91891666Y-103596428D01*
X91944047Y-103491666D01*
X91996428Y-103439285D01*
X92101190Y-103386904D01*
X92363095Y-103386904D01*
X92467857Y-103439285D01*
X92520238Y-103491666D01*
X92572619Y-103596428D01*
X92572619Y-103910714D01*
X92520238Y-104015476D01*
X92467857Y-104067857D01*
D13*
X107418142Y-95765857D02*
X107465761Y-95813476D01*
X107513380Y-95956333D01*
X107513380Y-96051571D01*
X107465761Y-96194428D01*
X107370523Y-96289666D01*
X107275285Y-96337285D01*
X107084809Y-96384904D01*
X106941952Y-96384904D01*
X106751476Y-96337285D01*
X106656238Y-96289666D01*
X106561000Y-96194428D01*
X106513380Y-96051571D01*
X106513380Y-95956333D01*
X106561000Y-95813476D01*
X106608619Y-95765857D01*
X107513380Y-94813476D02*
X107513380Y-95384904D01*
X107513380Y-95099190D02*
X106513380Y-95099190D01*
X106656238Y-95194428D01*
X106751476Y-95289666D01*
X106799095Y-95384904D01*
X106846714Y-93956333D02*
X107513380Y-93956333D01*
X106465761Y-94194428D02*
X107180047Y-94432523D01*
X107180047Y-93813476D01*
X110847142Y-92844857D02*
X110894761Y-92892476D01*
X110942380Y-93035333D01*
X110942380Y-93130571D01*
X110894761Y-93273428D01*
X110799523Y-93368666D01*
X110704285Y-93416285D01*
X110513809Y-93463904D01*
X110370952Y-93463904D01*
X110180476Y-93416285D01*
X110085238Y-93368666D01*
X109990000Y-93273428D01*
X109942380Y-93130571D01*
X109942380Y-93035333D01*
X109990000Y-92892476D01*
X110037619Y-92844857D01*
X110942380Y-91892476D02*
X110942380Y-92463904D01*
X110942380Y-92178190D02*
X109942380Y-92178190D01*
X110085238Y-92273428D01*
X110180476Y-92368666D01*
X110228095Y-92463904D01*
X109942380Y-90987714D02*
X109942380Y-91463904D01*
X110418571Y-91511523D01*
X110370952Y-91463904D01*
X110323333Y-91368666D01*
X110323333Y-91130571D01*
X110370952Y-91035333D01*
X110418571Y-90987714D01*
X110513809Y-90940095D01*
X110751904Y-90940095D01*
X110847142Y-90987714D01*
X110894761Y-91035333D01*
X110942380Y-91130571D01*
X110942380Y-91368666D01*
X110894761Y-91463904D01*
X110847142Y-91511523D01*
D20*
X94544428Y-101413428D02*
X94501571Y-101456285D01*
X94373000Y-101499142D01*
X94287285Y-101499142D01*
X94158714Y-101456285D01*
X94073000Y-101370571D01*
X94030142Y-101284857D01*
X93987285Y-101113428D01*
X93987285Y-100984857D01*
X94030142Y-100813428D01*
X94073000Y-100727714D01*
X94158714Y-100642000D01*
X94287285Y-100599142D01*
X94373000Y-100599142D01*
X94501571Y-100642000D01*
X94544428Y-100684857D01*
X95401571Y-101499142D02*
X94887285Y-101499142D01*
X95144428Y-101499142D02*
X95144428Y-100599142D01*
X95058714Y-100727714D01*
X94973000Y-100813428D01*
X94887285Y-100856285D01*
X96173000Y-100599142D02*
X96001571Y-100599142D01*
X95915857Y-100642000D01*
X95873000Y-100684857D01*
X95787285Y-100813428D01*
X95744428Y-100984857D01*
X95744428Y-101327714D01*
X95787285Y-101413428D01*
X95830142Y-101456285D01*
X95915857Y-101499142D01*
X96087285Y-101499142D01*
X96173000Y-101456285D01*
X96215857Y-101413428D01*
X96258714Y-101327714D01*
X96258714Y-101113428D01*
X96215857Y-101027714D01*
X96173000Y-100984857D01*
X96087285Y-100942000D01*
X95915857Y-100942000D01*
X95830142Y-100984857D01*
X95787285Y-101027714D01*
X95744428Y-101113428D01*
X94544428Y-99762428D02*
X94501571Y-99805285D01*
X94373000Y-99848142D01*
X94287285Y-99848142D01*
X94158714Y-99805285D01*
X94073000Y-99719571D01*
X94030142Y-99633857D01*
X93987285Y-99462428D01*
X93987285Y-99333857D01*
X94030142Y-99162428D01*
X94073000Y-99076714D01*
X94158714Y-98991000D01*
X94287285Y-98948142D01*
X94373000Y-98948142D01*
X94501571Y-98991000D01*
X94544428Y-99033857D01*
X95401571Y-99848142D02*
X94887285Y-99848142D01*
X95144428Y-99848142D02*
X95144428Y-98948142D01*
X95058714Y-99076714D01*
X94973000Y-99162428D01*
X94887285Y-99205285D01*
X95701571Y-98948142D02*
X96301571Y-98948142D01*
X95915857Y-99848142D01*
D19*
X109721714Y-95281714D02*
X109683619Y-95319809D01*
X109569333Y-95357904D01*
X109493142Y-95357904D01*
X109378857Y-95319809D01*
X109302666Y-95243619D01*
X109264571Y-95167428D01*
X109226476Y-95015047D01*
X109226476Y-94900761D01*
X109264571Y-94748380D01*
X109302666Y-94672190D01*
X109378857Y-94596000D01*
X109493142Y-94557904D01*
X109569333Y-94557904D01*
X109683619Y-94596000D01*
X109721714Y-94634095D01*
X110483619Y-95357904D02*
X110026476Y-95357904D01*
X110255047Y-95357904D02*
X110255047Y-94557904D01*
X110178857Y-94672190D01*
X110102666Y-94748380D01*
X110026476Y-94786476D01*
X110940761Y-94900761D02*
X110864571Y-94862666D01*
X110826476Y-94824571D01*
X110788380Y-94748380D01*
X110788380Y-94710285D01*
X110826476Y-94634095D01*
X110864571Y-94596000D01*
X110940761Y-94557904D01*
X111093142Y-94557904D01*
X111169333Y-94596000D01*
X111207428Y-94634095D01*
X111245523Y-94710285D01*
X111245523Y-94748380D01*
X111207428Y-94824571D01*
X111169333Y-94862666D01*
X111093142Y-94900761D01*
X110940761Y-94900761D01*
X110864571Y-94938857D01*
X110826476Y-94976952D01*
X110788380Y-95053142D01*
X110788380Y-95205523D01*
X110826476Y-95281714D01*
X110864571Y-95319809D01*
X110940761Y-95357904D01*
X111093142Y-95357904D01*
X111169333Y-95319809D01*
X111207428Y-95281714D01*
X111245523Y-95205523D01*
X111245523Y-95053142D01*
X111207428Y-94976952D01*
X111169333Y-94938857D01*
X111093142Y-94900761D01*
D13*
X141152714Y-105640142D02*
X141105095Y-105687761D01*
X140962238Y-105735380D01*
X140867000Y-105735380D01*
X140724142Y-105687761D01*
X140628904Y-105592523D01*
X140581285Y-105497285D01*
X140533666Y-105306809D01*
X140533666Y-105163952D01*
X140581285Y-104973476D01*
X140628904Y-104878238D01*
X140724142Y-104783000D01*
X140867000Y-104735380D01*
X140962238Y-104735380D01*
X141105095Y-104783000D01*
X141152714Y-104830619D01*
X141771761Y-104735380D02*
X141962238Y-104735380D01*
X142057476Y-104783000D01*
X142152714Y-104878238D01*
X142200333Y-105068714D01*
X142200333Y-105402047D01*
X142152714Y-105592523D01*
X142057476Y-105687761D01*
X141962238Y-105735380D01*
X141771761Y-105735380D01*
X141676523Y-105687761D01*
X141581285Y-105592523D01*
X141533666Y-105402047D01*
X141533666Y-105068714D01*
X141581285Y-104878238D01*
X141676523Y-104783000D01*
X141771761Y-104735380D01*
X142628904Y-105735380D02*
X142628904Y-104735380D01*
X143200333Y-105735380D01*
X143200333Y-104735380D01*
X144200333Y-105735380D02*
X143628904Y-105735380D01*
X143914619Y-105735380D02*
X143914619Y-104735380D01*
X143819380Y-104878238D01*
X143724142Y-104973476D01*
X143628904Y-105021095D01*
D19*
X137077571Y-73818714D02*
X137039476Y-73856809D01*
X136925190Y-73894904D01*
X136849000Y-73894904D01*
X136734714Y-73856809D01*
X136658523Y-73780619D01*
X136620428Y-73704428D01*
X136582333Y-73552047D01*
X136582333Y-73437761D01*
X136620428Y-73285380D01*
X136658523Y-73209190D01*
X136734714Y-73133000D01*
X136849000Y-73094904D01*
X136925190Y-73094904D01*
X137039476Y-73133000D01*
X137077571Y-73171095D01*
X137572809Y-73094904D02*
X137725190Y-73094904D01*
X137801380Y-73133000D01*
X137877571Y-73209190D01*
X137915666Y-73361571D01*
X137915666Y-73628238D01*
X137877571Y-73780619D01*
X137801380Y-73856809D01*
X137725190Y-73894904D01*
X137572809Y-73894904D01*
X137496619Y-73856809D01*
X137420428Y-73780619D01*
X137382333Y-73628238D01*
X137382333Y-73361571D01*
X137420428Y-73209190D01*
X137496619Y-73133000D01*
X137572809Y-73094904D01*
X138258523Y-73894904D02*
X138258523Y-73094904D01*
X138715666Y-73894904D01*
X138715666Y-73094904D01*
X139058523Y-73171095D02*
X139096619Y-73133000D01*
X139172809Y-73094904D01*
X139363285Y-73094904D01*
X139439476Y-73133000D01*
X139477571Y-73171095D01*
X139515666Y-73247285D01*
X139515666Y-73323476D01*
X139477571Y-73437761D01*
X139020428Y-73894904D01*
X139515666Y-73894904D01*
D11*
X86341857Y-98238733D02*
X86390238Y-98287114D01*
X86438619Y-98432257D01*
X86438619Y-98529019D01*
X86390238Y-98674161D01*
X86293476Y-98770923D01*
X86196714Y-98819304D01*
X86003190Y-98867685D01*
X85858047Y-98867685D01*
X85664523Y-98819304D01*
X85567761Y-98770923D01*
X85471000Y-98674161D01*
X85422619Y-98529019D01*
X85422619Y-98432257D01*
X85471000Y-98287114D01*
X85519380Y-98238733D01*
X86438619Y-97222733D02*
X85954809Y-97561400D01*
X86438619Y-97803304D02*
X85422619Y-97803304D01*
X85422619Y-97416257D01*
X85471000Y-97319495D01*
X85519380Y-97271114D01*
X85616142Y-97222733D01*
X85761285Y-97222733D01*
X85858047Y-97271114D01*
X85906428Y-97319495D01*
X85954809Y-97416257D01*
X85954809Y-97803304D01*
X86438619Y-96255114D02*
X86438619Y-96835685D01*
X86438619Y-96545400D02*
X85422619Y-96545400D01*
X85567761Y-96642161D01*
X85664523Y-96738923D01*
X85712904Y-96835685D01*
X115230123Y-91361380D02*
X113960123Y-91361380D01*
X113960123Y-91059000D01*
X114020600Y-90877571D01*
X114141552Y-90756619D01*
X114262504Y-90696142D01*
X114504409Y-90635666D01*
X114685838Y-90635666D01*
X114927742Y-90696142D01*
X115048695Y-90756619D01*
X115169647Y-90877571D01*
X115230123Y-91059000D01*
X115230123Y-91361380D01*
X115230123Y-89426142D02*
X115230123Y-90151857D01*
X115230123Y-89789000D02*
X113960123Y-89789000D01*
X114141552Y-89909952D01*
X114262504Y-90030904D01*
X114322980Y-90151857D01*
D19*
X129330523Y-115931904D02*
X129330523Y-115131904D01*
X129521000Y-115131904D01*
X129635285Y-115170000D01*
X129711476Y-115246190D01*
X129749571Y-115322380D01*
X129787666Y-115474761D01*
X129787666Y-115589047D01*
X129749571Y-115741428D01*
X129711476Y-115817619D01*
X129635285Y-115893809D01*
X129521000Y-115931904D01*
X129330523Y-115931904D01*
X130092428Y-115208095D02*
X130130523Y-115170000D01*
X130206714Y-115131904D01*
X130397190Y-115131904D01*
X130473380Y-115170000D01*
X130511476Y-115208095D01*
X130549571Y-115284285D01*
X130549571Y-115360476D01*
X130511476Y-115474761D01*
X130054333Y-115931904D01*
X130549571Y-115931904D01*
D11*
X115255523Y-76502380D02*
X113985523Y-76502380D01*
X113985523Y-76200000D01*
X114046000Y-76018571D01*
X114166952Y-75897619D01*
X114287904Y-75837142D01*
X114529809Y-75776666D01*
X114711238Y-75776666D01*
X114953142Y-75837142D01*
X115074095Y-75897619D01*
X115195047Y-76018571D01*
X115255523Y-76200000D01*
X115255523Y-76502380D01*
X113985523Y-75353333D02*
X113985523Y-74567142D01*
X114469333Y-74990476D01*
X114469333Y-74809047D01*
X114529809Y-74688095D01*
X114590285Y-74627619D01*
X114711238Y-74567142D01*
X115013619Y-74567142D01*
X115134571Y-74627619D01*
X115195047Y-74688095D01*
X115255523Y-74809047D01*
X115255523Y-75171904D01*
X115195047Y-75292857D01*
X115134571Y-75353333D01*
D12*
X118587761Y-108164690D02*
X117952761Y-108164690D01*
X117952761Y-108013500D01*
X117983000Y-107922785D01*
X118043476Y-107862309D01*
X118103952Y-107832071D01*
X118224904Y-107801833D01*
X118315619Y-107801833D01*
X118436571Y-107832071D01*
X118497047Y-107862309D01*
X118557523Y-107922785D01*
X118587761Y-108013500D01*
X118587761Y-108164690D01*
X118164428Y-107257547D02*
X118587761Y-107257547D01*
X117922523Y-107408738D02*
X118376095Y-107559928D01*
X118376095Y-107166833D01*
X103258861Y-108291690D02*
X102623861Y-108291690D01*
X102623861Y-108140500D01*
X102654100Y-108049785D01*
X102714576Y-107989309D01*
X102775052Y-107959071D01*
X102896004Y-107928833D01*
X102986719Y-107928833D01*
X103107671Y-107959071D01*
X103168147Y-107989309D01*
X103228623Y-108049785D01*
X103258861Y-108140500D01*
X103258861Y-108291690D01*
X102623861Y-107354309D02*
X102623861Y-107656690D01*
X102926242Y-107686928D01*
X102896004Y-107656690D01*
X102865766Y-107596214D01*
X102865766Y-107445023D01*
X102896004Y-107384547D01*
X102926242Y-107354309D01*
X102986719Y-107324071D01*
X103137909Y-107324071D01*
X103198385Y-107354309D01*
X103228623Y-107384547D01*
X103258861Y-107445023D01*
X103258861Y-107596214D01*
X103228623Y-107656690D01*
X103198385Y-107686928D01*
D13*
X129341571Y-102766666D02*
X129341571Y-103100000D01*
X129865380Y-103100000D02*
X128865380Y-103100000D01*
X128865380Y-102623809D01*
X129341571Y-102242857D02*
X129341571Y-101909523D01*
X129865380Y-101766666D02*
X129865380Y-102242857D01*
X128865380Y-102242857D01*
X128865380Y-101766666D01*
X128865380Y-101480952D02*
X128865380Y-100909523D01*
X129865380Y-101195238D02*
X128865380Y-101195238D01*
X129865380Y-100052380D02*
X129865380Y-100623809D01*
X129865380Y-100338095D02*
X128865380Y-100338095D01*
X129008238Y-100433333D01*
X129103476Y-100528571D01*
X129151095Y-100623809D01*
D11*
X129969428Y-108110885D02*
X129969428Y-108477552D01*
X130545619Y-108477552D02*
X129445619Y-108477552D01*
X129445619Y-107953742D01*
X129445619Y-107534695D02*
X130336095Y-107534695D01*
X130440857Y-107482314D01*
X130493238Y-107429933D01*
X130545619Y-107325171D01*
X130545619Y-107115647D01*
X130493238Y-107010885D01*
X130440857Y-106958504D01*
X130336095Y-106906123D01*
X129445619Y-106906123D01*
X130493238Y-106434695D02*
X130545619Y-106277552D01*
X130545619Y-106015647D01*
X130493238Y-105910885D01*
X130440857Y-105858504D01*
X130336095Y-105806123D01*
X130231333Y-105806123D01*
X130126571Y-105858504D01*
X130074190Y-105910885D01*
X130021809Y-106015647D01*
X129969428Y-106225171D01*
X129917047Y-106329933D01*
X129864666Y-106382314D01*
X129759904Y-106434695D01*
X129655142Y-106434695D01*
X129550380Y-106382314D01*
X129498000Y-106329933D01*
X129445619Y-106225171D01*
X129445619Y-105963266D01*
X129498000Y-105806123D01*
X129969428Y-105334695D02*
X129969428Y-104968028D01*
X130545619Y-104810885D02*
X130545619Y-105334695D01*
X129445619Y-105334695D01*
X129445619Y-104810885D01*
X130545619Y-103763266D02*
X130545619Y-104391838D01*
X130545619Y-104077552D02*
X129445619Y-104077552D01*
X129602761Y-104182314D01*
X129707523Y-104287076D01*
X129759904Y-104391838D01*
D15*
X136975547Y-116903500D02*
X136927166Y-116879309D01*
X136854595Y-116879309D01*
X136782023Y-116903500D01*
X136733642Y-116951880D01*
X136709452Y-117000261D01*
X136685261Y-117097023D01*
X136685261Y-117169595D01*
X136709452Y-117266357D01*
X136733642Y-117314738D01*
X136782023Y-117363119D01*
X136854595Y-117387309D01*
X136902976Y-117387309D01*
X136975547Y-117363119D01*
X136999738Y-117338928D01*
X136999738Y-117169595D01*
X136902976Y-117169595D01*
X137217452Y-117387309D02*
X137217452Y-116879309D01*
X137507738Y-117387309D01*
X137507738Y-116879309D01*
X137749642Y-117387309D02*
X137749642Y-116879309D01*
X137870595Y-116879309D01*
X137943166Y-116903500D01*
X137991547Y-116951880D01*
X138015738Y-117000261D01*
X138039928Y-117097023D01*
X138039928Y-117169595D01*
X138015738Y-117266357D01*
X137991547Y-117314738D01*
X137943166Y-117363119D01*
X137870595Y-117387309D01*
X137749642Y-117387309D01*
X138523738Y-117387309D02*
X138233452Y-117387309D01*
X138378595Y-117387309D02*
X138378595Y-116879309D01*
X138330214Y-116951880D01*
X138281833Y-117000261D01*
X138233452Y-117024452D01*
D13*
X91400333Y-108402380D02*
X90924142Y-108402380D01*
X90924142Y-107402380D01*
X92257476Y-108402380D02*
X91686047Y-108402380D01*
X91971761Y-108402380D02*
X91971761Y-107402380D01*
X91876523Y-107545238D01*
X91781285Y-107640476D01*
X91686047Y-107688095D01*
D12*
X118004166Y-114206261D02*
X117701785Y-114206261D01*
X117701785Y-113571261D01*
X118185595Y-113631738D02*
X118215833Y-113601500D01*
X118276309Y-113571261D01*
X118427500Y-113571261D01*
X118487976Y-113601500D01*
X118518214Y-113631738D01*
X118548452Y-113692214D01*
X118548452Y-113752690D01*
X118518214Y-113843404D01*
X118155357Y-114206261D01*
X118548452Y-114206261D01*
D20*
X90450142Y-92606000D02*
X90450142Y-93034571D01*
X89550142Y-93034571D01*
X89550142Y-92391714D02*
X89550142Y-91834571D01*
X89893000Y-92134571D01*
X89893000Y-92006000D01*
X89935857Y-91920285D01*
X89978714Y-91877428D01*
X90064428Y-91834571D01*
X90278714Y-91834571D01*
X90364428Y-91877428D01*
X90407285Y-91920285D01*
X90450142Y-92006000D01*
X90450142Y-92263142D01*
X90407285Y-92348857D01*
X90364428Y-92391714D01*
D11*
X89474523Y-108161666D02*
X89474523Y-108766428D01*
X88204523Y-108766428D01*
X88627857Y-107194047D02*
X89474523Y-107194047D01*
X88144047Y-107496428D02*
X89051190Y-107798809D01*
X89051190Y-107012619D01*
D13*
X112847380Y-99544047D02*
X112847380Y-100020238D01*
X111847380Y-100020238D01*
X112323571Y-99210714D02*
X112323571Y-98877380D01*
X112847380Y-98734523D02*
X112847380Y-99210714D01*
X111847380Y-99210714D01*
X111847380Y-98734523D01*
X112847380Y-98305952D02*
X111847380Y-98305952D01*
X111847380Y-98067857D01*
X111895000Y-97925000D01*
X111990238Y-97829761D01*
X112085476Y-97782142D01*
X112275952Y-97734523D01*
X112418809Y-97734523D01*
X112609285Y-97782142D01*
X112704523Y-97829761D01*
X112799761Y-97925000D01*
X112847380Y-98067857D01*
X112847380Y-98305952D01*
X112847380Y-96782142D02*
X112847380Y-97353571D01*
X112847380Y-97067857D02*
X111847380Y-97067857D01*
X111990238Y-97163095D01*
X112085476Y-97258333D01*
X112133095Y-97353571D01*
D12*
X115476261Y-71957595D02*
X115476261Y-72259976D01*
X114841261Y-72259976D01*
X115143642Y-71745928D02*
X115143642Y-71534261D01*
X115476261Y-71443547D02*
X115476261Y-71745928D01*
X114841261Y-71745928D01*
X114841261Y-71443547D01*
X115476261Y-71171404D02*
X114841261Y-71171404D01*
X114841261Y-71020214D01*
X114871500Y-70929500D01*
X114931976Y-70869023D01*
X114992452Y-70838785D01*
X115113404Y-70808547D01*
X115204119Y-70808547D01*
X115325071Y-70838785D01*
X115385547Y-70869023D01*
X115446023Y-70929500D01*
X115476261Y-71020214D01*
X115476261Y-71171404D01*
X114901738Y-70566642D02*
X114871500Y-70536404D01*
X114841261Y-70475928D01*
X114841261Y-70324738D01*
X114871500Y-70264261D01*
X114901738Y-70234023D01*
X114962214Y-70203785D01*
X115022690Y-70203785D01*
X115113404Y-70234023D01*
X115476261Y-70596880D01*
X115476261Y-70203785D01*
D13*
X131286476Y-104084380D02*
X131286476Y-103084380D01*
X131667428Y-103084380D01*
X131762666Y-103132000D01*
X131810285Y-103179619D01*
X131857904Y-103274857D01*
X131857904Y-103417714D01*
X131810285Y-103512952D01*
X131762666Y-103560571D01*
X131667428Y-103608190D01*
X131286476Y-103608190D01*
X132191238Y-103084380D02*
X132429333Y-104084380D01*
X132619809Y-103370095D01*
X132810285Y-104084380D01*
X133048380Y-103084380D01*
X134000761Y-104084380D02*
X133667428Y-103608190D01*
X133429333Y-104084380D02*
X133429333Y-103084380D01*
X133810285Y-103084380D01*
X133905523Y-103132000D01*
X133953142Y-103179619D01*
X134000761Y-103274857D01*
X134000761Y-103417714D01*
X133953142Y-103512952D01*
X133905523Y-103560571D01*
X133810285Y-103608190D01*
X133429333Y-103608190D01*
X134953142Y-104084380D02*
X134381714Y-104084380D01*
X134667428Y-104084380D02*
X134667428Y-103084380D01*
X134572190Y-103227238D01*
X134476952Y-103322476D01*
X134381714Y-103370095D01*
X131286476Y-105608380D02*
X131286476Y-104608380D01*
X131667428Y-104608380D01*
X131762666Y-104656000D01*
X131810285Y-104703619D01*
X131857904Y-104798857D01*
X131857904Y-104941714D01*
X131810285Y-105036952D01*
X131762666Y-105084571D01*
X131667428Y-105132190D01*
X131286476Y-105132190D01*
X132191238Y-104608380D02*
X132429333Y-105608380D01*
X132619809Y-104894095D01*
X132810285Y-105608380D01*
X133048380Y-104608380D01*
X134000761Y-105608380D02*
X133667428Y-105132190D01*
X133429333Y-105608380D02*
X133429333Y-104608380D01*
X133810285Y-104608380D01*
X133905523Y-104656000D01*
X133953142Y-104703619D01*
X134000761Y-104798857D01*
X134000761Y-104941714D01*
X133953142Y-105036952D01*
X133905523Y-105084571D01*
X133810285Y-105132190D01*
X133429333Y-105132190D01*
X134381714Y-104703619D02*
X134429333Y-104656000D01*
X134524571Y-104608380D01*
X134762666Y-104608380D01*
X134857904Y-104656000D01*
X134905523Y-104703619D01*
X134953142Y-104798857D01*
X134953142Y-104894095D01*
X134905523Y-105036952D01*
X134334095Y-105608380D01*
X134953142Y-105608380D01*
D12*
X112107738Y-85150476D02*
X112077500Y-85210952D01*
X112017023Y-85271428D01*
X111926309Y-85362142D01*
X111896071Y-85422619D01*
X111896071Y-85483095D01*
X112047261Y-85452857D02*
X112017023Y-85513333D01*
X111956547Y-85573809D01*
X111835595Y-85604047D01*
X111623928Y-85604047D01*
X111502976Y-85573809D01*
X111442500Y-85513333D01*
X111412261Y-85452857D01*
X111412261Y-85331904D01*
X111442500Y-85271428D01*
X111502976Y-85210952D01*
X111623928Y-85180714D01*
X111835595Y-85180714D01*
X111956547Y-85210952D01*
X112017023Y-85271428D01*
X112047261Y-85331904D01*
X112047261Y-85452857D01*
X112047261Y-84575952D02*
X112047261Y-84938809D01*
X112047261Y-84757380D02*
X111412261Y-84757380D01*
X111502976Y-84817857D01*
X111563452Y-84878333D01*
X111593690Y-84938809D01*
X89855523Y-68165738D02*
X89795047Y-68135500D01*
X89734571Y-68075023D01*
X89643857Y-67984309D01*
X89583380Y-67954071D01*
X89522904Y-67954071D01*
X89553142Y-68105261D02*
X89492666Y-68075023D01*
X89432190Y-68014547D01*
X89401952Y-67893595D01*
X89401952Y-67681928D01*
X89432190Y-67560976D01*
X89492666Y-67500500D01*
X89553142Y-67470261D01*
X89674095Y-67470261D01*
X89734571Y-67500500D01*
X89795047Y-67560976D01*
X89825285Y-67681928D01*
X89825285Y-67893595D01*
X89795047Y-68014547D01*
X89734571Y-68075023D01*
X89674095Y-68105261D01*
X89553142Y-68105261D01*
X90067190Y-67530738D02*
X90097428Y-67500500D01*
X90157904Y-67470261D01*
X90309095Y-67470261D01*
X90369571Y-67500500D01*
X90399809Y-67530738D01*
X90430047Y-67591214D01*
X90430047Y-67651690D01*
X90399809Y-67742404D01*
X90036952Y-68105261D01*
X90430047Y-68105261D01*
D11*
X114342333Y-80076523D02*
X113919000Y-79471761D01*
X113616619Y-80076523D02*
X113616619Y-78806523D01*
X114100428Y-78806523D01*
X114221380Y-78867000D01*
X114281857Y-78927476D01*
X114342333Y-79048428D01*
X114342333Y-79229857D01*
X114281857Y-79350809D01*
X114221380Y-79411285D01*
X114100428Y-79471761D01*
X113616619Y-79471761D01*
X115551857Y-80076523D02*
X114826142Y-80076523D01*
X115189000Y-80076523D02*
X115189000Y-78806523D01*
X115068047Y-78987952D01*
X114947095Y-79108904D01*
X114826142Y-79169380D01*
D12*
X111527166Y-83472261D02*
X111315500Y-83169880D01*
X111164309Y-83472261D02*
X111164309Y-82837261D01*
X111406214Y-82837261D01*
X111466690Y-82867500D01*
X111496928Y-82897738D01*
X111527166Y-82958214D01*
X111527166Y-83048928D01*
X111496928Y-83109404D01*
X111466690Y-83139642D01*
X111406214Y-83169880D01*
X111164309Y-83169880D01*
X111769071Y-82897738D02*
X111799309Y-82867500D01*
X111859785Y-82837261D01*
X112010976Y-82837261D01*
X112071452Y-82867500D01*
X112101690Y-82897738D01*
X112131928Y-82958214D01*
X112131928Y-83018690D01*
X112101690Y-83109404D01*
X111738833Y-83472261D01*
X112131928Y-83472261D01*
D13*
X112847380Y-95289666D02*
X112371190Y-95623000D01*
X112847380Y-95861095D02*
X111847380Y-95861095D01*
X111847380Y-95480142D01*
X111895000Y-95384904D01*
X111942619Y-95337285D01*
X112037857Y-95289666D01*
X112180714Y-95289666D01*
X112275952Y-95337285D01*
X112323571Y-95384904D01*
X112371190Y-95480142D01*
X112371190Y-95861095D01*
X111847380Y-94956333D02*
X111847380Y-94337285D01*
X112228333Y-94670619D01*
X112228333Y-94527761D01*
X112275952Y-94432523D01*
X112323571Y-94384904D01*
X112418809Y-94337285D01*
X112656904Y-94337285D01*
X112752142Y-94384904D01*
X112799761Y-94432523D01*
X112847380Y-94527761D01*
X112847380Y-94813476D01*
X112799761Y-94908714D01*
X112752142Y-94956333D01*
D15*
X139043833Y-116942809D02*
X138874500Y-116700904D01*
X138753547Y-116942809D02*
X138753547Y-116434809D01*
X138947071Y-116434809D01*
X138995452Y-116459000D01*
X139019642Y-116483190D01*
X139043833Y-116531571D01*
X139043833Y-116604142D01*
X139019642Y-116652523D01*
X138995452Y-116676714D01*
X138947071Y-116700904D01*
X138753547Y-116700904D01*
X139479261Y-116604142D02*
X139479261Y-116942809D01*
X139358309Y-116410619D02*
X139237357Y-116773476D01*
X139551833Y-116773476D01*
D12*
X89949261Y-73511833D02*
X89646880Y-73723500D01*
X89949261Y-73874690D02*
X89314261Y-73874690D01*
X89314261Y-73632785D01*
X89344500Y-73572309D01*
X89374738Y-73542071D01*
X89435214Y-73511833D01*
X89525928Y-73511833D01*
X89586404Y-73542071D01*
X89616642Y-73572309D01*
X89646880Y-73632785D01*
X89646880Y-73874690D01*
X89314261Y-72937309D02*
X89314261Y-73239690D01*
X89616642Y-73269928D01*
X89586404Y-73239690D01*
X89556166Y-73179214D01*
X89556166Y-73028023D01*
X89586404Y-72967547D01*
X89616642Y-72937309D01*
X89677119Y-72907071D01*
X89828309Y-72907071D01*
X89888785Y-72937309D01*
X89919023Y-72967547D01*
X89949261Y-73028023D01*
X89949261Y-73179214D01*
X89919023Y-73239690D01*
X89888785Y-73269928D01*
X93632261Y-72114833D02*
X93329880Y-72326500D01*
X93632261Y-72477690D02*
X92997261Y-72477690D01*
X92997261Y-72235785D01*
X93027500Y-72175309D01*
X93057738Y-72145071D01*
X93118214Y-72114833D01*
X93208928Y-72114833D01*
X93269404Y-72145071D01*
X93299642Y-72175309D01*
X93329880Y-72235785D01*
X93329880Y-72477690D01*
X92997261Y-71570547D02*
X92997261Y-71691500D01*
X93027500Y-71751976D01*
X93057738Y-71782214D01*
X93148452Y-71842690D01*
X93269404Y-71872928D01*
X93511309Y-71872928D01*
X93571785Y-71842690D01*
X93602023Y-71812452D01*
X93632261Y-71751976D01*
X93632261Y-71631023D01*
X93602023Y-71570547D01*
X93571785Y-71540309D01*
X93511309Y-71510071D01*
X93360119Y-71510071D01*
X93299642Y-71540309D01*
X93269404Y-71570547D01*
X93239166Y-71631023D01*
X93239166Y-71751976D01*
X93269404Y-71812452D01*
X93299642Y-71842690D01*
X93360119Y-71872928D01*
X129573261Y-119993833D02*
X129270880Y-120205500D01*
X129573261Y-120356690D02*
X128938261Y-120356690D01*
X128938261Y-120114785D01*
X128968500Y-120054309D01*
X128998738Y-120024071D01*
X129059214Y-119993833D01*
X129149928Y-119993833D01*
X129210404Y-120024071D01*
X129240642Y-120054309D01*
X129270880Y-120114785D01*
X129270880Y-120356690D01*
X128938261Y-119782166D02*
X128938261Y-119358833D01*
X129573261Y-119630976D01*
X115464166Y-103411261D02*
X115252500Y-103108880D01*
X115101309Y-103411261D02*
X115101309Y-102776261D01*
X115343214Y-102776261D01*
X115403690Y-102806500D01*
X115433928Y-102836738D01*
X115464166Y-102897214D01*
X115464166Y-102987928D01*
X115433928Y-103048404D01*
X115403690Y-103078642D01*
X115343214Y-103108880D01*
X115101309Y-103108880D01*
X115827023Y-103048404D02*
X115766547Y-103018166D01*
X115736309Y-102987928D01*
X115706071Y-102927452D01*
X115706071Y-102897214D01*
X115736309Y-102836738D01*
X115766547Y-102806500D01*
X115827023Y-102776261D01*
X115947976Y-102776261D01*
X116008452Y-102806500D01*
X116038690Y-102836738D01*
X116068928Y-102897214D01*
X116068928Y-102927452D01*
X116038690Y-102987928D01*
X116008452Y-103018166D01*
X115947976Y-103048404D01*
X115827023Y-103048404D01*
X115766547Y-103078642D01*
X115736309Y-103108880D01*
X115706071Y-103169357D01*
X115706071Y-103290309D01*
X115736309Y-103350785D01*
X115766547Y-103381023D01*
X115827023Y-103411261D01*
X115947976Y-103411261D01*
X116008452Y-103381023D01*
X116038690Y-103350785D01*
X116068928Y-103290309D01*
X116068928Y-103169357D01*
X116038690Y-103108880D01*
X116008452Y-103078642D01*
X115947976Y-103048404D01*
X126525261Y-115802833D02*
X126222880Y-116014500D01*
X126525261Y-116165690D02*
X125890261Y-116165690D01*
X125890261Y-115923785D01*
X125920500Y-115863309D01*
X125950738Y-115833071D01*
X126011214Y-115802833D01*
X126101928Y-115802833D01*
X126162404Y-115833071D01*
X126192642Y-115863309D01*
X126222880Y-115923785D01*
X126222880Y-116165690D01*
X126525261Y-115500452D02*
X126525261Y-115379500D01*
X126495023Y-115319023D01*
X126464785Y-115288785D01*
X126374071Y-115228309D01*
X126253119Y-115198071D01*
X126011214Y-115198071D01*
X125950738Y-115228309D01*
X125920500Y-115258547D01*
X125890261Y-115319023D01*
X125890261Y-115439976D01*
X125920500Y-115500452D01*
X125950738Y-115530690D01*
X126011214Y-115560928D01*
X126162404Y-115560928D01*
X126222880Y-115530690D01*
X126253119Y-115500452D01*
X126283357Y-115439976D01*
X126283357Y-115319023D01*
X126253119Y-115258547D01*
X126222880Y-115228309D01*
X126162404Y-115198071D01*
X115288785Y-106078261D02*
X115077119Y-105775880D01*
X114925928Y-106078261D02*
X114925928Y-105443261D01*
X115167833Y-105443261D01*
X115228309Y-105473500D01*
X115258547Y-105503738D01*
X115288785Y-105564214D01*
X115288785Y-105654928D01*
X115258547Y-105715404D01*
X115228309Y-105745642D01*
X115167833Y-105775880D01*
X114925928Y-105775880D01*
X115893547Y-106078261D02*
X115530690Y-106078261D01*
X115712119Y-106078261D02*
X115712119Y-105443261D01*
X115651642Y-105533976D01*
X115591166Y-105594452D01*
X115530690Y-105624690D01*
X116286642Y-105443261D02*
X116347119Y-105443261D01*
X116407595Y-105473500D01*
X116437833Y-105503738D01*
X116468071Y-105564214D01*
X116498309Y-105685166D01*
X116498309Y-105836357D01*
X116468071Y-105957309D01*
X116437833Y-106017785D01*
X116407595Y-106048023D01*
X116347119Y-106078261D01*
X116286642Y-106078261D01*
X116226166Y-106048023D01*
X116195928Y-106017785D01*
X116165690Y-105957309D01*
X116135452Y-105836357D01*
X116135452Y-105685166D01*
X116165690Y-105564214D01*
X116195928Y-105503738D01*
X116226166Y-105473500D01*
X116286642Y-105443261D01*
X113444261Y-71909214D02*
X113141880Y-72120880D01*
X113444261Y-72272071D02*
X112809261Y-72272071D01*
X112809261Y-72030166D01*
X112839500Y-71969690D01*
X112869738Y-71939452D01*
X112930214Y-71909214D01*
X113020928Y-71909214D01*
X113081404Y-71939452D01*
X113111642Y-71969690D01*
X113141880Y-72030166D01*
X113141880Y-72272071D01*
X113444261Y-71304452D02*
X113444261Y-71667309D01*
X113444261Y-71485880D02*
X112809261Y-71485880D01*
X112899976Y-71546357D01*
X112960452Y-71606833D01*
X112990690Y-71667309D01*
X113444261Y-70699690D02*
X113444261Y-71062547D01*
X113444261Y-70881119D02*
X112809261Y-70881119D01*
X112899976Y-70941595D01*
X112960452Y-71002071D01*
X112990690Y-71062547D01*
X112240785Y-102903261D02*
X112029119Y-102600880D01*
X111877928Y-102903261D02*
X111877928Y-102268261D01*
X112119833Y-102268261D01*
X112180309Y-102298500D01*
X112210547Y-102328738D01*
X112240785Y-102389214D01*
X112240785Y-102479928D01*
X112210547Y-102540404D01*
X112180309Y-102570642D01*
X112119833Y-102600880D01*
X111877928Y-102600880D01*
X112845547Y-102903261D02*
X112482690Y-102903261D01*
X112664119Y-102903261D02*
X112664119Y-102268261D01*
X112603642Y-102358976D01*
X112543166Y-102419452D01*
X112482690Y-102449690D01*
X113087452Y-102328738D02*
X113117690Y-102298500D01*
X113178166Y-102268261D01*
X113329357Y-102268261D01*
X113389833Y-102298500D01*
X113420071Y-102328738D01*
X113450309Y-102389214D01*
X113450309Y-102449690D01*
X113420071Y-102540404D01*
X113057214Y-102903261D01*
X113450309Y-102903261D01*
X112240785Y-103919261D02*
X112029119Y-103616880D01*
X111877928Y-103919261D02*
X111877928Y-103284261D01*
X112119833Y-103284261D01*
X112180309Y-103314500D01*
X112210547Y-103344738D01*
X112240785Y-103405214D01*
X112240785Y-103495928D01*
X112210547Y-103556404D01*
X112180309Y-103586642D01*
X112119833Y-103616880D01*
X111877928Y-103616880D01*
X112845547Y-103919261D02*
X112482690Y-103919261D01*
X112664119Y-103919261D02*
X112664119Y-103284261D01*
X112603642Y-103374976D01*
X112543166Y-103435452D01*
X112482690Y-103465690D01*
X113057214Y-103284261D02*
X113450309Y-103284261D01*
X113238642Y-103526166D01*
X113329357Y-103526166D01*
X113389833Y-103556404D01*
X113420071Y-103586642D01*
X113450309Y-103647119D01*
X113450309Y-103798309D01*
X113420071Y-103858785D01*
X113389833Y-103889023D01*
X113329357Y-103919261D01*
X113147928Y-103919261D01*
X113087452Y-103889023D01*
X113057214Y-103858785D01*
D11*
X83428619Y-99132142D02*
X82904809Y-99498809D01*
X83428619Y-99760714D02*
X82328619Y-99760714D01*
X82328619Y-99341666D01*
X82381000Y-99236904D01*
X82433380Y-99184523D01*
X82538142Y-99132142D01*
X82695285Y-99132142D01*
X82800047Y-99184523D01*
X82852428Y-99236904D01*
X82904809Y-99341666D01*
X82904809Y-99760714D01*
X83428619Y-98084523D02*
X83428619Y-98713095D01*
X83428619Y-98398809D02*
X82328619Y-98398809D01*
X82485761Y-98503571D01*
X82590523Y-98608333D01*
X82642904Y-98713095D01*
X82695285Y-97141666D02*
X83428619Y-97141666D01*
X82276238Y-97403571D02*
X83061952Y-97665476D01*
X83061952Y-96984523D01*
D12*
X131097261Y-120359714D02*
X130794880Y-120571380D01*
X131097261Y-120722571D02*
X130462261Y-120722571D01*
X130462261Y-120480666D01*
X130492500Y-120420190D01*
X130522738Y-120389952D01*
X130583214Y-120359714D01*
X130673928Y-120359714D01*
X130734404Y-120389952D01*
X130764642Y-120420190D01*
X130794880Y-120480666D01*
X130794880Y-120722571D01*
X131097261Y-119754952D02*
X131097261Y-120117809D01*
X131097261Y-119936380D02*
X130462261Y-119936380D01*
X130552976Y-119996857D01*
X130613452Y-120057333D01*
X130643690Y-120117809D01*
X130462261Y-119180428D02*
X130462261Y-119482809D01*
X130764642Y-119513047D01*
X130734404Y-119482809D01*
X130704166Y-119422333D01*
X130704166Y-119271142D01*
X130734404Y-119210666D01*
X130764642Y-119180428D01*
X130825119Y-119150190D01*
X130976309Y-119150190D01*
X131036785Y-119180428D01*
X131067023Y-119210666D01*
X131097261Y-119271142D01*
X131097261Y-119422333D01*
X131067023Y-119482809D01*
X131036785Y-119513047D01*
D11*
X83428619Y-102942142D02*
X82904809Y-103308809D01*
X83428619Y-103570714D02*
X82328619Y-103570714D01*
X82328619Y-103151666D01*
X82381000Y-103046904D01*
X82433380Y-102994523D01*
X82538142Y-102942142D01*
X82695285Y-102942142D01*
X82800047Y-102994523D01*
X82852428Y-103046904D01*
X82904809Y-103151666D01*
X82904809Y-103570714D01*
X83428619Y-101894523D02*
X83428619Y-102523095D01*
X83428619Y-102208809D02*
X82328619Y-102208809D01*
X82485761Y-102313571D01*
X82590523Y-102418333D01*
X82642904Y-102523095D01*
X82328619Y-100951666D02*
X82328619Y-101161190D01*
X82381000Y-101265952D01*
X82433380Y-101318333D01*
X82590523Y-101423095D01*
X82800047Y-101475476D01*
X83219095Y-101475476D01*
X83323857Y-101423095D01*
X83376238Y-101370714D01*
X83428619Y-101265952D01*
X83428619Y-101056428D01*
X83376238Y-100951666D01*
X83323857Y-100899285D01*
X83219095Y-100846904D01*
X82957190Y-100846904D01*
X82852428Y-100899285D01*
X82800047Y-100951666D01*
X82747666Y-101056428D01*
X82747666Y-101265952D01*
X82800047Y-101370714D01*
X82852428Y-101423095D01*
X82957190Y-101475476D01*
D12*
X121156185Y-100185461D02*
X120944519Y-99883080D01*
X120793328Y-100185461D02*
X120793328Y-99550461D01*
X121035233Y-99550461D01*
X121095709Y-99580700D01*
X121125947Y-99610938D01*
X121156185Y-99671414D01*
X121156185Y-99762128D01*
X121125947Y-99822604D01*
X121095709Y-99852842D01*
X121035233Y-99883080D01*
X120793328Y-99883080D01*
X121760947Y-100185461D02*
X121398090Y-100185461D01*
X121579519Y-100185461D02*
X121579519Y-99550461D01*
X121519042Y-99641176D01*
X121458566Y-99701652D01*
X121398090Y-99731890D01*
X121972614Y-99550461D02*
X122395947Y-99550461D01*
X122123804Y-100185461D01*
D11*
X93588619Y-117674142D02*
X93064809Y-118040809D01*
X93588619Y-118302714D02*
X92488619Y-118302714D01*
X92488619Y-117883666D01*
X92541000Y-117778904D01*
X92593380Y-117726523D01*
X92698142Y-117674142D01*
X92855285Y-117674142D01*
X92960047Y-117726523D01*
X93012428Y-117778904D01*
X93064809Y-117883666D01*
X93064809Y-118302714D01*
X93588619Y-116626523D02*
X93588619Y-117255095D01*
X93588619Y-116940809D02*
X92488619Y-116940809D01*
X92645761Y-117045571D01*
X92750523Y-117150333D01*
X92802904Y-117255095D01*
X92960047Y-115997952D02*
X92907666Y-116102714D01*
X92855285Y-116155095D01*
X92750523Y-116207476D01*
X92698142Y-116207476D01*
X92593380Y-116155095D01*
X92541000Y-116102714D01*
X92488619Y-115997952D01*
X92488619Y-115788428D01*
X92541000Y-115683666D01*
X92593380Y-115631285D01*
X92698142Y-115578904D01*
X92750523Y-115578904D01*
X92855285Y-115631285D01*
X92907666Y-115683666D01*
X92960047Y-115788428D01*
X92960047Y-115997952D01*
X93012428Y-116102714D01*
X93064809Y-116155095D01*
X93169571Y-116207476D01*
X93379095Y-116207476D01*
X93483857Y-116155095D01*
X93536238Y-116102714D01*
X93588619Y-115997952D01*
X93588619Y-115788428D01*
X93536238Y-115683666D01*
X93483857Y-115631285D01*
X93379095Y-115578904D01*
X93169571Y-115578904D01*
X93064809Y-115631285D01*
X93012428Y-115683666D01*
X92960047Y-115788428D01*
D12*
X123858261Y-116359214D02*
X123555880Y-116570880D01*
X123858261Y-116722071D02*
X123223261Y-116722071D01*
X123223261Y-116480166D01*
X123253500Y-116419690D01*
X123283738Y-116389452D01*
X123344214Y-116359214D01*
X123434928Y-116359214D01*
X123495404Y-116389452D01*
X123525642Y-116419690D01*
X123555880Y-116480166D01*
X123555880Y-116722071D01*
X123858261Y-115754452D02*
X123858261Y-116117309D01*
X123858261Y-115935880D02*
X123223261Y-115935880D01*
X123313976Y-115996357D01*
X123374452Y-116056833D01*
X123404690Y-116117309D01*
X123858261Y-115452071D02*
X123858261Y-115331119D01*
X123828023Y-115270642D01*
X123797785Y-115240404D01*
X123707071Y-115179928D01*
X123586119Y-115149690D01*
X123344214Y-115149690D01*
X123283738Y-115179928D01*
X123253500Y-115210166D01*
X123223261Y-115270642D01*
X123223261Y-115391595D01*
X123253500Y-115452071D01*
X123283738Y-115482309D01*
X123344214Y-115512547D01*
X123495404Y-115512547D01*
X123555880Y-115482309D01*
X123586119Y-115452071D01*
X123616357Y-115391595D01*
X123616357Y-115270642D01*
X123586119Y-115210166D01*
X123555880Y-115179928D01*
X123495404Y-115149690D01*
X125433061Y-116283014D02*
X125130680Y-116494680D01*
X125433061Y-116645871D02*
X124798061Y-116645871D01*
X124798061Y-116403966D01*
X124828300Y-116343490D01*
X124858538Y-116313252D01*
X124919014Y-116283014D01*
X125009728Y-116283014D01*
X125070204Y-116313252D01*
X125100442Y-116343490D01*
X125130680Y-116403966D01*
X125130680Y-116645871D01*
X124858538Y-116041109D02*
X124828300Y-116010871D01*
X124798061Y-115950395D01*
X124798061Y-115799204D01*
X124828300Y-115738728D01*
X124858538Y-115708490D01*
X124919014Y-115678252D01*
X124979490Y-115678252D01*
X125070204Y-115708490D01*
X125433061Y-116071347D01*
X125433061Y-115678252D01*
X124798061Y-115285157D02*
X124798061Y-115224680D01*
X124828300Y-115164204D01*
X124858538Y-115133966D01*
X124919014Y-115103728D01*
X125039966Y-115073490D01*
X125191157Y-115073490D01*
X125312109Y-115103728D01*
X125372585Y-115133966D01*
X125402823Y-115164204D01*
X125433061Y-115224680D01*
X125433061Y-115285157D01*
X125402823Y-115345633D01*
X125372585Y-115375871D01*
X125312109Y-115406109D01*
X125191157Y-115436347D01*
X125039966Y-115436347D01*
X124919014Y-115406109D01*
X124858538Y-115375871D01*
X124828300Y-115345633D01*
X124798061Y-115285157D01*
X108303785Y-105824261D02*
X108092119Y-105521880D01*
X107940928Y-105824261D02*
X107940928Y-105189261D01*
X108182833Y-105189261D01*
X108243309Y-105219500D01*
X108273547Y-105249738D01*
X108303785Y-105310214D01*
X108303785Y-105400928D01*
X108273547Y-105461404D01*
X108243309Y-105491642D01*
X108182833Y-105521880D01*
X107940928Y-105521880D01*
X108545690Y-105249738D02*
X108575928Y-105219500D01*
X108636404Y-105189261D01*
X108787595Y-105189261D01*
X108848071Y-105219500D01*
X108878309Y-105249738D01*
X108908547Y-105310214D01*
X108908547Y-105370690D01*
X108878309Y-105461404D01*
X108515452Y-105824261D01*
X108908547Y-105824261D01*
X109513309Y-105824261D02*
X109150452Y-105824261D01*
X109331880Y-105824261D02*
X109331880Y-105189261D01*
X109271404Y-105279976D01*
X109210928Y-105340452D01*
X109150452Y-105370690D01*
X111031261Y-105437214D02*
X110728880Y-105648880D01*
X111031261Y-105800071D02*
X110396261Y-105800071D01*
X110396261Y-105558166D01*
X110426500Y-105497690D01*
X110456738Y-105467452D01*
X110517214Y-105437214D01*
X110607928Y-105437214D01*
X110668404Y-105467452D01*
X110698642Y-105497690D01*
X110728880Y-105558166D01*
X110728880Y-105800071D01*
X110456738Y-105195309D02*
X110426500Y-105165071D01*
X110396261Y-105104595D01*
X110396261Y-104953404D01*
X110426500Y-104892928D01*
X110456738Y-104862690D01*
X110517214Y-104832452D01*
X110577690Y-104832452D01*
X110668404Y-104862690D01*
X111031261Y-105225547D01*
X111031261Y-104832452D01*
X110456738Y-104590547D02*
X110426500Y-104560309D01*
X110396261Y-104499833D01*
X110396261Y-104348642D01*
X110426500Y-104288166D01*
X110456738Y-104257928D01*
X110517214Y-104227690D01*
X110577690Y-104227690D01*
X110668404Y-104257928D01*
X111031261Y-104620785D01*
X111031261Y-104227690D01*
D19*
X104387714Y-106660904D02*
X104121047Y-106279952D01*
X103930571Y-106660904D02*
X103930571Y-105860904D01*
X104235333Y-105860904D01*
X104311523Y-105899000D01*
X104349619Y-105937095D01*
X104387714Y-106013285D01*
X104387714Y-106127571D01*
X104349619Y-106203761D01*
X104311523Y-106241857D01*
X104235333Y-106279952D01*
X103930571Y-106279952D01*
X104692476Y-105937095D02*
X104730571Y-105899000D01*
X104806761Y-105860904D01*
X104997238Y-105860904D01*
X105073428Y-105899000D01*
X105111523Y-105937095D01*
X105149619Y-106013285D01*
X105149619Y-106089476D01*
X105111523Y-106203761D01*
X104654380Y-106660904D01*
X105149619Y-106660904D01*
X105416285Y-105860904D02*
X105911523Y-105860904D01*
X105644857Y-106165666D01*
X105759142Y-106165666D01*
X105835333Y-106203761D01*
X105873428Y-106241857D01*
X105911523Y-106318047D01*
X105911523Y-106508523D01*
X105873428Y-106584714D01*
X105835333Y-106622809D01*
X105759142Y-106660904D01*
X105530571Y-106660904D01*
X105454380Y-106622809D01*
X105416285Y-106584714D01*
D13*
X74033142Y-94737180D02*
X73699809Y-94260990D01*
X73461714Y-94737180D02*
X73461714Y-93737180D01*
X73842666Y-93737180D01*
X73937904Y-93784800D01*
X73985523Y-93832419D01*
X74033142Y-93927657D01*
X74033142Y-94070514D01*
X73985523Y-94165752D01*
X73937904Y-94213371D01*
X73842666Y-94260990D01*
X73461714Y-94260990D01*
X74414095Y-93832419D02*
X74461714Y-93784800D01*
X74556952Y-93737180D01*
X74795047Y-93737180D01*
X74890285Y-93784800D01*
X74937904Y-93832419D01*
X74985523Y-93927657D01*
X74985523Y-94022895D01*
X74937904Y-94165752D01*
X74366476Y-94737180D01*
X74985523Y-94737180D01*
X75842666Y-94070514D02*
X75842666Y-94737180D01*
X75604571Y-93689561D02*
X75366476Y-94403847D01*
X75985523Y-94403847D01*
D12*
X95603785Y-90330261D02*
X95392119Y-90027880D01*
X95240928Y-90330261D02*
X95240928Y-89695261D01*
X95482833Y-89695261D01*
X95543309Y-89725500D01*
X95573547Y-89755738D01*
X95603785Y-89816214D01*
X95603785Y-89906928D01*
X95573547Y-89967404D01*
X95543309Y-89997642D01*
X95482833Y-90027880D01*
X95240928Y-90027880D01*
X95845690Y-89755738D02*
X95875928Y-89725500D01*
X95936404Y-89695261D01*
X96087595Y-89695261D01*
X96148071Y-89725500D01*
X96178309Y-89755738D01*
X96208547Y-89816214D01*
X96208547Y-89876690D01*
X96178309Y-89967404D01*
X95815452Y-90330261D01*
X96208547Y-90330261D01*
X96783071Y-89695261D02*
X96480690Y-89695261D01*
X96450452Y-89997642D01*
X96480690Y-89967404D01*
X96541166Y-89937166D01*
X96692357Y-89937166D01*
X96752833Y-89967404D01*
X96783071Y-89997642D01*
X96813309Y-90058119D01*
X96813309Y-90209309D01*
X96783071Y-90269785D01*
X96752833Y-90300023D01*
X96692357Y-90330261D01*
X96541166Y-90330261D01*
X96480690Y-90300023D01*
X96450452Y-90269785D01*
X90838261Y-75465214D02*
X90535880Y-75676880D01*
X90838261Y-75828071D02*
X90203261Y-75828071D01*
X90203261Y-75586166D01*
X90233500Y-75525690D01*
X90263738Y-75495452D01*
X90324214Y-75465214D01*
X90414928Y-75465214D01*
X90475404Y-75495452D01*
X90505642Y-75525690D01*
X90535880Y-75586166D01*
X90535880Y-75828071D01*
X90263738Y-75223309D02*
X90233500Y-75193071D01*
X90203261Y-75132595D01*
X90203261Y-74981404D01*
X90233500Y-74920928D01*
X90263738Y-74890690D01*
X90324214Y-74860452D01*
X90384690Y-74860452D01*
X90475404Y-74890690D01*
X90838261Y-75253547D01*
X90838261Y-74860452D01*
X90203261Y-74316166D02*
X90203261Y-74437119D01*
X90233500Y-74497595D01*
X90263738Y-74527833D01*
X90354452Y-74588309D01*
X90475404Y-74618547D01*
X90717309Y-74618547D01*
X90777785Y-74588309D01*
X90808023Y-74558071D01*
X90838261Y-74497595D01*
X90838261Y-74376642D01*
X90808023Y-74316166D01*
X90777785Y-74285928D01*
X90717309Y-74255690D01*
X90566119Y-74255690D01*
X90505642Y-74285928D01*
X90475404Y-74316166D01*
X90445166Y-74376642D01*
X90445166Y-74497595D01*
X90475404Y-74558071D01*
X90505642Y-74588309D01*
X90566119Y-74618547D01*
X93444785Y-78201761D02*
X93233119Y-77899380D01*
X93081928Y-78201761D02*
X93081928Y-77566761D01*
X93323833Y-77566761D01*
X93384309Y-77597000D01*
X93414547Y-77627238D01*
X93444785Y-77687714D01*
X93444785Y-77778428D01*
X93414547Y-77838904D01*
X93384309Y-77869142D01*
X93323833Y-77899380D01*
X93081928Y-77899380D01*
X93686690Y-77627238D02*
X93716928Y-77597000D01*
X93777404Y-77566761D01*
X93928595Y-77566761D01*
X93989071Y-77597000D01*
X94019309Y-77627238D01*
X94049547Y-77687714D01*
X94049547Y-77748190D01*
X94019309Y-77838904D01*
X93656452Y-78201761D01*
X94049547Y-78201761D01*
X94261214Y-77566761D02*
X94684547Y-77566761D01*
X94412404Y-78201761D01*
D19*
X100310904Y-95256285D02*
X99929952Y-95522952D01*
X100310904Y-95713428D02*
X99510904Y-95713428D01*
X99510904Y-95408666D01*
X99549000Y-95332476D01*
X99587095Y-95294380D01*
X99663285Y-95256285D01*
X99777571Y-95256285D01*
X99853761Y-95294380D01*
X99891857Y-95332476D01*
X99929952Y-95408666D01*
X99929952Y-95713428D01*
X99587095Y-94951523D02*
X99549000Y-94913428D01*
X99510904Y-94837238D01*
X99510904Y-94646761D01*
X99549000Y-94570571D01*
X99587095Y-94532476D01*
X99663285Y-94494380D01*
X99739476Y-94494380D01*
X99853761Y-94532476D01*
X100310904Y-94989619D01*
X100310904Y-94494380D01*
X99853761Y-94037238D02*
X99815666Y-94113428D01*
X99777571Y-94151523D01*
X99701380Y-94189619D01*
X99663285Y-94189619D01*
X99587095Y-94151523D01*
X99549000Y-94113428D01*
X99510904Y-94037238D01*
X99510904Y-93884857D01*
X99549000Y-93808666D01*
X99587095Y-93770571D01*
X99663285Y-93732476D01*
X99701380Y-93732476D01*
X99777571Y-93770571D01*
X99815666Y-93808666D01*
X99853761Y-93884857D01*
X99853761Y-94037238D01*
X99891857Y-94113428D01*
X99929952Y-94151523D01*
X100006142Y-94189619D01*
X100158523Y-94189619D01*
X100234714Y-94151523D01*
X100272809Y-94113428D01*
X100310904Y-94037238D01*
X100310904Y-93884857D01*
X100272809Y-93808666D01*
X100234714Y-93770571D01*
X100158523Y-93732476D01*
X100006142Y-93732476D01*
X99929952Y-93770571D01*
X99891857Y-93808666D01*
X99853761Y-93884857D01*
X83686714Y-117709904D02*
X83420047Y-117328952D01*
X83229571Y-117709904D02*
X83229571Y-116909904D01*
X83534333Y-116909904D01*
X83610523Y-116948000D01*
X83648619Y-116986095D01*
X83686714Y-117062285D01*
X83686714Y-117176571D01*
X83648619Y-117252761D01*
X83610523Y-117290857D01*
X83534333Y-117328952D01*
X83229571Y-117328952D01*
X83991476Y-116986095D02*
X84029571Y-116948000D01*
X84105761Y-116909904D01*
X84296238Y-116909904D01*
X84372428Y-116948000D01*
X84410523Y-116986095D01*
X84448619Y-117062285D01*
X84448619Y-117138476D01*
X84410523Y-117252761D01*
X83953380Y-117709904D01*
X84448619Y-117709904D01*
X84829571Y-117709904D02*
X84981952Y-117709904D01*
X85058142Y-117671809D01*
X85096238Y-117633714D01*
X85172428Y-117519428D01*
X85210523Y-117367047D01*
X85210523Y-117062285D01*
X85172428Y-116986095D01*
X85134333Y-116948000D01*
X85058142Y-116909904D01*
X84905761Y-116909904D01*
X84829571Y-116948000D01*
X84791476Y-116986095D01*
X84753380Y-117062285D01*
X84753380Y-117252761D01*
X84791476Y-117328952D01*
X84829571Y-117367047D01*
X84905761Y-117405142D01*
X85058142Y-117405142D01*
X85134333Y-117367047D01*
X85172428Y-117328952D01*
X85210523Y-117252761D01*
X98024904Y-95256285D02*
X97643952Y-95522952D01*
X98024904Y-95713428D02*
X97224904Y-95713428D01*
X97224904Y-95408666D01*
X97263000Y-95332476D01*
X97301095Y-95294380D01*
X97377285Y-95256285D01*
X97491571Y-95256285D01*
X97567761Y-95294380D01*
X97605857Y-95332476D01*
X97643952Y-95408666D01*
X97643952Y-95713428D01*
X97224904Y-94989619D02*
X97224904Y-94494380D01*
X97529666Y-94761047D01*
X97529666Y-94646761D01*
X97567761Y-94570571D01*
X97605857Y-94532476D01*
X97682047Y-94494380D01*
X97872523Y-94494380D01*
X97948714Y-94532476D01*
X97986809Y-94570571D01*
X98024904Y-94646761D01*
X98024904Y-94875333D01*
X97986809Y-94951523D01*
X97948714Y-94989619D01*
X98024904Y-93732476D02*
X98024904Y-94189619D01*
X98024904Y-93961047D02*
X97224904Y-93961047D01*
X97339190Y-94037238D01*
X97415380Y-94113428D01*
X97453476Y-94189619D01*
X103866904Y-95256285D02*
X103485952Y-95522952D01*
X103866904Y-95713428D02*
X103066904Y-95713428D01*
X103066904Y-95408666D01*
X103105000Y-95332476D01*
X103143095Y-95294380D01*
X103219285Y-95256285D01*
X103333571Y-95256285D01*
X103409761Y-95294380D01*
X103447857Y-95332476D01*
X103485952Y-95408666D01*
X103485952Y-95713428D01*
X103066904Y-94989619D02*
X103066904Y-94494380D01*
X103371666Y-94761047D01*
X103371666Y-94646761D01*
X103409761Y-94570571D01*
X103447857Y-94532476D01*
X103524047Y-94494380D01*
X103714523Y-94494380D01*
X103790714Y-94532476D01*
X103828809Y-94570571D01*
X103866904Y-94646761D01*
X103866904Y-94875333D01*
X103828809Y-94951523D01*
X103790714Y-94989619D01*
X103143095Y-94189619D02*
X103105000Y-94151523D01*
X103066904Y-94075333D01*
X103066904Y-93884857D01*
X103105000Y-93808666D01*
X103143095Y-93770571D01*
X103219285Y-93732476D01*
X103295476Y-93732476D01*
X103409761Y-93770571D01*
X103866904Y-94227714D01*
X103866904Y-93732476D01*
X102215904Y-95256285D02*
X101834952Y-95522952D01*
X102215904Y-95713428D02*
X101415904Y-95713428D01*
X101415904Y-95408666D01*
X101454000Y-95332476D01*
X101492095Y-95294380D01*
X101568285Y-95256285D01*
X101682571Y-95256285D01*
X101758761Y-95294380D01*
X101796857Y-95332476D01*
X101834952Y-95408666D01*
X101834952Y-95713428D01*
X101415904Y-94989619D02*
X101415904Y-94494380D01*
X101720666Y-94761047D01*
X101720666Y-94646761D01*
X101758761Y-94570571D01*
X101796857Y-94532476D01*
X101873047Y-94494380D01*
X102063523Y-94494380D01*
X102139714Y-94532476D01*
X102177809Y-94570571D01*
X102215904Y-94646761D01*
X102215904Y-94875333D01*
X102177809Y-94951523D01*
X102139714Y-94989619D01*
X101415904Y-94227714D02*
X101415904Y-93732476D01*
X101720666Y-93999142D01*
X101720666Y-93884857D01*
X101758761Y-93808666D01*
X101796857Y-93770571D01*
X101873047Y-93732476D01*
X102063523Y-93732476D01*
X102139714Y-93770571D01*
X102177809Y-93808666D01*
X102215904Y-93884857D01*
X102215904Y-94113428D01*
X102177809Y-94189619D01*
X102139714Y-94227714D01*
D11*
X88065857Y-103621619D02*
X87699190Y-103097809D01*
X87437285Y-103621619D02*
X87437285Y-102521619D01*
X87856333Y-102521619D01*
X87961095Y-102574000D01*
X88013476Y-102626380D01*
X88065857Y-102731142D01*
X88065857Y-102888285D01*
X88013476Y-102993047D01*
X87961095Y-103045428D01*
X87856333Y-103097809D01*
X87437285Y-103097809D01*
X88432523Y-102521619D02*
X89113476Y-102521619D01*
X88746809Y-102940666D01*
X88903952Y-102940666D01*
X89008714Y-102993047D01*
X89061095Y-103045428D01*
X89113476Y-103150190D01*
X89113476Y-103412095D01*
X89061095Y-103516857D01*
X89008714Y-103569238D01*
X88903952Y-103621619D01*
X88589666Y-103621619D01*
X88484904Y-103569238D01*
X88432523Y-103516857D01*
X90056333Y-102888285D02*
X90056333Y-103621619D01*
X89794428Y-102469238D02*
X89532523Y-103254952D01*
X90213476Y-103254952D01*
D12*
X93378261Y-97817214D02*
X93075880Y-98028880D01*
X93378261Y-98180071D02*
X92743261Y-98180071D01*
X92743261Y-97938166D01*
X92773500Y-97877690D01*
X92803738Y-97847452D01*
X92864214Y-97817214D01*
X92954928Y-97817214D01*
X93015404Y-97847452D01*
X93045642Y-97877690D01*
X93075880Y-97938166D01*
X93075880Y-98180071D01*
X92743261Y-97605547D02*
X92743261Y-97212452D01*
X92985166Y-97424119D01*
X92985166Y-97333404D01*
X93015404Y-97272928D01*
X93045642Y-97242690D01*
X93106119Y-97212452D01*
X93257309Y-97212452D01*
X93317785Y-97242690D01*
X93348023Y-97272928D01*
X93378261Y-97333404D01*
X93378261Y-97514833D01*
X93348023Y-97575309D01*
X93317785Y-97605547D01*
X92743261Y-96637928D02*
X92743261Y-96940309D01*
X93045642Y-96970547D01*
X93015404Y-96940309D01*
X92985166Y-96879833D01*
X92985166Y-96728642D01*
X93015404Y-96668166D01*
X93045642Y-96637928D01*
X93106119Y-96607690D01*
X93257309Y-96607690D01*
X93317785Y-96637928D01*
X93348023Y-96668166D01*
X93378261Y-96728642D01*
X93378261Y-96879833D01*
X93348023Y-96940309D01*
X93317785Y-96970547D01*
D13*
X85209142Y-94686380D02*
X84875809Y-94210190D01*
X84637714Y-94686380D02*
X84637714Y-93686380D01*
X85018666Y-93686380D01*
X85113904Y-93734000D01*
X85161523Y-93781619D01*
X85209142Y-93876857D01*
X85209142Y-94019714D01*
X85161523Y-94114952D01*
X85113904Y-94162571D01*
X85018666Y-94210190D01*
X84637714Y-94210190D01*
X85542476Y-93686380D02*
X86161523Y-93686380D01*
X85828190Y-94067333D01*
X85971047Y-94067333D01*
X86066285Y-94114952D01*
X86113904Y-94162571D01*
X86161523Y-94257809D01*
X86161523Y-94495904D01*
X86113904Y-94591142D01*
X86066285Y-94638761D01*
X85971047Y-94686380D01*
X85685333Y-94686380D01*
X85590095Y-94638761D01*
X85542476Y-94591142D01*
X87018666Y-93686380D02*
X86828190Y-93686380D01*
X86732952Y-93734000D01*
X86685333Y-93781619D01*
X86590095Y-93924476D01*
X86542476Y-94114952D01*
X86542476Y-94495904D01*
X86590095Y-94591142D01*
X86637714Y-94638761D01*
X86732952Y-94686380D01*
X86923428Y-94686380D01*
X87018666Y-94638761D01*
X87066285Y-94591142D01*
X87113904Y-94495904D01*
X87113904Y-94257809D01*
X87066285Y-94162571D01*
X87018666Y-94114952D01*
X86923428Y-94067333D01*
X86732952Y-94067333D01*
X86637714Y-94114952D01*
X86590095Y-94162571D01*
X86542476Y-94257809D01*
X105910142Y-100401380D02*
X105576809Y-99925190D01*
X105338714Y-100401380D02*
X105338714Y-99401380D01*
X105719666Y-99401380D01*
X105814904Y-99449000D01*
X105862523Y-99496619D01*
X105910142Y-99591857D01*
X105910142Y-99734714D01*
X105862523Y-99829952D01*
X105814904Y-99877571D01*
X105719666Y-99925190D01*
X105338714Y-99925190D01*
X106243476Y-99401380D02*
X106862523Y-99401380D01*
X106529190Y-99782333D01*
X106672047Y-99782333D01*
X106767285Y-99829952D01*
X106814904Y-99877571D01*
X106862523Y-99972809D01*
X106862523Y-100210904D01*
X106814904Y-100306142D01*
X106767285Y-100353761D01*
X106672047Y-100401380D01*
X106386333Y-100401380D01*
X106291095Y-100353761D01*
X106243476Y-100306142D01*
X107195857Y-99401380D02*
X107862523Y-99401380D01*
X107433952Y-100401380D01*
X105910142Y-98623380D02*
X105576809Y-98147190D01*
X105338714Y-98623380D02*
X105338714Y-97623380D01*
X105719666Y-97623380D01*
X105814904Y-97671000D01*
X105862523Y-97718619D01*
X105910142Y-97813857D01*
X105910142Y-97956714D01*
X105862523Y-98051952D01*
X105814904Y-98099571D01*
X105719666Y-98147190D01*
X105338714Y-98147190D01*
X106243476Y-97623380D02*
X106862523Y-97623380D01*
X106529190Y-98004333D01*
X106672047Y-98004333D01*
X106767285Y-98051952D01*
X106814904Y-98099571D01*
X106862523Y-98194809D01*
X106862523Y-98432904D01*
X106814904Y-98528142D01*
X106767285Y-98575761D01*
X106672047Y-98623380D01*
X106386333Y-98623380D01*
X106291095Y-98575761D01*
X106243476Y-98528142D01*
X107433952Y-98051952D02*
X107338714Y-98004333D01*
X107291095Y-97956714D01*
X107243476Y-97861476D01*
X107243476Y-97813857D01*
X107291095Y-97718619D01*
X107338714Y-97671000D01*
X107433952Y-97623380D01*
X107624428Y-97623380D01*
X107719666Y-97671000D01*
X107767285Y-97718619D01*
X107814904Y-97813857D01*
X107814904Y-97861476D01*
X107767285Y-97956714D01*
X107719666Y-98004333D01*
X107624428Y-98051952D01*
X107433952Y-98051952D01*
X107338714Y-98099571D01*
X107291095Y-98147190D01*
X107243476Y-98242428D01*
X107243476Y-98432904D01*
X107291095Y-98528142D01*
X107338714Y-98575761D01*
X107433952Y-98623380D01*
X107624428Y-98623380D01*
X107719666Y-98575761D01*
X107767285Y-98528142D01*
X107814904Y-98432904D01*
X107814904Y-98242428D01*
X107767285Y-98147190D01*
X107719666Y-98099571D01*
X107624428Y-98051952D01*
D12*
X93444785Y-96172261D02*
X93233119Y-95869880D01*
X93081928Y-96172261D02*
X93081928Y-95537261D01*
X93323833Y-95537261D01*
X93384309Y-95567500D01*
X93414547Y-95597738D01*
X93444785Y-95658214D01*
X93444785Y-95748928D01*
X93414547Y-95809404D01*
X93384309Y-95839642D01*
X93323833Y-95869880D01*
X93081928Y-95869880D01*
X93656452Y-95537261D02*
X94049547Y-95537261D01*
X93837880Y-95779166D01*
X93928595Y-95779166D01*
X93989071Y-95809404D01*
X94019309Y-95839642D01*
X94049547Y-95900119D01*
X94049547Y-96051309D01*
X94019309Y-96111785D01*
X93989071Y-96142023D01*
X93928595Y-96172261D01*
X93747166Y-96172261D01*
X93686690Y-96142023D01*
X93656452Y-96111785D01*
X94351928Y-96172261D02*
X94472880Y-96172261D01*
X94533357Y-96142023D01*
X94563595Y-96111785D01*
X94624071Y-96021071D01*
X94654309Y-95900119D01*
X94654309Y-95658214D01*
X94624071Y-95597738D01*
X94593833Y-95567500D01*
X94533357Y-95537261D01*
X94412404Y-95537261D01*
X94351928Y-95567500D01*
X94321690Y-95597738D01*
X94291452Y-95658214D01*
X94291452Y-95809404D01*
X94321690Y-95869880D01*
X94351928Y-95900119D01*
X94412404Y-95930357D01*
X94533357Y-95930357D01*
X94593833Y-95900119D01*
X94624071Y-95869880D01*
X94654309Y-95809404D01*
D13*
X105910142Y-104084380D02*
X105576809Y-103608190D01*
X105338714Y-104084380D02*
X105338714Y-103084380D01*
X105719666Y-103084380D01*
X105814904Y-103132000D01*
X105862523Y-103179619D01*
X105910142Y-103274857D01*
X105910142Y-103417714D01*
X105862523Y-103512952D01*
X105814904Y-103560571D01*
X105719666Y-103608190D01*
X105338714Y-103608190D01*
X106767285Y-103417714D02*
X106767285Y-104084380D01*
X106529190Y-103036761D02*
X106291095Y-103751047D01*
X106910142Y-103751047D01*
X107481571Y-103084380D02*
X107576809Y-103084380D01*
X107672047Y-103132000D01*
X107719666Y-103179619D01*
X107767285Y-103274857D01*
X107814904Y-103465333D01*
X107814904Y-103703428D01*
X107767285Y-103893904D01*
X107719666Y-103989142D01*
X107672047Y-104036761D01*
X107576809Y-104084380D01*
X107481571Y-104084380D01*
X107386333Y-104036761D01*
X107338714Y-103989142D01*
X107291095Y-103893904D01*
X107243476Y-103703428D01*
X107243476Y-103465333D01*
X107291095Y-103274857D01*
X107338714Y-103179619D01*
X107386333Y-103132000D01*
X107481571Y-103084380D01*
X105910142Y-102179380D02*
X105576809Y-101703190D01*
X105338714Y-102179380D02*
X105338714Y-101179380D01*
X105719666Y-101179380D01*
X105814904Y-101227000D01*
X105862523Y-101274619D01*
X105910142Y-101369857D01*
X105910142Y-101512714D01*
X105862523Y-101607952D01*
X105814904Y-101655571D01*
X105719666Y-101703190D01*
X105338714Y-101703190D01*
X106767285Y-101512714D02*
X106767285Y-102179380D01*
X106529190Y-101131761D02*
X106291095Y-101846047D01*
X106910142Y-101846047D01*
X107814904Y-102179380D02*
X107243476Y-102179380D01*
X107529190Y-102179380D02*
X107529190Y-101179380D01*
X107433952Y-101322238D01*
X107338714Y-101417476D01*
X107243476Y-101465095D01*
D11*
X131668761Y-101158523D02*
X131245428Y-100553761D01*
X130943047Y-101158523D02*
X130943047Y-99888523D01*
X131426857Y-99888523D01*
X131547809Y-99949000D01*
X131608285Y-100009476D01*
X131668761Y-100130428D01*
X131668761Y-100311857D01*
X131608285Y-100432809D01*
X131547809Y-100493285D01*
X131426857Y-100553761D01*
X130943047Y-100553761D01*
X132213047Y-100493285D02*
X132636380Y-100493285D01*
X132817809Y-101158523D02*
X132213047Y-101158523D01*
X132213047Y-99888523D01*
X132817809Y-99888523D01*
X133966857Y-101158523D02*
X133362095Y-101158523D01*
X133362095Y-99888523D01*
X135055428Y-101158523D02*
X134329714Y-101158523D01*
X134692571Y-101158523D02*
X134692571Y-99888523D01*
X134571619Y-100069952D01*
X134450666Y-100190904D01*
X134329714Y-100251380D01*
D19*
X136251904Y-72701047D02*
X135870952Y-72967714D01*
X136251904Y-73158190D02*
X135451904Y-73158190D01*
X135451904Y-72853428D01*
X135490000Y-72777238D01*
X135528095Y-72739142D01*
X135604285Y-72701047D01*
X135718571Y-72701047D01*
X135794761Y-72739142D01*
X135832857Y-72777238D01*
X135870952Y-72853428D01*
X135870952Y-73158190D01*
X135832857Y-72358190D02*
X135832857Y-72091523D01*
X136251904Y-71977238D02*
X136251904Y-72358190D01*
X135451904Y-72358190D01*
X135451904Y-71977238D01*
X136251904Y-71253428D02*
X136251904Y-71634380D01*
X135451904Y-71634380D01*
X135528095Y-71024857D02*
X135490000Y-70986761D01*
X135451904Y-70910571D01*
X135451904Y-70720095D01*
X135490000Y-70643904D01*
X135528095Y-70605809D01*
X135604285Y-70567714D01*
X135680476Y-70567714D01*
X135794761Y-70605809D01*
X136251904Y-71062952D01*
X136251904Y-70567714D01*
D11*
X83442285Y-107222857D02*
X83042285Y-106651428D01*
X82756571Y-107222857D02*
X82756571Y-106022857D01*
X83213714Y-106022857D01*
X83328000Y-106080000D01*
X83385142Y-106137142D01*
X83442285Y-106251428D01*
X83442285Y-106422857D01*
X83385142Y-106537142D01*
X83328000Y-106594285D01*
X83213714Y-106651428D01*
X82756571Y-106651428D01*
X83956571Y-107222857D02*
X83956571Y-106022857D01*
X84356571Y-106880000D01*
X84756571Y-106022857D01*
X84756571Y-107222857D01*
X85956571Y-107222857D02*
X85270857Y-107222857D01*
X85613714Y-107222857D02*
X85613714Y-106022857D01*
X85499428Y-106194285D01*
X85385142Y-106308571D01*
X85270857Y-106365714D01*
D13*
X96162904Y-103068380D02*
X95829571Y-102592190D01*
X95591476Y-103068380D02*
X95591476Y-102068380D01*
X95972428Y-102068380D01*
X96067666Y-102116000D01*
X96115285Y-102163619D01*
X96162904Y-102258857D01*
X96162904Y-102401714D01*
X96115285Y-102496952D01*
X96067666Y-102544571D01*
X95972428Y-102592190D01*
X95591476Y-102592190D01*
X96591476Y-103068380D02*
X96591476Y-102068380D01*
X96924809Y-102782666D01*
X97258142Y-102068380D01*
X97258142Y-103068380D01*
X97686714Y-102163619D02*
X97734333Y-102116000D01*
X97829571Y-102068380D01*
X98067666Y-102068380D01*
X98162904Y-102116000D01*
X98210523Y-102163619D01*
X98258142Y-102258857D01*
X98258142Y-102354095D01*
X98210523Y-102496952D01*
X97639095Y-103068380D01*
X98258142Y-103068380D01*
X101496904Y-103068380D02*
X101163571Y-102592190D01*
X100925476Y-103068380D02*
X100925476Y-102068380D01*
X101306428Y-102068380D01*
X101401666Y-102116000D01*
X101449285Y-102163619D01*
X101496904Y-102258857D01*
X101496904Y-102401714D01*
X101449285Y-102496952D01*
X101401666Y-102544571D01*
X101306428Y-102592190D01*
X100925476Y-102592190D01*
X101925476Y-103068380D02*
X101925476Y-102068380D01*
X102258809Y-102782666D01*
X102592142Y-102068380D01*
X102592142Y-103068380D01*
X102973095Y-102068380D02*
X103592142Y-102068380D01*
X103258809Y-102449333D01*
X103401666Y-102449333D01*
X103496904Y-102496952D01*
X103544523Y-102544571D01*
X103592142Y-102639809D01*
X103592142Y-102877904D01*
X103544523Y-102973142D01*
X103496904Y-103020761D01*
X103401666Y-103068380D01*
X103115952Y-103068380D01*
X103020714Y-103020761D01*
X102973095Y-102973142D01*
D12*
X111696875Y-105617099D02*
X111953454Y-105873678D01*
X111376152Y-106194402D02*
X111825165Y-105745389D01*
X111654112Y-106472362D02*
X112103125Y-106023349D01*
X111889309Y-106237165D02*
X112145888Y-106493743D01*
X111910691Y-106728941D02*
X112359704Y-106279928D01*
X112359704Y-106707559D02*
X112509375Y-106857230D01*
X112338322Y-107156572D02*
X112124507Y-106942756D01*
X112573519Y-106493743D01*
X112787335Y-106707559D01*
X112787335Y-107605585D02*
X112851480Y-107242098D01*
X112530756Y-107349006D02*
X112979769Y-106899993D01*
X113150822Y-107071046D01*
X113172203Y-107135190D01*
X113172203Y-107177953D01*
X113150822Y-107242098D01*
X113086677Y-107306243D01*
X113022532Y-107327624D01*
X112979769Y-107327624D01*
X112915624Y-107306243D01*
X112744572Y-107135190D01*
X112979769Y-107798019D02*
X113428782Y-107349006D01*
X113257729Y-107819400D01*
X113728124Y-107648348D01*
X113279111Y-108097361D01*
X113728124Y-108546373D02*
X113471545Y-108289795D01*
X113599834Y-108418084D02*
X114048847Y-107969071D01*
X113941939Y-107990453D01*
X113856413Y-107990453D01*
X113792268Y-107969071D01*
D13*
X112953895Y-100874580D02*
X112953895Y-101684104D01*
X113001514Y-101779342D01*
X113049133Y-101826961D01*
X113144371Y-101874580D01*
X113334847Y-101874580D01*
X113430085Y-101826961D01*
X113477704Y-101779342D01*
X113525323Y-101684104D01*
X113525323Y-100874580D01*
X114525323Y-101874580D02*
X113953895Y-101874580D01*
X114239609Y-101874580D02*
X114239609Y-100874580D01*
X114144371Y-101017438D01*
X114049133Y-101112676D01*
X113953895Y-101160295D01*
D12*
X120039190Y-114587261D02*
X120039190Y-115101309D01*
X120069428Y-115161785D01*
X120099666Y-115192023D01*
X120160142Y-115222261D01*
X120281095Y-115222261D01*
X120341571Y-115192023D01*
X120371809Y-115161785D01*
X120402047Y-115101309D01*
X120402047Y-114587261D01*
X120674190Y-114647738D02*
X120704428Y-114617500D01*
X120764904Y-114587261D01*
X120916095Y-114587261D01*
X120976571Y-114617500D01*
X121006809Y-114647738D01*
X121037047Y-114708214D01*
X121037047Y-114768690D01*
X121006809Y-114859404D01*
X120643952Y-115222261D01*
X121037047Y-115222261D01*
D11*
X94665904Y-96933619D02*
X94665904Y-97824095D01*
X94718285Y-97928857D01*
X94770666Y-97981238D01*
X94875428Y-98033619D01*
X95084952Y-98033619D01*
X95189714Y-97981238D01*
X95242095Y-97928857D01*
X95294476Y-97824095D01*
X95294476Y-96933619D01*
X96289714Y-97300285D02*
X96289714Y-98033619D01*
X96027809Y-96881238D02*
X95765904Y-97666952D01*
X96446857Y-97666952D01*
X90528857Y-117674714D02*
X91500285Y-117674714D01*
X91614571Y-117617571D01*
X91671714Y-117560428D01*
X91728857Y-117446142D01*
X91728857Y-117217571D01*
X91671714Y-117103285D01*
X91614571Y-117046142D01*
X91500285Y-116989000D01*
X90528857Y-116989000D01*
X91100285Y-116417571D02*
X91100285Y-116017571D01*
X91728857Y-115846142D02*
X91728857Y-116417571D01*
X90528857Y-116417571D01*
X90528857Y-115846142D01*
X90528857Y-115446142D02*
X91728857Y-114646142D01*
X90528857Y-114646142D02*
X91728857Y-115446142D01*
X90528857Y-114360428D02*
X90528857Y-113674714D01*
X91728857Y-114017571D02*
X90528857Y-114017571D01*
X91728857Y-112646142D02*
X91728857Y-113331857D01*
X91728857Y-112989000D02*
X90528857Y-112989000D01*
X90700285Y-113103285D01*
X90814571Y-113217571D01*
X90871714Y-113331857D01*
D17*
X96506065Y-112232179D02*
X96553684Y-112184560D01*
X96648922Y-112136940D01*
X96887018Y-112136940D01*
X96982256Y-112184560D01*
X97029875Y-112232179D01*
X97077494Y-112327417D01*
X97077494Y-112422655D01*
X97029875Y-112565512D01*
X96458446Y-113136940D01*
X97077494Y-113136940D01*
X97161314Y-115763300D02*
X96589885Y-115763300D01*
X96875600Y-115763300D02*
X96875600Y-114763300D01*
X96780361Y-114906158D01*
X96685123Y-115001396D01*
X96589885Y-115049015D01*
X103987623Y-117922300D02*
X103416195Y-117922300D01*
X103701909Y-117922300D02*
X103701909Y-116922300D01*
X103606671Y-117065158D01*
X103511433Y-117160396D01*
X103416195Y-117208015D01*
X104606671Y-116922300D02*
X104701909Y-116922300D01*
X104797147Y-116969920D01*
X104844766Y-117017539D01*
X104892385Y-117112777D01*
X104940004Y-117303253D01*
X104940004Y-117541348D01*
X104892385Y-117731824D01*
X104844766Y-117827062D01*
X104797147Y-117874681D01*
X104701909Y-117922300D01*
X104606671Y-117922300D01*
X104511433Y-117874681D01*
X104463814Y-117827062D01*
X104416195Y-117731824D01*
X104368576Y-117541348D01*
X104368576Y-117303253D01*
X104416195Y-117112777D01*
X104463814Y-117017539D01*
X104511433Y-116969920D01*
X104606671Y-116922300D01*
D13*
X78843380Y-117784571D02*
X79176714Y-117784571D01*
X79319571Y-118308380D02*
X78843380Y-118308380D01*
X78843380Y-117308380D01*
X79319571Y-117308380D01*
X79652904Y-117308380D02*
X80319571Y-118308380D01*
X80319571Y-117308380D02*
X79652904Y-118308380D01*
X80557666Y-117308380D02*
X81129095Y-117308380D01*
X80843380Y-118308380D02*
X80843380Y-117308380D01*
X81986238Y-118308380D02*
X81414809Y-118308380D01*
X81700523Y-118308380D02*
X81700523Y-117308380D01*
X81605285Y-117451238D01*
X81510047Y-117546476D01*
X81414809Y-117594095D01*
D12*
X82976357Y-105316261D02*
X82976357Y-104681261D01*
X83188023Y-105134833D01*
X83399690Y-104681261D01*
X83399690Y-105316261D01*
X83702071Y-105316261D02*
X83702071Y-104681261D01*
X84367309Y-105255785D02*
X84337071Y-105286023D01*
X84246357Y-105316261D01*
X84185880Y-105316261D01*
X84095166Y-105286023D01*
X84034690Y-105225547D01*
X84004452Y-105165071D01*
X83974214Y-105044119D01*
X83974214Y-104953404D01*
X84004452Y-104832452D01*
X84034690Y-104771976D01*
X84095166Y-104711500D01*
X84185880Y-104681261D01*
X84246357Y-104681261D01*
X84337071Y-104711500D01*
X84367309Y-104741738D01*
X85002309Y-105316261D02*
X84790642Y-105013880D01*
X84639452Y-105316261D02*
X84639452Y-104681261D01*
X84881357Y-104681261D01*
X84941833Y-104711500D01*
X84972071Y-104741738D01*
X85002309Y-104802214D01*
X85002309Y-104892928D01*
X84972071Y-104953404D01*
X84941833Y-104983642D01*
X84881357Y-105013880D01*
X84639452Y-105013880D01*
X85395404Y-104681261D02*
X85516357Y-104681261D01*
X85576833Y-104711500D01*
X85637309Y-104771976D01*
X85667547Y-104892928D01*
X85667547Y-105104595D01*
X85637309Y-105225547D01*
X85576833Y-105286023D01*
X85516357Y-105316261D01*
X85395404Y-105316261D01*
X85334928Y-105286023D01*
X85274452Y-105225547D01*
X85244214Y-105104595D01*
X85244214Y-104892928D01*
X85274452Y-104771976D01*
X85334928Y-104711500D01*
X85395404Y-104681261D01*
X85788500Y-105376738D02*
X86272309Y-105376738D01*
X86393261Y-105286023D02*
X86483976Y-105316261D01*
X86635166Y-105316261D01*
X86695642Y-105286023D01*
X86725880Y-105255785D01*
X86756119Y-105195309D01*
X86756119Y-105134833D01*
X86725880Y-105074357D01*
X86695642Y-105044119D01*
X86635166Y-105013880D01*
X86514214Y-104983642D01*
X86453738Y-104953404D01*
X86423500Y-104923166D01*
X86393261Y-104862690D01*
X86393261Y-104802214D01*
X86423500Y-104741738D01*
X86453738Y-104711500D01*
X86514214Y-104681261D01*
X86665404Y-104681261D01*
X86756119Y-104711500D01*
X87028261Y-105316261D02*
X87028261Y-104681261D01*
X87179452Y-104681261D01*
X87270166Y-104711500D01*
X87330642Y-104771976D01*
X87360880Y-104832452D01*
X87391119Y-104953404D01*
X87391119Y-105044119D01*
X87360880Y-105165071D01*
X87330642Y-105225547D01*
X87270166Y-105286023D01*
X87179452Y-105316261D01*
X87028261Y-105316261D01*
X87995880Y-105316261D02*
X87633023Y-105316261D01*
X87814452Y-105316261D02*
X87814452Y-104681261D01*
X87753976Y-104771976D01*
X87693500Y-104832452D01*
X87633023Y-104862690D01*
X83792785Y-112682261D02*
X83581119Y-112379880D01*
X83429928Y-112682261D02*
X83429928Y-112047261D01*
X83671833Y-112047261D01*
X83732309Y-112077500D01*
X83762547Y-112107738D01*
X83792785Y-112168214D01*
X83792785Y-112258928D01*
X83762547Y-112319404D01*
X83732309Y-112349642D01*
X83671833Y-112379880D01*
X83429928Y-112379880D01*
X84337071Y-112258928D02*
X84337071Y-112682261D01*
X84185880Y-112017023D02*
X84034690Y-112470595D01*
X84427785Y-112470595D01*
X84609214Y-112047261D02*
X85002309Y-112047261D01*
X84790642Y-112289166D01*
X84881357Y-112289166D01*
X84941833Y-112319404D01*
X84972071Y-112349642D01*
X85002309Y-112410119D01*
X85002309Y-112561309D01*
X84972071Y-112621785D01*
X84941833Y-112652023D01*
X84881357Y-112682261D01*
X84699928Y-112682261D01*
X84639452Y-112652023D01*
X84609214Y-112621785D01*
X70136052Y-95966642D02*
X70226766Y-95996880D01*
X70257004Y-96027119D01*
X70287242Y-96087595D01*
X70287242Y-96178309D01*
X70257004Y-96238785D01*
X70226766Y-96269023D01*
X70166290Y-96299261D01*
X69924385Y-96299261D01*
X69924385Y-95664261D01*
X70136052Y-95664261D01*
X70196528Y-95694500D01*
X70226766Y-95724738D01*
X70257004Y-95785214D01*
X70257004Y-95845690D01*
X70226766Y-95906166D01*
X70196528Y-95936404D01*
X70136052Y-95966642D01*
X69924385Y-95966642D01*
X70559385Y-95664261D02*
X70559385Y-96178309D01*
X70589623Y-96238785D01*
X70619861Y-96269023D01*
X70680338Y-96299261D01*
X70801290Y-96299261D01*
X70861766Y-96269023D01*
X70892004Y-96238785D01*
X70922242Y-96178309D01*
X70922242Y-95664261D01*
X71133909Y-95664261D02*
X71496766Y-95664261D01*
X71315338Y-96299261D02*
X71315338Y-95664261D01*
X72041052Y-96299261D02*
X71678195Y-96299261D01*
X71859623Y-96299261D02*
X71859623Y-95664261D01*
X71799147Y-95754976D01*
X71738671Y-95815452D01*
X71678195Y-95845690D01*
X70136052Y-100487842D02*
X70226766Y-100518080D01*
X70257004Y-100548319D01*
X70287242Y-100608795D01*
X70287242Y-100699509D01*
X70257004Y-100759985D01*
X70226766Y-100790223D01*
X70166290Y-100820461D01*
X69924385Y-100820461D01*
X69924385Y-100185461D01*
X70136052Y-100185461D01*
X70196528Y-100215700D01*
X70226766Y-100245938D01*
X70257004Y-100306414D01*
X70257004Y-100366890D01*
X70226766Y-100427366D01*
X70196528Y-100457604D01*
X70136052Y-100487842D01*
X69924385Y-100487842D01*
X70559385Y-100185461D02*
X70559385Y-100699509D01*
X70589623Y-100759985D01*
X70619861Y-100790223D01*
X70680338Y-100820461D01*
X70801290Y-100820461D01*
X70861766Y-100790223D01*
X70892004Y-100759985D01*
X70922242Y-100699509D01*
X70922242Y-100185461D01*
X71133909Y-100185461D02*
X71496766Y-100185461D01*
X71315338Y-100820461D02*
X71315338Y-100185461D01*
X71678195Y-100245938D02*
X71708433Y-100215700D01*
X71768909Y-100185461D01*
X71920100Y-100185461D01*
X71980576Y-100215700D01*
X72010814Y-100245938D01*
X72041052Y-100306414D01*
X72041052Y-100366890D01*
X72010814Y-100457604D01*
X71647957Y-100820461D01*
X72041052Y-100820461D01*
X90587285Y-85244214D02*
X90617523Y-85274452D01*
X90647761Y-85365166D01*
X90647761Y-85425642D01*
X90617523Y-85516357D01*
X90557047Y-85576833D01*
X90496571Y-85607071D01*
X90375619Y-85637309D01*
X90284904Y-85637309D01*
X90163952Y-85607071D01*
X90103476Y-85576833D01*
X90043000Y-85516357D01*
X90012761Y-85425642D01*
X90012761Y-85365166D01*
X90043000Y-85274452D01*
X90073238Y-85244214D01*
X90647761Y-84639452D02*
X90647761Y-85002309D01*
X90647761Y-84820880D02*
X90012761Y-84820880D01*
X90103476Y-84881357D01*
X90163952Y-84941833D01*
X90194190Y-85002309D01*
X90647761Y-84337071D02*
X90647761Y-84216119D01*
X90617523Y-84155642D01*
X90587285Y-84125404D01*
X90496571Y-84064928D01*
X90375619Y-84034690D01*
X90133714Y-84034690D01*
X90073238Y-84064928D01*
X90043000Y-84095166D01*
X90012761Y-84155642D01*
X90012761Y-84276595D01*
X90043000Y-84337071D01*
X90073238Y-84367309D01*
X90133714Y-84397547D01*
X90284904Y-84397547D01*
X90345380Y-84367309D01*
X90375619Y-84337071D01*
X90405857Y-84276595D01*
X90405857Y-84155642D01*
X90375619Y-84095166D01*
X90345380Y-84064928D01*
X90284904Y-84034690D01*
X90587285Y-79910214D02*
X90617523Y-79940452D01*
X90647761Y-80031166D01*
X90647761Y-80091642D01*
X90617523Y-80182357D01*
X90557047Y-80242833D01*
X90496571Y-80273071D01*
X90375619Y-80303309D01*
X90284904Y-80303309D01*
X90163952Y-80273071D01*
X90103476Y-80242833D01*
X90043000Y-80182357D01*
X90012761Y-80091642D01*
X90012761Y-80031166D01*
X90043000Y-79940452D01*
X90073238Y-79910214D01*
X90073238Y-79668309D02*
X90043000Y-79638071D01*
X90012761Y-79577595D01*
X90012761Y-79426404D01*
X90043000Y-79365928D01*
X90073238Y-79335690D01*
X90133714Y-79305452D01*
X90194190Y-79305452D01*
X90284904Y-79335690D01*
X90647761Y-79698547D01*
X90647761Y-79305452D01*
X90012761Y-78912357D02*
X90012761Y-78851880D01*
X90043000Y-78791404D01*
X90073238Y-78761166D01*
X90133714Y-78730928D01*
X90254666Y-78700690D01*
X90405857Y-78700690D01*
X90526809Y-78730928D01*
X90587285Y-78761166D01*
X90617523Y-78791404D01*
X90647761Y-78851880D01*
X90647761Y-78912357D01*
X90617523Y-78972833D01*
X90587285Y-79003071D01*
X90526809Y-79033309D01*
X90405857Y-79063547D01*
X90254666Y-79063547D01*
X90133714Y-79033309D01*
X90073238Y-79003071D01*
X90043000Y-78972833D01*
X90012761Y-78912357D01*
D17*
M02*
