G04 #@! TF.FileFunction,Soldermask,Top*
%FSLAX46Y46*%
G04 Gerber Fmt 4.6, Leading zero omitted, Abs format (unit mm)*
G04 Created by KiCad (PCBNEW no-vcs-found-undefined) date Wed Nov  9 17:16:08 2016*
%MOMM*%
%LPD*%
G01*
G04 APERTURE LIST*
%ADD10C,0.100000*%
%ADD11C,0.254000*%
%ADD12C,3.600000*%
%ADD13C,2.050000*%
%ADD14C,3.100000*%
%ADD15C,1.810000*%
%ADD16C,3.700000*%
%ADD17C,1.700000*%
%ADD18C,2.400000*%
%ADD19R,6.400000X6.400000*%
%ADD20R,2.100000X1.300000*%
%ADD21R,1.300000X2.100000*%
%ADD22R,1.800000X1.800000*%
%ADD23C,1.800000*%
%ADD24R,1.625600X1.371600*%
%ADD25C,1.924000*%
%ADD26R,1.924000X1.924000*%
%ADD27R,1.117600X1.117600*%
%ADD28C,3.448000*%
%ADD29R,3.448000X3.448000*%
%ADD30R,1.600000X1.800000*%
%ADD31R,1.501600X1.101600*%
%ADD32R,2.178000X2.686000*%
%ADD33R,2.100000X2.400000*%
%ADD34R,1.101600X1.501600*%
%ADD35R,2.801600X1.901600*%
%ADD36C,1.400000*%
%ADD37R,3.601600X1.701600*%
%ADD38R,1.371600X1.625600*%
%ADD39R,0.901600X0.901600*%
%ADD40O,1.601600X4.601600*%
%ADD41O,4.601600X1.601600*%
%ADD42R,0.601600X0.651600*%
%ADD43R,0.651600X0.601600*%
%ADD44R,0.881600X0.601600*%
%ADD45C,2.940000*%
%ADD46R,1.117600X0.736600*%
%ADD47R,1.117600X0.482600*%
%ADD48R,0.482600X1.117600*%
%ADD49R,0.736600X1.117600*%
%ADD50R,1.101600X0.351600*%
%ADD51R,1.301600X0.651600*%
%ADD52R,1.200000X0.650000*%
%ADD53R,0.650000X1.200000*%
%ADD54R,1.822400X1.822400*%
%ADD55R,0.800000X0.800000*%
%ADD56R,4.000000X4.000000*%
%ADD57R,2.100000X2.100000*%
%ADD58C,2.100000*%
%ADD59C,6.700000*%
%ADD60C,1.600000*%
%ADD61C,1.879600*%
%ADD62R,1.879600X1.879600*%
%ADD63R,1.900000X1.200000*%
%ADD64C,0.800000*%
%ADD65R,1.900000X3.500000*%
%ADD66R,1.879600X1.117600*%
%ADD67C,1.254000*%
G04 APERTURE END LIST*
D10*
D11*
X88976200Y-67056000D02*
X144723000Y-67056000D01*
X88976200Y-73075800D02*
X88976200Y-67056000D01*
X69720000Y-73075800D02*
X88976200Y-73075800D01*
X69720000Y-124200000D02*
X69720000Y-73075800D01*
X144723000Y-124206000D02*
X144723000Y-67056000D01*
X69723000Y-124206000D02*
X144723000Y-124206000D01*
D12*
X97155000Y-78359000D03*
X108585000Y-78359000D03*
D13*
X106940000Y-73610500D03*
X96260000Y-73610500D03*
D14*
X95070000Y-81409000D03*
X110670000Y-81409000D03*
D13*
X109480000Y-73610500D03*
X98800000Y-73610500D03*
D15*
X98435000Y-87599000D03*
X99705000Y-85059000D03*
X100975000Y-87599000D03*
X102245000Y-85059000D03*
X103515000Y-87599000D03*
X104785000Y-85059000D03*
X106055000Y-87599000D03*
X107325000Y-85059000D03*
D16*
X141351000Y-70358000D03*
D17*
X77939900Y-84632800D03*
D18*
X80251300Y-82296000D03*
D19*
X80280300Y-82283000D03*
D20*
X88980300Y-74623000D03*
X88980300Y-75893000D03*
X88980300Y-77163000D03*
X88980300Y-78433000D03*
X88980300Y-79703000D03*
X88980300Y-80973000D03*
X88980300Y-82243000D03*
X88980300Y-83513000D03*
X88980300Y-84783000D03*
X88980300Y-86053000D03*
X88980300Y-87323000D03*
X88980300Y-88593000D03*
X88980300Y-89863000D03*
X88980300Y-91133000D03*
D21*
X85710300Y-92583000D03*
X84440300Y-92583000D03*
X83170300Y-92583000D03*
X81900300Y-92583000D03*
X80630300Y-92583000D03*
X79360300Y-92583000D03*
X78090300Y-92583000D03*
X76820300Y-92583000D03*
X75550300Y-92583000D03*
X74280300Y-92583000D03*
D20*
X70980300Y-91093000D03*
X70980300Y-89823000D03*
X70980300Y-88553000D03*
X70980300Y-87283000D03*
X70980300Y-86013000D03*
X70980300Y-84743000D03*
X70980300Y-83473000D03*
X70980300Y-82203000D03*
X70980300Y-80933000D03*
X70980300Y-79663000D03*
X70980300Y-78393000D03*
X70980300Y-77123000D03*
X70980300Y-75853000D03*
X70980300Y-74583000D03*
D17*
X82613500Y-84632800D03*
X77939900Y-79933800D03*
X82613500Y-79933800D03*
X80251300Y-79933800D03*
X80251300Y-84632800D03*
X77939900Y-82169000D03*
X82613500Y-82169000D03*
D22*
X133865620Y-117624860D03*
D23*
X135877300Y-117622320D03*
D24*
X124841000Y-110744000D03*
X124841000Y-108712000D03*
X122428000Y-109093000D03*
X122428000Y-111125000D03*
D25*
X122809000Y-103759000D03*
D26*
X122809000Y-106299000D03*
D27*
X122047000Y-113030000D03*
X122047000Y-114808000D03*
X93091000Y-111252000D03*
X93091000Y-109474000D03*
X117221000Y-111125000D03*
X117221000Y-112903000D03*
X115443000Y-111125000D03*
X115443000Y-112903000D03*
X91440000Y-88646000D03*
X91440000Y-86868000D03*
X93599000Y-88646000D03*
X93599000Y-86868000D03*
D24*
X86868000Y-111506000D03*
X86868000Y-113538000D03*
D27*
X95885000Y-93091000D03*
X94107000Y-93091000D03*
X105283000Y-93091000D03*
X105283000Y-91313000D03*
X93980000Y-103886000D03*
X93980000Y-105664000D03*
X107061000Y-91313000D03*
X107061000Y-93091000D03*
X108839000Y-91313000D03*
X108839000Y-93091000D03*
X93218000Y-101092000D03*
X91440000Y-101092000D03*
X91440000Y-99314000D03*
X93218000Y-99314000D03*
X108712000Y-96393000D03*
X110490000Y-96393000D03*
D28*
X140500000Y-91774000D03*
D29*
X140500000Y-101774000D03*
D28*
X140500000Y-96774000D03*
X140500000Y-81774000D03*
D29*
X140500000Y-86774000D03*
D28*
X140500000Y-76774000D03*
D30*
X90043000Y-98933000D03*
X90043000Y-96393000D03*
X87503000Y-96393000D03*
X87503000Y-98933000D03*
D31*
X112242600Y-92451000D03*
X112242600Y-88651000D03*
D32*
X124442000Y-113284000D03*
X128796000Y-113284000D03*
D31*
X112242600Y-77363400D03*
X112242600Y-73563400D03*
D33*
X119634000Y-113371000D03*
X119634000Y-108371000D03*
D34*
X101468000Y-107950000D03*
X97668000Y-107950000D03*
D31*
X125389640Y-101729540D03*
X127599440Y-100774500D03*
X127599440Y-102676960D03*
D35*
X127635000Y-105623000D03*
X127635000Y-110023000D03*
D36*
X138811000Y-117983000D03*
D24*
X95504000Y-107950000D03*
X93472000Y-107950000D03*
D37*
X116586000Y-115132000D03*
X116586000Y-117532000D03*
D38*
X91567000Y-92583000D03*
X91567000Y-90551000D03*
X86868000Y-109093000D03*
X86868000Y-107061000D03*
D39*
X114046000Y-99441000D03*
X114046000Y-97917000D03*
X113792000Y-68072000D03*
X113792000Y-69596000D03*
D40*
X130937000Y-111049000D03*
X137437000Y-111049000D03*
D41*
X134237000Y-106599000D03*
D28*
X140208000Y-108625000D03*
D29*
X140208000Y-113625000D03*
D39*
X142113000Y-116967000D03*
X143637000Y-116967000D03*
D34*
X113921540Y-86827360D03*
X112966500Y-84617560D03*
X114868960Y-84617560D03*
X90363040Y-70322440D03*
X92265500Y-70322440D03*
X91310460Y-68112640D03*
D27*
X114808000Y-81153000D03*
X113030000Y-81153000D03*
X113030000Y-82931000D03*
X114808000Y-82931000D03*
X114046000Y-94488000D03*
X114046000Y-96266000D03*
D42*
X139954000Y-116967000D03*
X140970000Y-116967000D03*
D27*
X90678000Y-73533000D03*
X92456000Y-73533000D03*
X92202000Y-72009000D03*
X90424000Y-72009000D03*
X129032000Y-118491000D03*
X129032000Y-116713000D03*
X118999000Y-103886000D03*
X117221000Y-103886000D03*
X127254000Y-116078000D03*
X127254000Y-117856000D03*
X118999000Y-105791000D03*
X117221000Y-105791000D03*
X112141000Y-68199000D03*
X112141000Y-69977000D03*
X115443000Y-107950000D03*
X117221000Y-107950000D03*
X115443000Y-109728000D03*
X117221000Y-109728000D03*
X81026000Y-98552000D03*
X81026000Y-100330000D03*
X130810000Y-118491000D03*
X130810000Y-116713000D03*
X81026000Y-103378000D03*
X81026000Y-101600000D03*
X124714000Y-100457000D03*
X122936000Y-100457000D03*
X93091000Y-114554000D03*
X93091000Y-112776000D03*
D43*
X123952000Y-118110000D03*
X123952000Y-117094000D03*
X125095000Y-117094000D03*
X125095000Y-118110000D03*
D27*
X108712000Y-108331000D03*
X108712000Y-106553000D03*
X110617000Y-106553000D03*
X110617000Y-108331000D03*
X105664000Y-107823000D03*
X103886000Y-107823000D03*
X72644000Y-93853000D03*
X70866000Y-93853000D03*
X94107000Y-91313000D03*
X95885000Y-91313000D03*
D44*
X94996000Y-91313000D03*
D27*
X93853000Y-75057000D03*
X92075000Y-75057000D03*
X92202000Y-76581000D03*
X93980000Y-76581000D03*
X99949000Y-91313000D03*
X99949000Y-93091000D03*
X83312000Y-115697000D03*
X85090000Y-115697000D03*
X97663000Y-93091000D03*
X97663000Y-91313000D03*
X103505000Y-91313000D03*
X103505000Y-93091000D03*
X101727000Y-93091000D03*
X101727000Y-91313000D03*
X89662000Y-101219000D03*
X87884000Y-101219000D03*
X91694000Y-95377000D03*
X91694000Y-97155000D03*
X87884000Y-94107000D03*
X89662000Y-94107000D03*
X108712000Y-99949000D03*
X110490000Y-99949000D03*
X110490000Y-98171000D03*
X108712000Y-98171000D03*
X95885000Y-94869000D03*
X94107000Y-94869000D03*
X110490000Y-103505000D03*
X108712000Y-103505000D03*
X108712000Y-101727000D03*
X110490000Y-101727000D03*
D45*
X119176000Y-97440000D03*
X119176000Y-85440000D03*
X131176000Y-85440000D03*
X131176000Y-97440000D03*
X117176000Y-91440000D03*
X117176000Y-75184000D03*
X131176000Y-81184000D03*
X131176000Y-69184000D03*
X119176000Y-69184000D03*
X119176000Y-81184000D03*
D46*
X85090000Y-108458000D03*
X83566000Y-108458000D03*
X85090000Y-110998000D03*
X83566000Y-110998000D03*
D47*
X85090000Y-109347000D03*
X85090000Y-110109000D03*
X83566000Y-109347000D03*
X83566000Y-110109000D03*
D48*
X97409000Y-105664000D03*
X96647000Y-105664000D03*
X97409000Y-104140000D03*
X96647000Y-104140000D03*
D49*
X98298000Y-105664000D03*
X98298000Y-104140000D03*
X95758000Y-105664000D03*
X95758000Y-104140000D03*
X102616000Y-105664000D03*
X102616000Y-104140000D03*
X100076000Y-105664000D03*
X100076000Y-104140000D03*
D48*
X101727000Y-105664000D03*
X100965000Y-105664000D03*
X101727000Y-104140000D03*
X100965000Y-104140000D03*
D36*
X114300000Y-108839000D03*
D50*
X115329000Y-100219000D03*
X115329000Y-100719000D03*
X115329000Y-101219000D03*
X115329000Y-101719000D03*
X115329000Y-102219000D03*
X120129000Y-102219000D03*
X120129000Y-101719000D03*
X120129000Y-101219000D03*
X120129000Y-100719000D03*
X120129000Y-100219000D03*
D51*
X121823000Y-117917000D03*
X121823000Y-116017000D03*
X119223000Y-117917000D03*
X119223000Y-116967000D03*
X119223000Y-116017000D03*
D52*
X97499000Y-97183000D03*
X97499000Y-97683000D03*
X97499000Y-98183000D03*
X97499000Y-98683000D03*
X97499000Y-99183000D03*
X97499000Y-99683000D03*
X97499000Y-100183000D03*
X97499000Y-100683000D03*
D53*
X98199000Y-101383000D03*
X98699000Y-101383000D03*
X99199000Y-101383000D03*
X99699000Y-101383000D03*
X100199000Y-101383000D03*
X100699000Y-101383000D03*
X101199000Y-101383000D03*
X101699000Y-101383000D03*
D52*
X102399000Y-100683000D03*
X102399000Y-100183000D03*
X102399000Y-99683000D03*
X102399000Y-99183000D03*
X102399000Y-98683000D03*
X102399000Y-98183000D03*
X102399000Y-97683000D03*
X102399000Y-97183000D03*
D53*
X101699000Y-96483000D03*
X101199000Y-96483000D03*
X100699000Y-96483000D03*
X100199000Y-96483000D03*
X99699000Y-96483000D03*
X99199000Y-96483000D03*
X98699000Y-96483000D03*
X98199000Y-96483000D03*
D54*
X99949000Y-98933000D03*
D55*
X100449000Y-97633000D03*
X99449000Y-97633000D03*
X98649000Y-98433000D03*
X98649000Y-99433000D03*
X99449000Y-100233000D03*
X100449000Y-100233000D03*
X101249000Y-99433000D03*
X101249000Y-98433000D03*
D56*
X99949000Y-98933000D03*
D57*
X99060000Y-115189000D03*
D58*
X99060000Y-112649000D03*
X101600000Y-115189000D03*
X101600000Y-112649000D03*
X104140000Y-115189000D03*
X104140000Y-112649000D03*
X106680000Y-115189000D03*
X106680000Y-112649000D03*
X109220000Y-115189000D03*
X109220000Y-112649000D03*
D59*
X141351000Y-120904000D03*
D60*
X141351000Y-118491000D03*
X141351000Y-123317000D03*
X139700000Y-119253000D03*
X143002000Y-119253000D03*
X139700000Y-122682000D03*
X143002000Y-122555000D03*
X143764000Y-120904000D03*
X138938000Y-120904000D03*
X70612000Y-120904000D03*
X75438000Y-120904000D03*
X74676000Y-122555000D03*
X71374000Y-122682000D03*
X74676000Y-119253000D03*
X71374000Y-119253000D03*
X73025000Y-123317000D03*
X73025000Y-118491000D03*
D59*
X73025000Y-120904000D03*
D61*
X126111000Y-120142000D03*
X126111000Y-122682000D03*
X123571000Y-120142000D03*
X123571000Y-122682000D03*
X121031000Y-120142000D03*
X121031000Y-122682000D03*
X118491000Y-120142000D03*
X118491000Y-122682000D03*
X115951000Y-120142000D03*
X115951000Y-122682000D03*
X105791000Y-120142000D03*
X105791000Y-122682000D03*
X103251000Y-120142000D03*
X103251000Y-122682000D03*
X108331000Y-122682000D03*
X108331000Y-120142000D03*
X110871000Y-120142000D03*
X110871000Y-122682000D03*
X113411000Y-122682000D03*
X113411000Y-120142000D03*
X88011000Y-120142000D03*
X88011000Y-122682000D03*
X85471000Y-122682000D03*
X85471000Y-120142000D03*
X82931000Y-120142000D03*
X82931000Y-122682000D03*
D62*
X77851000Y-122682000D03*
D61*
X77851000Y-120142000D03*
X80391000Y-122682000D03*
X80391000Y-120142000D03*
X90551000Y-122682000D03*
X90551000Y-120142000D03*
X93091000Y-122682000D03*
X93091000Y-120142000D03*
X95631000Y-122682000D03*
X95631000Y-120142000D03*
X98171000Y-122682000D03*
X98171000Y-120142000D03*
X100711000Y-122682000D03*
X100711000Y-120142000D03*
D63*
X72327000Y-113705000D03*
X72327000Y-112605000D03*
X72327000Y-111505000D03*
X72327000Y-110405000D03*
X72327000Y-109305000D03*
X72327000Y-108205000D03*
X72327000Y-107105000D03*
X72327000Y-106005000D03*
D64*
X70607000Y-116675000D03*
X82407000Y-115585000D03*
X82407000Y-104315000D03*
X70607000Y-104315000D03*
D65*
X81577000Y-106945000D03*
X81577000Y-113005000D03*
D27*
X85090000Y-113792000D03*
X83312000Y-113792000D03*
D24*
X71120000Y-97155000D03*
X79248000Y-97155000D03*
X79248000Y-101727000D03*
X71120000Y-101727000D03*
D66*
X92075000Y-85852000D03*
X92075000Y-82296000D03*
X92075000Y-81280000D03*
X92075000Y-77724000D03*
D39*
X131000500Y-121793000D03*
X131000500Y-123317000D03*
X128206500Y-123317000D03*
X128206500Y-121793000D03*
X129603500Y-123317000D03*
X129603500Y-121793000D03*
D67*
X76962000Y-117729000D03*
X133985000Y-120396000D03*
X136525000Y-68961000D03*
M02*
