M48
;DRILL file {KiCad no-vcs-found-undefined} date Wed Nov  9 17:16:12 2016
;FORMAT={-:-/ absolute / inch / decimal}
FMAT,2
INCH,TZ
T1C0.012
T2C0.012
T3C0.020
T4C0.024
T5C0.035
T6C0.039
T7C0.043
T8C0.047
T9C0.051
T10C0.071
T11C0.126
T12C0.130
%
G90
G05
M72
T1
X3.9547Y-3.9462
T2
X2.84Y-3.085
X2.845Y-3.035
X2.9415Y-2.9986
X3.02Y-3.0914
X3.025Y-3.6
X3.035Y-3.385
X3.035Y-3.575
X3.045Y-3.0914
X3.0541Y-4.5359
X3.06Y-3.57
X3.07Y-3.395
X3.0754Y-4.5282
X3.11Y-4.295
X3.11Y-4.515
X3.115Y-3.54
X3.1197Y-3.5702
X3.14Y-3.59
X3.145Y-4.525
X3.2Y-3.555
X3.235Y-3.56
X3.2486Y-4.335
X3.2586Y-3.897
X3.26Y-3.56
X3.26Y-3.795
X3.26Y-3.82
X3.26Y-3.845
X3.26Y-3.87
X3.26Y-3.77
X3.2667Y-4.3064
X3.31Y-4.39
X3.335Y-3.685
X3.3464Y-3.825
X3.35Y-3.46
X3.355Y-3.865
X3.3645Y-3.953
X3.37Y-3.975
X3.37Y-4.
X3.38Y-3.435
X3.4016Y-3.5584
X3.405Y-3.48
X3.405Y-3.69
X3.43Y-3.54
X3.44Y-3.41
X3.455Y-3.57
X3.455Y-3.34
X3.55Y-3.19
X3.555Y-3.035
X3.595Y-3.865
X3.675Y-2.865
X3.79Y-3.865
X3.805Y-3.845
X3.87Y-4.045
X3.8838Y-3.8753
X3.8838Y-3.9147
X3.9153Y-3.8438
X3.9153Y-3.9462
X3.92Y-4.045
X3.9547Y-3.8438
X3.9862Y-3.8753
X3.9862Y-3.9147
X4.005Y-4.04
X4.03Y-4.695
X4.04Y-4.075
X4.0416Y-3.7884
X4.055Y-4.01
X4.065Y-4.045
X4.07Y-4.075
X4.07Y-4.1
X4.085Y-3.865
X4.1055Y-3.843
X4.135Y-3.845
X4.155Y-4.215
X4.16Y-3.965
X4.245Y-4.075
X4.245Y-4.105
X4.35Y-2.95
X4.485Y-4.02
X4.5048Y-4.0064
X4.792Y-4.024
X4.9228Y-4.6968
X5.04Y-4.55
X5.095Y-4.565
X5.125Y-4.57
T3
X3.8Y-3.8
X3.95Y-4.0477
X3.975Y-3.74
X5.Y-4.46
T4
X2.78Y-4.76
X2.79Y-3.74
X2.81Y-4.695
X2.81Y-4.83
X2.845Y-2.935
X2.845Y-2.985
X2.845Y-3.185
X2.845Y-3.235
X2.86Y-3.735
X2.875Y-4.665
X2.875Y-4.855
X2.895Y-3.95
X2.895Y-4.26
X2.9248Y-3.59
X2.94Y-4.695
X2.94Y-4.825
X2.9498Y-3.285
X2.97Y-4.76
X2.975Y-3.335
X3.0685Y-3.147
X3.0685Y-3.235
X3.0685Y-3.332
X3.0698Y-3.825
X3.0698Y-4.005
X3.1595Y-3.147
X3.1595Y-3.332
X3.1648Y-4.21
X3.1648Y-4.445
X3.2525Y-3.147
X3.2525Y-3.235
X3.2525Y-3.332
X3.3Y-3.15
X3.34Y-2.935
X3.35Y-4.4
X3.385Y-4.555
X3.42Y-4.175
X3.44Y-4.515
X3.445Y-3.945
X3.495Y-3.845
X3.55Y-3.285
X3.55Y-3.59
X3.58Y-3.
X3.6Y-3.945
X3.64Y-2.67
X3.645Y-3.42
X3.645Y-3.49
X3.655Y-2.72
X3.66Y-4.16
X3.685Y-3.09
X3.7Y-4.05
X3.705Y-4.38
X3.735Y-3.525
X3.745Y-3.785
X3.79Y-4.3
X3.81Y-4.2
X3.845Y-3.555
X3.905Y-4.2
X3.935Y-3.555
X3.955Y-4.205
X3.995Y-4.3
X4.005Y-3.555
X4.04Y-4.2
X4.145Y-3.555
X4.18Y-3.705
X4.215Y-3.555
X4.28Y-4.115
X4.285Y-3.555
X4.285Y-3.74
X4.365Y-3.3
X4.39Y-3.81
X4.39Y-3.865
X4.425Y-3.11
X4.4253Y-2.7897
X4.445Y-3.695
X4.4525Y-3.455
X4.495Y-4.415
X4.5Y-3.9598
X4.5Y-4.19
X4.545Y-4.485
X4.55Y-4.085
X4.58Y-3.89
X4.58Y-4.485
X4.6Y-3.945
X4.6Y-3.98
X4.6Y-4.015
X4.615Y-4.485
X4.635Y-3.945
X4.635Y-3.98
X4.635Y-4.015
X4.67Y-3.945
X4.67Y-3.98
X4.71Y-4.325
X4.75Y-4.605
X4.8Y-4.67
X4.8378Y-4.5429
X4.89Y-4.55
X4.91Y-4.04
X4.965Y-3.955
X5.47Y-4.76
X5.5Y-4.695
X5.5Y-4.83
X5.565Y-4.665
X5.565Y-4.855
X5.63Y-4.695
X5.63Y-4.825
X5.66Y-4.76
T5
X3.8754Y-3.4488
X3.9254Y-3.3488
X3.9754Y-3.4488
X4.0254Y-3.3488
X4.0754Y-3.4488
X4.1254Y-3.3488
X4.1754Y-3.4488
X4.2254Y-3.3488
X4.835Y-4.085
X4.835Y-4.185
X5.2703Y-4.6309
X5.3495Y-4.6308
T6
X3.065Y-4.73
X3.065Y-4.83
X3.1595Y-3.24
X3.165Y-4.73
X3.165Y-4.83
X3.265Y-4.73
X3.265Y-4.83
X3.365Y-4.73
X3.365Y-4.83
X3.465Y-4.73
X3.465Y-4.83
X3.565Y-4.73
X3.565Y-4.83
X3.665Y-4.73
X3.665Y-4.83
X3.765Y-4.73
X3.765Y-4.83
X3.865Y-4.73
X3.865Y-4.83
X3.965Y-4.73
X3.965Y-4.83
X4.065Y-4.73
X4.065Y-4.83
X4.165Y-4.73
X4.165Y-4.83
X4.265Y-4.73
X4.265Y-4.83
X4.365Y-4.73
X4.365Y-4.83
X4.465Y-4.73
X4.465Y-4.83
X4.565Y-4.73
X4.565Y-4.83
X4.665Y-4.73
X4.665Y-4.83
X4.765Y-4.73
X4.765Y-4.83
X4.865Y-4.73
X4.865Y-4.83
X4.965Y-4.73
X4.965Y-4.83
T7
X3.7898Y-2.8981
X3.8898Y-2.8981
X3.9Y-4.435
X3.9Y-4.535
X4.Y-4.435
X4.Y-4.535
X4.1Y-4.435
X4.1Y-4.535
X4.2Y-4.435
X4.2Y-4.535
X4.2102Y-2.8981
X4.3Y-4.435
X4.3Y-4.535
X4.3102Y-2.8981
T8
X3.935Y-3.895
T9
X4.6132Y-2.96
X4.6132Y-3.6
X4.692Y-2.7238
X4.692Y-3.1962
X4.692Y-3.3638
X4.692Y-3.8362
X5.1644Y-2.7238
X5.1644Y-3.1962
X5.1644Y-3.3638
X5.1644Y-3.8362
X5.52Y-4.2766
X5.52Y-4.4734
X5.5315Y-3.0226
X5.5315Y-3.2194
X5.5315Y-3.4163
X5.5315Y-3.6131
X5.5315Y-3.81
X5.5315Y-4.0069
T10
X3.7429Y-3.2051
X4.3571Y-3.2051
T11
X3.825Y-3.085
X4.275Y-3.085
T12
X2.875Y-4.76
X5.565Y-4.76
T6
X5.155Y-4.4311G85X5.155Y-4.313
G05
X5.344Y-4.1968G85X5.2259Y-4.1968
G05
X5.4109Y-4.4311G85X5.4109Y-4.313
G05
T0
M30
