G04 #@! TF.FileFunction,Copper,L4,Bot,Signal*
%FSLAX46Y46*%
G04 Gerber Fmt 4.6, Leading zero omitted, Abs format (unit mm)*
G04 Created by KiCad (PCBNEW no-vcs-found-undefined) date Wed Nov  9 17:15:18 2016*
%MOMM*%
%LPD*%
G01*
G04 APERTURE LIST*
%ADD10C,0.100000*%
%ADD11C,3.200000*%
%ADD12C,1.650000*%
%ADD13C,2.700000*%
%ADD14C,1.410000*%
%ADD15R,0.406400X0.508000*%
%ADD16R,1.600200X1.168400*%
%ADD17R,1.168400X1.600200*%
%ADD18C,1.300000*%
%ADD19C,2.000000*%
%ADD20R,1.400000X1.400000*%
%ADD21C,1.400000*%
%ADD22C,1.524000*%
%ADD23R,1.524000X1.524000*%
%ADD24C,3.048000*%
%ADD25R,3.048000X3.048000*%
%ADD26O,1.500000X4.500000*%
%ADD27O,4.500000X1.500000*%
%ADD28C,2.540000*%
%ADD29R,1.422400X1.422400*%
%ADD30R,0.400000X0.400000*%
%ADD31R,1.700000X1.700000*%
%ADD32C,1.700000*%
%ADD33C,6.300000*%
%ADD34C,1.200000*%
%ADD35C,1.778000*%
%ADD36R,1.778000X1.778000*%
%ADD37C,1.000000*%
%ADD38C,0.900000*%
%ADD39C,0.750000*%
%ADD40C,0.450000*%
%ADD41C,0.254000*%
%ADD42C,1.270000*%
%ADD43C,0.127000*%
%ADD44C,1.016000*%
%ADD45C,0.508000*%
%ADD46C,1.778000*%
%ADD47C,0.762000*%
G04 APERTURE END LIST*
D10*
D11*
X97155000Y-78359000D03*
X108585000Y-78359000D03*
D12*
X106940000Y-73610500D03*
X96260000Y-73610500D03*
D13*
X95070000Y-81409000D03*
X110670000Y-81409000D03*
D12*
X109480000Y-73610500D03*
X98800000Y-73610500D03*
D14*
X98435000Y-87599000D03*
X99705000Y-85059000D03*
X100975000Y-87599000D03*
X102245000Y-85059000D03*
X103515000Y-87599000D03*
X104785000Y-85059000D03*
X106055000Y-87599000D03*
X107325000Y-85059000D03*
D15*
X126111000Y-117729000D03*
D16*
X126111000Y-118491000D03*
X126111000Y-116967000D03*
X126111000Y-116967000D03*
D15*
X115570000Y-105664000D03*
D16*
X115570000Y-104902000D03*
X115570000Y-106426000D03*
X115570000Y-106426000D03*
D17*
X108839000Y-96393000D03*
X110363000Y-96393000D03*
X110363000Y-96393000D03*
D18*
X77939900Y-84632800D03*
D19*
X80251300Y-82296000D03*
D18*
X82613500Y-84632800D03*
X77939900Y-79933800D03*
X82613500Y-79933800D03*
X80251300Y-79933800D03*
X80251300Y-84632800D03*
X77939900Y-82169000D03*
X82613500Y-82169000D03*
D20*
X133865620Y-117624860D03*
D21*
X135877300Y-117622320D03*
D22*
X122809000Y-103759000D03*
D23*
X122809000Y-106299000D03*
D24*
X140500000Y-91774000D03*
D25*
X140500000Y-101774000D03*
D24*
X140500000Y-96774000D03*
X140500000Y-81774000D03*
D25*
X140500000Y-86774000D03*
D24*
X140500000Y-76774000D03*
D26*
X130937000Y-111049000D03*
X137437000Y-111049000D03*
D27*
X134237000Y-106599000D03*
D24*
X140208000Y-108625000D03*
D25*
X140208000Y-113625000D03*
D28*
X119176000Y-97440000D03*
X119176000Y-85440000D03*
X131176000Y-85440000D03*
X131176000Y-97440000D03*
X117176000Y-91440000D03*
X117176000Y-75184000D03*
X131176000Y-81184000D03*
X131176000Y-69184000D03*
X119176000Y-69184000D03*
X119176000Y-81184000D03*
D29*
X99949000Y-98933000D03*
D30*
X100449000Y-97633000D03*
X99449000Y-97633000D03*
X98649000Y-98433000D03*
X98649000Y-99433000D03*
X99449000Y-100233000D03*
X100449000Y-100233000D03*
X101249000Y-99433000D03*
X101249000Y-98433000D03*
D31*
X99060000Y-115189000D03*
D32*
X99060000Y-112649000D03*
X101600000Y-115189000D03*
X101600000Y-112649000D03*
X104140000Y-115189000D03*
X104140000Y-112649000D03*
X106680000Y-115189000D03*
X106680000Y-112649000D03*
X109220000Y-115189000D03*
X109220000Y-112649000D03*
D33*
X141351000Y-120904000D03*
D34*
X141351000Y-118491000D03*
X141351000Y-123317000D03*
X139700000Y-119253000D03*
X143002000Y-119253000D03*
X139700000Y-122682000D03*
X143002000Y-122555000D03*
X143764000Y-120904000D03*
X138938000Y-120904000D03*
X70612000Y-120904000D03*
X75438000Y-120904000D03*
X74676000Y-122555000D03*
X71374000Y-122682000D03*
X74676000Y-119253000D03*
X71374000Y-119253000D03*
X73025000Y-123317000D03*
X73025000Y-118491000D03*
D33*
X73025000Y-120904000D03*
D35*
X126111000Y-120142000D03*
X126111000Y-122682000D03*
X123571000Y-120142000D03*
X123571000Y-122682000D03*
X121031000Y-120142000D03*
X121031000Y-122682000D03*
X118491000Y-120142000D03*
X118491000Y-122682000D03*
X115951000Y-120142000D03*
X115951000Y-122682000D03*
X105791000Y-120142000D03*
X105791000Y-122682000D03*
X103251000Y-120142000D03*
X103251000Y-122682000D03*
X108331000Y-122682000D03*
X108331000Y-120142000D03*
X110871000Y-120142000D03*
X110871000Y-122682000D03*
X113411000Y-122682000D03*
X113411000Y-120142000D03*
X88011000Y-120142000D03*
X88011000Y-122682000D03*
X85471000Y-122682000D03*
X85471000Y-120142000D03*
X82931000Y-120142000D03*
X82931000Y-122682000D03*
D36*
X77851000Y-122682000D03*
D35*
X77851000Y-120142000D03*
X80391000Y-122682000D03*
X80391000Y-120142000D03*
X90551000Y-122682000D03*
X90551000Y-120142000D03*
X93091000Y-122682000D03*
X93091000Y-120142000D03*
X95631000Y-122682000D03*
X95631000Y-120142000D03*
X98171000Y-122682000D03*
X98171000Y-120142000D03*
X100711000Y-122682000D03*
X100711000Y-120142000D03*
D37*
X76962000Y-117729000D03*
X133985000Y-120396000D03*
X136525000Y-68961000D03*
D38*
X112403409Y-70857591D03*
X119634000Y-109855000D03*
X114299861Y-100578808D03*
X112902994Y-93853000D03*
X112395000Y-78994000D03*
D39*
X127000000Y-113284000D03*
D38*
X114300002Y-106426000D03*
X110871000Y-83820000D03*
X93599000Y-78486000D03*
X83820000Y-80010006D03*
X92583000Y-86868000D03*
X80385490Y-106934000D03*
X80385490Y-112903000D03*
X87376004Y-114681000D03*
D40*
X125039170Y-119298974D03*
D38*
X95123000Y-96139000D03*
X117729000Y-101092000D03*
X116840000Y-101092000D03*
X118618000Y-101092000D03*
X118618000Y-100203000D03*
X116840000Y-100203000D03*
X117729000Y-100203000D03*
X117729000Y-101981000D03*
X116840000Y-101981000D03*
X115570000Y-103759000D03*
X114173000Y-112141000D03*
X84836000Y-74549000D03*
X111506000Y-96774000D03*
X74289490Y-91186000D03*
X88773000Y-97663000D03*
X73533000Y-100330000D03*
X94107000Y-111252000D03*
X96774000Y-106680000D03*
X91440000Y-100203000D03*
D40*
X102655806Y-96226186D03*
D38*
X100457000Y-106807000D03*
X72263000Y-74549000D03*
X73533000Y-108204000D03*
X92836984Y-69088000D03*
X106172000Y-94107000D03*
X93980000Y-102870000D03*
X120650000Y-116967000D03*
X124206000Y-115570000D03*
X124714000Y-102616024D03*
X77972479Y-97155000D03*
X72263000Y-80899000D03*
X77972479Y-101727000D03*
X72263000Y-82169000D03*
X121920000Y-118618000D03*
X126111000Y-100457000D03*
X122879164Y-115388650D03*
D40*
X105537000Y-107061000D03*
D38*
X92583000Y-88646000D03*
X85979000Y-115697000D03*
X115443000Y-113919000D03*
X116332000Y-113919000D03*
X117221000Y-113919000D03*
X87503000Y-100203000D03*
X86868000Y-106045000D03*
D39*
X100330000Y-102812490D03*
D38*
X85090000Y-111760000D03*
X96266000Y-109220000D03*
X92964000Y-105663996D03*
X99187000Y-106680000D03*
X111506000Y-98171000D03*
X108712000Y-104521000D03*
X72644000Y-94869000D03*
X72263000Y-75819000D03*
X102616000Y-106680000D03*
X108839000Y-94996000D03*
X113093500Y-87757000D03*
X116332000Y-98806000D03*
X92456000Y-67818000D03*
D40*
X77573295Y-115212675D03*
D38*
X101473000Y-109220000D03*
D40*
X77343000Y-78520510D03*
D38*
X70866000Y-94996000D03*
D40*
X72263000Y-77089000D03*
X74713148Y-76165490D03*
X72136000Y-78359000D03*
X107823000Y-103505000D03*
X103251000Y-102743000D03*
X86487000Y-88391998D03*
X99568000Y-102743000D03*
X103758994Y-98171000D03*
D38*
X90170000Y-83439000D03*
D40*
X107823000Y-104267000D03*
X103378000Y-103505000D03*
X85852000Y-87249000D03*
X98298000Y-102743000D03*
X85090000Y-87884000D03*
X93345000Y-72771000D03*
D38*
X75565000Y-84709000D03*
D40*
X110490000Y-74930000D03*
D38*
X74924490Y-83438625D03*
D40*
X84073994Y-111506000D03*
X82769424Y-98984784D03*
X76835000Y-91440000D03*
X82975206Y-109382414D03*
X82515500Y-110109000D03*
X78115940Y-115016515D03*
X77089000Y-85979000D03*
X87122008Y-89916000D03*
X85598000Y-100965000D03*
X102997000Y-101854000D03*
X105664000Y-100711000D03*
X87756990Y-90678000D03*
X87376000Y-86614000D03*
X77978000Y-86233000D03*
D38*
X90170000Y-91186000D03*
D40*
X76708000Y-78520510D03*
X85458054Y-100405216D03*
X102616000Y-103505000D03*
X86487004Y-93726000D03*
X78994000Y-114681000D03*
X78994000Y-109093000D03*
X77089000Y-90805000D03*
X82804000Y-98298000D03*
X79883000Y-114935000D03*
X77724000Y-90678000D03*
X82804000Y-97663000D03*
X79239905Y-90682047D03*
X82804000Y-97028000D03*
X79756000Y-91186000D03*
X82804000Y-96393000D03*
X82804006Y-95758000D03*
X79121000Y-89916000D03*
X103378000Y-104140000D03*
X84709000Y-93599000D03*
X91313000Y-98171000D03*
X82169000Y-90424000D03*
X84997510Y-97155000D03*
X85217000Y-98171000D03*
X81280000Y-90297000D03*
X85598000Y-101600000D03*
X86399810Y-90384190D03*
X101726994Y-102616000D03*
X87756996Y-84836000D03*
X82804000Y-90424002D03*
X114422416Y-101761510D03*
X129412994Y-115951000D03*
X113919000Y-102107994D03*
X128016000Y-115569990D03*
X121716800Y-102209600D03*
X130175000Y-116077994D03*
D38*
X90932000Y-76200000D03*
X97663000Y-90297000D03*
D39*
X96519992Y-96520000D03*
X100965002Y-94996000D03*
D38*
X108839000Y-90297000D03*
X107061000Y-90297000D03*
X105283000Y-90297000D03*
X101727000Y-90297000D03*
X99949000Y-90297000D03*
X94869000Y-89535000D03*
D40*
X90297000Y-77089010D03*
X102362008Y-119253000D03*
X104280786Y-97611427D03*
X90170016Y-81026000D03*
X105029000Y-97663008D03*
X96266000Y-98171000D03*
X96647000Y-97663000D03*
D41*
X126111000Y-116967000D02*
X126111000Y-117729000D01*
X126111000Y-116967000D02*
X126111000Y-118491000D01*
D42*
X126111000Y-120142000D02*
X126111000Y-118491000D01*
X127000000Y-113284000D02*
X126365000Y-113284000D01*
X126111000Y-113538000D02*
X126111000Y-116967000D01*
X126365000Y-113284000D02*
X126111000Y-113538000D01*
X126111000Y-120142000D02*
X126111000Y-122682000D01*
D43*
X115570000Y-105664000D02*
X115570000Y-106426000D01*
D44*
X115570000Y-106426000D02*
X114300000Y-106426000D01*
X114300000Y-106426000D02*
X114300002Y-106426000D01*
D41*
X101062000Y-97633000D02*
X101249000Y-97820000D01*
X101249000Y-97820000D02*
X101249000Y-98433000D01*
X100449000Y-97633000D02*
X101062000Y-97633000D01*
D45*
X115570000Y-103759000D02*
X115570000Y-104902000D01*
D42*
X110869604Y-96774000D02*
X111506000Y-96774000D01*
X110744000Y-96774000D02*
X110869604Y-96774000D01*
X110363000Y-96393000D02*
X110744000Y-96774000D01*
D43*
X112394967Y-96432867D02*
X112394967Y-117983033D01*
X110047361Y-70993033D02*
X111124956Y-72070628D01*
X112141000Y-118237000D02*
X112141000Y-121412000D01*
X110235956Y-94273856D02*
X112394967Y-96432867D01*
X111124956Y-74931872D02*
X110682317Y-75374511D01*
X72263000Y-80899000D02*
X75819000Y-77343000D01*
X93217967Y-70993033D02*
X110047361Y-70993033D01*
X110682317Y-75374511D02*
X106935814Y-75374511D01*
X75819000Y-77343000D02*
X86868000Y-77343000D01*
X86868000Y-77343000D02*
X93217967Y-70993033D01*
X112394967Y-117983033D02*
X112141000Y-118237000D01*
X106935814Y-75374511D02*
X105663978Y-76646347D01*
X111124956Y-72070628D02*
X111124956Y-74931872D01*
X110235956Y-85470956D02*
X110235956Y-94273856D01*
X105663978Y-80898978D02*
X110235956Y-85470956D01*
X105663978Y-76646347D02*
X105663978Y-80898978D01*
X77522480Y-96705001D02*
X77972479Y-97155000D01*
X73787000Y-86868000D02*
X75184000Y-88265000D01*
X75184000Y-94366521D02*
X77522480Y-96705001D01*
X73787000Y-82423000D02*
X73787000Y-86868000D01*
X75184000Y-88265000D02*
X75184000Y-94366521D01*
X72263000Y-80899000D02*
X73787000Y-82423000D01*
D44*
X113411000Y-122682000D02*
X112141000Y-121412000D01*
D43*
X112648978Y-117982978D02*
X113411000Y-118745000D01*
X107041028Y-75628522D02*
X105917989Y-76751561D01*
X110489967Y-94168642D02*
X112648978Y-96327653D01*
X105917989Y-80771989D02*
X110489967Y-85343967D01*
X110489967Y-85343967D02*
X110489967Y-94168642D01*
X111378967Y-75037085D02*
X110787530Y-75628522D01*
X111378967Y-71965415D02*
X111378967Y-75037085D01*
X86868000Y-76962000D02*
X93090978Y-70739022D01*
X105917989Y-76751561D02*
X105917989Y-80771989D01*
X71247000Y-80391000D02*
X74676000Y-76962000D01*
X71247000Y-81153000D02*
X71247000Y-80391000D01*
X72263000Y-82169000D02*
X71247000Y-81153000D01*
X112648978Y-96327653D02*
X112648978Y-117982978D01*
X110787530Y-75628522D02*
X107041028Y-75628522D01*
X110152574Y-70739022D02*
X111378967Y-71965415D01*
X74676000Y-76962000D02*
X86868000Y-76962000D01*
X93090978Y-70739022D02*
X110152574Y-70739022D01*
X72263000Y-82169000D02*
X71813001Y-82618999D01*
X77522480Y-101277001D02*
X77972479Y-101727000D01*
X71813001Y-82618999D02*
X71813001Y-95567522D01*
X71813001Y-95567522D02*
X77522480Y-101277001D01*
D44*
X113411000Y-120142000D02*
X113411000Y-118745000D01*
X121920000Y-116347814D02*
X121920000Y-117981604D01*
X122879164Y-115388650D02*
X121920000Y-116347814D01*
X121920000Y-117981604D02*
X121920000Y-118618000D01*
X122809000Y-103759000D02*
X122809000Y-101092000D01*
X123444000Y-100457000D02*
X126111000Y-100457000D01*
X123444000Y-100457000D02*
X122809000Y-101092000D01*
D43*
X97409000Y-112204500D02*
X98806000Y-110807500D01*
X98806000Y-110807500D02*
X101790500Y-110807500D01*
X97917000Y-114173000D02*
X97409000Y-113665000D01*
X101790500Y-110807500D02*
X105537000Y-107061000D01*
X97409000Y-113665000D02*
X97409000Y-112204500D01*
D44*
X98933000Y-115189000D02*
X97917000Y-114173000D01*
X99060000Y-115189000D02*
X98933000Y-115189000D01*
D42*
X123571000Y-122682000D02*
X123571000Y-120142000D01*
D44*
X108839000Y-96393000D02*
X108839000Y-94996000D01*
D46*
X131176000Y-85440000D02*
X137510000Y-91774000D01*
X137510000Y-91774000D02*
X140500000Y-91774000D01*
X131176000Y-97440000D02*
X132238000Y-97440000D01*
X132238000Y-97440000D02*
X136572000Y-101774000D01*
X136572000Y-101774000D02*
X140500000Y-101774000D01*
X117176000Y-91440000D02*
X131826000Y-91440000D01*
X131826000Y-91440000D02*
X137160000Y-96774000D01*
X137160000Y-96774000D02*
X140500000Y-96774000D01*
X117176000Y-75184000D02*
X132715000Y-75184000D01*
X132715000Y-75184000D02*
X139305000Y-81774000D01*
X139305000Y-81774000D02*
X140500000Y-81774000D01*
X131176000Y-81184000D02*
X132746000Y-81184000D01*
X132746000Y-81184000D02*
X138336000Y-86774000D01*
X138336000Y-86774000D02*
X140500000Y-86774000D01*
X131176000Y-69184000D02*
X132910000Y-69184000D01*
X132910000Y-69184000D02*
X140500000Y-76774000D01*
D43*
X113093500Y-87757000D02*
X111950500Y-88900000D01*
X111950500Y-88900000D02*
X111950500Y-94107000D01*
X111950500Y-94107000D02*
X113728500Y-95885000D01*
X113728500Y-95885000D02*
X113728500Y-96202500D01*
X113728500Y-96202500D02*
X116332000Y-98806000D01*
D47*
X118110000Y-68118000D02*
X117810000Y-67818000D01*
X117810000Y-67818000D02*
X92456000Y-67818000D01*
D42*
X119176000Y-69184000D02*
X118110000Y-68118000D01*
X118110000Y-68118000D02*
X118191000Y-68199000D01*
D43*
X77343000Y-78520510D02*
X76581000Y-79282510D01*
X76581000Y-79282510D02*
X76581000Y-87503000D01*
X76581000Y-87503000D02*
X75692020Y-88391980D01*
X75692020Y-88391980D02*
X75692020Y-93408520D01*
X78930500Y-96647000D02*
X78930500Y-102679500D01*
X75692020Y-93408520D02*
X78930500Y-96647000D01*
X77573295Y-114894477D02*
X77573295Y-115212675D01*
X78930500Y-102679500D02*
X77573295Y-104036705D01*
X77573295Y-104036705D02*
X77573295Y-114894477D01*
X72263000Y-77089000D02*
X73660000Y-75692000D01*
X112903000Y-83439000D02*
X111252000Y-85090000D01*
X73660000Y-75692000D02*
X86994989Y-75692000D01*
X86994989Y-75692000D02*
X92710000Y-69976989D01*
X110616989Y-69976989D02*
X112204511Y-71564511D01*
X92710000Y-69976989D02*
X110616989Y-69976989D01*
X111125000Y-76517500D02*
X111125000Y-79121000D01*
X111125000Y-79121000D02*
X112903000Y-80899000D01*
X112903000Y-80899000D02*
X112903000Y-83439000D01*
X112204511Y-71564511D02*
X112204511Y-75437989D01*
X112204511Y-75437989D02*
X111125000Y-76517500D01*
X111252000Y-85090000D02*
X111252000Y-93853000D01*
X117221000Y-118618000D02*
X117221000Y-121412000D01*
X111252000Y-93853000D02*
X113411011Y-96012011D01*
X113411011Y-96012011D02*
X113411011Y-114808011D01*
X113411011Y-114808011D02*
X117221000Y-118618000D01*
X72263000Y-77089000D02*
X70866000Y-78486000D01*
X70866000Y-78486000D02*
X70866000Y-94996000D01*
D44*
X118491000Y-122682000D02*
X117221000Y-121412000D01*
D43*
X110426500Y-70231000D02*
X92837000Y-70231000D01*
X74713148Y-76165490D02*
X86902510Y-76165490D01*
X86902510Y-76165490D02*
X92837000Y-70231000D01*
X115951000Y-118745000D02*
X113157000Y-115951000D01*
X113157000Y-96117225D02*
X110997989Y-93958214D01*
X106426011Y-76961989D02*
X107251456Y-76136544D01*
X110997989Y-85089989D02*
X106426011Y-80518011D01*
X113157000Y-115951000D02*
X113157000Y-96117225D01*
X110997989Y-93958214D02*
X110997989Y-85089989D01*
X111061456Y-76136544D02*
X111950500Y-75247500D01*
X111950500Y-75247500D02*
X111950500Y-71755000D01*
X106426011Y-80518011D02*
X106426011Y-76961989D01*
X107251456Y-76136544D02*
X111061456Y-76136544D01*
X111950500Y-71755000D02*
X110426500Y-70231000D01*
D44*
X115951000Y-120142000D02*
X115951000Y-118745000D01*
D43*
X110257787Y-70485011D02*
X111632978Y-71860202D01*
X110743978Y-85216978D02*
X110743978Y-94063428D01*
X106172000Y-80645000D02*
X110743978Y-85216978D01*
X112902989Y-116839989D02*
X114681000Y-118618000D01*
X110892743Y-75882533D02*
X107146242Y-75882533D01*
X92963989Y-70485011D02*
X110257787Y-70485011D01*
X86868000Y-76581000D02*
X92963989Y-70485011D01*
X73914000Y-76581000D02*
X86868000Y-76581000D01*
X72136000Y-78359000D02*
X73914000Y-76581000D01*
X106172000Y-76856775D02*
X106172000Y-80645000D01*
X111632978Y-75142298D02*
X110892743Y-75882533D01*
X111632978Y-71860202D02*
X111632978Y-75142298D01*
X112902989Y-96222439D02*
X112902989Y-116839989D01*
X114681000Y-118618000D02*
X114681000Y-121412000D01*
X110743978Y-94063428D02*
X112902989Y-96222439D01*
X107146242Y-75882533D02*
X106172000Y-76856775D01*
D44*
X115951000Y-122682000D02*
X114681000Y-121412000D01*
D43*
X99568000Y-102743000D02*
X99568000Y-103187500D01*
X99758500Y-103378000D02*
X101600000Y-103378000D01*
X99568000Y-103187500D02*
X99758500Y-103378000D01*
X101600000Y-103378000D02*
X102235000Y-102743000D01*
X102235000Y-102743000D02*
X103251000Y-102743000D01*
X105791000Y-118364000D02*
X105410000Y-117983000D01*
X105410000Y-117983000D02*
X105410000Y-110341225D01*
X105410000Y-110341225D02*
X107217001Y-108534224D01*
X107217001Y-108534224D02*
X107217001Y-104110999D01*
X107217001Y-104110999D02*
X107823000Y-103505000D01*
X99152499Y-102327499D02*
X97755499Y-102327499D01*
X85881001Y-90453001D02*
X85881001Y-88997997D01*
X99568000Y-102743000D02*
X99152499Y-102327499D01*
X86262001Y-88616997D02*
X86487000Y-88391998D01*
X97755499Y-102327499D02*
X85881001Y-90453001D01*
X85881001Y-88997997D02*
X86262001Y-88616997D01*
D44*
X105791000Y-120142000D02*
X105791000Y-118364000D01*
X105791000Y-118364000D02*
X105791000Y-118745000D01*
D43*
X98425000Y-96393000D02*
X101662796Y-96393000D01*
X90170000Y-83439000D02*
X91186000Y-84455000D01*
X103440796Y-98171000D02*
X103759000Y-98171000D01*
X91186000Y-84455000D02*
X91186000Y-84709000D01*
X91186000Y-84709000D02*
X91059000Y-84836000D01*
X91059000Y-84836000D02*
X90424000Y-84836000D01*
X90424000Y-85344000D02*
X91059000Y-85344000D01*
X90424000Y-84836000D02*
X90297000Y-84963000D01*
X90424000Y-87884000D02*
X90297000Y-88011000D01*
X91186000Y-87503000D02*
X91186000Y-87757000D01*
X91059000Y-86868000D02*
X90424000Y-86868000D01*
X90297000Y-84963000D02*
X90297000Y-85217000D01*
X91059000Y-86360000D02*
X91186000Y-86487000D01*
X90297000Y-85217000D02*
X90424000Y-85344000D01*
X91186000Y-85471000D02*
X91186000Y-85725000D01*
X90297000Y-88011000D02*
X90297000Y-88265000D01*
X90424000Y-86360000D02*
X91059000Y-86360000D01*
X91059000Y-85344000D02*
X91186000Y-85471000D01*
X90297000Y-87249000D02*
X90424000Y-87376000D01*
X91186000Y-85725000D02*
X91059000Y-85852000D01*
X90424000Y-86868000D02*
X90297000Y-86995000D01*
X91059000Y-85852000D02*
X90424000Y-85852000D01*
X91186000Y-86487000D02*
X91186000Y-86741000D01*
X90424000Y-85852000D02*
X90297000Y-85979000D01*
X90297000Y-85979000D02*
X90297000Y-86233000D01*
X90297000Y-86233000D02*
X90424000Y-86360000D01*
X91186000Y-86741000D02*
X91059000Y-86868000D01*
X90297000Y-86995000D02*
X90297000Y-87249000D01*
X91186000Y-87757000D02*
X91059000Y-87884000D01*
X90424000Y-87376000D02*
X91059000Y-87376000D01*
X91059000Y-87376000D02*
X91186000Y-87503000D01*
X91059000Y-87884000D02*
X90424000Y-87884000D01*
X90297000Y-88265000D02*
X98425000Y-96393000D01*
X101662796Y-96393000D02*
X103440796Y-98171000D01*
X99949000Y-119380000D02*
X96901000Y-116332000D01*
X96901000Y-116332000D02*
X96901000Y-112353275D01*
X96901000Y-112353275D02*
X98700786Y-110553489D01*
X98700786Y-110553489D02*
X101409511Y-110553489D01*
X101409511Y-110553489D02*
X106108500Y-105854500D01*
X104521000Y-98171000D02*
X103759000Y-98171000D01*
X106108500Y-105854500D02*
X106108500Y-99758500D01*
X106108500Y-99758500D02*
X104521000Y-98171000D01*
D44*
X100711000Y-120142000D02*
X99949000Y-119380000D01*
D43*
X103759000Y-98171000D02*
X103758994Y-98171000D01*
X98298000Y-102743000D02*
X99314000Y-103759000D01*
X99314000Y-103759000D02*
X101600000Y-103759000D01*
X101600000Y-103759000D02*
X102298500Y-103060500D01*
X102298500Y-103060500D02*
X102933500Y-103060500D01*
X102933500Y-103060500D02*
X103378000Y-103505000D01*
X85534500Y-90551000D02*
X85534500Y-88709500D01*
X85534500Y-88709500D02*
X85852000Y-88392000D01*
X98298000Y-102743000D02*
X97726500Y-102743000D01*
X97726500Y-102743000D02*
X85534500Y-90551000D01*
X85852000Y-88392000D02*
X85852000Y-87249000D01*
X109601000Y-121412000D02*
X109601000Y-117983000D01*
X109601000Y-117983000D02*
X107950000Y-116332000D01*
X107950000Y-116332000D02*
X107950000Y-104394000D01*
X107950000Y-104394000D02*
X107823000Y-104267000D01*
D44*
X108331000Y-122682000D02*
X109601000Y-121412000D01*
D43*
X104140000Y-111252000D02*
X106934022Y-108457978D01*
X109836935Y-71501055D02*
X95376945Y-71501055D01*
X106934022Y-99208805D02*
X106934000Y-99208783D01*
X106934022Y-108457978D02*
X106934022Y-99208805D01*
X109684558Y-75120500D02*
X110616934Y-74188124D01*
X106934000Y-99208783D02*
X106934000Y-95758000D01*
X109981945Y-92710055D02*
X109981945Y-85597945D01*
X106934000Y-95758000D02*
X109981945Y-92710055D01*
X109981945Y-85597945D02*
X105409967Y-81025967D01*
X85090000Y-87565802D02*
X85090000Y-87884000D01*
X105409967Y-81025967D02*
X105409967Y-76454033D01*
X110616934Y-72281054D02*
X109836935Y-71501055D01*
X105409967Y-76454033D02*
X106743500Y-75120500D01*
X106743500Y-75120500D02*
X109684558Y-75120500D01*
X93599000Y-73279000D02*
X92075000Y-73279000D01*
X110616934Y-74188124D02*
X110616934Y-72281054D01*
X95376945Y-71501055D02*
X93599000Y-73279000D01*
X92075000Y-73279000D02*
X88265000Y-77089000D01*
X88265000Y-77089000D02*
X88265000Y-83629500D01*
X88265000Y-83629500D02*
X85090000Y-86804500D01*
X85090000Y-86804500D02*
X85090000Y-87565802D01*
D44*
X104140000Y-112649000D02*
X104140000Y-111252000D01*
D43*
X75565000Y-84709000D02*
X75565000Y-78994000D01*
X76454000Y-78105000D02*
X86868000Y-78105000D01*
X75565000Y-78994000D02*
X76454000Y-78105000D01*
X86868000Y-78105000D02*
X92202000Y-72771000D01*
X92202000Y-72771000D02*
X93345000Y-72771000D01*
X74924490Y-83438625D02*
X74924490Y-78999510D01*
X110870945Y-74549055D02*
X110714999Y-74705001D01*
X109942148Y-71247044D02*
X110870945Y-72175841D01*
X76199978Y-77724022D02*
X86867978Y-77724022D01*
X93344956Y-71247044D02*
X109942148Y-71247044D01*
X110870945Y-72175841D02*
X110870945Y-74549055D01*
X86867978Y-77724022D02*
X93344956Y-71247044D01*
X110714999Y-74705001D02*
X110490000Y-74930000D01*
X74924490Y-78999510D02*
X76199978Y-77724022D01*
X84073994Y-111506000D02*
X84073994Y-116204994D01*
X84073994Y-116204994D02*
X86614000Y-118745000D01*
X86614000Y-118745000D02*
X87884000Y-118745000D01*
X87884000Y-118745000D02*
X88011000Y-118872000D01*
D44*
X88011000Y-120142000D02*
X88011000Y-118872000D01*
D43*
X82544425Y-98759785D02*
X82769424Y-98984784D01*
X76835000Y-91440000D02*
X76835000Y-93050360D01*
X76835000Y-93050360D02*
X82544425Y-98759785D01*
X82975206Y-109700612D02*
X82975206Y-109382414D01*
X82975206Y-115487206D02*
X82975206Y-109700612D01*
X86741000Y-121412000D02*
X86741000Y-119253000D01*
X86741000Y-119253000D02*
X82975206Y-115487206D01*
D44*
X88011000Y-122682000D02*
X86741000Y-121412000D01*
D43*
X82515500Y-110109000D02*
X82515500Y-116170500D01*
X82515500Y-116170500D02*
X85471000Y-119126000D01*
D44*
X85471000Y-120142000D02*
X85471000Y-119126000D01*
D43*
X77089000Y-85979000D02*
X77089000Y-87354224D01*
X77089000Y-87354224D02*
X75946030Y-88497194D01*
X75946030Y-88497194D02*
X75946030Y-93218030D01*
X75946030Y-93218030D02*
X79248000Y-96520000D01*
X79248000Y-96520000D02*
X79248000Y-102806500D01*
X79248000Y-102806500D02*
X77890941Y-104163559D01*
X77890941Y-104163559D02*
X77890941Y-114791516D01*
X77890941Y-114791516D02*
X78115940Y-115016515D01*
X87122008Y-90234198D02*
X87122008Y-89916000D01*
X87122008Y-90741508D02*
X87122008Y-90234198D01*
X98009501Y-101629001D02*
X87122008Y-90741508D01*
X102997000Y-101854000D02*
X102772001Y-101629001D01*
X102772001Y-101629001D02*
X98009501Y-101629001D01*
X84201000Y-121412000D02*
X84201000Y-118872000D01*
X84201000Y-118872000D02*
X82042000Y-116713000D01*
X82042000Y-116713000D02*
X82042000Y-104521000D01*
X82042000Y-104521000D02*
X85373001Y-101189999D01*
X85373001Y-101189999D02*
X85598000Y-100965000D01*
D44*
X84201000Y-121412000D02*
X82931000Y-122682000D01*
D43*
X79121000Y-121412000D02*
X79121000Y-115406631D01*
X78232000Y-114517631D02*
X78232000Y-104267000D01*
X79121000Y-115406631D02*
X78232000Y-114517631D01*
X78232000Y-104267000D02*
X79629000Y-102870000D01*
X79629000Y-102870000D02*
X79629000Y-96393000D01*
X79629000Y-96393000D02*
X76327000Y-93091000D01*
X76327000Y-93091000D02*
X76327000Y-88773000D01*
X76327000Y-88773000D02*
X77978000Y-87122000D01*
X77978000Y-87122000D02*
X77978000Y-86551198D01*
X77978000Y-86551198D02*
X77978000Y-86233000D01*
X105664000Y-100711000D02*
X105664000Y-99695000D01*
X105664000Y-99695000D02*
X104555501Y-98586501D01*
X104555501Y-98586501D02*
X103221303Y-98586501D01*
X103221303Y-98586501D02*
X101345302Y-96710500D01*
X98361500Y-96710500D02*
X92837000Y-91186000D01*
X101345302Y-96710500D02*
X98361500Y-96710500D01*
X92837000Y-91186000D02*
X90170000Y-91186000D01*
X87756990Y-90359802D02*
X87756990Y-90678000D01*
X87756990Y-86994990D02*
X87756990Y-90359802D01*
X87376000Y-86614000D02*
X87756990Y-86994990D01*
D44*
X77851000Y-122682000D02*
X79121000Y-121412000D01*
D43*
X78486000Y-119126000D02*
X78740000Y-118872000D01*
X78612989Y-96773989D02*
X75438010Y-93599010D01*
X78740000Y-118872000D02*
X78740000Y-116967000D01*
X78740000Y-116967000D02*
X77019988Y-115246988D01*
X78612989Y-102489011D02*
X78612989Y-96773989D01*
X77019988Y-115246988D02*
X77019988Y-104082012D01*
X77019988Y-104082012D02*
X78612989Y-102489011D01*
X75438010Y-93599010D02*
X75438010Y-88264990D01*
X75438010Y-88264990D02*
X76229001Y-87473999D01*
X76229001Y-87473999D02*
X76229001Y-78999509D01*
X76229001Y-78999509D02*
X76483001Y-78745509D01*
X76483001Y-78745509D02*
X76708000Y-78520510D01*
D47*
X77851000Y-120142000D02*
X77851000Y-119761000D01*
X77851000Y-119761000D02*
X78486000Y-119126000D01*
X78486000Y-119126000D02*
X78359000Y-119253000D01*
D43*
X86487004Y-93726000D02*
X88265000Y-93726000D01*
X98615500Y-104076500D02*
X102044500Y-104076500D01*
X88265000Y-93726000D02*
X98615500Y-104076500D01*
X102044500Y-104076500D02*
X102391001Y-103729999D01*
X102391001Y-103729999D02*
X102616000Y-103505000D01*
X81661000Y-121412000D02*
X81661000Y-119380000D01*
X81661000Y-119380000D02*
X81280000Y-118999000D01*
X81280000Y-118999000D02*
X81280000Y-104583270D01*
X81280000Y-104583270D02*
X85233055Y-100630215D01*
X85233055Y-100630215D02*
X85458054Y-100405216D01*
D44*
X80391000Y-122682000D02*
X81661000Y-121412000D01*
D43*
X78994000Y-109093000D02*
X78994000Y-114681000D01*
X78994000Y-109093000D02*
X78994000Y-105410000D01*
X78994000Y-105410000D02*
X83185000Y-101219000D01*
X83185000Y-101219000D02*
X83185000Y-98679000D01*
X83185000Y-98679000D02*
X82804000Y-98298000D01*
X77343000Y-91059000D02*
X77313999Y-91029999D01*
X77343000Y-92837000D02*
X77343000Y-91059000D01*
X82804000Y-98298000D02*
X77343000Y-92837000D01*
X77313999Y-91029999D02*
X77089000Y-90805000D01*
X82804000Y-97663000D02*
X83566000Y-98425000D01*
X83566000Y-101346000D02*
X83566000Y-98425000D01*
X79629000Y-105283000D02*
X83566000Y-101346000D01*
X79629000Y-114681000D02*
X79629000Y-105283000D01*
X79629000Y-114681000D02*
X79883000Y-114935000D01*
X82579001Y-97438001D02*
X77724000Y-92583000D01*
X77724000Y-92583000D02*
X77724000Y-90996198D01*
X77724000Y-90996198D02*
X77724000Y-90678000D01*
X81915000Y-96774000D02*
X82579001Y-97438001D01*
X82579001Y-97438001D02*
X82804000Y-97663000D01*
X79239905Y-93463905D02*
X79239905Y-91000245D01*
X79239905Y-91000245D02*
X79239905Y-90682047D01*
X82579001Y-96803001D02*
X79239905Y-93463905D01*
X82169000Y-96393000D02*
X82579001Y-96803001D01*
X82579001Y-96803001D02*
X82804000Y-97028000D01*
X79756000Y-91504198D02*
X79756000Y-91186000D01*
X79756000Y-93345000D02*
X79756000Y-91504198D01*
X82804000Y-96393000D02*
X79756000Y-93345000D01*
X80264000Y-91059000D02*
X79345999Y-90140999D01*
X82804006Y-95758000D02*
X80264000Y-93217994D01*
X80264000Y-93217994D02*
X80264000Y-91059000D01*
X79345999Y-90140999D02*
X79121000Y-89916000D01*
X84709000Y-93599000D02*
X85344000Y-94234000D01*
X85344000Y-94234000D02*
X88392000Y-94234000D01*
X98552000Y-104394000D02*
X103124000Y-104394000D01*
X88392000Y-94234000D02*
X98552000Y-104394000D01*
X103124000Y-104394000D02*
X103378000Y-104140000D01*
X84997510Y-97155000D02*
X83883500Y-96040990D01*
X83883500Y-96040990D02*
X83883500Y-95186500D01*
X83883500Y-95186500D02*
X82169000Y-93472000D01*
X82169000Y-93472000D02*
X82169000Y-90742198D01*
X82169000Y-90742198D02*
X82169000Y-90424000D01*
X91313000Y-98171000D02*
X87757000Y-94615000D01*
X87757000Y-94615000D02*
X84836000Y-94615000D01*
X84836000Y-94615000D02*
X83566000Y-93345000D01*
X83566000Y-93345000D02*
X83566000Y-90297000D01*
X83566000Y-90297000D02*
X83058000Y-89789000D01*
X83058000Y-89789000D02*
X82550000Y-89789000D01*
X82550000Y-89789000D02*
X82169000Y-90170000D01*
X82169000Y-90170000D02*
X82169000Y-90424000D01*
X81280000Y-90297000D02*
X81885999Y-90902999D01*
X83439000Y-96393000D02*
X84992001Y-97946001D01*
X81885999Y-90902999D02*
X81885999Y-93569999D01*
X81885999Y-93569999D02*
X83439000Y-95123000D01*
X83439000Y-95123000D02*
X83439000Y-96393000D01*
X84992001Y-97946001D02*
X85217000Y-98171000D01*
X101726994Y-102616000D02*
X101091994Y-101981000D01*
X101091994Y-101981000D02*
X97853500Y-101981000D01*
X97853500Y-101981000D02*
X86423500Y-90551000D01*
X86423500Y-90551000D02*
X86423500Y-90407880D01*
X86423500Y-90407880D02*
X86399810Y-90384190D01*
X85598000Y-101600000D02*
X86394501Y-100803499D01*
X86394501Y-100803499D02*
X86394501Y-97316501D01*
X86394501Y-97316501D02*
X82804000Y-93726000D01*
X82804000Y-93726000D02*
X82804000Y-90742200D01*
X82804000Y-90742200D02*
X82804000Y-90424002D01*
X86399810Y-89495176D02*
X86399810Y-90065992D01*
X86399810Y-90065992D02*
X86399810Y-90384190D01*
X86902502Y-88992484D02*
X86399810Y-89495176D01*
X87756996Y-84836000D02*
X86902502Y-85690494D01*
X86902502Y-85690494D02*
X86902502Y-88992484D01*
X114422416Y-102166916D02*
X114422416Y-101761510D01*
X120967500Y-109664500D02*
X117602000Y-106299000D01*
X115443000Y-102362000D02*
X114617500Y-102362000D01*
X129412994Y-115951000D02*
X129412994Y-112902994D01*
X114617500Y-102362000D02*
X114422416Y-102166916D01*
X117602000Y-106299000D02*
X117602000Y-104521000D01*
X129412994Y-112902994D02*
X126174500Y-109664500D01*
X126174500Y-109664500D02*
X120967500Y-109664500D01*
X117602000Y-104521000D02*
X115443000Y-102362000D01*
X115337787Y-102616011D02*
X114427017Y-102616011D01*
X117347989Y-104626213D02*
X115337787Y-102616011D01*
X120925775Y-109982000D02*
X117347989Y-106404214D01*
X128016000Y-115569990D02*
X128905000Y-114680990D01*
X114427017Y-102616011D02*
X114143999Y-102332993D01*
X117347989Y-106404214D02*
X117347989Y-104626213D01*
X114143999Y-102332993D02*
X113919000Y-102107994D01*
X128905000Y-112776000D02*
X126111000Y-109982000D01*
X128905000Y-114680990D02*
X128905000Y-112776000D01*
X126111000Y-109982000D02*
X120925775Y-109982000D01*
X126238000Y-109347000D02*
X122682000Y-109347000D01*
X130175000Y-116077994D02*
X130175000Y-113284000D01*
X121716800Y-108381800D02*
X121716800Y-102527798D01*
X122682000Y-109347000D02*
X121716800Y-108381800D01*
X121716800Y-102527798D02*
X121716800Y-102209600D01*
X130175000Y-113284000D02*
X126238000Y-109347000D01*
X104280786Y-97611427D02*
X103389927Y-97611427D01*
X103389927Y-97611427D02*
X101854000Y-96075500D01*
X91503500Y-88836500D02*
X91503500Y-83629500D01*
X101854000Y-96075500D02*
X98742500Y-96075500D01*
X98742500Y-96075500D02*
X91503500Y-88836500D01*
X91503500Y-83629500D02*
X89662000Y-81788000D01*
X89662000Y-81788000D02*
X89662000Y-77724010D01*
X89662000Y-77724010D02*
X90072001Y-77314009D01*
X90072001Y-77314009D02*
X90297000Y-77089010D01*
X104280786Y-97611427D02*
X104342427Y-97611427D01*
X106426000Y-99695000D02*
X106426000Y-107188000D01*
X104342427Y-97611427D02*
X106426000Y-99695000D01*
X106426000Y-107188000D02*
X102489000Y-111125000D01*
X102489000Y-111125000D02*
X100965020Y-111125000D01*
X100965020Y-111125000D02*
X100457010Y-111633010D01*
X100457010Y-117348002D02*
X102137009Y-119028001D01*
X100457010Y-111633010D02*
X100457010Y-117348002D01*
X102137009Y-119028001D02*
X102362008Y-119253000D01*
X100457010Y-111633010D02*
X100457000Y-111633000D01*
X104267000Y-121666000D02*
X104521000Y-121412000D01*
X104521000Y-121412000D02*
X104521000Y-119253000D01*
X104521000Y-119253000D02*
X102870000Y-117602000D01*
X102870000Y-117602000D02*
X102870000Y-111315500D01*
X105253999Y-97888007D02*
X105029000Y-97663008D01*
X102870000Y-111315500D02*
X106680011Y-107505489D01*
X106680011Y-107505489D02*
X106680011Y-99314019D01*
X106680011Y-99314019D02*
X105253999Y-97888007D01*
X90395015Y-81250999D02*
X90170016Y-81026000D01*
X93315999Y-90140999D02*
X93315999Y-84171983D01*
X93315999Y-84171983D02*
X90395015Y-81250999D01*
X98933000Y-95758000D02*
X93315999Y-90140999D01*
X105029000Y-97663008D02*
X103123992Y-95758000D01*
X103123992Y-95758000D02*
X98933000Y-95758000D01*
D44*
X103251000Y-122682000D02*
X104267000Y-121666000D01*
D43*
X109474000Y-72390000D02*
X108839065Y-71755065D01*
X108839065Y-71755065D02*
X95503935Y-71755065D01*
X95503935Y-71755065D02*
X93662500Y-73596500D01*
X93662500Y-73596500D02*
X92138500Y-73596500D01*
X92138500Y-73596500D02*
X88646000Y-77089000D01*
X88646000Y-77089000D02*
X88646000Y-91440000D01*
X88646000Y-91440000D02*
X95377000Y-98171000D01*
X95377000Y-98171000D02*
X96266000Y-98171000D01*
D42*
X109480000Y-73610500D02*
X109474000Y-73604500D01*
X109474000Y-73604500D02*
X109474000Y-72390000D01*
X109474000Y-72390000D02*
X109474000Y-72390000D01*
D44*
X95250000Y-74620500D02*
X96260000Y-73610500D01*
D43*
X96647000Y-97663000D02*
X95504000Y-97663000D01*
X89154000Y-91313000D02*
X89154000Y-76962000D01*
X95504000Y-97663000D02*
X89154000Y-91313000D01*
X89154000Y-76962000D02*
X91495500Y-74620500D01*
X91495500Y-74620500D02*
X95250000Y-74620500D01*
D41*
G36*
X128397000Y-101906606D02*
X128397000Y-103378000D01*
X128406667Y-103426601D01*
X128434197Y-103467803D01*
X130593197Y-105626803D01*
X130634399Y-105654333D01*
X130683000Y-105664000D01*
X131660867Y-105664000D01*
X131478811Y-106020048D01*
X131569497Y-106224000D01*
X133729000Y-106224000D01*
X133729000Y-106071000D01*
X134745000Y-106071000D01*
X134745000Y-106224000D01*
X136904503Y-106224000D01*
X136927624Y-106172000D01*
X144088000Y-106172000D01*
X144088000Y-118753384D01*
X143962791Y-118716474D01*
X143426264Y-119253000D01*
X143573342Y-119400078D01*
X143275922Y-119697498D01*
X143234586Y-119656162D01*
X143107742Y-119783006D01*
X143002000Y-119677264D01*
X142465474Y-120213791D01*
X142525882Y-120418711D01*
X142550030Y-120423390D01*
X142069420Y-120904000D01*
X142083563Y-120918143D01*
X141365143Y-121636563D01*
X141351000Y-121622420D01*
X141336858Y-121636563D01*
X140618438Y-120918143D01*
X140632580Y-120904000D01*
X140152074Y-120423494D01*
X140176118Y-120418711D01*
X140236526Y-120213791D01*
X139700000Y-119677264D01*
X139594258Y-119783006D01*
X139467414Y-119656162D01*
X139426078Y-119697498D01*
X139128658Y-119400078D01*
X139275736Y-119253000D01*
X138739209Y-118716474D01*
X138534289Y-118776882D01*
X138529610Y-118801030D01*
X138399984Y-118671404D01*
X137957452Y-119066366D01*
X137512539Y-120504902D01*
X137651996Y-122004197D01*
X137957452Y-122741634D01*
X138399982Y-123136595D01*
X138264715Y-123271862D01*
X138563853Y-123571000D01*
X127197830Y-123571000D01*
X127294629Y-123474370D01*
X127507757Y-122961100D01*
X127508242Y-122405339D01*
X127296010Y-121891697D01*
X127254000Y-121849614D01*
X127254000Y-120974928D01*
X127294629Y-120934370D01*
X127383070Y-120721379D01*
X132341716Y-120721379D01*
X132591320Y-121325469D01*
X133053100Y-121788055D01*
X133656753Y-122038714D01*
X134310379Y-122039284D01*
X134914469Y-121789680D01*
X135377055Y-121327900D01*
X135627714Y-120724247D01*
X135628284Y-120070621D01*
X135378680Y-119466531D01*
X134916900Y-119003945D01*
X134528849Y-118842812D01*
X134565620Y-118842812D01*
X134763832Y-118803385D01*
X134931867Y-118691107D01*
X134969028Y-118635492D01*
X135275790Y-118942254D01*
X135370915Y-118847129D01*
X135387292Y-118892214D01*
X135910559Y-118983068D01*
X136367308Y-118892214D01*
X136443224Y-118683218D01*
X135877300Y-118117295D01*
X135751435Y-118243160D01*
X135256460Y-117748185D01*
X135382325Y-117622320D01*
X136372275Y-117622320D01*
X136938198Y-118188244D01*
X137147194Y-118112328D01*
X137174860Y-117952984D01*
X139118404Y-117952984D01*
X139247926Y-118082506D01*
X139223882Y-118087289D01*
X139163474Y-118292209D01*
X139700000Y-118828736D01*
X139847078Y-118681658D01*
X140144498Y-118979078D01*
X140103162Y-119020414D01*
X140230006Y-119147258D01*
X140124264Y-119253000D01*
X140660791Y-119789526D01*
X140865711Y-119729118D01*
X140870390Y-119704970D01*
X141351000Y-120185580D01*
X141831506Y-119705074D01*
X141836289Y-119729118D01*
X142041209Y-119789526D01*
X142577736Y-119253000D01*
X142471994Y-119147258D01*
X142598838Y-119020414D01*
X142557502Y-118979078D01*
X142854922Y-118681658D01*
X143002000Y-118828736D01*
X143538526Y-118292209D01*
X143478118Y-118087289D01*
X143453970Y-118082610D01*
X143583596Y-117952984D01*
X143188634Y-117510452D01*
X141750098Y-117065539D01*
X140250803Y-117204996D01*
X139513366Y-117510452D01*
X139118404Y-117952984D01*
X137174860Y-117952984D01*
X137238048Y-117589061D01*
X137147194Y-117132312D01*
X136938198Y-117056396D01*
X136372275Y-117622320D01*
X135382325Y-117622320D01*
X135256460Y-117496455D01*
X135751435Y-117001480D01*
X135877300Y-117127345D01*
X136443224Y-116561422D01*
X136367308Y-116352426D01*
X135844041Y-116261572D01*
X135387292Y-116352426D01*
X135370915Y-116397511D01*
X135275790Y-116302386D01*
X134966993Y-116611183D01*
X134931867Y-116558613D01*
X134763832Y-116446335D01*
X134565620Y-116406908D01*
X133165620Y-116406908D01*
X132967408Y-116446335D01*
X132799373Y-116558613D01*
X132687095Y-116726648D01*
X132647668Y-116924860D01*
X132647668Y-118324860D01*
X132687095Y-118523072D01*
X132799373Y-118691107D01*
X132967408Y-118803385D01*
X133165620Y-118842812D01*
X133441571Y-118842812D01*
X133055531Y-119002320D01*
X132592945Y-119464100D01*
X132342286Y-120067753D01*
X132341716Y-120721379D01*
X127383070Y-120721379D01*
X127507757Y-120421100D01*
X127508242Y-119865339D01*
X127311793Y-119389895D01*
X127389625Y-119273412D01*
X127429052Y-119075200D01*
X127429052Y-117906800D01*
X127393685Y-117729000D01*
X127429052Y-117551200D01*
X127429052Y-116382800D01*
X127389625Y-116184588D01*
X127277347Y-116016553D01*
X127254000Y-116000953D01*
X127254000Y-114376476D01*
X127437407Y-114339994D01*
X127808223Y-114092223D01*
X128055994Y-113721407D01*
X128143000Y-113284000D01*
X128055994Y-112846593D01*
X127831721Y-112510944D01*
X128333500Y-113012723D01*
X128333500Y-114444267D01*
X127940842Y-114836924D01*
X127870837Y-114836863D01*
X127601331Y-114948221D01*
X127394955Y-115154237D01*
X127283128Y-115423548D01*
X127282873Y-115715153D01*
X127394231Y-115984659D01*
X127600247Y-116191035D01*
X127869558Y-116302862D01*
X128161163Y-116303117D01*
X128430669Y-116191759D01*
X128637045Y-115985743D01*
X128680054Y-115882165D01*
X128679867Y-116096163D01*
X128791225Y-116365669D01*
X128997241Y-116572045D01*
X129266552Y-116683872D01*
X129558157Y-116684127D01*
X129689985Y-116629656D01*
X129759247Y-116699039D01*
X130028558Y-116810866D01*
X130320163Y-116811121D01*
X130589669Y-116699763D01*
X130796045Y-116493747D01*
X130907872Y-116224436D01*
X130908127Y-115932831D01*
X130796769Y-115663325D01*
X130746500Y-115612968D01*
X130746500Y-113823139D01*
X130937000Y-113861032D01*
X131418416Y-113765272D01*
X131826540Y-113492572D01*
X132099240Y-113084448D01*
X132195000Y-112603032D01*
X132195000Y-111557000D01*
X136052000Y-111557000D01*
X136052000Y-113057000D01*
X136351830Y-113548347D01*
X136858048Y-113807189D01*
X137062000Y-113716503D01*
X137062000Y-111557000D01*
X137812000Y-111557000D01*
X137812000Y-113716503D01*
X138015952Y-113807189D01*
X138166048Y-113730441D01*
X138166048Y-115149000D01*
X138205475Y-115347212D01*
X138317753Y-115515247D01*
X138485788Y-115627525D01*
X138684000Y-115666952D01*
X141732000Y-115666952D01*
X141930212Y-115627525D01*
X142098247Y-115515247D01*
X142210525Y-115347212D01*
X142249952Y-115149000D01*
X142249952Y-112101000D01*
X142210525Y-111902788D01*
X142098247Y-111734753D01*
X141930212Y-111622475D01*
X141732000Y-111583048D01*
X138822000Y-111583048D01*
X138822000Y-111557000D01*
X137812000Y-111557000D01*
X137062000Y-111557000D01*
X136052000Y-111557000D01*
X132195000Y-111557000D01*
X132195000Y-109494968D01*
X132104700Y-109041000D01*
X136052000Y-109041000D01*
X136052000Y-110541000D01*
X137062000Y-110541000D01*
X137062000Y-108381497D01*
X137812000Y-108381497D01*
X137812000Y-110541000D01*
X138822000Y-110541000D01*
X138822000Y-110348585D01*
X139012419Y-110539004D01*
X139168295Y-110383128D01*
X139360016Y-110656411D01*
X140201951Y-110826288D01*
X141044809Y-110661040D01*
X141055984Y-110656411D01*
X141247706Y-110383127D01*
X140208000Y-109343420D01*
X140193858Y-109357563D01*
X139475437Y-108639142D01*
X139489580Y-108625000D01*
X140926420Y-108625000D01*
X141966127Y-109664706D01*
X142239411Y-109472984D01*
X142409288Y-108631049D01*
X142244040Y-107788191D01*
X142239411Y-107777016D01*
X141966127Y-107585294D01*
X140926420Y-108625000D01*
X139489580Y-108625000D01*
X138449873Y-107585294D01*
X138176589Y-107777016D01*
X138067593Y-108317216D01*
X138015952Y-108290811D01*
X137812000Y-108381497D01*
X137062000Y-108381497D01*
X136858048Y-108290811D01*
X136351830Y-108549653D01*
X136052000Y-109041000D01*
X132104700Y-109041000D01*
X132099240Y-109013552D01*
X131826540Y-108605428D01*
X131418416Y-108332728D01*
X130937000Y-108236968D01*
X130455584Y-108332728D01*
X130047460Y-108605428D01*
X129774760Y-109013552D01*
X129679000Y-109494968D01*
X129679000Y-111979777D01*
X126642112Y-108942888D01*
X126635299Y-108938336D01*
X126456704Y-108819003D01*
X126416038Y-108810914D01*
X126238000Y-108775499D01*
X126237995Y-108775500D01*
X122918723Y-108775500D01*
X122288300Y-108145076D01*
X122288300Y-107676950D01*
X122428000Y-107537250D01*
X122428000Y-106680000D01*
X123190000Y-106680000D01*
X123190000Y-107537250D01*
X123348750Y-107696000D01*
X123697310Y-107696000D01*
X123930699Y-107599327D01*
X124109327Y-107420698D01*
X124206000Y-107187309D01*
X124206000Y-107177952D01*
X131478811Y-107177952D01*
X131737653Y-107684170D01*
X132229000Y-107984000D01*
X133729000Y-107984000D01*
X133729000Y-106974000D01*
X134745000Y-106974000D01*
X134745000Y-107984000D01*
X136245000Y-107984000D01*
X136736347Y-107684170D01*
X136995189Y-107177952D01*
X136904503Y-106974000D01*
X134745000Y-106974000D01*
X133729000Y-106974000D01*
X131569497Y-106974000D01*
X131478811Y-107177952D01*
X124206000Y-107177952D01*
X124206000Y-106866873D01*
X139168294Y-106866873D01*
X140208000Y-107906580D01*
X141247706Y-106866873D01*
X141055984Y-106593589D01*
X140214049Y-106423712D01*
X139371191Y-106588960D01*
X139360016Y-106593589D01*
X139168294Y-106866873D01*
X124206000Y-106866873D01*
X124206000Y-106838750D01*
X124047250Y-106680000D01*
X123190000Y-106680000D01*
X122428000Y-106680000D01*
X122288300Y-106680000D01*
X122288300Y-105918000D01*
X122428000Y-105918000D01*
X122428000Y-105771000D01*
X123190000Y-105771000D01*
X123190000Y-105918000D01*
X124047250Y-105918000D01*
X124206000Y-105759250D01*
X124206000Y-105410691D01*
X124109327Y-105177302D01*
X123930699Y-104998673D01*
X123697310Y-104902000D01*
X123368407Y-104902000D01*
X123527458Y-104836282D01*
X123885026Y-104479337D01*
X124078779Y-104012727D01*
X124079220Y-103507490D01*
X123958415Y-103215119D01*
X124170628Y-103427703D01*
X124522606Y-103573857D01*
X124903722Y-103574190D01*
X125255954Y-103428650D01*
X125525679Y-103159396D01*
X125671833Y-102807418D01*
X125672166Y-102426302D01*
X125526626Y-102074070D01*
X125257372Y-101804345D01*
X124905394Y-101658191D01*
X124524278Y-101657858D01*
X124172046Y-101803398D01*
X123902321Y-102072652D01*
X123825000Y-102258862D01*
X123825000Y-101512840D01*
X123864841Y-101473000D01*
X126111000Y-101473000D01*
X126499806Y-101395662D01*
X126829420Y-101175420D01*
X127049662Y-100845806D01*
X127097202Y-100606808D01*
X128397000Y-101906606D01*
X128397000Y-101906606D01*
G37*
X128397000Y-101906606D02*
X128397000Y-103378000D01*
X128406667Y-103426601D01*
X128434197Y-103467803D01*
X130593197Y-105626803D01*
X130634399Y-105654333D01*
X130683000Y-105664000D01*
X131660867Y-105664000D01*
X131478811Y-106020048D01*
X131569497Y-106224000D01*
X133729000Y-106224000D01*
X133729000Y-106071000D01*
X134745000Y-106071000D01*
X134745000Y-106224000D01*
X136904503Y-106224000D01*
X136927624Y-106172000D01*
X144088000Y-106172000D01*
X144088000Y-118753384D01*
X143962791Y-118716474D01*
X143426264Y-119253000D01*
X143573342Y-119400078D01*
X143275922Y-119697498D01*
X143234586Y-119656162D01*
X143107742Y-119783006D01*
X143002000Y-119677264D01*
X142465474Y-120213791D01*
X142525882Y-120418711D01*
X142550030Y-120423390D01*
X142069420Y-120904000D01*
X142083563Y-120918143D01*
X141365143Y-121636563D01*
X141351000Y-121622420D01*
X141336858Y-121636563D01*
X140618438Y-120918143D01*
X140632580Y-120904000D01*
X140152074Y-120423494D01*
X140176118Y-120418711D01*
X140236526Y-120213791D01*
X139700000Y-119677264D01*
X139594258Y-119783006D01*
X139467414Y-119656162D01*
X139426078Y-119697498D01*
X139128658Y-119400078D01*
X139275736Y-119253000D01*
X138739209Y-118716474D01*
X138534289Y-118776882D01*
X138529610Y-118801030D01*
X138399984Y-118671404D01*
X137957452Y-119066366D01*
X137512539Y-120504902D01*
X137651996Y-122004197D01*
X137957452Y-122741634D01*
X138399982Y-123136595D01*
X138264715Y-123271862D01*
X138563853Y-123571000D01*
X127197830Y-123571000D01*
X127294629Y-123474370D01*
X127507757Y-122961100D01*
X127508242Y-122405339D01*
X127296010Y-121891697D01*
X127254000Y-121849614D01*
X127254000Y-120974928D01*
X127294629Y-120934370D01*
X127383070Y-120721379D01*
X132341716Y-120721379D01*
X132591320Y-121325469D01*
X133053100Y-121788055D01*
X133656753Y-122038714D01*
X134310379Y-122039284D01*
X134914469Y-121789680D01*
X135377055Y-121327900D01*
X135627714Y-120724247D01*
X135628284Y-120070621D01*
X135378680Y-119466531D01*
X134916900Y-119003945D01*
X134528849Y-118842812D01*
X134565620Y-118842812D01*
X134763832Y-118803385D01*
X134931867Y-118691107D01*
X134969028Y-118635492D01*
X135275790Y-118942254D01*
X135370915Y-118847129D01*
X135387292Y-118892214D01*
X135910559Y-118983068D01*
X136367308Y-118892214D01*
X136443224Y-118683218D01*
X135877300Y-118117295D01*
X135751435Y-118243160D01*
X135256460Y-117748185D01*
X135382325Y-117622320D01*
X136372275Y-117622320D01*
X136938198Y-118188244D01*
X137147194Y-118112328D01*
X137174860Y-117952984D01*
X139118404Y-117952984D01*
X139247926Y-118082506D01*
X139223882Y-118087289D01*
X139163474Y-118292209D01*
X139700000Y-118828736D01*
X139847078Y-118681658D01*
X140144498Y-118979078D01*
X140103162Y-119020414D01*
X140230006Y-119147258D01*
X140124264Y-119253000D01*
X140660791Y-119789526D01*
X140865711Y-119729118D01*
X140870390Y-119704970D01*
X141351000Y-120185580D01*
X141831506Y-119705074D01*
X141836289Y-119729118D01*
X142041209Y-119789526D01*
X142577736Y-119253000D01*
X142471994Y-119147258D01*
X142598838Y-119020414D01*
X142557502Y-118979078D01*
X142854922Y-118681658D01*
X143002000Y-118828736D01*
X143538526Y-118292209D01*
X143478118Y-118087289D01*
X143453970Y-118082610D01*
X143583596Y-117952984D01*
X143188634Y-117510452D01*
X141750098Y-117065539D01*
X140250803Y-117204996D01*
X139513366Y-117510452D01*
X139118404Y-117952984D01*
X137174860Y-117952984D01*
X137238048Y-117589061D01*
X137147194Y-117132312D01*
X136938198Y-117056396D01*
X136372275Y-117622320D01*
X135382325Y-117622320D01*
X135256460Y-117496455D01*
X135751435Y-117001480D01*
X135877300Y-117127345D01*
X136443224Y-116561422D01*
X136367308Y-116352426D01*
X135844041Y-116261572D01*
X135387292Y-116352426D01*
X135370915Y-116397511D01*
X135275790Y-116302386D01*
X134966993Y-116611183D01*
X134931867Y-116558613D01*
X134763832Y-116446335D01*
X134565620Y-116406908D01*
X133165620Y-116406908D01*
X132967408Y-116446335D01*
X132799373Y-116558613D01*
X132687095Y-116726648D01*
X132647668Y-116924860D01*
X132647668Y-118324860D01*
X132687095Y-118523072D01*
X132799373Y-118691107D01*
X132967408Y-118803385D01*
X133165620Y-118842812D01*
X133441571Y-118842812D01*
X133055531Y-119002320D01*
X132592945Y-119464100D01*
X132342286Y-120067753D01*
X132341716Y-120721379D01*
X127383070Y-120721379D01*
X127507757Y-120421100D01*
X127508242Y-119865339D01*
X127311793Y-119389895D01*
X127389625Y-119273412D01*
X127429052Y-119075200D01*
X127429052Y-117906800D01*
X127393685Y-117729000D01*
X127429052Y-117551200D01*
X127429052Y-116382800D01*
X127389625Y-116184588D01*
X127277347Y-116016553D01*
X127254000Y-116000953D01*
X127254000Y-114376476D01*
X127437407Y-114339994D01*
X127808223Y-114092223D01*
X128055994Y-113721407D01*
X128143000Y-113284000D01*
X128055994Y-112846593D01*
X127831721Y-112510944D01*
X128333500Y-113012723D01*
X128333500Y-114444267D01*
X127940842Y-114836924D01*
X127870837Y-114836863D01*
X127601331Y-114948221D01*
X127394955Y-115154237D01*
X127283128Y-115423548D01*
X127282873Y-115715153D01*
X127394231Y-115984659D01*
X127600247Y-116191035D01*
X127869558Y-116302862D01*
X128161163Y-116303117D01*
X128430669Y-116191759D01*
X128637045Y-115985743D01*
X128680054Y-115882165D01*
X128679867Y-116096163D01*
X128791225Y-116365669D01*
X128997241Y-116572045D01*
X129266552Y-116683872D01*
X129558157Y-116684127D01*
X129689985Y-116629656D01*
X129759247Y-116699039D01*
X130028558Y-116810866D01*
X130320163Y-116811121D01*
X130589669Y-116699763D01*
X130796045Y-116493747D01*
X130907872Y-116224436D01*
X130908127Y-115932831D01*
X130796769Y-115663325D01*
X130746500Y-115612968D01*
X130746500Y-113823139D01*
X130937000Y-113861032D01*
X131418416Y-113765272D01*
X131826540Y-113492572D01*
X132099240Y-113084448D01*
X132195000Y-112603032D01*
X132195000Y-111557000D01*
X136052000Y-111557000D01*
X136052000Y-113057000D01*
X136351830Y-113548347D01*
X136858048Y-113807189D01*
X137062000Y-113716503D01*
X137062000Y-111557000D01*
X137812000Y-111557000D01*
X137812000Y-113716503D01*
X138015952Y-113807189D01*
X138166048Y-113730441D01*
X138166048Y-115149000D01*
X138205475Y-115347212D01*
X138317753Y-115515247D01*
X138485788Y-115627525D01*
X138684000Y-115666952D01*
X141732000Y-115666952D01*
X141930212Y-115627525D01*
X142098247Y-115515247D01*
X142210525Y-115347212D01*
X142249952Y-115149000D01*
X142249952Y-112101000D01*
X142210525Y-111902788D01*
X142098247Y-111734753D01*
X141930212Y-111622475D01*
X141732000Y-111583048D01*
X138822000Y-111583048D01*
X138822000Y-111557000D01*
X137812000Y-111557000D01*
X137062000Y-111557000D01*
X136052000Y-111557000D01*
X132195000Y-111557000D01*
X132195000Y-109494968D01*
X132104700Y-109041000D01*
X136052000Y-109041000D01*
X136052000Y-110541000D01*
X137062000Y-110541000D01*
X137062000Y-108381497D01*
X137812000Y-108381497D01*
X137812000Y-110541000D01*
X138822000Y-110541000D01*
X138822000Y-110348585D01*
X139012419Y-110539004D01*
X139168295Y-110383128D01*
X139360016Y-110656411D01*
X140201951Y-110826288D01*
X141044809Y-110661040D01*
X141055984Y-110656411D01*
X141247706Y-110383127D01*
X140208000Y-109343420D01*
X140193858Y-109357563D01*
X139475437Y-108639142D01*
X139489580Y-108625000D01*
X140926420Y-108625000D01*
X141966127Y-109664706D01*
X142239411Y-109472984D01*
X142409288Y-108631049D01*
X142244040Y-107788191D01*
X142239411Y-107777016D01*
X141966127Y-107585294D01*
X140926420Y-108625000D01*
X139489580Y-108625000D01*
X138449873Y-107585294D01*
X138176589Y-107777016D01*
X138067593Y-108317216D01*
X138015952Y-108290811D01*
X137812000Y-108381497D01*
X137062000Y-108381497D01*
X136858048Y-108290811D01*
X136351830Y-108549653D01*
X136052000Y-109041000D01*
X132104700Y-109041000D01*
X132099240Y-109013552D01*
X131826540Y-108605428D01*
X131418416Y-108332728D01*
X130937000Y-108236968D01*
X130455584Y-108332728D01*
X130047460Y-108605428D01*
X129774760Y-109013552D01*
X129679000Y-109494968D01*
X129679000Y-111979777D01*
X126642112Y-108942888D01*
X126635299Y-108938336D01*
X126456704Y-108819003D01*
X126416038Y-108810914D01*
X126238000Y-108775499D01*
X126237995Y-108775500D01*
X122918723Y-108775500D01*
X122288300Y-108145076D01*
X122288300Y-107676950D01*
X122428000Y-107537250D01*
X122428000Y-106680000D01*
X123190000Y-106680000D01*
X123190000Y-107537250D01*
X123348750Y-107696000D01*
X123697310Y-107696000D01*
X123930699Y-107599327D01*
X124109327Y-107420698D01*
X124206000Y-107187309D01*
X124206000Y-107177952D01*
X131478811Y-107177952D01*
X131737653Y-107684170D01*
X132229000Y-107984000D01*
X133729000Y-107984000D01*
X133729000Y-106974000D01*
X134745000Y-106974000D01*
X134745000Y-107984000D01*
X136245000Y-107984000D01*
X136736347Y-107684170D01*
X136995189Y-107177952D01*
X136904503Y-106974000D01*
X134745000Y-106974000D01*
X133729000Y-106974000D01*
X131569497Y-106974000D01*
X131478811Y-107177952D01*
X124206000Y-107177952D01*
X124206000Y-106866873D01*
X139168294Y-106866873D01*
X140208000Y-107906580D01*
X141247706Y-106866873D01*
X141055984Y-106593589D01*
X140214049Y-106423712D01*
X139371191Y-106588960D01*
X139360016Y-106593589D01*
X139168294Y-106866873D01*
X124206000Y-106866873D01*
X124206000Y-106838750D01*
X124047250Y-106680000D01*
X123190000Y-106680000D01*
X122428000Y-106680000D01*
X122288300Y-106680000D01*
X122288300Y-105918000D01*
X122428000Y-105918000D01*
X122428000Y-105771000D01*
X123190000Y-105771000D01*
X123190000Y-105918000D01*
X124047250Y-105918000D01*
X124206000Y-105759250D01*
X124206000Y-105410691D01*
X124109327Y-105177302D01*
X123930699Y-104998673D01*
X123697310Y-104902000D01*
X123368407Y-104902000D01*
X123527458Y-104836282D01*
X123885026Y-104479337D01*
X124078779Y-104012727D01*
X124079220Y-103507490D01*
X123958415Y-103215119D01*
X124170628Y-103427703D01*
X124522606Y-103573857D01*
X124903722Y-103574190D01*
X125255954Y-103428650D01*
X125525679Y-103159396D01*
X125671833Y-102807418D01*
X125672166Y-102426302D01*
X125526626Y-102074070D01*
X125257372Y-101804345D01*
X124905394Y-101658191D01*
X124524278Y-101657858D01*
X124172046Y-101803398D01*
X123902321Y-102072652D01*
X123825000Y-102258862D01*
X123825000Y-101512840D01*
X123864841Y-101473000D01*
X126111000Y-101473000D01*
X126499806Y-101395662D01*
X126829420Y-101175420D01*
X127049662Y-100845806D01*
X127097202Y-100606808D01*
X128397000Y-101906606D01*
G36*
X116943877Y-106808326D02*
X119152816Y-109017264D01*
X119092046Y-109042374D01*
X118822321Y-109311628D01*
X118676167Y-109663606D01*
X118675834Y-110044722D01*
X118821374Y-110396954D01*
X119090628Y-110666679D01*
X119442606Y-110812833D01*
X119823722Y-110813166D01*
X120175954Y-110667626D01*
X120445679Y-110398372D01*
X120471570Y-110336018D01*
X120521661Y-110386109D01*
X120521663Y-110386112D01*
X120707071Y-110509997D01*
X120925775Y-110553500D01*
X125874276Y-110553500D01*
X127773056Y-112452279D01*
X127437407Y-112228006D01*
X127000000Y-112141000D01*
X126365000Y-112141000D01*
X125927593Y-112228006D01*
X125556777Y-112475777D01*
X125302777Y-112729777D01*
X125055006Y-113100593D01*
X124968000Y-113538000D01*
X124968000Y-116000953D01*
X124944653Y-116016553D01*
X124832375Y-116184588D01*
X124792948Y-116382800D01*
X124792948Y-117551200D01*
X124828315Y-117729000D01*
X124792948Y-117906800D01*
X124792948Y-119075200D01*
X124832375Y-119273412D01*
X124910481Y-119390305D01*
X124841051Y-119557512D01*
X124756010Y-119351697D01*
X124363370Y-118958371D01*
X123850100Y-118745243D01*
X123294339Y-118744758D01*
X122876440Y-118917430D01*
X122936000Y-118618000D01*
X122936000Y-116768654D01*
X123597585Y-116107070D01*
X123817826Y-115777457D01*
X123895163Y-115388650D01*
X123817826Y-114999843D01*
X123597585Y-114670229D01*
X123267971Y-114449988D01*
X122879164Y-114372651D01*
X122490357Y-114449988D01*
X122160744Y-114670229D01*
X121201580Y-115629394D01*
X120981338Y-115959007D01*
X120977534Y-115978132D01*
X120904000Y-116347814D01*
X120904000Y-118598877D01*
X120515441Y-118676166D01*
X120410230Y-118892612D01*
X121031000Y-119513382D01*
X121090044Y-119454339D01*
X121718662Y-120082957D01*
X121659618Y-120142000D01*
X122280388Y-120762770D01*
X122309994Y-120748379D01*
X122385990Y-120932303D01*
X122428000Y-120974386D01*
X122428000Y-121849072D01*
X122387371Y-121889630D01*
X122310116Y-122075680D01*
X122280388Y-122061230D01*
X121659618Y-122682000D01*
X121718662Y-122741044D01*
X121090044Y-123369662D01*
X121031000Y-123310618D01*
X120971957Y-123369662D01*
X120343339Y-122741044D01*
X120402382Y-122682000D01*
X119781612Y-122061230D01*
X119752006Y-122075621D01*
X119676010Y-121891697D01*
X119283370Y-121498371D01*
X119097320Y-121421116D01*
X119111770Y-121391388D01*
X120410230Y-121391388D01*
X120420249Y-121412000D01*
X120410230Y-121432612D01*
X120449221Y-121471603D01*
X120515441Y-121607834D01*
X120597116Y-121619498D01*
X121031000Y-122053382D01*
X121459164Y-121625218D01*
X121546559Y-121607834D01*
X121612779Y-121471603D01*
X121651770Y-121432612D01*
X121641751Y-121412000D01*
X121651770Y-121391388D01*
X121612779Y-121352397D01*
X121546559Y-121216166D01*
X121464884Y-121204502D01*
X121031000Y-120770618D01*
X120602836Y-121198782D01*
X120515441Y-121216166D01*
X120449221Y-121352397D01*
X120410230Y-121391388D01*
X119111770Y-121391388D01*
X118491000Y-120770618D01*
X118431957Y-120829662D01*
X117803339Y-120201044D01*
X117862382Y-120142000D01*
X119119618Y-120142000D01*
X119547782Y-120570164D01*
X119565166Y-120657559D01*
X119701397Y-120723779D01*
X119740388Y-120762770D01*
X119761000Y-120752751D01*
X119781612Y-120762770D01*
X119820603Y-120723779D01*
X119956834Y-120657559D01*
X119968498Y-120575884D01*
X120402382Y-120142000D01*
X119974218Y-119713836D01*
X119956834Y-119626441D01*
X119820603Y-119560221D01*
X119781612Y-119521230D01*
X119761000Y-119531249D01*
X119740388Y-119521230D01*
X119701397Y-119560221D01*
X119565166Y-119626441D01*
X119553502Y-119708116D01*
X119119618Y-120142000D01*
X117862382Y-120142000D01*
X117803339Y-120082957D01*
X118431957Y-119454339D01*
X118491000Y-119513382D01*
X119111770Y-118892612D01*
X119006559Y-118676166D01*
X118406364Y-118590450D01*
X117975441Y-118676166D01*
X117899604Y-118832181D01*
X117792500Y-118725077D01*
X117792500Y-118618005D01*
X117792501Y-118618000D01*
X117748997Y-118399297D01*
X117748997Y-118399296D01*
X117625112Y-118213888D01*
X117625109Y-118213886D01*
X113982511Y-114571287D01*
X113982511Y-114108722D01*
X114484834Y-114108722D01*
X114630374Y-114460954D01*
X114899628Y-114730679D01*
X115251606Y-114876833D01*
X115632722Y-114877166D01*
X115887692Y-114771814D01*
X116140606Y-114876833D01*
X116521722Y-114877166D01*
X116776692Y-114771814D01*
X117029606Y-114876833D01*
X117410722Y-114877166D01*
X117762954Y-114731626D01*
X118032679Y-114462372D01*
X118178833Y-114110394D01*
X118179166Y-113729278D01*
X118033626Y-113377046D01*
X117764372Y-113107321D01*
X117412394Y-112961167D01*
X117031278Y-112960834D01*
X116776308Y-113066186D01*
X116523394Y-112961167D01*
X116142278Y-112960834D01*
X115887308Y-113066186D01*
X115634394Y-112961167D01*
X115253278Y-112960834D01*
X114901046Y-113106374D01*
X114631321Y-113375628D01*
X114485167Y-113727606D01*
X114484834Y-114108722D01*
X113982511Y-114108722D01*
X113982511Y-107378848D01*
X114300000Y-107442000D01*
X114501759Y-107442000D01*
X114571688Y-107488725D01*
X114769900Y-107528152D01*
X116370100Y-107528152D01*
X116568312Y-107488725D01*
X116736347Y-107376447D01*
X116848625Y-107208412D01*
X116888052Y-107010200D01*
X116888052Y-106724777D01*
X116943877Y-106808326D01*
X116943877Y-106808326D01*
G37*
X116943877Y-106808326D02*
X119152816Y-109017264D01*
X119092046Y-109042374D01*
X118822321Y-109311628D01*
X118676167Y-109663606D01*
X118675834Y-110044722D01*
X118821374Y-110396954D01*
X119090628Y-110666679D01*
X119442606Y-110812833D01*
X119823722Y-110813166D01*
X120175954Y-110667626D01*
X120445679Y-110398372D01*
X120471570Y-110336018D01*
X120521661Y-110386109D01*
X120521663Y-110386112D01*
X120707071Y-110509997D01*
X120925775Y-110553500D01*
X125874276Y-110553500D01*
X127773056Y-112452279D01*
X127437407Y-112228006D01*
X127000000Y-112141000D01*
X126365000Y-112141000D01*
X125927593Y-112228006D01*
X125556777Y-112475777D01*
X125302777Y-112729777D01*
X125055006Y-113100593D01*
X124968000Y-113538000D01*
X124968000Y-116000953D01*
X124944653Y-116016553D01*
X124832375Y-116184588D01*
X124792948Y-116382800D01*
X124792948Y-117551200D01*
X124828315Y-117729000D01*
X124792948Y-117906800D01*
X124792948Y-119075200D01*
X124832375Y-119273412D01*
X124910481Y-119390305D01*
X124841051Y-119557512D01*
X124756010Y-119351697D01*
X124363370Y-118958371D01*
X123850100Y-118745243D01*
X123294339Y-118744758D01*
X122876440Y-118917430D01*
X122936000Y-118618000D01*
X122936000Y-116768654D01*
X123597585Y-116107070D01*
X123817826Y-115777457D01*
X123895163Y-115388650D01*
X123817826Y-114999843D01*
X123597585Y-114670229D01*
X123267971Y-114449988D01*
X122879164Y-114372651D01*
X122490357Y-114449988D01*
X122160744Y-114670229D01*
X121201580Y-115629394D01*
X120981338Y-115959007D01*
X120977534Y-115978132D01*
X120904000Y-116347814D01*
X120904000Y-118598877D01*
X120515441Y-118676166D01*
X120410230Y-118892612D01*
X121031000Y-119513382D01*
X121090044Y-119454339D01*
X121718662Y-120082957D01*
X121659618Y-120142000D01*
X122280388Y-120762770D01*
X122309994Y-120748379D01*
X122385990Y-120932303D01*
X122428000Y-120974386D01*
X122428000Y-121849072D01*
X122387371Y-121889630D01*
X122310116Y-122075680D01*
X122280388Y-122061230D01*
X121659618Y-122682000D01*
X121718662Y-122741044D01*
X121090044Y-123369662D01*
X121031000Y-123310618D01*
X120971957Y-123369662D01*
X120343339Y-122741044D01*
X120402382Y-122682000D01*
X119781612Y-122061230D01*
X119752006Y-122075621D01*
X119676010Y-121891697D01*
X119283370Y-121498371D01*
X119097320Y-121421116D01*
X119111770Y-121391388D01*
X120410230Y-121391388D01*
X120420249Y-121412000D01*
X120410230Y-121432612D01*
X120449221Y-121471603D01*
X120515441Y-121607834D01*
X120597116Y-121619498D01*
X121031000Y-122053382D01*
X121459164Y-121625218D01*
X121546559Y-121607834D01*
X121612779Y-121471603D01*
X121651770Y-121432612D01*
X121641751Y-121412000D01*
X121651770Y-121391388D01*
X121612779Y-121352397D01*
X121546559Y-121216166D01*
X121464884Y-121204502D01*
X121031000Y-120770618D01*
X120602836Y-121198782D01*
X120515441Y-121216166D01*
X120449221Y-121352397D01*
X120410230Y-121391388D01*
X119111770Y-121391388D01*
X118491000Y-120770618D01*
X118431957Y-120829662D01*
X117803339Y-120201044D01*
X117862382Y-120142000D01*
X119119618Y-120142000D01*
X119547782Y-120570164D01*
X119565166Y-120657559D01*
X119701397Y-120723779D01*
X119740388Y-120762770D01*
X119761000Y-120752751D01*
X119781612Y-120762770D01*
X119820603Y-120723779D01*
X119956834Y-120657559D01*
X119968498Y-120575884D01*
X120402382Y-120142000D01*
X119974218Y-119713836D01*
X119956834Y-119626441D01*
X119820603Y-119560221D01*
X119781612Y-119521230D01*
X119761000Y-119531249D01*
X119740388Y-119521230D01*
X119701397Y-119560221D01*
X119565166Y-119626441D01*
X119553502Y-119708116D01*
X119119618Y-120142000D01*
X117862382Y-120142000D01*
X117803339Y-120082957D01*
X118431957Y-119454339D01*
X118491000Y-119513382D01*
X119111770Y-118892612D01*
X119006559Y-118676166D01*
X118406364Y-118590450D01*
X117975441Y-118676166D01*
X117899604Y-118832181D01*
X117792500Y-118725077D01*
X117792500Y-118618005D01*
X117792501Y-118618000D01*
X117748997Y-118399297D01*
X117748997Y-118399296D01*
X117625112Y-118213888D01*
X117625109Y-118213886D01*
X113982511Y-114571287D01*
X113982511Y-114108722D01*
X114484834Y-114108722D01*
X114630374Y-114460954D01*
X114899628Y-114730679D01*
X115251606Y-114876833D01*
X115632722Y-114877166D01*
X115887692Y-114771814D01*
X116140606Y-114876833D01*
X116521722Y-114877166D01*
X116776692Y-114771814D01*
X117029606Y-114876833D01*
X117410722Y-114877166D01*
X117762954Y-114731626D01*
X118032679Y-114462372D01*
X118178833Y-114110394D01*
X118179166Y-113729278D01*
X118033626Y-113377046D01*
X117764372Y-113107321D01*
X117412394Y-112961167D01*
X117031278Y-112960834D01*
X116776308Y-113066186D01*
X116523394Y-112961167D01*
X116142278Y-112960834D01*
X115887308Y-113066186D01*
X115634394Y-112961167D01*
X115253278Y-112960834D01*
X114901046Y-113106374D01*
X114631321Y-113375628D01*
X114485167Y-113727606D01*
X114484834Y-114108722D01*
X113982511Y-114108722D01*
X113982511Y-107378848D01*
X114300000Y-107442000D01*
X114501759Y-107442000D01*
X114571688Y-107488725D01*
X114769900Y-107528152D01*
X116370100Y-107528152D01*
X116568312Y-107488725D01*
X116736347Y-107376447D01*
X116848625Y-107208412D01*
X116888052Y-107010200D01*
X116888052Y-106724777D01*
X116943877Y-106808326D01*
G36*
X73757563Y-120889858D02*
X73743420Y-120904000D01*
X73757563Y-120918143D01*
X73039143Y-121636563D01*
X73025000Y-121622420D01*
X73010858Y-121636563D01*
X72292438Y-120918143D01*
X72306580Y-120904000D01*
X72292438Y-120889858D01*
X73010858Y-120171438D01*
X73025000Y-120185580D01*
X73039143Y-120171438D01*
X73757563Y-120889858D01*
X73757563Y-120889858D01*
G37*
X73757563Y-120889858D02*
X73743420Y-120904000D01*
X73757563Y-120918143D01*
X73039143Y-121636563D01*
X73025000Y-121622420D01*
X73010858Y-121636563D01*
X72292438Y-120918143D01*
X72306580Y-120904000D01*
X72292438Y-120889858D01*
X73010858Y-120171438D01*
X73025000Y-120185580D01*
X73039143Y-120171438D01*
X73757563Y-120889858D01*
G36*
X90579934Y-98246157D02*
X90579873Y-98316163D01*
X90691231Y-98585669D01*
X90897247Y-98792045D01*
X91166558Y-98903872D01*
X91458163Y-98904127D01*
X91727669Y-98792769D01*
X91934045Y-98586753D01*
X91934774Y-98584998D01*
X98147886Y-104798109D01*
X98147888Y-104798112D01*
X98333296Y-104921997D01*
X98369582Y-104929215D01*
X98552000Y-104965501D01*
X98552005Y-104965500D01*
X103123995Y-104965500D01*
X103124000Y-104965501D01*
X103306418Y-104929215D01*
X103342704Y-104921997D01*
X103415984Y-104873033D01*
X103523163Y-104873127D01*
X103792669Y-104761769D01*
X103999045Y-104555753D01*
X104110872Y-104286442D01*
X104111127Y-103994837D01*
X104039881Y-103822409D01*
X104110872Y-103651442D01*
X104111127Y-103359837D01*
X103999769Y-103090331D01*
X103929631Y-103020070D01*
X103983872Y-102889442D01*
X103984127Y-102597837D01*
X103872769Y-102328331D01*
X103675696Y-102130913D01*
X103729872Y-102000442D01*
X103730127Y-101708837D01*
X103618769Y-101439331D01*
X103412753Y-101232955D01*
X103143442Y-101121128D01*
X103020662Y-101121021D01*
X102990705Y-101101004D01*
X102945439Y-101092000D01*
X102772001Y-101057500D01*
X102771996Y-101057501D01*
X100957002Y-101057501D01*
X100957002Y-100992741D01*
X101008699Y-100971327D01*
X101187327Y-100792698D01*
X101284000Y-100559309D01*
X101284000Y-100491750D01*
X101125250Y-100333000D01*
X100549000Y-100333000D01*
X100549000Y-100433000D01*
X100349000Y-100433000D01*
X100349000Y-100333000D01*
X99549000Y-100333000D01*
X99549000Y-100433000D01*
X99349000Y-100433000D01*
X99349000Y-100333000D01*
X98772750Y-100333000D01*
X98614000Y-100491750D01*
X98614000Y-100559309D01*
X98710673Y-100792698D01*
X98889301Y-100971327D01*
X98940998Y-100992741D01*
X98940998Y-101057501D01*
X98246224Y-101057501D01*
X96880473Y-99691750D01*
X97814000Y-99691750D01*
X97814000Y-99759309D01*
X97910673Y-99992698D01*
X98089301Y-100171327D01*
X98322690Y-100268000D01*
X98390250Y-100268000D01*
X98549000Y-100109250D01*
X98549000Y-99533000D01*
X97972750Y-99533000D01*
X97814000Y-99691750D01*
X96880473Y-99691750D01*
X96073449Y-98884726D01*
X96119558Y-98903872D01*
X96411163Y-98904127D01*
X96680669Y-98792769D01*
X96781864Y-98691750D01*
X97814000Y-98691750D01*
X97814000Y-98759309D01*
X97885945Y-98933000D01*
X97814000Y-99106691D01*
X97814000Y-99174250D01*
X97972750Y-99333000D01*
X98549000Y-99333000D01*
X98549000Y-98533000D01*
X97972750Y-98533000D01*
X97814000Y-98691750D01*
X96781864Y-98691750D01*
X96887045Y-98586753D01*
X96998872Y-98317442D01*
X96998878Y-98310714D01*
X97061669Y-98284769D01*
X97240058Y-98106691D01*
X97814000Y-98106691D01*
X97814000Y-98174250D01*
X97972750Y-98333000D01*
X98549000Y-98333000D01*
X98549000Y-98095491D01*
X98602800Y-98095491D01*
X98602800Y-98418650D01*
X98749000Y-98564850D01*
X98749000Y-99301150D01*
X98602800Y-99447350D01*
X98602800Y-99770509D01*
X98636604Y-99852120D01*
X98614000Y-99906691D01*
X98614000Y-99974250D01*
X98907750Y-100268000D01*
X98975310Y-100268000D01*
X99029880Y-100245396D01*
X99111490Y-100279200D01*
X99434650Y-100279200D01*
X99580850Y-100133000D01*
X100317150Y-100133000D01*
X100463350Y-100279200D01*
X100786510Y-100279200D01*
X100868120Y-100245396D01*
X100922690Y-100268000D01*
X100990250Y-100268000D01*
X101284000Y-99974250D01*
X101284000Y-99906691D01*
X101261396Y-99852120D01*
X101295200Y-99770509D01*
X101295200Y-99533000D01*
X101349000Y-99533000D01*
X101349000Y-100109250D01*
X101507750Y-100268000D01*
X101575310Y-100268000D01*
X101808699Y-100171327D01*
X101987327Y-99992698D01*
X102084000Y-99759309D01*
X102084000Y-99691750D01*
X101925250Y-99533000D01*
X101349000Y-99533000D01*
X101295200Y-99533000D01*
X101295200Y-99447350D01*
X101149000Y-99301150D01*
X101149000Y-98564850D01*
X101180850Y-98533000D01*
X101349000Y-98533000D01*
X101349000Y-99333000D01*
X101925250Y-99333000D01*
X102084000Y-99174250D01*
X102084000Y-99106691D01*
X102012055Y-98933000D01*
X102084000Y-98759309D01*
X102084000Y-98691750D01*
X101925250Y-98533000D01*
X101349000Y-98533000D01*
X101180850Y-98533000D01*
X101295200Y-98418650D01*
X101295200Y-98095491D01*
X101261396Y-98013880D01*
X101284000Y-97959309D01*
X101284000Y-97891750D01*
X100990250Y-97598000D01*
X100922690Y-97598000D01*
X100868120Y-97620604D01*
X100786510Y-97586800D01*
X100463350Y-97586800D01*
X100317150Y-97733000D01*
X99580850Y-97733000D01*
X99434650Y-97586800D01*
X99111490Y-97586800D01*
X99029880Y-97620604D01*
X98975310Y-97598000D01*
X98907750Y-97598000D01*
X98614000Y-97891750D01*
X98614000Y-97959309D01*
X98636604Y-98013880D01*
X98602800Y-98095491D01*
X98549000Y-98095491D01*
X98549000Y-97756750D01*
X98390250Y-97598000D01*
X98322690Y-97598000D01*
X98089301Y-97694673D01*
X97910673Y-97873302D01*
X97814000Y-98106691D01*
X97240058Y-98106691D01*
X97268045Y-98078753D01*
X97379872Y-97809442D01*
X97380127Y-97517837D01*
X97268769Y-97248331D01*
X97154699Y-97134062D01*
X97268126Y-97020832D01*
X97402838Y-96696410D01*
X97402957Y-96560180D01*
X97957386Y-97114609D01*
X97957388Y-97114612D01*
X98142796Y-97238497D01*
X98174498Y-97244803D01*
X98361500Y-97282001D01*
X98361505Y-97282000D01*
X98624227Y-97282000D01*
X98614000Y-97306691D01*
X98614000Y-97374250D01*
X98772750Y-97533000D01*
X99349000Y-97533000D01*
X99349000Y-97433000D01*
X99549000Y-97433000D01*
X99549000Y-97533000D01*
X100349000Y-97533000D01*
X100349000Y-97433000D01*
X100549000Y-97433000D01*
X100549000Y-97533000D01*
X101125250Y-97533000D01*
X101242414Y-97415836D01*
X101466164Y-97639586D01*
X101349000Y-97756750D01*
X101349000Y-98333000D01*
X101925250Y-98333000D01*
X102042414Y-98215836D01*
X102817189Y-98990610D01*
X102817191Y-98990613D01*
X103002599Y-99114498D01*
X103038885Y-99121716D01*
X103221303Y-99158002D01*
X103221308Y-99158001D01*
X104318777Y-99158001D01*
X105092500Y-99931723D01*
X105092500Y-100245788D01*
X105042955Y-100295247D01*
X104931128Y-100564558D01*
X104930873Y-100856163D01*
X105042231Y-101125669D01*
X105248247Y-101332045D01*
X105517558Y-101443872D01*
X105537000Y-101443889D01*
X105537000Y-105617776D01*
X102341502Y-108813274D01*
X102285626Y-108678046D01*
X102016372Y-108408321D01*
X101664394Y-108262167D01*
X101283278Y-108261834D01*
X100931046Y-108407374D01*
X100661321Y-108676628D01*
X100515167Y-109028606D01*
X100514834Y-109409722D01*
X100660374Y-109761954D01*
X100880025Y-109981989D01*
X98700791Y-109981989D01*
X98700786Y-109981988D01*
X98482083Y-110025491D01*
X98482081Y-110025492D01*
X98482082Y-110025492D01*
X98296674Y-110149377D01*
X98296672Y-110149380D01*
X96496888Y-111949163D01*
X96373003Y-112134571D01*
X96373003Y-112134572D01*
X96329499Y-112353275D01*
X96329500Y-112353280D01*
X96329500Y-116331995D01*
X96329499Y-116332000D01*
X96361783Y-116494297D01*
X96373003Y-116550704D01*
X96442802Y-116655166D01*
X96496888Y-116736112D01*
X98545728Y-118784951D01*
X98450100Y-118745243D01*
X97894339Y-118744758D01*
X97380697Y-118956990D01*
X96987371Y-119349630D01*
X96901051Y-119557512D01*
X96816010Y-119351697D01*
X96423370Y-118958371D01*
X95910100Y-118745243D01*
X95354339Y-118744758D01*
X94840697Y-118956990D01*
X94447371Y-119349630D01*
X94361051Y-119557512D01*
X94276010Y-119351697D01*
X93883370Y-118958371D01*
X93370100Y-118745243D01*
X92814339Y-118744758D01*
X92300697Y-118956990D01*
X91907371Y-119349630D01*
X91821051Y-119557512D01*
X91736010Y-119351697D01*
X91343370Y-118958371D01*
X90830100Y-118745243D01*
X90274339Y-118744758D01*
X89760697Y-118956990D01*
X89367371Y-119349630D01*
X89281051Y-119557512D01*
X89196010Y-119351697D01*
X89027000Y-119182392D01*
X89027000Y-118872000D01*
X88949662Y-118483194D01*
X88729420Y-118153580D01*
X88399806Y-117933338D01*
X88011000Y-117856000D01*
X87622194Y-117933338D01*
X87292580Y-118153580D01*
X87279270Y-118173500D01*
X86850723Y-118173500D01*
X84645494Y-115968270D01*
X84645494Y-115886722D01*
X85020834Y-115886722D01*
X85166374Y-116238954D01*
X85435628Y-116508679D01*
X85787606Y-116654833D01*
X86168722Y-116655166D01*
X86520954Y-116509626D01*
X86790679Y-116240372D01*
X86936833Y-115888394D01*
X86937166Y-115507278D01*
X86791626Y-115155046D01*
X86522372Y-114885321D01*
X86170394Y-114739167D01*
X85789278Y-114738834D01*
X85437046Y-114884374D01*
X85167321Y-115153628D01*
X85021167Y-115505606D01*
X85020834Y-115886722D01*
X84645494Y-115886722D01*
X84645494Y-112612732D01*
X84898606Y-112717833D01*
X85279722Y-112718166D01*
X85631954Y-112572626D01*
X85901679Y-112303372D01*
X86047833Y-111951394D01*
X86048166Y-111570278D01*
X85902626Y-111218046D01*
X85633372Y-110948321D01*
X85281394Y-110802167D01*
X84900278Y-110801834D01*
X84550886Y-110946201D01*
X84489747Y-110884955D01*
X84220436Y-110773128D01*
X83928831Y-110772873D01*
X83659325Y-110884231D01*
X83546706Y-110996654D01*
X83546706Y-109847626D01*
X83596251Y-109798167D01*
X83708078Y-109528856D01*
X83708182Y-109409722D01*
X95307834Y-109409722D01*
X95453374Y-109761954D01*
X95722628Y-110031679D01*
X96074606Y-110177833D01*
X96455722Y-110178166D01*
X96807954Y-110032626D01*
X97077679Y-109763372D01*
X97223833Y-109411394D01*
X97224166Y-109030278D01*
X97078626Y-108678046D01*
X96809372Y-108408321D01*
X96457394Y-108262167D01*
X96076278Y-108261834D01*
X95724046Y-108407374D01*
X95454321Y-108676628D01*
X95308167Y-109028606D01*
X95307834Y-109409722D01*
X83708182Y-109409722D01*
X83708333Y-109237251D01*
X83596975Y-108967745D01*
X83390959Y-108761369D01*
X83121648Y-108649542D01*
X82830043Y-108649287D01*
X82613500Y-108738761D01*
X82613500Y-106234722D01*
X85909834Y-106234722D01*
X86055374Y-106586954D01*
X86324628Y-106856679D01*
X86676606Y-107002833D01*
X87057722Y-107003166D01*
X87380679Y-106869722D01*
X98228834Y-106869722D01*
X98374374Y-107221954D01*
X98643628Y-107491679D01*
X98995606Y-107637833D01*
X99376722Y-107638166D01*
X99728954Y-107492626D01*
X99998679Y-107223372D01*
X100144833Y-106871394D01*
X100144834Y-106869722D01*
X101657834Y-106869722D01*
X101803374Y-107221954D01*
X102072628Y-107491679D01*
X102424606Y-107637833D01*
X102805722Y-107638166D01*
X103157954Y-107492626D01*
X103427679Y-107223372D01*
X103573833Y-106871394D01*
X103574166Y-106490278D01*
X103428626Y-106138046D01*
X103159372Y-105868321D01*
X102807394Y-105722167D01*
X102426278Y-105721834D01*
X102074046Y-105867374D01*
X101804321Y-106136628D01*
X101658167Y-106488606D01*
X101657834Y-106869722D01*
X100144834Y-106869722D01*
X100145166Y-106490278D01*
X99999626Y-106138046D01*
X99730372Y-105868321D01*
X99378394Y-105722167D01*
X98997278Y-105721834D01*
X98645046Y-105867374D01*
X98375321Y-106136628D01*
X98229167Y-106488606D01*
X98228834Y-106869722D01*
X87380679Y-106869722D01*
X87409954Y-106857626D01*
X87679679Y-106588372D01*
X87825833Y-106236394D01*
X87826166Y-105855278D01*
X87825522Y-105853718D01*
X92005834Y-105853718D01*
X92151374Y-106205950D01*
X92420628Y-106475675D01*
X92772606Y-106621829D01*
X93153722Y-106622162D01*
X93505954Y-106476622D01*
X93775679Y-106207368D01*
X93921833Y-105855390D01*
X93922166Y-105474274D01*
X93776626Y-105122042D01*
X93507372Y-104852317D01*
X93155394Y-104706163D01*
X92774278Y-104705830D01*
X92422046Y-104851370D01*
X92152321Y-105120624D01*
X92006167Y-105472602D01*
X92005834Y-105853718D01*
X87825522Y-105853718D01*
X87680626Y-105503046D01*
X87411372Y-105233321D01*
X87059394Y-105087167D01*
X86678278Y-105086834D01*
X86326046Y-105232374D01*
X86056321Y-105501628D01*
X85910167Y-105853606D01*
X85909834Y-106234722D01*
X82613500Y-106234722D01*
X82613500Y-104757724D01*
X85166227Y-102204997D01*
X85182247Y-102221045D01*
X85451558Y-102332872D01*
X85743163Y-102333127D01*
X86012669Y-102221769D01*
X86219045Y-102015753D01*
X86330872Y-101746442D01*
X86330934Y-101675289D01*
X86798610Y-101207613D01*
X86798613Y-101207611D01*
X86898913Y-101057501D01*
X86922499Y-101022202D01*
X86929916Y-100984915D01*
X86959628Y-101014679D01*
X87311606Y-101160833D01*
X87692722Y-101161166D01*
X88044954Y-101015626D01*
X88314679Y-100746372D01*
X88460833Y-100394394D01*
X88461166Y-100013278D01*
X88315626Y-99661046D01*
X88046372Y-99391321D01*
X87694394Y-99245167D01*
X87313278Y-99244834D01*
X86966001Y-99388327D01*
X86966001Y-97316506D01*
X86966002Y-97316501D01*
X86922498Y-97097798D01*
X86922498Y-97097797D01*
X86798613Y-96912389D01*
X86798610Y-96912387D01*
X85072723Y-95186500D01*
X87520276Y-95186500D01*
X90579934Y-98246157D01*
X90579934Y-98246157D01*
G37*
X90579934Y-98246157D02*
X90579873Y-98316163D01*
X90691231Y-98585669D01*
X90897247Y-98792045D01*
X91166558Y-98903872D01*
X91458163Y-98904127D01*
X91727669Y-98792769D01*
X91934045Y-98586753D01*
X91934774Y-98584998D01*
X98147886Y-104798109D01*
X98147888Y-104798112D01*
X98333296Y-104921997D01*
X98369582Y-104929215D01*
X98552000Y-104965501D01*
X98552005Y-104965500D01*
X103123995Y-104965500D01*
X103124000Y-104965501D01*
X103306418Y-104929215D01*
X103342704Y-104921997D01*
X103415984Y-104873033D01*
X103523163Y-104873127D01*
X103792669Y-104761769D01*
X103999045Y-104555753D01*
X104110872Y-104286442D01*
X104111127Y-103994837D01*
X104039881Y-103822409D01*
X104110872Y-103651442D01*
X104111127Y-103359837D01*
X103999769Y-103090331D01*
X103929631Y-103020070D01*
X103983872Y-102889442D01*
X103984127Y-102597837D01*
X103872769Y-102328331D01*
X103675696Y-102130913D01*
X103729872Y-102000442D01*
X103730127Y-101708837D01*
X103618769Y-101439331D01*
X103412753Y-101232955D01*
X103143442Y-101121128D01*
X103020662Y-101121021D01*
X102990705Y-101101004D01*
X102945439Y-101092000D01*
X102772001Y-101057500D01*
X102771996Y-101057501D01*
X100957002Y-101057501D01*
X100957002Y-100992741D01*
X101008699Y-100971327D01*
X101187327Y-100792698D01*
X101284000Y-100559309D01*
X101284000Y-100491750D01*
X101125250Y-100333000D01*
X100549000Y-100333000D01*
X100549000Y-100433000D01*
X100349000Y-100433000D01*
X100349000Y-100333000D01*
X99549000Y-100333000D01*
X99549000Y-100433000D01*
X99349000Y-100433000D01*
X99349000Y-100333000D01*
X98772750Y-100333000D01*
X98614000Y-100491750D01*
X98614000Y-100559309D01*
X98710673Y-100792698D01*
X98889301Y-100971327D01*
X98940998Y-100992741D01*
X98940998Y-101057501D01*
X98246224Y-101057501D01*
X96880473Y-99691750D01*
X97814000Y-99691750D01*
X97814000Y-99759309D01*
X97910673Y-99992698D01*
X98089301Y-100171327D01*
X98322690Y-100268000D01*
X98390250Y-100268000D01*
X98549000Y-100109250D01*
X98549000Y-99533000D01*
X97972750Y-99533000D01*
X97814000Y-99691750D01*
X96880473Y-99691750D01*
X96073449Y-98884726D01*
X96119558Y-98903872D01*
X96411163Y-98904127D01*
X96680669Y-98792769D01*
X96781864Y-98691750D01*
X97814000Y-98691750D01*
X97814000Y-98759309D01*
X97885945Y-98933000D01*
X97814000Y-99106691D01*
X97814000Y-99174250D01*
X97972750Y-99333000D01*
X98549000Y-99333000D01*
X98549000Y-98533000D01*
X97972750Y-98533000D01*
X97814000Y-98691750D01*
X96781864Y-98691750D01*
X96887045Y-98586753D01*
X96998872Y-98317442D01*
X96998878Y-98310714D01*
X97061669Y-98284769D01*
X97240058Y-98106691D01*
X97814000Y-98106691D01*
X97814000Y-98174250D01*
X97972750Y-98333000D01*
X98549000Y-98333000D01*
X98549000Y-98095491D01*
X98602800Y-98095491D01*
X98602800Y-98418650D01*
X98749000Y-98564850D01*
X98749000Y-99301150D01*
X98602800Y-99447350D01*
X98602800Y-99770509D01*
X98636604Y-99852120D01*
X98614000Y-99906691D01*
X98614000Y-99974250D01*
X98907750Y-100268000D01*
X98975310Y-100268000D01*
X99029880Y-100245396D01*
X99111490Y-100279200D01*
X99434650Y-100279200D01*
X99580850Y-100133000D01*
X100317150Y-100133000D01*
X100463350Y-100279200D01*
X100786510Y-100279200D01*
X100868120Y-100245396D01*
X100922690Y-100268000D01*
X100990250Y-100268000D01*
X101284000Y-99974250D01*
X101284000Y-99906691D01*
X101261396Y-99852120D01*
X101295200Y-99770509D01*
X101295200Y-99533000D01*
X101349000Y-99533000D01*
X101349000Y-100109250D01*
X101507750Y-100268000D01*
X101575310Y-100268000D01*
X101808699Y-100171327D01*
X101987327Y-99992698D01*
X102084000Y-99759309D01*
X102084000Y-99691750D01*
X101925250Y-99533000D01*
X101349000Y-99533000D01*
X101295200Y-99533000D01*
X101295200Y-99447350D01*
X101149000Y-99301150D01*
X101149000Y-98564850D01*
X101180850Y-98533000D01*
X101349000Y-98533000D01*
X101349000Y-99333000D01*
X101925250Y-99333000D01*
X102084000Y-99174250D01*
X102084000Y-99106691D01*
X102012055Y-98933000D01*
X102084000Y-98759309D01*
X102084000Y-98691750D01*
X101925250Y-98533000D01*
X101349000Y-98533000D01*
X101180850Y-98533000D01*
X101295200Y-98418650D01*
X101295200Y-98095491D01*
X101261396Y-98013880D01*
X101284000Y-97959309D01*
X101284000Y-97891750D01*
X100990250Y-97598000D01*
X100922690Y-97598000D01*
X100868120Y-97620604D01*
X100786510Y-97586800D01*
X100463350Y-97586800D01*
X100317150Y-97733000D01*
X99580850Y-97733000D01*
X99434650Y-97586800D01*
X99111490Y-97586800D01*
X99029880Y-97620604D01*
X98975310Y-97598000D01*
X98907750Y-97598000D01*
X98614000Y-97891750D01*
X98614000Y-97959309D01*
X98636604Y-98013880D01*
X98602800Y-98095491D01*
X98549000Y-98095491D01*
X98549000Y-97756750D01*
X98390250Y-97598000D01*
X98322690Y-97598000D01*
X98089301Y-97694673D01*
X97910673Y-97873302D01*
X97814000Y-98106691D01*
X97240058Y-98106691D01*
X97268045Y-98078753D01*
X97379872Y-97809442D01*
X97380127Y-97517837D01*
X97268769Y-97248331D01*
X97154699Y-97134062D01*
X97268126Y-97020832D01*
X97402838Y-96696410D01*
X97402957Y-96560180D01*
X97957386Y-97114609D01*
X97957388Y-97114612D01*
X98142796Y-97238497D01*
X98174498Y-97244803D01*
X98361500Y-97282001D01*
X98361505Y-97282000D01*
X98624227Y-97282000D01*
X98614000Y-97306691D01*
X98614000Y-97374250D01*
X98772750Y-97533000D01*
X99349000Y-97533000D01*
X99349000Y-97433000D01*
X99549000Y-97433000D01*
X99549000Y-97533000D01*
X100349000Y-97533000D01*
X100349000Y-97433000D01*
X100549000Y-97433000D01*
X100549000Y-97533000D01*
X101125250Y-97533000D01*
X101242414Y-97415836D01*
X101466164Y-97639586D01*
X101349000Y-97756750D01*
X101349000Y-98333000D01*
X101925250Y-98333000D01*
X102042414Y-98215836D01*
X102817189Y-98990610D01*
X102817191Y-98990613D01*
X103002599Y-99114498D01*
X103038885Y-99121716D01*
X103221303Y-99158002D01*
X103221308Y-99158001D01*
X104318777Y-99158001D01*
X105092500Y-99931723D01*
X105092500Y-100245788D01*
X105042955Y-100295247D01*
X104931128Y-100564558D01*
X104930873Y-100856163D01*
X105042231Y-101125669D01*
X105248247Y-101332045D01*
X105517558Y-101443872D01*
X105537000Y-101443889D01*
X105537000Y-105617776D01*
X102341502Y-108813274D01*
X102285626Y-108678046D01*
X102016372Y-108408321D01*
X101664394Y-108262167D01*
X101283278Y-108261834D01*
X100931046Y-108407374D01*
X100661321Y-108676628D01*
X100515167Y-109028606D01*
X100514834Y-109409722D01*
X100660374Y-109761954D01*
X100880025Y-109981989D01*
X98700791Y-109981989D01*
X98700786Y-109981988D01*
X98482083Y-110025491D01*
X98482081Y-110025492D01*
X98482082Y-110025492D01*
X98296674Y-110149377D01*
X98296672Y-110149380D01*
X96496888Y-111949163D01*
X96373003Y-112134571D01*
X96373003Y-112134572D01*
X96329499Y-112353275D01*
X96329500Y-112353280D01*
X96329500Y-116331995D01*
X96329499Y-116332000D01*
X96361783Y-116494297D01*
X96373003Y-116550704D01*
X96442802Y-116655166D01*
X96496888Y-116736112D01*
X98545728Y-118784951D01*
X98450100Y-118745243D01*
X97894339Y-118744758D01*
X97380697Y-118956990D01*
X96987371Y-119349630D01*
X96901051Y-119557512D01*
X96816010Y-119351697D01*
X96423370Y-118958371D01*
X95910100Y-118745243D01*
X95354339Y-118744758D01*
X94840697Y-118956990D01*
X94447371Y-119349630D01*
X94361051Y-119557512D01*
X94276010Y-119351697D01*
X93883370Y-118958371D01*
X93370100Y-118745243D01*
X92814339Y-118744758D01*
X92300697Y-118956990D01*
X91907371Y-119349630D01*
X91821051Y-119557512D01*
X91736010Y-119351697D01*
X91343370Y-118958371D01*
X90830100Y-118745243D01*
X90274339Y-118744758D01*
X89760697Y-118956990D01*
X89367371Y-119349630D01*
X89281051Y-119557512D01*
X89196010Y-119351697D01*
X89027000Y-119182392D01*
X89027000Y-118872000D01*
X88949662Y-118483194D01*
X88729420Y-118153580D01*
X88399806Y-117933338D01*
X88011000Y-117856000D01*
X87622194Y-117933338D01*
X87292580Y-118153580D01*
X87279270Y-118173500D01*
X86850723Y-118173500D01*
X84645494Y-115968270D01*
X84645494Y-115886722D01*
X85020834Y-115886722D01*
X85166374Y-116238954D01*
X85435628Y-116508679D01*
X85787606Y-116654833D01*
X86168722Y-116655166D01*
X86520954Y-116509626D01*
X86790679Y-116240372D01*
X86936833Y-115888394D01*
X86937166Y-115507278D01*
X86791626Y-115155046D01*
X86522372Y-114885321D01*
X86170394Y-114739167D01*
X85789278Y-114738834D01*
X85437046Y-114884374D01*
X85167321Y-115153628D01*
X85021167Y-115505606D01*
X85020834Y-115886722D01*
X84645494Y-115886722D01*
X84645494Y-112612732D01*
X84898606Y-112717833D01*
X85279722Y-112718166D01*
X85631954Y-112572626D01*
X85901679Y-112303372D01*
X86047833Y-111951394D01*
X86048166Y-111570278D01*
X85902626Y-111218046D01*
X85633372Y-110948321D01*
X85281394Y-110802167D01*
X84900278Y-110801834D01*
X84550886Y-110946201D01*
X84489747Y-110884955D01*
X84220436Y-110773128D01*
X83928831Y-110772873D01*
X83659325Y-110884231D01*
X83546706Y-110996654D01*
X83546706Y-109847626D01*
X83596251Y-109798167D01*
X83708078Y-109528856D01*
X83708182Y-109409722D01*
X95307834Y-109409722D01*
X95453374Y-109761954D01*
X95722628Y-110031679D01*
X96074606Y-110177833D01*
X96455722Y-110178166D01*
X96807954Y-110032626D01*
X97077679Y-109763372D01*
X97223833Y-109411394D01*
X97224166Y-109030278D01*
X97078626Y-108678046D01*
X96809372Y-108408321D01*
X96457394Y-108262167D01*
X96076278Y-108261834D01*
X95724046Y-108407374D01*
X95454321Y-108676628D01*
X95308167Y-109028606D01*
X95307834Y-109409722D01*
X83708182Y-109409722D01*
X83708333Y-109237251D01*
X83596975Y-108967745D01*
X83390959Y-108761369D01*
X83121648Y-108649542D01*
X82830043Y-108649287D01*
X82613500Y-108738761D01*
X82613500Y-106234722D01*
X85909834Y-106234722D01*
X86055374Y-106586954D01*
X86324628Y-106856679D01*
X86676606Y-107002833D01*
X87057722Y-107003166D01*
X87380679Y-106869722D01*
X98228834Y-106869722D01*
X98374374Y-107221954D01*
X98643628Y-107491679D01*
X98995606Y-107637833D01*
X99376722Y-107638166D01*
X99728954Y-107492626D01*
X99998679Y-107223372D01*
X100144833Y-106871394D01*
X100144834Y-106869722D01*
X101657834Y-106869722D01*
X101803374Y-107221954D01*
X102072628Y-107491679D01*
X102424606Y-107637833D01*
X102805722Y-107638166D01*
X103157954Y-107492626D01*
X103427679Y-107223372D01*
X103573833Y-106871394D01*
X103574166Y-106490278D01*
X103428626Y-106138046D01*
X103159372Y-105868321D01*
X102807394Y-105722167D01*
X102426278Y-105721834D01*
X102074046Y-105867374D01*
X101804321Y-106136628D01*
X101658167Y-106488606D01*
X101657834Y-106869722D01*
X100144834Y-106869722D01*
X100145166Y-106490278D01*
X99999626Y-106138046D01*
X99730372Y-105868321D01*
X99378394Y-105722167D01*
X98997278Y-105721834D01*
X98645046Y-105867374D01*
X98375321Y-106136628D01*
X98229167Y-106488606D01*
X98228834Y-106869722D01*
X87380679Y-106869722D01*
X87409954Y-106857626D01*
X87679679Y-106588372D01*
X87825833Y-106236394D01*
X87826166Y-105855278D01*
X87825522Y-105853718D01*
X92005834Y-105853718D01*
X92151374Y-106205950D01*
X92420628Y-106475675D01*
X92772606Y-106621829D01*
X93153722Y-106622162D01*
X93505954Y-106476622D01*
X93775679Y-106207368D01*
X93921833Y-105855390D01*
X93922166Y-105474274D01*
X93776626Y-105122042D01*
X93507372Y-104852317D01*
X93155394Y-104706163D01*
X92774278Y-104705830D01*
X92422046Y-104851370D01*
X92152321Y-105120624D01*
X92006167Y-105472602D01*
X92005834Y-105853718D01*
X87825522Y-105853718D01*
X87680626Y-105503046D01*
X87411372Y-105233321D01*
X87059394Y-105087167D01*
X86678278Y-105086834D01*
X86326046Y-105232374D01*
X86056321Y-105501628D01*
X85910167Y-105853606D01*
X85909834Y-106234722D01*
X82613500Y-106234722D01*
X82613500Y-104757724D01*
X85166227Y-102204997D01*
X85182247Y-102221045D01*
X85451558Y-102332872D01*
X85743163Y-102333127D01*
X86012669Y-102221769D01*
X86219045Y-102015753D01*
X86330872Y-101746442D01*
X86330934Y-101675289D01*
X86798610Y-101207613D01*
X86798613Y-101207611D01*
X86898913Y-101057501D01*
X86922499Y-101022202D01*
X86929916Y-100984915D01*
X86959628Y-101014679D01*
X87311606Y-101160833D01*
X87692722Y-101161166D01*
X88044954Y-101015626D01*
X88314679Y-100746372D01*
X88460833Y-100394394D01*
X88461166Y-100013278D01*
X88315626Y-99661046D01*
X88046372Y-99391321D01*
X87694394Y-99245167D01*
X87313278Y-99244834D01*
X86966001Y-99388327D01*
X86966001Y-97316506D01*
X86966002Y-97316501D01*
X86922498Y-97097798D01*
X86922498Y-97097797D01*
X86798613Y-96912389D01*
X86798610Y-96912387D01*
X85072723Y-95186500D01*
X87520276Y-95186500D01*
X90579934Y-98246157D01*
G36*
X100304600Y-98577400D02*
X100414000Y-98577400D01*
X100414000Y-99288600D01*
X100304600Y-99288600D01*
X100304600Y-99398000D01*
X99593400Y-99398000D01*
X99593400Y-99288600D01*
X99484000Y-99288600D01*
X99484000Y-98577400D01*
X99593400Y-98577400D01*
X99593400Y-98468000D01*
X100304600Y-98468000D01*
X100304600Y-98577400D01*
X100304600Y-98577400D01*
G37*
X100304600Y-98577400D02*
X100414000Y-98577400D01*
X100414000Y-99288600D01*
X100304600Y-99288600D01*
X100304600Y-99398000D01*
X99593400Y-99398000D01*
X99593400Y-99288600D01*
X99484000Y-99288600D01*
X99484000Y-98577400D01*
X99593400Y-98577400D01*
X99593400Y-98468000D01*
X100304600Y-98468000D01*
X100304600Y-98577400D01*
G36*
X107736848Y-97193100D02*
X107776275Y-97391312D01*
X107888553Y-97559347D01*
X108056588Y-97671625D01*
X108254800Y-97711052D01*
X109398727Y-97711052D01*
X109419102Y-97731427D01*
X109652491Y-97828100D01*
X109912150Y-97828100D01*
X110070900Y-97669350D01*
X110070900Y-96793050D01*
X109941152Y-96793050D01*
X109941152Y-95992950D01*
X110070900Y-95992950D01*
X110070900Y-95865000D01*
X110655100Y-95865000D01*
X110655100Y-95992950D01*
X110891000Y-95992950D01*
X110891000Y-96793050D01*
X110655100Y-96793050D01*
X110655100Y-97669350D01*
X110670572Y-97684822D01*
X110548167Y-97979606D01*
X110547834Y-98360722D01*
X110693374Y-98712954D01*
X110962628Y-98982679D01*
X111314606Y-99128833D01*
X111695722Y-99129166D01*
X111823467Y-99076383D01*
X111823467Y-117746309D01*
X111736888Y-117832888D01*
X111613003Y-118018296D01*
X111613003Y-118018297D01*
X111569499Y-118237000D01*
X111569500Y-118237005D01*
X111569500Y-118919393D01*
X111150100Y-118745243D01*
X110594339Y-118744758D01*
X110172500Y-118919058D01*
X110172500Y-117983005D01*
X110172501Y-117983000D01*
X110128998Y-117764297D01*
X110062984Y-117665500D01*
X110005112Y-117578888D01*
X110005109Y-117578886D01*
X108973009Y-116546785D01*
X109488938Y-116547235D01*
X109988240Y-116340928D01*
X110370585Y-115959250D01*
X110577764Y-115460308D01*
X110578235Y-114920062D01*
X110371928Y-114420760D01*
X109990250Y-114038415D01*
X109702575Y-113918962D01*
X109988240Y-113800928D01*
X110370585Y-113419250D01*
X110577764Y-112920308D01*
X110578235Y-112380062D01*
X110371928Y-111880760D01*
X109990250Y-111498415D01*
X109491308Y-111291236D01*
X108951062Y-111290765D01*
X108521500Y-111468256D01*
X108521500Y-105478834D01*
X108901722Y-105479166D01*
X109253954Y-105333626D01*
X109523679Y-105064372D01*
X109669833Y-104712394D01*
X109670166Y-104331278D01*
X109524626Y-103979046D01*
X109255372Y-103709321D01*
X108903394Y-103563167D01*
X108555949Y-103562863D01*
X108556127Y-103359837D01*
X108444769Y-103090331D01*
X108238753Y-102883955D01*
X107969442Y-102772128D01*
X107677837Y-102771873D01*
X107505522Y-102843072D01*
X107505522Y-99208810D01*
X107505523Y-99208805D01*
X107505500Y-99208689D01*
X107505500Y-95994724D01*
X107736848Y-95763376D01*
X107736848Y-97193100D01*
X107736848Y-97193100D01*
G37*
X107736848Y-97193100D02*
X107776275Y-97391312D01*
X107888553Y-97559347D01*
X108056588Y-97671625D01*
X108254800Y-97711052D01*
X109398727Y-97711052D01*
X109419102Y-97731427D01*
X109652491Y-97828100D01*
X109912150Y-97828100D01*
X110070900Y-97669350D01*
X110070900Y-96793050D01*
X109941152Y-96793050D01*
X109941152Y-95992950D01*
X110070900Y-95992950D01*
X110070900Y-95865000D01*
X110655100Y-95865000D01*
X110655100Y-95992950D01*
X110891000Y-95992950D01*
X110891000Y-96793050D01*
X110655100Y-96793050D01*
X110655100Y-97669350D01*
X110670572Y-97684822D01*
X110548167Y-97979606D01*
X110547834Y-98360722D01*
X110693374Y-98712954D01*
X110962628Y-98982679D01*
X111314606Y-99128833D01*
X111695722Y-99129166D01*
X111823467Y-99076383D01*
X111823467Y-117746309D01*
X111736888Y-117832888D01*
X111613003Y-118018296D01*
X111613003Y-118018297D01*
X111569499Y-118237000D01*
X111569500Y-118237005D01*
X111569500Y-118919393D01*
X111150100Y-118745243D01*
X110594339Y-118744758D01*
X110172500Y-118919058D01*
X110172500Y-117983005D01*
X110172501Y-117983000D01*
X110128998Y-117764297D01*
X110062984Y-117665500D01*
X110005112Y-117578888D01*
X110005109Y-117578886D01*
X108973009Y-116546785D01*
X109488938Y-116547235D01*
X109988240Y-116340928D01*
X110370585Y-115959250D01*
X110577764Y-115460308D01*
X110578235Y-114920062D01*
X110371928Y-114420760D01*
X109990250Y-114038415D01*
X109702575Y-113918962D01*
X109988240Y-113800928D01*
X110370585Y-113419250D01*
X110577764Y-112920308D01*
X110578235Y-112380062D01*
X110371928Y-111880760D01*
X109990250Y-111498415D01*
X109491308Y-111291236D01*
X108951062Y-111290765D01*
X108521500Y-111468256D01*
X108521500Y-105478834D01*
X108901722Y-105479166D01*
X109253954Y-105333626D01*
X109523679Y-105064372D01*
X109669833Y-104712394D01*
X109670166Y-104331278D01*
X109524626Y-103979046D01*
X109255372Y-103709321D01*
X108903394Y-103563167D01*
X108555949Y-103562863D01*
X108556127Y-103359837D01*
X108444769Y-103090331D01*
X108238753Y-102883955D01*
X107969442Y-102772128D01*
X107677837Y-102771873D01*
X107505522Y-102843072D01*
X107505522Y-99208810D01*
X107505523Y-99208805D01*
X107505500Y-99208689D01*
X107505500Y-95994724D01*
X107736848Y-95763376D01*
X107736848Y-97193100D01*
G36*
X80708500Y-118761188D02*
X80670100Y-118745243D01*
X80114339Y-118744758D01*
X79692500Y-118919058D01*
X79692500Y-115649578D01*
X79736558Y-115667872D01*
X80028163Y-115668127D01*
X80297669Y-115556769D01*
X80504045Y-115350753D01*
X80615872Y-115081442D01*
X80616127Y-114789837D01*
X80504769Y-114520331D01*
X80298753Y-114313955D01*
X80200500Y-114273157D01*
X80200500Y-105519724D01*
X80708500Y-105011724D01*
X80708500Y-118761188D01*
X80708500Y-118761188D01*
G37*
X80708500Y-118761188D02*
X80670100Y-118745243D01*
X80114339Y-118744758D01*
X79692500Y-118919058D01*
X79692500Y-115649578D01*
X79736558Y-115667872D01*
X80028163Y-115668127D01*
X80297669Y-115556769D01*
X80504045Y-115350753D01*
X80615872Y-115081442D01*
X80616127Y-114789837D01*
X80504769Y-114520331D01*
X80298753Y-114313955D01*
X80200500Y-114273157D01*
X80200500Y-105519724D01*
X80708500Y-105011724D01*
X80708500Y-118761188D01*
G36*
X70674606Y-95953833D02*
X71055722Y-95954166D01*
X71323334Y-95843591D01*
X71396995Y-95953833D01*
X71408889Y-95971634D01*
X77014610Y-101577354D01*
X77014313Y-101916722D01*
X77159853Y-102268954D01*
X77429107Y-102538679D01*
X77659451Y-102634326D01*
X76615876Y-103677900D01*
X76491991Y-103863308D01*
X76491991Y-103863309D01*
X76448487Y-104082012D01*
X76448488Y-104082017D01*
X76448488Y-115246983D01*
X76448487Y-115246988D01*
X76476666Y-115388650D01*
X76491991Y-115465692D01*
X76606829Y-115637560D01*
X76615876Y-115651100D01*
X77050853Y-116086077D01*
X76636621Y-116085716D01*
X76032531Y-116335320D01*
X75569945Y-116797100D01*
X75319286Y-117400753D01*
X75318858Y-117891720D01*
X75257595Y-117952983D01*
X74862634Y-117510452D01*
X73424098Y-117065539D01*
X71924803Y-117204996D01*
X71187366Y-117510452D01*
X70792405Y-117952982D01*
X70657138Y-117817715D01*
X70355000Y-118119853D01*
X70355000Y-95821121D01*
X70674606Y-95953833D01*
X70674606Y-95953833D01*
G37*
X70674606Y-95953833D02*
X71055722Y-95954166D01*
X71323334Y-95843591D01*
X71396995Y-95953833D01*
X71408889Y-95971634D01*
X77014610Y-101577354D01*
X77014313Y-101916722D01*
X77159853Y-102268954D01*
X77429107Y-102538679D01*
X77659451Y-102634326D01*
X76615876Y-103677900D01*
X76491991Y-103863308D01*
X76491991Y-103863309D01*
X76448487Y-104082012D01*
X76448488Y-104082017D01*
X76448488Y-115246983D01*
X76448487Y-115246988D01*
X76476666Y-115388650D01*
X76491991Y-115465692D01*
X76606829Y-115637560D01*
X76615876Y-115651100D01*
X77050853Y-116086077D01*
X76636621Y-116085716D01*
X76032531Y-116335320D01*
X75569945Y-116797100D01*
X75319286Y-117400753D01*
X75318858Y-117891720D01*
X75257595Y-117952983D01*
X74862634Y-117510452D01*
X73424098Y-117065539D01*
X71924803Y-117204996D01*
X71187366Y-117510452D01*
X70792405Y-117952982D01*
X70657138Y-117817715D01*
X70355000Y-118119853D01*
X70355000Y-95821121D01*
X70674606Y-95953833D01*
G36*
X99733873Y-112576168D02*
X99661041Y-112649000D01*
X99733873Y-112721832D01*
X99132832Y-113322873D01*
X99060000Y-113250041D01*
X98987168Y-113322873D01*
X98386127Y-112721832D01*
X98458959Y-112649000D01*
X98386127Y-112576168D01*
X98987168Y-111975127D01*
X99060000Y-112047959D01*
X99132832Y-111975127D01*
X99733873Y-112576168D01*
X99733873Y-112576168D01*
G37*
X99733873Y-112576168D02*
X99661041Y-112649000D01*
X99733873Y-112721832D01*
X99132832Y-113322873D01*
X99060000Y-113250041D01*
X98987168Y-113322873D01*
X98386127Y-112721832D01*
X98458959Y-112649000D01*
X98386127Y-112576168D01*
X98987168Y-111975127D01*
X99060000Y-112047959D01*
X99132832Y-111975127D01*
X99733873Y-112576168D01*
G36*
X115062000Y-95494100D02*
X115062000Y-96647000D01*
X115071667Y-96695601D01*
X115099197Y-96736803D01*
X115140399Y-96764333D01*
X115189000Y-96774000D01*
X117527357Y-96774000D01*
X117398309Y-97084782D01*
X117397692Y-97792114D01*
X117667806Y-98445840D01*
X118167529Y-98946436D01*
X118820782Y-99217691D01*
X119528114Y-99218308D01*
X120181840Y-98948194D01*
X120682436Y-98448471D01*
X120953691Y-97795218D01*
X120953717Y-97765323D01*
X122846306Y-99657912D01*
X122725580Y-99738579D01*
X122090580Y-100373580D01*
X121870338Y-100703193D01*
X121870338Y-100703194D01*
X121793000Y-101092000D01*
X121793000Y-101476667D01*
X121571637Y-101476473D01*
X121302131Y-101587831D01*
X121095755Y-101793847D01*
X120983928Y-102063158D01*
X120983673Y-102354763D01*
X121095031Y-102624269D01*
X121145300Y-102674626D01*
X121145300Y-108381795D01*
X121145299Y-108381800D01*
X121173088Y-108521500D01*
X121188803Y-108600504D01*
X121240081Y-108677247D01*
X121312688Y-108785912D01*
X121619776Y-109093000D01*
X121204223Y-109093000D01*
X118173500Y-106062276D01*
X118173500Y-104521005D01*
X118173501Y-104521000D01*
X118129997Y-104302297D01*
X118129997Y-104302296D01*
X118006112Y-104116888D01*
X118006109Y-104116886D01*
X115847112Y-101957888D01*
X115828876Y-101945703D01*
X115661704Y-101834003D01*
X115625418Y-101826785D01*
X115443000Y-101790499D01*
X115442995Y-101790500D01*
X115155391Y-101790500D01*
X115155543Y-101616347D01*
X115044185Y-101346841D01*
X114965473Y-101267992D01*
X115111540Y-101122180D01*
X115257694Y-100770202D01*
X115258027Y-100389086D01*
X115112487Y-100036854D01*
X114843233Y-99767129D01*
X114491255Y-99620975D01*
X114110139Y-99620642D01*
X113982511Y-99673377D01*
X113982511Y-97264735D01*
X115374131Y-98656355D01*
X115373834Y-98995722D01*
X115519374Y-99347954D01*
X115788628Y-99617679D01*
X116140606Y-99763833D01*
X116521722Y-99764166D01*
X116873954Y-99618626D01*
X117143679Y-99349372D01*
X117289833Y-98997394D01*
X117290166Y-98616278D01*
X117144626Y-98264046D01*
X116875372Y-97994321D01*
X116523394Y-97848167D01*
X116182093Y-97847869D01*
X114300000Y-95965776D01*
X114300000Y-95885005D01*
X114300001Y-95885000D01*
X114256498Y-95666297D01*
X114205002Y-95589228D01*
X114132612Y-95480888D01*
X114132609Y-95480886D01*
X113354657Y-94702934D01*
X113444948Y-94665626D01*
X113714673Y-94396372D01*
X113777992Y-94243882D01*
X115062000Y-95494100D01*
X115062000Y-95494100D01*
G37*
X115062000Y-95494100D02*
X115062000Y-96647000D01*
X115071667Y-96695601D01*
X115099197Y-96736803D01*
X115140399Y-96764333D01*
X115189000Y-96774000D01*
X117527357Y-96774000D01*
X117398309Y-97084782D01*
X117397692Y-97792114D01*
X117667806Y-98445840D01*
X118167529Y-98946436D01*
X118820782Y-99217691D01*
X119528114Y-99218308D01*
X120181840Y-98948194D01*
X120682436Y-98448471D01*
X120953691Y-97795218D01*
X120953717Y-97765323D01*
X122846306Y-99657912D01*
X122725580Y-99738579D01*
X122090580Y-100373580D01*
X121870338Y-100703193D01*
X121870338Y-100703194D01*
X121793000Y-101092000D01*
X121793000Y-101476667D01*
X121571637Y-101476473D01*
X121302131Y-101587831D01*
X121095755Y-101793847D01*
X120983928Y-102063158D01*
X120983673Y-102354763D01*
X121095031Y-102624269D01*
X121145300Y-102674626D01*
X121145300Y-108381795D01*
X121145299Y-108381800D01*
X121173088Y-108521500D01*
X121188803Y-108600504D01*
X121240081Y-108677247D01*
X121312688Y-108785912D01*
X121619776Y-109093000D01*
X121204223Y-109093000D01*
X118173500Y-106062276D01*
X118173500Y-104521005D01*
X118173501Y-104521000D01*
X118129997Y-104302297D01*
X118129997Y-104302296D01*
X118006112Y-104116888D01*
X118006109Y-104116886D01*
X115847112Y-101957888D01*
X115828876Y-101945703D01*
X115661704Y-101834003D01*
X115625418Y-101826785D01*
X115443000Y-101790499D01*
X115442995Y-101790500D01*
X115155391Y-101790500D01*
X115155543Y-101616347D01*
X115044185Y-101346841D01*
X114965473Y-101267992D01*
X115111540Y-101122180D01*
X115257694Y-100770202D01*
X115258027Y-100389086D01*
X115112487Y-100036854D01*
X114843233Y-99767129D01*
X114491255Y-99620975D01*
X114110139Y-99620642D01*
X113982511Y-99673377D01*
X113982511Y-97264735D01*
X115374131Y-98656355D01*
X115373834Y-98995722D01*
X115519374Y-99347954D01*
X115788628Y-99617679D01*
X116140606Y-99763833D01*
X116521722Y-99764166D01*
X116873954Y-99618626D01*
X117143679Y-99349372D01*
X117289833Y-98997394D01*
X117290166Y-98616278D01*
X117144626Y-98264046D01*
X116875372Y-97994321D01*
X116523394Y-97848167D01*
X116182093Y-97847869D01*
X114300000Y-95965776D01*
X114300000Y-95885005D01*
X114300001Y-95885000D01*
X114256498Y-95666297D01*
X114205002Y-95589228D01*
X114132612Y-95480888D01*
X114132609Y-95480886D01*
X113354657Y-94702934D01*
X113444948Y-94665626D01*
X113714673Y-94396372D01*
X113777992Y-94243882D01*
X115062000Y-95494100D01*
G36*
X114022903Y-103020120D02*
X114022905Y-103020123D01*
X114208313Y-103144008D01*
X114223913Y-103147111D01*
X114427017Y-103187512D01*
X114427022Y-103187511D01*
X115101063Y-103187511D01*
X115970050Y-104056497D01*
X115970050Y-104609900D01*
X116098000Y-104609900D01*
X116098000Y-105016059D01*
X115971412Y-104931475D01*
X115773200Y-104892048D01*
X115366800Y-104892048D01*
X115168588Y-104931475D01*
X115000553Y-105043753D01*
X114900094Y-105194100D01*
X114293650Y-105194100D01*
X114134900Y-105352850D01*
X114134900Y-105442840D01*
X113982511Y-105473152D01*
X113982511Y-104191491D01*
X114134900Y-104191491D01*
X114134900Y-104451150D01*
X114293650Y-104609900D01*
X115169950Y-104609900D01*
X115169950Y-103841550D01*
X115011200Y-103682800D01*
X114643590Y-103682800D01*
X114410201Y-103779473D01*
X114231573Y-103958102D01*
X114134900Y-104191491D01*
X113982511Y-104191491D01*
X113982511Y-102979728D01*
X114022903Y-103020120D01*
X114022903Y-103020120D01*
G37*
X114022903Y-103020120D02*
X114022905Y-103020123D01*
X114208313Y-103144008D01*
X114223913Y-103147111D01*
X114427017Y-103187512D01*
X114427022Y-103187511D01*
X115101063Y-103187511D01*
X115970050Y-104056497D01*
X115970050Y-104609900D01*
X116098000Y-104609900D01*
X116098000Y-105016059D01*
X115971412Y-104931475D01*
X115773200Y-104892048D01*
X115366800Y-104892048D01*
X115168588Y-104931475D01*
X115000553Y-105043753D01*
X114900094Y-105194100D01*
X114293650Y-105194100D01*
X114134900Y-105352850D01*
X114134900Y-105442840D01*
X113982511Y-105473152D01*
X113982511Y-104191491D01*
X114134900Y-104191491D01*
X114134900Y-104451150D01*
X114293650Y-104609900D01*
X115169950Y-104609900D01*
X115169950Y-103841550D01*
X115011200Y-103682800D01*
X114643590Y-103682800D01*
X114410201Y-103779473D01*
X114231573Y-103958102D01*
X114134900Y-104191491D01*
X113982511Y-104191491D01*
X113982511Y-102979728D01*
X114022903Y-103020120D01*
G36*
X73215500Y-82659723D02*
X73215500Y-86867995D01*
X73215499Y-86868000D01*
X73245359Y-87018112D01*
X73259003Y-87086704D01*
X73343854Y-87213693D01*
X73382888Y-87272112D01*
X74612500Y-88501723D01*
X74612500Y-94366516D01*
X74612499Y-94366521D01*
X74638349Y-94496474D01*
X74656003Y-94585225D01*
X74709725Y-94665626D01*
X74779888Y-94770633D01*
X77014610Y-97005354D01*
X77014313Y-97344722D01*
X77159853Y-97696954D01*
X77429107Y-97966679D01*
X77781085Y-98112833D01*
X78041489Y-98113061D01*
X78041489Y-100769060D01*
X77822571Y-100768869D01*
X72867084Y-95813381D01*
X73185954Y-95681626D01*
X73455679Y-95412372D01*
X73601833Y-95060394D01*
X73602166Y-94679278D01*
X73456626Y-94327046D01*
X73187372Y-94057321D01*
X72835394Y-93911167D01*
X72454278Y-93910834D01*
X72384501Y-93939665D01*
X72384501Y-83127106D01*
X72452722Y-83127166D01*
X72804954Y-82981626D01*
X73074679Y-82712372D01*
X73131444Y-82575667D01*
X73215500Y-82659723D01*
X73215500Y-82659723D01*
G37*
X73215500Y-82659723D02*
X73215500Y-86867995D01*
X73215499Y-86868000D01*
X73245359Y-87018112D01*
X73259003Y-87086704D01*
X73343854Y-87213693D01*
X73382888Y-87272112D01*
X74612500Y-88501723D01*
X74612500Y-94366516D01*
X74612499Y-94366521D01*
X74638349Y-94496474D01*
X74656003Y-94585225D01*
X74709725Y-94665626D01*
X74779888Y-94770633D01*
X77014610Y-97005354D01*
X77014313Y-97344722D01*
X77159853Y-97696954D01*
X77429107Y-97966679D01*
X77781085Y-98112833D01*
X78041489Y-98113061D01*
X78041489Y-100769060D01*
X77822571Y-100768869D01*
X72867084Y-95813381D01*
X73185954Y-95681626D01*
X73455679Y-95412372D01*
X73601833Y-95060394D01*
X73602166Y-94679278D01*
X73456626Y-94327046D01*
X73187372Y-94057321D01*
X72835394Y-93911167D01*
X72454278Y-93910834D01*
X72384501Y-93939665D01*
X72384501Y-83127106D01*
X72452722Y-83127166D01*
X72804954Y-82981626D01*
X73074679Y-82712372D01*
X73131444Y-82575667D01*
X73215500Y-82659723D01*
G36*
X106185903Y-72479779D02*
X105810597Y-72854430D01*
X105607232Y-73344187D01*
X105606769Y-73874487D01*
X105809279Y-74364597D01*
X106183930Y-74739903D01*
X106277161Y-74778616D01*
X105005855Y-76049921D01*
X104881970Y-76235329D01*
X104878780Y-76251367D01*
X104838466Y-76454033D01*
X104838467Y-76454038D01*
X104838467Y-81025962D01*
X104838466Y-81025967D01*
X104869902Y-81184000D01*
X104881970Y-81244671D01*
X104921019Y-81303112D01*
X105005855Y-81430079D01*
X107421861Y-83846084D01*
X107084778Y-83845790D01*
X106638788Y-84030069D01*
X106297268Y-84370994D01*
X106112211Y-84816661D01*
X106111790Y-85299222D01*
X106296069Y-85745212D01*
X106636994Y-86086732D01*
X107082661Y-86271789D01*
X107565222Y-86272210D01*
X108011212Y-86087931D01*
X108352732Y-85747006D01*
X108537789Y-85301339D01*
X108538085Y-84962308D01*
X109410445Y-85834668D01*
X109410445Y-89513443D01*
X109382372Y-89485321D01*
X109030394Y-89339167D01*
X108649278Y-89338834D01*
X108297046Y-89484374D01*
X108027321Y-89753628D01*
X107949990Y-89939861D01*
X107873626Y-89755046D01*
X107604372Y-89485321D01*
X107252394Y-89339167D01*
X106871278Y-89338834D01*
X106519046Y-89484374D01*
X106249321Y-89753628D01*
X106171990Y-89939861D01*
X106095626Y-89755046D01*
X105826372Y-89485321D01*
X105474394Y-89339167D01*
X105093278Y-89338834D01*
X104741046Y-89484374D01*
X104471321Y-89753628D01*
X104325167Y-90105606D01*
X104324834Y-90486722D01*
X104470374Y-90838954D01*
X104739628Y-91108679D01*
X105091606Y-91254833D01*
X105472722Y-91255166D01*
X105824954Y-91109626D01*
X106094679Y-90840372D01*
X106172010Y-90654139D01*
X106248374Y-90838954D01*
X106517628Y-91108679D01*
X106869606Y-91254833D01*
X107250722Y-91255166D01*
X107602954Y-91109626D01*
X107872679Y-90840372D01*
X107950010Y-90654139D01*
X108026374Y-90838954D01*
X108295628Y-91108679D01*
X108647606Y-91254833D01*
X109028722Y-91255166D01*
X109380954Y-91109626D01*
X109410445Y-91080186D01*
X109410445Y-92473332D01*
X106529888Y-95353888D01*
X106406003Y-95539296D01*
X106398785Y-95575582D01*
X106362499Y-95758000D01*
X106362500Y-95758005D01*
X106362500Y-98188284D01*
X105762066Y-97587850D01*
X105762127Y-97517845D01*
X105650769Y-97248339D01*
X105444753Y-97041963D01*
X105175442Y-96930136D01*
X105104289Y-96930074D01*
X103528104Y-95353888D01*
X103509868Y-95341703D01*
X103342696Y-95230003D01*
X103306410Y-95222785D01*
X103123992Y-95186499D01*
X103123987Y-95186500D01*
X101841997Y-95186500D01*
X101847848Y-95172410D01*
X101848155Y-94821131D01*
X101714009Y-94496474D01*
X101465834Y-94247866D01*
X101141412Y-94113154D01*
X100790133Y-94112847D01*
X100465476Y-94246993D01*
X100216868Y-94495168D01*
X100082156Y-94819590D01*
X100081849Y-95170869D01*
X100088308Y-95186500D01*
X99169724Y-95186500D01*
X94332939Y-90349715D01*
X94677606Y-90492833D01*
X95058722Y-90493166D01*
X95074317Y-90486722D01*
X96704834Y-90486722D01*
X96850374Y-90838954D01*
X97119628Y-91108679D01*
X97471606Y-91254833D01*
X97852722Y-91255166D01*
X98204954Y-91109626D01*
X98474679Y-90840372D01*
X98620833Y-90488394D01*
X98620834Y-90486722D01*
X98990834Y-90486722D01*
X99136374Y-90838954D01*
X99405628Y-91108679D01*
X99757606Y-91254833D01*
X100138722Y-91255166D01*
X100490954Y-91109626D01*
X100760679Y-90840372D01*
X100838010Y-90654139D01*
X100914374Y-90838954D01*
X101183628Y-91108679D01*
X101535606Y-91254833D01*
X101916722Y-91255166D01*
X102268954Y-91109626D01*
X102538679Y-90840372D01*
X102684833Y-90488394D01*
X102685166Y-90107278D01*
X102539626Y-89755046D01*
X102270372Y-89485321D01*
X101918394Y-89339167D01*
X101537278Y-89338834D01*
X101185046Y-89484374D01*
X100915321Y-89753628D01*
X100837990Y-89939861D01*
X100761626Y-89755046D01*
X100492372Y-89485321D01*
X100140394Y-89339167D01*
X99759278Y-89338834D01*
X99407046Y-89484374D01*
X99137321Y-89753628D01*
X98991167Y-90105606D01*
X98990834Y-90486722D01*
X98620834Y-90486722D01*
X98621166Y-90107278D01*
X98475626Y-89755046D01*
X98206372Y-89485321D01*
X97854394Y-89339167D01*
X97473278Y-89338834D01*
X97121046Y-89484374D01*
X96851321Y-89753628D01*
X96705167Y-90105606D01*
X96704834Y-90486722D01*
X95074317Y-90486722D01*
X95410954Y-90347626D01*
X95680679Y-90078372D01*
X95826833Y-89726394D01*
X95827166Y-89345278D01*
X95681626Y-88993046D01*
X95412372Y-88723321D01*
X95060394Y-88577167D01*
X94679278Y-88576834D01*
X94327046Y-88722374D01*
X94057321Y-88991628D01*
X93911167Y-89343606D01*
X93910834Y-89724722D01*
X94053695Y-90070471D01*
X93887499Y-89904275D01*
X93887499Y-87839222D01*
X97221790Y-87839222D01*
X97406069Y-88285212D01*
X97746994Y-88626732D01*
X98192661Y-88811789D01*
X98675222Y-88812210D01*
X99121212Y-88627931D01*
X99462732Y-88287006D01*
X99647789Y-87841339D01*
X99647790Y-87839222D01*
X99761790Y-87839222D01*
X99946069Y-88285212D01*
X100286994Y-88626732D01*
X100732661Y-88811789D01*
X101215222Y-88812210D01*
X101661212Y-88627931D01*
X102002732Y-88287006D01*
X102187789Y-87841339D01*
X102187790Y-87839222D01*
X102301790Y-87839222D01*
X102486069Y-88285212D01*
X102826994Y-88626732D01*
X103272661Y-88811789D01*
X103755222Y-88812210D01*
X104201212Y-88627931D01*
X104542732Y-88287006D01*
X104727789Y-87841339D01*
X104727790Y-87839222D01*
X104841790Y-87839222D01*
X105026069Y-88285212D01*
X105366994Y-88626732D01*
X105812661Y-88811789D01*
X106295222Y-88812210D01*
X106741212Y-88627931D01*
X107082732Y-88287006D01*
X107267789Y-87841339D01*
X107268210Y-87358778D01*
X107083931Y-86912788D01*
X106743006Y-86571268D01*
X106297339Y-86386211D01*
X105814778Y-86385790D01*
X105368788Y-86570069D01*
X105027268Y-86910994D01*
X104842211Y-87356661D01*
X104841790Y-87839222D01*
X104727790Y-87839222D01*
X104728210Y-87358778D01*
X104543931Y-86912788D01*
X104203006Y-86571268D01*
X103757339Y-86386211D01*
X103274778Y-86385790D01*
X102828788Y-86570069D01*
X102487268Y-86910994D01*
X102302211Y-87356661D01*
X102301790Y-87839222D01*
X102187790Y-87839222D01*
X102188210Y-87358778D01*
X102003931Y-86912788D01*
X101663006Y-86571268D01*
X101217339Y-86386211D01*
X100734778Y-86385790D01*
X100288788Y-86570069D01*
X99947268Y-86910994D01*
X99762211Y-87356661D01*
X99761790Y-87839222D01*
X99647790Y-87839222D01*
X99648210Y-87358778D01*
X99463931Y-86912788D01*
X99123006Y-86571268D01*
X98677339Y-86386211D01*
X98194778Y-86385790D01*
X97748788Y-86570069D01*
X97407268Y-86910994D01*
X97222211Y-87356661D01*
X97221790Y-87839222D01*
X93887499Y-87839222D01*
X93887499Y-85299222D01*
X98491790Y-85299222D01*
X98676069Y-85745212D01*
X99016994Y-86086732D01*
X99462661Y-86271789D01*
X99945222Y-86272210D01*
X100391212Y-86087931D01*
X100732732Y-85747006D01*
X100917789Y-85301339D01*
X100917790Y-85299222D01*
X101031790Y-85299222D01*
X101216069Y-85745212D01*
X101556994Y-86086732D01*
X102002661Y-86271789D01*
X102485222Y-86272210D01*
X102931212Y-86087931D01*
X103272732Y-85747006D01*
X103457789Y-85301339D01*
X103457790Y-85299222D01*
X103571790Y-85299222D01*
X103756069Y-85745212D01*
X104096994Y-86086732D01*
X104542661Y-86271789D01*
X105025222Y-86272210D01*
X105471212Y-86087931D01*
X105812732Y-85747006D01*
X105997789Y-85301339D01*
X105998210Y-84818778D01*
X105813931Y-84372788D01*
X105473006Y-84031268D01*
X105027339Y-83846211D01*
X104544778Y-83845790D01*
X104098788Y-84030069D01*
X103757268Y-84370994D01*
X103572211Y-84816661D01*
X103571790Y-85299222D01*
X103457790Y-85299222D01*
X103458210Y-84818778D01*
X103273931Y-84372788D01*
X102933006Y-84031268D01*
X102487339Y-83846211D01*
X102004778Y-83845790D01*
X101558788Y-84030069D01*
X101217268Y-84370994D01*
X101032211Y-84816661D01*
X101031790Y-85299222D01*
X100917790Y-85299222D01*
X100918210Y-84818778D01*
X100733931Y-84372788D01*
X100393006Y-84031268D01*
X99947339Y-83846211D01*
X99464778Y-83845790D01*
X99018788Y-84030069D01*
X98677268Y-84370994D01*
X98492211Y-84816661D01*
X98491790Y-85299222D01*
X93887499Y-85299222D01*
X93887499Y-84171988D01*
X93887500Y-84171983D01*
X93843996Y-83953280D01*
X93843996Y-83953279D01*
X93720111Y-83767871D01*
X93720108Y-83767869D01*
X91729198Y-81776958D01*
X93211679Y-81776958D01*
X93493946Y-82460097D01*
X94016154Y-82983217D01*
X94698800Y-83266676D01*
X95437958Y-83267321D01*
X96121097Y-82985054D01*
X96644217Y-82462846D01*
X96927676Y-81780200D01*
X96928321Y-81041042D01*
X96682101Y-80445144D01*
X96733853Y-80466633D01*
X97572468Y-80467365D01*
X98347526Y-80147117D01*
X98941033Y-79554645D01*
X99262633Y-78780147D01*
X99263365Y-77941532D01*
X98943117Y-77166474D01*
X98350645Y-76572967D01*
X97576147Y-76251367D01*
X96737532Y-76250635D01*
X95962474Y-76570883D01*
X95368967Y-77163355D01*
X95047367Y-77937853D01*
X95046635Y-78776468D01*
X95366773Y-79551259D01*
X94702042Y-79550679D01*
X94018903Y-79832946D01*
X93495783Y-80355154D01*
X93212324Y-81037800D01*
X93211679Y-81776958D01*
X91729198Y-81776958D01*
X90903082Y-80950842D01*
X90903143Y-80880837D01*
X90791785Y-80611331D01*
X90585769Y-80404955D01*
X90316458Y-80293128D01*
X90233500Y-80293055D01*
X90233500Y-77960734D01*
X90372158Y-77822076D01*
X90442163Y-77822137D01*
X90711669Y-77710779D01*
X90918045Y-77504763D01*
X91029872Y-77235452D01*
X91029940Y-77158086D01*
X91121722Y-77158166D01*
X91473954Y-77012626D01*
X91743679Y-76743372D01*
X91889833Y-76391394D01*
X91890166Y-76010278D01*
X91744626Y-75658046D01*
X91505611Y-75418613D01*
X91732223Y-75192000D01*
X94433410Y-75192000D01*
X94531580Y-75338920D01*
X94861193Y-75559162D01*
X95250000Y-75636499D01*
X95638807Y-75559162D01*
X95968420Y-75338920D01*
X96363749Y-74943591D01*
X96523987Y-74943731D01*
X97014097Y-74741221D01*
X97389403Y-74366570D01*
X97530095Y-74027747D01*
X97669279Y-74364597D01*
X98043930Y-74739903D01*
X98533687Y-74943268D01*
X99063987Y-74943731D01*
X99554097Y-74741221D01*
X99929403Y-74366570D01*
X100132768Y-73876813D01*
X100133231Y-73346513D01*
X99930721Y-72856403D01*
X99556070Y-72481097D01*
X99183916Y-72326565D01*
X106556708Y-72326565D01*
X106185903Y-72479779D01*
X106185903Y-72479779D01*
G37*
X106185903Y-72479779D02*
X105810597Y-72854430D01*
X105607232Y-73344187D01*
X105606769Y-73874487D01*
X105809279Y-74364597D01*
X106183930Y-74739903D01*
X106277161Y-74778616D01*
X105005855Y-76049921D01*
X104881970Y-76235329D01*
X104878780Y-76251367D01*
X104838466Y-76454033D01*
X104838467Y-76454038D01*
X104838467Y-81025962D01*
X104838466Y-81025967D01*
X104869902Y-81184000D01*
X104881970Y-81244671D01*
X104921019Y-81303112D01*
X105005855Y-81430079D01*
X107421861Y-83846084D01*
X107084778Y-83845790D01*
X106638788Y-84030069D01*
X106297268Y-84370994D01*
X106112211Y-84816661D01*
X106111790Y-85299222D01*
X106296069Y-85745212D01*
X106636994Y-86086732D01*
X107082661Y-86271789D01*
X107565222Y-86272210D01*
X108011212Y-86087931D01*
X108352732Y-85747006D01*
X108537789Y-85301339D01*
X108538085Y-84962308D01*
X109410445Y-85834668D01*
X109410445Y-89513443D01*
X109382372Y-89485321D01*
X109030394Y-89339167D01*
X108649278Y-89338834D01*
X108297046Y-89484374D01*
X108027321Y-89753628D01*
X107949990Y-89939861D01*
X107873626Y-89755046D01*
X107604372Y-89485321D01*
X107252394Y-89339167D01*
X106871278Y-89338834D01*
X106519046Y-89484374D01*
X106249321Y-89753628D01*
X106171990Y-89939861D01*
X106095626Y-89755046D01*
X105826372Y-89485321D01*
X105474394Y-89339167D01*
X105093278Y-89338834D01*
X104741046Y-89484374D01*
X104471321Y-89753628D01*
X104325167Y-90105606D01*
X104324834Y-90486722D01*
X104470374Y-90838954D01*
X104739628Y-91108679D01*
X105091606Y-91254833D01*
X105472722Y-91255166D01*
X105824954Y-91109626D01*
X106094679Y-90840372D01*
X106172010Y-90654139D01*
X106248374Y-90838954D01*
X106517628Y-91108679D01*
X106869606Y-91254833D01*
X107250722Y-91255166D01*
X107602954Y-91109626D01*
X107872679Y-90840372D01*
X107950010Y-90654139D01*
X108026374Y-90838954D01*
X108295628Y-91108679D01*
X108647606Y-91254833D01*
X109028722Y-91255166D01*
X109380954Y-91109626D01*
X109410445Y-91080186D01*
X109410445Y-92473332D01*
X106529888Y-95353888D01*
X106406003Y-95539296D01*
X106398785Y-95575582D01*
X106362499Y-95758000D01*
X106362500Y-95758005D01*
X106362500Y-98188284D01*
X105762066Y-97587850D01*
X105762127Y-97517845D01*
X105650769Y-97248339D01*
X105444753Y-97041963D01*
X105175442Y-96930136D01*
X105104289Y-96930074D01*
X103528104Y-95353888D01*
X103509868Y-95341703D01*
X103342696Y-95230003D01*
X103306410Y-95222785D01*
X103123992Y-95186499D01*
X103123987Y-95186500D01*
X101841997Y-95186500D01*
X101847848Y-95172410D01*
X101848155Y-94821131D01*
X101714009Y-94496474D01*
X101465834Y-94247866D01*
X101141412Y-94113154D01*
X100790133Y-94112847D01*
X100465476Y-94246993D01*
X100216868Y-94495168D01*
X100082156Y-94819590D01*
X100081849Y-95170869D01*
X100088308Y-95186500D01*
X99169724Y-95186500D01*
X94332939Y-90349715D01*
X94677606Y-90492833D01*
X95058722Y-90493166D01*
X95074317Y-90486722D01*
X96704834Y-90486722D01*
X96850374Y-90838954D01*
X97119628Y-91108679D01*
X97471606Y-91254833D01*
X97852722Y-91255166D01*
X98204954Y-91109626D01*
X98474679Y-90840372D01*
X98620833Y-90488394D01*
X98620834Y-90486722D01*
X98990834Y-90486722D01*
X99136374Y-90838954D01*
X99405628Y-91108679D01*
X99757606Y-91254833D01*
X100138722Y-91255166D01*
X100490954Y-91109626D01*
X100760679Y-90840372D01*
X100838010Y-90654139D01*
X100914374Y-90838954D01*
X101183628Y-91108679D01*
X101535606Y-91254833D01*
X101916722Y-91255166D01*
X102268954Y-91109626D01*
X102538679Y-90840372D01*
X102684833Y-90488394D01*
X102685166Y-90107278D01*
X102539626Y-89755046D01*
X102270372Y-89485321D01*
X101918394Y-89339167D01*
X101537278Y-89338834D01*
X101185046Y-89484374D01*
X100915321Y-89753628D01*
X100837990Y-89939861D01*
X100761626Y-89755046D01*
X100492372Y-89485321D01*
X100140394Y-89339167D01*
X99759278Y-89338834D01*
X99407046Y-89484374D01*
X99137321Y-89753628D01*
X98991167Y-90105606D01*
X98990834Y-90486722D01*
X98620834Y-90486722D01*
X98621166Y-90107278D01*
X98475626Y-89755046D01*
X98206372Y-89485321D01*
X97854394Y-89339167D01*
X97473278Y-89338834D01*
X97121046Y-89484374D01*
X96851321Y-89753628D01*
X96705167Y-90105606D01*
X96704834Y-90486722D01*
X95074317Y-90486722D01*
X95410954Y-90347626D01*
X95680679Y-90078372D01*
X95826833Y-89726394D01*
X95827166Y-89345278D01*
X95681626Y-88993046D01*
X95412372Y-88723321D01*
X95060394Y-88577167D01*
X94679278Y-88576834D01*
X94327046Y-88722374D01*
X94057321Y-88991628D01*
X93911167Y-89343606D01*
X93910834Y-89724722D01*
X94053695Y-90070471D01*
X93887499Y-89904275D01*
X93887499Y-87839222D01*
X97221790Y-87839222D01*
X97406069Y-88285212D01*
X97746994Y-88626732D01*
X98192661Y-88811789D01*
X98675222Y-88812210D01*
X99121212Y-88627931D01*
X99462732Y-88287006D01*
X99647789Y-87841339D01*
X99647790Y-87839222D01*
X99761790Y-87839222D01*
X99946069Y-88285212D01*
X100286994Y-88626732D01*
X100732661Y-88811789D01*
X101215222Y-88812210D01*
X101661212Y-88627931D01*
X102002732Y-88287006D01*
X102187789Y-87841339D01*
X102187790Y-87839222D01*
X102301790Y-87839222D01*
X102486069Y-88285212D01*
X102826994Y-88626732D01*
X103272661Y-88811789D01*
X103755222Y-88812210D01*
X104201212Y-88627931D01*
X104542732Y-88287006D01*
X104727789Y-87841339D01*
X104727790Y-87839222D01*
X104841790Y-87839222D01*
X105026069Y-88285212D01*
X105366994Y-88626732D01*
X105812661Y-88811789D01*
X106295222Y-88812210D01*
X106741212Y-88627931D01*
X107082732Y-88287006D01*
X107267789Y-87841339D01*
X107268210Y-87358778D01*
X107083931Y-86912788D01*
X106743006Y-86571268D01*
X106297339Y-86386211D01*
X105814778Y-86385790D01*
X105368788Y-86570069D01*
X105027268Y-86910994D01*
X104842211Y-87356661D01*
X104841790Y-87839222D01*
X104727790Y-87839222D01*
X104728210Y-87358778D01*
X104543931Y-86912788D01*
X104203006Y-86571268D01*
X103757339Y-86386211D01*
X103274778Y-86385790D01*
X102828788Y-86570069D01*
X102487268Y-86910994D01*
X102302211Y-87356661D01*
X102301790Y-87839222D01*
X102187790Y-87839222D01*
X102188210Y-87358778D01*
X102003931Y-86912788D01*
X101663006Y-86571268D01*
X101217339Y-86386211D01*
X100734778Y-86385790D01*
X100288788Y-86570069D01*
X99947268Y-86910994D01*
X99762211Y-87356661D01*
X99761790Y-87839222D01*
X99647790Y-87839222D01*
X99648210Y-87358778D01*
X99463931Y-86912788D01*
X99123006Y-86571268D01*
X98677339Y-86386211D01*
X98194778Y-86385790D01*
X97748788Y-86570069D01*
X97407268Y-86910994D01*
X97222211Y-87356661D01*
X97221790Y-87839222D01*
X93887499Y-87839222D01*
X93887499Y-85299222D01*
X98491790Y-85299222D01*
X98676069Y-85745212D01*
X99016994Y-86086732D01*
X99462661Y-86271789D01*
X99945222Y-86272210D01*
X100391212Y-86087931D01*
X100732732Y-85747006D01*
X100917789Y-85301339D01*
X100917790Y-85299222D01*
X101031790Y-85299222D01*
X101216069Y-85745212D01*
X101556994Y-86086732D01*
X102002661Y-86271789D01*
X102485222Y-86272210D01*
X102931212Y-86087931D01*
X103272732Y-85747006D01*
X103457789Y-85301339D01*
X103457790Y-85299222D01*
X103571790Y-85299222D01*
X103756069Y-85745212D01*
X104096994Y-86086732D01*
X104542661Y-86271789D01*
X105025222Y-86272210D01*
X105471212Y-86087931D01*
X105812732Y-85747006D01*
X105997789Y-85301339D01*
X105998210Y-84818778D01*
X105813931Y-84372788D01*
X105473006Y-84031268D01*
X105027339Y-83846211D01*
X104544778Y-83845790D01*
X104098788Y-84030069D01*
X103757268Y-84370994D01*
X103572211Y-84816661D01*
X103571790Y-85299222D01*
X103457790Y-85299222D01*
X103458210Y-84818778D01*
X103273931Y-84372788D01*
X102933006Y-84031268D01*
X102487339Y-83846211D01*
X102004778Y-83845790D01*
X101558788Y-84030069D01*
X101217268Y-84370994D01*
X101032211Y-84816661D01*
X101031790Y-85299222D01*
X100917790Y-85299222D01*
X100918210Y-84818778D01*
X100733931Y-84372788D01*
X100393006Y-84031268D01*
X99947339Y-83846211D01*
X99464778Y-83845790D01*
X99018788Y-84030069D01*
X98677268Y-84370994D01*
X98492211Y-84816661D01*
X98491790Y-85299222D01*
X93887499Y-85299222D01*
X93887499Y-84171988D01*
X93887500Y-84171983D01*
X93843996Y-83953280D01*
X93843996Y-83953279D01*
X93720111Y-83767871D01*
X93720108Y-83767869D01*
X91729198Y-81776958D01*
X93211679Y-81776958D01*
X93493946Y-82460097D01*
X94016154Y-82983217D01*
X94698800Y-83266676D01*
X95437958Y-83267321D01*
X96121097Y-82985054D01*
X96644217Y-82462846D01*
X96927676Y-81780200D01*
X96928321Y-81041042D01*
X96682101Y-80445144D01*
X96733853Y-80466633D01*
X97572468Y-80467365D01*
X98347526Y-80147117D01*
X98941033Y-79554645D01*
X99262633Y-78780147D01*
X99263365Y-77941532D01*
X98943117Y-77166474D01*
X98350645Y-76572967D01*
X97576147Y-76251367D01*
X96737532Y-76250635D01*
X95962474Y-76570883D01*
X95368967Y-77163355D01*
X95047367Y-77937853D01*
X95046635Y-78776468D01*
X95366773Y-79551259D01*
X94702042Y-79550679D01*
X94018903Y-79832946D01*
X93495783Y-80355154D01*
X93212324Y-81037800D01*
X93211679Y-81776958D01*
X91729198Y-81776958D01*
X90903082Y-80950842D01*
X90903143Y-80880837D01*
X90791785Y-80611331D01*
X90585769Y-80404955D01*
X90316458Y-80293128D01*
X90233500Y-80293055D01*
X90233500Y-77960734D01*
X90372158Y-77822076D01*
X90442163Y-77822137D01*
X90711669Y-77710779D01*
X90918045Y-77504763D01*
X91029872Y-77235452D01*
X91029940Y-77158086D01*
X91121722Y-77158166D01*
X91473954Y-77012626D01*
X91743679Y-76743372D01*
X91889833Y-76391394D01*
X91890166Y-76010278D01*
X91744626Y-75658046D01*
X91505611Y-75418613D01*
X91732223Y-75192000D01*
X94433410Y-75192000D01*
X94531580Y-75338920D01*
X94861193Y-75559162D01*
X95250000Y-75636499D01*
X95638807Y-75559162D01*
X95968420Y-75338920D01*
X96363749Y-74943591D01*
X96523987Y-74943731D01*
X97014097Y-74741221D01*
X97389403Y-74366570D01*
X97530095Y-74027747D01*
X97669279Y-74364597D01*
X98043930Y-74739903D01*
X98533687Y-74943268D01*
X99063987Y-74943731D01*
X99554097Y-74741221D01*
X99929403Y-74366570D01*
X100132768Y-73876813D01*
X100133231Y-73346513D01*
X99930721Y-72856403D01*
X99556070Y-72481097D01*
X99183916Y-72326565D01*
X106556708Y-72326565D01*
X106185903Y-72479779D01*
G36*
X96479741Y-95636965D02*
X96345123Y-95636847D01*
X96020466Y-95770993D01*
X95771858Y-96019168D01*
X95637146Y-96343590D01*
X95636839Y-96694869D01*
X95770985Y-97019526D01*
X95842834Y-97091500D01*
X95740723Y-97091500D01*
X90666593Y-92017369D01*
X90711954Y-91998626D01*
X90953502Y-91757500D01*
X92600276Y-91757500D01*
X96479741Y-95636965D01*
X96479741Y-95636965D01*
G37*
X96479741Y-95636965D02*
X96345123Y-95636847D01*
X96020466Y-95770993D01*
X95771858Y-96019168D01*
X95637146Y-96343590D01*
X95636839Y-96694869D01*
X95770985Y-97019526D01*
X95842834Y-97091500D01*
X95740723Y-97091500D01*
X90666593Y-92017369D01*
X90711954Y-91998626D01*
X90953502Y-91757500D01*
X92600276Y-91757500D01*
X96479741Y-95636965D01*
G36*
X87693500Y-83392777D02*
X84685888Y-86400388D01*
X84562003Y-86585796D01*
X84562003Y-86585797D01*
X84518499Y-86804500D01*
X84518500Y-86804505D01*
X84518500Y-87418788D01*
X84468955Y-87468247D01*
X84357128Y-87737558D01*
X84356873Y-88029163D01*
X84468231Y-88298669D01*
X84674247Y-88505045D01*
X84943558Y-88616872D01*
X84981418Y-88616905D01*
X84962999Y-88709500D01*
X84963000Y-88709505D01*
X84963000Y-90550995D01*
X84962999Y-90551000D01*
X84992859Y-90701111D01*
X85006503Y-90769704D01*
X85097166Y-90905391D01*
X85130388Y-90955112D01*
X87329776Y-93154500D01*
X86952216Y-93154500D01*
X86902757Y-93104955D01*
X86633446Y-92993128D01*
X86341841Y-92992873D01*
X86072335Y-93104231D01*
X85865959Y-93310247D01*
X85754132Y-93579558D01*
X85754059Y-93662500D01*
X85580723Y-93662500D01*
X85442066Y-93523842D01*
X85442127Y-93453837D01*
X85330769Y-93184331D01*
X85124753Y-92977955D01*
X84855442Y-92866128D01*
X84563837Y-92865873D01*
X84294331Y-92977231D01*
X84150267Y-93121043D01*
X84137500Y-93108276D01*
X84137500Y-90297000D01*
X84093997Y-90078296D01*
X83970112Y-89892888D01*
X83970109Y-89892886D01*
X83462112Y-89384888D01*
X83276704Y-89261003D01*
X83240418Y-89253785D01*
X83058000Y-89217499D01*
X83057995Y-89217500D01*
X82550000Y-89217500D01*
X82331296Y-89261003D01*
X82145888Y-89384888D01*
X82145886Y-89384891D01*
X81775218Y-89755558D01*
X81695753Y-89675955D01*
X81426442Y-89564128D01*
X81134837Y-89563873D01*
X80865331Y-89675231D01*
X80658955Y-89881247D01*
X80547128Y-90150558D01*
X80546873Y-90442163D01*
X80611292Y-90598069D01*
X79854066Y-89840842D01*
X79854127Y-89770837D01*
X79742769Y-89501331D01*
X79536753Y-89294955D01*
X79267442Y-89183128D01*
X78975837Y-89182873D01*
X78706331Y-89294231D01*
X78499955Y-89500247D01*
X78388128Y-89769558D01*
X78387873Y-90061163D01*
X78499231Y-90330669D01*
X78564839Y-90396392D01*
X78507033Y-90535605D01*
X78506778Y-90827210D01*
X78618136Y-91096716D01*
X78668405Y-91147073D01*
X78668405Y-92719181D01*
X78295500Y-92346276D01*
X78295500Y-91143212D01*
X78345045Y-91093753D01*
X78456872Y-90824442D01*
X78457127Y-90532837D01*
X78345769Y-90263331D01*
X78139753Y-90056955D01*
X77870442Y-89945128D01*
X77578837Y-89944873D01*
X77309331Y-90056231D01*
X77276378Y-90089126D01*
X77235442Y-90072128D01*
X76943837Y-90071873D01*
X76898500Y-90090606D01*
X76898500Y-89009724D01*
X78382109Y-87526114D01*
X78382112Y-87526112D01*
X78470277Y-87394163D01*
X78505998Y-87340703D01*
X78549501Y-87122000D01*
X78549500Y-87121995D01*
X78549500Y-86698212D01*
X78599045Y-86648753D01*
X78710872Y-86379442D01*
X78711127Y-86087837D01*
X78599769Y-85818331D01*
X78474857Y-85693201D01*
X78491165Y-85643684D01*
X79700035Y-85643684D01*
X79768198Y-85850656D01*
X80271025Y-85942828D01*
X80734402Y-85850656D01*
X80802565Y-85643684D01*
X82062235Y-85643684D01*
X82130398Y-85850656D01*
X82633225Y-85942828D01*
X83096602Y-85850656D01*
X83164765Y-85643684D01*
X82613500Y-85092419D01*
X82062235Y-85643684D01*
X80802565Y-85643684D01*
X80251300Y-85092419D01*
X79700035Y-85643684D01*
X78491165Y-85643684D01*
X77939900Y-85092419D01*
X77796357Y-85235962D01*
X77336738Y-84776343D01*
X77480281Y-84632800D01*
X78399519Y-84632800D01*
X78950784Y-85184065D01*
X79095600Y-85136372D01*
X79240416Y-85184065D01*
X79791681Y-84632800D01*
X80710919Y-84632800D01*
X81262184Y-85184065D01*
X81432400Y-85128007D01*
X81602616Y-85184065D01*
X82153881Y-84632800D01*
X83073119Y-84632800D01*
X83624384Y-85184065D01*
X83831356Y-85115902D01*
X83923528Y-84613075D01*
X83831356Y-84149698D01*
X83624384Y-84081535D01*
X83073119Y-84632800D01*
X82153881Y-84632800D01*
X81602616Y-84081535D01*
X81432400Y-84137593D01*
X81262184Y-84081535D01*
X80710919Y-84632800D01*
X79791681Y-84632800D01*
X79240416Y-84081535D01*
X79095600Y-84129228D01*
X78950784Y-84081535D01*
X78399519Y-84632800D01*
X77480281Y-84632800D01*
X77336738Y-84489257D01*
X77796357Y-84029638D01*
X77939900Y-84173181D01*
X78457318Y-83655763D01*
X79598644Y-83655763D01*
X79721064Y-83876458D01*
X79988866Y-83910747D01*
X80251300Y-84173181D01*
X80490041Y-83934440D01*
X80781536Y-83876458D01*
X80903956Y-83655763D01*
X80769397Y-83521204D01*
X80734402Y-83414944D01*
X80647141Y-83398948D01*
X80428077Y-83179884D01*
X82062235Y-83179884D01*
X82130398Y-83386856D01*
X82203884Y-83400327D01*
X82130398Y-83414944D01*
X82062235Y-83621916D01*
X82613500Y-84173181D01*
X83164765Y-83621916D01*
X83096602Y-83414944D01*
X83023116Y-83401473D01*
X83096602Y-83386856D01*
X83164765Y-83179884D01*
X82613500Y-82628619D01*
X82062235Y-83179884D01*
X80428077Y-83179884D01*
X80251300Y-83003107D01*
X79857158Y-83397249D01*
X79768198Y-83414944D01*
X79733203Y-83521204D01*
X79598644Y-83655763D01*
X78457318Y-83655763D01*
X78491165Y-83621916D01*
X78423002Y-83414944D01*
X78349516Y-83401473D01*
X78423002Y-83386856D01*
X78491165Y-83179884D01*
X77939900Y-82628619D01*
X77796357Y-82772162D01*
X77336738Y-82312543D01*
X77480281Y-82169000D01*
X78399519Y-82169000D01*
X78594276Y-82363757D01*
X78588235Y-82410941D01*
X78670842Y-82826236D01*
X78891537Y-82948656D01*
X79544193Y-82296000D01*
X80958407Y-82296000D01*
X81611063Y-82948656D01*
X81831758Y-82826236D01*
X81880966Y-82441915D01*
X82153881Y-82169000D01*
X83073119Y-82169000D01*
X83624384Y-82720265D01*
X83831356Y-82652102D01*
X83923528Y-82149275D01*
X83831356Y-81685898D01*
X83624384Y-81617735D01*
X83073119Y-82169000D01*
X82153881Y-82169000D01*
X81851898Y-81867017D01*
X81831758Y-81765764D01*
X81649603Y-81664722D01*
X81602616Y-81617735D01*
X81395644Y-81685898D01*
X81356844Y-81897563D01*
X80958407Y-82296000D01*
X79544193Y-82296000D01*
X79213293Y-81965100D01*
X79157756Y-81685898D01*
X78950784Y-81617735D01*
X78908356Y-81660163D01*
X78891537Y-81643344D01*
X78670842Y-81765764D01*
X78651472Y-81917047D01*
X78399519Y-82169000D01*
X77480281Y-82169000D01*
X77336738Y-82025457D01*
X77796357Y-81565838D01*
X77939900Y-81709381D01*
X78491165Y-81158116D01*
X78456020Y-81051400D01*
X78491165Y-80944684D01*
X78482718Y-80936237D01*
X79598644Y-80936237D01*
X79745676Y-81083269D01*
X79768198Y-81151656D01*
X79824357Y-81161950D01*
X80251300Y-81588893D01*
X80677148Y-81163045D01*
X80734402Y-81151656D01*
X80756924Y-81083269D01*
X80895509Y-80944684D01*
X82062235Y-80944684D01*
X82097380Y-81051400D01*
X82062235Y-81158116D01*
X82613500Y-81709381D01*
X83164765Y-81158116D01*
X83129620Y-81051400D01*
X83164765Y-80944684D01*
X82613500Y-80393419D01*
X82062235Y-80944684D01*
X80895509Y-80944684D01*
X80903956Y-80936237D01*
X80781536Y-80715542D01*
X80542864Y-80684983D01*
X80251300Y-80393419D01*
X79980852Y-80663867D01*
X79721064Y-80715542D01*
X79598644Y-80936237D01*
X78482718Y-80936237D01*
X77939900Y-80393419D01*
X77796357Y-80536962D01*
X77336738Y-80077343D01*
X77480281Y-79933800D01*
X78399519Y-79933800D01*
X78950784Y-80485065D01*
X79095600Y-80437372D01*
X79240416Y-80485065D01*
X79791681Y-79933800D01*
X80710919Y-79933800D01*
X81262184Y-80485065D01*
X81432400Y-80429007D01*
X81602616Y-80485065D01*
X82153881Y-79933800D01*
X83073119Y-79933800D01*
X83624384Y-80485065D01*
X83831356Y-80416902D01*
X83923528Y-79914075D01*
X83831356Y-79450698D01*
X83624384Y-79382535D01*
X83073119Y-79933800D01*
X82153881Y-79933800D01*
X81602616Y-79382535D01*
X81432400Y-79438593D01*
X81262184Y-79382535D01*
X80710919Y-79933800D01*
X79791681Y-79933800D01*
X79240416Y-79382535D01*
X79095600Y-79430228D01*
X78950784Y-79382535D01*
X78399519Y-79933800D01*
X77480281Y-79933800D01*
X77336738Y-79790257D01*
X77796357Y-79330638D01*
X77939900Y-79474181D01*
X78491165Y-78922916D01*
X78423002Y-78715944D01*
X78207823Y-78676500D01*
X79966495Y-78676500D01*
X79768198Y-78715944D01*
X79700035Y-78922916D01*
X80251300Y-79474181D01*
X80802565Y-78922916D01*
X80734402Y-78715944D01*
X80519223Y-78676500D01*
X82328695Y-78676500D01*
X82130398Y-78715944D01*
X82062235Y-78922916D01*
X82613500Y-79474181D01*
X83164765Y-78922916D01*
X83096602Y-78715944D01*
X82881423Y-78676500D01*
X86867995Y-78676500D01*
X86868000Y-78676501D01*
X87050418Y-78640215D01*
X87086704Y-78632997D01*
X87272112Y-78509112D01*
X87693500Y-78087724D01*
X87693500Y-83392777D01*
X87693500Y-83392777D01*
G37*
X87693500Y-83392777D02*
X84685888Y-86400388D01*
X84562003Y-86585796D01*
X84562003Y-86585797D01*
X84518499Y-86804500D01*
X84518500Y-86804505D01*
X84518500Y-87418788D01*
X84468955Y-87468247D01*
X84357128Y-87737558D01*
X84356873Y-88029163D01*
X84468231Y-88298669D01*
X84674247Y-88505045D01*
X84943558Y-88616872D01*
X84981418Y-88616905D01*
X84962999Y-88709500D01*
X84963000Y-88709505D01*
X84963000Y-90550995D01*
X84962999Y-90551000D01*
X84992859Y-90701111D01*
X85006503Y-90769704D01*
X85097166Y-90905391D01*
X85130388Y-90955112D01*
X87329776Y-93154500D01*
X86952216Y-93154500D01*
X86902757Y-93104955D01*
X86633446Y-92993128D01*
X86341841Y-92992873D01*
X86072335Y-93104231D01*
X85865959Y-93310247D01*
X85754132Y-93579558D01*
X85754059Y-93662500D01*
X85580723Y-93662500D01*
X85442066Y-93523842D01*
X85442127Y-93453837D01*
X85330769Y-93184331D01*
X85124753Y-92977955D01*
X84855442Y-92866128D01*
X84563837Y-92865873D01*
X84294331Y-92977231D01*
X84150267Y-93121043D01*
X84137500Y-93108276D01*
X84137500Y-90297000D01*
X84093997Y-90078296D01*
X83970112Y-89892888D01*
X83970109Y-89892886D01*
X83462112Y-89384888D01*
X83276704Y-89261003D01*
X83240418Y-89253785D01*
X83058000Y-89217499D01*
X83057995Y-89217500D01*
X82550000Y-89217500D01*
X82331296Y-89261003D01*
X82145888Y-89384888D01*
X82145886Y-89384891D01*
X81775218Y-89755558D01*
X81695753Y-89675955D01*
X81426442Y-89564128D01*
X81134837Y-89563873D01*
X80865331Y-89675231D01*
X80658955Y-89881247D01*
X80547128Y-90150558D01*
X80546873Y-90442163D01*
X80611292Y-90598069D01*
X79854066Y-89840842D01*
X79854127Y-89770837D01*
X79742769Y-89501331D01*
X79536753Y-89294955D01*
X79267442Y-89183128D01*
X78975837Y-89182873D01*
X78706331Y-89294231D01*
X78499955Y-89500247D01*
X78388128Y-89769558D01*
X78387873Y-90061163D01*
X78499231Y-90330669D01*
X78564839Y-90396392D01*
X78507033Y-90535605D01*
X78506778Y-90827210D01*
X78618136Y-91096716D01*
X78668405Y-91147073D01*
X78668405Y-92719181D01*
X78295500Y-92346276D01*
X78295500Y-91143212D01*
X78345045Y-91093753D01*
X78456872Y-90824442D01*
X78457127Y-90532837D01*
X78345769Y-90263331D01*
X78139753Y-90056955D01*
X77870442Y-89945128D01*
X77578837Y-89944873D01*
X77309331Y-90056231D01*
X77276378Y-90089126D01*
X77235442Y-90072128D01*
X76943837Y-90071873D01*
X76898500Y-90090606D01*
X76898500Y-89009724D01*
X78382109Y-87526114D01*
X78382112Y-87526112D01*
X78470277Y-87394163D01*
X78505998Y-87340703D01*
X78549501Y-87122000D01*
X78549500Y-87121995D01*
X78549500Y-86698212D01*
X78599045Y-86648753D01*
X78710872Y-86379442D01*
X78711127Y-86087837D01*
X78599769Y-85818331D01*
X78474857Y-85693201D01*
X78491165Y-85643684D01*
X79700035Y-85643684D01*
X79768198Y-85850656D01*
X80271025Y-85942828D01*
X80734402Y-85850656D01*
X80802565Y-85643684D01*
X82062235Y-85643684D01*
X82130398Y-85850656D01*
X82633225Y-85942828D01*
X83096602Y-85850656D01*
X83164765Y-85643684D01*
X82613500Y-85092419D01*
X82062235Y-85643684D01*
X80802565Y-85643684D01*
X80251300Y-85092419D01*
X79700035Y-85643684D01*
X78491165Y-85643684D01*
X77939900Y-85092419D01*
X77796357Y-85235962D01*
X77336738Y-84776343D01*
X77480281Y-84632800D01*
X78399519Y-84632800D01*
X78950784Y-85184065D01*
X79095600Y-85136372D01*
X79240416Y-85184065D01*
X79791681Y-84632800D01*
X80710919Y-84632800D01*
X81262184Y-85184065D01*
X81432400Y-85128007D01*
X81602616Y-85184065D01*
X82153881Y-84632800D01*
X83073119Y-84632800D01*
X83624384Y-85184065D01*
X83831356Y-85115902D01*
X83923528Y-84613075D01*
X83831356Y-84149698D01*
X83624384Y-84081535D01*
X83073119Y-84632800D01*
X82153881Y-84632800D01*
X81602616Y-84081535D01*
X81432400Y-84137593D01*
X81262184Y-84081535D01*
X80710919Y-84632800D01*
X79791681Y-84632800D01*
X79240416Y-84081535D01*
X79095600Y-84129228D01*
X78950784Y-84081535D01*
X78399519Y-84632800D01*
X77480281Y-84632800D01*
X77336738Y-84489257D01*
X77796357Y-84029638D01*
X77939900Y-84173181D01*
X78457318Y-83655763D01*
X79598644Y-83655763D01*
X79721064Y-83876458D01*
X79988866Y-83910747D01*
X80251300Y-84173181D01*
X80490041Y-83934440D01*
X80781536Y-83876458D01*
X80903956Y-83655763D01*
X80769397Y-83521204D01*
X80734402Y-83414944D01*
X80647141Y-83398948D01*
X80428077Y-83179884D01*
X82062235Y-83179884D01*
X82130398Y-83386856D01*
X82203884Y-83400327D01*
X82130398Y-83414944D01*
X82062235Y-83621916D01*
X82613500Y-84173181D01*
X83164765Y-83621916D01*
X83096602Y-83414944D01*
X83023116Y-83401473D01*
X83096602Y-83386856D01*
X83164765Y-83179884D01*
X82613500Y-82628619D01*
X82062235Y-83179884D01*
X80428077Y-83179884D01*
X80251300Y-83003107D01*
X79857158Y-83397249D01*
X79768198Y-83414944D01*
X79733203Y-83521204D01*
X79598644Y-83655763D01*
X78457318Y-83655763D01*
X78491165Y-83621916D01*
X78423002Y-83414944D01*
X78349516Y-83401473D01*
X78423002Y-83386856D01*
X78491165Y-83179884D01*
X77939900Y-82628619D01*
X77796357Y-82772162D01*
X77336738Y-82312543D01*
X77480281Y-82169000D01*
X78399519Y-82169000D01*
X78594276Y-82363757D01*
X78588235Y-82410941D01*
X78670842Y-82826236D01*
X78891537Y-82948656D01*
X79544193Y-82296000D01*
X80958407Y-82296000D01*
X81611063Y-82948656D01*
X81831758Y-82826236D01*
X81880966Y-82441915D01*
X82153881Y-82169000D01*
X83073119Y-82169000D01*
X83624384Y-82720265D01*
X83831356Y-82652102D01*
X83923528Y-82149275D01*
X83831356Y-81685898D01*
X83624384Y-81617735D01*
X83073119Y-82169000D01*
X82153881Y-82169000D01*
X81851898Y-81867017D01*
X81831758Y-81765764D01*
X81649603Y-81664722D01*
X81602616Y-81617735D01*
X81395644Y-81685898D01*
X81356844Y-81897563D01*
X80958407Y-82296000D01*
X79544193Y-82296000D01*
X79213293Y-81965100D01*
X79157756Y-81685898D01*
X78950784Y-81617735D01*
X78908356Y-81660163D01*
X78891537Y-81643344D01*
X78670842Y-81765764D01*
X78651472Y-81917047D01*
X78399519Y-82169000D01*
X77480281Y-82169000D01*
X77336738Y-82025457D01*
X77796357Y-81565838D01*
X77939900Y-81709381D01*
X78491165Y-81158116D01*
X78456020Y-81051400D01*
X78491165Y-80944684D01*
X78482718Y-80936237D01*
X79598644Y-80936237D01*
X79745676Y-81083269D01*
X79768198Y-81151656D01*
X79824357Y-81161950D01*
X80251300Y-81588893D01*
X80677148Y-81163045D01*
X80734402Y-81151656D01*
X80756924Y-81083269D01*
X80895509Y-80944684D01*
X82062235Y-80944684D01*
X82097380Y-81051400D01*
X82062235Y-81158116D01*
X82613500Y-81709381D01*
X83164765Y-81158116D01*
X83129620Y-81051400D01*
X83164765Y-80944684D01*
X82613500Y-80393419D01*
X82062235Y-80944684D01*
X80895509Y-80944684D01*
X80903956Y-80936237D01*
X80781536Y-80715542D01*
X80542864Y-80684983D01*
X80251300Y-80393419D01*
X79980852Y-80663867D01*
X79721064Y-80715542D01*
X79598644Y-80936237D01*
X78482718Y-80936237D01*
X77939900Y-80393419D01*
X77796357Y-80536962D01*
X77336738Y-80077343D01*
X77480281Y-79933800D01*
X78399519Y-79933800D01*
X78950784Y-80485065D01*
X79095600Y-80437372D01*
X79240416Y-80485065D01*
X79791681Y-79933800D01*
X80710919Y-79933800D01*
X81262184Y-80485065D01*
X81432400Y-80429007D01*
X81602616Y-80485065D01*
X82153881Y-79933800D01*
X83073119Y-79933800D01*
X83624384Y-80485065D01*
X83831356Y-80416902D01*
X83923528Y-79914075D01*
X83831356Y-79450698D01*
X83624384Y-79382535D01*
X83073119Y-79933800D01*
X82153881Y-79933800D01*
X81602616Y-79382535D01*
X81432400Y-79438593D01*
X81262184Y-79382535D01*
X80710919Y-79933800D01*
X79791681Y-79933800D01*
X79240416Y-79382535D01*
X79095600Y-79430228D01*
X78950784Y-79382535D01*
X78399519Y-79933800D01*
X77480281Y-79933800D01*
X77336738Y-79790257D01*
X77796357Y-79330638D01*
X77939900Y-79474181D01*
X78491165Y-78922916D01*
X78423002Y-78715944D01*
X78207823Y-78676500D01*
X79966495Y-78676500D01*
X79768198Y-78715944D01*
X79700035Y-78922916D01*
X80251300Y-79474181D01*
X80802565Y-78922916D01*
X80734402Y-78715944D01*
X80519223Y-78676500D01*
X82328695Y-78676500D01*
X82130398Y-78715944D01*
X82062235Y-78922916D01*
X82613500Y-79474181D01*
X83164765Y-78922916D01*
X83096602Y-78715944D01*
X82881423Y-78676500D01*
X86867995Y-78676500D01*
X86868000Y-78676501D01*
X87050418Y-78640215D01*
X87086704Y-78632997D01*
X87272112Y-78509112D01*
X87693500Y-78087724D01*
X87693500Y-83392777D01*
G36*
X91497834Y-68007722D02*
X91643374Y-68359954D01*
X91912628Y-68629679D01*
X92264606Y-68775833D01*
X92645722Y-68776166D01*
X92813116Y-68707000D01*
X117155297Y-68707000D01*
X117301777Y-68926223D01*
X117398140Y-69022586D01*
X117397692Y-69536114D01*
X117474912Y-69723000D01*
X115824000Y-69723000D01*
X115775399Y-69732667D01*
X115734197Y-69760197D01*
X113321197Y-72173197D01*
X113293667Y-72214399D01*
X113284000Y-72263000D01*
X113284000Y-78232000D01*
X113293667Y-78280601D01*
X113321197Y-78321803D01*
X115226197Y-80226803D01*
X115267399Y-80254333D01*
X115316000Y-80264000D01*
X117632828Y-80264000D01*
X117398309Y-80828782D01*
X117397692Y-81536114D01*
X117667806Y-82189840D01*
X117983000Y-82505585D01*
X117983000Y-84118640D01*
X117669564Y-84431529D01*
X117398309Y-85084782D01*
X117397963Y-85481577D01*
X117396601Y-85480667D01*
X117348000Y-85471000D01*
X117299399Y-85480667D01*
X117258197Y-85508197D01*
X112686197Y-90080197D01*
X112658667Y-90121399D01*
X112649000Y-90170000D01*
X112649000Y-92921391D01*
X112522000Y-92973866D01*
X112522000Y-89136724D01*
X112943854Y-88714869D01*
X113283222Y-88715166D01*
X113635454Y-88569626D01*
X113905179Y-88300372D01*
X114051333Y-87948394D01*
X114051666Y-87567278D01*
X113906126Y-87215046D01*
X113636872Y-86945321D01*
X113284894Y-86799167D01*
X112903778Y-86798834D01*
X112551546Y-86944374D01*
X112281821Y-87213628D01*
X112135667Y-87565606D01*
X112135369Y-87906908D01*
X111823500Y-88218776D01*
X111823500Y-85326724D01*
X113307109Y-83843114D01*
X113307112Y-83843112D01*
X113427920Y-83662309D01*
X113430998Y-83657703D01*
X113474501Y-83439000D01*
X113474500Y-83438995D01*
X113474500Y-80899005D01*
X113474501Y-80899000D01*
X113430998Y-80680297D01*
X113384192Y-80610247D01*
X113307112Y-80494888D01*
X113307109Y-80494886D01*
X112711858Y-79899634D01*
X112936954Y-79806626D01*
X113206679Y-79537372D01*
X113352833Y-79185394D01*
X113353166Y-78804278D01*
X113207626Y-78452046D01*
X112938372Y-78182321D01*
X112586394Y-78036167D01*
X112205278Y-78035834D01*
X111853046Y-78181374D01*
X111696500Y-78337647D01*
X111696500Y-76754224D01*
X112608620Y-75842103D01*
X112608623Y-75842101D01*
X112732508Y-75656693D01*
X112742085Y-75608546D01*
X112776012Y-75437989D01*
X112776011Y-75437984D01*
X112776011Y-71740192D01*
X112945363Y-71670217D01*
X113215088Y-71400963D01*
X113361242Y-71048985D01*
X113361575Y-70667869D01*
X113216035Y-70315637D01*
X112946781Y-70045912D01*
X112594803Y-69899758D01*
X112213687Y-69899425D01*
X111861455Y-70044965D01*
X111677161Y-70228937D01*
X111021101Y-69572877D01*
X110944368Y-69521606D01*
X110835693Y-69448992D01*
X110799407Y-69441774D01*
X110616989Y-69405488D01*
X110616984Y-69405489D01*
X92710005Y-69405489D01*
X92710000Y-69405488D01*
X92527582Y-69441774D01*
X92491296Y-69448992D01*
X92305888Y-69572877D01*
X92305886Y-69572880D01*
X89611200Y-72267566D01*
X89611200Y-67691000D01*
X91498111Y-67691000D01*
X91497834Y-68007722D01*
X91497834Y-68007722D01*
G37*
X91497834Y-68007722D02*
X91643374Y-68359954D01*
X91912628Y-68629679D01*
X92264606Y-68775833D01*
X92645722Y-68776166D01*
X92813116Y-68707000D01*
X117155297Y-68707000D01*
X117301777Y-68926223D01*
X117398140Y-69022586D01*
X117397692Y-69536114D01*
X117474912Y-69723000D01*
X115824000Y-69723000D01*
X115775399Y-69732667D01*
X115734197Y-69760197D01*
X113321197Y-72173197D01*
X113293667Y-72214399D01*
X113284000Y-72263000D01*
X113284000Y-78232000D01*
X113293667Y-78280601D01*
X113321197Y-78321803D01*
X115226197Y-80226803D01*
X115267399Y-80254333D01*
X115316000Y-80264000D01*
X117632828Y-80264000D01*
X117398309Y-80828782D01*
X117397692Y-81536114D01*
X117667806Y-82189840D01*
X117983000Y-82505585D01*
X117983000Y-84118640D01*
X117669564Y-84431529D01*
X117398309Y-85084782D01*
X117397963Y-85481577D01*
X117396601Y-85480667D01*
X117348000Y-85471000D01*
X117299399Y-85480667D01*
X117258197Y-85508197D01*
X112686197Y-90080197D01*
X112658667Y-90121399D01*
X112649000Y-90170000D01*
X112649000Y-92921391D01*
X112522000Y-92973866D01*
X112522000Y-89136724D01*
X112943854Y-88714869D01*
X113283222Y-88715166D01*
X113635454Y-88569626D01*
X113905179Y-88300372D01*
X114051333Y-87948394D01*
X114051666Y-87567278D01*
X113906126Y-87215046D01*
X113636872Y-86945321D01*
X113284894Y-86799167D01*
X112903778Y-86798834D01*
X112551546Y-86944374D01*
X112281821Y-87213628D01*
X112135667Y-87565606D01*
X112135369Y-87906908D01*
X111823500Y-88218776D01*
X111823500Y-85326724D01*
X113307109Y-83843114D01*
X113307112Y-83843112D01*
X113427920Y-83662309D01*
X113430998Y-83657703D01*
X113474501Y-83439000D01*
X113474500Y-83438995D01*
X113474500Y-80899005D01*
X113474501Y-80899000D01*
X113430998Y-80680297D01*
X113384192Y-80610247D01*
X113307112Y-80494888D01*
X113307109Y-80494886D01*
X112711858Y-79899634D01*
X112936954Y-79806626D01*
X113206679Y-79537372D01*
X113352833Y-79185394D01*
X113353166Y-78804278D01*
X113207626Y-78452046D01*
X112938372Y-78182321D01*
X112586394Y-78036167D01*
X112205278Y-78035834D01*
X111853046Y-78181374D01*
X111696500Y-78337647D01*
X111696500Y-76754224D01*
X112608620Y-75842103D01*
X112608623Y-75842101D01*
X112732508Y-75656693D01*
X112742085Y-75608546D01*
X112776012Y-75437989D01*
X112776011Y-75437984D01*
X112776011Y-71740192D01*
X112945363Y-71670217D01*
X113215088Y-71400963D01*
X113361242Y-71048985D01*
X113361575Y-70667869D01*
X113216035Y-70315637D01*
X112946781Y-70045912D01*
X112594803Y-69899758D01*
X112213687Y-69899425D01*
X111861455Y-70044965D01*
X111677161Y-70228937D01*
X111021101Y-69572877D01*
X110944368Y-69521606D01*
X110835693Y-69448992D01*
X110799407Y-69441774D01*
X110616989Y-69405488D01*
X110616984Y-69405489D01*
X92710005Y-69405489D01*
X92710000Y-69405488D01*
X92527582Y-69441774D01*
X92491296Y-69448992D01*
X92305888Y-69572877D01*
X92305886Y-69572880D01*
X89611200Y-72267566D01*
X89611200Y-67691000D01*
X91498111Y-67691000D01*
X91497834Y-68007722D01*
G36*
X92744499Y-84408706D02*
X92744499Y-87688141D01*
X92393278Y-87687834D01*
X92075000Y-87819344D01*
X92075000Y-83739207D01*
X92744499Y-84408706D01*
X92744499Y-84408706D01*
G37*
X92744499Y-84408706D02*
X92744499Y-87688141D01*
X92393278Y-87687834D01*
X92075000Y-87819344D01*
X92075000Y-83739207D01*
X92744499Y-84408706D01*
G36*
X112331500Y-83202277D02*
X111125000Y-84408777D01*
X109758581Y-83042358D01*
X110298800Y-83266676D01*
X111037958Y-83267321D01*
X111721097Y-82985054D01*
X112244217Y-82462846D01*
X112331500Y-82252645D01*
X112331500Y-83202277D01*
X112331500Y-83202277D01*
G37*
X112331500Y-83202277D02*
X111125000Y-84408777D01*
X109758581Y-83042358D01*
X110298800Y-83266676D01*
X111037958Y-83267321D01*
X111721097Y-82985054D01*
X112244217Y-82462846D01*
X112331500Y-82252645D01*
X112331500Y-83202277D01*
G36*
X86758265Y-75120500D02*
X73660000Y-75120500D01*
X73441296Y-75164003D01*
X73255888Y-75287888D01*
X73255886Y-75287891D01*
X73131502Y-75412275D01*
X73075626Y-75277046D01*
X72806372Y-75007321D01*
X72454394Y-74861167D01*
X72073278Y-74860834D01*
X71721046Y-75006374D01*
X71451321Y-75275628D01*
X71305167Y-75627606D01*
X71304834Y-76008722D01*
X71450374Y-76360954D01*
X71702143Y-76613164D01*
X71641955Y-76673247D01*
X71530128Y-76942558D01*
X71530066Y-77013711D01*
X70461888Y-78081888D01*
X70355000Y-78241858D01*
X70355000Y-73710800D01*
X88167965Y-73710800D01*
X86758265Y-75120500D01*
X86758265Y-75120500D01*
G37*
X86758265Y-75120500D02*
X73660000Y-75120500D01*
X73441296Y-75164003D01*
X73255888Y-75287888D01*
X73255886Y-75287891D01*
X73131502Y-75412275D01*
X73075626Y-75277046D01*
X72806372Y-75007321D01*
X72454394Y-74861167D01*
X72073278Y-74860834D01*
X71721046Y-75006374D01*
X71451321Y-75275628D01*
X71305167Y-75627606D01*
X71304834Y-76008722D01*
X71450374Y-76360954D01*
X71702143Y-76613164D01*
X71641955Y-76673247D01*
X71530128Y-76942558D01*
X71530066Y-77013711D01*
X70461888Y-78081888D01*
X70355000Y-78241858D01*
X70355000Y-73710800D01*
X88167965Y-73710800D01*
X86758265Y-75120500D01*
M02*
