G04 #@! TF.FileFunction,Copper,L3,Inr,Plane*
%FSLAX46Y46*%
G04 Gerber Fmt 4.6, Leading zero omitted, Abs format (unit mm)*
G04 Created by KiCad (PCBNEW no-vcs-found-undefined) date Wed Nov  9 17:15:18 2016*
%MOMM*%
%LPD*%
G01*
G04 APERTURE LIST*
%ADD10C,0.100000*%
%ADD11C,3.200000*%
%ADD12C,1.650000*%
%ADD13C,2.700000*%
%ADD14C,1.410000*%
%ADD15C,1.300000*%
%ADD16C,2.000000*%
%ADD17R,1.400000X1.400000*%
%ADD18C,1.400000*%
%ADD19C,1.524000*%
%ADD20R,1.524000X1.524000*%
%ADD21C,3.048000*%
%ADD22R,3.048000X3.048000*%
%ADD23O,1.500000X4.500000*%
%ADD24O,4.500000X1.500000*%
%ADD25C,2.540000*%
%ADD26R,1.422400X1.422400*%
%ADD27R,0.400000X0.400000*%
%ADD28R,1.700000X1.700000*%
%ADD29C,1.700000*%
%ADD30C,6.300000*%
%ADD31C,1.200000*%
%ADD32C,1.778000*%
%ADD33R,1.778000X1.778000*%
%ADD34C,0.900000*%
%ADD35C,0.750000*%
%ADD36C,0.450000*%
%ADD37C,1.524000*%
%ADD38C,1.270000*%
%ADD39C,1.016000*%
%ADD40C,1.778000*%
%ADD41C,0.127000*%
%ADD42C,0.762000*%
%ADD43C,0.254000*%
G04 APERTURE END LIST*
D10*
D11*
X97155000Y-78359000D03*
X108585000Y-78359000D03*
D12*
X106940000Y-73610500D03*
X96260000Y-73610500D03*
D13*
X95070000Y-81409000D03*
X110670000Y-81409000D03*
D12*
X109480000Y-73610500D03*
X98800000Y-73610500D03*
D14*
X98435000Y-87599000D03*
X99705000Y-85059000D03*
X100975000Y-87599000D03*
X102245000Y-85059000D03*
X103515000Y-87599000D03*
X104785000Y-85059000D03*
X106055000Y-87599000D03*
X107325000Y-85059000D03*
D15*
X77939900Y-84632800D03*
D16*
X80251300Y-82296000D03*
D15*
X82613500Y-84632800D03*
X77939900Y-79933800D03*
X82613500Y-79933800D03*
X80251300Y-79933800D03*
X80251300Y-84632800D03*
X77939900Y-82169000D03*
X82613500Y-82169000D03*
D17*
X133865620Y-117624860D03*
D18*
X135877300Y-117622320D03*
D19*
X122809000Y-103759000D03*
D20*
X122809000Y-106299000D03*
D21*
X140500000Y-91774000D03*
D22*
X140500000Y-101774000D03*
D21*
X140500000Y-96774000D03*
X140500000Y-81774000D03*
D22*
X140500000Y-86774000D03*
D21*
X140500000Y-76774000D03*
D23*
X130937000Y-111049000D03*
X137437000Y-111049000D03*
D24*
X134237000Y-106599000D03*
D21*
X140208000Y-108625000D03*
D22*
X140208000Y-113625000D03*
D25*
X119176000Y-97440000D03*
X119176000Y-85440000D03*
X131176000Y-85440000D03*
X131176000Y-97440000D03*
X117176000Y-91440000D03*
X117176000Y-75184000D03*
X131176000Y-81184000D03*
X131176000Y-69184000D03*
X119176000Y-69184000D03*
X119176000Y-81184000D03*
D26*
X99949000Y-98933000D03*
D27*
X100449000Y-97633000D03*
X99449000Y-97633000D03*
X98649000Y-98433000D03*
X98649000Y-99433000D03*
X99449000Y-100233000D03*
X100449000Y-100233000D03*
X101249000Y-99433000D03*
X101249000Y-98433000D03*
D28*
X99060000Y-115189000D03*
D29*
X99060000Y-112649000D03*
X101600000Y-115189000D03*
X101600000Y-112649000D03*
X104140000Y-115189000D03*
X104140000Y-112649000D03*
X106680000Y-115189000D03*
X106680000Y-112649000D03*
X109220000Y-115189000D03*
X109220000Y-112649000D03*
D30*
X141351000Y-120904000D03*
D31*
X141351000Y-118491000D03*
X141351000Y-123317000D03*
X139700000Y-119253000D03*
X143002000Y-119253000D03*
X139700000Y-122682000D03*
X143002000Y-122555000D03*
X143764000Y-120904000D03*
X138938000Y-120904000D03*
X70612000Y-120904000D03*
X75438000Y-120904000D03*
X74676000Y-122555000D03*
X71374000Y-122682000D03*
X74676000Y-119253000D03*
X71374000Y-119253000D03*
X73025000Y-123317000D03*
X73025000Y-118491000D03*
D30*
X73025000Y-120904000D03*
D32*
X126111000Y-120142000D03*
X126111000Y-122682000D03*
X123571000Y-120142000D03*
X123571000Y-122682000D03*
X121031000Y-120142000D03*
X121031000Y-122682000D03*
X118491000Y-120142000D03*
X118491000Y-122682000D03*
X115951000Y-120142000D03*
X115951000Y-122682000D03*
X105791000Y-120142000D03*
X105791000Y-122682000D03*
X103251000Y-120142000D03*
X103251000Y-122682000D03*
X108331000Y-122682000D03*
X108331000Y-120142000D03*
X110871000Y-120142000D03*
X110871000Y-122682000D03*
X113411000Y-122682000D03*
X113411000Y-120142000D03*
X88011000Y-120142000D03*
X88011000Y-122682000D03*
X85471000Y-122682000D03*
X85471000Y-120142000D03*
X82931000Y-120142000D03*
X82931000Y-122682000D03*
D33*
X77851000Y-122682000D03*
D32*
X77851000Y-120142000D03*
X80391000Y-122682000D03*
X80391000Y-120142000D03*
X90551000Y-122682000D03*
X90551000Y-120142000D03*
X93091000Y-122682000D03*
X93091000Y-120142000D03*
X95631000Y-122682000D03*
X95631000Y-120142000D03*
X98171000Y-122682000D03*
X98171000Y-120142000D03*
X100711000Y-122682000D03*
X100711000Y-120142000D03*
D34*
X112403409Y-70857591D03*
X119634000Y-109855000D03*
X114299861Y-100578808D03*
X112902994Y-93853000D03*
X112395000Y-78994000D03*
D35*
X127000000Y-113284000D03*
D34*
X114300002Y-106426000D03*
X110871000Y-83820000D03*
X93599000Y-78486000D03*
X83820000Y-80010006D03*
X92583000Y-86868000D03*
X80385490Y-106934000D03*
X80385490Y-112903000D03*
X87376004Y-114681000D03*
D36*
X125039170Y-119298974D03*
D34*
X95123000Y-96139000D03*
X117729000Y-101092000D03*
X116840000Y-101092000D03*
X118618000Y-101092000D03*
X118618000Y-100203000D03*
X116840000Y-100203000D03*
X117729000Y-100203000D03*
X117729000Y-101981000D03*
X116840000Y-101981000D03*
X115570000Y-103759000D03*
X114173000Y-112141000D03*
X84836000Y-74549000D03*
X111506000Y-96774000D03*
X74289490Y-91186000D03*
X88773000Y-97663000D03*
X73533000Y-100330000D03*
X94107000Y-111252000D03*
X96774000Y-106680000D03*
X91440000Y-100203000D03*
D36*
X102655806Y-96226186D03*
D34*
X100457000Y-106807000D03*
X72263000Y-74549000D03*
X73533000Y-108204000D03*
X92836984Y-69088000D03*
X106172000Y-94107000D03*
X93980000Y-102870000D03*
X120650000Y-116967000D03*
X124206000Y-115570000D03*
X124714000Y-102616024D03*
X77972479Y-97155000D03*
X72263000Y-80899000D03*
X77972479Y-101727000D03*
X72263000Y-82169000D03*
X121920000Y-118618000D03*
X126111000Y-100457000D03*
X122879164Y-115388650D03*
D36*
X105537000Y-107061000D03*
D34*
X92583000Y-88646000D03*
X85979000Y-115697000D03*
X115443000Y-113919000D03*
X116332000Y-113919000D03*
X117221000Y-113919000D03*
X87503000Y-100203000D03*
X86868000Y-106045000D03*
D35*
X100330000Y-102812490D03*
D34*
X85090000Y-111760000D03*
X96266000Y-109220000D03*
X92964000Y-105663996D03*
X99187000Y-106680000D03*
X111506000Y-98171000D03*
X108712000Y-104521000D03*
X72644000Y-94869000D03*
X72263000Y-75819000D03*
X102616000Y-106680000D03*
X108839000Y-94996000D03*
X113093500Y-87757000D03*
X116332000Y-98806000D03*
X92456000Y-67818000D03*
D36*
X77573295Y-115212675D03*
D34*
X101473000Y-109220000D03*
D36*
X77343000Y-78520510D03*
D34*
X70866000Y-94996000D03*
D36*
X72263000Y-77089000D03*
X74713148Y-76165490D03*
X72136000Y-78359000D03*
X107823000Y-103505000D03*
X103251000Y-102743000D03*
X86487000Y-88391998D03*
X99568000Y-102743000D03*
X103758994Y-98171000D03*
D34*
X90170000Y-83439000D03*
D36*
X107823000Y-104267000D03*
X103378000Y-103505000D03*
X85852000Y-87249000D03*
X98298000Y-102743000D03*
X85090000Y-87884000D03*
X93345000Y-72771000D03*
D34*
X75565000Y-84709000D03*
D36*
X110490000Y-74930000D03*
D34*
X74924490Y-83438625D03*
D36*
X84073994Y-111506000D03*
X82769424Y-98984784D03*
X76835000Y-91440000D03*
X82975206Y-109382414D03*
X82515500Y-110109000D03*
X78115940Y-115016515D03*
X77089000Y-85979000D03*
X87122008Y-89916000D03*
X85598000Y-100965000D03*
X102997000Y-101854000D03*
X105664000Y-100711000D03*
X87756990Y-90678000D03*
X87376000Y-86614000D03*
X77978000Y-86233000D03*
D34*
X90170000Y-91186000D03*
D36*
X76708000Y-78520510D03*
X85458054Y-100405216D03*
X102616000Y-103505000D03*
X86487004Y-93726000D03*
X78994000Y-114681000D03*
X78994000Y-109093000D03*
X77089000Y-90805000D03*
X82804000Y-98298000D03*
X79883000Y-114935000D03*
X77724000Y-90678000D03*
X82804000Y-97663000D03*
X79239905Y-90682047D03*
X82804000Y-97028000D03*
X79756000Y-91186000D03*
X82804000Y-96393000D03*
X82804006Y-95758000D03*
X79121000Y-89916000D03*
X103378000Y-104140000D03*
X84709000Y-93599000D03*
X91313000Y-98171000D03*
X82169000Y-90424000D03*
X84997510Y-97155000D03*
X85217000Y-98171000D03*
X81280000Y-90297000D03*
X85598000Y-101600000D03*
X86399810Y-90384190D03*
X101726994Y-102616000D03*
X87756996Y-84836000D03*
X82804000Y-90424002D03*
X114422416Y-101761510D03*
X129412994Y-115951000D03*
X113919000Y-102107994D03*
X128016000Y-115569990D03*
X121716800Y-102209600D03*
X130175000Y-116077994D03*
D34*
X90932000Y-76200000D03*
X97663000Y-90297000D03*
D35*
X96519992Y-96520000D03*
X100965002Y-94996000D03*
D34*
X108839000Y-90297000D03*
X107061000Y-90297000D03*
X105283000Y-90297000D03*
X101727000Y-90297000D03*
X99949000Y-90297000D03*
X94869000Y-89535000D03*
D36*
X90297000Y-77089010D03*
X102362008Y-119253000D03*
X104280786Y-97611427D03*
X90170016Y-81026000D03*
X105029000Y-97663008D03*
X96266000Y-98171000D03*
X96647000Y-97663000D03*
D37*
X112403409Y-71493987D02*
X112403409Y-70857591D01*
X112403409Y-78587773D02*
X112403409Y-71493987D01*
X112395000Y-70866000D02*
X112403409Y-70857591D01*
X112395000Y-78994000D02*
X112395000Y-70866000D01*
X112395000Y-78596182D02*
X112403409Y-78587773D01*
X112902994Y-93853000D02*
X111125000Y-92075006D01*
X111125000Y-92075006D02*
X111125000Y-85979000D01*
X111125000Y-85979000D02*
X112649000Y-84455000D01*
X112649000Y-84455000D02*
X112649000Y-83216000D01*
X112649000Y-83216000D02*
X113284000Y-82581000D01*
X130937000Y-111049000D02*
X132639000Y-111049000D01*
X132639000Y-111049000D02*
X136398000Y-114808000D01*
X136398000Y-114808000D02*
X139025000Y-114808000D01*
X139025000Y-114808000D02*
X140208000Y-113625000D01*
D38*
X113284000Y-79883000D02*
X113284000Y-82550000D01*
X113284000Y-82550000D02*
X113284000Y-82581000D01*
D37*
X119634000Y-106680000D02*
X119634000Y-109855000D01*
X120445999Y-98709999D02*
X119176000Y-97440000D01*
X120445999Y-105868001D02*
X120445999Y-98709999D01*
X119634000Y-106680000D02*
X120445999Y-105868001D01*
X114299861Y-99942412D02*
X114299861Y-100578808D01*
X114299861Y-97409163D02*
X114299861Y-99942412D01*
X114300024Y-97409000D02*
X114299861Y-97409163D01*
X113352993Y-94302999D02*
X112902994Y-93853000D01*
X112649000Y-93599006D02*
X112902994Y-93853000D01*
X114681000Y-81184000D02*
X113284000Y-82581000D01*
X114300024Y-95250030D02*
X113352993Y-94302999D01*
X114300024Y-97409000D02*
X114300024Y-95250030D01*
X114681000Y-81184000D02*
X114585000Y-81184000D01*
X114585000Y-81184000D02*
X113284000Y-79883000D01*
X113284000Y-79883000D02*
X112844999Y-79443999D01*
X112844999Y-79443999D02*
X112395000Y-78994000D01*
X119176000Y-81184000D02*
X114681000Y-81184000D01*
X119176000Y-97440000D02*
X114331000Y-97440000D01*
X114300000Y-97409000D02*
X114300024Y-97409000D01*
X114331000Y-97440000D02*
X114300000Y-97409000D01*
D38*
X125163999Y-103066023D02*
X124714000Y-102616024D01*
X128778000Y-106680024D02*
X125163999Y-103066023D01*
X128778000Y-112537240D02*
X128778000Y-106680024D01*
X133865620Y-117624860D02*
X128778000Y-112537240D01*
D39*
X122879164Y-115388650D02*
X122879164Y-110800836D01*
X122879164Y-110800836D02*
X124714000Y-108966000D01*
X124714000Y-108966000D02*
X124714000Y-105156000D01*
X124714000Y-105156000D02*
X123317000Y-103759000D01*
X123317000Y-103759000D02*
X122809000Y-103759000D01*
D38*
X116332000Y-113919000D02*
X115443000Y-113919000D01*
X117221000Y-113919000D02*
X116332000Y-113919000D01*
X123571000Y-120142000D02*
X123571000Y-118110000D01*
X119380000Y-113919000D02*
X117221000Y-113919000D01*
X123571000Y-118110000D02*
X119380000Y-113919000D01*
D40*
X131176000Y-85440000D02*
X137510000Y-91774000D01*
X137510000Y-91774000D02*
X140500000Y-91774000D01*
X131176000Y-97440000D02*
X132238000Y-97440000D01*
X132238000Y-97440000D02*
X136572000Y-101774000D01*
X136572000Y-101774000D02*
X140500000Y-101774000D01*
X117176000Y-91440000D02*
X131826000Y-91440000D01*
X131826000Y-91440000D02*
X137160000Y-96774000D01*
X137160000Y-96774000D02*
X140500000Y-96774000D01*
X117176000Y-75184000D02*
X132715000Y-75184000D01*
X132715000Y-75184000D02*
X139305000Y-81774000D01*
X139305000Y-81774000D02*
X140500000Y-81774000D01*
X131176000Y-81184000D02*
X132746000Y-81184000D01*
X138336000Y-86774000D02*
X140500000Y-86774000D01*
X132746000Y-81184000D02*
X138336000Y-86774000D01*
X131176000Y-69184000D02*
X132910000Y-69184000D01*
X132910000Y-69184000D02*
X140500000Y-76774000D01*
D41*
X101473000Y-109220000D02*
X101473000Y-110236000D01*
X102425500Y-117538500D02*
X81597500Y-117538500D01*
X101473000Y-110236000D02*
X102870000Y-111633000D01*
X102870000Y-111633000D02*
X102870000Y-117094000D01*
X102870000Y-117094000D02*
X102425500Y-117538500D01*
X81597500Y-117538500D02*
X80391000Y-118745000D01*
D39*
X80391000Y-120142000D02*
X80391000Y-118745000D01*
D41*
X104140000Y-116332000D02*
X102616000Y-117856000D01*
X102616000Y-117856000D02*
X83820000Y-117856000D01*
X83820000Y-117856000D02*
X82931000Y-118745000D01*
D39*
X82931000Y-120142000D02*
X82931000Y-118745000D01*
X104140000Y-116332000D02*
X104140000Y-115189000D01*
D41*
X101600000Y-116332000D02*
X100711000Y-117221000D01*
X100711000Y-117221000D02*
X79375000Y-117221000D01*
X79375000Y-117221000D02*
X77851000Y-118745000D01*
D39*
X101600000Y-115189000D02*
X101600000Y-116332000D01*
X77851000Y-120142000D02*
X77851000Y-118745000D01*
D41*
X106680000Y-116332000D02*
X104521000Y-118491000D01*
X95123000Y-118491000D02*
X94361000Y-119253000D01*
X104521000Y-118491000D02*
X95123000Y-118491000D01*
X94361000Y-119253000D02*
X94361000Y-121412000D01*
D39*
X93091000Y-122682000D02*
X94361000Y-121412000D01*
X106680000Y-116332000D02*
X106680000Y-115189000D01*
D41*
X105410000Y-113919000D02*
X105410000Y-116586000D01*
X105410000Y-116586000D02*
X103822500Y-118173500D01*
X93789500Y-118173500D02*
X93091000Y-118872000D01*
X103822500Y-118173500D02*
X93789500Y-118173500D01*
D39*
X93091000Y-120142000D02*
X93091000Y-118872000D01*
X105410000Y-113919000D02*
X106680000Y-112649000D01*
D41*
X109220000Y-116332000D02*
X106743500Y-118808500D01*
X106743500Y-118808500D02*
X97726500Y-118808500D01*
X97726500Y-118808500D02*
X96901000Y-119634000D01*
X96901000Y-119634000D02*
X96901000Y-121412000D01*
D39*
X96901000Y-121412000D02*
X95631000Y-122682000D01*
X109220000Y-115189000D02*
X109220000Y-116332000D01*
X109220000Y-116332000D02*
X109220000Y-116332000D01*
D42*
X91381999Y-82179841D02*
X91381999Y-76649999D01*
X94869000Y-85666842D02*
X91381999Y-82179841D01*
X94869000Y-89535000D02*
X94869000Y-85666842D01*
X91381999Y-76649999D02*
X90932000Y-76200000D01*
D39*
X96519992Y-96201802D02*
X96519992Y-96520000D01*
X96519992Y-90932008D02*
X96519992Y-96201802D01*
X97155000Y-90297000D02*
X96519992Y-90932008D01*
X100965002Y-94677802D02*
X100965002Y-94996000D01*
X100965000Y-90297000D02*
X100965002Y-90297002D01*
X100965002Y-90297002D02*
X100965002Y-94677802D01*
X107061000Y-90297000D02*
X108839000Y-90297000D01*
X105283000Y-90297000D02*
X107061000Y-90297000D01*
X101727000Y-90297000D02*
X105283000Y-90297000D01*
X99949000Y-90297000D02*
X100965000Y-90297000D01*
X100965000Y-90297000D02*
X101727000Y-90297000D01*
X97663000Y-90297000D02*
X99949000Y-90297000D01*
X94869000Y-89535000D02*
X95631000Y-90297000D01*
X95631000Y-90297000D02*
X97155000Y-90297000D01*
X97155000Y-90297000D02*
X97663000Y-90297000D01*
D38*
X110670000Y-81409000D02*
X95070000Y-81409000D01*
D43*
G36*
X91497834Y-68007722D02*
X91643374Y-68359954D01*
X91912628Y-68629679D01*
X91978612Y-68657078D01*
X91879151Y-68896606D01*
X91878818Y-69277722D01*
X92024358Y-69629954D01*
X92293612Y-69899679D01*
X92645590Y-70045833D01*
X93026706Y-70046166D01*
X93378938Y-69900626D01*
X93648663Y-69631372D01*
X93794817Y-69279394D01*
X93795150Y-68898278D01*
X93649610Y-68546046D01*
X93380356Y-68276321D01*
X93314372Y-68248922D01*
X93413833Y-68009394D01*
X93414111Y-67691000D01*
X118154939Y-67691000D01*
X117669564Y-68175529D01*
X117398309Y-68828782D01*
X117397692Y-69536114D01*
X117474912Y-69723000D01*
X115824000Y-69723000D01*
X115775399Y-69732667D01*
X115734197Y-69760197D01*
X113673409Y-71820985D01*
X113673409Y-70857591D01*
X113576736Y-70371583D01*
X113301435Y-69959565D01*
X112889417Y-69684264D01*
X112403409Y-69587591D01*
X111917401Y-69684264D01*
X111505383Y-69959565D01*
X111496974Y-69967974D01*
X111221673Y-70379992D01*
X111124999Y-70866000D01*
X111125000Y-70866005D01*
X111125000Y-74547352D01*
X111111769Y-74515331D01*
X110905753Y-74308955D01*
X110673391Y-74212470D01*
X110812768Y-73876813D01*
X110813231Y-73346513D01*
X110610721Y-72856403D01*
X110236070Y-72481097D01*
X109746313Y-72277732D01*
X109216013Y-72277269D01*
X108725903Y-72479779D01*
X108350597Y-72854430D01*
X108209905Y-73193253D01*
X108070721Y-72856403D01*
X107696070Y-72481097D01*
X107206313Y-72277732D01*
X106676013Y-72277269D01*
X106185903Y-72479779D01*
X105810597Y-72854430D01*
X105607232Y-73344187D01*
X105606769Y-73874487D01*
X105809279Y-74364597D01*
X106183930Y-74739903D01*
X106673687Y-74943268D01*
X107203987Y-74943731D01*
X107694097Y-74741221D01*
X108069403Y-74366570D01*
X108210095Y-74027747D01*
X108349279Y-74364597D01*
X108723930Y-74739903D01*
X109213687Y-74943268D01*
X109743987Y-74943731D01*
X109756993Y-74938357D01*
X109756873Y-75075163D01*
X109868231Y-75344669D01*
X110074247Y-75551045D01*
X110343558Y-75662872D01*
X110635163Y-75663127D01*
X110904669Y-75551769D01*
X111111045Y-75345753D01*
X111125000Y-75312145D01*
X111125000Y-78596177D01*
X111124999Y-78596182D01*
X111125000Y-78596187D01*
X111125000Y-78993995D01*
X111124999Y-78994000D01*
X111221673Y-79480008D01*
X111356922Y-79682423D01*
X111041200Y-79551324D01*
X110372654Y-79550741D01*
X110692633Y-78780147D01*
X110693365Y-77941532D01*
X110373117Y-77166474D01*
X109780645Y-76572967D01*
X109006147Y-76251367D01*
X108167532Y-76250635D01*
X107392474Y-76570883D01*
X106798967Y-77163355D01*
X106477367Y-77937853D01*
X106476635Y-78776468D01*
X106796883Y-79551526D01*
X107389355Y-80145033D01*
X107680676Y-80266000D01*
X98059808Y-80266000D01*
X98347526Y-80147117D01*
X98941033Y-79554645D01*
X99262633Y-78780147D01*
X99263365Y-77941532D01*
X98943117Y-77166474D01*
X98350645Y-76572967D01*
X97576147Y-76251367D01*
X96737532Y-76250635D01*
X95962474Y-76570883D01*
X95368967Y-77163355D01*
X95047367Y-77937853D01*
X95046635Y-78776468D01*
X95366773Y-79551259D01*
X94702042Y-79550679D01*
X94018903Y-79832946D01*
X93495783Y-80355154D01*
X93212324Y-81037800D01*
X93211679Y-81776958D01*
X93493946Y-82460097D01*
X94016154Y-82983217D01*
X94698800Y-83266676D01*
X95437958Y-83267321D01*
X96121097Y-82985054D01*
X96554907Y-82552000D01*
X109185689Y-82552000D01*
X109616154Y-82983217D01*
X110136713Y-83199372D01*
X110059321Y-83276628D01*
X109913167Y-83628606D01*
X109912834Y-84009722D01*
X110058374Y-84361954D01*
X110327628Y-84631679D01*
X110573976Y-84733972D01*
X110226974Y-85080974D01*
X109951673Y-85492992D01*
X109854999Y-85979000D01*
X109855000Y-85979005D01*
X109855000Y-92075001D01*
X109854999Y-92075006D01*
X109951673Y-92561014D01*
X110226974Y-92973032D01*
X111750972Y-94497029D01*
X111750974Y-94497032D01*
X112004966Y-94751023D01*
X112004968Y-94751026D01*
X112454965Y-95201022D01*
X112454967Y-95201025D01*
X113030024Y-95776082D01*
X113030024Y-97408339D01*
X113029860Y-97409163D01*
X113029861Y-97409168D01*
X113029861Y-100578808D01*
X113126534Y-101064816D01*
X113401835Y-101476834D01*
X113468869Y-101521625D01*
X113297955Y-101692241D01*
X113186128Y-101961552D01*
X113185873Y-102253157D01*
X113297231Y-102522663D01*
X113503247Y-102729039D01*
X113772558Y-102840866D01*
X114064163Y-102841121D01*
X114333669Y-102729763D01*
X114540045Y-102523747D01*
X114552138Y-102494623D01*
X114567579Y-102494637D01*
X114837085Y-102383279D01*
X115043461Y-102177263D01*
X115155288Y-101907952D01*
X115155543Y-101616347D01*
X115119530Y-101529190D01*
X115197887Y-101476834D01*
X115473188Y-101064816D01*
X115569861Y-100578808D01*
X115569861Y-99398529D01*
X115788628Y-99617679D01*
X116007928Y-99708740D01*
X115882167Y-100011606D01*
X115881834Y-100392722D01*
X115987186Y-100647692D01*
X115882167Y-100900606D01*
X115881834Y-101281722D01*
X115987186Y-101536692D01*
X115882167Y-101789606D01*
X115881834Y-102170722D01*
X116027374Y-102522954D01*
X116296628Y-102792679D01*
X116648606Y-102938833D01*
X117029722Y-102939166D01*
X117284692Y-102833814D01*
X117537606Y-102938833D01*
X117918722Y-102939166D01*
X118270954Y-102793626D01*
X118540679Y-102524372D01*
X118686833Y-102172394D01*
X118686940Y-102050060D01*
X118807722Y-102050166D01*
X119159954Y-101904626D01*
X119175999Y-101888609D01*
X119175999Y-105341949D01*
X118735974Y-105781974D01*
X118460673Y-106193992D01*
X118363999Y-106680000D01*
X118364000Y-106680005D01*
X118364000Y-109855000D01*
X118460673Y-110341008D01*
X118735974Y-110753026D01*
X119147992Y-111028327D01*
X119634000Y-111125000D01*
X120120008Y-111028327D01*
X120532026Y-110753026D01*
X120807327Y-110341008D01*
X120904000Y-109855000D01*
X120904000Y-107206052D01*
X121344025Y-106766027D01*
X121529048Y-106489120D01*
X121529048Y-107061000D01*
X121568475Y-107259212D01*
X121680753Y-107427247D01*
X121848788Y-107539525D01*
X122047000Y-107578952D01*
X123571000Y-107578952D01*
X123698000Y-107553690D01*
X123698000Y-108545159D01*
X122160744Y-110082416D01*
X121940502Y-110412029D01*
X121932014Y-110454703D01*
X121863164Y-110800836D01*
X121863164Y-115388650D01*
X121940502Y-115777456D01*
X122160744Y-116107070D01*
X122490358Y-116327312D01*
X122879164Y-116404650D01*
X123267970Y-116327312D01*
X123472159Y-116190877D01*
X123662628Y-116381679D01*
X124014606Y-116527833D01*
X124395722Y-116528166D01*
X124747954Y-116382626D01*
X125017679Y-116113372D01*
X125163833Y-115761394D01*
X125164166Y-115380278D01*
X125018626Y-115028046D01*
X124749372Y-114758321D01*
X124397394Y-114612167D01*
X124016278Y-114611834D01*
X123895164Y-114661878D01*
X123895164Y-111221676D01*
X125432421Y-109684420D01*
X125652662Y-109354807D01*
X125675609Y-109239442D01*
X125730000Y-108966000D01*
X125730000Y-105248470D01*
X127635000Y-107153470D01*
X127635000Y-112537240D01*
X127668046Y-112703371D01*
X127500832Y-112535866D01*
X127176410Y-112401154D01*
X126825131Y-112400847D01*
X126500474Y-112534993D01*
X126251866Y-112783168D01*
X126117154Y-113107590D01*
X126116847Y-113458869D01*
X126250993Y-113783526D01*
X126499168Y-114032134D01*
X126823590Y-114166846D01*
X127174869Y-114167153D01*
X127499526Y-114033007D01*
X127748134Y-113784832D01*
X127882846Y-113460410D01*
X127883060Y-113215681D01*
X127969777Y-113345463D01*
X129986916Y-115362602D01*
X129898009Y-115399338D01*
X129828747Y-115329955D01*
X129559436Y-115218128D01*
X129267831Y-115217873D01*
X128998325Y-115329231D01*
X128791949Y-115535247D01*
X128748940Y-115638825D01*
X128749127Y-115424827D01*
X128637769Y-115155321D01*
X128431753Y-114948945D01*
X128162442Y-114837118D01*
X127870837Y-114836863D01*
X127601331Y-114948221D01*
X127394955Y-115154237D01*
X127283128Y-115423548D01*
X127282873Y-115715153D01*
X127394231Y-115984659D01*
X127600247Y-116191035D01*
X127869558Y-116302862D01*
X128161163Y-116303117D01*
X128430669Y-116191759D01*
X128637045Y-115985743D01*
X128680054Y-115882165D01*
X128679867Y-116096163D01*
X128791225Y-116365669D01*
X128997241Y-116572045D01*
X129266552Y-116683872D01*
X129558157Y-116684127D01*
X129689985Y-116629656D01*
X129759247Y-116699039D01*
X130028558Y-116810866D01*
X130320163Y-116811121D01*
X130589669Y-116699763D01*
X130796045Y-116493747D01*
X130890525Y-116266211D01*
X132647668Y-118023354D01*
X132647668Y-118324860D01*
X132687095Y-118523072D01*
X132799373Y-118691107D01*
X132967408Y-118803385D01*
X133165620Y-118842812D01*
X134565620Y-118842812D01*
X134763832Y-118803385D01*
X134931867Y-118691107D01*
X135044145Y-118523072D01*
X135048375Y-118501809D01*
X135192130Y-118645815D01*
X135635960Y-118830110D01*
X136116532Y-118830529D01*
X136560683Y-118647010D01*
X136900795Y-118307490D01*
X137085090Y-117863660D01*
X137085509Y-117383088D01*
X136901990Y-116938937D01*
X136562470Y-116598825D01*
X136118640Y-116414530D01*
X135638068Y-116414111D01*
X135193917Y-116597630D01*
X135047546Y-116743746D01*
X135044145Y-116726648D01*
X134931867Y-116558613D01*
X134763832Y-116446335D01*
X134565620Y-116406908D01*
X134264114Y-116406908D01*
X131540742Y-113683536D01*
X131826540Y-113492572D01*
X132099240Y-113084448D01*
X132195000Y-112603032D01*
X132195000Y-112401052D01*
X135499972Y-115706023D01*
X135499974Y-115706026D01*
X135854922Y-115943194D01*
X135911992Y-115981327D01*
X136398000Y-116078001D01*
X136398005Y-116078000D01*
X139024995Y-116078000D01*
X139025000Y-116078001D01*
X139511008Y-115981327D01*
X139923026Y-115706026D01*
X139962100Y-115666952D01*
X141732000Y-115666952D01*
X141930212Y-115627525D01*
X142098247Y-115515247D01*
X142210525Y-115347212D01*
X142249952Y-115149000D01*
X142249952Y-112101000D01*
X142210525Y-111902788D01*
X142098247Y-111734753D01*
X141930212Y-111622475D01*
X141732000Y-111583048D01*
X138695000Y-111583048D01*
X138695000Y-109985550D01*
X139055462Y-110346641D01*
X139802037Y-110656646D01*
X140610416Y-110657352D01*
X141357532Y-110348650D01*
X141929641Y-109777538D01*
X142239646Y-109030963D01*
X142240352Y-108222584D01*
X141931650Y-107475468D01*
X141360538Y-106903359D01*
X140613963Y-106593354D01*
X139805584Y-106592648D01*
X139058468Y-106901350D01*
X138486359Y-107472462D01*
X138176354Y-108219037D01*
X138176104Y-108504910D01*
X137918416Y-108332728D01*
X137437000Y-108236968D01*
X136955584Y-108332728D01*
X136547460Y-108605428D01*
X136274760Y-109013552D01*
X136179000Y-109494968D01*
X136179000Y-112603032D01*
X136226157Y-112840106D01*
X133537026Y-110150974D01*
X133125008Y-109875673D01*
X132639000Y-109778999D01*
X132638995Y-109779000D01*
X132195000Y-109779000D01*
X132195000Y-109494968D01*
X132099240Y-109013552D01*
X131826540Y-108605428D01*
X131418416Y-108332728D01*
X130937000Y-108236968D01*
X130455584Y-108332728D01*
X130047460Y-108605428D01*
X129921000Y-108794689D01*
X129921000Y-106680024D01*
X129833994Y-106242617D01*
X129586223Y-105871801D01*
X125522223Y-101807801D01*
X125151407Y-101560030D01*
X124714000Y-101473024D01*
X124276593Y-101560030D01*
X123905777Y-101807801D01*
X123658006Y-102178617D01*
X123571000Y-102616024D01*
X123597999Y-102751756D01*
X123529337Y-102682974D01*
X123062727Y-102489221D01*
X122557490Y-102488780D01*
X122360810Y-102570046D01*
X122449672Y-102356042D01*
X122449927Y-102064437D01*
X122338569Y-101794931D01*
X122132553Y-101588555D01*
X121863242Y-101476728D01*
X121715999Y-101476599D01*
X121715999Y-98710004D01*
X121716000Y-98709999D01*
X121670711Y-98482317D01*
X123100197Y-99911803D01*
X123141399Y-99939333D01*
X123190000Y-99949000D01*
X125284633Y-99949000D01*
X125153167Y-100265606D01*
X125152834Y-100646722D01*
X125298374Y-100998954D01*
X125567628Y-101268679D01*
X125919606Y-101414833D01*
X126300722Y-101415166D01*
X126652954Y-101269626D01*
X126922679Y-101000372D01*
X127068833Y-100648394D01*
X127068894Y-100578500D01*
X128397000Y-101906606D01*
X128397000Y-103378000D01*
X128406667Y-103426601D01*
X128434197Y-103467803D01*
X130593197Y-105626803D01*
X130634399Y-105654333D01*
X130683000Y-105664000D01*
X131861464Y-105664000D01*
X131793428Y-105709460D01*
X131520728Y-106117584D01*
X131424968Y-106599000D01*
X131520728Y-107080416D01*
X131793428Y-107488540D01*
X132201552Y-107761240D01*
X132682968Y-107857000D01*
X135791032Y-107857000D01*
X136272448Y-107761240D01*
X136680572Y-107488540D01*
X136953272Y-107080416D01*
X137049032Y-106599000D01*
X136964096Y-106172000D01*
X144088000Y-106172000D01*
X144088000Y-118468068D01*
X143425796Y-117804707D01*
X142081813Y-117246637D01*
X140626571Y-117245367D01*
X139281617Y-117801091D01*
X138251707Y-118829204D01*
X137693637Y-120173187D01*
X137692367Y-121628429D01*
X138248091Y-122973383D01*
X138844665Y-123571000D01*
X127197830Y-123571000D01*
X127294629Y-123474370D01*
X127507757Y-122961100D01*
X127508242Y-122405339D01*
X127296010Y-121891697D01*
X126903370Y-121498371D01*
X126695488Y-121412051D01*
X126901303Y-121327010D01*
X127294629Y-120934370D01*
X127507757Y-120421100D01*
X127508242Y-119865339D01*
X127296010Y-119351697D01*
X126903370Y-118958371D01*
X126390100Y-118745243D01*
X125834339Y-118744758D01*
X125612951Y-118836233D01*
X125454923Y-118677929D01*
X125185612Y-118566102D01*
X124894007Y-118565847D01*
X124624501Y-118677205D01*
X124462195Y-118839228D01*
X124308772Y-118685805D01*
X124162396Y-118832181D01*
X124086559Y-118676166D01*
X123486364Y-118590450D01*
X123055441Y-118676166D01*
X122979604Y-118832181D01*
X122877902Y-118730479D01*
X122878166Y-118428278D01*
X122732626Y-118076046D01*
X122463372Y-117806321D01*
X122111394Y-117660167D01*
X121730278Y-117659834D01*
X121378046Y-117805374D01*
X121108321Y-118074628D01*
X120962167Y-118426606D01*
X120961889Y-118744939D01*
X120754339Y-118744758D01*
X120240697Y-118956990D01*
X119847371Y-119349630D01*
X119761051Y-119557512D01*
X119676010Y-119351697D01*
X119283370Y-118958371D01*
X118770100Y-118745243D01*
X118214339Y-118744758D01*
X117700697Y-118956990D01*
X117307371Y-119349630D01*
X117221051Y-119557512D01*
X117136010Y-119351697D01*
X116743370Y-118958371D01*
X116230100Y-118745243D01*
X115674339Y-118744758D01*
X115160697Y-118956990D01*
X114767371Y-119349630D01*
X114681051Y-119557512D01*
X114596010Y-119351697D01*
X114203370Y-118958371D01*
X113690100Y-118745243D01*
X113134339Y-118744758D01*
X112620697Y-118956990D01*
X112227371Y-119349630D01*
X112141051Y-119557512D01*
X112056010Y-119351697D01*
X111663370Y-118958371D01*
X111150100Y-118745243D01*
X110594339Y-118744758D01*
X110080697Y-118956990D01*
X109687371Y-119349630D01*
X109601051Y-119557512D01*
X109516010Y-119351697D01*
X109123370Y-118958371D01*
X108610100Y-118745243D01*
X108054339Y-118744758D01*
X107540697Y-118956990D01*
X107147371Y-119349630D01*
X107061051Y-119557512D01*
X106976010Y-119351697D01*
X106961063Y-119336724D01*
X106962204Y-119336497D01*
X107147612Y-119212612D01*
X109046695Y-117313528D01*
X109220000Y-117348000D01*
X109608806Y-117270662D01*
X109779328Y-117156722D01*
X119691834Y-117156722D01*
X119837374Y-117508954D01*
X120106628Y-117778679D01*
X120458606Y-117924833D01*
X120839722Y-117925166D01*
X121191954Y-117779626D01*
X121461679Y-117510372D01*
X121607833Y-117158394D01*
X121608166Y-116777278D01*
X121462626Y-116425046D01*
X121193372Y-116155321D01*
X120841394Y-116009167D01*
X120460278Y-116008834D01*
X120108046Y-116154374D01*
X119838321Y-116423628D01*
X119692167Y-116775606D01*
X119691834Y-117156722D01*
X109779328Y-117156722D01*
X109938420Y-117050420D01*
X110158662Y-116720806D01*
X110236000Y-116332000D01*
X110236000Y-116093600D01*
X110370585Y-115959250D01*
X110577764Y-115460308D01*
X110578235Y-114920062D01*
X110371928Y-114420760D01*
X109990250Y-114038415D01*
X109702575Y-113918962D01*
X109988240Y-113800928D01*
X110370585Y-113419250D01*
X110577764Y-112920308D01*
X110578235Y-112380062D01*
X110557849Y-112330722D01*
X113214834Y-112330722D01*
X113360374Y-112682954D01*
X113629628Y-112952679D01*
X113981606Y-113098833D01*
X114362722Y-113099166D01*
X114714954Y-112953626D01*
X114984679Y-112684372D01*
X115130833Y-112332394D01*
X115131166Y-111951278D01*
X114985626Y-111599046D01*
X114716372Y-111329321D01*
X114364394Y-111183167D01*
X113983278Y-111182834D01*
X113631046Y-111328374D01*
X113361321Y-111597628D01*
X113215167Y-111949606D01*
X113214834Y-112330722D01*
X110557849Y-112330722D01*
X110371928Y-111880760D01*
X109990250Y-111498415D01*
X109491308Y-111291236D01*
X108951062Y-111290765D01*
X108451760Y-111497072D01*
X108069415Y-111878750D01*
X107949962Y-112166425D01*
X107831928Y-111880760D01*
X107450250Y-111498415D01*
X106951308Y-111291236D01*
X106411062Y-111290765D01*
X105911760Y-111497072D01*
X105529415Y-111878750D01*
X105409962Y-112166425D01*
X105291928Y-111880760D01*
X104910250Y-111498415D01*
X104411308Y-111291236D01*
X103871062Y-111290765D01*
X103411219Y-111480768D01*
X103397997Y-111414296D01*
X103274112Y-111228888D01*
X103274109Y-111228886D01*
X102046429Y-110001206D01*
X102284679Y-109763372D01*
X102430833Y-109411394D01*
X102431166Y-109030278D01*
X102285626Y-108678046D01*
X102016372Y-108408321D01*
X101664394Y-108262167D01*
X101283278Y-108261834D01*
X100931046Y-108407374D01*
X100661321Y-108676628D01*
X100515167Y-109028606D01*
X100514834Y-109409722D01*
X100660374Y-109761954D01*
X100901500Y-110003502D01*
X100901500Y-110235995D01*
X100901499Y-110236000D01*
X100933516Y-110396954D01*
X100945003Y-110454704D01*
X101068888Y-110640112D01*
X101719880Y-111291104D01*
X101331062Y-111290765D01*
X100831760Y-111497072D01*
X100449415Y-111878750D01*
X100329962Y-112166425D01*
X100211928Y-111880760D01*
X99830250Y-111498415D01*
X99331308Y-111291236D01*
X98791062Y-111290765D01*
X98291760Y-111497072D01*
X97909415Y-111878750D01*
X97702236Y-112377692D01*
X97701765Y-112917938D01*
X97908072Y-113417240D01*
X98289750Y-113799585D01*
X98341439Y-113821048D01*
X98210000Y-113821048D01*
X98011788Y-113860475D01*
X97843753Y-113972753D01*
X97731475Y-114140788D01*
X97692048Y-114339000D01*
X97692048Y-116039000D01*
X97731475Y-116237212D01*
X97843753Y-116405247D01*
X98011788Y-116517525D01*
X98210000Y-116556952D01*
X99910000Y-116556952D01*
X100108212Y-116517525D01*
X100276247Y-116405247D01*
X100388525Y-116237212D01*
X100427952Y-116039000D01*
X100427952Y-115908546D01*
X100448072Y-115957240D01*
X100584000Y-116093406D01*
X100584000Y-116332000D01*
X100618472Y-116505304D01*
X100474276Y-116649500D01*
X79375000Y-116649500D01*
X79156296Y-116693003D01*
X78970888Y-116816888D01*
X78970886Y-116816891D01*
X78024304Y-117763472D01*
X77851000Y-117729000D01*
X77462194Y-117806338D01*
X77132580Y-118026580D01*
X76912338Y-118356194D01*
X76835000Y-118745000D01*
X76835000Y-119182293D01*
X76667371Y-119349630D01*
X76503637Y-119743947D01*
X76127909Y-118834617D01*
X75099796Y-117804707D01*
X73755813Y-117246637D01*
X72300571Y-117245367D01*
X70955617Y-117801091D01*
X70355000Y-118400660D01*
X70355000Y-115357838D01*
X76840168Y-115357838D01*
X76951526Y-115627344D01*
X77157542Y-115833720D01*
X77426853Y-115945547D01*
X77718458Y-115945802D01*
X77987964Y-115834444D01*
X78073079Y-115749478D01*
X78261103Y-115749642D01*
X78530609Y-115638284D01*
X78736985Y-115432268D01*
X78759761Y-115377416D01*
X78847558Y-115413872D01*
X79139163Y-115414127D01*
X79271140Y-115359595D01*
X79467247Y-115556045D01*
X79736558Y-115667872D01*
X80028163Y-115668127D01*
X80297669Y-115556769D01*
X80504045Y-115350753D01*
X80615872Y-115081442D01*
X80616056Y-114870722D01*
X86417838Y-114870722D01*
X86563378Y-115222954D01*
X86832632Y-115492679D01*
X87184610Y-115638833D01*
X87565726Y-115639166D01*
X87917958Y-115493626D01*
X88187683Y-115224372D01*
X88333837Y-114872394D01*
X88334170Y-114491278D01*
X88188630Y-114139046D01*
X87919376Y-113869321D01*
X87567398Y-113723167D01*
X87186282Y-113722834D01*
X86834050Y-113868374D01*
X86564325Y-114137628D01*
X86418171Y-114489606D01*
X86417838Y-114870722D01*
X80616056Y-114870722D01*
X80616127Y-114789837D01*
X80504769Y-114520331D01*
X80298753Y-114313955D01*
X80029442Y-114202128D01*
X79737837Y-114201873D01*
X79605860Y-114256405D01*
X79409753Y-114059955D01*
X79140442Y-113948128D01*
X78848837Y-113947873D01*
X78579331Y-114059231D01*
X78372955Y-114265247D01*
X78350179Y-114320099D01*
X78262382Y-114283643D01*
X77970777Y-114283388D01*
X77701271Y-114394746D01*
X77616156Y-114479712D01*
X77428132Y-114479548D01*
X77158626Y-114590906D01*
X76952250Y-114796922D01*
X76840423Y-115066233D01*
X76840168Y-115357838D01*
X70355000Y-115357838D01*
X70355000Y-113092722D01*
X79427324Y-113092722D01*
X79572864Y-113444954D01*
X79842118Y-113714679D01*
X80194096Y-113860833D01*
X80575212Y-113861166D01*
X80927444Y-113715626D01*
X81197169Y-113446372D01*
X81343323Y-113094394D01*
X81343656Y-112713278D01*
X81198116Y-112361046D01*
X80928862Y-112091321D01*
X80576884Y-111945167D01*
X80195768Y-111944834D01*
X79843536Y-112090374D01*
X79573811Y-112359628D01*
X79427657Y-112711606D01*
X79427324Y-113092722D01*
X70355000Y-113092722D01*
X70355000Y-111651163D01*
X83340867Y-111651163D01*
X83452225Y-111920669D01*
X83658241Y-112127045D01*
X83927552Y-112238872D01*
X84219157Y-112239127D01*
X84488663Y-112127769D01*
X84695039Y-111921753D01*
X84806866Y-111652442D01*
X84807050Y-111441722D01*
X93148834Y-111441722D01*
X93294374Y-111793954D01*
X93563628Y-112063679D01*
X93915606Y-112209833D01*
X94296722Y-112210166D01*
X94648954Y-112064626D01*
X94918679Y-111795372D01*
X95064833Y-111443394D01*
X95065166Y-111062278D01*
X94919626Y-110710046D01*
X94650372Y-110440321D01*
X94298394Y-110294167D01*
X93917278Y-110293834D01*
X93565046Y-110439374D01*
X93295321Y-110708628D01*
X93149167Y-111060606D01*
X93148834Y-111441722D01*
X84807050Y-111441722D01*
X84807121Y-111360837D01*
X84695763Y-111091331D01*
X84489747Y-110884955D01*
X84220436Y-110773128D01*
X83928831Y-110772873D01*
X83659325Y-110884231D01*
X83452949Y-111090247D01*
X83341122Y-111359558D01*
X83340867Y-111651163D01*
X70355000Y-111651163D01*
X70355000Y-110254163D01*
X81782373Y-110254163D01*
X81893731Y-110523669D01*
X82099747Y-110730045D01*
X82369058Y-110841872D01*
X82660663Y-110842127D01*
X82930169Y-110730769D01*
X83136545Y-110524753D01*
X83248372Y-110255442D01*
X83248541Y-110062581D01*
X83389875Y-110004183D01*
X83596251Y-109798167D01*
X83708078Y-109528856D01*
X83708333Y-109237251D01*
X83596975Y-108967745D01*
X83390959Y-108761369D01*
X83121648Y-108649542D01*
X82830043Y-108649287D01*
X82560537Y-108760645D01*
X82354161Y-108966661D01*
X82242334Y-109235972D01*
X82242165Y-109428833D01*
X82100831Y-109487231D01*
X81894455Y-109693247D01*
X81782628Y-109962558D01*
X81782373Y-110254163D01*
X70355000Y-110254163D01*
X70355000Y-109238163D01*
X78260873Y-109238163D01*
X78372231Y-109507669D01*
X78578247Y-109714045D01*
X78847558Y-109825872D01*
X79139163Y-109826127D01*
X79408669Y-109714769D01*
X79615045Y-109508753D01*
X79726872Y-109239442D01*
X79727127Y-108947837D01*
X79615769Y-108678331D01*
X79409753Y-108471955D01*
X79140442Y-108360128D01*
X78848837Y-108359873D01*
X78579331Y-108471231D01*
X78372955Y-108677247D01*
X78261128Y-108946558D01*
X78260873Y-109238163D01*
X70355000Y-109238163D01*
X70355000Y-108393722D01*
X72574834Y-108393722D01*
X72720374Y-108745954D01*
X72989628Y-109015679D01*
X73341606Y-109161833D01*
X73722722Y-109162166D01*
X74074954Y-109016626D01*
X74344679Y-108747372D01*
X74490833Y-108395394D01*
X74491166Y-108014278D01*
X74345626Y-107662046D01*
X74076372Y-107392321D01*
X73724394Y-107246167D01*
X73343278Y-107245834D01*
X72991046Y-107391374D01*
X72721321Y-107660628D01*
X72575167Y-108012606D01*
X72574834Y-108393722D01*
X70355000Y-108393722D01*
X70355000Y-107123722D01*
X79427324Y-107123722D01*
X79572864Y-107475954D01*
X79842118Y-107745679D01*
X80194096Y-107891833D01*
X80575212Y-107892166D01*
X80927444Y-107746626D01*
X81197169Y-107477372D01*
X81343323Y-107125394D01*
X81343546Y-106869722D01*
X95815834Y-106869722D01*
X95961374Y-107221954D01*
X96230628Y-107491679D01*
X96582606Y-107637833D01*
X96963722Y-107638166D01*
X97315954Y-107492626D01*
X97585679Y-107223372D01*
X97679792Y-106996722D01*
X99498834Y-106996722D01*
X99644374Y-107348954D01*
X99913628Y-107618679D01*
X100265606Y-107764833D01*
X100646722Y-107765166D01*
X100998954Y-107619626D01*
X101268679Y-107350372D01*
X101328559Y-107206163D01*
X104803873Y-107206163D01*
X104915231Y-107475669D01*
X105121247Y-107682045D01*
X105390558Y-107793872D01*
X105682163Y-107794127D01*
X105951669Y-107682769D01*
X106158045Y-107476753D01*
X106269872Y-107207442D01*
X106270127Y-106915837D01*
X106158769Y-106646331D01*
X106128214Y-106615722D01*
X113341836Y-106615722D01*
X113487376Y-106967954D01*
X113756630Y-107237679D01*
X114108608Y-107383833D01*
X114489724Y-107384166D01*
X114841956Y-107238626D01*
X115111681Y-106969372D01*
X115257835Y-106617394D01*
X115258168Y-106236278D01*
X115112628Y-105884046D01*
X114843374Y-105614321D01*
X114491396Y-105468167D01*
X114110280Y-105467834D01*
X113758048Y-105613374D01*
X113488323Y-105882628D01*
X113342169Y-106234606D01*
X113341836Y-106615722D01*
X106128214Y-106615722D01*
X105952753Y-106439955D01*
X105683442Y-106328128D01*
X105391837Y-106327873D01*
X105122331Y-106439231D01*
X104915955Y-106645247D01*
X104804128Y-106914558D01*
X104803873Y-107206163D01*
X101328559Y-107206163D01*
X101414833Y-106998394D01*
X101415166Y-106617278D01*
X101269626Y-106265046D01*
X101000372Y-105995321D01*
X100648394Y-105849167D01*
X100267278Y-105848834D01*
X99915046Y-105994374D01*
X99645321Y-106263628D01*
X99499167Y-106615606D01*
X99498834Y-106996722D01*
X97679792Y-106996722D01*
X97731833Y-106871394D01*
X97732166Y-106490278D01*
X97586626Y-106138046D01*
X97317372Y-105868321D01*
X96965394Y-105722167D01*
X96584278Y-105721834D01*
X96232046Y-105867374D01*
X95962321Y-106136628D01*
X95816167Y-106488606D01*
X95815834Y-106869722D01*
X81343546Y-106869722D01*
X81343656Y-106744278D01*
X81198116Y-106392046D01*
X80928862Y-106122321D01*
X80576884Y-105976167D01*
X80195768Y-105975834D01*
X79843536Y-106121374D01*
X79573811Y-106390628D01*
X79427657Y-106742606D01*
X79427324Y-107123722D01*
X70355000Y-107123722D01*
X70355000Y-103059722D01*
X93021834Y-103059722D01*
X93167374Y-103411954D01*
X93436628Y-103681679D01*
X93788606Y-103827833D01*
X94169722Y-103828166D01*
X94521954Y-103682626D01*
X94791679Y-103413372D01*
X94937833Y-103061394D01*
X94937984Y-102888163D01*
X97564873Y-102888163D01*
X97676231Y-103157669D01*
X97882247Y-103364045D01*
X98151558Y-103475872D01*
X98443163Y-103476127D01*
X98712669Y-103364769D01*
X98919045Y-103158753D01*
X98932896Y-103125396D01*
X98946231Y-103157669D01*
X99152247Y-103364045D01*
X99421558Y-103475872D01*
X99713163Y-103476127D01*
X99982669Y-103364769D01*
X100189045Y-103158753D01*
X100300872Y-102889442D01*
X100300984Y-102761163D01*
X100993867Y-102761163D01*
X101105225Y-103030669D01*
X101311241Y-103237045D01*
X101580552Y-103348872D01*
X101872157Y-103349127D01*
X101890127Y-103341702D01*
X101883128Y-103358558D01*
X101882873Y-103650163D01*
X101994231Y-103919669D01*
X102200247Y-104126045D01*
X102469558Y-104237872D01*
X102644914Y-104238025D01*
X102644873Y-104285163D01*
X102756231Y-104554669D01*
X102962247Y-104761045D01*
X103231558Y-104872872D01*
X103523163Y-104873127D01*
X103792669Y-104761769D01*
X103999045Y-104555753D01*
X104110872Y-104286442D01*
X104111127Y-103994837D01*
X104039881Y-103822409D01*
X104110872Y-103651442D01*
X104110873Y-103650163D01*
X107089873Y-103650163D01*
X107187422Y-103886248D01*
X107090128Y-104120558D01*
X107089873Y-104412163D01*
X107201231Y-104681669D01*
X107407247Y-104888045D01*
X107676558Y-104999872D01*
X107968163Y-105000127D01*
X108237669Y-104888769D01*
X108444045Y-104682753D01*
X108555872Y-104413442D01*
X108556127Y-104121837D01*
X108484597Y-103948722D01*
X114611834Y-103948722D01*
X114757374Y-104300954D01*
X115026628Y-104570679D01*
X115378606Y-104716833D01*
X115759722Y-104717166D01*
X116111954Y-104571626D01*
X116381679Y-104302372D01*
X116527833Y-103950394D01*
X116528166Y-103569278D01*
X116382626Y-103217046D01*
X116113372Y-102947321D01*
X115761394Y-102801167D01*
X115380278Y-102800834D01*
X115028046Y-102946374D01*
X114758321Y-103215628D01*
X114612167Y-103567606D01*
X114611834Y-103948722D01*
X108484597Y-103948722D01*
X108458578Y-103885752D01*
X108555872Y-103651442D01*
X108556127Y-103359837D01*
X108444769Y-103090331D01*
X108238753Y-102883955D01*
X107969442Y-102772128D01*
X107677837Y-102771873D01*
X107408331Y-102883231D01*
X107201955Y-103089247D01*
X107090128Y-103358558D01*
X107089873Y-103650163D01*
X104110873Y-103650163D01*
X104111127Y-103359837D01*
X103999769Y-103090331D01*
X103929631Y-103020070D01*
X103983872Y-102889442D01*
X103984127Y-102597837D01*
X103872769Y-102328331D01*
X103675696Y-102130913D01*
X103729872Y-102000442D01*
X103730127Y-101708837D01*
X103618769Y-101439331D01*
X103412753Y-101232955D01*
X103143442Y-101121128D01*
X102851837Y-101120873D01*
X102582331Y-101232231D01*
X102375955Y-101438247D01*
X102264128Y-101707558D01*
X102263873Y-101999163D01*
X102346450Y-102199014D01*
X102142747Y-101994955D01*
X101873436Y-101883128D01*
X101581831Y-101882873D01*
X101312325Y-101994231D01*
X101105949Y-102200247D01*
X100994122Y-102469558D01*
X100993867Y-102761163D01*
X100300984Y-102761163D01*
X100301127Y-102597837D01*
X100189769Y-102328331D01*
X99983753Y-102121955D01*
X99714442Y-102010128D01*
X99422837Y-102009873D01*
X99153331Y-102121231D01*
X98946955Y-102327247D01*
X98933104Y-102360604D01*
X98919769Y-102328331D01*
X98713753Y-102121955D01*
X98444442Y-102010128D01*
X98152837Y-102009873D01*
X97883331Y-102121231D01*
X97676955Y-102327247D01*
X97565128Y-102596558D01*
X97564873Y-102888163D01*
X94937984Y-102888163D01*
X94938166Y-102680278D01*
X94792626Y-102328046D01*
X94523372Y-102058321D01*
X94171394Y-101912167D01*
X93790278Y-101911834D01*
X93438046Y-102057374D01*
X93168321Y-102326628D01*
X93022167Y-102678606D01*
X93021834Y-103059722D01*
X70355000Y-103059722D01*
X70355000Y-101916722D01*
X77014313Y-101916722D01*
X77159853Y-102268954D01*
X77429107Y-102538679D01*
X77781085Y-102684833D01*
X78162201Y-102685166D01*
X78514433Y-102539626D01*
X78784158Y-102270372D01*
X78930312Y-101918394D01*
X78930645Y-101537278D01*
X78785105Y-101185046D01*
X78515851Y-100915321D01*
X78163873Y-100769167D01*
X77782757Y-100768834D01*
X77430525Y-100914374D01*
X77160800Y-101183628D01*
X77014646Y-101535606D01*
X77014313Y-101916722D01*
X70355000Y-101916722D01*
X70355000Y-100519722D01*
X72574834Y-100519722D01*
X72720374Y-100871954D01*
X72989628Y-101141679D01*
X73341606Y-101287833D01*
X73722722Y-101288166D01*
X74074954Y-101142626D01*
X74344679Y-100873372D01*
X74478797Y-100550379D01*
X84724927Y-100550379D01*
X84836285Y-100819885D01*
X84865102Y-100848752D01*
X84864873Y-101110163D01*
X84936119Y-101282591D01*
X84865128Y-101453558D01*
X84864873Y-101745163D01*
X84976231Y-102014669D01*
X85182247Y-102221045D01*
X85451558Y-102332872D01*
X85743163Y-102333127D01*
X86012669Y-102221769D01*
X86219045Y-102015753D01*
X86330872Y-101746442D01*
X86331127Y-101454837D01*
X86259881Y-101282409D01*
X86330872Y-101111442D01*
X86331127Y-100819837D01*
X86219769Y-100550331D01*
X86190952Y-100521464D01*
X86191064Y-100392722D01*
X90481834Y-100392722D01*
X90627374Y-100744954D01*
X90896628Y-101014679D01*
X91248606Y-101160833D01*
X91629722Y-101161166D01*
X91981954Y-101015626D01*
X92251679Y-100746372D01*
X92397833Y-100394394D01*
X92398166Y-100013278D01*
X92252626Y-99661046D01*
X91983372Y-99391321D01*
X91631394Y-99245167D01*
X91250278Y-99244834D01*
X90898046Y-99390374D01*
X90628321Y-99659628D01*
X90482167Y-100011606D01*
X90481834Y-100392722D01*
X86191064Y-100392722D01*
X86191181Y-100260053D01*
X86079823Y-99990547D01*
X85873807Y-99784171D01*
X85604496Y-99672344D01*
X85312891Y-99672089D01*
X85043385Y-99783447D01*
X84837009Y-99989463D01*
X84725182Y-100258774D01*
X84724927Y-100550379D01*
X74478797Y-100550379D01*
X74490833Y-100521394D01*
X74491166Y-100140278D01*
X74345626Y-99788046D01*
X74076372Y-99518321D01*
X73724394Y-99372167D01*
X73343278Y-99371834D01*
X72991046Y-99517374D01*
X72721321Y-99786628D01*
X72575167Y-100138606D01*
X72574834Y-100519722D01*
X70355000Y-100519722D01*
X70355000Y-99129947D01*
X82036297Y-99129947D01*
X82147655Y-99399453D01*
X82353671Y-99605829D01*
X82622982Y-99717656D01*
X82914587Y-99717911D01*
X83184093Y-99606553D01*
X83390469Y-99400537D01*
X83502296Y-99131226D01*
X83502551Y-98839621D01*
X83437826Y-98682974D01*
X83536872Y-98444442D01*
X83537127Y-98152837D01*
X83465881Y-97980409D01*
X83536872Y-97809442D01*
X83537127Y-97517837D01*
X83465881Y-97345409D01*
X83484668Y-97300163D01*
X84264383Y-97300163D01*
X84375741Y-97569669D01*
X84581757Y-97776045D01*
X84586501Y-97778015D01*
X84484128Y-98024558D01*
X84483873Y-98316163D01*
X84595231Y-98585669D01*
X84801247Y-98792045D01*
X85070558Y-98903872D01*
X85362163Y-98904127D01*
X85631669Y-98792769D01*
X85838045Y-98586753D01*
X85949872Y-98317442D01*
X85950127Y-98025837D01*
X85878598Y-97852722D01*
X87814834Y-97852722D01*
X87960374Y-98204954D01*
X88229628Y-98474679D01*
X88581606Y-98620833D01*
X88962722Y-98621166D01*
X89314954Y-98475626D01*
X89474695Y-98316163D01*
X90579873Y-98316163D01*
X90691231Y-98585669D01*
X90897247Y-98792045D01*
X91166558Y-98903872D01*
X91458163Y-98904127D01*
X91727669Y-98792769D01*
X91934045Y-98586753D01*
X92045872Y-98317442D01*
X92046127Y-98025837D01*
X91934769Y-97756331D01*
X91728753Y-97549955D01*
X91459442Y-97438128D01*
X91167837Y-97437873D01*
X90898331Y-97549231D01*
X90691955Y-97755247D01*
X90580128Y-98024558D01*
X90579873Y-98316163D01*
X89474695Y-98316163D01*
X89584679Y-98206372D01*
X89730833Y-97854394D01*
X89731166Y-97473278D01*
X89585626Y-97121046D01*
X89316372Y-96851321D01*
X88964394Y-96705167D01*
X88583278Y-96704834D01*
X88231046Y-96850374D01*
X87961321Y-97119628D01*
X87815167Y-97471606D01*
X87814834Y-97852722D01*
X85878598Y-97852722D01*
X85838769Y-97756331D01*
X85632753Y-97549955D01*
X85628009Y-97547985D01*
X85730382Y-97301442D01*
X85730637Y-97009837D01*
X85619279Y-96740331D01*
X85413263Y-96533955D01*
X85143952Y-96422128D01*
X84852347Y-96421873D01*
X84582841Y-96533231D01*
X84376465Y-96739247D01*
X84264638Y-97008558D01*
X84264383Y-97300163D01*
X83484668Y-97300163D01*
X83536872Y-97174442D01*
X83537127Y-96882837D01*
X83465881Y-96710409D01*
X83536872Y-96539442D01*
X83537127Y-96247837D01*
X83465884Y-96075416D01*
X83536878Y-95904442D01*
X83537133Y-95612837D01*
X83425775Y-95343331D01*
X83219759Y-95136955D01*
X82950448Y-95025128D01*
X82658843Y-95024873D01*
X82389337Y-95136231D01*
X82182961Y-95342247D01*
X82071134Y-95611558D01*
X82070879Y-95903163D01*
X82142122Y-96075584D01*
X82071128Y-96246558D01*
X82070873Y-96538163D01*
X82142119Y-96710591D01*
X82071128Y-96881558D01*
X82070873Y-97173163D01*
X82142119Y-97345591D01*
X82071128Y-97516558D01*
X82070873Y-97808163D01*
X82142119Y-97980591D01*
X82071128Y-98151558D01*
X82070873Y-98443163D01*
X82135598Y-98599810D01*
X82036552Y-98838342D01*
X82036297Y-99129947D01*
X70355000Y-99129947D01*
X70355000Y-97344722D01*
X77014313Y-97344722D01*
X77159853Y-97696954D01*
X77429107Y-97966679D01*
X77781085Y-98112833D01*
X78162201Y-98113166D01*
X78514433Y-97967626D01*
X78784158Y-97698372D01*
X78930312Y-97346394D01*
X78930645Y-96965278D01*
X78785105Y-96613046D01*
X78515851Y-96343321D01*
X78163873Y-96197167D01*
X77782757Y-96196834D01*
X77430525Y-96342374D01*
X77160800Y-96611628D01*
X77014646Y-96963606D01*
X77014313Y-97344722D01*
X70355000Y-97344722D01*
X70355000Y-95821121D01*
X70674606Y-95953833D01*
X71055722Y-95954166D01*
X71407954Y-95808626D01*
X71677679Y-95539372D01*
X71823833Y-95187394D01*
X71824166Y-94806278D01*
X71678626Y-94454046D01*
X71409372Y-94184321D01*
X71057394Y-94038167D01*
X70676278Y-94037834D01*
X70355000Y-94170584D01*
X70355000Y-93744163D01*
X83975873Y-93744163D01*
X84087231Y-94013669D01*
X84293247Y-94220045D01*
X84562558Y-94331872D01*
X84854163Y-94332127D01*
X85123669Y-94220769D01*
X85330045Y-94014753D01*
X85389668Y-93871163D01*
X85753877Y-93871163D01*
X85865235Y-94140669D01*
X86071251Y-94347045D01*
X86340562Y-94458872D01*
X86632167Y-94459127D01*
X86901673Y-94347769D01*
X87108049Y-94141753D01*
X87219876Y-93872442D01*
X87220131Y-93580837D01*
X87108773Y-93311331D01*
X86902757Y-93104955D01*
X86633446Y-92993128D01*
X86341841Y-92992873D01*
X86072335Y-93104231D01*
X85865959Y-93310247D01*
X85754132Y-93579558D01*
X85753877Y-93871163D01*
X85389668Y-93871163D01*
X85441872Y-93745442D01*
X85442127Y-93453837D01*
X85330769Y-93184331D01*
X85124753Y-92977955D01*
X84855442Y-92866128D01*
X84563837Y-92865873D01*
X84294331Y-92977231D01*
X84087955Y-93183247D01*
X83976128Y-93452558D01*
X83975873Y-93744163D01*
X70355000Y-93744163D01*
X70355000Y-91375722D01*
X73331324Y-91375722D01*
X73476864Y-91727954D01*
X73746118Y-91997679D01*
X74098096Y-92143833D01*
X74479212Y-92144166D01*
X74831444Y-91998626D01*
X75101169Y-91729372D01*
X75161049Y-91585163D01*
X76101873Y-91585163D01*
X76213231Y-91854669D01*
X76419247Y-92061045D01*
X76688558Y-92172872D01*
X76980163Y-92173127D01*
X77249669Y-92061769D01*
X77456045Y-91855753D01*
X77567872Y-91586442D01*
X77568029Y-91406915D01*
X77577558Y-91410872D01*
X77869163Y-91411127D01*
X78138669Y-91299769D01*
X78345045Y-91093753D01*
X78456872Y-90824442D01*
X78457127Y-90532837D01*
X78345769Y-90263331D01*
X78143954Y-90061163D01*
X78387873Y-90061163D01*
X78499231Y-90330669D01*
X78564839Y-90396392D01*
X78507033Y-90535605D01*
X78506778Y-90827210D01*
X78618136Y-91096716D01*
X78824152Y-91303092D01*
X79050028Y-91396883D01*
X79134231Y-91600669D01*
X79340247Y-91807045D01*
X79609558Y-91918872D01*
X79901163Y-91919127D01*
X80170669Y-91807769D01*
X80377045Y-91601753D01*
X80488872Y-91332442D01*
X80489127Y-91040837D01*
X80377769Y-90771331D01*
X80171753Y-90564955D01*
X79945877Y-90471164D01*
X79933894Y-90442163D01*
X80546873Y-90442163D01*
X80658231Y-90711669D01*
X80864247Y-90918045D01*
X81133558Y-91029872D01*
X81425163Y-91030127D01*
X81646896Y-90938508D01*
X81753247Y-91045045D01*
X82022558Y-91156872D01*
X82314163Y-91157127D01*
X82486589Y-91085882D01*
X82657558Y-91156874D01*
X82949163Y-91157129D01*
X83218669Y-91045771D01*
X83425045Y-90839755D01*
X83536872Y-90570444D01*
X83536907Y-90529353D01*
X85666683Y-90529353D01*
X85778041Y-90798859D01*
X85984057Y-91005235D01*
X86253368Y-91117062D01*
X86544973Y-91117317D01*
X86814479Y-91005959D01*
X87020855Y-90799943D01*
X87023890Y-90792635D01*
X87023863Y-90823163D01*
X87135221Y-91092669D01*
X87341237Y-91299045D01*
X87610548Y-91410872D01*
X87902153Y-91411127D01*
X87987839Y-91375722D01*
X89211834Y-91375722D01*
X89357374Y-91727954D01*
X89626628Y-91997679D01*
X89978606Y-92143833D01*
X90359722Y-92144166D01*
X90711954Y-91998626D01*
X90981679Y-91729372D01*
X91127833Y-91377394D01*
X91128166Y-90996278D01*
X90982626Y-90644046D01*
X90713372Y-90374321D01*
X90361394Y-90228167D01*
X89980278Y-90227834D01*
X89628046Y-90373374D01*
X89358321Y-90642628D01*
X89212167Y-90994606D01*
X89211834Y-91375722D01*
X87987839Y-91375722D01*
X88171659Y-91299769D01*
X88378035Y-91093753D01*
X88489862Y-90824442D01*
X88490117Y-90532837D01*
X88378759Y-90263331D01*
X88172743Y-90056955D01*
X87903432Y-89945128D01*
X87854983Y-89945086D01*
X87855135Y-89770837D01*
X87743777Y-89501331D01*
X87537761Y-89294955D01*
X87268450Y-89183128D01*
X86976845Y-89182873D01*
X86707339Y-89294231D01*
X86500963Y-89500247D01*
X86438272Y-89651224D01*
X86254647Y-89651063D01*
X85985141Y-89762421D01*
X85778765Y-89968437D01*
X85666938Y-90237748D01*
X85666683Y-90529353D01*
X83536907Y-90529353D01*
X83537127Y-90278839D01*
X83425769Y-90009333D01*
X83219753Y-89802957D01*
X82950442Y-89691130D01*
X82658837Y-89690875D01*
X82486411Y-89762120D01*
X82315442Y-89691128D01*
X82023837Y-89690873D01*
X81802104Y-89782492D01*
X81695753Y-89675955D01*
X81426442Y-89564128D01*
X81134837Y-89563873D01*
X80865331Y-89675231D01*
X80658955Y-89881247D01*
X80547128Y-90150558D01*
X80546873Y-90442163D01*
X79933894Y-90442163D01*
X79861674Y-90267378D01*
X79796066Y-90201655D01*
X79853872Y-90062442D01*
X79854127Y-89770837D01*
X79742769Y-89501331D01*
X79536753Y-89294955D01*
X79267442Y-89183128D01*
X78975837Y-89182873D01*
X78706331Y-89294231D01*
X78499955Y-89500247D01*
X78388128Y-89769558D01*
X78387873Y-90061163D01*
X78143954Y-90061163D01*
X78139753Y-90056955D01*
X77870442Y-89945128D01*
X77578837Y-89944873D01*
X77309331Y-90056231D01*
X77276378Y-90089126D01*
X77235442Y-90072128D01*
X76943837Y-90071873D01*
X76674331Y-90183231D01*
X76467955Y-90389247D01*
X76356128Y-90658558D01*
X76355932Y-90882518D01*
X76213955Y-91024247D01*
X76102128Y-91293558D01*
X76101873Y-91585163D01*
X75161049Y-91585163D01*
X75247323Y-91377394D01*
X75247656Y-90996278D01*
X75102116Y-90644046D01*
X74832862Y-90374321D01*
X74480884Y-90228167D01*
X74099768Y-90227834D01*
X73747536Y-90373374D01*
X73477811Y-90642628D01*
X73331657Y-90994606D01*
X73331324Y-91375722D01*
X70355000Y-91375722D01*
X70355000Y-88029163D01*
X84356873Y-88029163D01*
X84468231Y-88298669D01*
X84674247Y-88505045D01*
X84943558Y-88616872D01*
X85235163Y-88617127D01*
X85504669Y-88505769D01*
X85711045Y-88299753D01*
X85822872Y-88030442D01*
X85822914Y-87981975D01*
X85863561Y-87982010D01*
X85754128Y-88245556D01*
X85753873Y-88537161D01*
X85865231Y-88806667D01*
X86071247Y-89013043D01*
X86340558Y-89124870D01*
X86632163Y-89125125D01*
X86901669Y-89013767D01*
X87108045Y-88807751D01*
X87219872Y-88538440D01*
X87220127Y-88246835D01*
X87108769Y-87977329D01*
X86902753Y-87770953D01*
X86633442Y-87659126D01*
X86475439Y-87658988D01*
X86584872Y-87395442D01*
X86585127Y-87103837D01*
X86473769Y-86834331D01*
X86398733Y-86759163D01*
X86642873Y-86759163D01*
X86754231Y-87028669D01*
X86960247Y-87235045D01*
X87229558Y-87346872D01*
X87521163Y-87347127D01*
X87790669Y-87235769D01*
X87969027Y-87057722D01*
X91624834Y-87057722D01*
X91770374Y-87409954D01*
X92039628Y-87679679D01*
X92391606Y-87825833D01*
X92772722Y-87826166D01*
X93124954Y-87680626D01*
X93394679Y-87411372D01*
X93540833Y-87059394D01*
X93541166Y-86678278D01*
X93395626Y-86326046D01*
X93126372Y-86056321D01*
X92774394Y-85910167D01*
X92393278Y-85909834D01*
X92041046Y-86055374D01*
X91771321Y-86324628D01*
X91625167Y-86676606D01*
X91624834Y-87057722D01*
X87969027Y-87057722D01*
X87997045Y-87029753D01*
X88108872Y-86760442D01*
X88109127Y-86468837D01*
X87997769Y-86199331D01*
X87791753Y-85992955D01*
X87522442Y-85881128D01*
X87230837Y-85880873D01*
X86961331Y-85992231D01*
X86754955Y-86198247D01*
X86643128Y-86467558D01*
X86642873Y-86759163D01*
X86398733Y-86759163D01*
X86267753Y-86627955D01*
X85998442Y-86516128D01*
X85706837Y-86515873D01*
X85437331Y-86627231D01*
X85230955Y-86833247D01*
X85119128Y-87102558D01*
X85119086Y-87151025D01*
X84944837Y-87150873D01*
X84675331Y-87262231D01*
X84468955Y-87468247D01*
X84357128Y-87737558D01*
X84356873Y-88029163D01*
X70355000Y-88029163D01*
X70355000Y-83628347D01*
X73966324Y-83628347D01*
X74111864Y-83980579D01*
X74381118Y-84250304D01*
X74668594Y-84369674D01*
X74607167Y-84517606D01*
X74606834Y-84898722D01*
X74752374Y-85250954D01*
X75021628Y-85520679D01*
X75373606Y-85666833D01*
X75754722Y-85667166D01*
X76106954Y-85521626D01*
X76376679Y-85252372D01*
X76522833Y-84900394D01*
X76523166Y-84519278D01*
X76377626Y-84167046D01*
X76108372Y-83897321D01*
X75820896Y-83777951D01*
X75882323Y-83630019D01*
X75882656Y-83248903D01*
X75737116Y-82896671D01*
X75467862Y-82626946D01*
X75115884Y-82480792D01*
X74734768Y-82480459D01*
X74382536Y-82625999D01*
X74112811Y-82895253D01*
X73966657Y-83247231D01*
X73966324Y-83628347D01*
X70355000Y-83628347D01*
X70355000Y-81088722D01*
X71304834Y-81088722D01*
X71450374Y-81440954D01*
X71543184Y-81533926D01*
X71451321Y-81625628D01*
X71305167Y-81977606D01*
X71304834Y-82358722D01*
X71450374Y-82710954D01*
X71719628Y-82980679D01*
X72071606Y-83126833D01*
X72452722Y-83127166D01*
X72804954Y-82981626D01*
X73074679Y-82712372D01*
X73220833Y-82360394D01*
X73221166Y-81979278D01*
X73075626Y-81627046D01*
X72982816Y-81534074D01*
X73074679Y-81442372D01*
X73220833Y-81090394D01*
X73221166Y-80709278D01*
X73075626Y-80357046D01*
X72806372Y-80087321D01*
X72454394Y-79941167D01*
X72073278Y-79940834D01*
X71721046Y-80086374D01*
X71451321Y-80355628D01*
X71305167Y-80707606D01*
X71304834Y-81088722D01*
X70355000Y-81088722D01*
X70355000Y-78504163D01*
X71402873Y-78504163D01*
X71514231Y-78773669D01*
X71720247Y-78980045D01*
X71989558Y-79091872D01*
X72281163Y-79092127D01*
X72550669Y-78980769D01*
X72757045Y-78774753D01*
X72802338Y-78665673D01*
X75974873Y-78665673D01*
X76086231Y-78935179D01*
X76292247Y-79141555D01*
X76561558Y-79253382D01*
X76853163Y-79253637D01*
X77025591Y-79182391D01*
X77045323Y-79190584D01*
X76958767Y-79276989D01*
X76782101Y-79702449D01*
X76781699Y-80163130D01*
X76957623Y-80588898D01*
X77283089Y-80914933D01*
X77612023Y-81051518D01*
X77284802Y-81186723D01*
X76958767Y-81512189D01*
X76782101Y-81937649D01*
X76781699Y-82398330D01*
X76957623Y-82824098D01*
X77283089Y-83150133D01*
X77708549Y-83326799D01*
X78169230Y-83327201D01*
X78594998Y-83151277D01*
X78862641Y-82884101D01*
X78972135Y-83149097D01*
X79395972Y-83573674D01*
X79591749Y-83654968D01*
X79270167Y-83975989D01*
X79095388Y-84396904D01*
X78922177Y-83977702D01*
X78596711Y-83651667D01*
X78171251Y-83475001D01*
X77710570Y-83474599D01*
X77284802Y-83650523D01*
X76958767Y-83975989D01*
X76782101Y-84401449D01*
X76781699Y-84862130D01*
X76940780Y-85247136D01*
X76674331Y-85357231D01*
X76467955Y-85563247D01*
X76356128Y-85832558D01*
X76355873Y-86124163D01*
X76467231Y-86393669D01*
X76673247Y-86600045D01*
X76942558Y-86711872D01*
X77234163Y-86712127D01*
X77366140Y-86657595D01*
X77562247Y-86854045D01*
X77831558Y-86965872D01*
X78123163Y-86966127D01*
X78392669Y-86854769D01*
X78599045Y-86648753D01*
X78710872Y-86379442D01*
X78711127Y-86087837D01*
X78599769Y-85818331D01*
X78454727Y-85673036D01*
X78594998Y-85615077D01*
X78921033Y-85289611D01*
X79095812Y-84868696D01*
X79269023Y-85287898D01*
X79594489Y-85613933D01*
X80019949Y-85790599D01*
X80480630Y-85791001D01*
X80906398Y-85615077D01*
X81232433Y-85289611D01*
X81409099Y-84864151D01*
X81409100Y-84862130D01*
X81455299Y-84862130D01*
X81631223Y-85287898D01*
X81956689Y-85613933D01*
X82382149Y-85790599D01*
X82842830Y-85791001D01*
X83268598Y-85615077D01*
X83594633Y-85289611D01*
X83722711Y-84981163D01*
X87023869Y-84981163D01*
X87135227Y-85250669D01*
X87341243Y-85457045D01*
X87610554Y-85568872D01*
X87902159Y-85569127D01*
X88171665Y-85457769D01*
X88378041Y-85251753D01*
X88489868Y-84982442D01*
X88490123Y-84690837D01*
X88378765Y-84421331D01*
X88172749Y-84214955D01*
X87903438Y-84103128D01*
X87611833Y-84102873D01*
X87342327Y-84214231D01*
X87135951Y-84420247D01*
X87024124Y-84689558D01*
X87023869Y-84981163D01*
X83722711Y-84981163D01*
X83771299Y-84864151D01*
X83771701Y-84403470D01*
X83595777Y-83977702D01*
X83270311Y-83651667D01*
X83215054Y-83628722D01*
X89211834Y-83628722D01*
X89357374Y-83980954D01*
X89626628Y-84250679D01*
X89978606Y-84396833D01*
X90359722Y-84397166D01*
X90711954Y-84251626D01*
X90981679Y-83982372D01*
X91127833Y-83630394D01*
X91128166Y-83249278D01*
X91081669Y-83136747D01*
X93980000Y-86035078D01*
X93980000Y-89071869D01*
X93930338Y-89146193D01*
X93853001Y-89535000D01*
X93930338Y-89923807D01*
X94150580Y-90253420D01*
X94912580Y-91015421D01*
X95242193Y-91235662D01*
X95306700Y-91248493D01*
X95503992Y-91287737D01*
X95503992Y-95259895D01*
X95314394Y-95181167D01*
X94933278Y-95180834D01*
X94581046Y-95326374D01*
X94311321Y-95595628D01*
X94165167Y-95947606D01*
X94164834Y-96328722D01*
X94310374Y-96680954D01*
X94579628Y-96950679D01*
X94931606Y-97096833D01*
X95312722Y-97097166D01*
X95621844Y-96969439D01*
X95801572Y-97238420D01*
X95980090Y-97357703D01*
X95914128Y-97516558D01*
X95914122Y-97523286D01*
X95851331Y-97549231D01*
X95644955Y-97755247D01*
X95533128Y-98024558D01*
X95532873Y-98316163D01*
X95644231Y-98585669D01*
X95850247Y-98792045D01*
X96119558Y-98903872D01*
X96411163Y-98904127D01*
X96680669Y-98792769D01*
X96887045Y-98586753D01*
X96998872Y-98317442D01*
X96998878Y-98310714D01*
X97061669Y-98284769D01*
X97113528Y-98233000D01*
X97931048Y-98233000D01*
X97931048Y-98633000D01*
X97970475Y-98831212D01*
X98038488Y-98933000D01*
X97970475Y-99034788D01*
X97931048Y-99233000D01*
X97931048Y-99633000D01*
X97970475Y-99831212D01*
X98082753Y-99999247D01*
X98250788Y-100111525D01*
X98449000Y-100150952D01*
X98731048Y-100150952D01*
X98731048Y-100433000D01*
X98770475Y-100631212D01*
X98882753Y-100799247D01*
X99050788Y-100911525D01*
X99249000Y-100950952D01*
X99649000Y-100950952D01*
X99847212Y-100911525D01*
X99949000Y-100843512D01*
X100050788Y-100911525D01*
X100249000Y-100950952D01*
X100649000Y-100950952D01*
X100847212Y-100911525D01*
X100930066Y-100856163D01*
X104930873Y-100856163D01*
X105042231Y-101125669D01*
X105248247Y-101332045D01*
X105517558Y-101443872D01*
X105809163Y-101444127D01*
X106078669Y-101332769D01*
X106285045Y-101126753D01*
X106396872Y-100857442D01*
X106397127Y-100565837D01*
X106285769Y-100296331D01*
X106079753Y-100089955D01*
X105810442Y-99978128D01*
X105518837Y-99977873D01*
X105249331Y-100089231D01*
X105042955Y-100295247D01*
X104931128Y-100564558D01*
X104930873Y-100856163D01*
X100930066Y-100856163D01*
X101015247Y-100799247D01*
X101127525Y-100631212D01*
X101166952Y-100433000D01*
X101166952Y-100150952D01*
X101449000Y-100150952D01*
X101647212Y-100111525D01*
X101815247Y-99999247D01*
X101927525Y-99831212D01*
X101966952Y-99633000D01*
X101966952Y-99233000D01*
X101927525Y-99034788D01*
X101859512Y-98933000D01*
X101927525Y-98831212D01*
X101966952Y-98633000D01*
X101966952Y-98316163D01*
X103025867Y-98316163D01*
X103137225Y-98585669D01*
X103343241Y-98792045D01*
X103612552Y-98903872D01*
X103904157Y-98904127D01*
X104173663Y-98792769D01*
X104380039Y-98586753D01*
X104491866Y-98317442D01*
X104491866Y-98317318D01*
X104601311Y-98272096D01*
X104613247Y-98284053D01*
X104882558Y-98395880D01*
X105174163Y-98396135D01*
X105443669Y-98284777D01*
X105650045Y-98078761D01*
X105761872Y-97809450D01*
X105762127Y-97517845D01*
X105650769Y-97248339D01*
X105444753Y-97041963D01*
X105256327Y-96963722D01*
X110547834Y-96963722D01*
X110693374Y-97315954D01*
X110962628Y-97585679D01*
X111314606Y-97731833D01*
X111695722Y-97732166D01*
X112047954Y-97586626D01*
X112317679Y-97317372D01*
X112463833Y-96965394D01*
X112464166Y-96584278D01*
X112318626Y-96232046D01*
X112049372Y-95962321D01*
X111697394Y-95816167D01*
X111316278Y-95815834D01*
X110964046Y-95961374D01*
X110694321Y-96230628D01*
X110548167Y-96582606D01*
X110547834Y-96963722D01*
X105256327Y-96963722D01*
X105175442Y-96930136D01*
X104883837Y-96929881D01*
X104708475Y-97002339D01*
X104696539Y-96990382D01*
X104427228Y-96878555D01*
X104135623Y-96878300D01*
X103866117Y-96989658D01*
X103659741Y-97195674D01*
X103547914Y-97464985D01*
X103547914Y-97465109D01*
X103344325Y-97549231D01*
X103137949Y-97755247D01*
X103026122Y-98024558D01*
X103025867Y-98316163D01*
X101966952Y-98316163D01*
X101966952Y-98233000D01*
X101927525Y-98034788D01*
X101815247Y-97866753D01*
X101647212Y-97754475D01*
X101449000Y-97715048D01*
X101166952Y-97715048D01*
X101166952Y-97433000D01*
X101127525Y-97234788D01*
X101015247Y-97066753D01*
X100847212Y-96954475D01*
X100649000Y-96915048D01*
X100249000Y-96915048D01*
X100050788Y-96954475D01*
X99949000Y-97022488D01*
X99847212Y-96954475D01*
X99649000Y-96915048D01*
X99249000Y-96915048D01*
X99050788Y-96954475D01*
X98882753Y-97066753D01*
X98770475Y-97234788D01*
X98731048Y-97433000D01*
X98731048Y-97715048D01*
X98449000Y-97715048D01*
X98250788Y-97754475D01*
X98082753Y-97866753D01*
X97970475Y-98034788D01*
X97931048Y-98233000D01*
X97113528Y-98233000D01*
X97268045Y-98078753D01*
X97379872Y-97809442D01*
X97380127Y-97517837D01*
X97268769Y-97248331D01*
X97246617Y-97226140D01*
X97458654Y-96908806D01*
X97535992Y-96520000D01*
X97535992Y-96371349D01*
X101922679Y-96371349D01*
X102034037Y-96640855D01*
X102240053Y-96847231D01*
X102509364Y-96959058D01*
X102800969Y-96959313D01*
X103070475Y-96847955D01*
X103276851Y-96641939D01*
X103388678Y-96372628D01*
X103388933Y-96081023D01*
X103277575Y-95811517D01*
X103071559Y-95605141D01*
X102802248Y-95493314D01*
X102510643Y-95493059D01*
X102241137Y-95604417D01*
X102034761Y-95810433D01*
X101922934Y-96079744D01*
X101922679Y-96371349D01*
X97535992Y-96371349D01*
X97535992Y-91352848D01*
X97575841Y-91313000D01*
X99949002Y-91313000D01*
X99949002Y-94996000D01*
X100026340Y-95384806D01*
X100246582Y-95714420D01*
X100576196Y-95934662D01*
X100965002Y-96012000D01*
X101353808Y-95934662D01*
X101683422Y-95714420D01*
X101903664Y-95384806D01*
X101943264Y-95185722D01*
X107880834Y-95185722D01*
X108026374Y-95537954D01*
X108295628Y-95807679D01*
X108647606Y-95953833D01*
X109028722Y-95954166D01*
X109380954Y-95808626D01*
X109650679Y-95539372D01*
X109796833Y-95187394D01*
X109797166Y-94806278D01*
X109651626Y-94454046D01*
X109382372Y-94184321D01*
X109030394Y-94038167D01*
X108649278Y-94037834D01*
X108297046Y-94183374D01*
X108027321Y-94452628D01*
X107881167Y-94804606D01*
X107880834Y-95185722D01*
X101943264Y-95185722D01*
X101981002Y-94996000D01*
X101981002Y-94296722D01*
X105213834Y-94296722D01*
X105359374Y-94648954D01*
X105628628Y-94918679D01*
X105980606Y-95064833D01*
X106361722Y-95065166D01*
X106713954Y-94919626D01*
X106983679Y-94650372D01*
X107129833Y-94298394D01*
X107130166Y-93917278D01*
X106984626Y-93565046D01*
X106715372Y-93295321D01*
X106363394Y-93149167D01*
X105982278Y-93148834D01*
X105630046Y-93294374D01*
X105360321Y-93563628D01*
X105214167Y-93915606D01*
X105213834Y-94296722D01*
X101981002Y-94296722D01*
X101981002Y-91313000D01*
X108839000Y-91313000D01*
X109227806Y-91235662D01*
X109557420Y-91015420D01*
X109777662Y-90685806D01*
X109855000Y-90297000D01*
X109777662Y-89908194D01*
X109557420Y-89578580D01*
X109227806Y-89358338D01*
X108839000Y-89281000D01*
X96051841Y-89281000D01*
X95758000Y-88987160D01*
X95758000Y-87839222D01*
X97221790Y-87839222D01*
X97406069Y-88285212D01*
X97746994Y-88626732D01*
X98192661Y-88811789D01*
X98675222Y-88812210D01*
X99121212Y-88627931D01*
X99462732Y-88287006D01*
X99647789Y-87841339D01*
X99647790Y-87839222D01*
X99761790Y-87839222D01*
X99946069Y-88285212D01*
X100286994Y-88626732D01*
X100732661Y-88811789D01*
X101215222Y-88812210D01*
X101661212Y-88627931D01*
X102002732Y-88287006D01*
X102187789Y-87841339D01*
X102187790Y-87839222D01*
X102301790Y-87839222D01*
X102486069Y-88285212D01*
X102826994Y-88626732D01*
X103272661Y-88811789D01*
X103755222Y-88812210D01*
X104201212Y-88627931D01*
X104542732Y-88287006D01*
X104727789Y-87841339D01*
X104727790Y-87839222D01*
X104841790Y-87839222D01*
X105026069Y-88285212D01*
X105366994Y-88626732D01*
X105812661Y-88811789D01*
X106295222Y-88812210D01*
X106741212Y-88627931D01*
X107082732Y-88287006D01*
X107267789Y-87841339D01*
X107268210Y-87358778D01*
X107083931Y-86912788D01*
X106743006Y-86571268D01*
X106297339Y-86386211D01*
X105814778Y-86385790D01*
X105368788Y-86570069D01*
X105027268Y-86910994D01*
X104842211Y-87356661D01*
X104841790Y-87839222D01*
X104727790Y-87839222D01*
X104728210Y-87358778D01*
X104543931Y-86912788D01*
X104203006Y-86571268D01*
X103757339Y-86386211D01*
X103274778Y-86385790D01*
X102828788Y-86570069D01*
X102487268Y-86910994D01*
X102302211Y-87356661D01*
X102301790Y-87839222D01*
X102187790Y-87839222D01*
X102188210Y-87358778D01*
X102003931Y-86912788D01*
X101663006Y-86571268D01*
X101217339Y-86386211D01*
X100734778Y-86385790D01*
X100288788Y-86570069D01*
X99947268Y-86910994D01*
X99762211Y-87356661D01*
X99761790Y-87839222D01*
X99647790Y-87839222D01*
X99648210Y-87358778D01*
X99463931Y-86912788D01*
X99123006Y-86571268D01*
X98677339Y-86386211D01*
X98194778Y-86385790D01*
X97748788Y-86570069D01*
X97407268Y-86910994D01*
X97222211Y-87356661D01*
X97221790Y-87839222D01*
X95758000Y-87839222D01*
X95758000Y-85666842D01*
X95690329Y-85326636D01*
X95672012Y-85299222D01*
X98491790Y-85299222D01*
X98676069Y-85745212D01*
X99016994Y-86086732D01*
X99462661Y-86271789D01*
X99945222Y-86272210D01*
X100391212Y-86087931D01*
X100732732Y-85747006D01*
X100917789Y-85301339D01*
X100917790Y-85299222D01*
X101031790Y-85299222D01*
X101216069Y-85745212D01*
X101556994Y-86086732D01*
X102002661Y-86271789D01*
X102485222Y-86272210D01*
X102931212Y-86087931D01*
X103272732Y-85747006D01*
X103457789Y-85301339D01*
X103457790Y-85299222D01*
X103571790Y-85299222D01*
X103756069Y-85745212D01*
X104096994Y-86086732D01*
X104542661Y-86271789D01*
X105025222Y-86272210D01*
X105471212Y-86087931D01*
X105812732Y-85747006D01*
X105997789Y-85301339D01*
X105997790Y-85299222D01*
X106111790Y-85299222D01*
X106296069Y-85745212D01*
X106636994Y-86086732D01*
X107082661Y-86271789D01*
X107565222Y-86272210D01*
X108011212Y-86087931D01*
X108352732Y-85747006D01*
X108537789Y-85301339D01*
X108538210Y-84818778D01*
X108353931Y-84372788D01*
X108013006Y-84031268D01*
X107567339Y-83846211D01*
X107084778Y-83845790D01*
X106638788Y-84030069D01*
X106297268Y-84370994D01*
X106112211Y-84816661D01*
X106111790Y-85299222D01*
X105997790Y-85299222D01*
X105998210Y-84818778D01*
X105813931Y-84372788D01*
X105473006Y-84031268D01*
X105027339Y-83846211D01*
X104544778Y-83845790D01*
X104098788Y-84030069D01*
X103757268Y-84370994D01*
X103572211Y-84816661D01*
X103571790Y-85299222D01*
X103457790Y-85299222D01*
X103458210Y-84818778D01*
X103273931Y-84372788D01*
X102933006Y-84031268D01*
X102487339Y-83846211D01*
X102004778Y-83845790D01*
X101558788Y-84030069D01*
X101217268Y-84370994D01*
X101032211Y-84816661D01*
X101031790Y-85299222D01*
X100917790Y-85299222D01*
X100918210Y-84818778D01*
X100733931Y-84372788D01*
X100393006Y-84031268D01*
X99947339Y-83846211D01*
X99464778Y-83845790D01*
X99018788Y-84030069D01*
X98677268Y-84370994D01*
X98492211Y-84816661D01*
X98491790Y-85299222D01*
X95672012Y-85299222D01*
X95497618Y-85038224D01*
X92270999Y-81811605D01*
X92270999Y-78675722D01*
X92640834Y-78675722D01*
X92786374Y-79027954D01*
X93055628Y-79297679D01*
X93407606Y-79443833D01*
X93788722Y-79444166D01*
X94140954Y-79298626D01*
X94410679Y-79029372D01*
X94556833Y-78677394D01*
X94557166Y-78296278D01*
X94411626Y-77944046D01*
X94142372Y-77674321D01*
X93790394Y-77528167D01*
X93409278Y-77527834D01*
X93057046Y-77673374D01*
X92787321Y-77942628D01*
X92641167Y-78294606D01*
X92640834Y-78675722D01*
X92270999Y-78675722D01*
X92270999Y-76649999D01*
X92203328Y-76309793D01*
X92010617Y-76021381D01*
X91813170Y-75823934D01*
X91744626Y-75658046D01*
X91475372Y-75388321D01*
X91123394Y-75242167D01*
X90742278Y-75241834D01*
X90390046Y-75387374D01*
X90120321Y-75656628D01*
X89974167Y-76008606D01*
X89973834Y-76389722D01*
X89987849Y-76423642D01*
X89882331Y-76467241D01*
X89675955Y-76673257D01*
X89564128Y-76942568D01*
X89563873Y-77234173D01*
X89675231Y-77503679D01*
X89881247Y-77710055D01*
X90150558Y-77821882D01*
X90442163Y-77822137D01*
X90492999Y-77801132D01*
X90492999Y-80366434D01*
X90316458Y-80293128D01*
X90024853Y-80292873D01*
X89755347Y-80404231D01*
X89548971Y-80610247D01*
X89437144Y-80879558D01*
X89436889Y-81171163D01*
X89548247Y-81440669D01*
X89754263Y-81647045D01*
X90023574Y-81758872D01*
X90315179Y-81759127D01*
X90492999Y-81685653D01*
X90492999Y-82179841D01*
X90560670Y-82520047D01*
X90601236Y-82580758D01*
X90361394Y-82481167D01*
X89980278Y-82480834D01*
X89628046Y-82626374D01*
X89358321Y-82895628D01*
X89212167Y-83247606D01*
X89211834Y-83628722D01*
X83215054Y-83628722D01*
X82844851Y-83475001D01*
X82384170Y-83474599D01*
X81958402Y-83650523D01*
X81632367Y-83975989D01*
X81455701Y-84401449D01*
X81455299Y-84862130D01*
X81409100Y-84862130D01*
X81409501Y-84403470D01*
X81233577Y-83977702D01*
X80911363Y-83654925D01*
X81104397Y-83575165D01*
X81528974Y-83151328D01*
X81654973Y-82847889D01*
X81956689Y-83150133D01*
X82382149Y-83326799D01*
X82842830Y-83327201D01*
X83268598Y-83151277D01*
X83594633Y-82825811D01*
X83771299Y-82400351D01*
X83771701Y-81939670D01*
X83595777Y-81513902D01*
X83270311Y-81187867D01*
X82941377Y-81051282D01*
X83268598Y-80916077D01*
X83337736Y-80847059D01*
X83628606Y-80967839D01*
X84009722Y-80968172D01*
X84361954Y-80822632D01*
X84631679Y-80553378D01*
X84777833Y-80201400D01*
X84778166Y-79820284D01*
X84632626Y-79468052D01*
X84363372Y-79198327D01*
X84011394Y-79052173D01*
X83630278Y-79051840D01*
X83445519Y-79128181D01*
X83270311Y-78952667D01*
X82844851Y-78776001D01*
X82384170Y-78775599D01*
X81958402Y-78951523D01*
X81632367Y-79276989D01*
X81455701Y-79702449D01*
X81455299Y-80163130D01*
X81631223Y-80588898D01*
X81956689Y-80914933D01*
X82285623Y-81051518D01*
X81958402Y-81186723D01*
X81632367Y-81512189D01*
X81595640Y-81600638D01*
X81530465Y-81442903D01*
X81106628Y-81018326D01*
X80883335Y-80925606D01*
X80906398Y-80916077D01*
X81232433Y-80590611D01*
X81409099Y-80165151D01*
X81409501Y-79704470D01*
X81233577Y-79278702D01*
X80908111Y-78952667D01*
X80482651Y-78776001D01*
X80021970Y-78775599D01*
X79596202Y-78951523D01*
X79270167Y-79276989D01*
X79095388Y-79697904D01*
X78922177Y-79278702D01*
X78596711Y-78952667D01*
X78171251Y-78776001D01*
X78030642Y-78775878D01*
X78075872Y-78666952D01*
X78076127Y-78375347D01*
X77964769Y-78105841D01*
X77758753Y-77899465D01*
X77489442Y-77787638D01*
X77197837Y-77787383D01*
X77025409Y-77858629D01*
X76854442Y-77787638D01*
X76562837Y-77787383D01*
X76293331Y-77898741D01*
X76086955Y-78104757D01*
X75975128Y-78374068D01*
X75974873Y-78665673D01*
X72802338Y-78665673D01*
X72868872Y-78505442D01*
X72869127Y-78213837D01*
X72757769Y-77944331D01*
X72569310Y-77755542D01*
X72677669Y-77710769D01*
X72884045Y-77504753D01*
X72995872Y-77235442D01*
X72996127Y-76943837D01*
X72884769Y-76674331D01*
X72678753Y-76467955D01*
X72409442Y-76356128D01*
X72117837Y-76355873D01*
X71848331Y-76467231D01*
X71641955Y-76673247D01*
X71530128Y-76942558D01*
X71529873Y-77234163D01*
X71641231Y-77503669D01*
X71829690Y-77692458D01*
X71721331Y-77737231D01*
X71514955Y-77943247D01*
X71403128Y-78212558D01*
X71402873Y-78504163D01*
X70355000Y-78504163D01*
X70355000Y-76310653D01*
X73980021Y-76310653D01*
X74091379Y-76580159D01*
X74297395Y-76786535D01*
X74566706Y-76898362D01*
X74858311Y-76898617D01*
X75127817Y-76787259D01*
X75334193Y-76581243D01*
X75446020Y-76311932D01*
X75446275Y-76020327D01*
X75334917Y-75750821D01*
X75128901Y-75544445D01*
X74859590Y-75432618D01*
X74567985Y-75432363D01*
X74298479Y-75543721D01*
X74092103Y-75749737D01*
X73980276Y-76019048D01*
X73980021Y-76310653D01*
X70355000Y-76310653D01*
X70355000Y-73710800D01*
X71782940Y-73710800D01*
X71721046Y-73736374D01*
X71451321Y-74005628D01*
X71305167Y-74357606D01*
X71304834Y-74738722D01*
X71450374Y-75090954D01*
X71719628Y-75360679D01*
X72071606Y-75506833D01*
X72452722Y-75507166D01*
X72804954Y-75361626D01*
X73074679Y-75092372D01*
X73220833Y-74740394D01*
X73221166Y-74359278D01*
X73075626Y-74007046D01*
X72806372Y-73737321D01*
X72742502Y-73710800D01*
X84355940Y-73710800D01*
X84294046Y-73736374D01*
X84024321Y-74005628D01*
X83878167Y-74357606D01*
X83877834Y-74738722D01*
X84023374Y-75090954D01*
X84292628Y-75360679D01*
X84644606Y-75506833D01*
X85025722Y-75507166D01*
X85377954Y-75361626D01*
X85647679Y-75092372D01*
X85793833Y-74740394D01*
X85794166Y-74359278D01*
X85648626Y-74007046D01*
X85516299Y-73874487D01*
X94926769Y-73874487D01*
X95129279Y-74364597D01*
X95503930Y-74739903D01*
X95993687Y-74943268D01*
X96523987Y-74943731D01*
X97014097Y-74741221D01*
X97389403Y-74366570D01*
X97530095Y-74027747D01*
X97669279Y-74364597D01*
X98043930Y-74739903D01*
X98533687Y-74943268D01*
X99063987Y-74943731D01*
X99554097Y-74741221D01*
X99929403Y-74366570D01*
X100132768Y-73876813D01*
X100133231Y-73346513D01*
X99930721Y-72856403D01*
X99556070Y-72481097D01*
X99066313Y-72277732D01*
X98536013Y-72277269D01*
X98045903Y-72479779D01*
X97670597Y-72854430D01*
X97529905Y-73193253D01*
X97390721Y-72856403D01*
X97016070Y-72481097D01*
X96526313Y-72277732D01*
X95996013Y-72277269D01*
X95505903Y-72479779D01*
X95130597Y-72854430D01*
X94927232Y-73344187D01*
X94926769Y-73874487D01*
X85516299Y-73874487D01*
X85379372Y-73737321D01*
X85315502Y-73710800D01*
X88976200Y-73710800D01*
X89219204Y-73662464D01*
X89425213Y-73524813D01*
X89562864Y-73318804D01*
X89611200Y-73075800D01*
X89611200Y-72916163D01*
X92611873Y-72916163D01*
X92723231Y-73185669D01*
X92929247Y-73392045D01*
X93198558Y-73503872D01*
X93490163Y-73504127D01*
X93759669Y-73392769D01*
X93966045Y-73186753D01*
X94077872Y-72917442D01*
X94078127Y-72625837D01*
X93966769Y-72356331D01*
X93760753Y-72149955D01*
X93491442Y-72038128D01*
X93199837Y-72037873D01*
X92930331Y-72149231D01*
X92723955Y-72355247D01*
X92612128Y-72624558D01*
X92611873Y-72916163D01*
X89611200Y-72916163D01*
X89611200Y-67691000D01*
X91498111Y-67691000D01*
X91497834Y-68007722D01*
X91497834Y-68007722D01*
G37*
X91497834Y-68007722D02*
X91643374Y-68359954D01*
X91912628Y-68629679D01*
X91978612Y-68657078D01*
X91879151Y-68896606D01*
X91878818Y-69277722D01*
X92024358Y-69629954D01*
X92293612Y-69899679D01*
X92645590Y-70045833D01*
X93026706Y-70046166D01*
X93378938Y-69900626D01*
X93648663Y-69631372D01*
X93794817Y-69279394D01*
X93795150Y-68898278D01*
X93649610Y-68546046D01*
X93380356Y-68276321D01*
X93314372Y-68248922D01*
X93413833Y-68009394D01*
X93414111Y-67691000D01*
X118154939Y-67691000D01*
X117669564Y-68175529D01*
X117398309Y-68828782D01*
X117397692Y-69536114D01*
X117474912Y-69723000D01*
X115824000Y-69723000D01*
X115775399Y-69732667D01*
X115734197Y-69760197D01*
X113673409Y-71820985D01*
X113673409Y-70857591D01*
X113576736Y-70371583D01*
X113301435Y-69959565D01*
X112889417Y-69684264D01*
X112403409Y-69587591D01*
X111917401Y-69684264D01*
X111505383Y-69959565D01*
X111496974Y-69967974D01*
X111221673Y-70379992D01*
X111124999Y-70866000D01*
X111125000Y-70866005D01*
X111125000Y-74547352D01*
X111111769Y-74515331D01*
X110905753Y-74308955D01*
X110673391Y-74212470D01*
X110812768Y-73876813D01*
X110813231Y-73346513D01*
X110610721Y-72856403D01*
X110236070Y-72481097D01*
X109746313Y-72277732D01*
X109216013Y-72277269D01*
X108725903Y-72479779D01*
X108350597Y-72854430D01*
X108209905Y-73193253D01*
X108070721Y-72856403D01*
X107696070Y-72481097D01*
X107206313Y-72277732D01*
X106676013Y-72277269D01*
X106185903Y-72479779D01*
X105810597Y-72854430D01*
X105607232Y-73344187D01*
X105606769Y-73874487D01*
X105809279Y-74364597D01*
X106183930Y-74739903D01*
X106673687Y-74943268D01*
X107203987Y-74943731D01*
X107694097Y-74741221D01*
X108069403Y-74366570D01*
X108210095Y-74027747D01*
X108349279Y-74364597D01*
X108723930Y-74739903D01*
X109213687Y-74943268D01*
X109743987Y-74943731D01*
X109756993Y-74938357D01*
X109756873Y-75075163D01*
X109868231Y-75344669D01*
X110074247Y-75551045D01*
X110343558Y-75662872D01*
X110635163Y-75663127D01*
X110904669Y-75551769D01*
X111111045Y-75345753D01*
X111125000Y-75312145D01*
X111125000Y-78596177D01*
X111124999Y-78596182D01*
X111125000Y-78596187D01*
X111125000Y-78993995D01*
X111124999Y-78994000D01*
X111221673Y-79480008D01*
X111356922Y-79682423D01*
X111041200Y-79551324D01*
X110372654Y-79550741D01*
X110692633Y-78780147D01*
X110693365Y-77941532D01*
X110373117Y-77166474D01*
X109780645Y-76572967D01*
X109006147Y-76251367D01*
X108167532Y-76250635D01*
X107392474Y-76570883D01*
X106798967Y-77163355D01*
X106477367Y-77937853D01*
X106476635Y-78776468D01*
X106796883Y-79551526D01*
X107389355Y-80145033D01*
X107680676Y-80266000D01*
X98059808Y-80266000D01*
X98347526Y-80147117D01*
X98941033Y-79554645D01*
X99262633Y-78780147D01*
X99263365Y-77941532D01*
X98943117Y-77166474D01*
X98350645Y-76572967D01*
X97576147Y-76251367D01*
X96737532Y-76250635D01*
X95962474Y-76570883D01*
X95368967Y-77163355D01*
X95047367Y-77937853D01*
X95046635Y-78776468D01*
X95366773Y-79551259D01*
X94702042Y-79550679D01*
X94018903Y-79832946D01*
X93495783Y-80355154D01*
X93212324Y-81037800D01*
X93211679Y-81776958D01*
X93493946Y-82460097D01*
X94016154Y-82983217D01*
X94698800Y-83266676D01*
X95437958Y-83267321D01*
X96121097Y-82985054D01*
X96554907Y-82552000D01*
X109185689Y-82552000D01*
X109616154Y-82983217D01*
X110136713Y-83199372D01*
X110059321Y-83276628D01*
X109913167Y-83628606D01*
X109912834Y-84009722D01*
X110058374Y-84361954D01*
X110327628Y-84631679D01*
X110573976Y-84733972D01*
X110226974Y-85080974D01*
X109951673Y-85492992D01*
X109854999Y-85979000D01*
X109855000Y-85979005D01*
X109855000Y-92075001D01*
X109854999Y-92075006D01*
X109951673Y-92561014D01*
X110226974Y-92973032D01*
X111750972Y-94497029D01*
X111750974Y-94497032D01*
X112004966Y-94751023D01*
X112004968Y-94751026D01*
X112454965Y-95201022D01*
X112454967Y-95201025D01*
X113030024Y-95776082D01*
X113030024Y-97408339D01*
X113029860Y-97409163D01*
X113029861Y-97409168D01*
X113029861Y-100578808D01*
X113126534Y-101064816D01*
X113401835Y-101476834D01*
X113468869Y-101521625D01*
X113297955Y-101692241D01*
X113186128Y-101961552D01*
X113185873Y-102253157D01*
X113297231Y-102522663D01*
X113503247Y-102729039D01*
X113772558Y-102840866D01*
X114064163Y-102841121D01*
X114333669Y-102729763D01*
X114540045Y-102523747D01*
X114552138Y-102494623D01*
X114567579Y-102494637D01*
X114837085Y-102383279D01*
X115043461Y-102177263D01*
X115155288Y-101907952D01*
X115155543Y-101616347D01*
X115119530Y-101529190D01*
X115197887Y-101476834D01*
X115473188Y-101064816D01*
X115569861Y-100578808D01*
X115569861Y-99398529D01*
X115788628Y-99617679D01*
X116007928Y-99708740D01*
X115882167Y-100011606D01*
X115881834Y-100392722D01*
X115987186Y-100647692D01*
X115882167Y-100900606D01*
X115881834Y-101281722D01*
X115987186Y-101536692D01*
X115882167Y-101789606D01*
X115881834Y-102170722D01*
X116027374Y-102522954D01*
X116296628Y-102792679D01*
X116648606Y-102938833D01*
X117029722Y-102939166D01*
X117284692Y-102833814D01*
X117537606Y-102938833D01*
X117918722Y-102939166D01*
X118270954Y-102793626D01*
X118540679Y-102524372D01*
X118686833Y-102172394D01*
X118686940Y-102050060D01*
X118807722Y-102050166D01*
X119159954Y-101904626D01*
X119175999Y-101888609D01*
X119175999Y-105341949D01*
X118735974Y-105781974D01*
X118460673Y-106193992D01*
X118363999Y-106680000D01*
X118364000Y-106680005D01*
X118364000Y-109855000D01*
X118460673Y-110341008D01*
X118735974Y-110753026D01*
X119147992Y-111028327D01*
X119634000Y-111125000D01*
X120120008Y-111028327D01*
X120532026Y-110753026D01*
X120807327Y-110341008D01*
X120904000Y-109855000D01*
X120904000Y-107206052D01*
X121344025Y-106766027D01*
X121529048Y-106489120D01*
X121529048Y-107061000D01*
X121568475Y-107259212D01*
X121680753Y-107427247D01*
X121848788Y-107539525D01*
X122047000Y-107578952D01*
X123571000Y-107578952D01*
X123698000Y-107553690D01*
X123698000Y-108545159D01*
X122160744Y-110082416D01*
X121940502Y-110412029D01*
X121932014Y-110454703D01*
X121863164Y-110800836D01*
X121863164Y-115388650D01*
X121940502Y-115777456D01*
X122160744Y-116107070D01*
X122490358Y-116327312D01*
X122879164Y-116404650D01*
X123267970Y-116327312D01*
X123472159Y-116190877D01*
X123662628Y-116381679D01*
X124014606Y-116527833D01*
X124395722Y-116528166D01*
X124747954Y-116382626D01*
X125017679Y-116113372D01*
X125163833Y-115761394D01*
X125164166Y-115380278D01*
X125018626Y-115028046D01*
X124749372Y-114758321D01*
X124397394Y-114612167D01*
X124016278Y-114611834D01*
X123895164Y-114661878D01*
X123895164Y-111221676D01*
X125432421Y-109684420D01*
X125652662Y-109354807D01*
X125675609Y-109239442D01*
X125730000Y-108966000D01*
X125730000Y-105248470D01*
X127635000Y-107153470D01*
X127635000Y-112537240D01*
X127668046Y-112703371D01*
X127500832Y-112535866D01*
X127176410Y-112401154D01*
X126825131Y-112400847D01*
X126500474Y-112534993D01*
X126251866Y-112783168D01*
X126117154Y-113107590D01*
X126116847Y-113458869D01*
X126250993Y-113783526D01*
X126499168Y-114032134D01*
X126823590Y-114166846D01*
X127174869Y-114167153D01*
X127499526Y-114033007D01*
X127748134Y-113784832D01*
X127882846Y-113460410D01*
X127883060Y-113215681D01*
X127969777Y-113345463D01*
X129986916Y-115362602D01*
X129898009Y-115399338D01*
X129828747Y-115329955D01*
X129559436Y-115218128D01*
X129267831Y-115217873D01*
X128998325Y-115329231D01*
X128791949Y-115535247D01*
X128748940Y-115638825D01*
X128749127Y-115424827D01*
X128637769Y-115155321D01*
X128431753Y-114948945D01*
X128162442Y-114837118D01*
X127870837Y-114836863D01*
X127601331Y-114948221D01*
X127394955Y-115154237D01*
X127283128Y-115423548D01*
X127282873Y-115715153D01*
X127394231Y-115984659D01*
X127600247Y-116191035D01*
X127869558Y-116302862D01*
X128161163Y-116303117D01*
X128430669Y-116191759D01*
X128637045Y-115985743D01*
X128680054Y-115882165D01*
X128679867Y-116096163D01*
X128791225Y-116365669D01*
X128997241Y-116572045D01*
X129266552Y-116683872D01*
X129558157Y-116684127D01*
X129689985Y-116629656D01*
X129759247Y-116699039D01*
X130028558Y-116810866D01*
X130320163Y-116811121D01*
X130589669Y-116699763D01*
X130796045Y-116493747D01*
X130890525Y-116266211D01*
X132647668Y-118023354D01*
X132647668Y-118324860D01*
X132687095Y-118523072D01*
X132799373Y-118691107D01*
X132967408Y-118803385D01*
X133165620Y-118842812D01*
X134565620Y-118842812D01*
X134763832Y-118803385D01*
X134931867Y-118691107D01*
X135044145Y-118523072D01*
X135048375Y-118501809D01*
X135192130Y-118645815D01*
X135635960Y-118830110D01*
X136116532Y-118830529D01*
X136560683Y-118647010D01*
X136900795Y-118307490D01*
X137085090Y-117863660D01*
X137085509Y-117383088D01*
X136901990Y-116938937D01*
X136562470Y-116598825D01*
X136118640Y-116414530D01*
X135638068Y-116414111D01*
X135193917Y-116597630D01*
X135047546Y-116743746D01*
X135044145Y-116726648D01*
X134931867Y-116558613D01*
X134763832Y-116446335D01*
X134565620Y-116406908D01*
X134264114Y-116406908D01*
X131540742Y-113683536D01*
X131826540Y-113492572D01*
X132099240Y-113084448D01*
X132195000Y-112603032D01*
X132195000Y-112401052D01*
X135499972Y-115706023D01*
X135499974Y-115706026D01*
X135854922Y-115943194D01*
X135911992Y-115981327D01*
X136398000Y-116078001D01*
X136398005Y-116078000D01*
X139024995Y-116078000D01*
X139025000Y-116078001D01*
X139511008Y-115981327D01*
X139923026Y-115706026D01*
X139962100Y-115666952D01*
X141732000Y-115666952D01*
X141930212Y-115627525D01*
X142098247Y-115515247D01*
X142210525Y-115347212D01*
X142249952Y-115149000D01*
X142249952Y-112101000D01*
X142210525Y-111902788D01*
X142098247Y-111734753D01*
X141930212Y-111622475D01*
X141732000Y-111583048D01*
X138695000Y-111583048D01*
X138695000Y-109985550D01*
X139055462Y-110346641D01*
X139802037Y-110656646D01*
X140610416Y-110657352D01*
X141357532Y-110348650D01*
X141929641Y-109777538D01*
X142239646Y-109030963D01*
X142240352Y-108222584D01*
X141931650Y-107475468D01*
X141360538Y-106903359D01*
X140613963Y-106593354D01*
X139805584Y-106592648D01*
X139058468Y-106901350D01*
X138486359Y-107472462D01*
X138176354Y-108219037D01*
X138176104Y-108504910D01*
X137918416Y-108332728D01*
X137437000Y-108236968D01*
X136955584Y-108332728D01*
X136547460Y-108605428D01*
X136274760Y-109013552D01*
X136179000Y-109494968D01*
X136179000Y-112603032D01*
X136226157Y-112840106D01*
X133537026Y-110150974D01*
X133125008Y-109875673D01*
X132639000Y-109778999D01*
X132638995Y-109779000D01*
X132195000Y-109779000D01*
X132195000Y-109494968D01*
X132099240Y-109013552D01*
X131826540Y-108605428D01*
X131418416Y-108332728D01*
X130937000Y-108236968D01*
X130455584Y-108332728D01*
X130047460Y-108605428D01*
X129921000Y-108794689D01*
X129921000Y-106680024D01*
X129833994Y-106242617D01*
X129586223Y-105871801D01*
X125522223Y-101807801D01*
X125151407Y-101560030D01*
X124714000Y-101473024D01*
X124276593Y-101560030D01*
X123905777Y-101807801D01*
X123658006Y-102178617D01*
X123571000Y-102616024D01*
X123597999Y-102751756D01*
X123529337Y-102682974D01*
X123062727Y-102489221D01*
X122557490Y-102488780D01*
X122360810Y-102570046D01*
X122449672Y-102356042D01*
X122449927Y-102064437D01*
X122338569Y-101794931D01*
X122132553Y-101588555D01*
X121863242Y-101476728D01*
X121715999Y-101476599D01*
X121715999Y-98710004D01*
X121716000Y-98709999D01*
X121670711Y-98482317D01*
X123100197Y-99911803D01*
X123141399Y-99939333D01*
X123190000Y-99949000D01*
X125284633Y-99949000D01*
X125153167Y-100265606D01*
X125152834Y-100646722D01*
X125298374Y-100998954D01*
X125567628Y-101268679D01*
X125919606Y-101414833D01*
X126300722Y-101415166D01*
X126652954Y-101269626D01*
X126922679Y-101000372D01*
X127068833Y-100648394D01*
X127068894Y-100578500D01*
X128397000Y-101906606D01*
X128397000Y-103378000D01*
X128406667Y-103426601D01*
X128434197Y-103467803D01*
X130593197Y-105626803D01*
X130634399Y-105654333D01*
X130683000Y-105664000D01*
X131861464Y-105664000D01*
X131793428Y-105709460D01*
X131520728Y-106117584D01*
X131424968Y-106599000D01*
X131520728Y-107080416D01*
X131793428Y-107488540D01*
X132201552Y-107761240D01*
X132682968Y-107857000D01*
X135791032Y-107857000D01*
X136272448Y-107761240D01*
X136680572Y-107488540D01*
X136953272Y-107080416D01*
X137049032Y-106599000D01*
X136964096Y-106172000D01*
X144088000Y-106172000D01*
X144088000Y-118468068D01*
X143425796Y-117804707D01*
X142081813Y-117246637D01*
X140626571Y-117245367D01*
X139281617Y-117801091D01*
X138251707Y-118829204D01*
X137693637Y-120173187D01*
X137692367Y-121628429D01*
X138248091Y-122973383D01*
X138844665Y-123571000D01*
X127197830Y-123571000D01*
X127294629Y-123474370D01*
X127507757Y-122961100D01*
X127508242Y-122405339D01*
X127296010Y-121891697D01*
X126903370Y-121498371D01*
X126695488Y-121412051D01*
X126901303Y-121327010D01*
X127294629Y-120934370D01*
X127507757Y-120421100D01*
X127508242Y-119865339D01*
X127296010Y-119351697D01*
X126903370Y-118958371D01*
X126390100Y-118745243D01*
X125834339Y-118744758D01*
X125612951Y-118836233D01*
X125454923Y-118677929D01*
X125185612Y-118566102D01*
X124894007Y-118565847D01*
X124624501Y-118677205D01*
X124462195Y-118839228D01*
X124308772Y-118685805D01*
X124162396Y-118832181D01*
X124086559Y-118676166D01*
X123486364Y-118590450D01*
X123055441Y-118676166D01*
X122979604Y-118832181D01*
X122877902Y-118730479D01*
X122878166Y-118428278D01*
X122732626Y-118076046D01*
X122463372Y-117806321D01*
X122111394Y-117660167D01*
X121730278Y-117659834D01*
X121378046Y-117805374D01*
X121108321Y-118074628D01*
X120962167Y-118426606D01*
X120961889Y-118744939D01*
X120754339Y-118744758D01*
X120240697Y-118956990D01*
X119847371Y-119349630D01*
X119761051Y-119557512D01*
X119676010Y-119351697D01*
X119283370Y-118958371D01*
X118770100Y-118745243D01*
X118214339Y-118744758D01*
X117700697Y-118956990D01*
X117307371Y-119349630D01*
X117221051Y-119557512D01*
X117136010Y-119351697D01*
X116743370Y-118958371D01*
X116230100Y-118745243D01*
X115674339Y-118744758D01*
X115160697Y-118956990D01*
X114767371Y-119349630D01*
X114681051Y-119557512D01*
X114596010Y-119351697D01*
X114203370Y-118958371D01*
X113690100Y-118745243D01*
X113134339Y-118744758D01*
X112620697Y-118956990D01*
X112227371Y-119349630D01*
X112141051Y-119557512D01*
X112056010Y-119351697D01*
X111663370Y-118958371D01*
X111150100Y-118745243D01*
X110594339Y-118744758D01*
X110080697Y-118956990D01*
X109687371Y-119349630D01*
X109601051Y-119557512D01*
X109516010Y-119351697D01*
X109123370Y-118958371D01*
X108610100Y-118745243D01*
X108054339Y-118744758D01*
X107540697Y-118956990D01*
X107147371Y-119349630D01*
X107061051Y-119557512D01*
X106976010Y-119351697D01*
X106961063Y-119336724D01*
X106962204Y-119336497D01*
X107147612Y-119212612D01*
X109046695Y-117313528D01*
X109220000Y-117348000D01*
X109608806Y-117270662D01*
X109779328Y-117156722D01*
X119691834Y-117156722D01*
X119837374Y-117508954D01*
X120106628Y-117778679D01*
X120458606Y-117924833D01*
X120839722Y-117925166D01*
X121191954Y-117779626D01*
X121461679Y-117510372D01*
X121607833Y-117158394D01*
X121608166Y-116777278D01*
X121462626Y-116425046D01*
X121193372Y-116155321D01*
X120841394Y-116009167D01*
X120460278Y-116008834D01*
X120108046Y-116154374D01*
X119838321Y-116423628D01*
X119692167Y-116775606D01*
X119691834Y-117156722D01*
X109779328Y-117156722D01*
X109938420Y-117050420D01*
X110158662Y-116720806D01*
X110236000Y-116332000D01*
X110236000Y-116093600D01*
X110370585Y-115959250D01*
X110577764Y-115460308D01*
X110578235Y-114920062D01*
X110371928Y-114420760D01*
X109990250Y-114038415D01*
X109702575Y-113918962D01*
X109988240Y-113800928D01*
X110370585Y-113419250D01*
X110577764Y-112920308D01*
X110578235Y-112380062D01*
X110557849Y-112330722D01*
X113214834Y-112330722D01*
X113360374Y-112682954D01*
X113629628Y-112952679D01*
X113981606Y-113098833D01*
X114362722Y-113099166D01*
X114714954Y-112953626D01*
X114984679Y-112684372D01*
X115130833Y-112332394D01*
X115131166Y-111951278D01*
X114985626Y-111599046D01*
X114716372Y-111329321D01*
X114364394Y-111183167D01*
X113983278Y-111182834D01*
X113631046Y-111328374D01*
X113361321Y-111597628D01*
X113215167Y-111949606D01*
X113214834Y-112330722D01*
X110557849Y-112330722D01*
X110371928Y-111880760D01*
X109990250Y-111498415D01*
X109491308Y-111291236D01*
X108951062Y-111290765D01*
X108451760Y-111497072D01*
X108069415Y-111878750D01*
X107949962Y-112166425D01*
X107831928Y-111880760D01*
X107450250Y-111498415D01*
X106951308Y-111291236D01*
X106411062Y-111290765D01*
X105911760Y-111497072D01*
X105529415Y-111878750D01*
X105409962Y-112166425D01*
X105291928Y-111880760D01*
X104910250Y-111498415D01*
X104411308Y-111291236D01*
X103871062Y-111290765D01*
X103411219Y-111480768D01*
X103397997Y-111414296D01*
X103274112Y-111228888D01*
X103274109Y-111228886D01*
X102046429Y-110001206D01*
X102284679Y-109763372D01*
X102430833Y-109411394D01*
X102431166Y-109030278D01*
X102285626Y-108678046D01*
X102016372Y-108408321D01*
X101664394Y-108262167D01*
X101283278Y-108261834D01*
X100931046Y-108407374D01*
X100661321Y-108676628D01*
X100515167Y-109028606D01*
X100514834Y-109409722D01*
X100660374Y-109761954D01*
X100901500Y-110003502D01*
X100901500Y-110235995D01*
X100901499Y-110236000D01*
X100933516Y-110396954D01*
X100945003Y-110454704D01*
X101068888Y-110640112D01*
X101719880Y-111291104D01*
X101331062Y-111290765D01*
X100831760Y-111497072D01*
X100449415Y-111878750D01*
X100329962Y-112166425D01*
X100211928Y-111880760D01*
X99830250Y-111498415D01*
X99331308Y-111291236D01*
X98791062Y-111290765D01*
X98291760Y-111497072D01*
X97909415Y-111878750D01*
X97702236Y-112377692D01*
X97701765Y-112917938D01*
X97908072Y-113417240D01*
X98289750Y-113799585D01*
X98341439Y-113821048D01*
X98210000Y-113821048D01*
X98011788Y-113860475D01*
X97843753Y-113972753D01*
X97731475Y-114140788D01*
X97692048Y-114339000D01*
X97692048Y-116039000D01*
X97731475Y-116237212D01*
X97843753Y-116405247D01*
X98011788Y-116517525D01*
X98210000Y-116556952D01*
X99910000Y-116556952D01*
X100108212Y-116517525D01*
X100276247Y-116405247D01*
X100388525Y-116237212D01*
X100427952Y-116039000D01*
X100427952Y-115908546D01*
X100448072Y-115957240D01*
X100584000Y-116093406D01*
X100584000Y-116332000D01*
X100618472Y-116505304D01*
X100474276Y-116649500D01*
X79375000Y-116649500D01*
X79156296Y-116693003D01*
X78970888Y-116816888D01*
X78970886Y-116816891D01*
X78024304Y-117763472D01*
X77851000Y-117729000D01*
X77462194Y-117806338D01*
X77132580Y-118026580D01*
X76912338Y-118356194D01*
X76835000Y-118745000D01*
X76835000Y-119182293D01*
X76667371Y-119349630D01*
X76503637Y-119743947D01*
X76127909Y-118834617D01*
X75099796Y-117804707D01*
X73755813Y-117246637D01*
X72300571Y-117245367D01*
X70955617Y-117801091D01*
X70355000Y-118400660D01*
X70355000Y-115357838D01*
X76840168Y-115357838D01*
X76951526Y-115627344D01*
X77157542Y-115833720D01*
X77426853Y-115945547D01*
X77718458Y-115945802D01*
X77987964Y-115834444D01*
X78073079Y-115749478D01*
X78261103Y-115749642D01*
X78530609Y-115638284D01*
X78736985Y-115432268D01*
X78759761Y-115377416D01*
X78847558Y-115413872D01*
X79139163Y-115414127D01*
X79271140Y-115359595D01*
X79467247Y-115556045D01*
X79736558Y-115667872D01*
X80028163Y-115668127D01*
X80297669Y-115556769D01*
X80504045Y-115350753D01*
X80615872Y-115081442D01*
X80616056Y-114870722D01*
X86417838Y-114870722D01*
X86563378Y-115222954D01*
X86832632Y-115492679D01*
X87184610Y-115638833D01*
X87565726Y-115639166D01*
X87917958Y-115493626D01*
X88187683Y-115224372D01*
X88333837Y-114872394D01*
X88334170Y-114491278D01*
X88188630Y-114139046D01*
X87919376Y-113869321D01*
X87567398Y-113723167D01*
X87186282Y-113722834D01*
X86834050Y-113868374D01*
X86564325Y-114137628D01*
X86418171Y-114489606D01*
X86417838Y-114870722D01*
X80616056Y-114870722D01*
X80616127Y-114789837D01*
X80504769Y-114520331D01*
X80298753Y-114313955D01*
X80029442Y-114202128D01*
X79737837Y-114201873D01*
X79605860Y-114256405D01*
X79409753Y-114059955D01*
X79140442Y-113948128D01*
X78848837Y-113947873D01*
X78579331Y-114059231D01*
X78372955Y-114265247D01*
X78350179Y-114320099D01*
X78262382Y-114283643D01*
X77970777Y-114283388D01*
X77701271Y-114394746D01*
X77616156Y-114479712D01*
X77428132Y-114479548D01*
X77158626Y-114590906D01*
X76952250Y-114796922D01*
X76840423Y-115066233D01*
X76840168Y-115357838D01*
X70355000Y-115357838D01*
X70355000Y-113092722D01*
X79427324Y-113092722D01*
X79572864Y-113444954D01*
X79842118Y-113714679D01*
X80194096Y-113860833D01*
X80575212Y-113861166D01*
X80927444Y-113715626D01*
X81197169Y-113446372D01*
X81343323Y-113094394D01*
X81343656Y-112713278D01*
X81198116Y-112361046D01*
X80928862Y-112091321D01*
X80576884Y-111945167D01*
X80195768Y-111944834D01*
X79843536Y-112090374D01*
X79573811Y-112359628D01*
X79427657Y-112711606D01*
X79427324Y-113092722D01*
X70355000Y-113092722D01*
X70355000Y-111651163D01*
X83340867Y-111651163D01*
X83452225Y-111920669D01*
X83658241Y-112127045D01*
X83927552Y-112238872D01*
X84219157Y-112239127D01*
X84488663Y-112127769D01*
X84695039Y-111921753D01*
X84806866Y-111652442D01*
X84807050Y-111441722D01*
X93148834Y-111441722D01*
X93294374Y-111793954D01*
X93563628Y-112063679D01*
X93915606Y-112209833D01*
X94296722Y-112210166D01*
X94648954Y-112064626D01*
X94918679Y-111795372D01*
X95064833Y-111443394D01*
X95065166Y-111062278D01*
X94919626Y-110710046D01*
X94650372Y-110440321D01*
X94298394Y-110294167D01*
X93917278Y-110293834D01*
X93565046Y-110439374D01*
X93295321Y-110708628D01*
X93149167Y-111060606D01*
X93148834Y-111441722D01*
X84807050Y-111441722D01*
X84807121Y-111360837D01*
X84695763Y-111091331D01*
X84489747Y-110884955D01*
X84220436Y-110773128D01*
X83928831Y-110772873D01*
X83659325Y-110884231D01*
X83452949Y-111090247D01*
X83341122Y-111359558D01*
X83340867Y-111651163D01*
X70355000Y-111651163D01*
X70355000Y-110254163D01*
X81782373Y-110254163D01*
X81893731Y-110523669D01*
X82099747Y-110730045D01*
X82369058Y-110841872D01*
X82660663Y-110842127D01*
X82930169Y-110730769D01*
X83136545Y-110524753D01*
X83248372Y-110255442D01*
X83248541Y-110062581D01*
X83389875Y-110004183D01*
X83596251Y-109798167D01*
X83708078Y-109528856D01*
X83708333Y-109237251D01*
X83596975Y-108967745D01*
X83390959Y-108761369D01*
X83121648Y-108649542D01*
X82830043Y-108649287D01*
X82560537Y-108760645D01*
X82354161Y-108966661D01*
X82242334Y-109235972D01*
X82242165Y-109428833D01*
X82100831Y-109487231D01*
X81894455Y-109693247D01*
X81782628Y-109962558D01*
X81782373Y-110254163D01*
X70355000Y-110254163D01*
X70355000Y-109238163D01*
X78260873Y-109238163D01*
X78372231Y-109507669D01*
X78578247Y-109714045D01*
X78847558Y-109825872D01*
X79139163Y-109826127D01*
X79408669Y-109714769D01*
X79615045Y-109508753D01*
X79726872Y-109239442D01*
X79727127Y-108947837D01*
X79615769Y-108678331D01*
X79409753Y-108471955D01*
X79140442Y-108360128D01*
X78848837Y-108359873D01*
X78579331Y-108471231D01*
X78372955Y-108677247D01*
X78261128Y-108946558D01*
X78260873Y-109238163D01*
X70355000Y-109238163D01*
X70355000Y-108393722D01*
X72574834Y-108393722D01*
X72720374Y-108745954D01*
X72989628Y-109015679D01*
X73341606Y-109161833D01*
X73722722Y-109162166D01*
X74074954Y-109016626D01*
X74344679Y-108747372D01*
X74490833Y-108395394D01*
X74491166Y-108014278D01*
X74345626Y-107662046D01*
X74076372Y-107392321D01*
X73724394Y-107246167D01*
X73343278Y-107245834D01*
X72991046Y-107391374D01*
X72721321Y-107660628D01*
X72575167Y-108012606D01*
X72574834Y-108393722D01*
X70355000Y-108393722D01*
X70355000Y-107123722D01*
X79427324Y-107123722D01*
X79572864Y-107475954D01*
X79842118Y-107745679D01*
X80194096Y-107891833D01*
X80575212Y-107892166D01*
X80927444Y-107746626D01*
X81197169Y-107477372D01*
X81343323Y-107125394D01*
X81343546Y-106869722D01*
X95815834Y-106869722D01*
X95961374Y-107221954D01*
X96230628Y-107491679D01*
X96582606Y-107637833D01*
X96963722Y-107638166D01*
X97315954Y-107492626D01*
X97585679Y-107223372D01*
X97679792Y-106996722D01*
X99498834Y-106996722D01*
X99644374Y-107348954D01*
X99913628Y-107618679D01*
X100265606Y-107764833D01*
X100646722Y-107765166D01*
X100998954Y-107619626D01*
X101268679Y-107350372D01*
X101328559Y-107206163D01*
X104803873Y-107206163D01*
X104915231Y-107475669D01*
X105121247Y-107682045D01*
X105390558Y-107793872D01*
X105682163Y-107794127D01*
X105951669Y-107682769D01*
X106158045Y-107476753D01*
X106269872Y-107207442D01*
X106270127Y-106915837D01*
X106158769Y-106646331D01*
X106128214Y-106615722D01*
X113341836Y-106615722D01*
X113487376Y-106967954D01*
X113756630Y-107237679D01*
X114108608Y-107383833D01*
X114489724Y-107384166D01*
X114841956Y-107238626D01*
X115111681Y-106969372D01*
X115257835Y-106617394D01*
X115258168Y-106236278D01*
X115112628Y-105884046D01*
X114843374Y-105614321D01*
X114491396Y-105468167D01*
X114110280Y-105467834D01*
X113758048Y-105613374D01*
X113488323Y-105882628D01*
X113342169Y-106234606D01*
X113341836Y-106615722D01*
X106128214Y-106615722D01*
X105952753Y-106439955D01*
X105683442Y-106328128D01*
X105391837Y-106327873D01*
X105122331Y-106439231D01*
X104915955Y-106645247D01*
X104804128Y-106914558D01*
X104803873Y-107206163D01*
X101328559Y-107206163D01*
X101414833Y-106998394D01*
X101415166Y-106617278D01*
X101269626Y-106265046D01*
X101000372Y-105995321D01*
X100648394Y-105849167D01*
X100267278Y-105848834D01*
X99915046Y-105994374D01*
X99645321Y-106263628D01*
X99499167Y-106615606D01*
X99498834Y-106996722D01*
X97679792Y-106996722D01*
X97731833Y-106871394D01*
X97732166Y-106490278D01*
X97586626Y-106138046D01*
X97317372Y-105868321D01*
X96965394Y-105722167D01*
X96584278Y-105721834D01*
X96232046Y-105867374D01*
X95962321Y-106136628D01*
X95816167Y-106488606D01*
X95815834Y-106869722D01*
X81343546Y-106869722D01*
X81343656Y-106744278D01*
X81198116Y-106392046D01*
X80928862Y-106122321D01*
X80576884Y-105976167D01*
X80195768Y-105975834D01*
X79843536Y-106121374D01*
X79573811Y-106390628D01*
X79427657Y-106742606D01*
X79427324Y-107123722D01*
X70355000Y-107123722D01*
X70355000Y-103059722D01*
X93021834Y-103059722D01*
X93167374Y-103411954D01*
X93436628Y-103681679D01*
X93788606Y-103827833D01*
X94169722Y-103828166D01*
X94521954Y-103682626D01*
X94791679Y-103413372D01*
X94937833Y-103061394D01*
X94937984Y-102888163D01*
X97564873Y-102888163D01*
X97676231Y-103157669D01*
X97882247Y-103364045D01*
X98151558Y-103475872D01*
X98443163Y-103476127D01*
X98712669Y-103364769D01*
X98919045Y-103158753D01*
X98932896Y-103125396D01*
X98946231Y-103157669D01*
X99152247Y-103364045D01*
X99421558Y-103475872D01*
X99713163Y-103476127D01*
X99982669Y-103364769D01*
X100189045Y-103158753D01*
X100300872Y-102889442D01*
X100300984Y-102761163D01*
X100993867Y-102761163D01*
X101105225Y-103030669D01*
X101311241Y-103237045D01*
X101580552Y-103348872D01*
X101872157Y-103349127D01*
X101890127Y-103341702D01*
X101883128Y-103358558D01*
X101882873Y-103650163D01*
X101994231Y-103919669D01*
X102200247Y-104126045D01*
X102469558Y-104237872D01*
X102644914Y-104238025D01*
X102644873Y-104285163D01*
X102756231Y-104554669D01*
X102962247Y-104761045D01*
X103231558Y-104872872D01*
X103523163Y-104873127D01*
X103792669Y-104761769D01*
X103999045Y-104555753D01*
X104110872Y-104286442D01*
X104111127Y-103994837D01*
X104039881Y-103822409D01*
X104110872Y-103651442D01*
X104110873Y-103650163D01*
X107089873Y-103650163D01*
X107187422Y-103886248D01*
X107090128Y-104120558D01*
X107089873Y-104412163D01*
X107201231Y-104681669D01*
X107407247Y-104888045D01*
X107676558Y-104999872D01*
X107968163Y-105000127D01*
X108237669Y-104888769D01*
X108444045Y-104682753D01*
X108555872Y-104413442D01*
X108556127Y-104121837D01*
X108484597Y-103948722D01*
X114611834Y-103948722D01*
X114757374Y-104300954D01*
X115026628Y-104570679D01*
X115378606Y-104716833D01*
X115759722Y-104717166D01*
X116111954Y-104571626D01*
X116381679Y-104302372D01*
X116527833Y-103950394D01*
X116528166Y-103569278D01*
X116382626Y-103217046D01*
X116113372Y-102947321D01*
X115761394Y-102801167D01*
X115380278Y-102800834D01*
X115028046Y-102946374D01*
X114758321Y-103215628D01*
X114612167Y-103567606D01*
X114611834Y-103948722D01*
X108484597Y-103948722D01*
X108458578Y-103885752D01*
X108555872Y-103651442D01*
X108556127Y-103359837D01*
X108444769Y-103090331D01*
X108238753Y-102883955D01*
X107969442Y-102772128D01*
X107677837Y-102771873D01*
X107408331Y-102883231D01*
X107201955Y-103089247D01*
X107090128Y-103358558D01*
X107089873Y-103650163D01*
X104110873Y-103650163D01*
X104111127Y-103359837D01*
X103999769Y-103090331D01*
X103929631Y-103020070D01*
X103983872Y-102889442D01*
X103984127Y-102597837D01*
X103872769Y-102328331D01*
X103675696Y-102130913D01*
X103729872Y-102000442D01*
X103730127Y-101708837D01*
X103618769Y-101439331D01*
X103412753Y-101232955D01*
X103143442Y-101121128D01*
X102851837Y-101120873D01*
X102582331Y-101232231D01*
X102375955Y-101438247D01*
X102264128Y-101707558D01*
X102263873Y-101999163D01*
X102346450Y-102199014D01*
X102142747Y-101994955D01*
X101873436Y-101883128D01*
X101581831Y-101882873D01*
X101312325Y-101994231D01*
X101105949Y-102200247D01*
X100994122Y-102469558D01*
X100993867Y-102761163D01*
X100300984Y-102761163D01*
X100301127Y-102597837D01*
X100189769Y-102328331D01*
X99983753Y-102121955D01*
X99714442Y-102010128D01*
X99422837Y-102009873D01*
X99153331Y-102121231D01*
X98946955Y-102327247D01*
X98933104Y-102360604D01*
X98919769Y-102328331D01*
X98713753Y-102121955D01*
X98444442Y-102010128D01*
X98152837Y-102009873D01*
X97883331Y-102121231D01*
X97676955Y-102327247D01*
X97565128Y-102596558D01*
X97564873Y-102888163D01*
X94937984Y-102888163D01*
X94938166Y-102680278D01*
X94792626Y-102328046D01*
X94523372Y-102058321D01*
X94171394Y-101912167D01*
X93790278Y-101911834D01*
X93438046Y-102057374D01*
X93168321Y-102326628D01*
X93022167Y-102678606D01*
X93021834Y-103059722D01*
X70355000Y-103059722D01*
X70355000Y-101916722D01*
X77014313Y-101916722D01*
X77159853Y-102268954D01*
X77429107Y-102538679D01*
X77781085Y-102684833D01*
X78162201Y-102685166D01*
X78514433Y-102539626D01*
X78784158Y-102270372D01*
X78930312Y-101918394D01*
X78930645Y-101537278D01*
X78785105Y-101185046D01*
X78515851Y-100915321D01*
X78163873Y-100769167D01*
X77782757Y-100768834D01*
X77430525Y-100914374D01*
X77160800Y-101183628D01*
X77014646Y-101535606D01*
X77014313Y-101916722D01*
X70355000Y-101916722D01*
X70355000Y-100519722D01*
X72574834Y-100519722D01*
X72720374Y-100871954D01*
X72989628Y-101141679D01*
X73341606Y-101287833D01*
X73722722Y-101288166D01*
X74074954Y-101142626D01*
X74344679Y-100873372D01*
X74478797Y-100550379D01*
X84724927Y-100550379D01*
X84836285Y-100819885D01*
X84865102Y-100848752D01*
X84864873Y-101110163D01*
X84936119Y-101282591D01*
X84865128Y-101453558D01*
X84864873Y-101745163D01*
X84976231Y-102014669D01*
X85182247Y-102221045D01*
X85451558Y-102332872D01*
X85743163Y-102333127D01*
X86012669Y-102221769D01*
X86219045Y-102015753D01*
X86330872Y-101746442D01*
X86331127Y-101454837D01*
X86259881Y-101282409D01*
X86330872Y-101111442D01*
X86331127Y-100819837D01*
X86219769Y-100550331D01*
X86190952Y-100521464D01*
X86191064Y-100392722D01*
X90481834Y-100392722D01*
X90627374Y-100744954D01*
X90896628Y-101014679D01*
X91248606Y-101160833D01*
X91629722Y-101161166D01*
X91981954Y-101015626D01*
X92251679Y-100746372D01*
X92397833Y-100394394D01*
X92398166Y-100013278D01*
X92252626Y-99661046D01*
X91983372Y-99391321D01*
X91631394Y-99245167D01*
X91250278Y-99244834D01*
X90898046Y-99390374D01*
X90628321Y-99659628D01*
X90482167Y-100011606D01*
X90481834Y-100392722D01*
X86191064Y-100392722D01*
X86191181Y-100260053D01*
X86079823Y-99990547D01*
X85873807Y-99784171D01*
X85604496Y-99672344D01*
X85312891Y-99672089D01*
X85043385Y-99783447D01*
X84837009Y-99989463D01*
X84725182Y-100258774D01*
X84724927Y-100550379D01*
X74478797Y-100550379D01*
X74490833Y-100521394D01*
X74491166Y-100140278D01*
X74345626Y-99788046D01*
X74076372Y-99518321D01*
X73724394Y-99372167D01*
X73343278Y-99371834D01*
X72991046Y-99517374D01*
X72721321Y-99786628D01*
X72575167Y-100138606D01*
X72574834Y-100519722D01*
X70355000Y-100519722D01*
X70355000Y-99129947D01*
X82036297Y-99129947D01*
X82147655Y-99399453D01*
X82353671Y-99605829D01*
X82622982Y-99717656D01*
X82914587Y-99717911D01*
X83184093Y-99606553D01*
X83390469Y-99400537D01*
X83502296Y-99131226D01*
X83502551Y-98839621D01*
X83437826Y-98682974D01*
X83536872Y-98444442D01*
X83537127Y-98152837D01*
X83465881Y-97980409D01*
X83536872Y-97809442D01*
X83537127Y-97517837D01*
X83465881Y-97345409D01*
X83484668Y-97300163D01*
X84264383Y-97300163D01*
X84375741Y-97569669D01*
X84581757Y-97776045D01*
X84586501Y-97778015D01*
X84484128Y-98024558D01*
X84483873Y-98316163D01*
X84595231Y-98585669D01*
X84801247Y-98792045D01*
X85070558Y-98903872D01*
X85362163Y-98904127D01*
X85631669Y-98792769D01*
X85838045Y-98586753D01*
X85949872Y-98317442D01*
X85950127Y-98025837D01*
X85878598Y-97852722D01*
X87814834Y-97852722D01*
X87960374Y-98204954D01*
X88229628Y-98474679D01*
X88581606Y-98620833D01*
X88962722Y-98621166D01*
X89314954Y-98475626D01*
X89474695Y-98316163D01*
X90579873Y-98316163D01*
X90691231Y-98585669D01*
X90897247Y-98792045D01*
X91166558Y-98903872D01*
X91458163Y-98904127D01*
X91727669Y-98792769D01*
X91934045Y-98586753D01*
X92045872Y-98317442D01*
X92046127Y-98025837D01*
X91934769Y-97756331D01*
X91728753Y-97549955D01*
X91459442Y-97438128D01*
X91167837Y-97437873D01*
X90898331Y-97549231D01*
X90691955Y-97755247D01*
X90580128Y-98024558D01*
X90579873Y-98316163D01*
X89474695Y-98316163D01*
X89584679Y-98206372D01*
X89730833Y-97854394D01*
X89731166Y-97473278D01*
X89585626Y-97121046D01*
X89316372Y-96851321D01*
X88964394Y-96705167D01*
X88583278Y-96704834D01*
X88231046Y-96850374D01*
X87961321Y-97119628D01*
X87815167Y-97471606D01*
X87814834Y-97852722D01*
X85878598Y-97852722D01*
X85838769Y-97756331D01*
X85632753Y-97549955D01*
X85628009Y-97547985D01*
X85730382Y-97301442D01*
X85730637Y-97009837D01*
X85619279Y-96740331D01*
X85413263Y-96533955D01*
X85143952Y-96422128D01*
X84852347Y-96421873D01*
X84582841Y-96533231D01*
X84376465Y-96739247D01*
X84264638Y-97008558D01*
X84264383Y-97300163D01*
X83484668Y-97300163D01*
X83536872Y-97174442D01*
X83537127Y-96882837D01*
X83465881Y-96710409D01*
X83536872Y-96539442D01*
X83537127Y-96247837D01*
X83465884Y-96075416D01*
X83536878Y-95904442D01*
X83537133Y-95612837D01*
X83425775Y-95343331D01*
X83219759Y-95136955D01*
X82950448Y-95025128D01*
X82658843Y-95024873D01*
X82389337Y-95136231D01*
X82182961Y-95342247D01*
X82071134Y-95611558D01*
X82070879Y-95903163D01*
X82142122Y-96075584D01*
X82071128Y-96246558D01*
X82070873Y-96538163D01*
X82142119Y-96710591D01*
X82071128Y-96881558D01*
X82070873Y-97173163D01*
X82142119Y-97345591D01*
X82071128Y-97516558D01*
X82070873Y-97808163D01*
X82142119Y-97980591D01*
X82071128Y-98151558D01*
X82070873Y-98443163D01*
X82135598Y-98599810D01*
X82036552Y-98838342D01*
X82036297Y-99129947D01*
X70355000Y-99129947D01*
X70355000Y-97344722D01*
X77014313Y-97344722D01*
X77159853Y-97696954D01*
X77429107Y-97966679D01*
X77781085Y-98112833D01*
X78162201Y-98113166D01*
X78514433Y-97967626D01*
X78784158Y-97698372D01*
X78930312Y-97346394D01*
X78930645Y-96965278D01*
X78785105Y-96613046D01*
X78515851Y-96343321D01*
X78163873Y-96197167D01*
X77782757Y-96196834D01*
X77430525Y-96342374D01*
X77160800Y-96611628D01*
X77014646Y-96963606D01*
X77014313Y-97344722D01*
X70355000Y-97344722D01*
X70355000Y-95821121D01*
X70674606Y-95953833D01*
X71055722Y-95954166D01*
X71407954Y-95808626D01*
X71677679Y-95539372D01*
X71823833Y-95187394D01*
X71824166Y-94806278D01*
X71678626Y-94454046D01*
X71409372Y-94184321D01*
X71057394Y-94038167D01*
X70676278Y-94037834D01*
X70355000Y-94170584D01*
X70355000Y-93744163D01*
X83975873Y-93744163D01*
X84087231Y-94013669D01*
X84293247Y-94220045D01*
X84562558Y-94331872D01*
X84854163Y-94332127D01*
X85123669Y-94220769D01*
X85330045Y-94014753D01*
X85389668Y-93871163D01*
X85753877Y-93871163D01*
X85865235Y-94140669D01*
X86071251Y-94347045D01*
X86340562Y-94458872D01*
X86632167Y-94459127D01*
X86901673Y-94347769D01*
X87108049Y-94141753D01*
X87219876Y-93872442D01*
X87220131Y-93580837D01*
X87108773Y-93311331D01*
X86902757Y-93104955D01*
X86633446Y-92993128D01*
X86341841Y-92992873D01*
X86072335Y-93104231D01*
X85865959Y-93310247D01*
X85754132Y-93579558D01*
X85753877Y-93871163D01*
X85389668Y-93871163D01*
X85441872Y-93745442D01*
X85442127Y-93453837D01*
X85330769Y-93184331D01*
X85124753Y-92977955D01*
X84855442Y-92866128D01*
X84563837Y-92865873D01*
X84294331Y-92977231D01*
X84087955Y-93183247D01*
X83976128Y-93452558D01*
X83975873Y-93744163D01*
X70355000Y-93744163D01*
X70355000Y-91375722D01*
X73331324Y-91375722D01*
X73476864Y-91727954D01*
X73746118Y-91997679D01*
X74098096Y-92143833D01*
X74479212Y-92144166D01*
X74831444Y-91998626D01*
X75101169Y-91729372D01*
X75161049Y-91585163D01*
X76101873Y-91585163D01*
X76213231Y-91854669D01*
X76419247Y-92061045D01*
X76688558Y-92172872D01*
X76980163Y-92173127D01*
X77249669Y-92061769D01*
X77456045Y-91855753D01*
X77567872Y-91586442D01*
X77568029Y-91406915D01*
X77577558Y-91410872D01*
X77869163Y-91411127D01*
X78138669Y-91299769D01*
X78345045Y-91093753D01*
X78456872Y-90824442D01*
X78457127Y-90532837D01*
X78345769Y-90263331D01*
X78143954Y-90061163D01*
X78387873Y-90061163D01*
X78499231Y-90330669D01*
X78564839Y-90396392D01*
X78507033Y-90535605D01*
X78506778Y-90827210D01*
X78618136Y-91096716D01*
X78824152Y-91303092D01*
X79050028Y-91396883D01*
X79134231Y-91600669D01*
X79340247Y-91807045D01*
X79609558Y-91918872D01*
X79901163Y-91919127D01*
X80170669Y-91807769D01*
X80377045Y-91601753D01*
X80488872Y-91332442D01*
X80489127Y-91040837D01*
X80377769Y-90771331D01*
X80171753Y-90564955D01*
X79945877Y-90471164D01*
X79933894Y-90442163D01*
X80546873Y-90442163D01*
X80658231Y-90711669D01*
X80864247Y-90918045D01*
X81133558Y-91029872D01*
X81425163Y-91030127D01*
X81646896Y-90938508D01*
X81753247Y-91045045D01*
X82022558Y-91156872D01*
X82314163Y-91157127D01*
X82486589Y-91085882D01*
X82657558Y-91156874D01*
X82949163Y-91157129D01*
X83218669Y-91045771D01*
X83425045Y-90839755D01*
X83536872Y-90570444D01*
X83536907Y-90529353D01*
X85666683Y-90529353D01*
X85778041Y-90798859D01*
X85984057Y-91005235D01*
X86253368Y-91117062D01*
X86544973Y-91117317D01*
X86814479Y-91005959D01*
X87020855Y-90799943D01*
X87023890Y-90792635D01*
X87023863Y-90823163D01*
X87135221Y-91092669D01*
X87341237Y-91299045D01*
X87610548Y-91410872D01*
X87902153Y-91411127D01*
X87987839Y-91375722D01*
X89211834Y-91375722D01*
X89357374Y-91727954D01*
X89626628Y-91997679D01*
X89978606Y-92143833D01*
X90359722Y-92144166D01*
X90711954Y-91998626D01*
X90981679Y-91729372D01*
X91127833Y-91377394D01*
X91128166Y-90996278D01*
X90982626Y-90644046D01*
X90713372Y-90374321D01*
X90361394Y-90228167D01*
X89980278Y-90227834D01*
X89628046Y-90373374D01*
X89358321Y-90642628D01*
X89212167Y-90994606D01*
X89211834Y-91375722D01*
X87987839Y-91375722D01*
X88171659Y-91299769D01*
X88378035Y-91093753D01*
X88489862Y-90824442D01*
X88490117Y-90532837D01*
X88378759Y-90263331D01*
X88172743Y-90056955D01*
X87903432Y-89945128D01*
X87854983Y-89945086D01*
X87855135Y-89770837D01*
X87743777Y-89501331D01*
X87537761Y-89294955D01*
X87268450Y-89183128D01*
X86976845Y-89182873D01*
X86707339Y-89294231D01*
X86500963Y-89500247D01*
X86438272Y-89651224D01*
X86254647Y-89651063D01*
X85985141Y-89762421D01*
X85778765Y-89968437D01*
X85666938Y-90237748D01*
X85666683Y-90529353D01*
X83536907Y-90529353D01*
X83537127Y-90278839D01*
X83425769Y-90009333D01*
X83219753Y-89802957D01*
X82950442Y-89691130D01*
X82658837Y-89690875D01*
X82486411Y-89762120D01*
X82315442Y-89691128D01*
X82023837Y-89690873D01*
X81802104Y-89782492D01*
X81695753Y-89675955D01*
X81426442Y-89564128D01*
X81134837Y-89563873D01*
X80865331Y-89675231D01*
X80658955Y-89881247D01*
X80547128Y-90150558D01*
X80546873Y-90442163D01*
X79933894Y-90442163D01*
X79861674Y-90267378D01*
X79796066Y-90201655D01*
X79853872Y-90062442D01*
X79854127Y-89770837D01*
X79742769Y-89501331D01*
X79536753Y-89294955D01*
X79267442Y-89183128D01*
X78975837Y-89182873D01*
X78706331Y-89294231D01*
X78499955Y-89500247D01*
X78388128Y-89769558D01*
X78387873Y-90061163D01*
X78143954Y-90061163D01*
X78139753Y-90056955D01*
X77870442Y-89945128D01*
X77578837Y-89944873D01*
X77309331Y-90056231D01*
X77276378Y-90089126D01*
X77235442Y-90072128D01*
X76943837Y-90071873D01*
X76674331Y-90183231D01*
X76467955Y-90389247D01*
X76356128Y-90658558D01*
X76355932Y-90882518D01*
X76213955Y-91024247D01*
X76102128Y-91293558D01*
X76101873Y-91585163D01*
X75161049Y-91585163D01*
X75247323Y-91377394D01*
X75247656Y-90996278D01*
X75102116Y-90644046D01*
X74832862Y-90374321D01*
X74480884Y-90228167D01*
X74099768Y-90227834D01*
X73747536Y-90373374D01*
X73477811Y-90642628D01*
X73331657Y-90994606D01*
X73331324Y-91375722D01*
X70355000Y-91375722D01*
X70355000Y-88029163D01*
X84356873Y-88029163D01*
X84468231Y-88298669D01*
X84674247Y-88505045D01*
X84943558Y-88616872D01*
X85235163Y-88617127D01*
X85504669Y-88505769D01*
X85711045Y-88299753D01*
X85822872Y-88030442D01*
X85822914Y-87981975D01*
X85863561Y-87982010D01*
X85754128Y-88245556D01*
X85753873Y-88537161D01*
X85865231Y-88806667D01*
X86071247Y-89013043D01*
X86340558Y-89124870D01*
X86632163Y-89125125D01*
X86901669Y-89013767D01*
X87108045Y-88807751D01*
X87219872Y-88538440D01*
X87220127Y-88246835D01*
X87108769Y-87977329D01*
X86902753Y-87770953D01*
X86633442Y-87659126D01*
X86475439Y-87658988D01*
X86584872Y-87395442D01*
X86585127Y-87103837D01*
X86473769Y-86834331D01*
X86398733Y-86759163D01*
X86642873Y-86759163D01*
X86754231Y-87028669D01*
X86960247Y-87235045D01*
X87229558Y-87346872D01*
X87521163Y-87347127D01*
X87790669Y-87235769D01*
X87969027Y-87057722D01*
X91624834Y-87057722D01*
X91770374Y-87409954D01*
X92039628Y-87679679D01*
X92391606Y-87825833D01*
X92772722Y-87826166D01*
X93124954Y-87680626D01*
X93394679Y-87411372D01*
X93540833Y-87059394D01*
X93541166Y-86678278D01*
X93395626Y-86326046D01*
X93126372Y-86056321D01*
X92774394Y-85910167D01*
X92393278Y-85909834D01*
X92041046Y-86055374D01*
X91771321Y-86324628D01*
X91625167Y-86676606D01*
X91624834Y-87057722D01*
X87969027Y-87057722D01*
X87997045Y-87029753D01*
X88108872Y-86760442D01*
X88109127Y-86468837D01*
X87997769Y-86199331D01*
X87791753Y-85992955D01*
X87522442Y-85881128D01*
X87230837Y-85880873D01*
X86961331Y-85992231D01*
X86754955Y-86198247D01*
X86643128Y-86467558D01*
X86642873Y-86759163D01*
X86398733Y-86759163D01*
X86267753Y-86627955D01*
X85998442Y-86516128D01*
X85706837Y-86515873D01*
X85437331Y-86627231D01*
X85230955Y-86833247D01*
X85119128Y-87102558D01*
X85119086Y-87151025D01*
X84944837Y-87150873D01*
X84675331Y-87262231D01*
X84468955Y-87468247D01*
X84357128Y-87737558D01*
X84356873Y-88029163D01*
X70355000Y-88029163D01*
X70355000Y-83628347D01*
X73966324Y-83628347D01*
X74111864Y-83980579D01*
X74381118Y-84250304D01*
X74668594Y-84369674D01*
X74607167Y-84517606D01*
X74606834Y-84898722D01*
X74752374Y-85250954D01*
X75021628Y-85520679D01*
X75373606Y-85666833D01*
X75754722Y-85667166D01*
X76106954Y-85521626D01*
X76376679Y-85252372D01*
X76522833Y-84900394D01*
X76523166Y-84519278D01*
X76377626Y-84167046D01*
X76108372Y-83897321D01*
X75820896Y-83777951D01*
X75882323Y-83630019D01*
X75882656Y-83248903D01*
X75737116Y-82896671D01*
X75467862Y-82626946D01*
X75115884Y-82480792D01*
X74734768Y-82480459D01*
X74382536Y-82625999D01*
X74112811Y-82895253D01*
X73966657Y-83247231D01*
X73966324Y-83628347D01*
X70355000Y-83628347D01*
X70355000Y-81088722D01*
X71304834Y-81088722D01*
X71450374Y-81440954D01*
X71543184Y-81533926D01*
X71451321Y-81625628D01*
X71305167Y-81977606D01*
X71304834Y-82358722D01*
X71450374Y-82710954D01*
X71719628Y-82980679D01*
X72071606Y-83126833D01*
X72452722Y-83127166D01*
X72804954Y-82981626D01*
X73074679Y-82712372D01*
X73220833Y-82360394D01*
X73221166Y-81979278D01*
X73075626Y-81627046D01*
X72982816Y-81534074D01*
X73074679Y-81442372D01*
X73220833Y-81090394D01*
X73221166Y-80709278D01*
X73075626Y-80357046D01*
X72806372Y-80087321D01*
X72454394Y-79941167D01*
X72073278Y-79940834D01*
X71721046Y-80086374D01*
X71451321Y-80355628D01*
X71305167Y-80707606D01*
X71304834Y-81088722D01*
X70355000Y-81088722D01*
X70355000Y-78504163D01*
X71402873Y-78504163D01*
X71514231Y-78773669D01*
X71720247Y-78980045D01*
X71989558Y-79091872D01*
X72281163Y-79092127D01*
X72550669Y-78980769D01*
X72757045Y-78774753D01*
X72802338Y-78665673D01*
X75974873Y-78665673D01*
X76086231Y-78935179D01*
X76292247Y-79141555D01*
X76561558Y-79253382D01*
X76853163Y-79253637D01*
X77025591Y-79182391D01*
X77045323Y-79190584D01*
X76958767Y-79276989D01*
X76782101Y-79702449D01*
X76781699Y-80163130D01*
X76957623Y-80588898D01*
X77283089Y-80914933D01*
X77612023Y-81051518D01*
X77284802Y-81186723D01*
X76958767Y-81512189D01*
X76782101Y-81937649D01*
X76781699Y-82398330D01*
X76957623Y-82824098D01*
X77283089Y-83150133D01*
X77708549Y-83326799D01*
X78169230Y-83327201D01*
X78594998Y-83151277D01*
X78862641Y-82884101D01*
X78972135Y-83149097D01*
X79395972Y-83573674D01*
X79591749Y-83654968D01*
X79270167Y-83975989D01*
X79095388Y-84396904D01*
X78922177Y-83977702D01*
X78596711Y-83651667D01*
X78171251Y-83475001D01*
X77710570Y-83474599D01*
X77284802Y-83650523D01*
X76958767Y-83975989D01*
X76782101Y-84401449D01*
X76781699Y-84862130D01*
X76940780Y-85247136D01*
X76674331Y-85357231D01*
X76467955Y-85563247D01*
X76356128Y-85832558D01*
X76355873Y-86124163D01*
X76467231Y-86393669D01*
X76673247Y-86600045D01*
X76942558Y-86711872D01*
X77234163Y-86712127D01*
X77366140Y-86657595D01*
X77562247Y-86854045D01*
X77831558Y-86965872D01*
X78123163Y-86966127D01*
X78392669Y-86854769D01*
X78599045Y-86648753D01*
X78710872Y-86379442D01*
X78711127Y-86087837D01*
X78599769Y-85818331D01*
X78454727Y-85673036D01*
X78594998Y-85615077D01*
X78921033Y-85289611D01*
X79095812Y-84868696D01*
X79269023Y-85287898D01*
X79594489Y-85613933D01*
X80019949Y-85790599D01*
X80480630Y-85791001D01*
X80906398Y-85615077D01*
X81232433Y-85289611D01*
X81409099Y-84864151D01*
X81409100Y-84862130D01*
X81455299Y-84862130D01*
X81631223Y-85287898D01*
X81956689Y-85613933D01*
X82382149Y-85790599D01*
X82842830Y-85791001D01*
X83268598Y-85615077D01*
X83594633Y-85289611D01*
X83722711Y-84981163D01*
X87023869Y-84981163D01*
X87135227Y-85250669D01*
X87341243Y-85457045D01*
X87610554Y-85568872D01*
X87902159Y-85569127D01*
X88171665Y-85457769D01*
X88378041Y-85251753D01*
X88489868Y-84982442D01*
X88490123Y-84690837D01*
X88378765Y-84421331D01*
X88172749Y-84214955D01*
X87903438Y-84103128D01*
X87611833Y-84102873D01*
X87342327Y-84214231D01*
X87135951Y-84420247D01*
X87024124Y-84689558D01*
X87023869Y-84981163D01*
X83722711Y-84981163D01*
X83771299Y-84864151D01*
X83771701Y-84403470D01*
X83595777Y-83977702D01*
X83270311Y-83651667D01*
X83215054Y-83628722D01*
X89211834Y-83628722D01*
X89357374Y-83980954D01*
X89626628Y-84250679D01*
X89978606Y-84396833D01*
X90359722Y-84397166D01*
X90711954Y-84251626D01*
X90981679Y-83982372D01*
X91127833Y-83630394D01*
X91128166Y-83249278D01*
X91081669Y-83136747D01*
X93980000Y-86035078D01*
X93980000Y-89071869D01*
X93930338Y-89146193D01*
X93853001Y-89535000D01*
X93930338Y-89923807D01*
X94150580Y-90253420D01*
X94912580Y-91015421D01*
X95242193Y-91235662D01*
X95306700Y-91248493D01*
X95503992Y-91287737D01*
X95503992Y-95259895D01*
X95314394Y-95181167D01*
X94933278Y-95180834D01*
X94581046Y-95326374D01*
X94311321Y-95595628D01*
X94165167Y-95947606D01*
X94164834Y-96328722D01*
X94310374Y-96680954D01*
X94579628Y-96950679D01*
X94931606Y-97096833D01*
X95312722Y-97097166D01*
X95621844Y-96969439D01*
X95801572Y-97238420D01*
X95980090Y-97357703D01*
X95914128Y-97516558D01*
X95914122Y-97523286D01*
X95851331Y-97549231D01*
X95644955Y-97755247D01*
X95533128Y-98024558D01*
X95532873Y-98316163D01*
X95644231Y-98585669D01*
X95850247Y-98792045D01*
X96119558Y-98903872D01*
X96411163Y-98904127D01*
X96680669Y-98792769D01*
X96887045Y-98586753D01*
X96998872Y-98317442D01*
X96998878Y-98310714D01*
X97061669Y-98284769D01*
X97113528Y-98233000D01*
X97931048Y-98233000D01*
X97931048Y-98633000D01*
X97970475Y-98831212D01*
X98038488Y-98933000D01*
X97970475Y-99034788D01*
X97931048Y-99233000D01*
X97931048Y-99633000D01*
X97970475Y-99831212D01*
X98082753Y-99999247D01*
X98250788Y-100111525D01*
X98449000Y-100150952D01*
X98731048Y-100150952D01*
X98731048Y-100433000D01*
X98770475Y-100631212D01*
X98882753Y-100799247D01*
X99050788Y-100911525D01*
X99249000Y-100950952D01*
X99649000Y-100950952D01*
X99847212Y-100911525D01*
X99949000Y-100843512D01*
X100050788Y-100911525D01*
X100249000Y-100950952D01*
X100649000Y-100950952D01*
X100847212Y-100911525D01*
X100930066Y-100856163D01*
X104930873Y-100856163D01*
X105042231Y-101125669D01*
X105248247Y-101332045D01*
X105517558Y-101443872D01*
X105809163Y-101444127D01*
X106078669Y-101332769D01*
X106285045Y-101126753D01*
X106396872Y-100857442D01*
X106397127Y-100565837D01*
X106285769Y-100296331D01*
X106079753Y-100089955D01*
X105810442Y-99978128D01*
X105518837Y-99977873D01*
X105249331Y-100089231D01*
X105042955Y-100295247D01*
X104931128Y-100564558D01*
X104930873Y-100856163D01*
X100930066Y-100856163D01*
X101015247Y-100799247D01*
X101127525Y-100631212D01*
X101166952Y-100433000D01*
X101166952Y-100150952D01*
X101449000Y-100150952D01*
X101647212Y-100111525D01*
X101815247Y-99999247D01*
X101927525Y-99831212D01*
X101966952Y-99633000D01*
X101966952Y-99233000D01*
X101927525Y-99034788D01*
X101859512Y-98933000D01*
X101927525Y-98831212D01*
X101966952Y-98633000D01*
X101966952Y-98316163D01*
X103025867Y-98316163D01*
X103137225Y-98585669D01*
X103343241Y-98792045D01*
X103612552Y-98903872D01*
X103904157Y-98904127D01*
X104173663Y-98792769D01*
X104380039Y-98586753D01*
X104491866Y-98317442D01*
X104491866Y-98317318D01*
X104601311Y-98272096D01*
X104613247Y-98284053D01*
X104882558Y-98395880D01*
X105174163Y-98396135D01*
X105443669Y-98284777D01*
X105650045Y-98078761D01*
X105761872Y-97809450D01*
X105762127Y-97517845D01*
X105650769Y-97248339D01*
X105444753Y-97041963D01*
X105256327Y-96963722D01*
X110547834Y-96963722D01*
X110693374Y-97315954D01*
X110962628Y-97585679D01*
X111314606Y-97731833D01*
X111695722Y-97732166D01*
X112047954Y-97586626D01*
X112317679Y-97317372D01*
X112463833Y-96965394D01*
X112464166Y-96584278D01*
X112318626Y-96232046D01*
X112049372Y-95962321D01*
X111697394Y-95816167D01*
X111316278Y-95815834D01*
X110964046Y-95961374D01*
X110694321Y-96230628D01*
X110548167Y-96582606D01*
X110547834Y-96963722D01*
X105256327Y-96963722D01*
X105175442Y-96930136D01*
X104883837Y-96929881D01*
X104708475Y-97002339D01*
X104696539Y-96990382D01*
X104427228Y-96878555D01*
X104135623Y-96878300D01*
X103866117Y-96989658D01*
X103659741Y-97195674D01*
X103547914Y-97464985D01*
X103547914Y-97465109D01*
X103344325Y-97549231D01*
X103137949Y-97755247D01*
X103026122Y-98024558D01*
X103025867Y-98316163D01*
X101966952Y-98316163D01*
X101966952Y-98233000D01*
X101927525Y-98034788D01*
X101815247Y-97866753D01*
X101647212Y-97754475D01*
X101449000Y-97715048D01*
X101166952Y-97715048D01*
X101166952Y-97433000D01*
X101127525Y-97234788D01*
X101015247Y-97066753D01*
X100847212Y-96954475D01*
X100649000Y-96915048D01*
X100249000Y-96915048D01*
X100050788Y-96954475D01*
X99949000Y-97022488D01*
X99847212Y-96954475D01*
X99649000Y-96915048D01*
X99249000Y-96915048D01*
X99050788Y-96954475D01*
X98882753Y-97066753D01*
X98770475Y-97234788D01*
X98731048Y-97433000D01*
X98731048Y-97715048D01*
X98449000Y-97715048D01*
X98250788Y-97754475D01*
X98082753Y-97866753D01*
X97970475Y-98034788D01*
X97931048Y-98233000D01*
X97113528Y-98233000D01*
X97268045Y-98078753D01*
X97379872Y-97809442D01*
X97380127Y-97517837D01*
X97268769Y-97248331D01*
X97246617Y-97226140D01*
X97458654Y-96908806D01*
X97535992Y-96520000D01*
X97535992Y-96371349D01*
X101922679Y-96371349D01*
X102034037Y-96640855D01*
X102240053Y-96847231D01*
X102509364Y-96959058D01*
X102800969Y-96959313D01*
X103070475Y-96847955D01*
X103276851Y-96641939D01*
X103388678Y-96372628D01*
X103388933Y-96081023D01*
X103277575Y-95811517D01*
X103071559Y-95605141D01*
X102802248Y-95493314D01*
X102510643Y-95493059D01*
X102241137Y-95604417D01*
X102034761Y-95810433D01*
X101922934Y-96079744D01*
X101922679Y-96371349D01*
X97535992Y-96371349D01*
X97535992Y-91352848D01*
X97575841Y-91313000D01*
X99949002Y-91313000D01*
X99949002Y-94996000D01*
X100026340Y-95384806D01*
X100246582Y-95714420D01*
X100576196Y-95934662D01*
X100965002Y-96012000D01*
X101353808Y-95934662D01*
X101683422Y-95714420D01*
X101903664Y-95384806D01*
X101943264Y-95185722D01*
X107880834Y-95185722D01*
X108026374Y-95537954D01*
X108295628Y-95807679D01*
X108647606Y-95953833D01*
X109028722Y-95954166D01*
X109380954Y-95808626D01*
X109650679Y-95539372D01*
X109796833Y-95187394D01*
X109797166Y-94806278D01*
X109651626Y-94454046D01*
X109382372Y-94184321D01*
X109030394Y-94038167D01*
X108649278Y-94037834D01*
X108297046Y-94183374D01*
X108027321Y-94452628D01*
X107881167Y-94804606D01*
X107880834Y-95185722D01*
X101943264Y-95185722D01*
X101981002Y-94996000D01*
X101981002Y-94296722D01*
X105213834Y-94296722D01*
X105359374Y-94648954D01*
X105628628Y-94918679D01*
X105980606Y-95064833D01*
X106361722Y-95065166D01*
X106713954Y-94919626D01*
X106983679Y-94650372D01*
X107129833Y-94298394D01*
X107130166Y-93917278D01*
X106984626Y-93565046D01*
X106715372Y-93295321D01*
X106363394Y-93149167D01*
X105982278Y-93148834D01*
X105630046Y-93294374D01*
X105360321Y-93563628D01*
X105214167Y-93915606D01*
X105213834Y-94296722D01*
X101981002Y-94296722D01*
X101981002Y-91313000D01*
X108839000Y-91313000D01*
X109227806Y-91235662D01*
X109557420Y-91015420D01*
X109777662Y-90685806D01*
X109855000Y-90297000D01*
X109777662Y-89908194D01*
X109557420Y-89578580D01*
X109227806Y-89358338D01*
X108839000Y-89281000D01*
X96051841Y-89281000D01*
X95758000Y-88987160D01*
X95758000Y-87839222D01*
X97221790Y-87839222D01*
X97406069Y-88285212D01*
X97746994Y-88626732D01*
X98192661Y-88811789D01*
X98675222Y-88812210D01*
X99121212Y-88627931D01*
X99462732Y-88287006D01*
X99647789Y-87841339D01*
X99647790Y-87839222D01*
X99761790Y-87839222D01*
X99946069Y-88285212D01*
X100286994Y-88626732D01*
X100732661Y-88811789D01*
X101215222Y-88812210D01*
X101661212Y-88627931D01*
X102002732Y-88287006D01*
X102187789Y-87841339D01*
X102187790Y-87839222D01*
X102301790Y-87839222D01*
X102486069Y-88285212D01*
X102826994Y-88626732D01*
X103272661Y-88811789D01*
X103755222Y-88812210D01*
X104201212Y-88627931D01*
X104542732Y-88287006D01*
X104727789Y-87841339D01*
X104727790Y-87839222D01*
X104841790Y-87839222D01*
X105026069Y-88285212D01*
X105366994Y-88626732D01*
X105812661Y-88811789D01*
X106295222Y-88812210D01*
X106741212Y-88627931D01*
X107082732Y-88287006D01*
X107267789Y-87841339D01*
X107268210Y-87358778D01*
X107083931Y-86912788D01*
X106743006Y-86571268D01*
X106297339Y-86386211D01*
X105814778Y-86385790D01*
X105368788Y-86570069D01*
X105027268Y-86910994D01*
X104842211Y-87356661D01*
X104841790Y-87839222D01*
X104727790Y-87839222D01*
X104728210Y-87358778D01*
X104543931Y-86912788D01*
X104203006Y-86571268D01*
X103757339Y-86386211D01*
X103274778Y-86385790D01*
X102828788Y-86570069D01*
X102487268Y-86910994D01*
X102302211Y-87356661D01*
X102301790Y-87839222D01*
X102187790Y-87839222D01*
X102188210Y-87358778D01*
X102003931Y-86912788D01*
X101663006Y-86571268D01*
X101217339Y-86386211D01*
X100734778Y-86385790D01*
X100288788Y-86570069D01*
X99947268Y-86910994D01*
X99762211Y-87356661D01*
X99761790Y-87839222D01*
X99647790Y-87839222D01*
X99648210Y-87358778D01*
X99463931Y-86912788D01*
X99123006Y-86571268D01*
X98677339Y-86386211D01*
X98194778Y-86385790D01*
X97748788Y-86570069D01*
X97407268Y-86910994D01*
X97222211Y-87356661D01*
X97221790Y-87839222D01*
X95758000Y-87839222D01*
X95758000Y-85666842D01*
X95690329Y-85326636D01*
X95672012Y-85299222D01*
X98491790Y-85299222D01*
X98676069Y-85745212D01*
X99016994Y-86086732D01*
X99462661Y-86271789D01*
X99945222Y-86272210D01*
X100391212Y-86087931D01*
X100732732Y-85747006D01*
X100917789Y-85301339D01*
X100917790Y-85299222D01*
X101031790Y-85299222D01*
X101216069Y-85745212D01*
X101556994Y-86086732D01*
X102002661Y-86271789D01*
X102485222Y-86272210D01*
X102931212Y-86087931D01*
X103272732Y-85747006D01*
X103457789Y-85301339D01*
X103457790Y-85299222D01*
X103571790Y-85299222D01*
X103756069Y-85745212D01*
X104096994Y-86086732D01*
X104542661Y-86271789D01*
X105025222Y-86272210D01*
X105471212Y-86087931D01*
X105812732Y-85747006D01*
X105997789Y-85301339D01*
X105997790Y-85299222D01*
X106111790Y-85299222D01*
X106296069Y-85745212D01*
X106636994Y-86086732D01*
X107082661Y-86271789D01*
X107565222Y-86272210D01*
X108011212Y-86087931D01*
X108352732Y-85747006D01*
X108537789Y-85301339D01*
X108538210Y-84818778D01*
X108353931Y-84372788D01*
X108013006Y-84031268D01*
X107567339Y-83846211D01*
X107084778Y-83845790D01*
X106638788Y-84030069D01*
X106297268Y-84370994D01*
X106112211Y-84816661D01*
X106111790Y-85299222D01*
X105997790Y-85299222D01*
X105998210Y-84818778D01*
X105813931Y-84372788D01*
X105473006Y-84031268D01*
X105027339Y-83846211D01*
X104544778Y-83845790D01*
X104098788Y-84030069D01*
X103757268Y-84370994D01*
X103572211Y-84816661D01*
X103571790Y-85299222D01*
X103457790Y-85299222D01*
X103458210Y-84818778D01*
X103273931Y-84372788D01*
X102933006Y-84031268D01*
X102487339Y-83846211D01*
X102004778Y-83845790D01*
X101558788Y-84030069D01*
X101217268Y-84370994D01*
X101032211Y-84816661D01*
X101031790Y-85299222D01*
X100917790Y-85299222D01*
X100918210Y-84818778D01*
X100733931Y-84372788D01*
X100393006Y-84031268D01*
X99947339Y-83846211D01*
X99464778Y-83845790D01*
X99018788Y-84030069D01*
X98677268Y-84370994D01*
X98492211Y-84816661D01*
X98491790Y-85299222D01*
X95672012Y-85299222D01*
X95497618Y-85038224D01*
X92270999Y-81811605D01*
X92270999Y-78675722D01*
X92640834Y-78675722D01*
X92786374Y-79027954D01*
X93055628Y-79297679D01*
X93407606Y-79443833D01*
X93788722Y-79444166D01*
X94140954Y-79298626D01*
X94410679Y-79029372D01*
X94556833Y-78677394D01*
X94557166Y-78296278D01*
X94411626Y-77944046D01*
X94142372Y-77674321D01*
X93790394Y-77528167D01*
X93409278Y-77527834D01*
X93057046Y-77673374D01*
X92787321Y-77942628D01*
X92641167Y-78294606D01*
X92640834Y-78675722D01*
X92270999Y-78675722D01*
X92270999Y-76649999D01*
X92203328Y-76309793D01*
X92010617Y-76021381D01*
X91813170Y-75823934D01*
X91744626Y-75658046D01*
X91475372Y-75388321D01*
X91123394Y-75242167D01*
X90742278Y-75241834D01*
X90390046Y-75387374D01*
X90120321Y-75656628D01*
X89974167Y-76008606D01*
X89973834Y-76389722D01*
X89987849Y-76423642D01*
X89882331Y-76467241D01*
X89675955Y-76673257D01*
X89564128Y-76942568D01*
X89563873Y-77234173D01*
X89675231Y-77503679D01*
X89881247Y-77710055D01*
X90150558Y-77821882D01*
X90442163Y-77822137D01*
X90492999Y-77801132D01*
X90492999Y-80366434D01*
X90316458Y-80293128D01*
X90024853Y-80292873D01*
X89755347Y-80404231D01*
X89548971Y-80610247D01*
X89437144Y-80879558D01*
X89436889Y-81171163D01*
X89548247Y-81440669D01*
X89754263Y-81647045D01*
X90023574Y-81758872D01*
X90315179Y-81759127D01*
X90492999Y-81685653D01*
X90492999Y-82179841D01*
X90560670Y-82520047D01*
X90601236Y-82580758D01*
X90361394Y-82481167D01*
X89980278Y-82480834D01*
X89628046Y-82626374D01*
X89358321Y-82895628D01*
X89212167Y-83247606D01*
X89211834Y-83628722D01*
X83215054Y-83628722D01*
X82844851Y-83475001D01*
X82384170Y-83474599D01*
X81958402Y-83650523D01*
X81632367Y-83975989D01*
X81455701Y-84401449D01*
X81455299Y-84862130D01*
X81409100Y-84862130D01*
X81409501Y-84403470D01*
X81233577Y-83977702D01*
X80911363Y-83654925D01*
X81104397Y-83575165D01*
X81528974Y-83151328D01*
X81654973Y-82847889D01*
X81956689Y-83150133D01*
X82382149Y-83326799D01*
X82842830Y-83327201D01*
X83268598Y-83151277D01*
X83594633Y-82825811D01*
X83771299Y-82400351D01*
X83771701Y-81939670D01*
X83595777Y-81513902D01*
X83270311Y-81187867D01*
X82941377Y-81051282D01*
X83268598Y-80916077D01*
X83337736Y-80847059D01*
X83628606Y-80967839D01*
X84009722Y-80968172D01*
X84361954Y-80822632D01*
X84631679Y-80553378D01*
X84777833Y-80201400D01*
X84778166Y-79820284D01*
X84632626Y-79468052D01*
X84363372Y-79198327D01*
X84011394Y-79052173D01*
X83630278Y-79051840D01*
X83445519Y-79128181D01*
X83270311Y-78952667D01*
X82844851Y-78776001D01*
X82384170Y-78775599D01*
X81958402Y-78951523D01*
X81632367Y-79276989D01*
X81455701Y-79702449D01*
X81455299Y-80163130D01*
X81631223Y-80588898D01*
X81956689Y-80914933D01*
X82285623Y-81051518D01*
X81958402Y-81186723D01*
X81632367Y-81512189D01*
X81595640Y-81600638D01*
X81530465Y-81442903D01*
X81106628Y-81018326D01*
X80883335Y-80925606D01*
X80906398Y-80916077D01*
X81232433Y-80590611D01*
X81409099Y-80165151D01*
X81409501Y-79704470D01*
X81233577Y-79278702D01*
X80908111Y-78952667D01*
X80482651Y-78776001D01*
X80021970Y-78775599D01*
X79596202Y-78951523D01*
X79270167Y-79276989D01*
X79095388Y-79697904D01*
X78922177Y-79278702D01*
X78596711Y-78952667D01*
X78171251Y-78776001D01*
X78030642Y-78775878D01*
X78075872Y-78666952D01*
X78076127Y-78375347D01*
X77964769Y-78105841D01*
X77758753Y-77899465D01*
X77489442Y-77787638D01*
X77197837Y-77787383D01*
X77025409Y-77858629D01*
X76854442Y-77787638D01*
X76562837Y-77787383D01*
X76293331Y-77898741D01*
X76086955Y-78104757D01*
X75975128Y-78374068D01*
X75974873Y-78665673D01*
X72802338Y-78665673D01*
X72868872Y-78505442D01*
X72869127Y-78213837D01*
X72757769Y-77944331D01*
X72569310Y-77755542D01*
X72677669Y-77710769D01*
X72884045Y-77504753D01*
X72995872Y-77235442D01*
X72996127Y-76943837D01*
X72884769Y-76674331D01*
X72678753Y-76467955D01*
X72409442Y-76356128D01*
X72117837Y-76355873D01*
X71848331Y-76467231D01*
X71641955Y-76673247D01*
X71530128Y-76942558D01*
X71529873Y-77234163D01*
X71641231Y-77503669D01*
X71829690Y-77692458D01*
X71721331Y-77737231D01*
X71514955Y-77943247D01*
X71403128Y-78212558D01*
X71402873Y-78504163D01*
X70355000Y-78504163D01*
X70355000Y-76310653D01*
X73980021Y-76310653D01*
X74091379Y-76580159D01*
X74297395Y-76786535D01*
X74566706Y-76898362D01*
X74858311Y-76898617D01*
X75127817Y-76787259D01*
X75334193Y-76581243D01*
X75446020Y-76311932D01*
X75446275Y-76020327D01*
X75334917Y-75750821D01*
X75128901Y-75544445D01*
X74859590Y-75432618D01*
X74567985Y-75432363D01*
X74298479Y-75543721D01*
X74092103Y-75749737D01*
X73980276Y-76019048D01*
X73980021Y-76310653D01*
X70355000Y-76310653D01*
X70355000Y-73710800D01*
X71782940Y-73710800D01*
X71721046Y-73736374D01*
X71451321Y-74005628D01*
X71305167Y-74357606D01*
X71304834Y-74738722D01*
X71450374Y-75090954D01*
X71719628Y-75360679D01*
X72071606Y-75506833D01*
X72452722Y-75507166D01*
X72804954Y-75361626D01*
X73074679Y-75092372D01*
X73220833Y-74740394D01*
X73221166Y-74359278D01*
X73075626Y-74007046D01*
X72806372Y-73737321D01*
X72742502Y-73710800D01*
X84355940Y-73710800D01*
X84294046Y-73736374D01*
X84024321Y-74005628D01*
X83878167Y-74357606D01*
X83877834Y-74738722D01*
X84023374Y-75090954D01*
X84292628Y-75360679D01*
X84644606Y-75506833D01*
X85025722Y-75507166D01*
X85377954Y-75361626D01*
X85647679Y-75092372D01*
X85793833Y-74740394D01*
X85794166Y-74359278D01*
X85648626Y-74007046D01*
X85516299Y-73874487D01*
X94926769Y-73874487D01*
X95129279Y-74364597D01*
X95503930Y-74739903D01*
X95993687Y-74943268D01*
X96523987Y-74943731D01*
X97014097Y-74741221D01*
X97389403Y-74366570D01*
X97530095Y-74027747D01*
X97669279Y-74364597D01*
X98043930Y-74739903D01*
X98533687Y-74943268D01*
X99063987Y-74943731D01*
X99554097Y-74741221D01*
X99929403Y-74366570D01*
X100132768Y-73876813D01*
X100133231Y-73346513D01*
X99930721Y-72856403D01*
X99556070Y-72481097D01*
X99066313Y-72277732D01*
X98536013Y-72277269D01*
X98045903Y-72479779D01*
X97670597Y-72854430D01*
X97529905Y-73193253D01*
X97390721Y-72856403D01*
X97016070Y-72481097D01*
X96526313Y-72277732D01*
X95996013Y-72277269D01*
X95505903Y-72479779D01*
X95130597Y-72854430D01*
X94927232Y-73344187D01*
X94926769Y-73874487D01*
X85516299Y-73874487D01*
X85379372Y-73737321D01*
X85315502Y-73710800D01*
X88976200Y-73710800D01*
X89219204Y-73662464D01*
X89425213Y-73524813D01*
X89562864Y-73318804D01*
X89611200Y-73075800D01*
X89611200Y-72916163D01*
X92611873Y-72916163D01*
X92723231Y-73185669D01*
X92929247Y-73392045D01*
X93198558Y-73503872D01*
X93490163Y-73504127D01*
X93759669Y-73392769D01*
X93966045Y-73186753D01*
X94077872Y-72917442D01*
X94078127Y-72625837D01*
X93966769Y-72356331D01*
X93760753Y-72149955D01*
X93491442Y-72038128D01*
X93199837Y-72037873D01*
X92930331Y-72149231D01*
X92723955Y-72355247D01*
X92612128Y-72624558D01*
X92611873Y-72916163D01*
X89611200Y-72916163D01*
X89611200Y-67691000D01*
X91498111Y-67691000D01*
X91497834Y-68007722D01*
G36*
X124258662Y-120082957D02*
X124199618Y-120142000D01*
X124820388Y-120762770D01*
X124849994Y-120748379D01*
X124925990Y-120932303D01*
X125318630Y-121325629D01*
X125526512Y-121411949D01*
X125320697Y-121496990D01*
X124927371Y-121889630D01*
X124850116Y-122075680D01*
X124820388Y-122061230D01*
X124199618Y-122682000D01*
X124258662Y-122741044D01*
X123630044Y-123369662D01*
X123571000Y-123310618D01*
X123511957Y-123369662D01*
X122883339Y-122741044D01*
X122942382Y-122682000D01*
X122321612Y-122061230D01*
X122292006Y-122075621D01*
X122216010Y-121891697D01*
X121823370Y-121498371D01*
X121615488Y-121412051D01*
X121665496Y-121391388D01*
X122950230Y-121391388D01*
X122960249Y-121412000D01*
X122950230Y-121432612D01*
X122989221Y-121471603D01*
X123055441Y-121607834D01*
X123137116Y-121619498D01*
X123571000Y-122053382D01*
X123999164Y-121625218D01*
X124086559Y-121607834D01*
X124152779Y-121471603D01*
X124191770Y-121432612D01*
X124181751Y-121412000D01*
X124191770Y-121391388D01*
X124152779Y-121352397D01*
X124086559Y-121216166D01*
X124004884Y-121204502D01*
X123571000Y-120770618D01*
X123142836Y-121198782D01*
X123055441Y-121216166D01*
X122989221Y-121352397D01*
X122950230Y-121391388D01*
X121665496Y-121391388D01*
X121821303Y-121327010D01*
X122214629Y-120934370D01*
X122291884Y-120748320D01*
X122321612Y-120762770D01*
X122942382Y-120142000D01*
X122883339Y-120082957D01*
X123511957Y-119454339D01*
X123571000Y-119513382D01*
X123630044Y-119454339D01*
X124258662Y-120082957D01*
X124258662Y-120082957D01*
G37*
X124258662Y-120082957D02*
X124199618Y-120142000D01*
X124820388Y-120762770D01*
X124849994Y-120748379D01*
X124925990Y-120932303D01*
X125318630Y-121325629D01*
X125526512Y-121411949D01*
X125320697Y-121496990D01*
X124927371Y-121889630D01*
X124850116Y-122075680D01*
X124820388Y-122061230D01*
X124199618Y-122682000D01*
X124258662Y-122741044D01*
X123630044Y-123369662D01*
X123571000Y-123310618D01*
X123511957Y-123369662D01*
X122883339Y-122741044D01*
X122942382Y-122682000D01*
X122321612Y-122061230D01*
X122292006Y-122075621D01*
X122216010Y-121891697D01*
X121823370Y-121498371D01*
X121615488Y-121412051D01*
X121665496Y-121391388D01*
X122950230Y-121391388D01*
X122960249Y-121412000D01*
X122950230Y-121432612D01*
X122989221Y-121471603D01*
X123055441Y-121607834D01*
X123137116Y-121619498D01*
X123571000Y-122053382D01*
X123999164Y-121625218D01*
X124086559Y-121607834D01*
X124152779Y-121471603D01*
X124191770Y-121432612D01*
X124181751Y-121412000D01*
X124191770Y-121391388D01*
X124152779Y-121352397D01*
X124086559Y-121216166D01*
X124004884Y-121204502D01*
X123571000Y-120770618D01*
X123142836Y-121198782D01*
X123055441Y-121216166D01*
X122989221Y-121352397D01*
X122950230Y-121391388D01*
X121665496Y-121391388D01*
X121821303Y-121327010D01*
X122214629Y-120934370D01*
X122291884Y-120748320D01*
X122321612Y-120762770D01*
X122942382Y-120142000D01*
X122883339Y-120082957D01*
X123511957Y-119454339D01*
X123571000Y-119513382D01*
X123630044Y-119454339D01*
X124258662Y-120082957D01*
M02*
