G04 #@! TF.FileFunction,Legend,Bot*
%FSLAX46Y46*%
G04 Gerber Fmt 4.6, Leading zero omitted, Abs format (unit mm)*
G04 Created by KiCad (PCBNEW no-vcs-found-undefined) date Wed Nov  9 17:16:08 2016*
%MOMM*%
%LPD*%
G01*
G04 APERTURE LIST*
%ADD10C,0.100000*%
%ADD11C,0.200000*%
%ADD12C,0.254000*%
%ADD13C,0.300000*%
%ADD14C,0.245000*%
%ADD15C,0.381000*%
%ADD16C,0.187500*%
%ADD17C,0.250000*%
%ADD18C,0.400000*%
%ADD19C,0.700000*%
%ADD20C,0.500000*%
%ADD21C,0.420000*%
%ADD22C,0.370000*%
%ADD23C,0.380000*%
%ADD24C,0.150000*%
%ADD25C,1.000000*%
%ADD26C,0.127000*%
%ADD27C,0.508000*%
%ADD28C,0.180000*%
%ADD29C,0.350000*%
G04 APERTURE END LIST*
D10*
D11*
X128409619Y-122243904D02*
X127914380Y-122243904D01*
X128181047Y-122548666D01*
X128066761Y-122548666D01*
X127990571Y-122586761D01*
X127952476Y-122624857D01*
X127914380Y-122701047D01*
X127914380Y-122891523D01*
X127952476Y-122967714D01*
X127990571Y-123005809D01*
X128066761Y-123043904D01*
X128295333Y-123043904D01*
X128371523Y-123005809D01*
X128409619Y-122967714D01*
X127533428Y-123043904D02*
X127381047Y-123043904D01*
X127304857Y-123005809D01*
X127266761Y-122967714D01*
X127190571Y-122853428D01*
X127152476Y-122701047D01*
X127152476Y-122396285D01*
X127190571Y-122320095D01*
X127228666Y-122282000D01*
X127304857Y-122243904D01*
X127457238Y-122243904D01*
X127533428Y-122282000D01*
X127571523Y-122320095D01*
X127609619Y-122396285D01*
X127609619Y-122586761D01*
X127571523Y-122662952D01*
X127533428Y-122701047D01*
X127457238Y-122739142D01*
X127304857Y-122739142D01*
X127228666Y-122701047D01*
X127190571Y-122662952D01*
X127152476Y-122586761D01*
X76682571Y-119272095D02*
X76644476Y-119234000D01*
X76568285Y-119195904D01*
X76377809Y-119195904D01*
X76301619Y-119234000D01*
X76263523Y-119272095D01*
X76225428Y-119348285D01*
X76225428Y-119424476D01*
X76263523Y-119538761D01*
X76720666Y-119995904D01*
X76225428Y-119995904D01*
D12*
X137160000Y-74422000D02*
X138938000Y-74422000D01*
X137160000Y-78994000D02*
X137160000Y-74422000D01*
X137160000Y-88900000D02*
X137160000Y-84328000D01*
X138938000Y-88900000D02*
X137160000Y-88900000D01*
X137160000Y-89916000D02*
X138938000Y-89916000D01*
X137160000Y-93980000D02*
X137160000Y-89916000D01*
X137160000Y-104140000D02*
X138938000Y-104140000D01*
X137160000Y-99314000D02*
X137160000Y-104140000D01*
X137875095Y-80203047D02*
X137256047Y-79769714D01*
X137875095Y-79460190D02*
X136575095Y-79460190D01*
X136575095Y-79955428D01*
X136637000Y-80079238D01*
X136698904Y-80141142D01*
X136822714Y-80203047D01*
X137008428Y-80203047D01*
X137132238Y-80141142D01*
X137194142Y-80079238D01*
X137256047Y-79955428D01*
X137256047Y-79460190D01*
X137194142Y-80760190D02*
X137194142Y-81193523D01*
X137875095Y-81379238D02*
X137875095Y-80760190D01*
X136575095Y-80760190D01*
X136575095Y-81379238D01*
X137875095Y-82555428D02*
X137875095Y-81936380D01*
X136575095Y-81936380D01*
X136698904Y-82926857D02*
X136637000Y-82988761D01*
X136575095Y-83112571D01*
X136575095Y-83422095D01*
X136637000Y-83545904D01*
X136698904Y-83607809D01*
X136822714Y-83669714D01*
X136946523Y-83669714D01*
X137132238Y-83607809D01*
X137875095Y-82864952D01*
X137875095Y-83669714D01*
X138002095Y-95316047D02*
X137383047Y-94882714D01*
X138002095Y-94573190D02*
X136702095Y-94573190D01*
X136702095Y-95068428D01*
X136764000Y-95192238D01*
X136825904Y-95254142D01*
X136949714Y-95316047D01*
X137135428Y-95316047D01*
X137259238Y-95254142D01*
X137321142Y-95192238D01*
X137383047Y-95068428D01*
X137383047Y-94573190D01*
X137321142Y-95873190D02*
X137321142Y-96306523D01*
X138002095Y-96492238D02*
X138002095Y-95873190D01*
X136702095Y-95873190D01*
X136702095Y-96492238D01*
X138002095Y-97668428D02*
X138002095Y-97049380D01*
X136702095Y-97049380D01*
X138002095Y-98782714D02*
X138002095Y-98039857D01*
X138002095Y-98411285D02*
X136702095Y-98411285D01*
X136887809Y-98287476D01*
X137011619Y-98163666D01*
X137073523Y-98039857D01*
X144098095Y-74655571D02*
X142798095Y-74655571D01*
X144098095Y-75398428D01*
X142798095Y-75398428D01*
X142798095Y-76265095D02*
X142798095Y-76512714D01*
X142860000Y-76636523D01*
X142983809Y-76760333D01*
X143231428Y-76822238D01*
X143664761Y-76822238D01*
X143912380Y-76760333D01*
X144036190Y-76636523D01*
X144098095Y-76512714D01*
X144098095Y-76265095D01*
X144036190Y-76141285D01*
X143912380Y-76017476D01*
X143664761Y-75955571D01*
X143231428Y-75955571D01*
X142983809Y-76017476D01*
X142860000Y-76141285D01*
X142798095Y-76265095D01*
X142921904Y-77317476D02*
X142860000Y-77379380D01*
X142798095Y-77503190D01*
X142798095Y-77812714D01*
X142860000Y-77936523D01*
X142921904Y-77998428D01*
X143045714Y-78060333D01*
X143169523Y-78060333D01*
X143355238Y-77998428D01*
X144098095Y-77255571D01*
X144098095Y-78060333D01*
X143974285Y-80020523D02*
X144036190Y-79958619D01*
X144098095Y-79772904D01*
X144098095Y-79649095D01*
X144036190Y-79463380D01*
X143912380Y-79339571D01*
X143788571Y-79277666D01*
X143540952Y-79215761D01*
X143355238Y-79215761D01*
X143107619Y-79277666D01*
X142983809Y-79339571D01*
X142860000Y-79463380D01*
X142798095Y-79649095D01*
X142798095Y-79772904D01*
X142860000Y-79958619D01*
X142921904Y-80020523D01*
X142798095Y-80825285D02*
X142798095Y-81072904D01*
X142860000Y-81196714D01*
X142983809Y-81320523D01*
X143231428Y-81382428D01*
X143664761Y-81382428D01*
X143912380Y-81320523D01*
X144036190Y-81196714D01*
X144098095Y-81072904D01*
X144098095Y-80825285D01*
X144036190Y-80701476D01*
X143912380Y-80577666D01*
X143664761Y-80515761D01*
X143231428Y-80515761D01*
X142983809Y-80577666D01*
X142860000Y-80701476D01*
X142798095Y-80825285D01*
X144098095Y-81939571D02*
X142798095Y-81939571D01*
X143726666Y-82372904D01*
X142798095Y-82806238D01*
X144098095Y-82806238D01*
X142921904Y-83363380D02*
X142860000Y-83425285D01*
X142798095Y-83549095D01*
X142798095Y-83858619D01*
X142860000Y-83982428D01*
X142921904Y-84044333D01*
X143045714Y-84106238D01*
X143169523Y-84106238D01*
X143355238Y-84044333D01*
X144098095Y-83301476D01*
X144098095Y-84106238D01*
X144098095Y-85227523D02*
X142798095Y-85227523D01*
X144098095Y-85970380D01*
X142798095Y-85970380D01*
X143974285Y-87332285D02*
X144036190Y-87270380D01*
X144098095Y-87084666D01*
X144098095Y-86960857D01*
X144036190Y-86775142D01*
X143912380Y-86651333D01*
X143788571Y-86589428D01*
X143540952Y-86527523D01*
X143355238Y-86527523D01*
X143107619Y-86589428D01*
X142983809Y-86651333D01*
X142860000Y-86775142D01*
X142798095Y-86960857D01*
X142798095Y-87084666D01*
X142860000Y-87270380D01*
X142921904Y-87332285D01*
X142921904Y-87827523D02*
X142860000Y-87889428D01*
X142798095Y-88013238D01*
X142798095Y-88322761D01*
X142860000Y-88446571D01*
X142921904Y-88508476D01*
X143045714Y-88570380D01*
X143169523Y-88570380D01*
X143355238Y-88508476D01*
X144098095Y-87765619D01*
X144098095Y-88570380D01*
X144098095Y-89641571D02*
X142798095Y-89641571D01*
X144098095Y-90384428D01*
X142798095Y-90384428D01*
X142798095Y-91251095D02*
X142798095Y-91498714D01*
X142860000Y-91622523D01*
X142983809Y-91746333D01*
X143231428Y-91808238D01*
X143664761Y-91808238D01*
X143912380Y-91746333D01*
X144036190Y-91622523D01*
X144098095Y-91498714D01*
X144098095Y-91251095D01*
X144036190Y-91127285D01*
X143912380Y-91003476D01*
X143664761Y-90941571D01*
X143231428Y-90941571D01*
X142983809Y-91003476D01*
X142860000Y-91127285D01*
X142798095Y-91251095D01*
X144098095Y-93046333D02*
X144098095Y-92303476D01*
X144098095Y-92674904D02*
X142798095Y-92674904D01*
X142983809Y-92551095D01*
X143107619Y-92427285D01*
X143169523Y-92303476D01*
X143974285Y-95006523D02*
X144036190Y-94944619D01*
X144098095Y-94758904D01*
X144098095Y-94635095D01*
X144036190Y-94449380D01*
X143912380Y-94325571D01*
X143788571Y-94263666D01*
X143540952Y-94201761D01*
X143355238Y-94201761D01*
X143107619Y-94263666D01*
X142983809Y-94325571D01*
X142860000Y-94449380D01*
X142798095Y-94635095D01*
X142798095Y-94758904D01*
X142860000Y-94944619D01*
X142921904Y-95006523D01*
X142798095Y-95811285D02*
X142798095Y-96058904D01*
X142860000Y-96182714D01*
X142983809Y-96306523D01*
X143231428Y-96368428D01*
X143664761Y-96368428D01*
X143912380Y-96306523D01*
X144036190Y-96182714D01*
X144098095Y-96058904D01*
X144098095Y-95811285D01*
X144036190Y-95687476D01*
X143912380Y-95563666D01*
X143664761Y-95501761D01*
X143231428Y-95501761D01*
X142983809Y-95563666D01*
X142860000Y-95687476D01*
X142798095Y-95811285D01*
X144098095Y-96925571D02*
X142798095Y-96925571D01*
X143726666Y-97358904D01*
X142798095Y-97792238D01*
X144098095Y-97792238D01*
X144098095Y-99092238D02*
X144098095Y-98349380D01*
X144098095Y-98720809D02*
X142798095Y-98720809D01*
X142983809Y-98597000D01*
X143107619Y-98473190D01*
X143169523Y-98349380D01*
X144098095Y-100340523D02*
X142798095Y-100340523D01*
X144098095Y-101083380D01*
X142798095Y-101083380D01*
X143974285Y-102445285D02*
X144036190Y-102383380D01*
X144098095Y-102197666D01*
X144098095Y-102073857D01*
X144036190Y-101888142D01*
X143912380Y-101764333D01*
X143788571Y-101702428D01*
X143540952Y-101640523D01*
X143355238Y-101640523D01*
X143107619Y-101702428D01*
X142983809Y-101764333D01*
X142860000Y-101888142D01*
X142798095Y-102073857D01*
X142798095Y-102197666D01*
X142860000Y-102383380D01*
X142921904Y-102445285D01*
X144098095Y-103683380D02*
X144098095Y-102940523D01*
X144098095Y-103311952D02*
X142798095Y-103311952D01*
X142983809Y-103188142D01*
X143107619Y-103064333D01*
X143169523Y-102940523D01*
D13*
X85849142Y-94682333D02*
X85911047Y-94620428D01*
X86034857Y-94434714D01*
X86096761Y-94310904D01*
X86158666Y-94125190D01*
X86220571Y-93815666D01*
X86220571Y-93568047D01*
X86158666Y-93258523D01*
X86096761Y-93072809D01*
X86034857Y-92949000D01*
X85911047Y-92763285D01*
X85849142Y-92701380D01*
X84611047Y-94063285D02*
X84672952Y-94125190D01*
X84858666Y-94187095D01*
X84982476Y-94187095D01*
X85168190Y-94125190D01*
X85292000Y-94001380D01*
X85353904Y-93877571D01*
X85415809Y-93629952D01*
X85415809Y-93444238D01*
X85353904Y-93196619D01*
X85292000Y-93072809D01*
X85168190Y-92949000D01*
X84982476Y-92887095D01*
X84858666Y-92887095D01*
X84672952Y-92949000D01*
X84611047Y-93010904D01*
X84177714Y-94682333D02*
X84115809Y-94620428D01*
X83992000Y-94434714D01*
X83930095Y-94310904D01*
X83868190Y-94125190D01*
X83806285Y-93815666D01*
X83806285Y-93568047D01*
X83868190Y-93258523D01*
X83930095Y-93072809D01*
X83992000Y-92949000D01*
X84115809Y-92763285D01*
X84177714Y-92701380D01*
X82258666Y-93010904D02*
X82196761Y-92949000D01*
X82072952Y-92887095D01*
X81763428Y-92887095D01*
X81639619Y-92949000D01*
X81577714Y-93010904D01*
X81515809Y-93134714D01*
X81515809Y-93258523D01*
X81577714Y-93444238D01*
X82320571Y-94187095D01*
X81515809Y-94187095D01*
X80711047Y-92887095D02*
X80587238Y-92887095D01*
X80463428Y-92949000D01*
X80401523Y-93010904D01*
X80339619Y-93134714D01*
X80277714Y-93382333D01*
X80277714Y-93691857D01*
X80339619Y-93939476D01*
X80401523Y-94063285D01*
X80463428Y-94125190D01*
X80587238Y-94187095D01*
X80711047Y-94187095D01*
X80834857Y-94125190D01*
X80896761Y-94063285D01*
X80958666Y-93939476D01*
X81020571Y-93691857D01*
X81020571Y-93382333D01*
X80958666Y-93134714D01*
X80896761Y-93010904D01*
X80834857Y-92949000D01*
X80711047Y-92887095D01*
X79039619Y-94187095D02*
X79782476Y-94187095D01*
X79411047Y-94187095D02*
X79411047Y-92887095D01*
X79534857Y-93072809D01*
X79658666Y-93196619D01*
X79782476Y-93258523D01*
X77925333Y-92887095D02*
X78172952Y-92887095D01*
X78296761Y-92949000D01*
X78358666Y-93010904D01*
X78482476Y-93196619D01*
X78544380Y-93444238D01*
X78544380Y-93939476D01*
X78482476Y-94063285D01*
X78420571Y-94125190D01*
X78296761Y-94187095D01*
X78049142Y-94187095D01*
X77925333Y-94125190D01*
X77863428Y-94063285D01*
X77801523Y-93939476D01*
X77801523Y-93629952D01*
X77863428Y-93506142D01*
X77925333Y-93444238D01*
X78049142Y-93382333D01*
X78296761Y-93382333D01*
X78420571Y-93444238D01*
X78482476Y-93506142D01*
X78544380Y-93629952D01*
X92051428Y-77885857D02*
X92051428Y-76685857D01*
X91537142Y-77885857D02*
X91537142Y-77257285D01*
X91594285Y-77143000D01*
X91708571Y-77085857D01*
X91880000Y-77085857D01*
X91994285Y-77143000D01*
X92051428Y-77200142D01*
X91137142Y-77085857D02*
X90680000Y-77085857D01*
X90965714Y-76685857D02*
X90965714Y-77714428D01*
X90908571Y-77828714D01*
X90794285Y-77885857D01*
X90680000Y-77885857D01*
X90451428Y-77085857D02*
X89994285Y-77085857D01*
X90280000Y-76685857D02*
X90280000Y-77714428D01*
X90222857Y-77828714D01*
X90108571Y-77885857D01*
X89994285Y-77885857D01*
X89594285Y-77085857D02*
X89594285Y-78285857D01*
X89594285Y-77143000D02*
X89480000Y-77085857D01*
X89251428Y-77085857D01*
X89137142Y-77143000D01*
X89080000Y-77200142D01*
X89022857Y-77314428D01*
X89022857Y-77657285D01*
X89080000Y-77771571D01*
X89137142Y-77828714D01*
X89251428Y-77885857D01*
X89480000Y-77885857D01*
X89594285Y-77828714D01*
X88565714Y-77828714D02*
X88451428Y-77885857D01*
X88222857Y-77885857D01*
X88108571Y-77828714D01*
X88051428Y-77714428D01*
X88051428Y-77657285D01*
X88108571Y-77543000D01*
X88222857Y-77485857D01*
X88394285Y-77485857D01*
X88508571Y-77428714D01*
X88565714Y-77314428D01*
X88565714Y-77257285D01*
X88508571Y-77143000D01*
X88394285Y-77085857D01*
X88222857Y-77085857D01*
X88108571Y-77143000D01*
X87537142Y-77771571D02*
X87480000Y-77828714D01*
X87537142Y-77885857D01*
X87594285Y-77828714D01*
X87537142Y-77771571D01*
X87537142Y-77885857D01*
X87537142Y-77143000D02*
X87480000Y-77200142D01*
X87537142Y-77257285D01*
X87594285Y-77200142D01*
X87537142Y-77143000D01*
X87537142Y-77257285D01*
X86108571Y-76628714D02*
X87137142Y-78171571D01*
X84851428Y-76628714D02*
X85880000Y-78171571D01*
X84565714Y-77085857D02*
X84337142Y-77885857D01*
X84108571Y-77314428D01*
X83880000Y-77885857D01*
X83651428Y-77085857D01*
X83308571Y-77085857D02*
X83080000Y-77885857D01*
X82851428Y-77314428D01*
X82622857Y-77885857D01*
X82394285Y-77085857D01*
X82051428Y-77085857D02*
X81822857Y-77885857D01*
X81594285Y-77314428D01*
X81365714Y-77885857D01*
X81137142Y-77085857D01*
X80680000Y-77771571D02*
X80622857Y-77828714D01*
X80680000Y-77885857D01*
X80737142Y-77828714D01*
X80680000Y-77771571D01*
X80680000Y-77885857D01*
X79937142Y-77885857D02*
X80051428Y-77828714D01*
X80108571Y-77771571D01*
X80165714Y-77657285D01*
X80165714Y-77314428D01*
X80108571Y-77200142D01*
X80051428Y-77143000D01*
X79937142Y-77085857D01*
X79765714Y-77085857D01*
X79651428Y-77143000D01*
X79594285Y-77200142D01*
X79537142Y-77314428D01*
X79537142Y-77657285D01*
X79594285Y-77771571D01*
X79651428Y-77828714D01*
X79765714Y-77885857D01*
X79937142Y-77885857D01*
X78851428Y-77885857D02*
X78965714Y-77828714D01*
X79022857Y-77714428D01*
X79022857Y-76685857D01*
X78394285Y-77885857D02*
X78394285Y-77085857D01*
X78394285Y-76685857D02*
X78451428Y-76743000D01*
X78394285Y-76800142D01*
X78337142Y-76743000D01*
X78394285Y-76685857D01*
X78394285Y-76800142D01*
X77822857Y-77885857D02*
X77822857Y-77085857D01*
X77822857Y-77200142D02*
X77765714Y-77143000D01*
X77651428Y-77085857D01*
X77480000Y-77085857D01*
X77365714Y-77143000D01*
X77308571Y-77257285D01*
X77308571Y-77885857D01*
X77308571Y-77257285D02*
X77251428Y-77143000D01*
X77137142Y-77085857D01*
X76965714Y-77085857D01*
X76851428Y-77143000D01*
X76794285Y-77257285D01*
X76794285Y-77885857D01*
X75765714Y-77828714D02*
X75880000Y-77885857D01*
X76108571Y-77885857D01*
X76222857Y-77828714D01*
X76280000Y-77714428D01*
X76280000Y-77257285D01*
X76222857Y-77143000D01*
X76108571Y-77085857D01*
X75880000Y-77085857D01*
X75765714Y-77143000D01*
X75708571Y-77257285D01*
X75708571Y-77371571D01*
X76280000Y-77485857D01*
X75308571Y-77885857D02*
X74680000Y-77085857D01*
X75308571Y-77085857D02*
X74680000Y-77885857D01*
X74222857Y-77771571D02*
X74165714Y-77828714D01*
X74222857Y-77885857D01*
X74280000Y-77828714D01*
X74222857Y-77771571D01*
X74222857Y-77885857D01*
X73137142Y-77828714D02*
X73251428Y-77885857D01*
X73480000Y-77885857D01*
X73594285Y-77828714D01*
X73651428Y-77771571D01*
X73708571Y-77657285D01*
X73708571Y-77314428D01*
X73651428Y-77200142D01*
X73594285Y-77143000D01*
X73480000Y-77085857D01*
X73251428Y-77085857D01*
X73137142Y-77143000D01*
X72451428Y-77885857D02*
X72565714Y-77828714D01*
X72622857Y-77771571D01*
X72680000Y-77657285D01*
X72680000Y-77314428D01*
X72622857Y-77200142D01*
X72565714Y-77143000D01*
X72451428Y-77085857D01*
X72280000Y-77085857D01*
X72165714Y-77143000D01*
X72108571Y-77200142D01*
X72051428Y-77314428D01*
X72051428Y-77657285D01*
X72108571Y-77771571D01*
X72165714Y-77828714D01*
X72280000Y-77885857D01*
X72451428Y-77885857D01*
X71537142Y-77885857D02*
X71537142Y-77085857D01*
X71537142Y-77200142D02*
X71480000Y-77143000D01*
X71365714Y-77085857D01*
X71194285Y-77085857D01*
X71080000Y-77143000D01*
X71022857Y-77257285D01*
X71022857Y-77885857D01*
X71022857Y-77257285D02*
X70965714Y-77143000D01*
X70851428Y-77085857D01*
X70680000Y-77085857D01*
X70565714Y-77143000D01*
X70508571Y-77257285D01*
X70508571Y-77885857D01*
X133071142Y-108577333D02*
X133071142Y-109567809D01*
X133642571Y-109072571D02*
X132499714Y-109072571D01*
X132142571Y-110805904D02*
X132142571Y-110186857D01*
X132856857Y-110124952D01*
X132785428Y-110186857D01*
X132714000Y-110310666D01*
X132714000Y-110620190D01*
X132785428Y-110744000D01*
X132856857Y-110805904D01*
X132999714Y-110867809D01*
X133356857Y-110867809D01*
X133499714Y-110805904D01*
X133571142Y-110744000D01*
X133642571Y-110620190D01*
X133642571Y-110310666D01*
X133571142Y-110186857D01*
X133499714Y-110124952D01*
X132142571Y-111239238D02*
X133642571Y-111672571D01*
X132142571Y-112105904D01*
X133785428Y-112229714D02*
X133785428Y-113220190D01*
X134692571Y-107927333D02*
X134692571Y-108174952D01*
X134764000Y-108298761D01*
X134906857Y-108422571D01*
X135192571Y-108484476D01*
X135692571Y-108484476D01*
X135978285Y-108422571D01*
X136121142Y-108298761D01*
X136192571Y-108174952D01*
X136192571Y-107927333D01*
X136121142Y-107803523D01*
X135978285Y-107679714D01*
X135692571Y-107617809D01*
X135192571Y-107617809D01*
X134906857Y-107679714D01*
X134764000Y-107803523D01*
X134692571Y-107927333D01*
X136192571Y-109041619D02*
X134692571Y-109041619D01*
X136192571Y-109784476D01*
X134692571Y-109784476D01*
X136192571Y-111022571D02*
X136192571Y-110403523D01*
X134692571Y-110403523D01*
X135478285Y-111703523D02*
X136192571Y-111703523D01*
X134692571Y-111270190D02*
X135478285Y-111703523D01*
X134692571Y-112136857D01*
X136049714Y-112570190D02*
X136121142Y-112632095D01*
X136192571Y-112570190D01*
X136121142Y-112508285D01*
X136049714Y-112570190D01*
X136192571Y-112570190D01*
X135621142Y-112570190D02*
X134764000Y-112508285D01*
X134692571Y-112570190D01*
X134764000Y-112632095D01*
X135621142Y-112570190D01*
X134692571Y-112570190D01*
X136049714Y-113189238D02*
X136121142Y-113251142D01*
X136192571Y-113189238D01*
X136121142Y-113127333D01*
X136049714Y-113189238D01*
X136192571Y-113189238D01*
X135621142Y-113189238D02*
X134764000Y-113127333D01*
X134692571Y-113189238D01*
X134764000Y-113251142D01*
X135621142Y-113189238D01*
X134692571Y-113189238D01*
X136049714Y-113808285D02*
X136121142Y-113870190D01*
X136192571Y-113808285D01*
X136121142Y-113746380D01*
X136049714Y-113808285D01*
X136192571Y-113808285D01*
X135621142Y-113808285D02*
X134764000Y-113746380D01*
X134692571Y-113808285D01*
X134764000Y-113870190D01*
X135621142Y-113808285D01*
X134692571Y-113808285D01*
X142506000Y-109727857D02*
X142434571Y-109870714D01*
X142434571Y-110085000D01*
X142506000Y-110299285D01*
X142648857Y-110442142D01*
X142791714Y-110513571D01*
X143077428Y-110585000D01*
X143291714Y-110585000D01*
X143577428Y-110513571D01*
X143720285Y-110442142D01*
X143863142Y-110299285D01*
X143934571Y-110085000D01*
X143934571Y-109942142D01*
X143863142Y-109727857D01*
X143791714Y-109656428D01*
X143291714Y-109656428D01*
X143291714Y-109942142D01*
X143934571Y-109013571D02*
X142434571Y-109013571D01*
X143934571Y-108156428D01*
X142434571Y-108156428D01*
X143934571Y-107442142D02*
X142434571Y-107442142D01*
X142434571Y-107085000D01*
X142506000Y-106870714D01*
X142648857Y-106727857D01*
X142791714Y-106656428D01*
X143077428Y-106585000D01*
X143291714Y-106585000D01*
X143577428Y-106656428D01*
X143720285Y-106727857D01*
X143863142Y-106870714D01*
X143934571Y-107085000D01*
X143934571Y-107442142D01*
D12*
X143475857Y-115590428D02*
X143475857Y-114599952D01*
X143971095Y-115095190D02*
X142980619Y-115095190D01*
X142671095Y-113361857D02*
X142671095Y-113980904D01*
X143290142Y-114042809D01*
X143228238Y-113980904D01*
X143166333Y-113857095D01*
X143166333Y-113547571D01*
X143228238Y-113423761D01*
X143290142Y-113361857D01*
X143413952Y-113299952D01*
X143723476Y-113299952D01*
X143847285Y-113361857D01*
X143909190Y-113423761D01*
X143971095Y-113547571D01*
X143971095Y-113857095D01*
X143909190Y-113980904D01*
X143847285Y-114042809D01*
X142671095Y-112928523D02*
X143971095Y-112495190D01*
X142671095Y-112061857D01*
D14*
X121332571Y-104956000D02*
X121389714Y-104898857D01*
X121446857Y-104727428D01*
X121446857Y-104613142D01*
X121389714Y-104441714D01*
X121275428Y-104327428D01*
X121161142Y-104270285D01*
X120932571Y-104213142D01*
X120761142Y-104213142D01*
X120532571Y-104270285D01*
X120418285Y-104327428D01*
X120304000Y-104441714D01*
X120246857Y-104613142D01*
X120246857Y-104727428D01*
X120304000Y-104898857D01*
X120361142Y-104956000D01*
X121446857Y-106098857D02*
X121446857Y-105413142D01*
X121446857Y-105756000D02*
X120246857Y-105756000D01*
X120418285Y-105641714D01*
X120532571Y-105527428D01*
X120589714Y-105413142D01*
D12*
X125950806Y-105029000D02*
G75*
G03X125950806Y-105029000I-3141806J0D01*
G01*
D13*
X97202571Y-112097428D02*
X97131142Y-112026000D01*
X96988285Y-111954571D01*
X96631142Y-111954571D01*
X96488285Y-112026000D01*
X96416857Y-112097428D01*
X96345428Y-112240285D01*
X96345428Y-112383142D01*
X96416857Y-112597428D01*
X97274000Y-113454571D01*
X96345428Y-113454571D01*
X96345428Y-115867571D02*
X97202571Y-115867571D01*
X96774000Y-115867571D02*
X96774000Y-114367571D01*
X96916857Y-114581857D01*
X97059714Y-114724714D01*
X97202571Y-114796142D01*
X111078214Y-111718190D02*
X112086071Y-111718190D01*
X112204642Y-111780095D01*
X112263928Y-111842000D01*
X112323214Y-111965809D01*
X112323214Y-112213428D01*
X112263928Y-112337238D01*
X112204642Y-112399142D01*
X112086071Y-112461047D01*
X111078214Y-112461047D01*
X111671071Y-113080095D02*
X111671071Y-113513428D01*
X112323214Y-113699142D02*
X112323214Y-113080095D01*
X111078214Y-113080095D01*
X111078214Y-113699142D01*
X111078214Y-114132476D02*
X112323214Y-114999142D01*
X111078214Y-114999142D02*
X112323214Y-114132476D01*
X111078214Y-115308666D02*
X111078214Y-116051523D01*
X112323214Y-115680095D02*
X111078214Y-115680095D01*
D15*
X94488000Y-74866500D02*
X93895333Y-74866500D01*
X93641333Y-75797833D02*
X94488000Y-75797833D01*
X94488000Y-74019833D01*
X93641333Y-74019833D01*
X92964000Y-75713166D02*
X92710000Y-75797833D01*
X92286666Y-75797833D01*
X92117333Y-75713166D01*
X92032666Y-75628500D01*
X91948000Y-75459166D01*
X91948000Y-75289833D01*
X92032666Y-75120500D01*
X92117333Y-75035833D01*
X92286666Y-74951166D01*
X92625333Y-74866500D01*
X92794666Y-74781833D01*
X92879333Y-74697166D01*
X92964000Y-74527833D01*
X92964000Y-74358500D01*
X92879333Y-74189166D01*
X92794666Y-74104500D01*
X92625333Y-74019833D01*
X92202000Y-74019833D01*
X91948000Y-74104500D01*
X91186000Y-75797833D02*
X91186000Y-74019833D01*
X90508666Y-74019833D01*
X90339333Y-74104500D01*
X90254666Y-74189166D01*
X90170000Y-74358500D01*
X90170000Y-74612500D01*
X90254666Y-74781833D01*
X90339333Y-74866500D01*
X90508666Y-74951166D01*
X91186000Y-74951166D01*
X89577333Y-74019833D02*
X88476666Y-74019833D01*
X89069333Y-74697166D01*
X88815333Y-74697166D01*
X88646000Y-74781833D01*
X88561333Y-74866500D01*
X88476666Y-75035833D01*
X88476666Y-75459166D01*
X88561333Y-75628500D01*
X88646000Y-75713166D01*
X88815333Y-75797833D01*
X89323333Y-75797833D01*
X89492666Y-75713166D01*
X89577333Y-75628500D01*
X87799333Y-74189166D02*
X87714666Y-74104500D01*
X87545333Y-74019833D01*
X87122000Y-74019833D01*
X86952666Y-74104500D01*
X86868000Y-74189166D01*
X86783333Y-74358500D01*
X86783333Y-74527833D01*
X86868000Y-74781833D01*
X87884000Y-75797833D01*
X86783333Y-75797833D01*
X86021333Y-75120500D02*
X84666666Y-75120500D01*
X83820000Y-74866500D02*
X83227333Y-74866500D01*
X82973333Y-75797833D02*
X83820000Y-75797833D01*
X83820000Y-74019833D01*
X82973333Y-74019833D01*
X82465333Y-74019833D02*
X81872666Y-75797833D01*
X81280000Y-74019833D01*
X80094666Y-74866500D02*
X79840666Y-74951166D01*
X79756000Y-75035833D01*
X79671333Y-75205166D01*
X79671333Y-75459166D01*
X79756000Y-75628500D01*
X79840666Y-75713166D01*
X80010000Y-75797833D01*
X80687333Y-75797833D01*
X80687333Y-74019833D01*
X80094666Y-74019833D01*
X79925333Y-74104500D01*
X79840666Y-74189166D01*
X79756000Y-74358500D01*
X79756000Y-74527833D01*
X79840666Y-74697166D01*
X79925333Y-74781833D01*
X80094666Y-74866500D01*
X80687333Y-74866500D01*
X76538666Y-75797833D02*
X77131333Y-74951166D01*
X77554666Y-75797833D02*
X77554666Y-74019833D01*
X76877333Y-74019833D01*
X76708000Y-74104500D01*
X76623333Y-74189166D01*
X76538666Y-74358500D01*
X76538666Y-74612500D01*
X76623333Y-74781833D01*
X76708000Y-74866500D01*
X76877333Y-74951166D01*
X77554666Y-74951166D01*
X75099333Y-75713166D02*
X75268666Y-75797833D01*
X75607333Y-75797833D01*
X75776666Y-75713166D01*
X75861333Y-75543833D01*
X75861333Y-74866500D01*
X75776666Y-74697166D01*
X75607333Y-74612500D01*
X75268666Y-74612500D01*
X75099333Y-74697166D01*
X75014666Y-74866500D01*
X75014666Y-75035833D01*
X75861333Y-75205166D01*
X74422000Y-74612500D02*
X73998666Y-75797833D01*
X73575333Y-74612500D01*
X72898000Y-75628500D02*
X72813333Y-75713166D01*
X72898000Y-75797833D01*
X72982666Y-75713166D01*
X72898000Y-75628500D01*
X72898000Y-75797833D01*
X72136000Y-75289833D02*
X71289333Y-75289833D01*
X72305333Y-75797833D02*
X71712666Y-74019833D01*
X71120000Y-75797833D01*
D12*
X112395000Y-99187000D02*
X112395000Y-110236000D01*
X110363000Y-99187000D02*
X112395000Y-99187000D01*
X110363000Y-101092000D02*
X110363000Y-99187000D01*
D11*
X111607571Y-99904571D02*
X111607571Y-100437904D01*
X111798047Y-99599809D02*
X111988523Y-100171238D01*
X111493285Y-100171238D01*
X111036142Y-99637904D02*
X110959952Y-99637904D01*
X110883761Y-99676000D01*
X110845666Y-99714095D01*
X110807571Y-99790285D01*
X110769476Y-99942666D01*
X110769476Y-100133142D01*
X110807571Y-100285523D01*
X110845666Y-100361714D01*
X110883761Y-100399809D01*
X110959952Y-100437904D01*
X111036142Y-100437904D01*
X111112333Y-100399809D01*
X111150428Y-100361714D01*
X111188523Y-100285523D01*
X111226619Y-100133142D01*
X111226619Y-99942666D01*
X111188523Y-99790285D01*
X111150428Y-99714095D01*
X111112333Y-99676000D01*
X111036142Y-99637904D01*
D16*
X111305571Y-102032714D02*
X111305571Y-102604142D01*
X111591285Y-102318428D02*
X111019857Y-102318428D01*
X110841285Y-103318428D02*
X110841285Y-102961285D01*
X111198428Y-102925571D01*
X111162714Y-102961285D01*
X111127000Y-103032714D01*
X111127000Y-103211285D01*
X111162714Y-103282714D01*
X111198428Y-103318428D01*
X111269857Y-103354142D01*
X111448428Y-103354142D01*
X111519857Y-103318428D01*
X111555571Y-103282714D01*
X111591285Y-103211285D01*
X111591285Y-103032714D01*
X111555571Y-102961285D01*
X111519857Y-102925571D01*
X110841285Y-103568428D02*
X111591285Y-103818428D01*
X110841285Y-104068428D01*
X111305571Y-106858714D02*
X111305571Y-107430142D01*
X111591285Y-107144428D02*
X111019857Y-107144428D01*
X110841285Y-108144428D02*
X110841285Y-107787285D01*
X111198428Y-107751571D01*
X111162714Y-107787285D01*
X111127000Y-107858714D01*
X111127000Y-108037285D01*
X111162714Y-108108714D01*
X111198428Y-108144428D01*
X111269857Y-108180142D01*
X111448428Y-108180142D01*
X111519857Y-108144428D01*
X111555571Y-108108714D01*
X111591285Y-108037285D01*
X111591285Y-107858714D01*
X111555571Y-107787285D01*
X111519857Y-107751571D01*
X110841285Y-108394428D02*
X111591285Y-108644428D01*
X110841285Y-108894428D01*
D12*
X110363000Y-100965000D02*
X110363000Y-110236000D01*
D16*
X109654571Y-101624000D02*
X109654571Y-102195428D01*
X109940285Y-101909714D02*
X109368857Y-101909714D01*
X109190285Y-102481142D02*
X109190285Y-102945428D01*
X109476000Y-102695428D01*
X109476000Y-102802571D01*
X109511714Y-102874000D01*
X109547428Y-102909714D01*
X109618857Y-102945428D01*
X109797428Y-102945428D01*
X109868857Y-102909714D01*
X109904571Y-102874000D01*
X109940285Y-102802571D01*
X109940285Y-102588285D01*
X109904571Y-102516857D01*
X109868857Y-102481142D01*
X109868857Y-103266857D02*
X109904571Y-103302571D01*
X109940285Y-103266857D01*
X109904571Y-103231142D01*
X109868857Y-103266857D01*
X109940285Y-103266857D01*
X109190285Y-103552571D02*
X109190285Y-104016857D01*
X109476000Y-103766857D01*
X109476000Y-103874000D01*
X109511714Y-103945428D01*
X109547428Y-103981142D01*
X109618857Y-104016857D01*
X109797428Y-104016857D01*
X109868857Y-103981142D01*
X109904571Y-103945428D01*
X109940285Y-103874000D01*
X109940285Y-103659714D01*
X109904571Y-103588285D01*
X109868857Y-103552571D01*
X109190285Y-104231142D02*
X109940285Y-104481142D01*
X109190285Y-104731142D01*
X109654571Y-106323000D02*
X109654571Y-106894428D01*
X109940285Y-106608714D02*
X109368857Y-106608714D01*
X109190285Y-107180142D02*
X109190285Y-107644428D01*
X109476000Y-107394428D01*
X109476000Y-107501571D01*
X109511714Y-107573000D01*
X109547428Y-107608714D01*
X109618857Y-107644428D01*
X109797428Y-107644428D01*
X109868857Y-107608714D01*
X109904571Y-107573000D01*
X109940285Y-107501571D01*
X109940285Y-107287285D01*
X109904571Y-107215857D01*
X109868857Y-107180142D01*
X109868857Y-107965857D02*
X109904571Y-108001571D01*
X109940285Y-107965857D01*
X109904571Y-107930142D01*
X109868857Y-107965857D01*
X109940285Y-107965857D01*
X109190285Y-108251571D02*
X109190285Y-108715857D01*
X109476000Y-108465857D01*
X109476000Y-108573000D01*
X109511714Y-108644428D01*
X109547428Y-108680142D01*
X109618857Y-108715857D01*
X109797428Y-108715857D01*
X109868857Y-108680142D01*
X109904571Y-108644428D01*
X109940285Y-108573000D01*
X109940285Y-108358714D01*
X109904571Y-108287285D01*
X109868857Y-108251571D01*
X109190285Y-108930142D02*
X109940285Y-109180142D01*
X109190285Y-109430142D01*
D12*
X108712000Y-100965000D02*
X108712000Y-110236000D01*
D16*
X107575000Y-102679571D02*
X107539285Y-102608142D01*
X107539285Y-102501000D01*
X107575000Y-102393857D01*
X107646428Y-102322428D01*
X107717857Y-102286714D01*
X107860714Y-102251000D01*
X107967857Y-102251000D01*
X108110714Y-102286714D01*
X108182142Y-102322428D01*
X108253571Y-102393857D01*
X108289285Y-102501000D01*
X108289285Y-102572428D01*
X108253571Y-102679571D01*
X108217857Y-102715285D01*
X107967857Y-102715285D01*
X107967857Y-102572428D01*
X108289285Y-103036714D02*
X107539285Y-103036714D01*
X108289285Y-103465285D01*
X107539285Y-103465285D01*
X108289285Y-103822428D02*
X107539285Y-103822428D01*
X107539285Y-104001000D01*
X107575000Y-104108142D01*
X107646428Y-104179571D01*
X107717857Y-104215285D01*
X107860714Y-104251000D01*
X107967857Y-104251000D01*
X108110714Y-104215285D01*
X108182142Y-104179571D01*
X108253571Y-104108142D01*
X108289285Y-104001000D01*
X108289285Y-103822428D01*
X107575000Y-107378571D02*
X107539285Y-107307142D01*
X107539285Y-107200000D01*
X107575000Y-107092857D01*
X107646428Y-107021428D01*
X107717857Y-106985714D01*
X107860714Y-106950000D01*
X107967857Y-106950000D01*
X108110714Y-106985714D01*
X108182142Y-107021428D01*
X108253571Y-107092857D01*
X108289285Y-107200000D01*
X108289285Y-107271428D01*
X108253571Y-107378571D01*
X108217857Y-107414285D01*
X107967857Y-107414285D01*
X107967857Y-107271428D01*
X108289285Y-107735714D02*
X107539285Y-107735714D01*
X108289285Y-108164285D01*
X107539285Y-108164285D01*
X108289285Y-108521428D02*
X107539285Y-108521428D01*
X107539285Y-108700000D01*
X107575000Y-108807142D01*
X107646428Y-108878571D01*
X107717857Y-108914285D01*
X107860714Y-108950000D01*
X107967857Y-108950000D01*
X108110714Y-108914285D01*
X108182142Y-108878571D01*
X108253571Y-108807142D01*
X108289285Y-108700000D01*
X108289285Y-108521428D01*
D12*
X107061000Y-100965000D02*
X107061000Y-110236000D01*
D16*
X106638285Y-102661714D02*
X105888285Y-102661714D01*
X106638285Y-103090285D01*
X105888285Y-103090285D01*
X106566857Y-103876000D02*
X106602571Y-103840285D01*
X106638285Y-103733142D01*
X106638285Y-103661714D01*
X106602571Y-103554571D01*
X106531142Y-103483142D01*
X106459714Y-103447428D01*
X106316857Y-103411714D01*
X106209714Y-103411714D01*
X106066857Y-103447428D01*
X105995428Y-103483142D01*
X105924000Y-103554571D01*
X105888285Y-103661714D01*
X105888285Y-103733142D01*
X105924000Y-103840285D01*
X105959714Y-103876000D01*
X106245428Y-106039285D02*
X106245428Y-106289285D01*
X106638285Y-106396428D02*
X106638285Y-106039285D01*
X105888285Y-106039285D01*
X105888285Y-106396428D01*
X106602571Y-106682142D02*
X106638285Y-106789285D01*
X106638285Y-106967857D01*
X106602571Y-107039285D01*
X106566857Y-107075000D01*
X106495428Y-107110714D01*
X106424000Y-107110714D01*
X106352571Y-107075000D01*
X106316857Y-107039285D01*
X106281142Y-106967857D01*
X106245428Y-106825000D01*
X106209714Y-106753571D01*
X106174000Y-106717857D01*
X106102571Y-106682142D01*
X106031142Y-106682142D01*
X105959714Y-106717857D01*
X105924000Y-106753571D01*
X105888285Y-106825000D01*
X105888285Y-107003571D01*
X105924000Y-107110714D01*
X106638285Y-107432142D02*
X105888285Y-107432142D01*
X105888285Y-107717857D01*
X105924000Y-107789285D01*
X105959714Y-107825000D01*
X106031142Y-107860714D01*
X106138285Y-107860714D01*
X106209714Y-107825000D01*
X106245428Y-107789285D01*
X106281142Y-107717857D01*
X106281142Y-107432142D01*
X106709714Y-108003571D02*
X106709714Y-108575000D01*
X106245428Y-108753571D02*
X106245428Y-109003571D01*
X106638285Y-109110714D02*
X106638285Y-108753571D01*
X105888285Y-108753571D01*
X105888285Y-109110714D01*
X106638285Y-109432142D02*
X105888285Y-109432142D01*
X106638285Y-109860714D01*
X105888285Y-109860714D01*
D12*
X105410000Y-100965000D02*
X105410000Y-110236000D01*
D16*
X104273000Y-102179571D02*
X104237285Y-102108142D01*
X104237285Y-102001000D01*
X104273000Y-101893857D01*
X104344428Y-101822428D01*
X104415857Y-101786714D01*
X104558714Y-101751000D01*
X104665857Y-101751000D01*
X104808714Y-101786714D01*
X104880142Y-101822428D01*
X104951571Y-101893857D01*
X104987285Y-102001000D01*
X104987285Y-102072428D01*
X104951571Y-102179571D01*
X104915857Y-102215285D01*
X104665857Y-102215285D01*
X104665857Y-102072428D01*
X104987285Y-102536714D02*
X104237285Y-102536714D01*
X104237285Y-102822428D01*
X104273000Y-102893857D01*
X104308714Y-102929571D01*
X104380142Y-102965285D01*
X104487285Y-102965285D01*
X104558714Y-102929571D01*
X104594428Y-102893857D01*
X104630142Y-102822428D01*
X104630142Y-102536714D01*
X104987285Y-103286714D02*
X104237285Y-103286714D01*
X104237285Y-103572428D02*
X104237285Y-104036714D01*
X104523000Y-103786714D01*
X104523000Y-103893857D01*
X104558714Y-103965285D01*
X104594428Y-104001000D01*
X104665857Y-104036714D01*
X104844428Y-104036714D01*
X104915857Y-104001000D01*
X104951571Y-103965285D01*
X104987285Y-103893857D01*
X104987285Y-103679571D01*
X104951571Y-103608142D01*
X104915857Y-103572428D01*
X104987285Y-104393857D02*
X104987285Y-104536714D01*
X104951571Y-104608142D01*
X104915857Y-104643857D01*
X104808714Y-104715285D01*
X104665857Y-104751000D01*
X104380142Y-104751000D01*
X104308714Y-104715285D01*
X104273000Y-104679571D01*
X104237285Y-104608142D01*
X104237285Y-104465285D01*
X104273000Y-104393857D01*
X104308714Y-104358142D01*
X104380142Y-104322428D01*
X104558714Y-104322428D01*
X104630142Y-104358142D01*
X104665857Y-104393857D01*
X104701571Y-104465285D01*
X104701571Y-104608142D01*
X104665857Y-104679571D01*
X104630142Y-104715285D01*
X104558714Y-104751000D01*
X104273000Y-106878571D02*
X104237285Y-106807142D01*
X104237285Y-106700000D01*
X104273000Y-106592857D01*
X104344428Y-106521428D01*
X104415857Y-106485714D01*
X104558714Y-106450000D01*
X104665857Y-106450000D01*
X104808714Y-106485714D01*
X104880142Y-106521428D01*
X104951571Y-106592857D01*
X104987285Y-106700000D01*
X104987285Y-106771428D01*
X104951571Y-106878571D01*
X104915857Y-106914285D01*
X104665857Y-106914285D01*
X104665857Y-106771428D01*
X104987285Y-107235714D02*
X104237285Y-107235714D01*
X104237285Y-107521428D01*
X104273000Y-107592857D01*
X104308714Y-107628571D01*
X104380142Y-107664285D01*
X104487285Y-107664285D01*
X104558714Y-107628571D01*
X104594428Y-107592857D01*
X104630142Y-107521428D01*
X104630142Y-107235714D01*
X104987285Y-107985714D02*
X104237285Y-107985714D01*
X104237285Y-108271428D02*
X104237285Y-108735714D01*
X104523000Y-108485714D01*
X104523000Y-108592857D01*
X104558714Y-108664285D01*
X104594428Y-108700000D01*
X104665857Y-108735714D01*
X104844428Y-108735714D01*
X104915857Y-108700000D01*
X104951571Y-108664285D01*
X104987285Y-108592857D01*
X104987285Y-108378571D01*
X104951571Y-108307142D01*
X104915857Y-108271428D01*
X104237285Y-109378571D02*
X104237285Y-109235714D01*
X104273000Y-109164285D01*
X104308714Y-109128571D01*
X104415857Y-109057142D01*
X104558714Y-109021428D01*
X104844428Y-109021428D01*
X104915857Y-109057142D01*
X104951571Y-109092857D01*
X104987285Y-109164285D01*
X104987285Y-109307142D01*
X104951571Y-109378571D01*
X104915857Y-109414285D01*
X104844428Y-109450000D01*
X104665857Y-109450000D01*
X104594428Y-109414285D01*
X104558714Y-109378571D01*
X104523000Y-109307142D01*
X104523000Y-109164285D01*
X104558714Y-109092857D01*
X104594428Y-109057142D01*
X104665857Y-109021428D01*
D12*
X103759000Y-100965000D02*
X103759000Y-110236000D01*
D16*
X102622000Y-102179571D02*
X102586285Y-102108142D01*
X102586285Y-102001000D01*
X102622000Y-101893857D01*
X102693428Y-101822428D01*
X102764857Y-101786714D01*
X102907714Y-101751000D01*
X103014857Y-101751000D01*
X103157714Y-101786714D01*
X103229142Y-101822428D01*
X103300571Y-101893857D01*
X103336285Y-102001000D01*
X103336285Y-102072428D01*
X103300571Y-102179571D01*
X103264857Y-102215285D01*
X103014857Y-102215285D01*
X103014857Y-102072428D01*
X103336285Y-102536714D02*
X102586285Y-102536714D01*
X102586285Y-102822428D01*
X102622000Y-102893857D01*
X102657714Y-102929571D01*
X102729142Y-102965285D01*
X102836285Y-102965285D01*
X102907714Y-102929571D01*
X102943428Y-102893857D01*
X102979142Y-102822428D01*
X102979142Y-102536714D01*
X103336285Y-103286714D02*
X102586285Y-103286714D01*
X102586285Y-103572428D02*
X102586285Y-104036714D01*
X102872000Y-103786714D01*
X102872000Y-103893857D01*
X102907714Y-103965285D01*
X102943428Y-104001000D01*
X103014857Y-104036714D01*
X103193428Y-104036714D01*
X103264857Y-104001000D01*
X103300571Y-103965285D01*
X103336285Y-103893857D01*
X103336285Y-103679571D01*
X103300571Y-103608142D01*
X103264857Y-103572428D01*
X102586285Y-104715285D02*
X102586285Y-104358142D01*
X102943428Y-104322428D01*
X102907714Y-104358142D01*
X102872000Y-104429571D01*
X102872000Y-104608142D01*
X102907714Y-104679571D01*
X102943428Y-104715285D01*
X103014857Y-104751000D01*
X103193428Y-104751000D01*
X103264857Y-104715285D01*
X103300571Y-104679571D01*
X103336285Y-104608142D01*
X103336285Y-104429571D01*
X103300571Y-104358142D01*
X103264857Y-104322428D01*
X102622000Y-106878571D02*
X102586285Y-106807142D01*
X102586285Y-106700000D01*
X102622000Y-106592857D01*
X102693428Y-106521428D01*
X102764857Y-106485714D01*
X102907714Y-106450000D01*
X103014857Y-106450000D01*
X103157714Y-106485714D01*
X103229142Y-106521428D01*
X103300571Y-106592857D01*
X103336285Y-106700000D01*
X103336285Y-106771428D01*
X103300571Y-106878571D01*
X103264857Y-106914285D01*
X103014857Y-106914285D01*
X103014857Y-106771428D01*
X103336285Y-107235714D02*
X102586285Y-107235714D01*
X102586285Y-107521428D01*
X102622000Y-107592857D01*
X102657714Y-107628571D01*
X102729142Y-107664285D01*
X102836285Y-107664285D01*
X102907714Y-107628571D01*
X102943428Y-107592857D01*
X102979142Y-107521428D01*
X102979142Y-107235714D01*
X103336285Y-107985714D02*
X102586285Y-107985714D01*
X102586285Y-108271428D02*
X102586285Y-108735714D01*
X102872000Y-108485714D01*
X102872000Y-108592857D01*
X102907714Y-108664285D01*
X102943428Y-108700000D01*
X103014857Y-108735714D01*
X103193428Y-108735714D01*
X103264857Y-108700000D01*
X103300571Y-108664285D01*
X103336285Y-108592857D01*
X103336285Y-108378571D01*
X103300571Y-108307142D01*
X103264857Y-108271428D01*
X102836285Y-109378571D02*
X103336285Y-109378571D01*
X102550571Y-109200000D02*
X103086285Y-109021428D01*
X103086285Y-109485714D01*
D12*
X102108000Y-100965000D02*
X102108000Y-110236000D01*
D16*
X100971000Y-101786714D02*
X100935285Y-101715285D01*
X100935285Y-101608142D01*
X100971000Y-101501000D01*
X101042428Y-101429571D01*
X101113857Y-101393857D01*
X101256714Y-101358142D01*
X101363857Y-101358142D01*
X101506714Y-101393857D01*
X101578142Y-101429571D01*
X101649571Y-101501000D01*
X101685285Y-101608142D01*
X101685285Y-101679571D01*
X101649571Y-101786714D01*
X101613857Y-101822428D01*
X101363857Y-101822428D01*
X101363857Y-101679571D01*
X101685285Y-102143857D02*
X100935285Y-102143857D01*
X100935285Y-102429571D01*
X100971000Y-102501000D01*
X101006714Y-102536714D01*
X101078142Y-102572428D01*
X101185285Y-102572428D01*
X101256714Y-102536714D01*
X101292428Y-102501000D01*
X101328142Y-102429571D01*
X101328142Y-102143857D01*
X101685285Y-102893857D02*
X100935285Y-102893857D01*
X100935285Y-103393857D02*
X100935285Y-103536714D01*
X100971000Y-103608142D01*
X101042428Y-103679571D01*
X101185285Y-103715285D01*
X101435285Y-103715285D01*
X101578142Y-103679571D01*
X101649571Y-103608142D01*
X101685285Y-103536714D01*
X101685285Y-103393857D01*
X101649571Y-103322428D01*
X101578142Y-103251000D01*
X101435285Y-103215285D01*
X101185285Y-103215285D01*
X101042428Y-103251000D01*
X100971000Y-103322428D01*
X100935285Y-103393857D01*
X100935285Y-103965285D02*
X100935285Y-104429571D01*
X101221000Y-104179571D01*
X101221000Y-104286714D01*
X101256714Y-104358142D01*
X101292428Y-104393857D01*
X101363857Y-104429571D01*
X101542428Y-104429571D01*
X101613857Y-104393857D01*
X101649571Y-104358142D01*
X101685285Y-104286714D01*
X101685285Y-104072428D01*
X101649571Y-104001000D01*
X101613857Y-103965285D01*
X100935285Y-104679571D02*
X100935285Y-105143857D01*
X101221000Y-104893857D01*
X101221000Y-105001000D01*
X101256714Y-105072428D01*
X101292428Y-105108142D01*
X101363857Y-105143857D01*
X101542428Y-105143857D01*
X101613857Y-105108142D01*
X101649571Y-105072428D01*
X101685285Y-105001000D01*
X101685285Y-104786714D01*
X101649571Y-104715285D01*
X101613857Y-104679571D01*
X100971000Y-106485714D02*
X100935285Y-106414285D01*
X100935285Y-106307142D01*
X100971000Y-106200000D01*
X101042428Y-106128571D01*
X101113857Y-106092857D01*
X101256714Y-106057142D01*
X101363857Y-106057142D01*
X101506714Y-106092857D01*
X101578142Y-106128571D01*
X101649571Y-106200000D01*
X101685285Y-106307142D01*
X101685285Y-106378571D01*
X101649571Y-106485714D01*
X101613857Y-106521428D01*
X101363857Y-106521428D01*
X101363857Y-106378571D01*
X101685285Y-106842857D02*
X100935285Y-106842857D01*
X100935285Y-107128571D01*
X100971000Y-107200000D01*
X101006714Y-107235714D01*
X101078142Y-107271428D01*
X101185285Y-107271428D01*
X101256714Y-107235714D01*
X101292428Y-107200000D01*
X101328142Y-107128571D01*
X101328142Y-106842857D01*
X101685285Y-107592857D02*
X100935285Y-107592857D01*
X100935285Y-108092857D02*
X100935285Y-108235714D01*
X100971000Y-108307142D01*
X101042428Y-108378571D01*
X101185285Y-108414285D01*
X101435285Y-108414285D01*
X101578142Y-108378571D01*
X101649571Y-108307142D01*
X101685285Y-108235714D01*
X101685285Y-108092857D01*
X101649571Y-108021428D01*
X101578142Y-107950000D01*
X101435285Y-107914285D01*
X101185285Y-107914285D01*
X101042428Y-107950000D01*
X100971000Y-108021428D01*
X100935285Y-108092857D01*
X100935285Y-108664285D02*
X100935285Y-109128571D01*
X101221000Y-108878571D01*
X101221000Y-108985714D01*
X101256714Y-109057142D01*
X101292428Y-109092857D01*
X101363857Y-109128571D01*
X101542428Y-109128571D01*
X101613857Y-109092857D01*
X101649571Y-109057142D01*
X101685285Y-108985714D01*
X101685285Y-108771428D01*
X101649571Y-108700000D01*
X101613857Y-108664285D01*
X101006714Y-109414285D02*
X100971000Y-109450000D01*
X100935285Y-109521428D01*
X100935285Y-109700000D01*
X100971000Y-109771428D01*
X101006714Y-109807142D01*
X101078142Y-109842857D01*
X101149571Y-109842857D01*
X101256714Y-109807142D01*
X101685285Y-109378571D01*
X101685285Y-109842857D01*
D12*
X100457000Y-100965000D02*
X100457000Y-110236000D01*
D16*
X99320000Y-101786714D02*
X99284285Y-101715285D01*
X99284285Y-101608142D01*
X99320000Y-101501000D01*
X99391428Y-101429571D01*
X99462857Y-101393857D01*
X99605714Y-101358142D01*
X99712857Y-101358142D01*
X99855714Y-101393857D01*
X99927142Y-101429571D01*
X99998571Y-101501000D01*
X100034285Y-101608142D01*
X100034285Y-101679571D01*
X99998571Y-101786714D01*
X99962857Y-101822428D01*
X99712857Y-101822428D01*
X99712857Y-101679571D01*
X100034285Y-102143857D02*
X99284285Y-102143857D01*
X99284285Y-102429571D01*
X99320000Y-102501000D01*
X99355714Y-102536714D01*
X99427142Y-102572428D01*
X99534285Y-102572428D01*
X99605714Y-102536714D01*
X99641428Y-102501000D01*
X99677142Y-102429571D01*
X99677142Y-102143857D01*
X100034285Y-102893857D02*
X99284285Y-102893857D01*
X99284285Y-103393857D02*
X99284285Y-103536714D01*
X99320000Y-103608142D01*
X99391428Y-103679571D01*
X99534285Y-103715285D01*
X99784285Y-103715285D01*
X99927142Y-103679571D01*
X99998571Y-103608142D01*
X100034285Y-103536714D01*
X100034285Y-103393857D01*
X99998571Y-103322428D01*
X99927142Y-103251000D01*
X99784285Y-103215285D01*
X99534285Y-103215285D01*
X99391428Y-103251000D01*
X99320000Y-103322428D01*
X99284285Y-103393857D01*
X99355714Y-104001000D02*
X99320000Y-104036714D01*
X99284285Y-104108142D01*
X99284285Y-104286714D01*
X99320000Y-104358142D01*
X99355714Y-104393857D01*
X99427142Y-104429571D01*
X99498571Y-104429571D01*
X99605714Y-104393857D01*
X100034285Y-103965285D01*
X100034285Y-104429571D01*
X99284285Y-104679571D02*
X99284285Y-105179571D01*
X100034285Y-104858142D01*
X99320000Y-106485714D02*
X99284285Y-106414285D01*
X99284285Y-106307142D01*
X99320000Y-106200000D01*
X99391428Y-106128571D01*
X99462857Y-106092857D01*
X99605714Y-106057142D01*
X99712857Y-106057142D01*
X99855714Y-106092857D01*
X99927142Y-106128571D01*
X99998571Y-106200000D01*
X100034285Y-106307142D01*
X100034285Y-106378571D01*
X99998571Y-106485714D01*
X99962857Y-106521428D01*
X99712857Y-106521428D01*
X99712857Y-106378571D01*
X100034285Y-106842857D02*
X99284285Y-106842857D01*
X99284285Y-107128571D01*
X99320000Y-107200000D01*
X99355714Y-107235714D01*
X99427142Y-107271428D01*
X99534285Y-107271428D01*
X99605714Y-107235714D01*
X99641428Y-107200000D01*
X99677142Y-107128571D01*
X99677142Y-106842857D01*
X100034285Y-107592857D02*
X99284285Y-107592857D01*
X99284285Y-108092857D02*
X99284285Y-108235714D01*
X99320000Y-108307142D01*
X99391428Y-108378571D01*
X99534285Y-108414285D01*
X99784285Y-108414285D01*
X99927142Y-108378571D01*
X99998571Y-108307142D01*
X100034285Y-108235714D01*
X100034285Y-108092857D01*
X99998571Y-108021428D01*
X99927142Y-107950000D01*
X99784285Y-107914285D01*
X99534285Y-107914285D01*
X99391428Y-107950000D01*
X99320000Y-108021428D01*
X99284285Y-108092857D01*
X99355714Y-108700000D02*
X99320000Y-108735714D01*
X99284285Y-108807142D01*
X99284285Y-108985714D01*
X99320000Y-109057142D01*
X99355714Y-109092857D01*
X99427142Y-109128571D01*
X99498571Y-109128571D01*
X99605714Y-109092857D01*
X100034285Y-108664285D01*
X100034285Y-109128571D01*
X99284285Y-109771428D02*
X99284285Y-109628571D01*
X99320000Y-109557142D01*
X99355714Y-109521428D01*
X99462857Y-109450000D01*
X99605714Y-109414285D01*
X99891428Y-109414285D01*
X99962857Y-109450000D01*
X99998571Y-109485714D01*
X100034285Y-109557142D01*
X100034285Y-109700000D01*
X99998571Y-109771428D01*
X99962857Y-109807142D01*
X99891428Y-109842857D01*
X99712857Y-109842857D01*
X99641428Y-109807142D01*
X99605714Y-109771428D01*
X99570000Y-109700000D01*
X99570000Y-109557142D01*
X99605714Y-109485714D01*
X99641428Y-109450000D01*
X99712857Y-109414285D01*
D12*
X98806000Y-100965000D02*
X98806000Y-110236000D01*
X76708000Y-112141000D02*
X78486000Y-112141000D01*
X76708000Y-100965000D02*
X76708000Y-112141000D01*
X78486000Y-100965000D02*
X76708000Y-100965000D01*
D11*
X77958904Y-103784714D02*
X77158904Y-103784714D01*
X77158904Y-104089476D01*
X77197000Y-104165666D01*
X77235095Y-104203761D01*
X77311285Y-104241857D01*
X77425571Y-104241857D01*
X77501761Y-104203761D01*
X77539857Y-104165666D01*
X77577952Y-104089476D01*
X77577952Y-103784714D01*
X77958904Y-104584714D02*
X77158904Y-104584714D01*
X77958904Y-104965666D02*
X77158904Y-104965666D01*
X77958904Y-105422809D01*
X77158904Y-105422809D01*
X77958904Y-106413285D02*
X77158904Y-106413285D01*
X77730333Y-106679952D01*
X77158904Y-106946619D01*
X77958904Y-106946619D01*
X77730333Y-107289476D02*
X77730333Y-107670428D01*
X77958904Y-107213285D02*
X77158904Y-107479952D01*
X77958904Y-107746619D01*
X77958904Y-108013285D02*
X77158904Y-108013285D01*
X77158904Y-108318047D01*
X77197000Y-108394238D01*
X77235095Y-108432333D01*
X77311285Y-108470428D01*
X77425571Y-108470428D01*
X77501761Y-108432333D01*
X77539857Y-108394238D01*
X77577952Y-108318047D01*
X77577952Y-108013285D01*
X77882714Y-108813285D02*
X77920809Y-108851380D01*
X77958904Y-108813285D01*
X77920809Y-108775190D01*
X77882714Y-108813285D01*
X77958904Y-108813285D01*
X77463666Y-108813285D02*
X77501761Y-108851380D01*
X77539857Y-108813285D01*
X77501761Y-108775190D01*
X77463666Y-108813285D01*
X77539857Y-108813285D01*
D16*
X97669000Y-101786714D02*
X97633285Y-101715285D01*
X97633285Y-101608142D01*
X97669000Y-101501000D01*
X97740428Y-101429571D01*
X97811857Y-101393857D01*
X97954714Y-101358142D01*
X98061857Y-101358142D01*
X98204714Y-101393857D01*
X98276142Y-101429571D01*
X98347571Y-101501000D01*
X98383285Y-101608142D01*
X98383285Y-101679571D01*
X98347571Y-101786714D01*
X98311857Y-101822428D01*
X98061857Y-101822428D01*
X98061857Y-101679571D01*
X98383285Y-102143857D02*
X97633285Y-102143857D01*
X97633285Y-102429571D01*
X97669000Y-102501000D01*
X97704714Y-102536714D01*
X97776142Y-102572428D01*
X97883285Y-102572428D01*
X97954714Y-102536714D01*
X97990428Y-102501000D01*
X98026142Y-102429571D01*
X98026142Y-102143857D01*
X98383285Y-102893857D02*
X97633285Y-102893857D01*
X97633285Y-103393857D02*
X97633285Y-103536714D01*
X97669000Y-103608142D01*
X97740428Y-103679571D01*
X97883285Y-103715285D01*
X98133285Y-103715285D01*
X98276142Y-103679571D01*
X98347571Y-103608142D01*
X98383285Y-103536714D01*
X98383285Y-103393857D01*
X98347571Y-103322428D01*
X98276142Y-103251000D01*
X98133285Y-103215285D01*
X97883285Y-103215285D01*
X97740428Y-103251000D01*
X97669000Y-103322428D01*
X97633285Y-103393857D01*
X97704714Y-104001000D02*
X97669000Y-104036714D01*
X97633285Y-104108142D01*
X97633285Y-104286714D01*
X97669000Y-104358142D01*
X97704714Y-104393857D01*
X97776142Y-104429571D01*
X97847571Y-104429571D01*
X97954714Y-104393857D01*
X98383285Y-103965285D01*
X98383285Y-104429571D01*
X97633285Y-105108142D02*
X97633285Y-104751000D01*
X97990428Y-104715285D01*
X97954714Y-104751000D01*
X97919000Y-104822428D01*
X97919000Y-105001000D01*
X97954714Y-105072428D01*
X97990428Y-105108142D01*
X98061857Y-105143857D01*
X98240428Y-105143857D01*
X98311857Y-105108142D01*
X98347571Y-105072428D01*
X98383285Y-105001000D01*
X98383285Y-104822428D01*
X98347571Y-104751000D01*
X98311857Y-104715285D01*
X97669000Y-106485714D02*
X97633285Y-106414285D01*
X97633285Y-106307142D01*
X97669000Y-106200000D01*
X97740428Y-106128571D01*
X97811857Y-106092857D01*
X97954714Y-106057142D01*
X98061857Y-106057142D01*
X98204714Y-106092857D01*
X98276142Y-106128571D01*
X98347571Y-106200000D01*
X98383285Y-106307142D01*
X98383285Y-106378571D01*
X98347571Y-106485714D01*
X98311857Y-106521428D01*
X98061857Y-106521428D01*
X98061857Y-106378571D01*
X98383285Y-106842857D02*
X97633285Y-106842857D01*
X97633285Y-107128571D01*
X97669000Y-107200000D01*
X97704714Y-107235714D01*
X97776142Y-107271428D01*
X97883285Y-107271428D01*
X97954714Y-107235714D01*
X97990428Y-107200000D01*
X98026142Y-107128571D01*
X98026142Y-106842857D01*
X98383285Y-107592857D02*
X97633285Y-107592857D01*
X97633285Y-108092857D02*
X97633285Y-108235714D01*
X97669000Y-108307142D01*
X97740428Y-108378571D01*
X97883285Y-108414285D01*
X98133285Y-108414285D01*
X98276142Y-108378571D01*
X98347571Y-108307142D01*
X98383285Y-108235714D01*
X98383285Y-108092857D01*
X98347571Y-108021428D01*
X98276142Y-107950000D01*
X98133285Y-107914285D01*
X97883285Y-107914285D01*
X97740428Y-107950000D01*
X97669000Y-108021428D01*
X97633285Y-108092857D01*
X97704714Y-108700000D02*
X97669000Y-108735714D01*
X97633285Y-108807142D01*
X97633285Y-108985714D01*
X97669000Y-109057142D01*
X97704714Y-109092857D01*
X97776142Y-109128571D01*
X97847571Y-109128571D01*
X97954714Y-109092857D01*
X98383285Y-108664285D01*
X98383285Y-109128571D01*
X97633285Y-109378571D02*
X97633285Y-109842857D01*
X97919000Y-109592857D01*
X97919000Y-109700000D01*
X97954714Y-109771428D01*
X97990428Y-109807142D01*
X98061857Y-109842857D01*
X98240428Y-109842857D01*
X98311857Y-109807142D01*
X98347571Y-109771428D01*
X98383285Y-109700000D01*
X98383285Y-109485714D01*
X98347571Y-109414285D01*
X98311857Y-109378571D01*
D12*
X97155000Y-100965000D02*
X97155000Y-110236000D01*
D16*
X96018000Y-101786714D02*
X95982285Y-101715285D01*
X95982285Y-101608142D01*
X96018000Y-101501000D01*
X96089428Y-101429571D01*
X96160857Y-101393857D01*
X96303714Y-101358142D01*
X96410857Y-101358142D01*
X96553714Y-101393857D01*
X96625142Y-101429571D01*
X96696571Y-101501000D01*
X96732285Y-101608142D01*
X96732285Y-101679571D01*
X96696571Y-101786714D01*
X96660857Y-101822428D01*
X96410857Y-101822428D01*
X96410857Y-101679571D01*
X96732285Y-102143857D02*
X95982285Y-102143857D01*
X95982285Y-102429571D01*
X96018000Y-102501000D01*
X96053714Y-102536714D01*
X96125142Y-102572428D01*
X96232285Y-102572428D01*
X96303714Y-102536714D01*
X96339428Y-102501000D01*
X96375142Y-102429571D01*
X96375142Y-102143857D01*
X96732285Y-102893857D02*
X95982285Y-102893857D01*
X95982285Y-103393857D02*
X95982285Y-103536714D01*
X96018000Y-103608142D01*
X96089428Y-103679571D01*
X96232285Y-103715285D01*
X96482285Y-103715285D01*
X96625142Y-103679571D01*
X96696571Y-103608142D01*
X96732285Y-103536714D01*
X96732285Y-103393857D01*
X96696571Y-103322428D01*
X96625142Y-103251000D01*
X96482285Y-103215285D01*
X96232285Y-103215285D01*
X96089428Y-103251000D01*
X96018000Y-103322428D01*
X95982285Y-103393857D01*
X96053714Y-104001000D02*
X96018000Y-104036714D01*
X95982285Y-104108142D01*
X95982285Y-104286714D01*
X96018000Y-104358142D01*
X96053714Y-104393857D01*
X96125142Y-104429571D01*
X96196571Y-104429571D01*
X96303714Y-104393857D01*
X96732285Y-103965285D01*
X96732285Y-104429571D01*
X96053714Y-104715285D02*
X96018000Y-104751000D01*
X95982285Y-104822428D01*
X95982285Y-105001000D01*
X96018000Y-105072428D01*
X96053714Y-105108142D01*
X96125142Y-105143857D01*
X96196571Y-105143857D01*
X96303714Y-105108142D01*
X96732285Y-104679571D01*
X96732285Y-105143857D01*
X96018000Y-106485714D02*
X95982285Y-106414285D01*
X95982285Y-106307142D01*
X96018000Y-106200000D01*
X96089428Y-106128571D01*
X96160857Y-106092857D01*
X96303714Y-106057142D01*
X96410857Y-106057142D01*
X96553714Y-106092857D01*
X96625142Y-106128571D01*
X96696571Y-106200000D01*
X96732285Y-106307142D01*
X96732285Y-106378571D01*
X96696571Y-106485714D01*
X96660857Y-106521428D01*
X96410857Y-106521428D01*
X96410857Y-106378571D01*
X96732285Y-106842857D02*
X95982285Y-106842857D01*
X95982285Y-107128571D01*
X96018000Y-107200000D01*
X96053714Y-107235714D01*
X96125142Y-107271428D01*
X96232285Y-107271428D01*
X96303714Y-107235714D01*
X96339428Y-107200000D01*
X96375142Y-107128571D01*
X96375142Y-106842857D01*
X96732285Y-107592857D02*
X95982285Y-107592857D01*
X95982285Y-108092857D02*
X95982285Y-108235714D01*
X96018000Y-108307142D01*
X96089428Y-108378571D01*
X96232285Y-108414285D01*
X96482285Y-108414285D01*
X96625142Y-108378571D01*
X96696571Y-108307142D01*
X96732285Y-108235714D01*
X96732285Y-108092857D01*
X96696571Y-108021428D01*
X96625142Y-107950000D01*
X96482285Y-107914285D01*
X96232285Y-107914285D01*
X96089428Y-107950000D01*
X96018000Y-108021428D01*
X95982285Y-108092857D01*
X96053714Y-108700000D02*
X96018000Y-108735714D01*
X95982285Y-108807142D01*
X95982285Y-108985714D01*
X96018000Y-109057142D01*
X96053714Y-109092857D01*
X96125142Y-109128571D01*
X96196571Y-109128571D01*
X96303714Y-109092857D01*
X96732285Y-108664285D01*
X96732285Y-109128571D01*
X96732285Y-109842857D02*
X96732285Y-109414285D01*
X96732285Y-109628571D02*
X95982285Y-109628571D01*
X96089428Y-109557142D01*
X96160857Y-109485714D01*
X96196571Y-109414285D01*
D12*
X95504000Y-100965000D02*
X95504000Y-110236000D01*
D16*
X94367000Y-101786714D02*
X94331285Y-101715285D01*
X94331285Y-101608142D01*
X94367000Y-101501000D01*
X94438428Y-101429571D01*
X94509857Y-101393857D01*
X94652714Y-101358142D01*
X94759857Y-101358142D01*
X94902714Y-101393857D01*
X94974142Y-101429571D01*
X95045571Y-101501000D01*
X95081285Y-101608142D01*
X95081285Y-101679571D01*
X95045571Y-101786714D01*
X95009857Y-101822428D01*
X94759857Y-101822428D01*
X94759857Y-101679571D01*
X95081285Y-102143857D02*
X94331285Y-102143857D01*
X94331285Y-102429571D01*
X94367000Y-102501000D01*
X94402714Y-102536714D01*
X94474142Y-102572428D01*
X94581285Y-102572428D01*
X94652714Y-102536714D01*
X94688428Y-102501000D01*
X94724142Y-102429571D01*
X94724142Y-102143857D01*
X95081285Y-102893857D02*
X94331285Y-102893857D01*
X94331285Y-103393857D02*
X94331285Y-103536714D01*
X94367000Y-103608142D01*
X94438428Y-103679571D01*
X94581285Y-103715285D01*
X94831285Y-103715285D01*
X94974142Y-103679571D01*
X95045571Y-103608142D01*
X95081285Y-103536714D01*
X95081285Y-103393857D01*
X95045571Y-103322428D01*
X94974142Y-103251000D01*
X94831285Y-103215285D01*
X94581285Y-103215285D01*
X94438428Y-103251000D01*
X94367000Y-103322428D01*
X94331285Y-103393857D01*
X95081285Y-104429571D02*
X95081285Y-104001000D01*
X95081285Y-104215285D02*
X94331285Y-104215285D01*
X94438428Y-104143857D01*
X94509857Y-104072428D01*
X94545571Y-104001000D01*
X95081285Y-104786714D02*
X95081285Y-104929571D01*
X95045571Y-105001000D01*
X95009857Y-105036714D01*
X94902714Y-105108142D01*
X94759857Y-105143857D01*
X94474142Y-105143857D01*
X94402714Y-105108142D01*
X94367000Y-105072428D01*
X94331285Y-105001000D01*
X94331285Y-104858142D01*
X94367000Y-104786714D01*
X94402714Y-104751000D01*
X94474142Y-104715285D01*
X94652714Y-104715285D01*
X94724142Y-104751000D01*
X94759857Y-104786714D01*
X94795571Y-104858142D01*
X94795571Y-105001000D01*
X94759857Y-105072428D01*
X94724142Y-105108142D01*
X94652714Y-105143857D01*
X94367000Y-106358714D02*
X94331285Y-106287285D01*
X94331285Y-106180142D01*
X94367000Y-106073000D01*
X94438428Y-106001571D01*
X94509857Y-105965857D01*
X94652714Y-105930142D01*
X94759857Y-105930142D01*
X94902714Y-105965857D01*
X94974142Y-106001571D01*
X95045571Y-106073000D01*
X95081285Y-106180142D01*
X95081285Y-106251571D01*
X95045571Y-106358714D01*
X95009857Y-106394428D01*
X94759857Y-106394428D01*
X94759857Y-106251571D01*
X95081285Y-106715857D02*
X94331285Y-106715857D01*
X94331285Y-107001571D01*
X94367000Y-107073000D01*
X94402714Y-107108714D01*
X94474142Y-107144428D01*
X94581285Y-107144428D01*
X94652714Y-107108714D01*
X94688428Y-107073000D01*
X94724142Y-107001571D01*
X94724142Y-106715857D01*
X95081285Y-107465857D02*
X94331285Y-107465857D01*
X94331285Y-107965857D02*
X94331285Y-108108714D01*
X94367000Y-108180142D01*
X94438428Y-108251571D01*
X94581285Y-108287285D01*
X94831285Y-108287285D01*
X94974142Y-108251571D01*
X95045571Y-108180142D01*
X95081285Y-108108714D01*
X95081285Y-107965857D01*
X95045571Y-107894428D01*
X94974142Y-107823000D01*
X94831285Y-107787285D01*
X94581285Y-107787285D01*
X94438428Y-107823000D01*
X94367000Y-107894428D01*
X94331285Y-107965857D01*
X95081285Y-109001571D02*
X95081285Y-108573000D01*
X95081285Y-108787285D02*
X94331285Y-108787285D01*
X94438428Y-108715857D01*
X94509857Y-108644428D01*
X94545571Y-108573000D01*
X94652714Y-109430142D02*
X94617000Y-109358714D01*
X94581285Y-109323000D01*
X94509857Y-109287285D01*
X94474142Y-109287285D01*
X94402714Y-109323000D01*
X94367000Y-109358714D01*
X94331285Y-109430142D01*
X94331285Y-109573000D01*
X94367000Y-109644428D01*
X94402714Y-109680142D01*
X94474142Y-109715857D01*
X94509857Y-109715857D01*
X94581285Y-109680142D01*
X94617000Y-109644428D01*
X94652714Y-109573000D01*
X94652714Y-109430142D01*
X94688428Y-109358714D01*
X94724142Y-109323000D01*
X94795571Y-109287285D01*
X94938428Y-109287285D01*
X95009857Y-109323000D01*
X95045571Y-109358714D01*
X95081285Y-109430142D01*
X95081285Y-109573000D01*
X95045571Y-109644428D01*
X95009857Y-109680142D01*
X94938428Y-109715857D01*
X94795571Y-109715857D01*
X94724142Y-109680142D01*
X94688428Y-109644428D01*
X94652714Y-109573000D01*
D12*
X93853000Y-100965000D02*
X93853000Y-110236000D01*
D16*
X92716000Y-101786714D02*
X92680285Y-101715285D01*
X92680285Y-101608142D01*
X92716000Y-101501000D01*
X92787428Y-101429571D01*
X92858857Y-101393857D01*
X93001714Y-101358142D01*
X93108857Y-101358142D01*
X93251714Y-101393857D01*
X93323142Y-101429571D01*
X93394571Y-101501000D01*
X93430285Y-101608142D01*
X93430285Y-101679571D01*
X93394571Y-101786714D01*
X93358857Y-101822428D01*
X93108857Y-101822428D01*
X93108857Y-101679571D01*
X93430285Y-102143857D02*
X92680285Y-102143857D01*
X92680285Y-102429571D01*
X92716000Y-102501000D01*
X92751714Y-102536714D01*
X92823142Y-102572428D01*
X92930285Y-102572428D01*
X93001714Y-102536714D01*
X93037428Y-102501000D01*
X93073142Y-102429571D01*
X93073142Y-102143857D01*
X93430285Y-102893857D02*
X92680285Y-102893857D01*
X92680285Y-103393857D02*
X92680285Y-103536714D01*
X92716000Y-103608142D01*
X92787428Y-103679571D01*
X92930285Y-103715285D01*
X93180285Y-103715285D01*
X93323142Y-103679571D01*
X93394571Y-103608142D01*
X93430285Y-103536714D01*
X93430285Y-103393857D01*
X93394571Y-103322428D01*
X93323142Y-103251000D01*
X93180285Y-103215285D01*
X92930285Y-103215285D01*
X92787428Y-103251000D01*
X92716000Y-103322428D01*
X92680285Y-103393857D01*
X93430285Y-104429571D02*
X93430285Y-104001000D01*
X93430285Y-104215285D02*
X92680285Y-104215285D01*
X92787428Y-104143857D01*
X92858857Y-104072428D01*
X92894571Y-104001000D01*
X92680285Y-104679571D02*
X92680285Y-105179571D01*
X93430285Y-104858142D01*
X92716000Y-106358714D02*
X92680285Y-106287285D01*
X92680285Y-106180142D01*
X92716000Y-106073000D01*
X92787428Y-106001571D01*
X92858857Y-105965857D01*
X93001714Y-105930142D01*
X93108857Y-105930142D01*
X93251714Y-105965857D01*
X93323142Y-106001571D01*
X93394571Y-106073000D01*
X93430285Y-106180142D01*
X93430285Y-106251571D01*
X93394571Y-106358714D01*
X93358857Y-106394428D01*
X93108857Y-106394428D01*
X93108857Y-106251571D01*
X93430285Y-106715857D02*
X92680285Y-106715857D01*
X92680285Y-107001571D01*
X92716000Y-107073000D01*
X92751714Y-107108714D01*
X92823142Y-107144428D01*
X92930285Y-107144428D01*
X93001714Y-107108714D01*
X93037428Y-107073000D01*
X93073142Y-107001571D01*
X93073142Y-106715857D01*
X93430285Y-107465857D02*
X92680285Y-107465857D01*
X92680285Y-107965857D02*
X92680285Y-108108714D01*
X92716000Y-108180142D01*
X92787428Y-108251571D01*
X92930285Y-108287285D01*
X93180285Y-108287285D01*
X93323142Y-108251571D01*
X93394571Y-108180142D01*
X93430285Y-108108714D01*
X93430285Y-107965857D01*
X93394571Y-107894428D01*
X93323142Y-107823000D01*
X93180285Y-107787285D01*
X92930285Y-107787285D01*
X92787428Y-107823000D01*
X92716000Y-107894428D01*
X92680285Y-107965857D01*
X93430285Y-109001571D02*
X93430285Y-108573000D01*
X93430285Y-108787285D02*
X92680285Y-108787285D01*
X92787428Y-108715857D01*
X92858857Y-108644428D01*
X92894571Y-108573000D01*
X92680285Y-109644428D02*
X92680285Y-109501571D01*
X92716000Y-109430142D01*
X92751714Y-109394428D01*
X92858857Y-109323000D01*
X93001714Y-109287285D01*
X93287428Y-109287285D01*
X93358857Y-109323000D01*
X93394571Y-109358714D01*
X93430285Y-109430142D01*
X93430285Y-109573000D01*
X93394571Y-109644428D01*
X93358857Y-109680142D01*
X93287428Y-109715857D01*
X93108857Y-109715857D01*
X93037428Y-109680142D01*
X93001714Y-109644428D01*
X92966000Y-109573000D01*
X92966000Y-109430142D01*
X93001714Y-109358714D01*
X93037428Y-109323000D01*
X93108857Y-109287285D01*
D12*
X92202000Y-100965000D02*
X92202000Y-110236000D01*
D16*
X91065000Y-101786714D02*
X91029285Y-101715285D01*
X91029285Y-101608142D01*
X91065000Y-101501000D01*
X91136428Y-101429571D01*
X91207857Y-101393857D01*
X91350714Y-101358142D01*
X91457857Y-101358142D01*
X91600714Y-101393857D01*
X91672142Y-101429571D01*
X91743571Y-101501000D01*
X91779285Y-101608142D01*
X91779285Y-101679571D01*
X91743571Y-101786714D01*
X91707857Y-101822428D01*
X91457857Y-101822428D01*
X91457857Y-101679571D01*
X91779285Y-102143857D02*
X91029285Y-102143857D01*
X91029285Y-102429571D01*
X91065000Y-102501000D01*
X91100714Y-102536714D01*
X91172142Y-102572428D01*
X91279285Y-102572428D01*
X91350714Y-102536714D01*
X91386428Y-102501000D01*
X91422142Y-102429571D01*
X91422142Y-102143857D01*
X91779285Y-102893857D02*
X91029285Y-102893857D01*
X91029285Y-103393857D02*
X91029285Y-103536714D01*
X91065000Y-103608142D01*
X91136428Y-103679571D01*
X91279285Y-103715285D01*
X91529285Y-103715285D01*
X91672142Y-103679571D01*
X91743571Y-103608142D01*
X91779285Y-103536714D01*
X91779285Y-103393857D01*
X91743571Y-103322428D01*
X91672142Y-103251000D01*
X91529285Y-103215285D01*
X91279285Y-103215285D01*
X91136428Y-103251000D01*
X91065000Y-103322428D01*
X91029285Y-103393857D01*
X91779285Y-104429571D02*
X91779285Y-104001000D01*
X91779285Y-104215285D02*
X91029285Y-104215285D01*
X91136428Y-104143857D01*
X91207857Y-104072428D01*
X91243571Y-104001000D01*
X91029285Y-105108142D02*
X91029285Y-104751000D01*
X91386428Y-104715285D01*
X91350714Y-104751000D01*
X91315000Y-104822428D01*
X91315000Y-105001000D01*
X91350714Y-105072428D01*
X91386428Y-105108142D01*
X91457857Y-105143857D01*
X91636428Y-105143857D01*
X91707857Y-105108142D01*
X91743571Y-105072428D01*
X91779285Y-105001000D01*
X91779285Y-104822428D01*
X91743571Y-104751000D01*
X91707857Y-104715285D01*
X91065000Y-106358714D02*
X91029285Y-106287285D01*
X91029285Y-106180142D01*
X91065000Y-106073000D01*
X91136428Y-106001571D01*
X91207857Y-105965857D01*
X91350714Y-105930142D01*
X91457857Y-105930142D01*
X91600714Y-105965857D01*
X91672142Y-106001571D01*
X91743571Y-106073000D01*
X91779285Y-106180142D01*
X91779285Y-106251571D01*
X91743571Y-106358714D01*
X91707857Y-106394428D01*
X91457857Y-106394428D01*
X91457857Y-106251571D01*
X91779285Y-106715857D02*
X91029285Y-106715857D01*
X91029285Y-107001571D01*
X91065000Y-107073000D01*
X91100714Y-107108714D01*
X91172142Y-107144428D01*
X91279285Y-107144428D01*
X91350714Y-107108714D01*
X91386428Y-107073000D01*
X91422142Y-107001571D01*
X91422142Y-106715857D01*
X91779285Y-107465857D02*
X91029285Y-107465857D01*
X91029285Y-107965857D02*
X91029285Y-108108714D01*
X91065000Y-108180142D01*
X91136428Y-108251571D01*
X91279285Y-108287285D01*
X91529285Y-108287285D01*
X91672142Y-108251571D01*
X91743571Y-108180142D01*
X91779285Y-108108714D01*
X91779285Y-107965857D01*
X91743571Y-107894428D01*
X91672142Y-107823000D01*
X91529285Y-107787285D01*
X91279285Y-107787285D01*
X91136428Y-107823000D01*
X91065000Y-107894428D01*
X91029285Y-107965857D01*
X91779285Y-109001571D02*
X91779285Y-108573000D01*
X91779285Y-108787285D02*
X91029285Y-108787285D01*
X91136428Y-108715857D01*
X91207857Y-108644428D01*
X91243571Y-108573000D01*
X91279285Y-109644428D02*
X91779285Y-109644428D01*
X90993571Y-109465857D02*
X91529285Y-109287285D01*
X91529285Y-109751571D01*
D12*
X90551000Y-101092000D02*
X90551000Y-110236000D01*
X88900000Y-100965000D02*
X88900000Y-110236000D01*
X87249000Y-100965000D02*
X87249000Y-110236000D01*
X85471000Y-100965000D02*
X85471000Y-110236000D01*
X83820000Y-100965000D02*
X83820000Y-110236000D01*
X82042000Y-100965000D02*
X82042000Y-110236000D01*
X80391000Y-100965000D02*
X80391000Y-112141000D01*
X78486000Y-100965000D02*
X78486000Y-112141000D01*
D16*
X89414000Y-101786714D02*
X89378285Y-101715285D01*
X89378285Y-101608142D01*
X89414000Y-101501000D01*
X89485428Y-101429571D01*
X89556857Y-101393857D01*
X89699714Y-101358142D01*
X89806857Y-101358142D01*
X89949714Y-101393857D01*
X90021142Y-101429571D01*
X90092571Y-101501000D01*
X90128285Y-101608142D01*
X90128285Y-101679571D01*
X90092571Y-101786714D01*
X90056857Y-101822428D01*
X89806857Y-101822428D01*
X89806857Y-101679571D01*
X90128285Y-102143857D02*
X89378285Y-102143857D01*
X89378285Y-102429571D01*
X89414000Y-102501000D01*
X89449714Y-102536714D01*
X89521142Y-102572428D01*
X89628285Y-102572428D01*
X89699714Y-102536714D01*
X89735428Y-102501000D01*
X89771142Y-102429571D01*
X89771142Y-102143857D01*
X90128285Y-102893857D02*
X89378285Y-102893857D01*
X89378285Y-103393857D02*
X89378285Y-103536714D01*
X89414000Y-103608142D01*
X89485428Y-103679571D01*
X89628285Y-103715285D01*
X89878285Y-103715285D01*
X90021142Y-103679571D01*
X90092571Y-103608142D01*
X90128285Y-103536714D01*
X90128285Y-103393857D01*
X90092571Y-103322428D01*
X90021142Y-103251000D01*
X89878285Y-103215285D01*
X89628285Y-103215285D01*
X89485428Y-103251000D01*
X89414000Y-103322428D01*
X89378285Y-103393857D01*
X90128285Y-104429571D02*
X90128285Y-104001000D01*
X90128285Y-104215285D02*
X89378285Y-104215285D01*
X89485428Y-104143857D01*
X89556857Y-104072428D01*
X89592571Y-104001000D01*
X89378285Y-104679571D02*
X89378285Y-105143857D01*
X89664000Y-104893857D01*
X89664000Y-105001000D01*
X89699714Y-105072428D01*
X89735428Y-105108142D01*
X89806857Y-105143857D01*
X89985428Y-105143857D01*
X90056857Y-105108142D01*
X90092571Y-105072428D01*
X90128285Y-105001000D01*
X90128285Y-104786714D01*
X90092571Y-104715285D01*
X90056857Y-104679571D01*
X89414000Y-106358714D02*
X89378285Y-106287285D01*
X89378285Y-106180142D01*
X89414000Y-106073000D01*
X89485428Y-106001571D01*
X89556857Y-105965857D01*
X89699714Y-105930142D01*
X89806857Y-105930142D01*
X89949714Y-105965857D01*
X90021142Y-106001571D01*
X90092571Y-106073000D01*
X90128285Y-106180142D01*
X90128285Y-106251571D01*
X90092571Y-106358714D01*
X90056857Y-106394428D01*
X89806857Y-106394428D01*
X89806857Y-106251571D01*
X90128285Y-106715857D02*
X89378285Y-106715857D01*
X89378285Y-107001571D01*
X89414000Y-107073000D01*
X89449714Y-107108714D01*
X89521142Y-107144428D01*
X89628285Y-107144428D01*
X89699714Y-107108714D01*
X89735428Y-107073000D01*
X89771142Y-107001571D01*
X89771142Y-106715857D01*
X90128285Y-107465857D02*
X89378285Y-107465857D01*
X89378285Y-107965857D02*
X89378285Y-108108714D01*
X89414000Y-108180142D01*
X89485428Y-108251571D01*
X89628285Y-108287285D01*
X89878285Y-108287285D01*
X90021142Y-108251571D01*
X90092571Y-108180142D01*
X90128285Y-108108714D01*
X90128285Y-107965857D01*
X90092571Y-107894428D01*
X90021142Y-107823000D01*
X89878285Y-107787285D01*
X89628285Y-107787285D01*
X89485428Y-107823000D01*
X89414000Y-107894428D01*
X89378285Y-107965857D01*
X90128285Y-109001571D02*
X90128285Y-108573000D01*
X90128285Y-108787285D02*
X89378285Y-108787285D01*
X89485428Y-108715857D01*
X89556857Y-108644428D01*
X89592571Y-108573000D01*
X89449714Y-109287285D02*
X89414000Y-109323000D01*
X89378285Y-109394428D01*
X89378285Y-109573000D01*
X89414000Y-109644428D01*
X89449714Y-109680142D01*
X89521142Y-109715857D01*
X89592571Y-109715857D01*
X89699714Y-109680142D01*
X90128285Y-109251571D01*
X90128285Y-109715857D01*
X87763000Y-101786714D02*
X87727285Y-101715285D01*
X87727285Y-101608142D01*
X87763000Y-101501000D01*
X87834428Y-101429571D01*
X87905857Y-101393857D01*
X88048714Y-101358142D01*
X88155857Y-101358142D01*
X88298714Y-101393857D01*
X88370142Y-101429571D01*
X88441571Y-101501000D01*
X88477285Y-101608142D01*
X88477285Y-101679571D01*
X88441571Y-101786714D01*
X88405857Y-101822428D01*
X88155857Y-101822428D01*
X88155857Y-101679571D01*
X88477285Y-102143857D02*
X87727285Y-102143857D01*
X87727285Y-102429571D01*
X87763000Y-102501000D01*
X87798714Y-102536714D01*
X87870142Y-102572428D01*
X87977285Y-102572428D01*
X88048714Y-102536714D01*
X88084428Y-102501000D01*
X88120142Y-102429571D01*
X88120142Y-102143857D01*
X88477285Y-102893857D02*
X87727285Y-102893857D01*
X87727285Y-103393857D02*
X87727285Y-103536714D01*
X87763000Y-103608142D01*
X87834428Y-103679571D01*
X87977285Y-103715285D01*
X88227285Y-103715285D01*
X88370142Y-103679571D01*
X88441571Y-103608142D01*
X88477285Y-103536714D01*
X88477285Y-103393857D01*
X88441571Y-103322428D01*
X88370142Y-103251000D01*
X88227285Y-103215285D01*
X87977285Y-103215285D01*
X87834428Y-103251000D01*
X87763000Y-103322428D01*
X87727285Y-103393857D01*
X88477285Y-104429571D02*
X88477285Y-104001000D01*
X88477285Y-104215285D02*
X87727285Y-104215285D01*
X87834428Y-104143857D01*
X87905857Y-104072428D01*
X87941571Y-104001000D01*
X88477285Y-105143857D02*
X88477285Y-104715285D01*
X88477285Y-104929571D02*
X87727285Y-104929571D01*
X87834428Y-104858142D01*
X87905857Y-104786714D01*
X87941571Y-104715285D01*
X87763000Y-106358714D02*
X87727285Y-106287285D01*
X87727285Y-106180142D01*
X87763000Y-106073000D01*
X87834428Y-106001571D01*
X87905857Y-105965857D01*
X88048714Y-105930142D01*
X88155857Y-105930142D01*
X88298714Y-105965857D01*
X88370142Y-106001571D01*
X88441571Y-106073000D01*
X88477285Y-106180142D01*
X88477285Y-106251571D01*
X88441571Y-106358714D01*
X88405857Y-106394428D01*
X88155857Y-106394428D01*
X88155857Y-106251571D01*
X88477285Y-106715857D02*
X87727285Y-106715857D01*
X87727285Y-107001571D01*
X87763000Y-107073000D01*
X87798714Y-107108714D01*
X87870142Y-107144428D01*
X87977285Y-107144428D01*
X88048714Y-107108714D01*
X88084428Y-107073000D01*
X88120142Y-107001571D01*
X88120142Y-106715857D01*
X88477285Y-107465857D02*
X87727285Y-107465857D01*
X87727285Y-107965857D02*
X87727285Y-108108714D01*
X87763000Y-108180142D01*
X87834428Y-108251571D01*
X87977285Y-108287285D01*
X88227285Y-108287285D01*
X88370142Y-108251571D01*
X88441571Y-108180142D01*
X88477285Y-108108714D01*
X88477285Y-107965857D01*
X88441571Y-107894428D01*
X88370142Y-107823000D01*
X88227285Y-107787285D01*
X87977285Y-107787285D01*
X87834428Y-107823000D01*
X87763000Y-107894428D01*
X87727285Y-107965857D01*
X88477285Y-109001571D02*
X88477285Y-108573000D01*
X88477285Y-108787285D02*
X87727285Y-108787285D01*
X87834428Y-108715857D01*
X87905857Y-108644428D01*
X87941571Y-108573000D01*
X87727285Y-109465857D02*
X87727285Y-109537285D01*
X87763000Y-109608714D01*
X87798714Y-109644428D01*
X87870142Y-109680142D01*
X88013000Y-109715857D01*
X88191571Y-109715857D01*
X88334428Y-109680142D01*
X88405857Y-109644428D01*
X88441571Y-109608714D01*
X88477285Y-109537285D01*
X88477285Y-109465857D01*
X88441571Y-109394428D01*
X88405857Y-109358714D01*
X88334428Y-109323000D01*
X88191571Y-109287285D01*
X88013000Y-109287285D01*
X87870142Y-109323000D01*
X87798714Y-109358714D01*
X87763000Y-109394428D01*
X87727285Y-109465857D01*
D11*
X85960000Y-102070047D02*
X85921904Y-101993857D01*
X85921904Y-101879571D01*
X85960000Y-101765285D01*
X86036190Y-101689095D01*
X86112380Y-101651000D01*
X86264761Y-101612904D01*
X86379047Y-101612904D01*
X86531428Y-101651000D01*
X86607619Y-101689095D01*
X86683809Y-101765285D01*
X86721904Y-101879571D01*
X86721904Y-101955761D01*
X86683809Y-102070047D01*
X86645714Y-102108142D01*
X86379047Y-102108142D01*
X86379047Y-101955761D01*
X86721904Y-102451000D02*
X85921904Y-102451000D01*
X85921904Y-102755761D01*
X85960000Y-102831952D01*
X85998095Y-102870047D01*
X86074285Y-102908142D01*
X86188571Y-102908142D01*
X86264761Y-102870047D01*
X86302857Y-102831952D01*
X86340952Y-102755761D01*
X86340952Y-102451000D01*
X86721904Y-103251000D02*
X85921904Y-103251000D01*
X85921904Y-103784333D02*
X85921904Y-103936714D01*
X85960000Y-104012904D01*
X86036190Y-104089095D01*
X86188571Y-104127190D01*
X86455238Y-104127190D01*
X86607619Y-104089095D01*
X86683809Y-104012904D01*
X86721904Y-103936714D01*
X86721904Y-103784333D01*
X86683809Y-103708142D01*
X86607619Y-103631952D01*
X86455238Y-103593857D01*
X86188571Y-103593857D01*
X86036190Y-103631952D01*
X85960000Y-103708142D01*
X85921904Y-103784333D01*
X86721904Y-104508142D02*
X86721904Y-104660523D01*
X86683809Y-104736714D01*
X86645714Y-104774809D01*
X86531428Y-104851000D01*
X86379047Y-104889095D01*
X86074285Y-104889095D01*
X85998095Y-104851000D01*
X85960000Y-104812904D01*
X85921904Y-104736714D01*
X85921904Y-104584333D01*
X85960000Y-104508142D01*
X85998095Y-104470047D01*
X86074285Y-104431952D01*
X86264761Y-104431952D01*
X86340952Y-104470047D01*
X86379047Y-104508142D01*
X86417142Y-104584333D01*
X86417142Y-104736714D01*
X86379047Y-104812904D01*
X86340952Y-104851000D01*
X86264761Y-104889095D01*
X85960000Y-106515047D02*
X85921904Y-106438857D01*
X85921904Y-106324571D01*
X85960000Y-106210285D01*
X86036190Y-106134095D01*
X86112380Y-106096000D01*
X86264761Y-106057904D01*
X86379047Y-106057904D01*
X86531428Y-106096000D01*
X86607619Y-106134095D01*
X86683809Y-106210285D01*
X86721904Y-106324571D01*
X86721904Y-106400761D01*
X86683809Y-106515047D01*
X86645714Y-106553142D01*
X86379047Y-106553142D01*
X86379047Y-106400761D01*
X86721904Y-106896000D02*
X85921904Y-106896000D01*
X85921904Y-107200761D01*
X85960000Y-107276952D01*
X85998095Y-107315047D01*
X86074285Y-107353142D01*
X86188571Y-107353142D01*
X86264761Y-107315047D01*
X86302857Y-107276952D01*
X86340952Y-107200761D01*
X86340952Y-106896000D01*
X86721904Y-107696000D02*
X85921904Y-107696000D01*
X85921904Y-108229333D02*
X85921904Y-108381714D01*
X85960000Y-108457904D01*
X86036190Y-108534095D01*
X86188571Y-108572190D01*
X86455238Y-108572190D01*
X86607619Y-108534095D01*
X86683809Y-108457904D01*
X86721904Y-108381714D01*
X86721904Y-108229333D01*
X86683809Y-108153142D01*
X86607619Y-108076952D01*
X86455238Y-108038857D01*
X86188571Y-108038857D01*
X86036190Y-108076952D01*
X85960000Y-108153142D01*
X85921904Y-108229333D01*
X86264761Y-109029333D02*
X86226666Y-108953142D01*
X86188571Y-108915047D01*
X86112380Y-108876952D01*
X86074285Y-108876952D01*
X85998095Y-108915047D01*
X85960000Y-108953142D01*
X85921904Y-109029333D01*
X85921904Y-109181714D01*
X85960000Y-109257904D01*
X85998095Y-109296000D01*
X86074285Y-109334095D01*
X86112380Y-109334095D01*
X86188571Y-109296000D01*
X86226666Y-109257904D01*
X86264761Y-109181714D01*
X86264761Y-109029333D01*
X86302857Y-108953142D01*
X86340952Y-108915047D01*
X86417142Y-108876952D01*
X86569523Y-108876952D01*
X86645714Y-108915047D01*
X86683809Y-108953142D01*
X86721904Y-109029333D01*
X86721904Y-109181714D01*
X86683809Y-109257904D01*
X86645714Y-109296000D01*
X86569523Y-109334095D01*
X86417142Y-109334095D01*
X86340952Y-109296000D01*
X86302857Y-109257904D01*
X86264761Y-109181714D01*
X84309000Y-102070047D02*
X84270904Y-101993857D01*
X84270904Y-101879571D01*
X84309000Y-101765285D01*
X84385190Y-101689095D01*
X84461380Y-101651000D01*
X84613761Y-101612904D01*
X84728047Y-101612904D01*
X84880428Y-101651000D01*
X84956619Y-101689095D01*
X85032809Y-101765285D01*
X85070904Y-101879571D01*
X85070904Y-101955761D01*
X85032809Y-102070047D01*
X84994714Y-102108142D01*
X84728047Y-102108142D01*
X84728047Y-101955761D01*
X85070904Y-102451000D02*
X84270904Y-102451000D01*
X84270904Y-102755761D01*
X84309000Y-102831952D01*
X84347095Y-102870047D01*
X84423285Y-102908142D01*
X84537571Y-102908142D01*
X84613761Y-102870047D01*
X84651857Y-102831952D01*
X84689952Y-102755761D01*
X84689952Y-102451000D01*
X85070904Y-103251000D02*
X84270904Y-103251000D01*
X84270904Y-103784333D02*
X84270904Y-103936714D01*
X84309000Y-104012904D01*
X84385190Y-104089095D01*
X84537571Y-104127190D01*
X84804238Y-104127190D01*
X84956619Y-104089095D01*
X85032809Y-104012904D01*
X85070904Y-103936714D01*
X85070904Y-103784333D01*
X85032809Y-103708142D01*
X84956619Y-103631952D01*
X84804238Y-103593857D01*
X84537571Y-103593857D01*
X84385190Y-103631952D01*
X84309000Y-103708142D01*
X84270904Y-103784333D01*
X84270904Y-104393857D02*
X84270904Y-104927190D01*
X85070904Y-104584333D01*
X84309000Y-106515047D02*
X84270904Y-106438857D01*
X84270904Y-106324571D01*
X84309000Y-106210285D01*
X84385190Y-106134095D01*
X84461380Y-106096000D01*
X84613761Y-106057904D01*
X84728047Y-106057904D01*
X84880428Y-106096000D01*
X84956619Y-106134095D01*
X85032809Y-106210285D01*
X85070904Y-106324571D01*
X85070904Y-106400761D01*
X85032809Y-106515047D01*
X84994714Y-106553142D01*
X84728047Y-106553142D01*
X84728047Y-106400761D01*
X85070904Y-106896000D02*
X84270904Y-106896000D01*
X84270904Y-107200761D01*
X84309000Y-107276952D01*
X84347095Y-107315047D01*
X84423285Y-107353142D01*
X84537571Y-107353142D01*
X84613761Y-107315047D01*
X84651857Y-107276952D01*
X84689952Y-107200761D01*
X84689952Y-106896000D01*
X85070904Y-107696000D02*
X84270904Y-107696000D01*
X84270904Y-108229333D02*
X84270904Y-108381714D01*
X84309000Y-108457904D01*
X84385190Y-108534095D01*
X84537571Y-108572190D01*
X84804238Y-108572190D01*
X84956619Y-108534095D01*
X85032809Y-108457904D01*
X85070904Y-108381714D01*
X85070904Y-108229333D01*
X85032809Y-108153142D01*
X84956619Y-108076952D01*
X84804238Y-108038857D01*
X84537571Y-108038857D01*
X84385190Y-108076952D01*
X84309000Y-108153142D01*
X84270904Y-108229333D01*
X84270904Y-109257904D02*
X84270904Y-109105523D01*
X84309000Y-109029333D01*
X84347095Y-108991238D01*
X84461380Y-108915047D01*
X84613761Y-108876952D01*
X84918523Y-108876952D01*
X84994714Y-108915047D01*
X85032809Y-108953142D01*
X85070904Y-109029333D01*
X85070904Y-109181714D01*
X85032809Y-109257904D01*
X84994714Y-109296000D01*
X84918523Y-109334095D01*
X84728047Y-109334095D01*
X84651857Y-109296000D01*
X84613761Y-109257904D01*
X84575666Y-109181714D01*
X84575666Y-109029333D01*
X84613761Y-108953142D01*
X84651857Y-108915047D01*
X84728047Y-108876952D01*
X82531000Y-102070047D02*
X82492904Y-101993857D01*
X82492904Y-101879571D01*
X82531000Y-101765285D01*
X82607190Y-101689095D01*
X82683380Y-101651000D01*
X82835761Y-101612904D01*
X82950047Y-101612904D01*
X83102428Y-101651000D01*
X83178619Y-101689095D01*
X83254809Y-101765285D01*
X83292904Y-101879571D01*
X83292904Y-101955761D01*
X83254809Y-102070047D01*
X83216714Y-102108142D01*
X82950047Y-102108142D01*
X82950047Y-101955761D01*
X83292904Y-102451000D02*
X82492904Y-102451000D01*
X82492904Y-102755761D01*
X82531000Y-102831952D01*
X82569095Y-102870047D01*
X82645285Y-102908142D01*
X82759571Y-102908142D01*
X82835761Y-102870047D01*
X82873857Y-102831952D01*
X82911952Y-102755761D01*
X82911952Y-102451000D01*
X83292904Y-103251000D02*
X82492904Y-103251000D01*
X82492904Y-103784333D02*
X82492904Y-103936714D01*
X82531000Y-104012904D01*
X82607190Y-104089095D01*
X82759571Y-104127190D01*
X83026238Y-104127190D01*
X83178619Y-104089095D01*
X83254809Y-104012904D01*
X83292904Y-103936714D01*
X83292904Y-103784333D01*
X83254809Y-103708142D01*
X83178619Y-103631952D01*
X83026238Y-103593857D01*
X82759571Y-103593857D01*
X82607190Y-103631952D01*
X82531000Y-103708142D01*
X82492904Y-103784333D01*
X82492904Y-104851000D02*
X82492904Y-104470047D01*
X82873857Y-104431952D01*
X82835761Y-104470047D01*
X82797666Y-104546238D01*
X82797666Y-104736714D01*
X82835761Y-104812904D01*
X82873857Y-104851000D01*
X82950047Y-104889095D01*
X83140523Y-104889095D01*
X83216714Y-104851000D01*
X83254809Y-104812904D01*
X83292904Y-104736714D01*
X83292904Y-104546238D01*
X83254809Y-104470047D01*
X83216714Y-104431952D01*
X82531000Y-106515047D02*
X82492904Y-106438857D01*
X82492904Y-106324571D01*
X82531000Y-106210285D01*
X82607190Y-106134095D01*
X82683380Y-106096000D01*
X82835761Y-106057904D01*
X82950047Y-106057904D01*
X83102428Y-106096000D01*
X83178619Y-106134095D01*
X83254809Y-106210285D01*
X83292904Y-106324571D01*
X83292904Y-106400761D01*
X83254809Y-106515047D01*
X83216714Y-106553142D01*
X82950047Y-106553142D01*
X82950047Y-106400761D01*
X83292904Y-106896000D02*
X82492904Y-106896000D01*
X82492904Y-107200761D01*
X82531000Y-107276952D01*
X82569095Y-107315047D01*
X82645285Y-107353142D01*
X82759571Y-107353142D01*
X82835761Y-107315047D01*
X82873857Y-107276952D01*
X82911952Y-107200761D01*
X82911952Y-106896000D01*
X83292904Y-107696000D02*
X82492904Y-107696000D01*
X82492904Y-108229333D02*
X82492904Y-108381714D01*
X82531000Y-108457904D01*
X82607190Y-108534095D01*
X82759571Y-108572190D01*
X83026238Y-108572190D01*
X83178619Y-108534095D01*
X83254809Y-108457904D01*
X83292904Y-108381714D01*
X83292904Y-108229333D01*
X83254809Y-108153142D01*
X83178619Y-108076952D01*
X83026238Y-108038857D01*
X82759571Y-108038857D01*
X82607190Y-108076952D01*
X82531000Y-108153142D01*
X82492904Y-108229333D01*
X82759571Y-109257904D02*
X83292904Y-109257904D01*
X82454809Y-109067428D02*
X83026238Y-108876952D01*
X83026238Y-109372190D01*
D12*
X78486000Y-110236000D02*
X112395000Y-110236000D01*
X78486000Y-112141000D02*
X80391000Y-112141000D01*
X78486000Y-100965000D02*
X112395000Y-100965000D01*
X78486000Y-105537000D02*
X112395000Y-105537000D01*
D17*
X79216285Y-111577380D02*
X79787714Y-111577380D01*
X79502000Y-111577380D02*
X79502000Y-110577380D01*
X79597238Y-110720238D01*
X79692476Y-110815476D01*
X79787714Y-110863095D01*
D11*
X80880000Y-102070047D02*
X80841904Y-101993857D01*
X80841904Y-101879571D01*
X80880000Y-101765285D01*
X80956190Y-101689095D01*
X81032380Y-101651000D01*
X81184761Y-101612904D01*
X81299047Y-101612904D01*
X81451428Y-101651000D01*
X81527619Y-101689095D01*
X81603809Y-101765285D01*
X81641904Y-101879571D01*
X81641904Y-101955761D01*
X81603809Y-102070047D01*
X81565714Y-102108142D01*
X81299047Y-102108142D01*
X81299047Y-101955761D01*
X81641904Y-102451000D02*
X80841904Y-102451000D01*
X80841904Y-102755761D01*
X80880000Y-102831952D01*
X80918095Y-102870047D01*
X80994285Y-102908142D01*
X81108571Y-102908142D01*
X81184761Y-102870047D01*
X81222857Y-102831952D01*
X81260952Y-102755761D01*
X81260952Y-102451000D01*
X81641904Y-103251000D02*
X80841904Y-103251000D01*
X80841904Y-103784333D02*
X80841904Y-103936714D01*
X80880000Y-104012904D01*
X80956190Y-104089095D01*
X81108571Y-104127190D01*
X81375238Y-104127190D01*
X81527619Y-104089095D01*
X81603809Y-104012904D01*
X81641904Y-103936714D01*
X81641904Y-103784333D01*
X81603809Y-103708142D01*
X81527619Y-103631952D01*
X81375238Y-103593857D01*
X81108571Y-103593857D01*
X80956190Y-103631952D01*
X80880000Y-103708142D01*
X80841904Y-103784333D01*
X80841904Y-104393857D02*
X80841904Y-104889095D01*
X81146666Y-104622428D01*
X81146666Y-104736714D01*
X81184761Y-104812904D01*
X81222857Y-104851000D01*
X81299047Y-104889095D01*
X81489523Y-104889095D01*
X81565714Y-104851000D01*
X81603809Y-104812904D01*
X81641904Y-104736714D01*
X81641904Y-104508142D01*
X81603809Y-104431952D01*
X81565714Y-104393857D01*
X80880000Y-106515047D02*
X80841904Y-106438857D01*
X80841904Y-106324571D01*
X80880000Y-106210285D01*
X80956190Y-106134095D01*
X81032380Y-106096000D01*
X81184761Y-106057904D01*
X81299047Y-106057904D01*
X81451428Y-106096000D01*
X81527619Y-106134095D01*
X81603809Y-106210285D01*
X81641904Y-106324571D01*
X81641904Y-106400761D01*
X81603809Y-106515047D01*
X81565714Y-106553142D01*
X81299047Y-106553142D01*
X81299047Y-106400761D01*
X81641904Y-106896000D02*
X80841904Y-106896000D01*
X80841904Y-107200761D01*
X80880000Y-107276952D01*
X80918095Y-107315047D01*
X80994285Y-107353142D01*
X81108571Y-107353142D01*
X81184761Y-107315047D01*
X81222857Y-107276952D01*
X81260952Y-107200761D01*
X81260952Y-106896000D01*
X81641904Y-107696000D02*
X80841904Y-107696000D01*
X80841904Y-108229333D02*
X80841904Y-108381714D01*
X80880000Y-108457904D01*
X80956190Y-108534095D01*
X81108571Y-108572190D01*
X81375238Y-108572190D01*
X81527619Y-108534095D01*
X81603809Y-108457904D01*
X81641904Y-108381714D01*
X81641904Y-108229333D01*
X81603809Y-108153142D01*
X81527619Y-108076952D01*
X81375238Y-108038857D01*
X81108571Y-108038857D01*
X80956190Y-108076952D01*
X80880000Y-108153142D01*
X80841904Y-108229333D01*
X80918095Y-108876952D02*
X80880000Y-108915047D01*
X80841904Y-108991238D01*
X80841904Y-109181714D01*
X80880000Y-109257904D01*
X80918095Y-109296000D01*
X80994285Y-109334095D01*
X81070476Y-109334095D01*
X81184761Y-109296000D01*
X81641904Y-108838857D01*
X81641904Y-109334095D01*
X79102000Y-102070047D02*
X79063904Y-101993857D01*
X79063904Y-101879571D01*
X79102000Y-101765285D01*
X79178190Y-101689095D01*
X79254380Y-101651000D01*
X79406761Y-101612904D01*
X79521047Y-101612904D01*
X79673428Y-101651000D01*
X79749619Y-101689095D01*
X79825809Y-101765285D01*
X79863904Y-101879571D01*
X79863904Y-101955761D01*
X79825809Y-102070047D01*
X79787714Y-102108142D01*
X79521047Y-102108142D01*
X79521047Y-101955761D01*
X79863904Y-102451000D02*
X79063904Y-102451000D01*
X79063904Y-102755761D01*
X79102000Y-102831952D01*
X79140095Y-102870047D01*
X79216285Y-102908142D01*
X79330571Y-102908142D01*
X79406761Y-102870047D01*
X79444857Y-102831952D01*
X79482952Y-102755761D01*
X79482952Y-102451000D01*
X79863904Y-103251000D02*
X79063904Y-103251000D01*
X79063904Y-103784333D02*
X79063904Y-103936714D01*
X79102000Y-104012904D01*
X79178190Y-104089095D01*
X79330571Y-104127190D01*
X79597238Y-104127190D01*
X79749619Y-104089095D01*
X79825809Y-104012904D01*
X79863904Y-103936714D01*
X79863904Y-103784333D01*
X79825809Y-103708142D01*
X79749619Y-103631952D01*
X79597238Y-103593857D01*
X79330571Y-103593857D01*
X79178190Y-103631952D01*
X79102000Y-103708142D01*
X79063904Y-103784333D01*
X79863904Y-104889095D02*
X79863904Y-104431952D01*
X79863904Y-104660523D02*
X79063904Y-104660523D01*
X79178190Y-104584333D01*
X79254380Y-104508142D01*
X79292476Y-104431952D01*
X127990571Y-119970571D02*
X127990571Y-120503904D01*
X128181047Y-119665809D02*
X128371523Y-120237238D01*
X127876285Y-120237238D01*
X127419142Y-119703904D02*
X127342952Y-119703904D01*
X127266761Y-119742000D01*
X127228666Y-119780095D01*
X127190571Y-119856285D01*
X127152476Y-120008666D01*
X127152476Y-120199142D01*
X127190571Y-120351523D01*
X127228666Y-120427714D01*
X127266761Y-120465809D01*
X127342952Y-120503904D01*
X127419142Y-120503904D01*
X127495333Y-120465809D01*
X127533428Y-120427714D01*
X127571523Y-120351523D01*
X127609619Y-120199142D01*
X127609619Y-120008666D01*
X127571523Y-119856285D01*
X127533428Y-119780095D01*
X127495333Y-119742000D01*
X127419142Y-119703904D01*
D17*
X75660285Y-123896380D02*
X76231714Y-123896380D01*
X75946000Y-123896380D02*
X75946000Y-122896380D01*
X76041238Y-123039238D01*
X76136476Y-123134476D01*
X76231714Y-123182095D01*
D11*
X79102000Y-106515047D02*
X79063904Y-106438857D01*
X79063904Y-106324571D01*
X79102000Y-106210285D01*
X79178190Y-106134095D01*
X79254380Y-106096000D01*
X79406761Y-106057904D01*
X79521047Y-106057904D01*
X79673428Y-106096000D01*
X79749619Y-106134095D01*
X79825809Y-106210285D01*
X79863904Y-106324571D01*
X79863904Y-106400761D01*
X79825809Y-106515047D01*
X79787714Y-106553142D01*
X79521047Y-106553142D01*
X79521047Y-106400761D01*
X79863904Y-106896000D02*
X79063904Y-106896000D01*
X79063904Y-107200761D01*
X79102000Y-107276952D01*
X79140095Y-107315047D01*
X79216285Y-107353142D01*
X79330571Y-107353142D01*
X79406761Y-107315047D01*
X79444857Y-107276952D01*
X79482952Y-107200761D01*
X79482952Y-106896000D01*
X79863904Y-107696000D02*
X79063904Y-107696000D01*
X79063904Y-108229333D02*
X79063904Y-108381714D01*
X79102000Y-108457904D01*
X79178190Y-108534095D01*
X79330571Y-108572190D01*
X79597238Y-108572190D01*
X79749619Y-108534095D01*
X79825809Y-108457904D01*
X79863904Y-108381714D01*
X79863904Y-108229333D01*
X79825809Y-108153142D01*
X79749619Y-108076952D01*
X79597238Y-108038857D01*
X79330571Y-108038857D01*
X79178190Y-108076952D01*
X79102000Y-108153142D01*
X79063904Y-108229333D01*
X79063904Y-109067428D02*
X79063904Y-109143619D01*
X79102000Y-109219809D01*
X79140095Y-109257904D01*
X79216285Y-109296000D01*
X79368666Y-109334095D01*
X79559142Y-109334095D01*
X79711523Y-109296000D01*
X79787714Y-109257904D01*
X79825809Y-109219809D01*
X79863904Y-109143619D01*
X79863904Y-109067428D01*
X79825809Y-108991238D01*
X79787714Y-108953142D01*
X79711523Y-108915047D01*
X79559142Y-108876952D01*
X79368666Y-108876952D01*
X79216285Y-108915047D01*
X79140095Y-108953142D01*
X79102000Y-108991238D01*
X79063904Y-109067428D01*
D12*
X124028200Y-102870000D02*
X124028200Y-103632000D01*
X123698000Y-103251000D02*
X124333000Y-103251000D01*
X88976200Y-67056000D02*
X144723000Y-67056000D01*
X88976200Y-73075800D02*
X88976200Y-67056000D01*
X69720000Y-73075800D02*
X88976200Y-73075800D01*
X69720000Y-124200000D02*
X69720000Y-73075800D01*
X144723000Y-124206000D02*
X144723000Y-67056000D01*
X69723000Y-124206000D02*
X144723000Y-124206000D01*
X127127000Y-119126000D02*
G75*
G02X126873000Y-119380000I-254000J0D01*
G01*
X126873000Y-116078000D02*
G75*
G02X127127000Y-116332000I0J-254000D01*
G01*
X125095000Y-116332000D02*
G75*
G02X125349000Y-116078000I254000J0D01*
G01*
X125349000Y-119380000D02*
G75*
G02X125095000Y-119126000I0J254000D01*
G01*
X125095000Y-116332000D02*
X125095000Y-119126000D01*
X126873000Y-116078000D02*
X125349000Y-116078000D01*
X126873000Y-119380000D02*
X125349000Y-119380000D01*
X127127000Y-119126000D02*
X127127000Y-116332000D01*
X114554000Y-104267000D02*
G75*
G02X114808000Y-104013000I254000J0D01*
G01*
X114808000Y-107315000D02*
G75*
G02X114554000Y-107061000I0J254000D01*
G01*
X116586000Y-107061000D02*
G75*
G02X116332000Y-107315000I-254000J0D01*
G01*
X116332000Y-104013000D02*
G75*
G02X116586000Y-104267000I0J-254000D01*
G01*
X116586000Y-107061000D02*
X116586000Y-104267000D01*
X114808000Y-107315000D02*
X116332000Y-107315000D01*
X114808000Y-104013000D02*
X116332000Y-104013000D01*
X114554000Y-104267000D02*
X114554000Y-107061000D01*
X108204000Y-97409000D02*
G75*
G02X107950000Y-97155000I0J254000D01*
G01*
X111252000Y-97155000D02*
G75*
G02X110998000Y-97409000I-254000J0D01*
G01*
X110998000Y-95377000D02*
G75*
G02X111252000Y-95631000I0J-254000D01*
G01*
X107950000Y-95631000D02*
G75*
G02X108204000Y-95377000I254000J0D01*
G01*
X110998000Y-95377000D02*
X108204000Y-95377000D01*
X111252000Y-97155000D02*
X111252000Y-95631000D01*
X107950000Y-97155000D02*
X107950000Y-95631000D01*
X108204000Y-97409000D02*
X110998000Y-97409000D01*
X104140000Y-79121000D02*
G75*
G02X104267000Y-79248000I0J-127000D01*
G01*
X104013000Y-79184500D02*
G75*
G02X104076500Y-79121000I63500J0D01*
G01*
X104074071Y-79377545D02*
G75*
G02X104013000Y-79311500I2429J63505D01*
G01*
X104457500Y-78994000D02*
G75*
G02X104076500Y-79375000I-381000J0D01*
G01*
X104268048Y-77598575D02*
G75*
G02X104457500Y-77914500I-168688J-315925D01*
G01*
X104265549Y-77597142D02*
G75*
G02X103949500Y-77279500I478971J792622D01*
G01*
X104074935Y-78106845D02*
G75*
G02X103378000Y-77660500I153965J1007685D01*
G01*
X103631068Y-78867674D02*
G75*
G02X103632000Y-79184500I-316568J-159346D01*
G01*
X103631967Y-79184600D02*
G75*
G02X103505000Y-79311500I-190467J63600D01*
G01*
X102303275Y-78423493D02*
G75*
G02X102743000Y-78549500I-825195J-3709947D01*
G01*
X102742915Y-78550965D02*
G75*
G02X103314500Y-79311500I-284395J-808795D01*
G01*
X102680708Y-78106166D02*
G75*
G02X103632000Y-78867000I-285688J-1332334D01*
G01*
X102168461Y-78360576D02*
G75*
G02X101346000Y-77914500I147819J1253796D01*
G01*
X100837301Y-77724474D02*
G75*
G02X101346000Y-77914500I64199J-604046D01*
G01*
X102361915Y-76773114D02*
G75*
G02X102146100Y-76835000I-182795J230214D01*
G01*
X102362721Y-76771678D02*
G75*
G02X103949500Y-77279500I466639J-1274902D01*
G01*
X104076500Y-79121000D02*
X104140000Y-79121000D01*
X104076500Y-79121000D02*
X104076500Y-78105000D01*
X104013000Y-79311500D02*
X104013000Y-79184500D01*
X104457500Y-77914500D02*
X104457500Y-78994000D01*
X103505000Y-79311500D02*
X103352600Y-79311500D01*
X100520500Y-77724000D02*
X100838000Y-77724000D01*
X102146100Y-76835000D02*
X100965000Y-76835000D01*
X104521000Y-76898500D02*
X99187000Y-80391000D01*
X100965000Y-76835000D02*
X102743000Y-73279000D01*
X100520500Y-77724000D02*
X100965000Y-76835000D01*
X99187000Y-80391000D02*
X100520500Y-77724000D01*
X106299000Y-80391000D02*
X99187000Y-80391000D01*
X102743000Y-73279000D02*
X106299000Y-80391000D01*
D18*
X90113747Y-89027000D02*
G75*
G03X90113747Y-89027000I-337447J0D01*
G01*
D19*
X89789000Y-88252300D02*
X89281000Y-87744300D01*
X88188800Y-87668100D02*
X87553800Y-88277700D01*
X87579200Y-90233500D02*
X88138000Y-90817700D01*
X85953600Y-90830400D02*
X86410800Y-90373200D01*
X84967800Y-90830400D02*
X85953600Y-90830400D01*
D18*
X84821324Y-90805000D02*
G75*
G03X84821324Y-90805000I-366324J0D01*
G01*
D19*
X84455000Y-88112600D02*
X84455000Y-89712800D01*
D18*
X84815818Y-87579200D02*
G75*
G03X84815818Y-87579200I-373518J0D01*
G01*
X83582759Y-90779600D02*
G75*
G03X83582759Y-90779600I-359659J0D01*
G01*
D19*
X83235800Y-90271600D02*
X83235800Y-87680800D01*
X83235800Y-87680800D02*
X82397600Y-87680800D01*
X82397600Y-87680800D02*
X81788000Y-88188800D01*
X81686400Y-88976200D02*
X81686400Y-88265000D01*
X81610200Y-88188800D02*
X80975200Y-87680800D01*
D18*
X82057318Y-89509600D02*
G75*
G03X82057318Y-89509600I-370918J0D01*
G01*
D19*
X80975200Y-87680800D02*
X80086200Y-87680800D01*
D18*
X80436729Y-90792300D02*
G75*
G03X80436729Y-90792300I-363229J0D01*
G01*
X74573666Y-90881200D02*
G75*
G03X74573666Y-90881200I-329466J0D01*
G01*
D19*
X74574400Y-90525600D02*
X75412600Y-89712800D01*
D20*
X75920600Y-89611200D02*
X75387200Y-89611200D01*
D19*
X77063600Y-90830400D02*
X75920600Y-89712800D01*
X78384400Y-90830400D02*
X77063600Y-90830400D01*
X78816200Y-90398600D02*
X78384400Y-90830400D01*
X78816200Y-88163400D02*
X78816200Y-90398600D01*
X78816200Y-88138000D02*
X78333600Y-87630000D01*
X78285500Y-87655400D02*
X77063600Y-87655400D01*
X77063600Y-87655400D02*
X75971400Y-88722200D01*
D20*
X75946000Y-88836500D02*
X75387200Y-88836500D01*
D19*
X74523600Y-87845900D02*
X75387200Y-88739600D01*
D18*
X74514735Y-87490300D02*
G75*
G03X74514735Y-87490300I-359435J0D01*
G01*
D19*
X77597000Y-89230200D02*
X78816200Y-89230200D01*
D18*
X77448659Y-89230200D02*
G75*
G03X77448659Y-89230200I-359659J0D01*
G01*
D19*
X89217500Y-90843100D02*
X88176100Y-90843100D01*
X89776300Y-90284300D02*
X89776300Y-89522300D01*
X89789000Y-90271600D02*
X89204800Y-90843100D01*
X89789000Y-88303100D02*
X89789000Y-88544400D01*
X87566500Y-88265000D02*
X87566500Y-90195400D01*
X88188800Y-87655400D02*
X89192100Y-87655400D01*
X80073500Y-87668100D02*
X80073500Y-90271600D01*
X86410800Y-90385900D02*
X86410800Y-87655400D01*
D10*
X86410800Y-87312500D02*
X86690200Y-87312500D01*
X86715600Y-87312500D02*
X86715600Y-90462100D01*
X86702900Y-87312500D02*
X86715600Y-87312500D01*
X86690200Y-87312500D02*
X86702900Y-87312500D01*
X86575900Y-87401400D02*
X86639400Y-87388700D01*
X86093300Y-87312500D02*
X86093300Y-90347800D01*
X86398100Y-87312500D02*
X86093300Y-87312500D01*
X86271100Y-87388700D02*
X86156800Y-87388700D01*
X84772500Y-87998300D02*
X84772500Y-90017600D01*
X84137500Y-90017600D02*
X84137500Y-87998300D01*
X84162900Y-90017600D02*
X84137500Y-90017600D01*
X84772500Y-90017600D02*
X84162900Y-90017600D01*
X84632800Y-89954100D02*
X84696300Y-89954100D01*
X84289900Y-89954100D02*
X84201000Y-89954100D01*
X83553300Y-90360500D02*
X83553300Y-87376000D01*
X82308700Y-87363300D02*
X81724500Y-87845900D01*
X83553300Y-87363300D02*
X82308700Y-87363300D01*
X83400900Y-87426800D02*
X83477100Y-87426800D01*
X79743300Y-90385900D02*
X79743300Y-87376000D01*
X81064100Y-87363300D02*
X81686400Y-87858600D01*
X81038700Y-87363300D02*
X81064100Y-87363300D01*
X79743300Y-87363300D02*
X81038700Y-87363300D01*
X79743300Y-87376000D02*
X79743300Y-87363300D01*
X79895700Y-87439500D02*
X79794100Y-87439500D01*
X76949300Y-87325200D02*
X75692000Y-88569800D01*
X77000100Y-87325200D02*
X76949300Y-87325200D01*
X78371700Y-87325200D02*
X77000100Y-87325200D01*
D21*
X126448820Y-75613260D02*
X125897640Y-74190860D01*
D22*
X126794260Y-75427840D02*
X126476760Y-75633580D01*
D18*
X127584200Y-75976480D02*
X126804420Y-75445620D01*
D23*
X128160780Y-75438000D02*
X127596900Y-75976480D01*
D22*
X128145540Y-75438000D02*
X127612140Y-74604880D01*
X127970280Y-73677780D02*
X127612140Y-74561700D01*
X128948180Y-73436480D02*
X127998220Y-73654920D01*
D23*
X128938020Y-72659240D02*
X128943100Y-73446640D01*
D22*
X128950720Y-72646540D02*
X127932180Y-72466200D01*
X127901700Y-72430640D02*
X127553720Y-71564500D01*
X128130300Y-70662800D02*
X127574040Y-71513700D01*
D23*
X128140460Y-70639940D02*
X127640080Y-70106540D01*
D22*
X127591820Y-70081140D02*
X126763780Y-70733920D01*
X126702820Y-70723760D02*
X125857000Y-70317360D01*
X125597920Y-69283580D02*
X125803660Y-70297040D01*
X125605540Y-69270880D02*
X124820680Y-69270880D01*
X124838460Y-69291200D02*
X124625100Y-70309740D01*
X124625100Y-70309740D02*
X123723400Y-70759320D01*
X123710700Y-70754240D02*
X122806460Y-70119800D01*
X122806460Y-70121780D02*
X122252740Y-70667880D01*
X122252740Y-70670420D02*
X122869960Y-71460360D01*
X122869960Y-71460360D02*
X122529600Y-72397620D01*
X122529600Y-72397620D02*
X121447560Y-72626220D01*
X121447560Y-72626220D02*
X121447560Y-73461880D01*
X121447560Y-73461880D02*
X122461020Y-73632060D01*
X122461020Y-73632060D02*
X122867420Y-74543920D01*
X122816620Y-75991720D02*
X123652280Y-75425300D01*
X123652280Y-75425300D02*
X123990100Y-75610720D01*
X123990100Y-75610720D02*
X124564140Y-74170540D01*
X124553980Y-74168000D02*
G75*
G02X124183140Y-72303640I746760J1117600D01*
G01*
X124172980Y-72318880D02*
G75*
G02X126098300Y-72120760I1061720J-863600D01*
G01*
X126123700Y-72146160D02*
G75*
G02X126047500Y-74000360I-965200J-889000D01*
G01*
X122867420Y-74543920D02*
X122247660Y-75430380D01*
X122801380Y-75984100D02*
X122247660Y-75438000D01*
D24*
X126367540Y-75793600D02*
X125717300Y-74124820D01*
X126751080Y-75590400D02*
X126405640Y-75811380D01*
X126763780Y-75580240D02*
X127589280Y-76144120D01*
X127596900Y-76151740D02*
X128318260Y-75458320D01*
X128325880Y-75455780D02*
X127728980Y-74592180D01*
X129087880Y-73548240D02*
X128016000Y-73743820D01*
X129087880Y-72555100D02*
X129087880Y-73540620D01*
X129090420Y-72552560D02*
X127919480Y-72349360D01*
X128021080Y-72354440D02*
X127685800Y-71521320D01*
X128282700Y-70670420D02*
X127688340Y-71523860D01*
X128303020Y-70634860D02*
X127629920Y-69921120D01*
X127617220Y-69918580D02*
X126646940Y-70634860D01*
X126682500Y-70566280D02*
X125778260Y-70187820D01*
X125694440Y-69171820D02*
X125895100Y-70197980D01*
X125684280Y-69164200D02*
X124719080Y-69164200D01*
X124719080Y-69164200D02*
X124493020Y-70335140D01*
X124503180Y-70253860D02*
X123698000Y-70591680D01*
X123817380Y-70639940D02*
X122806460Y-69966840D01*
X122801380Y-69964300D02*
X122107960Y-70655180D01*
X122102880Y-70662800D02*
X122806460Y-71653400D01*
X122717560Y-71544180D02*
X122351800Y-72412860D01*
X121414540Y-73314560D02*
X122521980Y-73538080D01*
X121330720Y-72572880D02*
X121333260Y-73530460D01*
X122468640Y-73761600D02*
X121345960Y-73550780D01*
X122364500Y-73728580D02*
X122745500Y-74709020D01*
X122397520Y-75364340D02*
X122882660Y-75895200D01*
X122793760Y-76139040D02*
X122110500Y-75448160D01*
X123680220Y-75524360D02*
X122803920Y-76144120D01*
X122816620Y-75829160D02*
X123637040Y-75300840D01*
X123499880Y-75496420D02*
X124028200Y-75824080D01*
X124028200Y-75824080D02*
X124414280Y-74843640D01*
X124419360Y-74145140D02*
X123891040Y-75526900D01*
X128795780Y-72743060D02*
X128795780Y-73393300D01*
X128938020Y-72798940D02*
X127822960Y-72552560D01*
X127408940Y-71531480D02*
X127795020Y-72529700D01*
X127403860Y-71536560D02*
X128005840Y-70627240D01*
X127647700Y-70182740D02*
X126763780Y-70904100D01*
X124376180Y-74203560D02*
X124198380Y-74081640D01*
X124198380Y-74081640D02*
X123822460Y-73370440D01*
X123822460Y-73370440D02*
X123822460Y-72852280D01*
X123817380Y-72864980D02*
X124051060Y-72191880D01*
X124051060Y-72191880D02*
X124561600Y-71762620D01*
X124561600Y-71762620D02*
X125376940Y-71602600D01*
X125376940Y-71594980D02*
X126248160Y-72024240D01*
X126248160Y-72024240D02*
X126667260Y-72755760D01*
X126672340Y-72760840D02*
X126540260Y-73583800D01*
X126535180Y-73614280D02*
X126441200Y-73784460D01*
X126535180Y-73614280D02*
X126441200Y-73784460D01*
X126311660Y-73835260D02*
X126052580Y-74173080D01*
X125943360Y-73949560D02*
X125717300Y-74124820D01*
X124442220Y-73952100D02*
X124696220Y-74117200D01*
X124579380Y-74406760D02*
X124701300Y-74122280D01*
X126758700Y-70901560D02*
X125775720Y-70408800D01*
X126428500Y-73814940D02*
X126121160Y-74081640D01*
D25*
X127444500Y-75244960D02*
X126591060Y-74223880D01*
X128480820Y-73040240D02*
X127063500Y-72979280D01*
X127495300Y-70754240D02*
X126433580Y-71861680D01*
X125234700Y-69778880D02*
X125229620Y-71292720D01*
X122969020Y-70835520D02*
X124081540Y-71902320D01*
X121978420Y-73019920D02*
X123446540Y-73106280D01*
X126768860Y-75072240D02*
X126403100Y-74310240D01*
X127434340Y-74173080D02*
X126870460Y-73693020D01*
X127683260Y-73527920D02*
X126977140Y-73400920D01*
X127358140Y-72283320D02*
X126916180Y-72443340D01*
X127182880Y-71803260D02*
X126725680Y-72092820D01*
X126184660Y-71026020D02*
X126009400Y-71384160D01*
X125750320Y-70766940D02*
X125582680Y-71376540D01*
X124485400Y-70782180D02*
X124706380Y-71467980D01*
X123898660Y-71033640D02*
X124317760Y-71620380D01*
X123029980Y-71902320D02*
X123685300Y-72268080D01*
X122788680Y-72595740D02*
X123510040Y-72743060D01*
X123624340Y-73753980D02*
X123014740Y-73860660D01*
X123944380Y-74173080D02*
X123327160Y-74500740D01*
X124058680Y-74310240D02*
X122877580Y-75323700D01*
X124058680Y-74218800D02*
X123725940Y-74950320D01*
D12*
X93191437Y-69281040D02*
G75*
G03X93191437Y-69281040I-1802237J0D01*
G01*
D11*
X92549980Y-68117720D02*
X90116660Y-70538340D01*
D24*
X70691000Y-115139000D02*
X70691000Y-115901000D01*
X75263000Y-115139000D02*
X70691000Y-115139000D01*
X75263000Y-115901000D02*
X75263000Y-115139000D01*
X70691000Y-115901000D02*
X75263000Y-115901000D01*
X70741800Y-115189800D02*
X75161400Y-115189800D01*
X75212200Y-115291400D02*
X70741800Y-115291400D01*
X70741800Y-115443800D02*
X75161400Y-115443800D01*
X70741800Y-115596200D02*
X75161400Y-115596200D01*
X75212200Y-115342200D02*
X70792600Y-115342200D01*
X75212200Y-115494600D02*
X70741800Y-115494600D01*
X70792600Y-115697800D02*
X75161400Y-115697800D01*
X75212200Y-115799400D02*
X70792600Y-115799400D01*
D12*
X75057000Y-110363000D02*
X70866000Y-114554000D01*
X74930000Y-114427000D02*
X70866000Y-110490000D01*
X73914000Y-114046000D02*
X72517000Y-114046000D01*
X73914000Y-114046000D02*
X74168000Y-110998000D01*
X74422000Y-110871000D02*
X71501000Y-110871000D01*
X73406000Y-114427000D02*
X73406000Y-114173000D01*
X73914000Y-114427000D02*
X73406000Y-114427000D01*
X73914000Y-114046000D02*
X73914000Y-114427000D01*
X72009000Y-113538000D02*
X71882000Y-111506000D01*
X72410609Y-114046000D02*
G75*
G03X72410609Y-114046000I-401609J0D01*
G01*
X73787000Y-110236000D02*
X73787000Y-110744000D01*
X73914000Y-110236000D02*
X73787000Y-110236000D01*
X73914000Y-110744000D02*
X73914000Y-110236000D01*
X71501000Y-111379000D02*
X71501000Y-110871000D01*
X71882000Y-111379000D02*
X71501000Y-111379000D01*
X71882000Y-110871000D02*
X71882000Y-111379000D01*
X71755000Y-110998000D02*
X71755000Y-111125000D01*
X71755000Y-110871000D02*
X71628000Y-111252000D01*
X71755000Y-110998000D02*
X71755000Y-111125000D01*
X71628000Y-110998000D02*
X71628000Y-111379000D01*
X71755000Y-110998000D02*
X71628000Y-110998000D01*
X71755000Y-111379000D02*
X71755000Y-110998000D01*
X73152000Y-111760000D02*
X73152000Y-111379000D01*
X72263000Y-111760000D02*
X73152000Y-111760000D01*
X72263000Y-111379000D02*
X72263000Y-111760000D01*
X73152000Y-111379000D02*
X72263000Y-111379000D01*
X73025000Y-111506000D02*
X72390000Y-111506000D01*
X72771000Y-109982000D02*
X73152000Y-109982000D01*
X72771000Y-110109000D02*
X72771000Y-109982000D01*
X73152000Y-110109000D02*
X72771000Y-110109000D01*
X73152000Y-109982000D02*
X73152000Y-110109000D01*
X71882000Y-110744000D02*
G75*
G02X74168000Y-110744000I1143000J-1143000D01*
G01*
D26*
X72136000Y-114046000D02*
G75*
G03X72136000Y-114046000I-127000J0D01*
G01*
D12*
X120522556Y-89559371D02*
G75*
G02X120269000Y-90170000I-865696J1511D01*
G01*
X119076020Y-88064180D02*
G75*
G02X119583200Y-89095580I-991420J-1127920D01*
G01*
X119993340Y-90200046D02*
G75*
G02X119583200Y-89103200I1118940J1043506D01*
G01*
X120270788Y-90298791D02*
G75*
G02X119966740Y-90172540I752J431051D01*
G01*
X119704340Y-90292613D02*
G75*
G02X119202200Y-89496900I709440J1003993D01*
G01*
X118822795Y-88158066D02*
G75*
G02X119176800Y-89148920I-1408755J-1061974D01*
G01*
X119355927Y-90298303D02*
G75*
G02X119156480Y-90274140I-1327J824263D01*
G01*
X119154497Y-90273453D02*
G75*
G02X118574820Y-89999820I205183J1185493D01*
G01*
X118550946Y-89977974D02*
G75*
G02X118237000Y-89220040I757934J757934D01*
G01*
X118237283Y-89220487D02*
G75*
G02X118308120Y-88851740I992857J447D01*
G01*
X118372148Y-87917136D02*
G75*
G02X118308120Y-88851740I-1478808J-368184D01*
G01*
X119674000Y-87938511D02*
G75*
G02X120396000Y-88582500I-601340J-1400909D01*
G01*
X120449794Y-88678321D02*
G75*
G02X120650000Y-89433400I-1323794J-755079D01*
G01*
X120651874Y-89433901D02*
G75*
G02X120566180Y-89877900I-1195674J501D01*
G01*
X120695720Y-90552612D02*
G75*
G02X120403620Y-90431620I0J413092D01*
G01*
X121053134Y-90402954D02*
G75*
G02X120695720Y-90551000I-357414J357414D01*
G01*
X121426258Y-90568710D02*
G75*
G02X121158000Y-89916000I653762J650170D01*
G01*
X121663978Y-91186280D02*
G75*
G02X121158000Y-89961720I1228842J1224560D01*
G01*
X125228379Y-86647186D02*
G75*
G02X123885960Y-86862920I-1812319J6992786D01*
G01*
X122104130Y-87436934D02*
G75*
G02X123367800Y-86936580I2134890J-3545866D01*
G01*
X121037641Y-88514765D02*
G75*
G02X122092720Y-87444580I3831299J-2722035D01*
G01*
X121157155Y-89789069D02*
G75*
G02X121277380Y-88851740I762845J378529D01*
G01*
X121448473Y-88663156D02*
G75*
G02X124002800Y-87393780I3654147J-4148444D01*
G01*
X126339541Y-86582778D02*
G75*
G02X124312680Y-87332820I-2631381J3997218D01*
G01*
X121605549Y-90874559D02*
G75*
G02X121158000Y-89789000I1086611J1083019D01*
G01*
X121031760Y-88137243D02*
G75*
G02X121091960Y-87459820I3049780J70363D01*
G01*
X121238736Y-86856585D02*
G75*
G02X123289060Y-85344000I2144304J-760715D01*
G01*
X127152952Y-85199522D02*
G75*
G02X125437900Y-85539580I-1268012J1900222D01*
G01*
X125126933Y-89123013D02*
G75*
G02X123261120Y-89789000I-1738813J1924813D01*
G01*
X127147464Y-86703447D02*
G75*
G02X125166120Y-89085420I-8344044J4925607D01*
G01*
X121434860Y-89512140D02*
G75*
G02X122153680Y-89514680I358140J-360680D01*
G01*
X122745500Y-89791066D02*
G75*
G02X122207020Y-89568020I0J761526D01*
G01*
X123063000Y-93599000D02*
G75*
G02X121539000Y-92075000I0J1524000D01*
G01*
X136398000Y-92075000D02*
G75*
G02X134874000Y-93599000I-1524000J0D01*
G01*
X134874000Y-90551000D02*
G75*
G02X136398000Y-92075000I0J-1524000D01*
G01*
X121539000Y-92075000D02*
G75*
G02X123063000Y-90551000I1524000J0D01*
G01*
X119507000Y-90170000D02*
X118999000Y-90170000D01*
X119380000Y-90043000D02*
X118745000Y-90043000D01*
X119253000Y-89916000D02*
X118618000Y-89916000D01*
X119253000Y-89789000D02*
X118491000Y-89789000D01*
X119202200Y-89662000D02*
X118364000Y-89662000D01*
X119126000Y-89535000D02*
X118364000Y-89535000D01*
X119126000Y-89408000D02*
X118364000Y-89408000D01*
X119126000Y-89281000D02*
X118364000Y-89281000D01*
X119126000Y-89154000D02*
X118364000Y-89154000D01*
X119126000Y-89027000D02*
X118364000Y-89027000D01*
X119126000Y-88900000D02*
X118364000Y-88900000D01*
X119126000Y-88773000D02*
X118491000Y-88773000D01*
X118999000Y-88646000D02*
X118491000Y-88646000D01*
X118999000Y-88519000D02*
X118491000Y-88519000D01*
X118618000Y-88011000D02*
X118618000Y-88519000D01*
X118745000Y-88011000D02*
X118745000Y-88519000D01*
X118872000Y-87630000D02*
X118364000Y-87630000D01*
X118999000Y-87757000D02*
X118364000Y-87757000D01*
X119253000Y-87884000D02*
X118491000Y-87884000D01*
X118745000Y-88011000D02*
X119634000Y-88011000D01*
X118618000Y-88011000D02*
X118745000Y-88011000D01*
X118491000Y-88011000D02*
X118618000Y-88011000D01*
X119253000Y-88138000D02*
X119761000Y-88138000D01*
X119380000Y-88265000D02*
X120015000Y-88265000D01*
X119380000Y-88392000D02*
X120142000Y-88392000D01*
X119507000Y-88519000D02*
X120269000Y-88519000D01*
X119507000Y-88646000D02*
X120396000Y-88646000D01*
X119634000Y-88773000D02*
X120396000Y-88773000D01*
X119634000Y-88900000D02*
X120396000Y-88900000D01*
X119634000Y-89027000D02*
X120523000Y-89027000D01*
X119634000Y-89154000D02*
X120523000Y-89154000D01*
X120396000Y-89916000D02*
X119888000Y-89916000D01*
X120396000Y-89789000D02*
X119761000Y-89789000D01*
X120523000Y-89662000D02*
X119761000Y-89662000D01*
X120523000Y-89535000D02*
X119761000Y-89535000D01*
X120396000Y-89408000D02*
X119761000Y-89408000D01*
X119888000Y-89281000D02*
X119888000Y-89789000D01*
X119634000Y-89281000D02*
X120142000Y-90170000D01*
X119888000Y-89281000D02*
X119634000Y-89281000D01*
X120269000Y-89281000D02*
X119888000Y-89281000D01*
X120396000Y-89916000D02*
X120396000Y-90043000D01*
X120396000Y-89789000D02*
X120396000Y-89916000D01*
X120396000Y-89408000D02*
X120396000Y-89789000D01*
X120396000Y-89281000D02*
X120396000Y-89408000D01*
X120269000Y-89281000D02*
X120269000Y-89916000D01*
X120396000Y-89281000D02*
X120269000Y-89281000D01*
X120523000Y-89281000D02*
X120396000Y-89281000D01*
X120523000Y-89535000D02*
X120523000Y-89281000D01*
X120523000Y-89557860D02*
X120523000Y-89535000D01*
X119583200Y-89103200D02*
X119583200Y-89095580D01*
X119966740Y-90172540D02*
X119994680Y-90200480D01*
D27*
X123317000Y-88773000D02*
X124587000Y-88519000D01*
X122936000Y-88900000D02*
X123317000Y-88773000D01*
X122809000Y-88773000D02*
X122936000Y-88900000D01*
X122809000Y-88646000D02*
X122809000Y-88773000D01*
X123317000Y-88392000D02*
X122809000Y-88646000D01*
X123571000Y-88392000D02*
X123317000Y-88392000D01*
X124587000Y-88138000D02*
X123571000Y-88392000D01*
X125095000Y-88138000D02*
X124587000Y-88138000D01*
X125222000Y-88265000D02*
X125095000Y-88138000D01*
X125095000Y-88392000D02*
X125222000Y-88265000D01*
X124460000Y-88900000D02*
X125095000Y-88392000D01*
X123952000Y-89027000D02*
X124460000Y-88900000D01*
X123571000Y-89154000D02*
X123952000Y-89027000D01*
X122936000Y-89154000D02*
X123571000Y-89154000D01*
X122555000Y-89027000D02*
X122936000Y-89154000D01*
X122301000Y-89027000D02*
X122555000Y-89027000D01*
X122174000Y-88773000D02*
X122301000Y-89027000D01*
X122301000Y-88646000D02*
X122174000Y-88773000D01*
X122936000Y-88138000D02*
X122301000Y-88646000D01*
X123952000Y-87884000D02*
X122936000Y-88138000D01*
X125095000Y-87757000D02*
X123952000Y-87884000D01*
X125222000Y-87757000D02*
X125095000Y-87757000D01*
X125349000Y-87884000D02*
X125222000Y-87757000D01*
X126111000Y-87249000D02*
X125349000Y-87884000D01*
X125476000Y-87249000D02*
X126238000Y-86868000D01*
X124739400Y-87503000D02*
X125476000Y-87249000D01*
X124129800Y-87503000D02*
X124739400Y-87503000D01*
X122732800Y-87985600D02*
X124129800Y-87503000D01*
X122047000Y-88392000D02*
X122732800Y-87985600D01*
X121539000Y-88900000D02*
X122047000Y-88392000D01*
X121285000Y-89408000D02*
X121539000Y-88900000D01*
X121539000Y-89154000D02*
X121285000Y-89408000D01*
X121920000Y-89027000D02*
X121539000Y-89154000D01*
X122682000Y-89535000D02*
X121920000Y-89027000D01*
X123571000Y-89535000D02*
X122682000Y-89535000D01*
X124460000Y-89281000D02*
X123571000Y-89535000D01*
X124968000Y-88900000D02*
X124460000Y-89281000D01*
X125857000Y-88011000D02*
X124968000Y-88900000D01*
X126111000Y-87630000D02*
X125857000Y-88011000D01*
X126492000Y-87122000D02*
X126111000Y-87630000D01*
X126621540Y-86614000D02*
X127000000Y-85727540D01*
X126621540Y-86995000D02*
X126621540Y-86614000D01*
X127000000Y-86487000D02*
X126621540Y-86995000D01*
X127127000Y-85979000D02*
X127000000Y-86487000D01*
X127635000Y-85090000D02*
X127127000Y-85979000D01*
X122047000Y-86614000D02*
X123698000Y-86614000D01*
X122174000Y-86233000D02*
X127127000Y-86156800D01*
X122174000Y-86487000D02*
X122174000Y-86233000D01*
X122174000Y-85979000D02*
X122174000Y-86233000D01*
X126746000Y-85979000D02*
X122174000Y-85979000D01*
X126238000Y-86106000D02*
X126746000Y-85979000D01*
X124968000Y-86487000D02*
X126238000Y-86106000D01*
X123825000Y-86614000D02*
X124968000Y-86487000D01*
X123698000Y-86614000D02*
X123825000Y-86614000D01*
X123190000Y-86614000D02*
X123698000Y-86614000D01*
X122555000Y-86995000D02*
X123190000Y-86614000D01*
X122174000Y-86487000D02*
X121793000Y-86995000D01*
X122428000Y-86995000D02*
X122174000Y-86487000D01*
X121793000Y-87376000D02*
X122428000Y-86995000D01*
X121285000Y-88011000D02*
X121793000Y-87376000D01*
X121412000Y-86995000D02*
X121285000Y-88011000D01*
X121666000Y-86487000D02*
X121412000Y-86995000D01*
X122174000Y-85979000D02*
X121666000Y-86487000D01*
X122809000Y-85598000D02*
X122174000Y-85979000D01*
X124460000Y-85598000D02*
X122809000Y-85598000D01*
X125476000Y-85727540D02*
X124460000Y-85598000D01*
X126621540Y-85727540D02*
X125476000Y-85727540D01*
D12*
X127635000Y-85090000D02*
X126621540Y-85727540D01*
X119176800Y-89105740D02*
X119202200Y-89496900D01*
X120256300Y-90297000D02*
X120269000Y-90297000D01*
X119354600Y-90297000D02*
X119710200Y-90297000D01*
X118551960Y-89976960D02*
X118574820Y-89999820D01*
X118237000Y-87376000D02*
X118371620Y-87914480D01*
X119253000Y-87757000D02*
X118237000Y-87376000D01*
X119674640Y-87937340D02*
X119253000Y-87757000D01*
X120449340Y-88676480D02*
X120396000Y-88582500D01*
X120269000Y-90297000D02*
X120566180Y-89877900D01*
X120403620Y-90431620D02*
X120269000Y-90297000D01*
X121158000Y-90297000D02*
X121053860Y-90403680D01*
X121920000Y-91059000D02*
X121429780Y-90568780D01*
X121158000Y-89961720D02*
X121158000Y-89916000D01*
X121793000Y-91186000D02*
X121285000Y-90424000D01*
X125234700Y-86647020D02*
X126621540Y-86233000D01*
X123367800Y-86936580D02*
X123885960Y-86862920D01*
X122092720Y-87444580D02*
X122100340Y-87439500D01*
X121033540Y-88519000D02*
X121036080Y-88516460D01*
X121447560Y-88663780D02*
X121277380Y-88851740D01*
X124312680Y-87332820D02*
X124002800Y-87393780D01*
X126621540Y-86233000D02*
X126339600Y-86580980D01*
X121793000Y-91059000D02*
X121607580Y-90873580D01*
X121135140Y-89743280D02*
X121158000Y-89789000D01*
X121033540Y-88138000D02*
X121033540Y-88519000D01*
X121239280Y-86860380D02*
X121091960Y-87459820D01*
X125437900Y-85539580D02*
X123289060Y-85344000D01*
X128016000Y-84582000D02*
X127154940Y-85201760D01*
X123261120Y-89789000D02*
X122745500Y-89789000D01*
X125166120Y-89085420D02*
X125130560Y-89120980D01*
X128016000Y-84582000D02*
X127149860Y-86697820D01*
X121434860Y-89514680D02*
X121158000Y-89789000D01*
X122207020Y-89568020D02*
X122153680Y-89514680D01*
X134874000Y-93599000D02*
X123063000Y-93599000D01*
X123063000Y-90551000D02*
X134874000Y-90551000D01*
D11*
X126168142Y-110788761D02*
X126168142Y-111398285D01*
X126472904Y-111093523D02*
X125863380Y-111093523D01*
X125672904Y-112160190D02*
X125672904Y-111779238D01*
X126053857Y-111741142D01*
X126015761Y-111779238D01*
X125977666Y-111855428D01*
X125977666Y-112045904D01*
X126015761Y-112122095D01*
X126053857Y-112160190D01*
X126130047Y-112198285D01*
X126320523Y-112198285D01*
X126396714Y-112160190D01*
X126434809Y-112122095D01*
X126472904Y-112045904D01*
X126472904Y-111855428D01*
X126434809Y-111779238D01*
X126396714Y-111741142D01*
X125672904Y-112426857D02*
X126472904Y-112693523D01*
X125672904Y-112960190D01*
X126549095Y-113036380D02*
X126549095Y-113645904D01*
X126053857Y-113836380D02*
X126053857Y-114103047D01*
X126472904Y-114217333D02*
X126472904Y-113836380D01*
X125672904Y-113836380D01*
X125672904Y-114217333D01*
X126472904Y-114560190D02*
X125672904Y-114560190D01*
X126472904Y-115017333D01*
X125672904Y-115017333D01*
X126472904Y-115817333D02*
X126472904Y-115360190D01*
X126472904Y-115588761D02*
X125672904Y-115588761D01*
X125787190Y-115512571D01*
X125863380Y-115436380D01*
X125901476Y-115360190D01*
X117532171Y-103181457D02*
X118065504Y-103181457D01*
X117227409Y-102990980D02*
X117798838Y-102800504D01*
X117798838Y-103295742D01*
X117265504Y-103752885D02*
X117265504Y-103829076D01*
X117303600Y-103905266D01*
X117341695Y-103943361D01*
X117417885Y-103981457D01*
X117570266Y-104019552D01*
X117760742Y-104019552D01*
X117913123Y-103981457D01*
X117989314Y-103943361D01*
X118027409Y-103905266D01*
X118065504Y-103829076D01*
X118065504Y-103752885D01*
X118027409Y-103676695D01*
X117989314Y-103638600D01*
X117913123Y-103600504D01*
X117760742Y-103562409D01*
X117570266Y-103562409D01*
X117417885Y-103600504D01*
X117341695Y-103638600D01*
X117303600Y-103676695D01*
X117265504Y-103752885D01*
X117265504Y-104514790D02*
X117265504Y-104590980D01*
X117303600Y-104667171D01*
X117341695Y-104705266D01*
X117417885Y-104743361D01*
X117570266Y-104781457D01*
X117760742Y-104781457D01*
X117913123Y-104743361D01*
X117989314Y-104705266D01*
X118027409Y-104667171D01*
X118065504Y-104590980D01*
X118065504Y-104514790D01*
X118027409Y-104438600D01*
X117989314Y-104400504D01*
X117913123Y-104362409D01*
X117760742Y-104324314D01*
X117570266Y-104324314D01*
X117417885Y-104362409D01*
X117341695Y-104400504D01*
X117303600Y-104438600D01*
X117265504Y-104514790D01*
X118065504Y-105124314D02*
X117265504Y-105124314D01*
X117836933Y-105390980D01*
X117265504Y-105657647D01*
X118065504Y-105657647D01*
X117836933Y-106000504D02*
X117836933Y-106381457D01*
X118065504Y-105924314D02*
X117265504Y-106190980D01*
X118065504Y-106457647D01*
X118141695Y-106533838D02*
X118141695Y-107143361D01*
X117646457Y-107333838D02*
X117646457Y-107600504D01*
X118065504Y-107714790D02*
X118065504Y-107333838D01*
X117265504Y-107333838D01*
X117265504Y-107714790D01*
X118065504Y-108476695D02*
X118065504Y-108019552D01*
X118065504Y-108248123D02*
X117265504Y-108248123D01*
X117379790Y-108171933D01*
X117455980Y-108095742D01*
X117494076Y-108019552D01*
X112318457Y-94621304D02*
X112318457Y-93821304D01*
X112013695Y-93821304D01*
X111937504Y-93859400D01*
X111899409Y-93897495D01*
X111861314Y-93973685D01*
X111861314Y-94087971D01*
X111899409Y-94164161D01*
X111937504Y-94202257D01*
X112013695Y-94240352D01*
X112318457Y-94240352D01*
X111518457Y-94621304D02*
X111518457Y-93821304D01*
X111518457Y-94202257D02*
X111061314Y-94202257D01*
X111061314Y-94621304D02*
X111061314Y-93821304D01*
X110527980Y-94240352D02*
X110527980Y-94621304D01*
X110794647Y-93821304D02*
X110527980Y-94240352D01*
X110261314Y-93821304D01*
X110185123Y-94697495D02*
X109575600Y-94697495D01*
X108927980Y-94621304D02*
X109194647Y-94240352D01*
X109385123Y-94621304D02*
X109385123Y-93821304D01*
X109080361Y-93821304D01*
X109004171Y-93859400D01*
X108966076Y-93897495D01*
X108927980Y-93973685D01*
X108927980Y-94087971D01*
X108966076Y-94164161D01*
X109004171Y-94202257D01*
X109080361Y-94240352D01*
X109385123Y-94240352D01*
X108623219Y-94583209D02*
X108508933Y-94621304D01*
X108318457Y-94621304D01*
X108242266Y-94583209D01*
X108204171Y-94545114D01*
X108166076Y-94468923D01*
X108166076Y-94392733D01*
X108204171Y-94316542D01*
X108242266Y-94278447D01*
X108318457Y-94240352D01*
X108470838Y-94202257D01*
X108547028Y-94164161D01*
X108585123Y-94126066D01*
X108623219Y-94049876D01*
X108623219Y-93973685D01*
X108585123Y-93897495D01*
X108547028Y-93859400D01*
X108470838Y-93821304D01*
X108280361Y-93821304D01*
X108166076Y-93859400D01*
X107937504Y-93821304D02*
X107480361Y-93821304D01*
X107708933Y-94621304D02*
X107708933Y-93821304D01*
X106794647Y-94621304D02*
X107251790Y-94621304D01*
X107023219Y-94621304D02*
X107023219Y-93821304D01*
X107099409Y-93935590D01*
X107175600Y-94011780D01*
X107251790Y-94049876D01*
D17*
X144390666Y-117419380D02*
X144390666Y-116419380D01*
X144009714Y-116419380D01*
X143914476Y-116467000D01*
X143866857Y-116514619D01*
X143819238Y-116609857D01*
X143819238Y-116752714D01*
X143866857Y-116847952D01*
X143914476Y-116895571D01*
X144009714Y-116943190D01*
X144390666Y-116943190D01*
X143485904Y-116419380D02*
X143247809Y-117419380D01*
X143057333Y-116705095D01*
X142866857Y-117419380D01*
X142628761Y-116419380D01*
X141676380Y-117419380D02*
X142009714Y-116943190D01*
X142247809Y-117419380D02*
X142247809Y-116419380D01*
X141866857Y-116419380D01*
X141771619Y-116467000D01*
X141724000Y-116514619D01*
X141676380Y-116609857D01*
X141676380Y-116752714D01*
X141724000Y-116847952D01*
X141771619Y-116895571D01*
X141866857Y-116943190D01*
X142247809Y-116943190D01*
X140771619Y-117419380D02*
X141247809Y-117419380D01*
X141247809Y-116419380D01*
X140438285Y-116895571D02*
X140104952Y-116895571D01*
X139962095Y-117419380D02*
X140438285Y-117419380D01*
X140438285Y-116419380D01*
X139962095Y-116419380D01*
X139533523Y-117419380D02*
X139533523Y-116419380D01*
X139295428Y-116419380D01*
X139152571Y-116467000D01*
X139057333Y-116562238D01*
X139009714Y-116657476D01*
X138962095Y-116847952D01*
X138962095Y-116990809D01*
X139009714Y-117181285D01*
X139057333Y-117276523D01*
X139152571Y-117371761D01*
X139295428Y-117419380D01*
X139533523Y-117419380D01*
X138009714Y-117419380D02*
X138581142Y-117419380D01*
X138295428Y-117419380D02*
X138295428Y-116419380D01*
X138390666Y-116562238D01*
X138485904Y-116657476D01*
X138581142Y-116705095D01*
D11*
X131895857Y-118681809D02*
X131933952Y-118796095D01*
X131972047Y-118834190D01*
X132048238Y-118872285D01*
X132162523Y-118872285D01*
X132238714Y-118834190D01*
X132276809Y-118796095D01*
X132314904Y-118719904D01*
X132314904Y-118415142D01*
X131514904Y-118415142D01*
X131514904Y-118681809D01*
X131553000Y-118758000D01*
X131591095Y-118796095D01*
X131667285Y-118834190D01*
X131743476Y-118834190D01*
X131819666Y-118796095D01*
X131857761Y-118758000D01*
X131895857Y-118681809D01*
X131895857Y-118415142D01*
X132086333Y-119177047D02*
X132086333Y-119558000D01*
X132314904Y-119100857D02*
X131514904Y-119367523D01*
X132314904Y-119634190D01*
X131514904Y-119786571D02*
X131514904Y-120243714D01*
X132314904Y-120015142D02*
X131514904Y-120015142D01*
X132391095Y-120319904D02*
X132391095Y-120929428D01*
X132314904Y-121500857D02*
X132314904Y-121119904D01*
X131514904Y-121119904D01*
X131514904Y-121919904D02*
X131514904Y-122072285D01*
X131553000Y-122148476D01*
X131629190Y-122224666D01*
X131781571Y-122262761D01*
X132048238Y-122262761D01*
X132200619Y-122224666D01*
X132276809Y-122148476D01*
X132314904Y-122072285D01*
X132314904Y-121919904D01*
X132276809Y-121843714D01*
X132200619Y-121767523D01*
X132048238Y-121729428D01*
X131781571Y-121729428D01*
X131629190Y-121767523D01*
X131553000Y-121843714D01*
X131514904Y-121919904D01*
X131514904Y-122529428D02*
X132314904Y-122719904D01*
X131743476Y-122872285D01*
X132314904Y-123024666D01*
X131514904Y-123215142D01*
X132314904Y-123938952D02*
X132314904Y-123481809D01*
X132314904Y-123710380D02*
X131514904Y-123710380D01*
X131629190Y-123634190D01*
X131705380Y-123558000D01*
X131743476Y-123481809D01*
X129698714Y-117945238D02*
X129736809Y-117907142D01*
X129774904Y-117792857D01*
X129774904Y-117716666D01*
X129736809Y-117602380D01*
X129660619Y-117526190D01*
X129584428Y-117488095D01*
X129432047Y-117450000D01*
X129317761Y-117450000D01*
X129165380Y-117488095D01*
X129089190Y-117526190D01*
X129013000Y-117602380D01*
X128974904Y-117716666D01*
X128974904Y-117792857D01*
X129013000Y-117907142D01*
X129051095Y-117945238D01*
X129774904Y-118288095D02*
X128974904Y-118288095D01*
X129355857Y-118288095D02*
X129355857Y-118745238D01*
X129774904Y-118745238D02*
X128974904Y-118745238D01*
X129546333Y-119088095D02*
X129546333Y-119469047D01*
X129774904Y-119011904D02*
X128974904Y-119278571D01*
X129774904Y-119545238D01*
X129774904Y-120269047D02*
X129393952Y-120002380D01*
X129774904Y-119811904D02*
X128974904Y-119811904D01*
X128974904Y-120116666D01*
X129013000Y-120192857D01*
X129051095Y-120230952D01*
X129127285Y-120269047D01*
X129241571Y-120269047D01*
X129317761Y-120230952D01*
X129355857Y-120192857D01*
X129393952Y-120116666D01*
X129393952Y-119811904D01*
X129013000Y-121030952D02*
X128974904Y-120954761D01*
X128974904Y-120840476D01*
X129013000Y-120726190D01*
X129089190Y-120650000D01*
X129165380Y-120611904D01*
X129317761Y-120573809D01*
X129432047Y-120573809D01*
X129584428Y-120611904D01*
X129660619Y-120650000D01*
X129736809Y-120726190D01*
X129774904Y-120840476D01*
X129774904Y-120916666D01*
X129736809Y-121030952D01*
X129698714Y-121069047D01*
X129432047Y-121069047D01*
X129432047Y-120916666D01*
X129774904Y-121411904D02*
X128974904Y-121411904D01*
X129774904Y-121792857D02*
X128974904Y-121792857D01*
X129774904Y-122250000D01*
X128974904Y-122250000D01*
X129013000Y-123050000D02*
X128974904Y-122973809D01*
X128974904Y-122859523D01*
X129013000Y-122745238D01*
X129089190Y-122669047D01*
X129165380Y-122630952D01*
X129317761Y-122592857D01*
X129432047Y-122592857D01*
X129584428Y-122630952D01*
X129660619Y-122669047D01*
X129736809Y-122745238D01*
X129774904Y-122859523D01*
X129774904Y-122935714D01*
X129736809Y-123050000D01*
X129698714Y-123088095D01*
X129432047Y-123088095D01*
X129432047Y-122935714D01*
X129774904Y-123850000D02*
X129774904Y-123392857D01*
X129774904Y-123621428D02*
X128974904Y-123621428D01*
X129089190Y-123545238D01*
X129165380Y-123469047D01*
X129203476Y-123392857D01*
X130968714Y-117888095D02*
X131006809Y-117850000D01*
X131044904Y-117735714D01*
X131044904Y-117659523D01*
X131006809Y-117545238D01*
X130930619Y-117469047D01*
X130854428Y-117430952D01*
X130702047Y-117392857D01*
X130587761Y-117392857D01*
X130435380Y-117430952D01*
X130359190Y-117469047D01*
X130283000Y-117545238D01*
X130244904Y-117659523D01*
X130244904Y-117735714D01*
X130283000Y-117850000D01*
X130321095Y-117888095D01*
X130244904Y-118383333D02*
X130244904Y-118535714D01*
X130283000Y-118611904D01*
X130359190Y-118688095D01*
X130511571Y-118726190D01*
X130778238Y-118726190D01*
X130930619Y-118688095D01*
X131006809Y-118611904D01*
X131044904Y-118535714D01*
X131044904Y-118383333D01*
X131006809Y-118307142D01*
X130930619Y-118230952D01*
X130778238Y-118192857D01*
X130511571Y-118192857D01*
X130359190Y-118230952D01*
X130283000Y-118307142D01*
X130244904Y-118383333D01*
X131044904Y-119069047D02*
X130244904Y-119069047D01*
X130816333Y-119335714D01*
X130244904Y-119602380D01*
X131044904Y-119602380D01*
X131044904Y-119983333D02*
X130244904Y-119983333D01*
X130244904Y-120288095D01*
X130283000Y-120364285D01*
X130321095Y-120402380D01*
X130397285Y-120440476D01*
X130511571Y-120440476D01*
X130587761Y-120402380D01*
X130625857Y-120364285D01*
X130663952Y-120288095D01*
X130663952Y-119983333D01*
X131044904Y-121164285D02*
X131044904Y-120783333D01*
X130244904Y-120783333D01*
X130625857Y-121430952D02*
X130625857Y-121697619D01*
X131044904Y-121811904D02*
X131044904Y-121430952D01*
X130244904Y-121430952D01*
X130244904Y-121811904D01*
X130244904Y-122040476D02*
X130244904Y-122497619D01*
X131044904Y-122269047D02*
X130244904Y-122269047D01*
X130625857Y-122764285D02*
X130625857Y-123030952D01*
X131044904Y-123145238D02*
X131044904Y-122764285D01*
X130244904Y-122764285D01*
X130244904Y-123145238D01*
X131044904Y-123907142D02*
X131044904Y-123450000D01*
X131044904Y-123678571D02*
X130244904Y-123678571D01*
X130359190Y-123602380D01*
X130435380Y-123526190D01*
X130473476Y-123450000D01*
D24*
D12*
X130168298Y-77825379D02*
X130273060Y-77772998D01*
X130325440Y-77720617D01*
X130377821Y-77615855D01*
X130377821Y-77301569D01*
X130325440Y-77196807D01*
X130273060Y-77144426D01*
X130168298Y-77092045D01*
X130011155Y-77092045D01*
X129906393Y-77144426D01*
X129854012Y-77196807D01*
X129801631Y-77301569D01*
X129801631Y-77615855D01*
X129854012Y-77720617D01*
X129906393Y-77772998D01*
X130011155Y-77825379D01*
X130168298Y-77825379D01*
X129330202Y-77092045D02*
X129330202Y-78192045D01*
X129330202Y-77144426D02*
X129225440Y-77092045D01*
X129015917Y-77092045D01*
X128911155Y-77144426D01*
X128858774Y-77196807D01*
X128806393Y-77301569D01*
X128806393Y-77615855D01*
X128858774Y-77720617D01*
X128911155Y-77772998D01*
X129015917Y-77825379D01*
X129225440Y-77825379D01*
X129330202Y-77772998D01*
X127915917Y-77772998D02*
X128020679Y-77825379D01*
X128230202Y-77825379D01*
X128334964Y-77772998D01*
X128387345Y-77668236D01*
X128387345Y-77249188D01*
X128334964Y-77144426D01*
X128230202Y-77092045D01*
X128020679Y-77092045D01*
X127915917Y-77144426D01*
X127863536Y-77249188D01*
X127863536Y-77353950D01*
X128387345Y-77458712D01*
X127392107Y-77092045D02*
X127392107Y-77825379D01*
X127392107Y-77196807D02*
X127339726Y-77144426D01*
X127234964Y-77092045D01*
X127077821Y-77092045D01*
X126973060Y-77144426D01*
X126920679Y-77249188D01*
X126920679Y-77825379D01*
D28*
X125852797Y-77871580D02*
X125852797Y-76871580D01*
X125424225Y-77871580D02*
X125424225Y-77347771D01*
X125471844Y-77252533D01*
X125567082Y-77204914D01*
X125709940Y-77204914D01*
X125805178Y-77252533D01*
X125852797Y-77300152D01*
X124519463Y-77871580D02*
X124519463Y-77347771D01*
X124567082Y-77252533D01*
X124662320Y-77204914D01*
X124852797Y-77204914D01*
X124948035Y-77252533D01*
X124519463Y-77823961D02*
X124614701Y-77871580D01*
X124852797Y-77871580D01*
X124948035Y-77823961D01*
X124995654Y-77728723D01*
X124995654Y-77633485D01*
X124948035Y-77538247D01*
X124852797Y-77490628D01*
X124614701Y-77490628D01*
X124519463Y-77443009D01*
X124043273Y-77871580D02*
X124043273Y-77204914D01*
X124043273Y-77395390D02*
X123995654Y-77300152D01*
X123948035Y-77252533D01*
X123852797Y-77204914D01*
X123757559Y-77204914D01*
X122995654Y-77871580D02*
X122995654Y-76871580D01*
X122995654Y-77823961D02*
X123090892Y-77871580D01*
X123281368Y-77871580D01*
X123376606Y-77823961D01*
X123424225Y-77776342D01*
X123471844Y-77681104D01*
X123471844Y-77395390D01*
X123424225Y-77300152D01*
X123376606Y-77252533D01*
X123281368Y-77204914D01*
X123090892Y-77204914D01*
X122995654Y-77252533D01*
X122614701Y-77204914D02*
X122424225Y-77871580D01*
X122233749Y-77395390D01*
X122043273Y-77871580D01*
X121852797Y-77204914D01*
X121043273Y-77871580D02*
X121043273Y-77347771D01*
X121090892Y-77252533D01*
X121186130Y-77204914D01*
X121376606Y-77204914D01*
X121471844Y-77252533D01*
X121043273Y-77823961D02*
X121138511Y-77871580D01*
X121376606Y-77871580D01*
X121471844Y-77823961D01*
X121519463Y-77728723D01*
X121519463Y-77633485D01*
X121471844Y-77538247D01*
X121376606Y-77490628D01*
X121138511Y-77490628D01*
X121043273Y-77443009D01*
X120567082Y-77871580D02*
X120567082Y-77204914D01*
X120567082Y-77395390D02*
X120519463Y-77300152D01*
X120471844Y-77252533D01*
X120376606Y-77204914D01*
X120281368Y-77204914D01*
X119567082Y-77823961D02*
X119662320Y-77871580D01*
X119852797Y-77871580D01*
X119948035Y-77823961D01*
X119995654Y-77728723D01*
X119995654Y-77347771D01*
X119948035Y-77252533D01*
X119852797Y-77204914D01*
X119662320Y-77204914D01*
X119567082Y-77252533D01*
X119519463Y-77347771D01*
X119519463Y-77443009D01*
X119995654Y-77538247D01*
D12*
X92343788Y-70029767D02*
X92343788Y-68329767D01*
X91772360Y-68329767D01*
X91629502Y-68410720D01*
X91558074Y-68491672D01*
X91486645Y-68653577D01*
X91486645Y-68896434D01*
X91558074Y-69058339D01*
X91629502Y-69139291D01*
X91772360Y-69220243D01*
X92343788Y-69220243D01*
X90843788Y-70029767D02*
X90843788Y-68329767D01*
X90843788Y-68977386D02*
X90700931Y-68896434D01*
X90415217Y-68896434D01*
X90272360Y-68977386D01*
X90200931Y-69058339D01*
X90129502Y-69220243D01*
X90129502Y-69705958D01*
X90200931Y-69867862D01*
X90272360Y-69948815D01*
X90415217Y-70029767D01*
X90700931Y-70029767D01*
X90843788Y-69948815D01*
D29*
X134431193Y-92760800D02*
X134515860Y-92845466D01*
X134769860Y-92930133D01*
X134939193Y-92930133D01*
X135193193Y-92845466D01*
X135362526Y-92676133D01*
X135447193Y-92506800D01*
X135531860Y-92168133D01*
X135531860Y-91914133D01*
X135447193Y-91575466D01*
X135362526Y-91406133D01*
X135193193Y-91236800D01*
X134939193Y-91152133D01*
X134769860Y-91152133D01*
X134515860Y-91236800D01*
X134431193Y-91321466D01*
X133415193Y-92930133D02*
X133584526Y-92845466D01*
X133669193Y-92760800D01*
X133753860Y-92591466D01*
X133753860Y-92083466D01*
X133669193Y-91914133D01*
X133584526Y-91829466D01*
X133415193Y-91744800D01*
X133161193Y-91744800D01*
X132991860Y-91829466D01*
X132907193Y-91914133D01*
X132822526Y-92083466D01*
X132822526Y-92591466D01*
X132907193Y-92760800D01*
X132991860Y-92845466D01*
X133161193Y-92930133D01*
X133415193Y-92930133D01*
X132060526Y-92930133D02*
X132060526Y-91744800D01*
X132060526Y-91914133D02*
X131975860Y-91829466D01*
X131806526Y-91744800D01*
X131552526Y-91744800D01*
X131383193Y-91829466D01*
X131298526Y-91998800D01*
X131298526Y-92930133D01*
X131298526Y-91998800D02*
X131213860Y-91829466D01*
X131044526Y-91744800D01*
X130790526Y-91744800D01*
X130621193Y-91829466D01*
X130536526Y-91998800D01*
X130536526Y-92930133D01*
X129689860Y-91744800D02*
X129689860Y-93522800D01*
X129689860Y-91829466D02*
X129520526Y-91744800D01*
X129181860Y-91744800D01*
X129012526Y-91829466D01*
X128927860Y-91914133D01*
X128843193Y-92083466D01*
X128843193Y-92591466D01*
X128927860Y-92760800D01*
X129012526Y-92845466D01*
X129181860Y-92930133D01*
X129520526Y-92930133D01*
X129689860Y-92845466D01*
X127827193Y-92930133D02*
X127996526Y-92845466D01*
X128081193Y-92676133D01*
X128081193Y-91152133D01*
X127149860Y-92930133D02*
X127149860Y-91744800D01*
X127149860Y-91152133D02*
X127234526Y-91236800D01*
X127149860Y-91321466D01*
X127065193Y-91236800D01*
X127149860Y-91152133D01*
X127149860Y-91321466D01*
X125541193Y-92930133D02*
X125541193Y-91998800D01*
X125625860Y-91829466D01*
X125795193Y-91744800D01*
X126133860Y-91744800D01*
X126303193Y-91829466D01*
X125541193Y-92845466D02*
X125710526Y-92930133D01*
X126133860Y-92930133D01*
X126303193Y-92845466D01*
X126387860Y-92676133D01*
X126387860Y-92506800D01*
X126303193Y-92337466D01*
X126133860Y-92252800D01*
X125710526Y-92252800D01*
X125541193Y-92168133D01*
X124694526Y-91744800D02*
X124694526Y-92930133D01*
X124694526Y-91914133D02*
X124609860Y-91829466D01*
X124440526Y-91744800D01*
X124186526Y-91744800D01*
X124017193Y-91829466D01*
X123932526Y-91998800D01*
X123932526Y-92930133D01*
X123339860Y-91744800D02*
X122662526Y-91744800D01*
X123085860Y-91152133D02*
X123085860Y-92676133D01*
X123001193Y-92845466D01*
X122831860Y-92930133D01*
X122662526Y-92930133D01*
D20*
X133852634Y-89825081D02*
X134519300Y-88872700D01*
X134995491Y-89825081D02*
X134995491Y-87825081D01*
X134233586Y-87825081D01*
X134043110Y-87920320D01*
X133947872Y-88015558D01*
X133852634Y-88206034D01*
X133852634Y-88491748D01*
X133947872Y-88682224D01*
X134043110Y-88777462D01*
X134233586Y-88872700D01*
X134995491Y-88872700D01*
X132709777Y-89825081D02*
X132900253Y-89729843D01*
X132995491Y-89634605D01*
X133090729Y-89444129D01*
X133090729Y-88872700D01*
X132995491Y-88682224D01*
X132900253Y-88586986D01*
X132709777Y-88491748D01*
X132424062Y-88491748D01*
X132233586Y-88586986D01*
X132138348Y-88682224D01*
X132043110Y-88872700D01*
X132043110Y-89444129D01*
X132138348Y-89634605D01*
X132233586Y-89729843D01*
X132424062Y-89825081D01*
X132709777Y-89825081D01*
X131185967Y-89825081D02*
X131185967Y-87825081D01*
X131185967Y-88777462D02*
X130043110Y-88777462D01*
X130043110Y-89825081D02*
X130043110Y-87825081D01*
X129185967Y-89729843D02*
X128900253Y-89825081D01*
X128424062Y-89825081D01*
X128233586Y-89729843D01*
X128138348Y-89634605D01*
X128043110Y-89444129D01*
X128043110Y-89253653D01*
X128138348Y-89063177D01*
X128233586Y-88967939D01*
X128424062Y-88872700D01*
X128805015Y-88777462D01*
X128995491Y-88682224D01*
X129090729Y-88586986D01*
X129185967Y-88396510D01*
X129185967Y-88206034D01*
X129090729Y-88015558D01*
X128995491Y-87920320D01*
X128805015Y-87825081D01*
X128328824Y-87825081D01*
X128043110Y-87920320D01*
M02*
