G04 #@! TF.GenerationSoftware,KiCad,Pcbnew,5.1.0-rc2-unknown-036be7d~80~ubuntu16.04.1*
G04 #@! TF.CreationDate,2019-04-19T14:17:20+03:00*
G04 #@! TF.ProjectId,ESP32-EVB_Rev_H,45535033-322d-4455-9642-5f5265765f48,H*
G04 #@! TF.SameCoordinates,Original*
G04 #@! TF.FileFunction,Paste,Top*
G04 #@! TF.FilePolarity,Positive*
%FSLAX46Y46*%
G04 Gerber Fmt 4.6, Leading zero omitted, Abs format (unit mm)*
G04 Created by KiCad (PCBNEW 5.1.0-rc2-unknown-036be7d~80~ubuntu16.04.1) date 2019-04-19 14:17:20*
%MOMM*%
%LPD*%
G04 APERTURE LIST*
%ADD10C,0.200000*%
%ADD11R,1.200000X1.400000*%
%ADD12R,1.016000X1.016000*%
%ADD13R,0.500000X1.650000*%
%ADD14R,0.325000X1.650000*%
%ADD15R,1.100000X1.000000*%
%ADD16R,1.524000X1.270000*%
%ADD17R,1.778000X1.270000*%
%ADD18R,1.778000X2.286000*%
%ADD19R,1.400000X1.000000*%
%ADD20R,1.524000X1.778000*%
%ADD21R,1.778000X1.524000*%
%ADD22R,4.826000X1.100000*%
%ADD23R,1.700000X2.000000*%
%ADD24R,1.778000X1.016000*%
%ADD25R,0.800000X0.800000*%
%ADD26R,1.270000X1.524000*%
%ADD27R,1.500000X3.100000*%
%ADD28R,1.500000X0.800000*%
%ADD29R,0.230000X0.780000*%
%ADD30R,0.780000X0.230000*%
%ADD31R,1.270000X0.325000*%
%ADD32R,2.200000X0.600000*%
%ADD33R,1.200000X1.800000*%
%ADD34R,2.101600X1.001600*%
%ADD35R,1.001600X2.101600*%
%ADD36R,1.016000X0.381000*%
%ADD37R,1.016000X0.635000*%
%ADD38R,0.381000X1.016000*%
%ADD39R,0.635000X1.016000*%
%ADD40R,0.550000X1.200000*%
%ADD41R,1.000000X1.400000*%
%ADD42R,1.200000X0.550000*%
%ADD43R,3.000000X1.600000*%
G04 APERTURE END LIST*
D10*
X101549000Y-97244000D02*
X101549000Y-96444000D01*
X100749000Y-97244000D02*
X101549000Y-97244000D01*
X100749000Y-96444000D02*
X100749000Y-97244000D01*
X101549000Y-96444000D02*
X100749000Y-96444000D01*
X101549000Y-96544000D02*
X100749000Y-96544000D01*
X101549000Y-96644000D02*
X100749000Y-96644000D01*
X101549000Y-96744000D02*
X100749000Y-96744000D01*
X101549000Y-96844000D02*
X100749000Y-96844000D01*
X101549000Y-96944000D02*
X100749000Y-96944000D01*
X101549000Y-97044000D02*
X100749000Y-97044000D01*
X101549000Y-97144000D02*
X100749000Y-97144000D01*
X99149000Y-97144000D02*
X98349000Y-97144000D01*
X99149000Y-97044000D02*
X98349000Y-97044000D01*
X99149000Y-96944000D02*
X98349000Y-96944000D01*
X99149000Y-96844000D02*
X98349000Y-96844000D01*
X99149000Y-96744000D02*
X98349000Y-96744000D01*
X99149000Y-96644000D02*
X98349000Y-96644000D01*
X99149000Y-96544000D02*
X98349000Y-96544000D01*
X99149000Y-96444000D02*
X98349000Y-96444000D01*
X98349000Y-96444000D02*
X98349000Y-97244000D01*
X98349000Y-97244000D02*
X99149000Y-97244000D01*
X99149000Y-97244000D02*
X99149000Y-96444000D01*
X101549000Y-99544000D02*
X100749000Y-99544000D01*
X101549000Y-99444000D02*
X100749000Y-99444000D01*
X101549000Y-99344000D02*
X100749000Y-99344000D01*
X101549000Y-99244000D02*
X100749000Y-99244000D01*
X101549000Y-99144000D02*
X100749000Y-99144000D01*
X101549000Y-99044000D02*
X100749000Y-99044000D01*
X101549000Y-98944000D02*
X100749000Y-98944000D01*
X101549000Y-98844000D02*
X100749000Y-98844000D01*
X100749000Y-98844000D02*
X100749000Y-99644000D01*
X100749000Y-99644000D02*
X101549000Y-99644000D01*
X101549000Y-99644000D02*
X101549000Y-98844000D01*
X99149000Y-99644000D02*
X99149000Y-98844000D01*
X98349000Y-99644000D02*
X99149000Y-99644000D01*
X98349000Y-98844000D02*
X98349000Y-99644000D01*
X99149000Y-98844000D02*
X98349000Y-98844000D01*
X99149000Y-98944000D02*
X98349000Y-98944000D01*
X99149000Y-99044000D02*
X98349000Y-99044000D01*
X99149000Y-99144000D02*
X98349000Y-99144000D01*
X99149000Y-99244000D02*
X98349000Y-99244000D01*
X99149000Y-99344000D02*
X98349000Y-99344000D01*
X99149000Y-99444000D02*
X98349000Y-99444000D01*
X99149000Y-99544000D02*
X98349000Y-99544000D01*
X99749000Y-96444000D02*
X100149000Y-96444000D01*
X99749000Y-97244000D02*
X99749000Y-96444000D01*
X100149000Y-97244000D02*
X99749000Y-97244000D01*
X100149000Y-96444000D02*
X100149000Y-97244000D01*
X100049000Y-96444000D02*
X100049000Y-97244000D01*
X99949000Y-96444000D02*
X99949000Y-97244000D01*
X99849000Y-96444000D02*
X99849000Y-97244000D01*
X99849000Y-98844000D02*
X99849000Y-99644000D01*
X99949000Y-98844000D02*
X99949000Y-99644000D01*
X100049000Y-98844000D02*
X100049000Y-99644000D01*
X100149000Y-98844000D02*
X100149000Y-99644000D01*
X100149000Y-99644000D02*
X99749000Y-99644000D01*
X99749000Y-99644000D02*
X99749000Y-98844000D01*
X99749000Y-98844000D02*
X100149000Y-98844000D01*
X101549000Y-98244000D02*
X101549000Y-97844000D01*
X100749000Y-98244000D02*
X101549000Y-98244000D01*
X100749000Y-97844000D02*
X100749000Y-98244000D01*
X101549000Y-97844000D02*
X100749000Y-97844000D01*
X101549000Y-97944000D02*
X100749000Y-97944000D01*
X100749000Y-98044000D02*
X101549000Y-98044000D01*
X101549000Y-98144000D02*
X100749000Y-98144000D01*
X99149000Y-98144000D02*
X98349000Y-98144000D01*
X98349000Y-98044000D02*
X99149000Y-98044000D01*
X99149000Y-97944000D02*
X98349000Y-97944000D01*
X99149000Y-97844000D02*
X98349000Y-97844000D01*
X98349000Y-97844000D02*
X98349000Y-98244000D01*
X98349000Y-98244000D02*
X99149000Y-98244000D01*
X99149000Y-98244000D02*
X99149000Y-97844000D01*
D11*
X88011000Y-100838000D03*
X88011000Y-98298000D03*
X90551000Y-98298000D03*
X90551000Y-100838000D03*
D12*
X85344000Y-115824000D03*
X87122000Y-115824000D03*
D13*
X131612500Y-135153000D03*
D14*
X132350000Y-135153000D03*
X133000000Y-135153000D03*
X133650000Y-135153000D03*
D13*
X134387500Y-135153000D03*
D15*
X131500000Y-139703000D03*
X134500000Y-139703000D03*
D16*
X130175000Y-131572000D03*
X130175000Y-129540000D03*
D17*
X71247000Y-102997000D03*
X79121000Y-102997000D03*
X71247000Y-97155000D03*
X79121000Y-97155000D03*
D12*
X104775000Y-92583000D03*
X104775000Y-90805000D03*
D18*
X118854000Y-126746000D03*
X123208000Y-126746000D03*
D12*
X83693000Y-121285000D03*
X83693000Y-119507000D03*
X83693000Y-124460000D03*
X83693000Y-122682000D03*
D19*
X87587000Y-122682000D03*
X85387000Y-123632000D03*
X85387000Y-121732000D03*
X87587000Y-125984000D03*
X85387000Y-126934000D03*
X85387000Y-125034000D03*
D12*
X86360000Y-120015000D03*
X88138000Y-120015000D03*
D16*
X120142000Y-115062000D03*
X120142000Y-117094000D03*
X122174000Y-115062000D03*
X122174000Y-117094000D03*
D12*
X112649000Y-114300000D03*
X114427000Y-114300000D03*
X112649000Y-115824000D03*
X114427000Y-115824000D03*
X119888000Y-129540000D03*
X119888000Y-131318000D03*
X86614000Y-131953000D03*
X86614000Y-130175000D03*
X88138000Y-131953000D03*
X88138000Y-130175000D03*
X84963000Y-96901000D03*
X84963000Y-98679000D03*
D20*
X74168000Y-130429000D03*
X71374000Y-130429000D03*
D12*
X127381000Y-105029000D03*
X129159000Y-105029000D03*
X127381000Y-106553000D03*
X129159000Y-106553000D03*
D21*
X134239000Y-111379000D03*
X134239000Y-114173000D03*
D12*
X83185000Y-98806000D03*
X81407000Y-98806000D03*
X81407000Y-97282000D03*
X83185000Y-97282000D03*
X93980000Y-118745000D03*
X95758000Y-118745000D03*
X129032000Y-127381000D03*
X129032000Y-125603000D03*
D22*
X97917000Y-112395000D03*
X107315000Y-112395000D03*
D23*
X128143000Y-123150000D03*
X128143000Y-118150000D03*
D12*
X79502000Y-99314000D03*
X79502000Y-101092000D03*
X73406000Y-128143000D03*
X71628000Y-128143000D03*
X122682000Y-111379000D03*
X122682000Y-109601000D03*
X121158000Y-111379000D03*
X121158000Y-109601000D03*
X110109000Y-119253000D03*
X108331000Y-119253000D03*
X93980000Y-121158000D03*
X95758000Y-121158000D03*
X111252000Y-114300000D03*
X109474000Y-114300000D03*
X93980000Y-114300000D03*
X95758000Y-114300000D03*
D24*
X92075000Y-75819000D03*
X92075000Y-79375000D03*
X92075000Y-86995000D03*
X92075000Y-83439000D03*
D12*
X85344000Y-110236000D03*
X87122000Y-110236000D03*
X93980000Y-116967000D03*
X95758000Y-116967000D03*
X113792000Y-122301000D03*
X113792000Y-120523000D03*
X92710000Y-93091000D03*
X94488000Y-93091000D03*
X106807000Y-100203000D03*
X105029000Y-100203000D03*
X89662000Y-95758000D03*
X87884000Y-95758000D03*
X107950000Y-115951000D03*
X109728000Y-115951000D03*
X90170000Y-103378000D03*
X88392000Y-103378000D03*
X100076000Y-92583000D03*
X100076000Y-90805000D03*
X102362000Y-92583000D03*
X102362000Y-90805000D03*
X96266000Y-92583000D03*
X96266000Y-90805000D03*
X98552000Y-92583000D03*
X98552000Y-90805000D03*
X112649000Y-85852000D03*
X112649000Y-84074000D03*
X91694000Y-71501000D03*
X91694000Y-73279000D03*
X85852000Y-101219000D03*
X85852000Y-102997000D03*
X97790000Y-134874000D03*
X99568000Y-134874000D03*
X112776000Y-127000000D03*
X112776000Y-125222000D03*
X89662000Y-130175000D03*
X89662000Y-131953000D03*
X89662000Y-133985000D03*
X87884000Y-133985000D03*
X122301000Y-120396000D03*
X120523000Y-120396000D03*
X81153000Y-103759000D03*
X82931000Y-103759000D03*
X83185000Y-95758000D03*
X81407000Y-95758000D03*
X111887000Y-70485000D03*
X113665000Y-70485000D03*
X108077000Y-95123000D03*
X109855000Y-95123000D03*
X108077000Y-96647000D03*
X109855000Y-96647000D03*
X112014000Y-97282000D03*
X113792000Y-97282000D03*
X122936000Y-103124000D03*
X122936000Y-101346000D03*
X122936000Y-104521000D03*
X122936000Y-106299000D03*
D25*
X119888000Y-132969000D03*
X119888000Y-134493000D03*
X113538000Y-68834000D03*
X112014000Y-68834000D03*
X113538000Y-99695000D03*
X112014000Y-99695000D03*
D23*
X124841000Y-118150000D03*
X124841000Y-123150000D03*
D12*
X105029000Y-98679000D03*
X106807000Y-98679000D03*
X92710000Y-98298000D03*
X94488000Y-98298000D03*
X92710000Y-99822000D03*
X94488000Y-99822000D03*
X92710000Y-94615000D03*
X94488000Y-94615000D03*
X105410000Y-94234000D03*
X103632000Y-94234000D03*
X97790000Y-104902000D03*
X97790000Y-103124000D03*
X108331000Y-98679000D03*
X108331000Y-100457000D03*
X106426000Y-92583000D03*
X106426000Y-90805000D03*
D26*
X87249000Y-112014000D03*
X85217000Y-112014000D03*
D12*
X104140000Y-103124000D03*
X104140000Y-104902000D03*
X105664000Y-103124000D03*
X105664000Y-104902000D03*
X116967000Y-127254000D03*
X115189000Y-127254000D03*
X116967000Y-125730000D03*
X115189000Y-125730000D03*
X91948000Y-122809000D03*
X90170000Y-122809000D03*
D16*
X128143000Y-131572000D03*
X128143000Y-129540000D03*
D27*
X81577000Y-114275000D03*
X81577000Y-108215000D03*
D28*
X72327000Y-107275000D03*
X72327000Y-108375000D03*
X72327000Y-109475000D03*
X72327000Y-110575000D03*
X72327000Y-111675000D03*
X72327000Y-112775000D03*
X72327000Y-113875000D03*
X72327000Y-114975000D03*
D29*
X98199000Y-95594000D03*
X98699000Y-95594000D03*
X99199000Y-95594000D03*
X99699000Y-95594000D03*
X100199000Y-95594000D03*
X100699000Y-95594000D03*
X101199000Y-95594000D03*
X101699000Y-95594000D03*
D30*
X102399000Y-96294000D03*
X102399000Y-96794000D03*
X102399000Y-97294000D03*
X102399000Y-97794000D03*
X102399000Y-98294000D03*
X102399000Y-98794000D03*
X102399000Y-99294000D03*
X102399000Y-99794000D03*
D29*
X101699000Y-100494000D03*
X101199000Y-100494000D03*
X100699000Y-100494000D03*
X100199000Y-100494000D03*
X99699000Y-100494000D03*
X99199000Y-100494000D03*
X98699000Y-100494000D03*
X98199000Y-100494000D03*
D30*
X97499000Y-99794000D03*
X97499000Y-99294000D03*
X97499000Y-98794000D03*
X97499000Y-98294000D03*
X97499000Y-97794000D03*
X97499000Y-97294000D03*
X97499000Y-96794000D03*
X97499000Y-96294000D03*
D31*
X105346500Y-122686000D03*
X105346500Y-122036000D03*
X105346500Y-121386000D03*
X105346500Y-120736000D03*
X105346500Y-120086000D03*
X105346500Y-119436000D03*
X105346500Y-118786000D03*
X105346500Y-118136000D03*
X105346500Y-117486000D03*
X105346500Y-116836000D03*
X98107500Y-116836000D03*
X98107500Y-117486000D03*
X98107500Y-118136000D03*
X98107500Y-118786000D03*
X98107500Y-119436000D03*
X98107500Y-120086000D03*
X98107500Y-120736000D03*
X98107500Y-121386000D03*
X98107500Y-122036000D03*
X98107500Y-122686000D03*
D32*
X130770000Y-108458000D03*
X130770000Y-109728000D03*
X130770000Y-110998000D03*
X130770000Y-112268000D03*
X125770000Y-112268000D03*
X125770000Y-110998000D03*
X125770000Y-109728000D03*
X125770000Y-108458000D03*
D33*
X79910000Y-83583000D03*
X79910000Y-80583000D03*
X78110000Y-83583000D03*
X78110000Y-80583000D03*
D34*
X71510000Y-74573000D03*
X71510000Y-75843000D03*
X71510000Y-77113000D03*
X71510000Y-78383000D03*
X71510000Y-79653000D03*
X71510000Y-80923000D03*
X71510000Y-82193000D03*
X71510000Y-83463000D03*
X71510000Y-84733000D03*
X71510000Y-86003000D03*
X71510000Y-87273000D03*
X71510000Y-88543000D03*
X71510000Y-89813000D03*
X71510000Y-91083000D03*
D35*
X74310000Y-92083000D03*
X75580000Y-92083000D03*
X76850000Y-92083000D03*
X78120000Y-92083000D03*
X79390000Y-92083000D03*
X80660000Y-92083000D03*
X81930000Y-92083000D03*
X83200000Y-92083000D03*
X84470000Y-92083000D03*
X85740000Y-92083000D03*
D34*
X88510000Y-91083000D03*
X88510000Y-89813000D03*
X88510000Y-88543000D03*
X88510000Y-87273000D03*
X88510000Y-86003000D03*
X88510000Y-84733000D03*
X88510000Y-83463000D03*
X88510000Y-82193000D03*
X88510000Y-80923000D03*
X88510000Y-79653000D03*
X88510000Y-78383000D03*
X88510000Y-77113000D03*
X88510000Y-75843000D03*
X88510000Y-74573000D03*
D36*
X84963000Y-106299000D03*
X84963000Y-105537000D03*
X86487000Y-106299000D03*
X86487000Y-105537000D03*
D37*
X84963000Y-107188000D03*
X86487000Y-107188000D03*
X84963000Y-104648000D03*
X86487000Y-104648000D03*
D38*
X94996000Y-104775000D03*
X94234000Y-104775000D03*
X94996000Y-103251000D03*
X94234000Y-103251000D03*
D39*
X95885000Y-104775000D03*
X95885000Y-103251000D03*
X93345000Y-104775000D03*
X93345000Y-103251000D03*
D38*
X100584000Y-103251000D03*
X101346000Y-103251000D03*
X100584000Y-104775000D03*
X101346000Y-104775000D03*
D39*
X99695000Y-103251000D03*
X99695000Y-104775000D03*
X102235000Y-103251000D03*
X102235000Y-104775000D03*
D40*
X115890000Y-118775000D03*
X116840000Y-118775000D03*
X117790000Y-118775000D03*
X115890000Y-116175000D03*
X117790000Y-116175000D03*
D19*
X120741440Y-103184960D03*
X120741440Y-101282500D03*
X118531640Y-102237540D03*
X92039440Y-117154960D03*
X92039440Y-115252500D03*
X89829640Y-116207540D03*
X91912440Y-120710960D03*
X91912440Y-118808500D03*
X89702640Y-119763540D03*
X84800440Y-132013960D03*
X84800440Y-130111500D03*
X82590640Y-131066540D03*
D41*
X108016040Y-93309440D03*
X109918500Y-93309440D03*
X108963460Y-91099640D03*
D19*
X112141000Y-73284000D03*
X112141000Y-77084000D03*
X112141000Y-90556000D03*
X112141000Y-94356000D03*
D41*
X106040000Y-134874000D03*
X102240000Y-134874000D03*
X127314960Y-125511560D03*
X125412500Y-125511560D03*
X126367540Y-127721360D03*
D19*
X122265440Y-123885960D03*
X122265440Y-121983500D03*
X120055640Y-122938540D03*
D42*
X84104000Y-102169000D03*
X84104000Y-101219000D03*
X84104000Y-100269000D03*
X81504000Y-102169000D03*
X81504000Y-100269000D03*
D16*
X87249000Y-113919000D03*
X85217000Y-113919000D03*
D26*
X107569000Y-104648000D03*
X107569000Y-102616000D03*
D16*
X95758000Y-122809000D03*
X93726000Y-122809000D03*
D43*
X117221000Y-123374000D03*
X117221000Y-120974000D03*
D12*
X115062000Y-102489000D03*
X116840000Y-102489000D03*
D41*
X113725960Y-102524560D03*
X111823500Y-102524560D03*
X112778540Y-104734360D03*
D19*
X120614440Y-106486960D03*
X120614440Y-104584500D03*
X118404640Y-105539540D03*
D26*
X109601000Y-102616000D03*
X109601000Y-104648000D03*
D12*
X115062000Y-105537000D03*
X116840000Y-105537000D03*
X115062000Y-104013000D03*
X116840000Y-104013000D03*
D25*
X115570000Y-132969000D03*
X115570000Y-134493000D03*
D12*
X115951000Y-130048000D03*
X117729000Y-130048000D03*
D40*
X134051000Y-132237000D03*
X135001000Y-132237000D03*
X135951000Y-132237000D03*
X134051000Y-129637000D03*
X135951000Y-129637000D03*
D12*
X132334000Y-129667000D03*
X132334000Y-131445000D03*
X112268000Y-134620000D03*
X114046000Y-134620000D03*
D41*
X111755000Y-123063000D03*
X107955000Y-123063000D03*
X107955000Y-121031000D03*
X111755000Y-121031000D03*
D12*
X112649000Y-131445000D03*
X114427000Y-131445000D03*
X112649000Y-129921000D03*
X114427000Y-129921000D03*
M02*
