%TF.GenerationSoftware,KiCad,Pcbnew,7.0.9-7.0.9~ubuntu22.04.1*%
%TF.CreationDate,2025-05-12T16:08:44+03:00*%
%TF.ProjectId,ESP32-EVB_Rev_L,45535033-322d-4455-9642-5f5265765f4c,L*%
%TF.SameCoordinates,PX425f360PY872a8a0*%
%TF.FileFunction,Soldermask,Bot*%
%TF.FilePolarity,Negative*%
%FSLAX46Y46*%
G04 Gerber Fmt 4.6, Leading zero omitted, Abs format (unit mm)*
G04 Created by KiCad (PCBNEW 7.0.9-7.0.9~ubuntu22.04.1) date 2025-05-12 16:08:44*
%MOMM*%
%LPD*%
G01*
G04 APERTURE LIST*
G04 Aperture macros list*
%AMRoundRect*
0 Rectangle with rounded corners*
0 $1 Rounding radius*
0 $2 $3 $4 $5 $6 $7 $8 $9 X,Y pos of 4 corners*
0 Add a 4 corners polygon primitive as box body*
4,1,4,$2,$3,$4,$5,$6,$7,$8,$9,$2,$3,0*
0 Add four circle primitives for the rounded corners*
1,1,$1+$1,$2,$3*
1,1,$1+$1,$4,$5*
1,1,$1+$1,$6,$7*
1,1,$1+$1,$8,$9*
0 Add four rect primitives between the rounded corners*
20,1,$1+$1,$2,$3,$4,$5,0*
20,1,$1+$1,$4,$5,$6,$7,0*
20,1,$1+$1,$6,$7,$8,$9,0*
20,1,$1+$1,$8,$9,$2,$3,0*%
G04 Aperture macros list end*
%ADD10C,3.101600*%
%ADD11C,1.625600*%
%ADD12C,2.101600*%
%ADD13RoundRect,0.050800X-0.762000X0.762000X-0.762000X-0.762000X0.762000X-0.762000X0.762000X0.762000X0*%
%ADD14C,3.149600*%
%ADD15RoundRect,0.050800X1.524000X-1.524000X1.524000X1.524000X-1.524000X1.524000X-1.524000X-1.524000X0*%
%ADD16C,3.401600*%
%ADD17C,1.301600*%
%ADD18C,6.401600*%
%ADD19RoundRect,0.050800X-0.889000X-0.889000X0.889000X-0.889000X0.889000X0.889000X-0.889000X0.889000X0*%
%ADD20C,1.879600*%
%ADD21O,2.101600X5.101600*%
%ADD22O,5.101600X2.101600*%
%ADD23C,2.641600*%
%ADD24RoundRect,0.050800X-0.800000X0.800000X-0.800000X-0.800000X0.800000X-0.800000X0.800000X0.800000X0*%
%ADD25RoundRect,0.050800X-0.850000X-0.850000X0.850000X-0.850000X0.850000X0.850000X-0.850000X0.850000X0*%
%ADD26C,1.801600*%
%ADD27C,3.301600*%
%ADD28C,1.511600*%
%ADD29C,1.751600*%
%ADD30C,2.801600*%
%ADD31RoundRect,0.050800X0.700000X-0.700000X0.700000X0.700000X-0.700000X0.700000X-0.700000X-0.700000X0*%
%ADD32C,1.501600*%
%ADD33C,0.701600*%
%ADD34O,1.301600X1.901600*%
%ADD35RoundRect,0.050800X0.584200X0.800100X-0.584200X0.800100X-0.584200X-0.800100X0.584200X-0.800100X0*%
%ADD36RoundRect,0.050800X0.381000X0.508000X-0.381000X0.508000X-0.381000X-0.508000X0.381000X-0.508000X0*%
%ADD37RoundRect,0.050800X0.254000X0.254000X-0.254000X0.254000X-0.254000X-0.254000X0.254000X-0.254000X0*%
%ADD38RoundRect,0.050800X-0.584200X-0.800100X0.584200X-0.800100X0.584200X0.800100X-0.584200X0.800100X0*%
%ADD39RoundRect,0.050800X-0.381000X-0.508000X0.381000X-0.508000X0.381000X0.508000X-0.381000X0.508000X0*%
%ADD40C,1.101600*%
G04 APERTURE END LIST*
D10*
%TO.C,U7*%
X8713000Y22192000D03*
X10313000Y14892000D03*
D11*
X2413000Y21082000D03*
X2413000Y18542000D03*
X2413000Y16002000D03*
%TD*%
D12*
%TO.C,U3*%
X9414000Y59649000D03*
%TD*%
D11*
%TO.C,LED3*%
X8763000Y8382000D03*
D13*
X8763000Y10922000D03*
%TD*%
D14*
%TO.C,PWR2*%
X70612000Y21837000D03*
D15*
X70612000Y16837000D03*
%TD*%
D16*
%TO.C,MH1*%
X71374000Y71374000D03*
%TD*%
D17*
%TO.C,MH2*%
X68961000Y3810000D03*
X69723000Y5461000D03*
X69723000Y2032000D03*
X71374000Y6223000D03*
D18*
X71374000Y3810000D03*
D17*
X71374000Y1397000D03*
X73025000Y5461000D03*
X73025000Y2159000D03*
X73787000Y3810000D03*
%TD*%
%TO.C,MH3*%
X1397000Y3810000D03*
X2159000Y5461000D03*
X2159000Y2032000D03*
X3810000Y6223000D03*
D18*
X3810000Y3810000D03*
D17*
X3810000Y1397000D03*
X5461000Y5461000D03*
X5461000Y2159000D03*
X6223000Y3810000D03*
%TD*%
D19*
%TO.C,EXT1*%
X8890000Y1524000D03*
D20*
X8890000Y4064000D03*
X11430000Y1524000D03*
X11430000Y4064000D03*
X13970000Y1524000D03*
X13970000Y4064000D03*
X16510000Y1524000D03*
X16510000Y4064000D03*
X19050000Y1524000D03*
X19050000Y4064000D03*
X21590000Y1524000D03*
X21590000Y4064000D03*
X24130000Y1524000D03*
X24130000Y4064000D03*
X26670000Y1524000D03*
X26670000Y4064000D03*
X29210000Y1524000D03*
X29210000Y4064000D03*
X31750000Y1524000D03*
X31750000Y4064000D03*
X34290000Y1524000D03*
X34290000Y4064000D03*
X36830000Y1524000D03*
X36830000Y4064000D03*
X39370000Y1524000D03*
X39370000Y4064000D03*
X41910000Y1524000D03*
X41910000Y4064000D03*
X44450000Y1524000D03*
X44450000Y4064000D03*
X46990000Y1524000D03*
X46990000Y4064000D03*
X49530000Y1524000D03*
X49530000Y4064000D03*
X52070000Y1524000D03*
X52070000Y4064000D03*
X54610000Y1524000D03*
X54610000Y4064000D03*
X57150000Y1524000D03*
X57150000Y4064000D03*
%TD*%
D15*
%TO.C,CON1*%
X70904000Y39958000D03*
D14*
X70904000Y44958000D03*
X70904000Y49958000D03*
%TD*%
D15*
%TO.C,CON2*%
X70904000Y54958000D03*
D14*
X70904000Y59958000D03*
X70904000Y64958000D03*
%TD*%
D21*
%TO.C,PWR1*%
X61341000Y19413000D03*
X67841000Y19413000D03*
D22*
X64641000Y23863000D03*
%TD*%
D23*
%TO.C,REL1*%
X61580000Y43276000D03*
X61580000Y55276000D03*
X47580000Y49276000D03*
X49580000Y55276000D03*
X49580000Y43276000D03*
%TD*%
%TO.C,REL2*%
X49580000Y60548000D03*
X49580000Y72548000D03*
X47580000Y66548000D03*
X61580000Y72548000D03*
X61580000Y60548000D03*
%TD*%
D24*
%TO.C,U4*%
X30353000Y43688000D03*
%TD*%
D25*
%TO.C,UEXT1*%
X26670000Y11430000D03*
D26*
X26670000Y13970000D03*
X29210000Y11430000D03*
X29210000Y13970000D03*
X31750000Y11430000D03*
X31750000Y13970000D03*
X34290000Y11430000D03*
X34290000Y13970000D03*
X36830000Y11430000D03*
X36830000Y13970000D03*
%TD*%
D27*
%TO.C,LAN1*%
X37719000Y63373000D03*
X26289000Y63373000D03*
D28*
X36459000Y56673000D03*
X35189000Y54133000D03*
X33919000Y56673000D03*
X32649000Y54133000D03*
X31379000Y56673000D03*
X30109000Y54133000D03*
X28839000Y56673000D03*
X27569000Y54133000D03*
D29*
X27934000Y68121500D03*
X38614000Y68121500D03*
D30*
X39804000Y60323000D03*
X24204000Y60323000D03*
D29*
X25394000Y68121500D03*
X36074000Y68121500D03*
%TD*%
D23*
%TO.C,CAN1*%
X70404000Y34417000D03*
X70404000Y30917000D03*
X70404000Y27417000D03*
%TD*%
D31*
%TO.C,BAT1*%
X68450460Y9405620D03*
D32*
X68447920Y11417300D03*
%TD*%
D33*
%TO.C,USB-UART1*%
X65404000Y5329000D03*
X61404000Y5329000D03*
D34*
X67004000Y6649000D03*
X59804000Y6649000D03*
X67004000Y3179000D03*
X59804000Y3179000D03*
%TD*%
D35*
%TO.C,PHY_RST1*%
X37973000Y44069000D03*
X36449000Y44069000D03*
%TD*%
D36*
%TO.C,5.0V/3.3V1*%
X51562000Y28956000D03*
D37*
X51181000Y28956000D03*
X50800000Y28956000D03*
D36*
X50419000Y28956000D03*
X49276000Y28956000D03*
%TD*%
D38*
%TO.C,CAN_T1*%
X64389000Y27432000D03*
X65913000Y27432000D03*
%TD*%
D39*
%TO.C,BAT/BUT1*%
X16383000Y12954000D03*
X17526000Y12954000D03*
X18669000Y12954000D03*
%TD*%
D40*
%TO.C,GND1*%
X73406000Y9906000D03*
%TD*%
M02*
