M48
; DRILL file {KiCad 7.0.9-7.0.9~ubuntu22.04.1} date 12.05.2025 (пн) 16:08:51
; FORMAT={-:-/ absolute / metric / decimal}
; #@! TF.CreationDate,2025-05-12T16:08:51+03:00
; #@! TF.GenerationSoftware,Kicad,Pcbnew,7.0.9-7.0.9~ubuntu22.04.1
; #@! TF.FileFunction,Plated,1,2,PTH
FMAT,2
METRIC
; #@! TA.AperFunction,Plated,PTH,ViaDrill
T1C0.300
; #@! TA.AperFunction,Plated,PTH,ViaDrill
T2C0.400
; #@! TA.AperFunction,Plated,PTH,ComponentDrill
T3C0.400
; #@! TA.AperFunction,Plated,PTH,ViaDrill
T4C0.500
; #@! TA.AperFunction,Plated,PTH,ViaDrill
T5C0.600
; #@! TA.AperFunction,Plated,PTH,ComponentDrill
T6C0.600
; #@! TA.AperFunction,Plated,PTH,ComponentDrill
T7C0.800
; #@! TA.AperFunction,Plated,PTH,ComponentDrill
T8C0.900
; #@! TA.AperFunction,Plated,PTH,ComponentDrill
T9C1.000
; #@! TA.AperFunction,Plated,PTH,ComponentDrill
T10C1.100
; #@! TA.AperFunction,Plated,PTH,ComponentDrill
T11C1.200
; #@! TA.AperFunction,Plated,PTH,ComponentDrill
T12C1.300
; #@! TA.AperFunction,Plated,PTH,ComponentDrill
T13C1.800
; #@! TA.AperFunction,Plated,PTH,ComponentDrill
T14C2.000
; #@! TA.AperFunction,Plated,PTH,ComponentDrill
T15C3.300
%
G90
G05
T1
X1.397Y43.307
X1.397Y24.892
X2.159Y39.878
X2.159Y23.876
X2.917Y41.91
X2.921Y43.053
X3.048Y22.987
X3.302Y64.516
X3.302Y63.246
X3.302Y61.976
X3.302Y60.706
X3.302Y59.436
X3.302Y51.816
X3.302Y50.546
X3.429Y58.166
X3.429Y9.652
X3.81Y56.896
X4.191Y54.102
X4.699Y55.372
X4.699Y54.61
X4.826Y8.636
X5.334Y14.986
X5.715Y34.671
X5.969Y42.418
X6.096Y35.306
X6.731Y46.609
X6.985Y47.371
X7.239Y46.101
X7.493Y51.181
X7.493Y17.145
X7.747Y45.593
X7.874Y47.371
X8.001Y28.321
X8.255Y51.181
X8.509Y28.829
X8.763Y47.371
X9.017Y51.181
X9.271Y18.161
X9.271Y17.399
X9.525Y47.371
X9.779Y18.923
X10.16Y9.652
X10.668Y44.577
X10.668Y43.815
X10.922Y24.638
X11.43Y53.086
X11.557Y52.324
X11.557Y51.562
X11.557Y7.493
X11.811Y40.513
X12.827Y45.974
X12.954Y46.99
X13.716Y46.99
X13.843Y32.258
X14.224Y37.211
X14.478Y44.704
X14.732Y55.88
X14.732Y55.118
X15.748Y26.67
X16.129Y55.372
X16.129Y54.61
X16.129Y53.594
X16.637Y47.117
X16.764Y42.799
X16.764Y20.066
X17.272Y44.958
X17.653Y22.543
X17.907Y10.795
X19.431Y10.795
X19.646Y36.869
X20.066Y43.878
X20.066Y43.243
X20.066Y16.891
X20.701Y37.211
X21.209Y12.319
X21.717Y51.689
X21.844Y33.147
X21.844Y12.827
X21.971Y32.385
X22.733Y8.128
X22.733Y7.366
X22.987Y33.782
X23.471Y33.377
X23.622Y10.033
X24.13Y5.969
X24.131Y51.441
X24.892Y51.435
X25.654Y6.985
X26.924Y39.497
X28.321Y39.878
X29.972Y7.747
X30.861Y39.497
X30.988Y7.747
X31.369Y40.259
X32.131Y39.751
X32.766Y46.228
X33.401Y45.974
X33.782Y42.037
X33.909Y44.577
X34.925Y45.847
X35.306Y12.7
X35.56Y45.212
X35.56Y14.986
X36.195Y42.926
X37.592Y7.874
X37.719Y9.017
X37.973Y9.906
X38.481Y8.89
X38.481Y8.001
X38.735Y5.715
X39.624Y33.042
X40.005Y5.969
X40.005Y40.386
X40.259Y10.668
X40.513Y33.274
X40.513Y8.128
X41.021Y9.779
X41.148Y8.89
X41.783Y53.594
X42.037Y32.512
X43.053Y32.004
X43.815Y30.988
X43.815Y30.382
X43.942Y70.358
X44.323Y35.941
X45.847Y32.385
X48.006Y8.509
X49.149Y11.938
X58.547Y9.017
X62.738Y7.747
X63.5Y7.747
T2
X4.318Y43.815
X27.559Y49.276
X36.83Y52.451
X42.418Y29.21
X43.688Y27.559
X46.482Y25.781
X46.517Y16.672
X46.863Y22.86
X47.209Y17.364
T3
X29.053Y44.188
X29.053Y43.188
X29.853Y44.988
X29.853Y42.388
X30.853Y44.988
X30.853Y42.388
X31.653Y44.188
X31.653Y43.188
T4
X25.654Y50.825
X29.845Y51.435
X33.909Y50.825
T5
X3.683Y67.183
X3.937Y14.859
X4.191Y51.308
X4.318Y47.371
X4.318Y46.101
X4.318Y40.894
X4.318Y38.735
X4.318Y37.338
X4.318Y33.528
X4.318Y32.258
X4.572Y26.162
X4.572Y23.622
X4.572Y22.606
X4.572Y21.59
X5.207Y51.308
X5.588Y26.162
X5.969Y67.437
X5.969Y63.627
X5.969Y60.452
X6.147Y53.086
X6.223Y58.039
X6.223Y17.272
X6.604Y26.162
X6.604Y18.288
X7.493Y65.659
X8.382Y18.669
X9.144Y67.437
X9.144Y63.627
X10.795Y65.659
X12.319Y67.437
X12.319Y63.627
X13.208Y34.29
X13.208Y33.274
X13.589Y65.659
X13.589Y57.785
X13.843Y59.69
X14.351Y63.627
X14.351Y61.849
X14.605Y38.354
X14.859Y67.437
X15.875Y41.783
X16.383Y65.659
X16.764Y33.274
X17.145Y67.183
X19.05Y27.813
X19.05Y21.971
X19.177Y35.179
X19.177Y34.163
X19.177Y23.876
X20.574Y32.766
X20.574Y31.623
X20.574Y30.48
X20.574Y25.273
X20.701Y70.932
X20.955Y17.653
X21.717Y53.594
X21.971Y36.957
X22.098Y67.056
X22.352Y16.764
X22.86Y53.594
X22.987Y30.861
X22.987Y29.718
X23.114Y67.056
X23.876Y49.657
X24.384Y24.003
X24.384Y21.717
X25.654Y71.247
X26.035Y17.78
X26.924Y73.152
X27.432Y30.734
X27.432Y25.654
X27.559Y66.167
X27.813Y17.78
X28.194Y71.247
X28.194Y59.817
X28.956Y30.734
X29.21Y37.084
X29.21Y24.003
X29.464Y20.701
X30.099Y73.152
X30.099Y69.342
X30.099Y65.532
X30.099Y61.722
X32.004Y71.247
X32.004Y67.437
X32.004Y63.627
X32.004Y59.817
X32.004Y16.891
X33.02Y30.861
X33.147Y16.891
X33.21Y40.958
X33.401Y25.781
X33.528Y39.751
X33.909Y73.152
X33.909Y69.342
X33.909Y65.532
X33.909Y61.722
X34.29Y30.861
X35.56Y30.861
X35.814Y71.247
X35.814Y59.817
X36.449Y66.167
X36.83Y47.625
X36.83Y46.609
X36.83Y30.861
X36.83Y24.892
X36.83Y23.622
X37.084Y73.152
X38.354Y71.247
X38.481Y12.827
X39.751Y41.275
X40.64Y50.546
X41.148Y34.417
X41.148Y39.116
X41.91Y55.88
X42.545Y45.974
X42.672Y21.844
X42.672Y20.701
X43.434Y63.5
X43.993Y24.257
X43.993Y23.114
X46.355Y27.305
X47.498Y27.305
X47.498Y12.954
X48.006Y29.21
X48.641Y27.305
X48.768Y18.415
X48.768Y17.272
X49.276Y8.128
X49.784Y17.272
X49.911Y22.86
X50.292Y32.131
X50.419Y30.353
X50.8Y17.272
X50.927Y22.86
X51.308Y14.224
X51.943Y22.86
X52.07Y11.176
X52.07Y10.16
X52.07Y9.144
X54.229Y35.814
X54.229Y32.004
X54.737Y40.386
X54.864Y7.239
X55.372Y14.605
X55.372Y13.589
X55.88Y9.398
X56.515Y40.386
X56.769Y36.703
X57.15Y9.398
X57.912Y32.004
X57.912Y21.209
X58.928Y38.481
X58.928Y21.209
X60.325Y13.716
X61.214Y7.493
X61.214Y6.477
X61.976Y34.671
X63.119Y27.559
X64.389Y33.274
X65.024Y10.795
X65.405Y7.747
X65.786Y34.671
X66.04Y10.795
T6
X1.397Y3.81
X2.159Y5.461
X2.159Y2.032
X3.81Y6.223
X3.81Y1.397
X5.461Y5.461
X5.461Y2.159
X6.223Y3.81
X7.614Y61.449
X7.614Y59.649
X7.614Y57.849
X9.414Y61.449
X9.414Y57.849
X11.214Y61.449
X11.214Y59.649
X11.214Y57.849
X68.961Y3.81
X69.723Y5.461
X69.723Y2.032
X71.374Y6.223
X71.374Y1.397
X73.025Y5.461
X73.025Y2.159
X73.787Y3.81
T7
X2.413Y21.082
X2.413Y18.542
X2.413Y16.002
X8.763Y10.922
X8.763Y8.382
T8
X27.569Y54.133
X28.839Y56.673
X30.109Y54.133
X31.379Y56.673
X32.649Y54.133
X33.919Y56.673
X35.189Y54.133
X36.459Y56.673
X68.448Y11.417
X68.45Y9.406
T9
X8.89Y4.064
X8.89Y1.524
X11.43Y4.064
X11.43Y1.524
X13.97Y4.064
X13.97Y1.524
X16.51Y4.064
X16.51Y1.524
X19.05Y4.064
X19.05Y1.524
X21.59Y4.064
X21.59Y1.524
X24.13Y4.064
X24.13Y1.524
X26.67Y13.97
X26.67Y11.43
X26.67Y4.064
X26.67Y1.524
X29.21Y13.97
X29.21Y11.43
X29.21Y4.064
X29.21Y1.524
X31.75Y13.97
X31.75Y11.43
X31.75Y4.064
X31.75Y1.524
X34.29Y13.97
X34.29Y11.43
X34.29Y4.064
X34.29Y1.524
X36.83Y13.97
X36.83Y11.43
X36.83Y4.064
X36.83Y1.524
X39.37Y4.064
X39.37Y1.524
X41.91Y4.064
X41.91Y1.524
X44.45Y4.064
X44.45Y1.524
X46.99Y4.064
X46.99Y1.524
X49.53Y4.064
X49.53Y1.524
X52.07Y4.064
X52.07Y1.524
X54.61Y4.064
X54.61Y1.524
X57.15Y4.064
X57.15Y1.524
X70.404Y34.417
X70.404Y30.917
X70.404Y27.417
T10
X25.394Y68.121
X27.934Y68.121
X36.074Y68.121
X38.614Y68.121
T11
X30.353Y43.688
T12
X9.414Y59.649
X47.58Y66.548
X47.58Y49.276
X49.58Y72.548
X49.58Y60.548
X49.58Y55.276
X49.58Y43.276
X61.58Y72.548
X61.58Y60.548
X61.58Y55.276
X61.58Y43.276
X70.612Y21.837
X70.612Y16.837
X70.904Y64.958
X70.904Y59.958
X70.904Y54.958
X70.904Y49.958
X70.904Y44.958
X70.904Y39.958
T13
X24.204Y60.323
X39.804Y60.323
T14
X8.713Y22.192
X10.313Y14.892
T15
X3.81Y3.81
X71.374Y3.81
T6
G00X59.804Y6.949
M15
G01X59.804Y6.349
M16
G05
G00X59.804Y3.479
M15
G01X59.804Y2.879
M16
G05
G00X67.004Y6.949
M15
G01X67.004Y6.349
M16
G05
G00X67.004Y3.479
M15
G01X67.004Y2.879
M16
G05
T9
G00X61.341Y17.913
M15
G01X61.341Y20.913
M16
G05
G00X66.141Y23.863
M15
G01X63.141Y23.863
M16
G05
G00X67.841Y17.913
M15
G01X67.841Y20.913
M16
G05
T0
M30
