%TF.GenerationSoftware,KiCad,Pcbnew,7.0.9-7.0.9~ubuntu22.04.1*%
%TF.CreationDate,2025-05-12T16:08:44+03:00*%
%TF.ProjectId,ESP32-EVB_Rev_L,45535033-322d-4455-9642-5f5265765f4c,L*%
%TF.SameCoordinates,PX425f360PY872a8a0*%
%TF.FileFunction,Soldermask,Top*%
%TF.FilePolarity,Negative*%
%FSLAX46Y46*%
G04 Gerber Fmt 4.6, Leading zero omitted, Abs format (unit mm)*
G04 Created by KiCad (PCBNEW 7.0.9-7.0.9~ubuntu22.04.1) date 2025-05-12 16:08:44*
%MOMM*%
%LPD*%
G01*
G04 APERTURE LIST*
G04 Aperture macros list*
%AMRoundRect*
0 Rectangle with rounded corners*
0 $1 Rounding radius*
0 $2 $3 $4 $5 $6 $7 $8 $9 X,Y pos of 4 corners*
0 Add a 4 corners polygon primitive as box body*
4,1,4,$2,$3,$4,$5,$6,$7,$8,$9,$2,$3,0*
0 Add four circle primitives for the rounded corners*
1,1,$1+$1,$2,$3*
1,1,$1+$1,$4,$5*
1,1,$1+$1,$6,$7*
1,1,$1+$1,$8,$9*
0 Add four rect primitives between the rounded corners*
20,1,$1+$1,$2,$3,$4,$5,0*
20,1,$1+$1,$4,$5,$6,$7,0*
20,1,$1+$1,$6,$7,$8,$9,0*
20,1,$1+$1,$8,$9,$2,$3,0*%
G04 Aperture macros list end*
%ADD10C,0.609600*%
%ADD11C,3.101600*%
%ADD12C,1.625600*%
%ADD13RoundRect,0.050800X-1.100000X0.300000X-1.100000X-0.300000X1.100000X-0.300000X1.100000X0.300000X0*%
%ADD14RoundRect,0.050800X-0.508000X0.317500X-0.508000X-0.317500X0.508000X-0.317500X0.508000X0.317500X0*%
%ADD15RoundRect,0.050800X-0.508000X0.190500X-0.508000X-0.190500X0.508000X-0.190500X0.508000X0.190500X0*%
%ADD16RoundRect,0.050800X-0.317500X-0.508000X0.317500X-0.508000X0.317500X0.508000X-0.317500X0.508000X0*%
%ADD17RoundRect,0.050800X-0.190500X-0.508000X0.190500X-0.508000X0.190500X0.508000X-0.190500X0.508000X0*%
%ADD18RoundRect,0.050800X0.317500X0.508000X-0.317500X0.508000X-0.317500X-0.508000X0.317500X-0.508000X0*%
%ADD19RoundRect,0.050800X0.190500X0.508000X-0.190500X0.508000X-0.190500X-0.508000X0.190500X-0.508000X0*%
%ADD20RoundRect,0.050800X-0.900000X-0.400000X0.900000X-0.400000X0.900000X0.400000X-0.900000X0.400000X0*%
%ADD21RoundRect,0.050800X-0.400000X-0.900000X0.400000X-0.900000X0.400000X0.900000X-0.400000X0.900000X0*%
%ADD22C,2.101600*%
%ADD23RoundRect,0.050800X-2.500000X-2.500000X2.500000X-2.500000X2.500000X2.500000X-2.500000X2.500000X0*%
%ADD24RoundRect,0.050800X-0.762000X0.508000X-0.762000X-0.508000X0.762000X-0.508000X0.762000X0.508000X0*%
%ADD25RoundRect,0.050800X-0.762000X0.762000X-0.762000X-0.762000X0.762000X-0.762000X0.762000X0.762000X0*%
%ADD26C,3.149600*%
%ADD27RoundRect,0.050800X1.524000X-1.524000X1.524000X1.524000X-1.524000X1.524000X-1.524000X-1.524000X0*%
%ADD28C,3.401600*%
%ADD29C,1.301600*%
%ADD30C,6.401600*%
%ADD31RoundRect,0.050800X-0.889000X-0.889000X0.889000X-0.889000X0.889000X0.889000X-0.889000X0.889000X0*%
%ADD32C,1.879600*%
%ADD33RoundRect,0.050800X-0.508000X-0.508000X0.508000X-0.508000X0.508000X0.508000X-0.508000X0.508000X0*%
%ADD34RoundRect,0.050800X0.508000X-0.508000X0.508000X0.508000X-0.508000X0.508000X-0.508000X-0.508000X0*%
%ADD35RoundRect,0.050800X0.635000X-0.762000X0.635000X0.762000X-0.635000X0.762000X-0.635000X-0.762000X0*%
%ADD36RoundRect,0.050800X-0.508000X0.508000X-0.508000X-0.508000X0.508000X-0.508000X0.508000X0.508000X0*%
%ADD37RoundRect,0.050800X0.508000X0.508000X-0.508000X0.508000X-0.508000X-0.508000X0.508000X-0.508000X0*%
%ADD38RoundRect,0.050800X0.600000X-0.700000X0.600000X0.700000X-0.600000X0.700000X-0.600000X-0.700000X0*%
%ADD39RoundRect,0.050800X0.700000X-0.500000X0.700000X0.500000X-0.700000X0.500000X-0.700000X-0.500000X0*%
%ADD40RoundRect,0.050800X-0.850000X1.000000X-0.850000X-1.000000X0.850000X-1.000000X0.850000X1.000000X0*%
%ADD41RoundRect,0.050800X-0.500000X-0.700000X0.500000X-0.700000X0.500000X0.700000X-0.500000X0.700000X0*%
%ADD42RoundRect,0.050800X-0.700000X-0.500000X0.700000X-0.500000X0.700000X0.500000X-0.700000X0.500000X0*%
%ADD43RoundRect,0.050800X-0.400000X-0.400000X0.400000X-0.400000X0.400000X0.400000X-0.400000X0.400000X0*%
%ADD44O,2.101600X5.101600*%
%ADD45O,5.101600X2.101600*%
%ADD46RoundRect,0.050800X-0.500000X0.700000X-0.500000X-0.700000X0.500000X-0.700000X0.500000X0.700000X0*%
%ADD47C,2.641600*%
%ADD48RoundRect,0.050800X-0.400000X-0.125000X0.400000X-0.125000X0.400000X0.125000X-0.400000X0.125000X0*%
%ADD49RoundRect,0.050800X0.125000X-0.400000X0.125000X0.400000X-0.125000X0.400000X-0.125000X-0.400000X0*%
%ADD50RoundRect,0.050800X0.400000X0.125000X-0.400000X0.125000X-0.400000X-0.125000X0.400000X-0.125000X0*%
%ADD51RoundRect,0.050800X-0.125000X0.400000X-0.125000X-0.400000X0.125000X-0.400000X0.125000X0.400000X0*%
%ADD52C,0.801600*%
%ADD53RoundRect,0.050800X-0.800000X0.800000X-0.800000X-0.800000X0.800000X-0.800000X0.800000X0.800000X0*%
%ADD54RoundRect,0.050800X-1.800000X1.800000X-1.800000X-1.800000X1.800000X-1.800000X1.800000X1.800000X0*%
%ADD55RoundRect,0.050800X-0.850000X-0.850000X0.850000X-0.850000X0.850000X0.850000X-0.850000X0.850000X0*%
%ADD56C,1.801600*%
%ADD57RoundRect,0.050800X-0.750000X1.550000X-0.750000X-1.550000X0.750000X-1.550000X0.750000X1.550000X0*%
%ADD58C,0.501600*%
%ADD59RoundRect,0.050800X-0.750000X0.400000X-0.750000X-0.400000X0.750000X-0.400000X0.750000X0.400000X0*%
%ADD60C,3.301600*%
%ADD61C,1.511600*%
%ADD62C,1.751600*%
%ADD63C,2.801600*%
%ADD64RoundRect,0.050800X-0.889000X0.508000X-0.889000X-0.508000X0.889000X-0.508000X0.889000X0.508000X0*%
%ADD65RoundRect,0.050800X0.889000X-0.508000X0.889000X0.508000X-0.889000X0.508000X-0.889000X-0.508000X0*%
%ADD66RoundRect,0.050800X0.850000X-1.000000X0.850000X1.000000X-0.850000X1.000000X-0.850000X-1.000000X0*%
%ADD67RoundRect,0.050800X0.500000X-0.700000X0.500000X0.700000X-0.500000X0.700000X-0.500000X-0.700000X0*%
%ADD68RoundRect,0.050800X0.889000X-0.762000X0.889000X0.762000X-0.889000X0.762000X-0.889000X-0.762000X0*%
%ADD69RoundRect,0.050800X-0.762000X-0.889000X0.762000X-0.889000X0.762000X0.889000X-0.762000X0.889000X0*%
%ADD70RoundRect,0.050800X0.762000X0.635000X-0.762000X0.635000X-0.762000X-0.635000X0.762000X-0.635000X0*%
%ADD71RoundRect,0.050800X0.889000X1.143000X-0.889000X1.143000X-0.889000X-1.143000X0.889000X-1.143000X0*%
%ADD72RoundRect,0.050800X-0.635000X0.762000X-0.635000X-0.762000X0.635000X-0.762000X0.635000X0.762000X0*%
%ADD73RoundRect,0.050800X-0.275000X0.600000X-0.275000X-0.600000X0.275000X-0.600000X0.275000X0.600000X0*%
%ADD74RoundRect,0.050800X-0.762000X-0.635000X0.762000X-0.635000X0.762000X0.635000X-0.762000X0.635000X0*%
%ADD75RoundRect,0.050800X-0.700000X0.500000X-0.700000X-0.500000X0.700000X-0.500000X0.700000X0.500000X0*%
%ADD76RoundRect,0.050800X0.400000X-0.400000X0.400000X0.400000X-0.400000X0.400000X-0.400000X-0.400000X0*%
%ADD77RoundRect,0.050800X-0.600000X-0.275000X0.600000X-0.275000X0.600000X0.275000X-0.600000X0.275000X0*%
%ADD78RoundRect,0.050800X0.700000X-0.700000X0.700000X0.700000X-0.700000X0.700000X-0.700000X-0.700000X0*%
%ADD79C,1.501600*%
%ADD80RoundRect,0.050800X0.250000X0.275000X-0.250000X0.275000X-0.250000X-0.275000X0.250000X-0.275000X0*%
%ADD81RoundRect,0.050800X-0.250000X-0.275000X0.250000X-0.275000X0.250000X0.275000X-0.250000X0.275000X0*%
%ADD82C,0.701600*%
%ADD83O,1.301600X1.901600*%
%ADD84RoundRect,0.050800X-0.550000X-0.500000X0.550000X-0.500000X0.550000X0.500000X-0.550000X0.500000X0*%
%ADD85RoundRect,0.050800X-0.250000X-0.825000X0.250000X-0.825000X0.250000X0.825000X-0.250000X0.825000X0*%
%ADD86RoundRect,0.050800X-0.162500X-0.825000X0.162500X-0.825000X0.162500X0.825000X-0.162500X0.825000X0*%
%ADD87RoundRect,0.050800X0.600000X0.275000X-0.600000X0.275000X-0.600000X-0.275000X0.600000X-0.275000X0*%
%ADD88RoundRect,0.050800X0.125000X-0.350000X0.125000X0.350000X-0.125000X0.350000X-0.125000X-0.350000X0*%
%ADD89RoundRect,0.050800X0.275000X-0.250000X0.275000X0.250000X-0.275000X0.250000X-0.275000X-0.250000X0*%
%ADD90RoundRect,0.050800X-0.275000X0.250000X-0.275000X-0.250000X0.275000X-0.250000X0.275000X0.250000X0*%
%ADD91RoundRect,0.050800X0.500000X-0.125000X0.500000X0.125000X-0.500000X0.125000X-0.500000X-0.125000X0*%
%ADD92C,3.000000*%
%ADD93RoundRect,0.050800X0.450000X0.900000X-0.450000X0.900000X-0.450000X-0.900000X0.450000X-0.900000X0*%
%ADD94RoundRect,0.050800X0.500000X0.700000X-0.500000X0.700000X-0.500000X-0.700000X0.500000X-0.700000X0*%
G04 APERTURE END LIST*
D10*
%TO.C,R25*%
X35179000Y49538000D02*
X35179000Y50538000D01*
%TD*%
D11*
%TO.C,U7*%
X8713000Y22192000D03*
X10313000Y14892000D03*
D12*
X2413000Y21082000D03*
X2413000Y18542000D03*
X2413000Y16002000D03*
%TD*%
D13*
%TO.C,U6*%
X56174000Y33274000D03*
X56174000Y32004000D03*
X56174000Y30734000D03*
X56174000Y29464000D03*
X61174000Y29464000D03*
X61174000Y30734000D03*
X61174000Y32004000D03*
X61174000Y33274000D03*
%TD*%
D14*
%TO.C,RM1*%
X15367000Y37084000D03*
X16891000Y37084000D03*
D15*
X15367000Y36195000D03*
X16891000Y36195000D03*
X15367000Y35433000D03*
X16891000Y35433000D03*
D14*
X15367000Y34544000D03*
X16891000Y34544000D03*
%TD*%
D16*
%TO.C,RM2*%
X23749000Y36957000D03*
X23749000Y38481000D03*
D17*
X24638000Y36957000D03*
X24638000Y38481000D03*
X25400000Y36957000D03*
X25400000Y38481000D03*
D16*
X26289000Y36957000D03*
X26289000Y38481000D03*
%TD*%
D18*
%TO.C,RM3*%
X32639000Y38481000D03*
X32639000Y36957000D03*
D19*
X31750000Y38481000D03*
X31750000Y36957000D03*
X30988000Y38481000D03*
X30988000Y36957000D03*
D18*
X30099000Y38481000D03*
X30099000Y36957000D03*
%TD*%
D20*
%TO.C,U3*%
X1814000Y67159000D03*
X1814000Y65889000D03*
X1814000Y64619000D03*
X1814000Y63349000D03*
X1814000Y62079000D03*
X1814000Y60809000D03*
X1814000Y59539000D03*
X1814000Y58269000D03*
X1814000Y56999000D03*
X1814000Y55729000D03*
X1814000Y54459000D03*
X1814000Y53189000D03*
X1814000Y51919000D03*
X1814000Y50649000D03*
D21*
X4714000Y49549000D03*
X5984000Y49549000D03*
X7254000Y49549000D03*
X8524000Y49549000D03*
X9794000Y49549000D03*
X11064000Y49549000D03*
X12334000Y49549000D03*
X13604000Y49549000D03*
X14874000Y49549000D03*
X16144000Y49549000D03*
D20*
X19014000Y50649000D03*
X19014000Y51919000D03*
X19014000Y53189000D03*
X19014000Y54459000D03*
X19014000Y55729000D03*
X19014000Y56999000D03*
X19014000Y58269000D03*
X19014000Y59539000D03*
X19014000Y60809000D03*
X19014000Y62079000D03*
X19014000Y63349000D03*
X19014000Y64619000D03*
X19014000Y65889000D03*
X19014000Y67159000D03*
D22*
X9414000Y59649000D03*
D23*
X9414000Y59649000D03*
%TD*%
D24*
%TO.C,BUT1*%
X9525000Y44577000D03*
X1651000Y44577000D03*
%TD*%
%TO.C,RST1*%
X9525000Y38735000D03*
X1651000Y38735000D03*
%TD*%
D12*
%TO.C,LED3*%
X8763000Y8382000D03*
D25*
X8763000Y10922000D03*
%TD*%
D26*
%TO.C,PWR2*%
X70612000Y21837000D03*
D27*
X70612000Y16837000D03*
%TD*%
D28*
%TO.C,MH1*%
X71374000Y71374000D03*
%TD*%
D29*
%TO.C,MH2*%
X68961000Y3810000D03*
X69723000Y5461000D03*
X69723000Y2032000D03*
X71374000Y6223000D03*
D30*
X71374000Y3810000D03*
D29*
X71374000Y1397000D03*
X73025000Y5461000D03*
X73025000Y2159000D03*
X73787000Y3810000D03*
%TD*%
%TO.C,MH3*%
X1397000Y3810000D03*
X2159000Y5461000D03*
X2159000Y2032000D03*
X3810000Y6223000D03*
D30*
X3810000Y3810000D03*
D29*
X3810000Y1397000D03*
X5461000Y5461000D03*
X5461000Y2159000D03*
X6223000Y3810000D03*
%TD*%
D31*
%TO.C,EXT1*%
X8890000Y1524000D03*
D32*
X8890000Y4064000D03*
X11430000Y1524000D03*
X11430000Y4064000D03*
X13970000Y1524000D03*
X13970000Y4064000D03*
X16510000Y1524000D03*
X16510000Y4064000D03*
X19050000Y1524000D03*
X19050000Y4064000D03*
X21590000Y1524000D03*
X21590000Y4064000D03*
X24130000Y1524000D03*
X24130000Y4064000D03*
X26670000Y1524000D03*
X26670000Y4064000D03*
X29210000Y1524000D03*
X29210000Y4064000D03*
X31750000Y1524000D03*
X31750000Y4064000D03*
X34290000Y1524000D03*
X34290000Y4064000D03*
X36830000Y1524000D03*
X36830000Y4064000D03*
X39370000Y1524000D03*
X39370000Y4064000D03*
X41910000Y1524000D03*
X41910000Y4064000D03*
X44450000Y1524000D03*
X44450000Y4064000D03*
X46990000Y1524000D03*
X46990000Y4064000D03*
X49530000Y1524000D03*
X49530000Y4064000D03*
X52070000Y1524000D03*
X52070000Y4064000D03*
X54610000Y1524000D03*
X54610000Y4064000D03*
X57150000Y1524000D03*
X57150000Y4064000D03*
%TD*%
D33*
%TO.C,C5*%
X20574000Y18923000D03*
X22352000Y18923000D03*
%TD*%
D34*
%TO.C,C8*%
X36068000Y36830000D03*
X36068000Y38608000D03*
%TD*%
%TO.C,C9*%
X34544000Y36830000D03*
X34544000Y38608000D03*
%TD*%
D35*
%TO.C,C10*%
X14605000Y29845000D03*
X16637000Y29845000D03*
%TD*%
D36*
%TO.C,C13*%
X28194000Y38608000D03*
X28194000Y36830000D03*
%TD*%
D37*
%TO.C,C15*%
X24892000Y47117000D03*
X23114000Y47117000D03*
%TD*%
%TO.C,C16*%
X24892000Y41910000D03*
X23114000Y41910000D03*
%TD*%
%TO.C,C17*%
X24892000Y43434000D03*
X23114000Y43434000D03*
%TD*%
%TO.C,C18*%
X37211000Y43053000D03*
X35433000Y43053000D03*
%TD*%
D27*
%TO.C,CON1*%
X70904000Y39958000D03*
D26*
X70904000Y44958000D03*
X70904000Y49958000D03*
%TD*%
D27*
%TO.C,CON2*%
X70904000Y54958000D03*
D26*
X70904000Y59958000D03*
X70904000Y64958000D03*
%TD*%
D38*
%TO.C,CR1*%
X20955000Y40894000D03*
X20955000Y43434000D03*
X18415000Y43434000D03*
X18415000Y40894000D03*
%TD*%
D39*
%TO.C,D1*%
X42545000Y47376000D03*
X42545000Y51176000D03*
%TD*%
%TO.C,D3*%
X42545000Y64648000D03*
X42545000Y68448000D03*
%TD*%
D40*
%TO.C,D4*%
X55245000Y23582000D03*
X55245000Y18582000D03*
%TD*%
D41*
%TO.C,D5*%
X32644000Y6858000D03*
X36444000Y6858000D03*
%TD*%
D42*
%TO.C,FET1*%
X52669440Y17846040D03*
X52669440Y19748500D03*
X50459640Y18793460D03*
%TD*%
D35*
%TO.C,L3*%
X37973000Y37084000D03*
X37973000Y39116000D03*
%TD*%
D43*
%TO.C,LED1*%
X43942000Y42037000D03*
X42418000Y42037000D03*
%TD*%
%TO.C,LED2*%
X43942000Y72898000D03*
X42418000Y72898000D03*
%TD*%
D44*
%TO.C,PWR1*%
X61341000Y19413000D03*
X67841000Y19413000D03*
D45*
X64641000Y23863000D03*
%TD*%
D42*
%TO.C,Q1*%
X51653440Y38547040D03*
X51653440Y40449500D03*
X49443640Y39494460D03*
%TD*%
D46*
%TO.C,Q2*%
X38420040Y48422560D03*
X40322500Y48422560D03*
X39367460Y50632360D03*
%TD*%
D37*
%TO.C,R3*%
X44196000Y44450000D03*
X42418000Y44450000D03*
%TD*%
%TO.C,R5*%
X40259000Y45085000D03*
X38481000Y45085000D03*
%TD*%
%TO.C,R6*%
X40259000Y46609000D03*
X38481000Y46609000D03*
%TD*%
%TO.C,R11*%
X44069000Y71247000D03*
X42291000Y71247000D03*
%TD*%
D33*
%TO.C,R14*%
X11811000Y45974000D03*
X13589000Y45974000D03*
%TD*%
D37*
%TO.C,R16*%
X13335000Y37973000D03*
X11557000Y37973000D03*
%TD*%
D33*
%TO.C,R18*%
X18288000Y7747000D03*
X20066000Y7747000D03*
%TD*%
D34*
%TO.C,R21*%
X20066000Y9779000D03*
X20066000Y11557000D03*
%TD*%
D37*
%TO.C,R23*%
X29972000Y6858000D03*
X28194000Y6858000D03*
%TD*%
D34*
%TO.C,R26*%
X22098000Y68453000D03*
X22098000Y70231000D03*
%TD*%
D36*
%TO.C,R27*%
X43053000Y57658000D03*
X43053000Y55880000D03*
%TD*%
D37*
%TO.C,R29*%
X17399000Y25908000D03*
X15621000Y25908000D03*
%TD*%
D33*
%TO.C,R34*%
X18796000Y38354000D03*
X20574000Y38354000D03*
%TD*%
%TO.C,R36*%
X18288000Y45974000D03*
X20066000Y45974000D03*
%TD*%
%TO.C,R38*%
X35433000Y41529000D03*
X37211000Y41529000D03*
%TD*%
D37*
%TO.C,R39*%
X24892000Y48641000D03*
X23114000Y48641000D03*
%TD*%
D47*
%TO.C,REL1*%
X61580000Y43276000D03*
X61580000Y55276000D03*
X47580000Y49276000D03*
X49580000Y55276000D03*
X49580000Y43276000D03*
%TD*%
%TO.C,REL2*%
X49580000Y60548000D03*
X49580000Y72548000D03*
X47580000Y66548000D03*
X61580000Y72548000D03*
X61580000Y60548000D03*
%TD*%
D48*
%TO.C,U4*%
X27903000Y45438000D03*
X27903000Y44938000D03*
X27903000Y44438000D03*
X27903000Y43938000D03*
X27903000Y43438000D03*
X27903000Y42938000D03*
X27903000Y42438000D03*
X27903000Y41938000D03*
D49*
X28603000Y41238000D03*
X29103000Y41238000D03*
X29603000Y41238000D03*
X30103000Y41238000D03*
X30603000Y41238000D03*
X31103000Y41238000D03*
X31603000Y41238000D03*
X32103000Y41238000D03*
D50*
X32803000Y41938000D03*
X32803000Y42438000D03*
X32803000Y42938000D03*
X32803000Y43438000D03*
X32803000Y43938000D03*
X32803000Y44438000D03*
X32803000Y44938000D03*
X32803000Y45438000D03*
D51*
X32103000Y46138000D03*
X31603000Y46138000D03*
X31103000Y46138000D03*
X30603000Y46138000D03*
X30103000Y46138000D03*
X29603000Y46138000D03*
X29103000Y46138000D03*
X28603000Y46138000D03*
D52*
X30853000Y44988000D03*
X29853000Y44988000D03*
X31653000Y44188000D03*
X29053000Y44188000D03*
D53*
X30353000Y43688000D03*
D54*
X30353000Y43688000D03*
D52*
X31653000Y43188000D03*
X29053000Y43188000D03*
X30853000Y42388000D03*
X29853000Y42388000D03*
%TD*%
D55*
%TO.C,UEXT1*%
X26670000Y11430000D03*
D56*
X26670000Y13970000D03*
X29210000Y11430000D03*
X29210000Y13970000D03*
X31750000Y11430000D03*
X31750000Y13970000D03*
X34290000Y11430000D03*
X34290000Y13970000D03*
X36830000Y11430000D03*
X36830000Y13970000D03*
%TD*%
D57*
%TO.C,MICRO_SD1*%
X11981000Y27457000D03*
X11981000Y33517000D03*
D58*
X1011000Y36147000D03*
X12811000Y36147000D03*
X12811000Y24877000D03*
X1011000Y23787000D03*
D59*
X2731000Y34457000D03*
X2731000Y33357000D03*
X2731000Y32257000D03*
X2731000Y31157000D03*
X2731000Y30057000D03*
X2731000Y28957000D03*
X2731000Y27857000D03*
X2731000Y26757000D03*
%TD*%
D60*
%TO.C,LAN1*%
X37719000Y63373000D03*
X26289000Y63373000D03*
D61*
X36459000Y56673000D03*
X35189000Y54133000D03*
X33919000Y56673000D03*
X32649000Y54133000D03*
X31379000Y56673000D03*
X30109000Y54133000D03*
X28839000Y56673000D03*
X27569000Y54133000D03*
D62*
X27934000Y68121500D03*
X38614000Y68121500D03*
D63*
X39804000Y60323000D03*
X24204000Y60323000D03*
D62*
X25394000Y68121500D03*
X36074000Y68121500D03*
%TD*%
D64*
%TO.C,C19*%
X22479000Y58293000D03*
X22479000Y54737000D03*
%TD*%
D65*
%TO.C,C20*%
X22479000Y62357000D03*
X22479000Y65913000D03*
%TD*%
D34*
%TO.C,R4*%
X50292000Y10414000D03*
X50292000Y12192000D03*
%TD*%
D36*
%TO.C,C25*%
X51562000Y32131000D03*
X51562000Y30353000D03*
%TD*%
D33*
%TO.C,C27*%
X2032000Y13589000D03*
X3810000Y13589000D03*
%TD*%
D47*
%TO.C,CAN1*%
X70404000Y34417000D03*
X70404000Y30917000D03*
X70404000Y27417000D03*
%TD*%
D66*
%TO.C,D6*%
X58547000Y18582000D03*
X58547000Y23582000D03*
%TD*%
D67*
%TO.C,FET2*%
X57718960Y16220440D03*
X55816500Y16220440D03*
X56771540Y14010640D03*
%TD*%
D42*
%TO.C,Q7*%
X15204440Y9718040D03*
X15204440Y11620500D03*
X12994640Y10665460D03*
%TD*%
D36*
%TO.C,R30*%
X59436000Y16129000D03*
X59436000Y14351000D03*
%TD*%
D37*
%TO.C,R45*%
X13589000Y44450000D03*
X11811000Y44450000D03*
%TD*%
D68*
%TO.C,R47*%
X64643000Y27559000D03*
X64643000Y30353000D03*
%TD*%
D37*
%TO.C,R48*%
X59563000Y35179000D03*
X57785000Y35179000D03*
%TD*%
%TO.C,R49*%
X59563000Y36703000D03*
X57785000Y36703000D03*
%TD*%
D69*
%TO.C,R53*%
X1778000Y11303000D03*
X4572000Y11303000D03*
%TD*%
D34*
%TO.C,R54*%
X15367000Y43053000D03*
X15367000Y44831000D03*
%TD*%
D36*
%TO.C,R55*%
X18542000Y11557000D03*
X18542000Y9779000D03*
%TD*%
%TO.C,R56*%
X17018000Y11557000D03*
X17018000Y9779000D03*
%TD*%
D70*
%TO.C,C3*%
X52578000Y24638000D03*
X52578000Y26670000D03*
%TD*%
D36*
%TO.C,R44*%
X14097000Y19050000D03*
X14097000Y17272000D03*
%TD*%
D71*
%TO.C,D2*%
X53612000Y14986000D03*
X49258000Y14986000D03*
%TD*%
D37*
%TO.C,C29*%
X47244000Y39878000D03*
X45466000Y39878000D03*
%TD*%
%TO.C,R50*%
X47244000Y36830000D03*
X45466000Y36830000D03*
%TD*%
%TO.C,R51*%
X47244000Y38354000D03*
X45466000Y38354000D03*
%TD*%
D34*
%TO.C,C12*%
X38735000Y41275000D03*
X38735000Y43053000D03*
%TD*%
D67*
%TO.C,FET3*%
X44129960Y39207440D03*
X42227500Y39207440D03*
X43182540Y36997640D03*
%TD*%
D72*
%TO.C,L5*%
X40005000Y39116000D03*
X40005000Y37084000D03*
%TD*%
D36*
%TO.C,R2*%
X53340000Y40386000D03*
X53340000Y38608000D03*
%TD*%
D73*
%TO.C,U1*%
X64455000Y9495000D03*
X65405000Y9495000D03*
X66355000Y9495000D03*
X66355000Y12095000D03*
X64455000Y12095000D03*
%TD*%
D34*
%TO.C,R8*%
X62738000Y10287000D03*
X62738000Y12065000D03*
%TD*%
D74*
%TO.C,C1*%
X58547000Y12192000D03*
X58547000Y10160000D03*
%TD*%
%TO.C,C2*%
X60579000Y12192000D03*
X60579000Y10160000D03*
%TD*%
D33*
%TO.C,C14*%
X34036000Y47498000D03*
X35814000Y47498000D03*
%TD*%
D37*
%TO.C,R10*%
X44831000Y11811000D03*
X43053000Y11811000D03*
%TD*%
%TO.C,R9*%
X44831000Y10287000D03*
X43053000Y10287000D03*
%TD*%
%TO.C,C30*%
X44450000Y7112000D03*
X42672000Y7112000D03*
%TD*%
D75*
%TO.C,U9*%
X15791000Y16698000D03*
X15791000Y14798000D03*
X17991000Y15748000D03*
%TD*%
D34*
%TO.C,R24*%
X16256000Y38735000D03*
X16256000Y40513000D03*
%TD*%
%TO.C,C28*%
X9906000Y40640000D03*
X9906000Y42418000D03*
%TD*%
D36*
%TO.C,C26*%
X53086000Y32131000D03*
X53086000Y30353000D03*
%TD*%
D70*
%TO.C,L1*%
X26162000Y18923000D03*
X24130000Y18923000D03*
%TD*%
D33*
%TO.C,R17*%
X50927000Y21336000D03*
X52705000Y21336000D03*
%TD*%
D36*
%TO.C,R22*%
X43180000Y16510000D03*
X43180000Y14732000D03*
%TD*%
D37*
%TO.C,R7*%
X48133000Y11684000D03*
X46355000Y11684000D03*
%TD*%
D76*
%TO.C,CHARGE1*%
X45974000Y8763000D03*
X45974000Y7239000D03*
%TD*%
D34*
%TO.C,C31*%
X1397000Y40767000D03*
X1397000Y42545000D03*
%TD*%
D77*
%TO.C,U8*%
X14508000Y39563000D03*
X14508000Y40513000D03*
X14508000Y41463000D03*
X11908000Y41463000D03*
X11908000Y39563000D03*
%TD*%
D33*
%TO.C,R46*%
X11811000Y42926000D03*
X13589000Y42926000D03*
%TD*%
D34*
%TO.C,R25*%
X35179000Y49149000D03*
X35179000Y50927000D03*
%TD*%
D78*
%TO.C,BAT1*%
X68450460Y9405620D03*
D79*
X68447920Y11417300D03*
%TD*%
D76*
%TO.C,PWRLED1*%
X50292000Y7239000D03*
X50292000Y8763000D03*
%TD*%
D75*
%TO.C,U10*%
X15791000Y20000000D03*
X15791000Y18100000D03*
X17991000Y19050000D03*
%TD*%
D33*
%TO.C,R12*%
X57785000Y27686000D03*
X59563000Y27686000D03*
%TD*%
%TO.C,R13*%
X51308000Y28829000D03*
X53086000Y28829000D03*
%TD*%
D34*
%TO.C,R15*%
X49149000Y30353000D03*
X49149000Y32131000D03*
%TD*%
D80*
%TO.C,R33*%
X30734000Y51435000D03*
D81*
X31750000Y51435000D03*
%TD*%
D36*
%TO.C,C11*%
X36830000Y50927000D03*
X36830000Y49149000D03*
%TD*%
D81*
%TO.C,R32*%
X33655000Y51435000D03*
D80*
X32639000Y51435000D03*
%TD*%
%TO.C,R31*%
X26035000Y51435000D03*
D81*
X27051000Y51435000D03*
%TD*%
%TO.C,R28*%
X28956000Y51435000D03*
D80*
X27940000Y51435000D03*
%TD*%
D37*
%TO.C,R43*%
X16637000Y31623000D03*
X14859000Y31623000D03*
%TD*%
D70*
%TO.C,L4*%
X17145000Y27813000D03*
X15113000Y27813000D03*
%TD*%
D41*
%TO.C,D10*%
X43119000Y30734000D03*
X45019000Y30734000D03*
X44069000Y32934000D03*
%TD*%
D36*
%TO.C,R52*%
X46609000Y32385000D03*
X46609000Y30607000D03*
%TD*%
D80*
%TO.C,R58*%
X45339000Y33528000D03*
D81*
X46355000Y33528000D03*
%TD*%
D41*
%TO.C,U11*%
X51755000Y34841000D03*
X53655000Y34841000D03*
X52705000Y37041000D03*
%TD*%
D46*
%TO.C,FET4*%
X48580040Y34833560D03*
X50482500Y34833560D03*
X49527460Y37043360D03*
%TD*%
D34*
%TO.C,C32*%
X55118000Y35179000D03*
X55118000Y36957000D03*
%TD*%
D37*
%TO.C,R1*%
X56769000Y38608000D03*
X54991000Y38608000D03*
%TD*%
D82*
%TO.C,USB-UART1*%
X65404000Y5329000D03*
X61404000Y5329000D03*
D83*
X67004000Y6649000D03*
X59804000Y6649000D03*
X67004000Y3179000D03*
X59804000Y3179000D03*
D84*
X64904000Y2029000D03*
X61904000Y2029000D03*
D85*
X62016500Y6579000D03*
D86*
X62754000Y6579000D03*
X63404000Y6579000D03*
X64054000Y6579000D03*
D85*
X64791500Y6579000D03*
%TD*%
D87*
%TO.C,TVS1*%
X28545000Y50226000D03*
X28545000Y49276000D03*
X28545000Y48326000D03*
X31145000Y48326000D03*
X31145000Y50226000D03*
%TD*%
D81*
%TO.C,C39*%
X45339000Y26543000D03*
D80*
X44323000Y26543000D03*
%TD*%
D81*
%TO.C,R73*%
X45339000Y27559000D03*
D80*
X44323000Y27559000D03*
%TD*%
%TO.C,R70*%
X37592000Y26416000D03*
D81*
X38608000Y26416000D03*
%TD*%
D88*
%TO.C,U2*%
X44966000Y23507000D03*
X45466000Y23507000D03*
X45966000Y23507000D03*
X45966000Y25007000D03*
X45466000Y25007000D03*
X44966000Y25007000D03*
%TD*%
D89*
%TO.C,R69*%
X30607000Y26670000D03*
D90*
X30607000Y25654000D03*
%TD*%
D75*
%TO.C,D15*%
X29464000Y22474000D03*
X29464000Y18674000D03*
%TD*%
D81*
%TO.C,R71*%
X38608000Y27559000D03*
D80*
X37592000Y27559000D03*
%TD*%
D34*
%TO.C,C35*%
X32131000Y24511000D03*
X32131000Y26289000D03*
%TD*%
D89*
%TO.C,R66*%
X27432000Y23368000D03*
D90*
X27432000Y22352000D03*
%TD*%
D80*
%TO.C,C36*%
X34544000Y20574000D03*
D81*
X35560000Y20574000D03*
%TD*%
D39*
%TO.C,D16*%
X31877000Y18674000D03*
X31877000Y22474000D03*
%TD*%
D91*
%TO.C,U5*%
X39357000Y22495000D03*
X39357000Y22995000D03*
X39357000Y23495000D03*
X39357000Y23995000D03*
X39357000Y24495000D03*
X34557000Y24495000D03*
X34557000Y23995000D03*
X34557000Y23495000D03*
X34557000Y22995000D03*
X34557000Y22495000D03*
%TD*%
D92*
%TO.C,FID5*%
X21204000Y73032000D03*
%TD*%
D93*
%TO.C,L7*%
X44131000Y21209000D03*
X45531000Y21209000D03*
%TD*%
D81*
%TO.C,R75*%
X43307000Y26543000D03*
D80*
X42291000Y26543000D03*
%TD*%
D81*
%TO.C,R67*%
X35560000Y19431000D03*
D80*
X34544000Y19431000D03*
%TD*%
D42*
%TO.C,Q10*%
X35651440Y27117040D03*
X35651440Y29019500D03*
X33441640Y28064460D03*
%TD*%
D81*
%TO.C,R72*%
X31623000Y27940000D03*
D80*
X30607000Y27940000D03*
%TD*%
D92*
%TO.C,FID3*%
X67204000Y73232000D03*
%TD*%
D42*
%TO.C,Q9*%
X28793440Y26990040D03*
X28793440Y28892500D03*
X26583640Y27937460D03*
%TD*%
D34*
%TO.C,C38*%
X42672000Y22987000D03*
X42672000Y24765000D03*
%TD*%
D92*
%TO.C,FID1*%
X1904000Y8332000D03*
%TD*%
D34*
%TO.C,C37*%
X48133000Y23876000D03*
X48133000Y25654000D03*
%TD*%
D94*
%TO.C,D17*%
X24506000Y27940000D03*
X20706000Y27940000D03*
%TD*%
D81*
%TO.C,R68*%
X27432000Y20828000D03*
D80*
X26416000Y20828000D03*
%TD*%
D92*
%TO.C,FID4*%
X73104000Y11732000D03*
%TD*%
%TO.C,FID2*%
X73104000Y9032000D03*
%TD*%
M02*
