M48
;DRILL file {KiCad 6.0.0-rc1-unknown-0cca1c6~65~ubuntu16.04.1} date Fri Aug  3 15:17:03 2018
;FORMAT={-:-/ absolute / inch / decimal}
FMAT,2
INCH,TZ
T1C0.0118
T2C0.0118
T3C0.0197
T4C0.0236
T5C0.0315
T6C0.0354
T7C0.0394
T8C0.0433
T9C0.0472
T10C0.0512
T11C0.0709
T12C0.0787
T13C0.1299
%
G90
G05
M72
T1
X3.9547Y-3.9112
T2
X2.795Y-4.1
X2.795Y-4.6
X2.825Y-4.01
X2.825Y-4.64
X2.84Y-3.89
X2.85Y-3.92
X2.855Y-3.04
X2.855Y-3.09
X2.855Y-3.135
X2.855Y-3.19
X2.855Y-3.24
X2.855Y-3.54
X2.855Y-3.59
X2.86Y-4.675
X2.875Y-3.29
X2.875Y-5.2
X2.89Y-3.34
X2.905Y-3.45
X2.925Y-3.4
X2.925Y-3.43
X2.93Y-5.24
X2.95Y-4.99
X2.965Y-4.215
X2.98Y-4.19
X2.995Y-3.91
X3.005Y-3.745
X3.01Y-3.585
X3.015Y-3.715
X3.025Y-3.765
X3.035Y-4.905
X3.04Y-3.59
X3.045Y-3.785
X3.05Y-3.715
X3.055Y-4.465
X3.07Y-3.53
X3.07Y-3.59
X3.075Y-4.445
X3.085Y-3.715
X3.095Y-3.53
X3.105Y-4.865
X3.105Y-4.895
X3.115Y-3.715
X3.12Y-3.53
X3.125Y-4.835
X3.14Y-5.2
X3.16Y-3.83
X3.195Y-4.61
X3.195Y-5.285
X3.215Y-3.52
X3.215Y-3.545
X3.215Y-3.57
X3.25Y-3.73
X3.28Y-3.73
X3.285Y-4.31
X3.3Y-4.115
X3.31Y-3.82
X3.32Y-3.38
X3.32Y-3.41
X3.35Y-4.53
X3.36Y-4.755
X3.375Y-3.4
X3.375Y-3.43
X3.39Y-3.475
X3.395Y-3.725
X3.4Y-3.895
X3.42Y-3.81
X3.435Y-4.6999
X3.44Y-5.08
X3.475Y-5.08
X3.5135Y-4.1285
X3.53Y-3.8525
X3.53Y-3.8775
X3.53Y-4.915
X3.545Y-5.08
X3.555Y-4.115
X3.57Y-5.055
X3.6Y-4.285
X3.605Y-4.315
X3.64Y-5.265
X3.645Y-4.25
X3.664Y-4.266
X3.685Y-5.2
X3.69Y-5.345
X3.695Y-3.555
X3.72Y-3.555
X3.75Y-5.305
X3.8Y-4.025
X3.855Y-4.01
X3.91Y-3.575
X3.92Y-5.275
X3.955Y-4.025
X3.96Y-5.275
X3.975Y-3.995
X4.005Y-4.015
X4.03Y-3.76
X4.055Y-3.77
X4.07Y-3.925
X4.075Y-3.825
X4.115Y-3.775
X4.13Y-5.08
X4.14Y-3.8
X4.155Y-4.975
X4.165Y-3.89
X4.19Y-3.515
X4.2Y-5.19
X4.23Y-5.195
X4.25Y-5.215
X4.26Y-5.24
X4.265Y-5.355
X4.305Y-5.16
X4.315Y-3.99
X4.335Y-5.24
X4.3409Y-4.2791
X4.345Y-5.19
X4.355Y-5.355
X4.36Y-5.215
X4.365Y-4.3497
X4.375Y-4.275
X4.385Y-3.47
X4.425Y-4.3071
X4.435Y-4.335
X4.47Y-2.81
X4.485Y-4.8
X4.495Y-4.825
X4.585Y-5.065
X4.595Y-5.105
X4.675Y-5.11
X5.04Y-5.225
X5.045Y-5.375
X5.09Y-5.175
X5.09Y-5.2
X5.21Y-5.395
X5.24Y-5.395
X5.565Y-5.09
X3.8838Y-3.8403
X3.8838Y-3.8797
X3.9153Y-3.8088
X3.9153Y-3.9112
X3.9547Y-3.8088
X3.9862Y-3.8403
X3.9862Y-3.8797
T3
X3.75Y-3.57
T4
X2.855Y-2.935
X2.895Y-4.995
X2.91Y-3.715
X2.91Y-3.765
X2.91Y-3.97
X2.91Y-4.02
X2.91Y-4.11
X2.91Y-4.26
X2.91Y-4.31
X2.92Y-3.575
X2.92Y-4.55
X2.92Y-4.65
X2.92Y-4.69
X2.92Y-4.73
X2.96Y-3.575
X2.96Y-4.55
X2.975Y-2.925
X2.975Y-3.075
X2.975Y-3.2
X2.985Y-3.295
X2.985Y-4.9
X2.995Y-3.49
X3.Y-4.55
X3.Y-4.86
X3.035Y-2.995
X3.07Y-4.845
X3.1Y-2.925
X3.1Y-3.075
X3.165Y-2.995
X3.225Y-2.925
X3.225Y-3.075
X3.26Y-4.23
X3.26Y-4.27
X3.275Y-2.995
X3.315Y-4.07
X3.325Y-2.925
X3.325Y-3.075
X3.365Y-3.935
X3.3775Y-5.0975
X3.385Y-2.995
X3.4Y-4.27
X3.425Y-2.935
X3.495Y-4.195
X3.495Y-4.235
X3.495Y-4.47
X3.495Y-4.64
X3.55Y-4.33
X3.55Y-4.375
X3.55Y-4.415
X3.565Y-4.885
X3.585Y-2.685
X3.585Y-2.735
X3.595Y-3.47
X3.605Y-4.125
X3.61Y-2.94
X3.62Y-4.92
X3.64Y-3.47
X3.645Y-4.37
X3.645Y-4.41
X3.645Y-4.45
X3.65Y-2.94
X3.7Y-4.725
X3.71Y-3.615
X3.75Y-2.775
X3.765Y-4.88
X3.8Y-2.7
X3.825Y-2.975
X3.835Y-4.86
X3.84Y-4.495
X3.85Y-2.775
X3.85Y-3.225
X3.855Y-4.365
X3.89Y-4.12
X3.925Y-2.7
X3.925Y-2.85
X3.925Y-3.
X3.925Y-3.15
X3.935Y-4.495
X3.955Y-4.365
X3.98Y-4.605
X3.98Y-4.665
X3.98Y-4.77
X3.985Y-4.545
X4.Y-2.775
X4.Y-2.925
X4.Y-3.075
X4.Y-3.225
X4.03Y-4.715
X4.03Y-4.82
X4.045Y-4.435
X4.0475Y-3.9675
X4.06Y-4.015
X4.075Y-2.7
X4.075Y-2.85
X4.075Y-3.
X4.075Y-3.15
X4.075Y-3.575
X4.08Y-4.365
X4.08Y-4.665
X4.08Y-4.77
X4.13Y-4.545
X4.15Y-2.775
X4.15Y-3.225
X4.155Y-4.365
X4.175Y-2.975
X4.18Y-4.495
X4.19Y-3.705
X4.19Y-3.745
X4.2Y-2.7
X4.245Y-4.365
X4.25Y-2.775
X4.25Y-4.495
X4.305Y-3.955
X4.34Y-3.59
X4.36Y-4.225
X4.36Y-4.04
X4.39Y-3.38
X4.41Y-4.225
X4.415Y-3.77
X4.415Y-4.615
X4.415Y-4.695
X4.45Y-3.08
X4.45Y-4.895
X4.49Y-4.895
X4.565Y-4.505
X4.6Y-4.63
X4.61Y-4.505
X4.625Y-4.315
X4.63Y-4.43
X4.64Y-4.625
X4.655Y-4.505
X4.66Y-4.925
X4.68Y-5.28
X4.7Y-4.925
X4.705Y-4.68
X4.725Y-4.385
X4.74Y-4.925
X4.74Y-4.965
X4.745Y-4.68
X4.785Y-4.68
X4.79Y-5.155
X4.79Y-5.195
X4.79Y-5.235
X4.875Y-4.32
X4.895Y-4.065
X4.895Y-4.2
X4.9Y-5.29
X4.9Y-5.33
X4.93Y-5.005
X4.93Y-5.045
X4.94Y-5.225
X4.965Y-3.99
X4.965Y-4.135
X4.985Y-5.225
X5.02Y-4.32
X5.02Y-4.78
X5.06Y-4.065
X5.06Y-4.78
X5.125Y-5.015
X5.16Y-5.285
X5.16Y-5.325
X5.18Y-4.215
X5.225Y-4.495
X5.255Y-5.125
X5.255Y-5.165
X5.275Y-4.27
X5.315Y-5.275
X5.33Y-4.215
X2.795Y-5.43
X2.825Y-5.365
X2.825Y-5.5
X2.89Y-5.335
X2.89Y-5.525
X2.955Y-5.365
X2.955Y-5.495
X2.985Y-5.43
X3.0697Y-3.149
X3.0697Y-3.237
X3.0697Y-3.334
X3.1607Y-3.149
X3.1607Y-3.334
X3.2537Y-3.149
X3.2537Y-3.237
X3.2537Y-3.334
X5.455Y-5.43
X5.485Y-5.365
X5.485Y-5.5
X5.55Y-5.335
X5.55Y-5.525
X5.615Y-5.365
X5.615Y-5.495
X5.645Y-5.43
T5
X2.835Y-4.75
X2.835Y-4.85
X2.835Y-4.95
X3.085Y-5.15
X3.085Y-5.25
T6
X3.8254Y-3.4488
X3.8754Y-3.3488
X3.9254Y-3.4488
X3.9754Y-3.3488
X4.0254Y-3.4488
X4.0754Y-3.3488
X4.1254Y-3.4488
X4.1754Y-3.3488
X5.4348Y-5.1305
X5.4349Y-5.2097
T7
X3.1607Y-3.242
X3.09Y-5.42
X3.09Y-5.52
X3.19Y-5.42
X3.19Y-5.52
X3.29Y-5.42
X3.29Y-5.52
X3.39Y-5.42
X3.39Y-5.52
X3.49Y-5.42
X3.49Y-5.52
X3.59Y-5.42
X3.59Y-5.52
X3.69Y-5.42
X3.69Y-5.52
X3.79Y-5.42
X3.79Y-5.52
X3.89Y-5.42
X3.89Y-5.52
X3.99Y-5.42
X3.99Y-5.52
X4.09Y-5.42
X4.09Y-5.52
X4.19Y-5.42
X4.19Y-5.52
X4.29Y-5.42
X4.29Y-5.52
X4.39Y-5.42
X4.39Y-5.52
X4.49Y-5.42
X4.49Y-5.52
X4.59Y-5.42
X4.59Y-5.52
X4.69Y-5.42
X4.69Y-5.52
X4.79Y-5.42
X4.79Y-5.52
X4.89Y-5.42
X4.89Y-5.52
X4.99Y-5.42
X4.99Y-5.52
X5.5118Y-4.225
X5.5118Y-4.3628
X5.5118Y-4.5006
T8
X3.79Y-5.03
X3.79Y-5.13
X3.89Y-5.03
X3.89Y-5.13
X3.99Y-5.03
X3.99Y-5.13
X4.09Y-5.03
X4.09Y-5.13
X4.19Y-5.03
X4.19Y-5.13
X3.7398Y-2.8981
X3.8398Y-2.8981
X4.1602Y-2.8981
X4.2602Y-2.8981
T9
X3.935Y-3.86
T10
X5.52Y-4.7203
X5.52Y-4.9171
X4.6132Y-3.64
X4.692Y-3.4038
X4.692Y-3.8762
X5.1644Y-3.4038
X5.1644Y-3.8762
X5.5315Y-3.0226
X5.5315Y-3.2194
X5.5315Y-3.4163
X4.6132Y-2.96
X4.692Y-2.7238
X4.692Y-3.1962
X5.1644Y-2.7238
X5.1644Y-3.1962
X5.5315Y-3.6131
X5.5315Y-3.81
X5.5315Y-4.0069
T11
X3.6929Y-3.2051
X4.3071Y-3.2051
T12
X3.083Y-4.7063
X3.146Y-4.9937
T13
X5.55Y-5.43
X2.89Y-5.43
T4
X5.0945Y-5.3064G85X5.0945Y-5.33
G05
X5.0945Y-5.443G85X5.0945Y-5.4667
G05
X5.378Y-5.3064G85X5.378Y-5.33
G05
X5.378Y-5.443G85X5.378Y-5.4667
G05
T7
X5.155Y-4.8748G85X5.155Y-4.7567
G05
X5.344Y-4.6405G85X5.2259Y-4.6405
G05
X5.4109Y-4.8748G85X5.4109Y-4.7567
G05
T0
M30
