G04 #@! TF.GenerationSoftware,KiCad,Pcbnew,6.0.0-rc1-unknown-0cca1c6~65~ubuntu16.04.1*
G04 #@! TF.CreationDate,2018-08-03T15:16:37+03:00*
G04 #@! TF.ProjectId,ESP32-EVB_Rev_F,45535033322D4556425F5265765F462E,F*
G04 #@! TF.SameCoordinates,Original*
G04 #@! TF.FileFunction,Soldermask,Top*
G04 #@! TF.FilePolarity,Negative*
%FSLAX46Y46*%
G04 Gerber Fmt 4.6, Leading zero omitted, Abs format (unit mm)*
G04 Created by KiCad (PCBNEW 6.0.0-rc1-unknown-0cca1c6~65~ubuntu16.04.1) date Fri Aug  3 15:16:37 2018*
%MOMM*%
%LPD*%
G01*
G04 APERTURE LIST*
%ADD10C,0.609600*%
%ADD11R,1.625600X1.117600*%
%ADD12C,1.254000*%
%ADD13C,3.600000*%
%ADD14C,2.050000*%
%ADD15C,3.100000*%
%ADD16C,1.810000*%
%ADD17R,1.117600X1.117600*%
%ADD18R,1.879600X2.387600*%
%ADD19R,1.501600X1.101600*%
%ADD20R,1.625600X1.371600*%
%ADD21R,1.625600X1.879600*%
%ADD22R,1.879600X1.625600*%
%ADD23R,4.927600X1.201600*%
%ADD24R,0.901600X0.901600*%
%ADD25R,1.801600X2.101600*%
%ADD26R,1.879600X1.117600*%
%ADD27C,1.879600*%
%ADD28R,1.879600X1.879600*%
%ADD29C,1.600000*%
%ADD30C,6.700000*%
%ADD31R,3.448000X3.448000*%
%ADD32C,3.448000*%
%ADD33O,4.601600X1.601600*%
%ADD34O,1.601600X4.601600*%
%ADD35R,1.600000X1.800000*%
%ADD36R,1.371600X1.625600*%
%ADD37R,1.501600X1.501600*%
%ADD38C,1.501600*%
%ADD39C,3.700000*%
%ADD40C,2.940000*%
%ADD41C,2.100000*%
%ADD42R,2.100000X2.100000*%
%ADD43C,2.641600*%
%ADD44R,1.601600X3.201600*%
%ADD45C,0.800000*%
%ADD46R,1.601600X0.901600*%
%ADD47R,3.701600X3.701600*%
%ADD48R,0.800000X0.800000*%
%ADD49R,1.822400X1.822400*%
%ADD50R,0.351600X0.901600*%
%ADD51R,0.901600X0.351600*%
%ADD52R,1.625600X1.625600*%
%ADD53C,1.625600*%
%ADD54C,3.400000*%
%ADD55C,1.924000*%
%ADD56R,1.371600X0.426600*%
%ADD57R,2.301600X0.701600*%
%ADD58R,1.101600X0.351600*%
%ADD59R,0.426600X2.251600*%
%ADD60C,0.701600*%
%ADD61R,1.201600X1.101600*%
%ADD62O,1.301600X1.901600*%
%ADD63C,1.700000*%
%ADD64C,2.400000*%
%ADD65R,6.400000X6.400000*%
%ADD66R,1.801600X1.001600*%
%ADD67R,1.001600X1.801600*%
%ADD68R,1.117600X0.482600*%
%ADD69R,1.117600X0.736600*%
%ADD70R,0.482600X1.117600*%
%ADD71R,0.736600X1.117600*%
%ADD72R,0.651600X1.301600*%
%ADD73R,1.101600X1.501600*%
%ADD74R,1.301600X0.651600*%
%ADD75R,3.101600X1.701600*%
G04 APERTURE END LIST*
D10*
G04 #@! TO.C,R25*
X104775000Y-92194000D02*
X104775000Y-91194000D01*
G04 #@! TD*
D11*
G04 #@! TO.C,RST1*
X71247000Y-102997000D03*
X79121000Y-102997000D03*
G04 #@! TD*
G04 #@! TO.C,BUT1*
X71247000Y-97155000D03*
X79121000Y-97155000D03*
G04 #@! TD*
D12*
G04 #@! TO.C,*
X142875000Y-133350000D03*
G04 #@! TD*
D13*
G04 #@! TO.C,LAN1*
X95885000Y-78359000D03*
X107315000Y-78359000D03*
D14*
X105670000Y-73610500D03*
X94990000Y-73610500D03*
D15*
X93800000Y-81409000D03*
X109400000Y-81409000D03*
D14*
X108210000Y-73610500D03*
X97530000Y-73610500D03*
D16*
X97165000Y-87599000D03*
X98435000Y-85059000D03*
X99705000Y-87599000D03*
X100975000Y-85059000D03*
X102245000Y-87599000D03*
X103515000Y-85059000D03*
X104785000Y-87599000D03*
X106055000Y-85059000D03*
G04 #@! TD*
D17*
G04 #@! TO.C,R25*
X104775000Y-92583000D03*
X104775000Y-90805000D03*
G04 #@! TD*
D18*
G04 #@! TO.C,D2*
X118854000Y-126746000D03*
X123208000Y-126746000D03*
G04 #@! TD*
D17*
G04 #@! TO.C,R57*
X83693000Y-121285000D03*
X83693000Y-119507000D03*
G04 #@! TD*
G04 #@! TO.C,R44*
X83693000Y-124460000D03*
X83693000Y-122682000D03*
G04 #@! TD*
D19*
G04 #@! TO.C,U10*
X87587000Y-122682000D03*
X85387000Y-123632000D03*
X85387000Y-121732000D03*
G04 #@! TD*
G04 #@! TO.C,U9*
X87587000Y-125984000D03*
X85387000Y-126934000D03*
X85387000Y-125034000D03*
G04 #@! TD*
D17*
G04 #@! TO.C,R37*
X86360000Y-120015000D03*
X88138000Y-120015000D03*
G04 #@! TD*
D20*
G04 #@! TO.C,C4*
X120142000Y-115062000D03*
X120142000Y-117094000D03*
G04 #@! TD*
G04 #@! TO.C,C3*
X122174000Y-115062000D03*
X122174000Y-117094000D03*
G04 #@! TD*
D17*
G04 #@! TO.C,R20*
X112649000Y-114300000D03*
X114427000Y-114300000D03*
G04 #@! TD*
G04 #@! TO.C,R19*
X112649000Y-115824000D03*
X114427000Y-115824000D03*
G04 #@! TD*
G04 #@! TO.C,R4*
X119888000Y-129540000D03*
X119888000Y-131318000D03*
G04 #@! TD*
G04 #@! TO.C,R56*
X86614000Y-131953000D03*
X86614000Y-130175000D03*
G04 #@! TD*
G04 #@! TO.C,R55*
X88138000Y-131953000D03*
X88138000Y-130175000D03*
G04 #@! TD*
G04 #@! TO.C,R54*
X84963000Y-96901000D03*
X84963000Y-98679000D03*
G04 #@! TD*
D21*
G04 #@! TO.C,R53*
X74168000Y-130429000D03*
X71374000Y-130429000D03*
G04 #@! TD*
D17*
G04 #@! TO.C,R49*
X127381000Y-105029000D03*
X129159000Y-105029000D03*
G04 #@! TD*
G04 #@! TO.C,R48*
X127381000Y-106553000D03*
X129159000Y-106553000D03*
G04 #@! TD*
D22*
G04 #@! TO.C,R47*
X134239000Y-111379000D03*
X134239000Y-114173000D03*
G04 #@! TD*
D17*
G04 #@! TO.C,R46*
X83185000Y-98806000D03*
X81407000Y-98806000D03*
G04 #@! TD*
G04 #@! TO.C,R45*
X81407000Y-97282000D03*
X83185000Y-97282000D03*
G04 #@! TD*
G04 #@! TO.C,R42*
X93980000Y-118745000D03*
X95758000Y-118745000D03*
G04 #@! TD*
G04 #@! TO.C,R30*
X129032000Y-127381000D03*
X129032000Y-125603000D03*
G04 #@! TD*
D23*
G04 #@! TO.C,Q3*
X97917000Y-112395000D03*
X107315000Y-112395000D03*
G04 #@! TD*
D24*
G04 #@! TO.C,PWR_GOOD1*
X117729000Y-132969000D03*
X117729000Y-134493000D03*
G04 #@! TD*
D25*
G04 #@! TO.C,D6*
X128143000Y-123150000D03*
X128143000Y-118150000D03*
G04 #@! TD*
D17*
G04 #@! TO.C,C28*
X79502000Y-99314000D03*
X79502000Y-101092000D03*
G04 #@! TD*
G04 #@! TO.C,C27*
X73406000Y-128143000D03*
X71628000Y-128143000D03*
G04 #@! TD*
G04 #@! TO.C,C26*
X122682000Y-111379000D03*
X122682000Y-109601000D03*
G04 #@! TD*
G04 #@! TO.C,C25*
X121158000Y-111379000D03*
X121158000Y-109601000D03*
G04 #@! TD*
G04 #@! TO.C,C24*
X110109000Y-119253000D03*
X108331000Y-119253000D03*
G04 #@! TD*
G04 #@! TO.C,C23*
X93980000Y-121158000D03*
X95758000Y-121158000D03*
G04 #@! TD*
G04 #@! TO.C,C22*
X111252000Y-114300000D03*
X109474000Y-114300000D03*
G04 #@! TD*
G04 #@! TO.C,C21*
X93980000Y-114300000D03*
X95758000Y-114300000D03*
G04 #@! TD*
D24*
G04 #@! TO.C,COMPLETE1*
X113411000Y-132969000D03*
X113411000Y-134493000D03*
G04 #@! TD*
G04 #@! TO.C,CHARGING1*
X115570000Y-132969000D03*
X115570000Y-134493000D03*
G04 #@! TD*
D26*
G04 #@! TO.C,C20*
X92075000Y-75819000D03*
X92075000Y-79375000D03*
G04 #@! TD*
G04 #@! TO.C,C19*
X92075000Y-86995000D03*
X92075000Y-83439000D03*
G04 #@! TD*
D17*
G04 #@! TO.C,R43*
X85344000Y-110236000D03*
X87122000Y-110236000D03*
G04 #@! TD*
D27*
G04 #@! TO.C,EXT1*
X101346000Y-137668000D03*
X101346000Y-140208000D03*
X98806000Y-137668000D03*
X98806000Y-140208000D03*
X96266000Y-137668000D03*
X96266000Y-140208000D03*
X93726000Y-137668000D03*
X93726000Y-140208000D03*
X91186000Y-137668000D03*
X91186000Y-140208000D03*
X81026000Y-137668000D03*
X81026000Y-140208000D03*
X78486000Y-137668000D03*
D28*
X78486000Y-140208000D03*
D27*
X83566000Y-140208000D03*
X83566000Y-137668000D03*
X86106000Y-137668000D03*
X86106000Y-140208000D03*
X88646000Y-140208000D03*
X88646000Y-137668000D03*
X114046000Y-137668000D03*
X114046000Y-140208000D03*
X111506000Y-140208000D03*
X111506000Y-137668000D03*
X108966000Y-137668000D03*
X108966000Y-140208000D03*
X103886000Y-140208000D03*
X103886000Y-137668000D03*
X106426000Y-140208000D03*
X106426000Y-137668000D03*
X116586000Y-140208000D03*
X116586000Y-137668000D03*
X119126000Y-140208000D03*
X119126000Y-137668000D03*
X121666000Y-140208000D03*
X121666000Y-137668000D03*
X124206000Y-140208000D03*
X124206000Y-137668000D03*
X126746000Y-140208000D03*
X126746000Y-137668000D03*
G04 #@! TD*
D29*
G04 #@! TO.C,MH3*
X70993000Y-137922000D03*
X75819000Y-137922000D03*
X75057000Y-139573000D03*
X71755000Y-139700000D03*
X75057000Y-136271000D03*
X71755000Y-136271000D03*
X73406000Y-140335000D03*
X73406000Y-135509000D03*
D30*
X73406000Y-137922000D03*
G04 #@! TD*
D29*
G04 #@! TO.C,MH2*
X138557000Y-137922000D03*
X143383000Y-137922000D03*
X142621000Y-139573000D03*
X139319000Y-139700000D03*
X142621000Y-136271000D03*
X139319000Y-136271000D03*
X140970000Y-140335000D03*
X140970000Y-135509000D03*
D30*
X140970000Y-137922000D03*
G04 #@! TD*
D17*
G04 #@! TO.C,R41*
X93980000Y-116967000D03*
X95758000Y-116967000D03*
G04 #@! TD*
G04 #@! TO.C,R40*
X110109000Y-121285000D03*
X108331000Y-121285000D03*
G04 #@! TD*
G04 #@! TO.C,R39*
X92710000Y-93091000D03*
X94488000Y-93091000D03*
G04 #@! TD*
G04 #@! TO.C,R38*
X106807000Y-100203000D03*
X105029000Y-100203000D03*
G04 #@! TD*
G04 #@! TO.C,R36*
X89662000Y-95758000D03*
X87884000Y-95758000D03*
G04 #@! TD*
G04 #@! TO.C,R35*
X110109000Y-122809000D03*
X108331000Y-122809000D03*
G04 #@! TD*
G04 #@! TO.C,R34*
X90170000Y-103378000D03*
X88392000Y-103378000D03*
G04 #@! TD*
G04 #@! TO.C,R33*
X100076000Y-92583000D03*
X100076000Y-90805000D03*
G04 #@! TD*
G04 #@! TO.C,R32*
X102362000Y-92583000D03*
X102362000Y-90805000D03*
G04 #@! TD*
G04 #@! TO.C,R31*
X96266000Y-92583000D03*
X96266000Y-90805000D03*
G04 #@! TD*
G04 #@! TO.C,R29*
X85344000Y-115824000D03*
X87122000Y-115824000D03*
G04 #@! TD*
G04 #@! TO.C,R28*
X98552000Y-92583000D03*
X98552000Y-90805000D03*
G04 #@! TD*
G04 #@! TO.C,R27*
X112649000Y-85852000D03*
X112649000Y-84074000D03*
G04 #@! TD*
G04 #@! TO.C,R26*
X91694000Y-71501000D03*
X91694000Y-73279000D03*
G04 #@! TD*
G04 #@! TO.C,R24*
X85852000Y-101219000D03*
X85852000Y-102997000D03*
G04 #@! TD*
G04 #@! TO.C,R23*
X97790000Y-134874000D03*
X99568000Y-134874000D03*
G04 #@! TD*
G04 #@! TO.C,R22*
X113411000Y-127889000D03*
X113411000Y-126111000D03*
G04 #@! TD*
G04 #@! TO.C,R21*
X89662000Y-130175000D03*
X89662000Y-131953000D03*
G04 #@! TD*
G04 #@! TO.C,R18*
X89662000Y-133985000D03*
X87884000Y-133985000D03*
G04 #@! TD*
G04 #@! TO.C,R17*
X122301000Y-120396000D03*
X120523000Y-120396000D03*
G04 #@! TD*
G04 #@! TO.C,R16*
X81153000Y-103759000D03*
X82931000Y-103759000D03*
G04 #@! TD*
G04 #@! TO.C,R15*
X117729000Y-129540000D03*
X117729000Y-131318000D03*
G04 #@! TD*
G04 #@! TO.C,R14*
X83185000Y-95758000D03*
X81407000Y-95758000D03*
G04 #@! TD*
G04 #@! TO.C,R13*
X136271000Y-128397000D03*
X134493000Y-128397000D03*
G04 #@! TD*
G04 #@! TO.C,R12*
X133096000Y-128397000D03*
X131318000Y-128397000D03*
G04 #@! TD*
G04 #@! TO.C,R11*
X111887000Y-70485000D03*
X113665000Y-70485000D03*
G04 #@! TD*
G04 #@! TO.C,R10*
X125857000Y-135255000D03*
X127635000Y-135255000D03*
G04 #@! TD*
G04 #@! TO.C,R9*
X115570000Y-129540000D03*
X115570000Y-131318000D03*
G04 #@! TD*
G04 #@! TO.C,R8*
X125857000Y-133731000D03*
X127635000Y-133731000D03*
G04 #@! TD*
G04 #@! TO.C,R7*
X113411000Y-129540000D03*
X113411000Y-131318000D03*
G04 #@! TD*
G04 #@! TO.C,R6*
X108077000Y-95123000D03*
X109855000Y-95123000D03*
G04 #@! TD*
G04 #@! TO.C,R5*
X108077000Y-96647000D03*
X109855000Y-96647000D03*
G04 #@! TD*
G04 #@! TO.C,R3*
X112014000Y-97282000D03*
X113792000Y-97282000D03*
G04 #@! TD*
G04 #@! TO.C,R2*
X122936000Y-103124000D03*
X122936000Y-101346000D03*
G04 #@! TD*
G04 #@! TO.C,R1*
X122936000Y-104521000D03*
X122936000Y-106299000D03*
G04 #@! TD*
D24*
G04 #@! TO.C,PWRLED1*
X119888000Y-132969000D03*
X119888000Y-134493000D03*
G04 #@! TD*
D31*
G04 #@! TO.C,PWR2*
X140208000Y-124895000D03*
D32*
X140208000Y-119895000D03*
G04 #@! TD*
D33*
G04 #@! TO.C,PWR1*
X134237000Y-117869000D03*
D34*
X137437000Y-122319000D03*
X130937000Y-122319000D03*
G04 #@! TD*
D24*
G04 #@! TO.C,LED2*
X113538000Y-68834000D03*
X112014000Y-68834000D03*
G04 #@! TD*
G04 #@! TO.C,LED1*
X113538000Y-99695000D03*
X112014000Y-99695000D03*
G04 #@! TD*
D25*
G04 #@! TO.C,D4*
X124841000Y-118150000D03*
X124841000Y-123150000D03*
G04 #@! TD*
D35*
G04 #@! TO.C,CR1*
X88011000Y-100838000D03*
X88011000Y-98298000D03*
X90551000Y-98298000D03*
X90551000Y-100838000D03*
G04 #@! TD*
D32*
G04 #@! TO.C,CON2*
X140500000Y-76774000D03*
D31*
X140500000Y-86774000D03*
D32*
X140500000Y-81774000D03*
G04 #@! TD*
G04 #@! TO.C,CON1*
X140500000Y-91774000D03*
D31*
X140500000Y-101774000D03*
D32*
X140500000Y-96774000D03*
G04 #@! TD*
D17*
G04 #@! TO.C,C18*
X105029000Y-98679000D03*
X106807000Y-98679000D03*
G04 #@! TD*
G04 #@! TO.C,C17*
X92710000Y-98298000D03*
X94488000Y-98298000D03*
G04 #@! TD*
G04 #@! TO.C,C16*
X92710000Y-99822000D03*
X94488000Y-99822000D03*
G04 #@! TD*
G04 #@! TO.C,C15*
X92710000Y-94615000D03*
X94488000Y-94615000D03*
G04 #@! TD*
G04 #@! TO.C,C14*
X105410000Y-94234000D03*
X103632000Y-94234000D03*
G04 #@! TD*
G04 #@! TO.C,C13*
X97790000Y-104902000D03*
X97790000Y-103124000D03*
G04 #@! TD*
G04 #@! TO.C,C12*
X108331000Y-98679000D03*
X108331000Y-100457000D03*
G04 #@! TD*
G04 #@! TO.C,C11*
X106426000Y-92583000D03*
X106426000Y-90805000D03*
G04 #@! TD*
D36*
G04 #@! TO.C,C10*
X87249000Y-112014000D03*
X85217000Y-112014000D03*
G04 #@! TD*
D17*
G04 #@! TO.C,C9*
X104140000Y-103124000D03*
X104140000Y-104902000D03*
G04 #@! TD*
G04 #@! TO.C,C8*
X105664000Y-103124000D03*
X105664000Y-104902000D03*
G04 #@! TD*
G04 #@! TO.C,C7*
X116967000Y-127254000D03*
X115189000Y-127254000D03*
G04 #@! TD*
G04 #@! TO.C,C6*
X116967000Y-125730000D03*
X115189000Y-125730000D03*
G04 #@! TD*
G04 #@! TO.C,C5*
X91948000Y-122809000D03*
X90170000Y-122809000D03*
G04 #@! TD*
D20*
G04 #@! TO.C,C2*
X128016000Y-131572000D03*
X128016000Y-129540000D03*
G04 #@! TD*
G04 #@! TO.C,C1*
X125984000Y-131572000D03*
X125984000Y-129540000D03*
G04 #@! TD*
D37*
G04 #@! TO.C,BAT1*
X138046460Y-132326380D03*
D38*
X138043920Y-130314700D03*
G04 #@! TD*
D39*
G04 #@! TO.C,MH1*
X140970000Y-70358000D03*
G04 #@! TD*
D40*
G04 #@! TO.C,REL1*
X117176000Y-92456000D03*
X131176000Y-98456000D03*
X131176000Y-86456000D03*
X119176000Y-86456000D03*
X119176000Y-98456000D03*
G04 #@! TD*
G04 #@! TO.C,REL2*
X117176000Y-75184000D03*
X131176000Y-81184000D03*
X131176000Y-69184000D03*
X119176000Y-69184000D03*
X119176000Y-81184000D03*
G04 #@! TD*
D41*
G04 #@! TO.C,UEXT1*
X106426000Y-127762000D03*
X106426000Y-130302000D03*
X103886000Y-127762000D03*
X103886000Y-130302000D03*
X101346000Y-127762000D03*
X101346000Y-130302000D03*
X98806000Y-127762000D03*
X98806000Y-130302000D03*
X96266000Y-127762000D03*
D42*
X96266000Y-130302000D03*
G04 #@! TD*
D43*
G04 #@! TO.C,CAN1*
X140000000Y-114315000D03*
X140000000Y-107315000D03*
X140000000Y-110815000D03*
G04 #@! TD*
D44*
G04 #@! TO.C,MICRO_SD1*
X81577000Y-114275000D03*
X81577000Y-108215000D03*
D45*
X70607000Y-105585000D03*
X82407000Y-105585000D03*
X82407000Y-116855000D03*
X70607000Y-117945000D03*
D46*
X72327000Y-107275000D03*
X72327000Y-108375000D03*
X72327000Y-109475000D03*
X72327000Y-110575000D03*
X72327000Y-111675000D03*
X72327000Y-112775000D03*
X72327000Y-113875000D03*
X72327000Y-114975000D03*
G04 #@! TD*
D47*
G04 #@! TO.C,U4*
X99949000Y-98044000D03*
D48*
X101249000Y-97544000D03*
X101249000Y-98544000D03*
X100449000Y-99344000D03*
X99449000Y-99344000D03*
X98649000Y-98544000D03*
X98649000Y-97544000D03*
X99449000Y-96744000D03*
X100449000Y-96744000D03*
D49*
X99949000Y-98044000D03*
D50*
X98199000Y-95594000D03*
X98699000Y-95594000D03*
X99199000Y-95594000D03*
X99699000Y-95594000D03*
X100199000Y-95594000D03*
X100699000Y-95594000D03*
X101199000Y-95594000D03*
X101699000Y-95594000D03*
D51*
X102399000Y-96294000D03*
X102399000Y-96794000D03*
X102399000Y-97294000D03*
X102399000Y-97794000D03*
X102399000Y-98294000D03*
X102399000Y-98794000D03*
X102399000Y-99294000D03*
X102399000Y-99794000D03*
D50*
X101699000Y-100494000D03*
X101199000Y-100494000D03*
X100699000Y-100494000D03*
X100199000Y-100494000D03*
X99699000Y-100494000D03*
X99199000Y-100494000D03*
X98699000Y-100494000D03*
X98199000Y-100494000D03*
D51*
X97499000Y-99794000D03*
X97499000Y-99294000D03*
X97499000Y-98794000D03*
X97499000Y-98294000D03*
X97499000Y-97794000D03*
X97499000Y-97294000D03*
X97499000Y-96794000D03*
X97499000Y-96294000D03*
G04 #@! TD*
D52*
G04 #@! TO.C,LED3*
X78359000Y-130810000D03*
D53*
X78359000Y-133350000D03*
G04 #@! TD*
D54*
G04 #@! TO.C,U7*
X79909000Y-126840000D03*
X78309000Y-119540000D03*
D55*
X72009000Y-125730000D03*
X72009000Y-123190000D03*
X72009000Y-120650000D03*
G04 #@! TD*
D56*
G04 #@! TO.C,U5*
X105346500Y-122686000D03*
X105346500Y-122036000D03*
X105346500Y-121386000D03*
X105346500Y-120736000D03*
X105346500Y-120086000D03*
X105346500Y-119436000D03*
X105346500Y-118786000D03*
X105346500Y-118136000D03*
X105346500Y-117486000D03*
X105346500Y-116836000D03*
X98107500Y-116836000D03*
X98107500Y-117486000D03*
X98107500Y-118136000D03*
X98107500Y-118786000D03*
X98107500Y-119436000D03*
X98107500Y-120086000D03*
X98107500Y-120736000D03*
X98107500Y-121386000D03*
X98107500Y-122036000D03*
X98107500Y-122686000D03*
G04 #@! TD*
D57*
G04 #@! TO.C,U6*
X130770000Y-108458000D03*
X130770000Y-109728000D03*
X130770000Y-110998000D03*
X130770000Y-112268000D03*
X125770000Y-112268000D03*
X125770000Y-110998000D03*
X125770000Y-109728000D03*
X125770000Y-108458000D03*
G04 #@! TD*
D58*
G04 #@! TO.C,U1*
X135369000Y-130318000D03*
X135369000Y-130818000D03*
X135369000Y-131318000D03*
X135369000Y-131818000D03*
X135369000Y-132318000D03*
X130569000Y-132318000D03*
X130569000Y-131818000D03*
X130569000Y-131318000D03*
X130569000Y-130818000D03*
X130569000Y-130318000D03*
G04 #@! TD*
D12*
G04 #@! TO.C,*
X71501000Y-133350000D03*
G04 #@! TD*
G04 #@! TO.C,*
X137160000Y-68580000D03*
G04 #@! TD*
D59*
G04 #@! TO.C,USB-UART1*
X131700000Y-135403000D03*
X132350000Y-135403000D03*
X133000000Y-135403000D03*
X133650000Y-135403000D03*
X134300000Y-135403000D03*
D60*
X131000000Y-136403000D03*
X135000000Y-136403000D03*
D61*
X131500000Y-139703000D03*
X134500000Y-139703000D03*
D62*
X129400000Y-138553000D03*
X129400000Y-135083000D03*
X136600000Y-135083000D03*
X136600000Y-138553000D03*
G04 #@! TD*
D63*
G04 #@! TO.C,U3*
X77969600Y-84682800D03*
D64*
X80281000Y-82346000D03*
D65*
X80310000Y-82333000D03*
D66*
X89010000Y-74673000D03*
X89010000Y-75943000D03*
X89010000Y-77213000D03*
X89010000Y-78483000D03*
X89010000Y-79753000D03*
X89010000Y-81023000D03*
X89010000Y-82293000D03*
X89010000Y-83563000D03*
X89010000Y-84833000D03*
X89010000Y-86103000D03*
X89010000Y-87373000D03*
X89010000Y-88643000D03*
X89010000Y-89913000D03*
X89010000Y-91183000D03*
D67*
X85740000Y-92633000D03*
X84470000Y-92633000D03*
X83200000Y-92633000D03*
X81930000Y-92633000D03*
X80660000Y-92633000D03*
X79390000Y-92633000D03*
X78120000Y-92633000D03*
X76850000Y-92633000D03*
X75580000Y-92633000D03*
X74310000Y-92633000D03*
D66*
X71010000Y-91143000D03*
X71010000Y-89873000D03*
X71010000Y-88603000D03*
X71010000Y-87333000D03*
X71010000Y-86063000D03*
X71010000Y-84793000D03*
X71010000Y-83523000D03*
X71010000Y-82253000D03*
X71010000Y-80983000D03*
X71010000Y-79713000D03*
X71010000Y-78443000D03*
X71010000Y-77173000D03*
X71010000Y-75903000D03*
X71010000Y-74633000D03*
D63*
X82643200Y-84682800D03*
X77969600Y-79983800D03*
X82643200Y-79983800D03*
X80281000Y-79983800D03*
X80281000Y-84682800D03*
X77969600Y-82219000D03*
X82643200Y-82219000D03*
G04 #@! TD*
D68*
G04 #@! TO.C,RM1*
X84963000Y-106299000D03*
X84963000Y-105537000D03*
X86487000Y-106299000D03*
X86487000Y-105537000D03*
D69*
X84963000Y-107188000D03*
X86487000Y-107188000D03*
X84963000Y-104648000D03*
X86487000Y-104648000D03*
G04 #@! TD*
D70*
G04 #@! TO.C,RM2*
X94996000Y-104775000D03*
X94234000Y-104775000D03*
X94996000Y-103251000D03*
X94234000Y-103251000D03*
D71*
X95885000Y-104775000D03*
X95885000Y-103251000D03*
X93345000Y-104775000D03*
X93345000Y-103251000D03*
G04 #@! TD*
D70*
G04 #@! TO.C,RM3*
X100584000Y-103251000D03*
X101346000Y-103251000D03*
X100584000Y-104775000D03*
X101346000Y-104775000D03*
D71*
X99695000Y-103251000D03*
X99695000Y-104775000D03*
X102235000Y-103251000D03*
X102235000Y-104775000D03*
G04 #@! TD*
D72*
G04 #@! TO.C,U2*
X115890000Y-118775000D03*
X116840000Y-118775000D03*
X117790000Y-118775000D03*
X115890000Y-116175000D03*
X117790000Y-116175000D03*
G04 #@! TD*
D19*
G04 #@! TO.C,Q1*
X120741440Y-103184960D03*
X120741440Y-101282500D03*
X118531640Y-102237540D03*
G04 #@! TD*
G04 #@! TO.C,Q4*
X92039440Y-117154960D03*
X92039440Y-115252500D03*
X89829640Y-116207540D03*
G04 #@! TD*
G04 #@! TO.C,Q5*
X91912440Y-120710960D03*
X91912440Y-118808500D03*
X89702640Y-119763540D03*
G04 #@! TD*
G04 #@! TO.C,Q7*
X84800440Y-132013960D03*
X84800440Y-130111500D03*
X82590640Y-131066540D03*
G04 #@! TD*
D73*
G04 #@! TO.C,Q2*
X108016040Y-93309440D03*
X109918500Y-93309440D03*
X108963460Y-91099640D03*
G04 #@! TD*
D19*
G04 #@! TO.C,D3*
X112141000Y-73284000D03*
X112141000Y-77084000D03*
G04 #@! TD*
G04 #@! TO.C,D1*
X112141000Y-90556000D03*
X112141000Y-94356000D03*
G04 #@! TD*
D73*
G04 #@! TO.C,D5*
X106040000Y-134874000D03*
X102240000Y-134874000D03*
G04 #@! TD*
G04 #@! TO.C,FET2*
X127314960Y-125511560D03*
X125412500Y-125511560D03*
X126367540Y-127721360D03*
G04 #@! TD*
D19*
G04 #@! TO.C,FET1*
X122265440Y-123885960D03*
X122265440Y-121983500D03*
X120055640Y-122938540D03*
G04 #@! TD*
D74*
G04 #@! TO.C,U8*
X84104000Y-102169000D03*
X84104000Y-101219000D03*
X84104000Y-100269000D03*
X81504000Y-102169000D03*
X81504000Y-100269000D03*
G04 #@! TD*
D20*
G04 #@! TO.C,L4*
X87249000Y-113919000D03*
X85217000Y-113919000D03*
G04 #@! TD*
D36*
G04 #@! TO.C,L3*
X107569000Y-104648000D03*
X107569000Y-102616000D03*
G04 #@! TD*
D20*
G04 #@! TO.C,L1*
X95758000Y-122809000D03*
X93726000Y-122809000D03*
G04 #@! TD*
D75*
G04 #@! TO.C,L2*
X117221000Y-123374000D03*
X117221000Y-120974000D03*
G04 #@! TD*
D17*
G04 #@! TO.C,C29*
X115062000Y-102489000D03*
X116840000Y-102489000D03*
G04 #@! TD*
D73*
G04 #@! TO.C,FET3*
X113725960Y-102524560D03*
X111823500Y-102524560D03*
X112778540Y-104734360D03*
G04 #@! TD*
D19*
G04 #@! TO.C,FET4*
X120614440Y-106486960D03*
X120614440Y-104584500D03*
X118404640Y-105539540D03*
G04 #@! TD*
D36*
G04 #@! TO.C,L5*
X109601000Y-102616000D03*
X109601000Y-104648000D03*
G04 #@! TD*
D17*
G04 #@! TO.C,R50*
X115062000Y-105537000D03*
X116840000Y-105537000D03*
G04 #@! TD*
G04 #@! TO.C,R51*
X115062000Y-104013000D03*
X116840000Y-104013000D03*
G04 #@! TD*
M02*
